<?xml version="1.0" encoding="utf-8"?>
<svg xmlns="http://www.w3.org/2000/svg" viewBox="0 0 500 300" xmlns:bx="https://boxy-svg.com">
  <defs>
    <linearGradient gradientUnits="userSpaceOnUse" x1="252.888" y1="-3.894" x2="252.888" y2="307.438" id="gradient-0" gradientTransform="matrix(1, 0, 0, 1, -5.5959, -5.71177)">
      <stop offset="0" style="stop-color: rgb(100% 43.922% 19.216%)"/>
      <stop offset="1" style="stop-color: rgb(67.835% 14.96% 0%)"/>
    </linearGradient>
  </defs>
  <rect x="-7.434" y="-9.606" width="509.452" height="311.332" style="fill: url(&quot;#gradient-0&quot;);"/>
  <g transform="matrix(1, 0, 0, 1, -75.082, 0.72348)">
    <rect x="16.837" y="214.29" width="6.322" height="37.994" style="fill: rgb(123, 38, 18); stroke: rgb(49, 14, 9);" transform="matrix(-0.423501, 0.905896, 0.893472, 0.450076, 230.641755, 59.021292)"/>
    <ellipse style="fill: rgb(123, 38, 18); stroke: rgb(49, 14, 9);" cx="16.095" cy="45.604" rx="5.606" ry="5.36" transform="matrix(0.431051, -0.902328, -0.889514, -0.457873, 480.221018, 224.601002)"/>
    <rect x="15.888" y="213.95" width="5.967" height="37.932" style="fill: rgb(123, 38, 18); stroke: rgb(49, 14, 9);" transform="matrix(0.021375, 0.999772, 0.999736, -0.023033, 197.72976, 145.689066)"/>
    <ellipse style="fill: rgb(123, 38, 18); stroke: rgb(49, 14, 9);" cx="16.095" cy="45.604" rx="5.646" ry="5.322" transform="matrix(-0.013144, -0.999914, -0.9999, 0.014163, 491.12201, 174.074994)"/>
    <rect x="-16.398" y="-248.66" width="6.157" height="44.091" style="fill: rgb(123, 38, 18); stroke: rgb(49, 14, 9);" transform="matrix(0.394003, 0.919109, 0.908179, -0.4195, 642.83731, 50.264357)"/>
    <ellipse style="fill: rgb(123, 38, 18); stroke: rgb(49, 14, 9);" cx="16.095" cy="45.604" rx="5.614" ry="5.352" transform="matrix(-0.386334, -0.922359, -0.911809, 0.411522, 495.226994, 121.559002)"/>
    <rect x="12.928" y="216.013" width="4.854" height="38.3" style="fill: rgb(123, 38, 18); stroke: rgb(49, 14, 9);" transform="matrix(0.423502, 0.905895, -0.893472, 0.450076, 568.312, 63.1264)"/>
    <ellipse style="fill: rgb(123, 38, 18); stroke: rgb(49, 14, 9);" cx="16.095" cy="45.604" rx="5.606" ry="5.36" transform="matrix(-0.431051, -0.902328, 0.889514, -0.457873, 317.923982, 224.342002)"/>
    <rect x="16.116" y="192.996" width="6.053" height="34.218" style="fill: rgb(123, 38, 18); stroke: rgb(49, 14, 9);" transform="matrix(-0.021375, 0.999772, -0.999736, -0.023033, 575.758, 144.632)"/>
    <ellipse style="fill: rgb(123, 38, 18); stroke: rgb(49, 14, 9);" cx="16.095" cy="45.604" rx="5.646" ry="5.322" transform="matrix(0.013144, -0.999914, 0.9999, 0.014163, 307.02199, 173.816994)"/>
    <rect x="13.826" y="219.401" width="5.191" height="38.902" style="fill: rgb(123, 38, 18); stroke: rgb(49, 14, 9);" transform="matrix(-0.394003, 0.919109, -0.908179, -0.419501, 587.592, 216.405)"/>
    <ellipse style="fill: rgb(123, 38, 18); stroke: rgb(49, 14, 9);" cx="16.095" cy="45.604" rx="5.614" ry="5.352" transform="matrix(0.386334, -0.922359, 0.911809, 0.411522, 302.918006, 121.302002)"/>
    <rect x="381.148" y="193.689" width="9.421" height="23.227" style="stroke: rgb(49, 14, 9); fill: rgb(49, 14, 9);"/>
    <rect x="382.844" y="216.866" width="5.495" height="20.781" style="stroke-width: 2px; stroke: rgb(49, 14, 9); fill: rgb(49, 14, 9);"/>
    <rect x="404.733" y="188.848" width="9.421" height="23.227" style="stroke: rgb(49, 14, 9); fill: rgb(49, 14, 9);"/>
    <rect x="406.43" y="212.025" width="5.495" height="20.781" style="stroke-width: 2px; stroke: rgb(49, 14, 9); fill: rgb(49, 14, 9);"/>
    <g transform="matrix(1.617, 0, 0, 1.67851, 388.217, 48.8823)" style="">
      <rect x="15.525" y="11.568" width="4.127" height="13.352" style="stroke: rgb(49, 14, 9); fill: rgb(49, 14, 9);"/>
      <ellipse style="stroke: rgb(49, 14, 9); fill: rgb(49, 14, 9);" cx="17.104" cy="10.315" rx="4.006" ry="4.006"/>
    </g>
    <g transform="matrix(1.617, 0, 0, 1.67851, 351.712, 45.9807)" style="">
      <rect x="15.525" y="11.568" width="4.127" height="13.352" style="stroke: rgb(49, 14, 9); fill: rgb(49, 14, 9);"/>
      <ellipse style="stroke: rgb(49, 14, 9); fill: rgb(49, 14, 9);" cx="17.104" cy="10.315" rx="4.006" ry="4.006"/>
    </g>
    <ellipse style="stroke: rgb(49, 14, 9); fill: rgb(49, 14, 9);" cx="397.628" cy="181.142" rx="24.921" ry="29.465"/>
    <ellipse style="fill: rgb(123, 38, 18); stroke: rgb(49, 14, 9);" cx="397.557" cy="176.049" rx="23.856" ry="19.379"/>
    <ellipse style="stroke: rgb(49, 14, 9); fill: rgb(49, 14, 9);" cx="396.993" cy="152.986" rx="22.572" ry="30.886"/>
    <ellipse style="fill: rgb(123, 38, 18); stroke: rgb(49, 14, 9);" cx="397.198" cy="139.014" rx="19.027" ry="17.208"/>
    <path d="M 429.419 105.108 C 429.419 118.077 422.386 129.34 412.065 135.015 C 411.564 140.693 409.4 144.964 406.808 144.964 C 404.779 144.964 403.013 142.35 402.101 138.489 C 400.389 138.78 398.629 138.929 396.838 138.929 C 395.704 138.929 394.585 138.868 393.481 138.751 C 392.58 142.703 390.793 145.396 388.735 145.396 C 386.225 145.396 384.118 141.394 383.531 135.987 C 372.17 130.706 364.257 118.868 364.257 105.108 C 364.257 86.43 378.844 71.288 396.838 71.288 C 414.832 71.288 429.419 86.43 429.419 105.108 Z" style="stroke-width: 2px; stroke: rgb(49, 14, 9); fill: rgb(49, 14, 9);"/>
    <ellipse style="fill: rgb(123, 38, 18); stroke: rgb(49, 14, 9);" cx="399.981" cy="105.024" rx="28.708" ry="31.122"/>
    <path d="M 403.619 105.072 C 403.619 112.9 399.756 119.245 394.989 119.245 C 390.222 119.245 386.359 112.9 386.359 105.072 C 386.359 97.244 388.877 91.969 394.989 97.318 C 401.101 102.667 403.619 97.244 403.619 105.072 Z" style="stroke: rgb(49, 14, 9); fill: rgb(49, 14, 9);"/>
    <ellipse style="stroke: rgb(49, 14, 9); fill: rgb(49, 14, 9);" cx="386.326" cy="234.09" rx="6.94" ry="5.455"/>
    <ellipse style="stroke: rgb(49, 14, 9); fill: rgb(49, 14, 9);" cx="408.951" cy="230.02" rx="6.132" ry="4.267"/>
    <path d="M 426.543 108.067 C 426.543 100.24 422.68 93.895 417.913 93.895 C 413.146 93.895 409.283 100.24 409.283 108.067 C 409.283 115.895 411.801 121.17 417.913 115.821 C 424.025 110.473 426.543 115.895 426.543 108.067 Z" style="stroke: rgb(49, 14, 9); fill: rgb(49, 14, 9); transform-box: fill-box; transform-origin: 50% 50%;" transform="matrix(-1, 0, 0, -1, 0.000054, -0.000003)"/>
  </g>
  <g transform="matrix(1, 0, 0, 1, 46.3872, 7.9234)">
    <path d="M 128.898 148.73 C 128.898 128.206 120.21 120.125 107.885 120.615 C 95.559 121.103 85.244 128.206 85.244 148.73 C 85.244 169.253 97.186 220.608 109.24 220.608 C 121.294 220.608 128.898 169.253 128.898 148.73 Z" style="stroke: rgb(49, 14, 9); fill: rgb(49, 14, 9); transform-origin: 107.07px 170.601px;" transform="matrix(-0.998885, 0.047213, -0.047213, -0.998885, 0.000006, 0.000028)"/>
    <path d="M 164.837 150.415 C 164.837 127.719 156.149 118.783 143.824 119.324 C 131.498 119.864 121.183 127.719 121.183 150.415 C 121.183 173.111 133.125 229.902 145.179 229.902 C 157.233 229.902 164.837 173.111 164.837 150.415 Z" style="stroke: rgb(49, 14, 9); fill: rgb(49, 14, 9); transform-origin: 143.009px 174.601px;" transform="matrix(-0.978004, 0.208584, -0.208584, -0.978004, -0.000002, 0.000027)"/>
    <g transform="matrix(0.822181, 0.171746, -0.161542, 0.773334, 126.231, 47.9707)" style="transform-origin: -36.017px 113.779px;">
      <rect x="-39.395" y="-139.19" width="6.758" height="38.305" rx="3" ry="3" style="fill: rgb(123, 38, 18); stroke: rgb(49, 14, 9);" transform="matrix(1, 0, 0, -1, 0, 0)"/>
      <rect x="-40.697" y="-112.07" width="9.966" height="38.305" rx="3" ry="3" style="fill: rgb(123, 38, 18); stroke: rgb(49, 14, 9);" transform="matrix(1, 0, 0, -1, 0, 0)"/>
      <path d="M -26.43 144.059 C -26.43 144.853 -26.524 145.625 -26.7 146.364 C -27.372 146.088 -28.094 145.938 -28.845 145.938 C -32.442 145.938 -35.358 149.378 -35.358 153.622 C -35.358 153.671 -35.358 153.72 -35.357 153.769 C -35.575 153.784 -35.795 153.792 -36.017 153.792 C -41.312 153.792 -45.604 149.434 -45.604 144.059 C -45.604 138.684 -41.312 134.326 -36.017 134.326 C -30.722 134.326 -26.43 138.684 -26.43 144.059 Z" style="fill: rgb(123, 38, 18); stroke: rgb(49, 14, 9);"/>
    </g>
    <rect x="115.398" y="178.172" width="17.127" height="47.05" rx="3" ry="3" style="stroke: rgb(49, 14, 9); fill: rgb(77, 23, 15);"/>
    <rect x="98.591" y="187.052" width="18.582" height="47.05" rx="3" ry="3" style="fill: rgb(123, 38, 18); stroke: rgb(49, 14, 9);"/>
    <rect x="80.395" y="80.729" width="7.138" height="37.836" style="fill: rgb(123, 38, 18); stroke: rgb(49, 14, 9);"/>
    <rect x="78.056" y="115.601" width="11.729" height="11.073" rx="3" ry="3" style="fill: rgb(123, 38, 18); stroke: rgb(49, 14, 9);"/>
    <rect x="80.03" y="118.462" width="7.432" height="5.724" rx="3" ry="3" style="fill: rgb(123, 38, 18); stroke: rgb(49, 14, 9);"/>
    <path d="M 137.549 177.62 C 137.549 192.405 127.583 213.751 115.29 213.751 C 102.997 213.751 93.031 192.405 93.031 177.62 C 93.031 162.831 102.997 150.845 115.29 150.845 C 127.583 150.845 137.549 162.831 137.549 177.62 Z" style="stroke-width: 2px; fill: rgb(123, 38, 18); stroke: rgb(49, 14, 9);"/>
    <path d="M 140.489 143.742 C 140.489 159.434 129.025 182.089 114.882 182.089 C 100.739 182.089 89.274 159.434 89.274 143.742 C 89.274 128.048 100.739 115.326 114.882 115.326 C 129.025 115.326 140.489 128.048 140.489 143.742 Z" style="stroke-width: 2px; fill: rgb(123, 38, 18); stroke: rgb(49, 14, 9);"/>
    <path d="M 145.802 88.08 C 145.802 107.183 131.108 134.761 112.981 134.761 C 94.854 134.761 80.158 107.183 80.158 88.08 C 80.158 68.975 94.854 53.489 112.981 53.489 C 131.108 53.489 145.802 68.975 145.802 88.08 Z" style="stroke-width: 2px; fill: rgb(123, 38, 18); stroke: rgb(49, 14, 9);"/>
    <rect x="140.729" y="81.388" width="7.138" height="37.836" style="fill: rgb(123, 38, 18); stroke: rgb(49, 14, 9);"/>
    <rect x="138.389" y="116.26" width="11.729" height="11.073" rx="3" ry="3" style="fill: rgb(123, 38, 18); stroke: rgb(49, 14, 9);"/>
    <rect x="140.363" y="119.122" width="7.432" height="5.724" rx="3" ry="3" style="fill: rgb(123, 38, 18); stroke: rgb(49, 14, 9);"/>
    <path d="M 95.541 93.052 C 98.742 94.674 102.67 99.229 101.138 102.103 C 99.605 104.978 93.192 105.084 89.991 103.462 C 86.789 101.841 82.868 95.12 84.401 92.245 C 85.934 89.371 92.34 91.431 95.541 93.052 Z" style="stroke: rgb(49, 14, 9); fill: rgb(49, 14, 9); transform-origin: 103.492px 105.085px;"/>
    <path d="M 116.361 92.081 C 112.529 94.021 107.755 99.331 109.483 102.573 C 111.211 105.813 118.787 105.758 122.618 103.817 C 126.449 101.877 131.278 94.094 129.55 90.853 C 127.822 87.611 120.191 90.14 116.361 92.081 Z" style="stroke: rgb(49, 14, 9); fill: rgb(49, 14, 9); transform-origin: 133.397px 104.694px;"/>
    <path d="M 113.713 47.376 C 130.726 47.376 144.963 64.185 148.577 86.703 L 78.851 86.703 C 82.462 64.185 96.702 47.376 113.713 47.376 Z" style="fill: rgb(123, 38, 18); stroke: rgb(49, 14, 9);"/>
    <g style="" transform="matrix(0.666343, 0, 0, 0.903207, 70.13, 46.1297)">
      <g style="transform-origin: 120.764px 91.883px;" transform="matrix(0.739805, -0.000746, -0.000745, -0.738429, -74.4211, -61.3658)">
        <g style="transform-origin: 120.764px 91.883px;" transform="matrix(1.12826, -0.116701, 0.197372, 0.989897, 2.22935, -0.001843)">
          <path d="M 119.629 78.499 Q 120.283 77.981 120.937 78.499 L 132.704 87.826 Q 133.358 88.344 133.108 89.182 L 128.614 104.272 Q 128.364 105.111 127.556 105.111 L 113.01 105.111 Q 112.202 105.111 111.952 104.272 L 107.458 89.182 Q 107.208 88.344 107.862 87.826 Z" bx:shape="n-gon 120.283 92.978 13.748 14.997 5 0.05 1@1f2e3d5a" style="fill: rgb(123, 38, 18); stroke: rgb(49, 14, 9);"/>
          <path d="M 120.764 76.405 L 125.278 87.505 L 136.723 91.883 L 125.278 96.261 L 120.764 107.361 L 116.25 96.261 L 104.805 91.883 L 116.25 87.505 Z" bx:shape="star 120.764 91.883 15.959 15.478 0.4 4 1@274497ff" style="fill: rgb(123, 38, 18); stroke: rgb(49, 14, 9);"/>
        </g>
      </g>
    </g>
    <g transform="matrix(0.977261, 0.212041, -0.212041, 0.977261, -98.085, 54.3817)" style="transform-origin: 224.802px 88.042px;">
      <g style="transform-origin: 120.764px 91.883px;" transform="matrix(0.4893, -0.102932, -0.101012, -0.480173, 104.038, -3.84122)">
        <path d="M 119.629 78.499 Q 120.283 77.981 120.937 78.499 L 132.704 87.826 Q 133.358 88.344 133.108 89.182 L 128.614 104.272 Q 128.364 105.111 127.556 105.111 L 113.01 105.111 Q 112.202 105.111 111.952 104.272 L 107.458 89.182 Q 107.208 88.344 107.862 87.826 Z" bx:shape="n-gon 120.283 92.978 13.748 14.997 5 0.05 1@1f2e3d5a" style="fill: rgb(123, 38, 18); stroke: rgb(49, 14, 9);"/>
        <path d="M 120.764 76.405 L 125.278 87.505 L 136.723 91.883 L 125.278 96.261 L 120.764 107.361 L 116.25 96.261 L 104.805 91.883 L 116.25 87.505 Z" bx:shape="star 120.764 91.883 15.959 15.478 0.4 4 1@274497ff" style="fill: rgb(123, 38, 18); stroke: rgb(49, 14, 9);"/>
      </g>
    </g>
    <g transform="matrix(-0.984578, 0.205669, 0.177162, 0.848108, 179.263, 53.4857)" style="transform-origin: -36.017px 113.779px;">
      <rect x="-39.395" y="-139.19" width="6.758" height="38.305" rx="3" ry="3" style="fill: rgb(123, 38, 18); stroke: rgb(49, 14, 9);" transform="matrix(1, 0, 0, -1, 0, 0)"/>
      <rect x="-40.697" y="-112.07" width="9.966" height="38.305" rx="3" ry="3" style="fill: rgb(123, 38, 18); stroke: rgb(49, 14, 9);" transform="matrix(1, 0, 0, -1, 0, 0)"/>
      <path d="M -26.43 144.059 C -26.43 144.853 -26.524 145.625 -26.7 146.364 C -27.372 146.088 -28.094 145.938 -28.845 145.938 C -32.442 145.938 -35.358 149.378 -35.358 153.622 C -35.358 153.671 -35.358 153.72 -35.357 153.769 C -35.575 153.784 -35.795 153.792 -36.017 153.792 C -41.312 153.792 -45.604 149.434 -45.604 144.059 C -45.604 138.684 -41.312 134.326 -36.017 134.326 C -30.722 134.326 -26.43 138.684 -26.43 144.059 Z" style="fill: rgb(123, 38, 18); stroke: rgb(49, 14, 9);"/>
    </g>
  </g>
  <g transform="matrix(1, 0, 0, 1, -11.873, 6.28227)">
    <path d="M 291.597 162.373 C 291.597 186.722 275.851 221.876 256.429 221.876 C 237.004 221.876 221.262 186.722 221.262 162.373 C 221.262 138.018 237.004 118.28 256.429 118.28 C 275.851 118.28 291.597 138.018 291.597 162.373 Z" style="stroke-width: 2px; stroke: rgb(49, 14, 9); fill: rgb(49, 14, 9);"/>
    <path d="M 280.072 181.221 C 280.072 198.462 269.503 223.353 256.467 223.353 C 243.43 223.353 232.862 198.462 232.862 181.221 C 232.862 163.976 243.43 150 256.467 150 C 269.503 150 280.072 163.976 280.072 181.221 Z" style="stroke-width: 2px; fill: rgb(123, 38, 18); stroke: rgb(49, 14, 9);"/>
    <rect x="256.207" y="171.208" width="17.127" height="59.043" rx="3" ry="3" style="stroke: rgb(49, 14, 9); fill: rgb(49, 14, 9);"/>
    <rect x="240.4" y="170.787" width="18.582" height="64.267" rx="3" ry="3" style="stroke: rgb(49, 14, 9); fill: rgb(77, 23, 15);"/>
    <g transform="matrix(0.994898, -0.10089, 0.10089, 0.994898, 17.4932, 10.9703)" style="transform-origin: 209.175px 154.383px;">
      <path d="M 216.702 152.108 L 228.143 126.132 C 228.84 124.549 228.126 122.698 226.549 122 L 222.717 120.3 C 221.139 119.6 219.296 120.316 218.598 121.899 L 207.159 147.875 C 206.725 148.859 206.836 149.947 207.363 150.796 L 198.518 170.877 C 197.82 172.461 198.535 174.311 200.112 175.011 L 200.87 175.347 C 202.448 176.047 204.292 175.332 204.989 173.748 L 213.699 153.973 C 214.95 154.031 216.166 153.326 216.702 152.108 Z" style="fill: rgb(123, 38, 18); stroke: rgb(49, 14, 9);"/>
      <path d="M 207.58 181.535 C 207.229 182.402 206.805 183.21 206.326 183.95 C 205.867 183.393 205.308 182.952 204.659 182.665 C 201.548 181.29 197.501 183.934 195.62 188.572 C 195.598 188.626 195.577 188.68 195.555 188.734 C 195.36 188.667 195.166 188.591 194.974 188.507 C 190.395 186.482 188.615 180.079 190.997 174.206 C 193.381 168.331 199.025 165.21 203.604 167.234 C 208.184 169.258 209.964 175.661 207.58 181.535 Z" style="fill: rgb(123, 38, 18); stroke: rgb(49, 14, 9); transform-origin: 200.772px 175.202px;"/>
    </g>
    <g transform="matrix(-0.994898, -0.10089, -0.10089, 0.994898, 76.0885, 8.81937)" style="transform-origin: 209.175px 154.383px;">
      <path d="M 216.702 152.108 L 228.143 126.132 C 228.84 124.549 228.126 122.698 226.549 122 L 222.717 120.3 C 221.139 119.6 219.296 120.316 218.598 121.899 L 207.159 147.875 C 206.725 148.859 206.836 149.947 207.363 150.796 L 198.518 170.877 C 197.82 172.461 198.535 174.311 200.112 175.011 L 200.87 175.347 C 202.448 176.047 204.292 175.332 204.989 173.748 L 213.699 153.973 C 214.95 154.031 216.166 153.326 216.702 152.108 Z" style="fill: rgb(123, 38, 18); stroke: rgb(49, 14, 9);"/>
      <path d="M 207.58 181.535 C 207.229 182.402 206.805 183.21 206.326 183.95 C 205.867 183.393 205.308 182.952 204.659 182.665 C 201.548 181.29 197.501 183.934 195.62 188.572 C 195.598 188.626 195.577 188.68 195.555 188.734 C 195.36 188.667 195.166 188.591 194.974 188.507 C 190.395 186.482 188.615 180.079 190.997 174.206 C 193.381 168.331 199.025 165.21 203.604 167.234 C 208.184 169.258 209.964 175.661 207.58 181.535 Z" style="fill: rgb(123, 38, 18); stroke: rgb(49, 14, 9); transform-origin: 200.772px 175.202px;"/>
    </g>
    <path d="M 282.298 148.771 C 282.298 164.463 270.834 187.118 256.691 187.118 C 242.548 187.118 231.083 164.463 231.083 148.771 C 231.083 133.077 242.548 120.355 256.691 120.355 C 270.834 120.355 282.298 133.077 282.298 148.771 Z" style="stroke-width: 2px; fill: rgb(123, 38, 18); stroke: rgb(49, 14, 9);"/>
    <path d="M 287.611 93.109 C 287.611 112.212 272.917 139.79 254.79 139.79 C 236.663 139.79 221.967 112.212 221.967 93.109 C 221.967 82.615 226.401 73.213 233.402 66.869 C 226.312 56.594 212.617 42.817 202.167 33.209 L 237.505 63.698 C 242.525 60.414 248.447 58.518 254.79 58.518 C 258.882 58.518 262.798 59.307 266.41 60.748 L 305.269 27.223 C 293.81 37.759 278.445 53.311 272.168 63.759 C 281.442 69.871 287.611 80.73 287.611 93.109 Z M 202.167 33.209 L 190.488 23.133 C 192.926 24.984 197.176 28.621 202.167 33.209 Z M 316.943 17.152 L 305.269 27.223 C 310.258 22.637 314.506 19.002 316.943 17.152 Z" style="stroke-width: 2px; fill: rgb(123, 38, 18); stroke: rgb(49, 14, 9);"/>
    <path d="M 242.35 98.081 C 245.551 99.703 249.479 104.258 247.947 107.132 C 246.414 110.007 240.001 110.113 236.8 108.491 C 233.598 106.87 229.677 100.149 231.21 97.274 C 232.743 94.4 239.149 96.46 242.35 98.081 Z" style="stroke: rgb(49, 14, 9); fill: rgb(49, 14, 9); transform-origin: 250.301px 110.114px;"/>
    <path d="M 263.17 97.11 C 259.338 99.05 254.564 104.36 256.292 107.602 C 258.02 110.842 265.596 110.787 269.427 108.846 C 273.258 106.906 278.087 99.123 276.359 95.882 C 274.631 92.64 267 95.169 263.17 97.11 Z" style="stroke: rgb(49, 14, 9); fill: rgb(49, 14, 9); transform-origin: 280.206px 109.723px;"/>
    <rect x="252.68" y="224.357" width="29.519" height="18.087" rx="6.132" ry="6.132" style="stroke: rgb(49, 14, 9); fill: rgb(49, 14, 9);"/>
    <rect x="232.712" y="222.832" width="33.63" height="19.849" rx="6.132" ry="6.132" style="stroke: rgb(49, 14, 9); fill: rgb(77, 23, 15);"/>
  </g>
  <g>
    <ellipse style="fill: rgb(49, 14, 9);" cx="111.428" cy="40.828" rx="14.525" ry="15.131"/>
    <path style="fill: rgb(230, 90, 34);" transform="matrix(0.443058, 0, 0, 0.496794, -30.6511, -57.2069)" d="M 314.412 190.5 A 18 18 0 1 1 314.412 208.5 A 13.171 13.171 0 1 0 314.412 190.5 Z" bx:shape="crescent 330 199.5 18 300 0.7 1@04093c0d"/>
    <path style="fill: rgb(230, 90, 34);" transform="matrix(-0.366473, 0, 0, 0.363412, 229.323999999999, -38.3146)" d="M 314.412 190.5 A 18 18 0 1 1 314.412 208.5 A 13.171 13.171 0 1 0 314.412 190.5 Z" bx:shape="crescent 330 199.5 18 300 0.7 1@04093c0d"/>
    <path style="fill: rgb(230, 90, 34); transform-box: fill-box; transform-origin: 50% 50%;" transform="matrix(-0.190654, -0.1352, 0.144084, -0.203182, -223.775274, -151.936892)" d="M 314.412 190.5 A 18 18 0 1 1 314.412 208.5 A 13.171 13.171 0 1 0 314.412 190.5 Z" bx:shape="crescent 330 199.5 18 300 0.7 1@04093c0d"/>
  </g>
  <g transform="matrix(1, 0, 0, 1, 269.516, 4.02262)">
    <ellipse style="fill: rgb(49, 14, 9);" cx="111.428" cy="40.828" rx="14.525" ry="15.131"/>
    <path style="fill: rgb(230, 90, 34);" transform="matrix(0.443058, 0, 0, 0.496794, -30.6511, -57.2069)" d="M 314.412 190.5 A 18 18 0 1 1 314.412 208.5 A 13.171 13.171 0 1 0 314.412 190.5 Z" bx:shape="crescent 330 199.5 18 300 0.7 1@04093c0d"/>
    <path style="fill: rgb(230, 90, 34);" transform="matrix(-0.366473, 0, 0, 0.363412, 229.323999999999, -38.3146)" d="M 314.412 190.5 A 18 18 0 1 1 314.412 208.5 A 13.171 13.171 0 1 0 314.412 190.5 Z" bx:shape="crescent 330 199.5 18 300 0.7 1@04093c0d"/>
    <path style="fill: rgb(230, 90, 34); transform-box: fill-box; transform-origin: 50% 50%;" transform="matrix(-0.190654, -0.1352, 0.144084, -0.203182, -223.775274, -151.936892)" d="M 314.412 190.5 A 18 18 0 1 1 314.412 208.5 A 13.171 13.171 0 1 0 314.412 190.5 Z" bx:shape="crescent 330 199.5 18 300 0.7 1@04093c0d"/>
  </g>
  <g transform="matrix(1.60928, 0, 0, 1.58488, 65.6611, -41.3831)" style="">
    <ellipse style="fill: rgb(49, 14, 9);" cx="111.428" cy="40.828" rx="14.525" ry="15.131"/>
    <path style="fill: rgb(230, 90, 34);" transform="matrix(0.443058, 0, 0, 0.496794, -30.6511, -57.2069)" d="M 314.412 190.5 A 18 18 0 1 1 314.412 208.5 A 13.171 13.171 0 1 0 314.412 190.5 Z" bx:shape="crescent 330 199.5 18 300 0.7 1@04093c0d"/>
    <path style="fill: rgb(230, 90, 34);" transform="matrix(-0.366473, 0, 0, 0.363412, 229.323999999999, -38.3146)" d="M 314.412 190.5 A 18 18 0 1 1 314.412 208.5 A 13.171 13.171 0 1 0 314.412 190.5 Z" bx:shape="crescent 330 199.5 18 300 0.7 1@04093c0d"/>
    <path style="fill: rgb(230, 90, 34); transform-box: fill-box; transform-origin: 50% 50%;" transform="matrix(-0.190654, -0.1352, 0.144084, -0.203182, -223.775274, -151.936892)" d="M 314.412 190.5 A 18 18 0 1 1 314.412 208.5 A 13.171 13.171 0 1 0 314.412 190.5 Z" bx:shape="crescent 330 199.5 18 300 0.7 1@04093c0d"/>
  </g>
</svg>