<?xml version="1.0" encoding="utf-8"?>
<svg xmlns="http://www.w3.org/2000/svg" viewBox="0 0 500 300" xmlns:bx="https://boxy-svg.com">
  <defs>
    <linearGradient gradientUnits="userSpaceOnUse" x1="25.349" y1="142.616" x2="25.349" y2="198.99" id="gradient-10" gradientTransform="matrix(-0.713873, -0.132649, 0.09747, -0.615368, 251.394, 307)">
      <stop offset="0" style="stop-color: rgb(21.961% 9.0196% 3.9216%)"/>
      <stop offset="1" style="stop-color: rgb(17.303% 5.2172% 0%)"/>
    </linearGradient>
    <linearGradient gradientUnits="userSpaceOnUse" x1="50.803" y1="31.837" x2="50.803" y2="143.346" id="gradient-4" gradientTransform="matrix(0.724302, 0, 0, 0.784496, 234.780529, 59.397478)">
      <stop offset="0" style="stop-color: rgb(4.3137% 21.961% 9.8039%)"/>
      <stop offset="1" style="stop-color: rgb(0% 15.063% 2.1713%)"/>
    </linearGradient>
    <linearGradient gradientUnits="userSpaceOnUse" x1="29.336" y1="55.818" x2="29.336" y2="151.79" id="gradient-0" gradientTransform="matrix(-0.717317, -0.10869, 0.100351, -0.77693, 266.654779, 224.668532)">
      <stop offset="0" style="stop-color: rgb(1.5686% 17.647% 5.098%)"/>
      <stop offset="1" style="stop-color: rgb(0% 12.763% 0%)"/>
    </linearGradient>
    <linearGradient gradientUnits="userSpaceOnUse" x1="66.492" y1="159.433" x2="66.492" y2="195.983" id="gradient-3" gradientTransform="matrix(0.724302, 0, 0, 0.784496, 234.780529, 59.397478)">
      <stop offset="0" style="stop-color: rgb(1.5686% 17.647% 5.098%)"/>
      <stop offset="1" style="stop-color: rgb(0% 12.763% 0%)"/>
    </linearGradient>
    <linearGradient gradientUnits="userSpaceOnUse" x1="91.334" y1="91.239" x2="91.334" y2="100.635" id="gradient-5" gradientTransform="matrix(1, 0, 0, 1, -0.000026, -0.000032)">
      <stop offset="0" style="stop-color: rgb(55.686% 52.157% 12.941%)"/>
      <stop offset="1" style="stop-color: rgb(32.941% 31% 0%)"/>
    </linearGradient>
    <linearGradient gradientUnits="userSpaceOnUse" x1="91.334" y1="91.239" x2="91.334" y2="100.635" id="gradient-7" gradientTransform="matrix(1, 0, 0, 1, -0.000026, -0.000032)">
      <stop offset="0" style="stop-color: rgb(55.686% 52.157% 12.941%)"/>
      <stop offset="1" style="stop-color: rgb(32.941% 31% 0%)"/>
    </linearGradient>
    <radialGradient gradientUnits="userSpaceOnUse" cx="40.256" cy="42.787" r="9.361" id="gradient-11" gradientTransform="matrix(0.91073, 0, 0, 0.906897, 5.018157, 4.9794)">
      <stop offset="0" style="stop-color: rgb(100% 61.176% 0%)"/>
      <stop offset="1" style="stop-color: rgb(63.733% 31.968% 0%)"/>
    </radialGradient>
    <radialGradient gradientUnits="userSpaceOnUse" cx="51.193" cy="40.369" r="28.354" id="gradient-12" gradientTransform="matrix(0.766009, 0, 0, 0.814344, 232.834, 58.628308)">
      <stop offset="0" style="stop-color: rgb(100% 61.176% 0%)"/>
      <stop offset="1" style="stop-color: rgb(63.733% 31.968% 0%)"/>
    </radialGradient>
    <linearGradient gradientUnits="userSpaceOnUse" x1="60.234" y1="150.683" x2="60.234" y2="160.239" id="gradient-13" gradientTransform="matrix(0.724302, 0, 0, 0.784496, 234.780529, 59.397478)">
      <stop offset="0" style="stop-color: rgb(100% 61.176% 0%)"/>
      <stop offset="1" style="stop-color: rgb(63.733% 31.968% 0%)"/>
    </linearGradient>
    <linearGradient gradientUnits="userSpaceOnUse" x1="77.923" y1="153.739" x2="77.923" y2="180.045" id="gradient-15" gradientTransform="matrix(0.724302, 0, 0, 0.784496, 234.781, -321.249)">
      <stop offset="0" style="stop-color: rgb(100% 61.176% 0%)"/>
      <stop offset="1" style="stop-color: rgb(63.733% 31.968% 0%)"/>
    </linearGradient>
    <linearGradient gradientUnits="userSpaceOnUse" x1="45.989" y1="35.122" x2="45.989" y2="45.566" id="gradient-14">
      <stop offset="0" style="stop-color: rgb(92.941% 55.686% 0%)"/>
      <stop offset="1" style="stop-color: rgb(59.715% 29.02% 0%)"/>
    </linearGradient>
    <radialGradient gradientUnits="userSpaceOnUse" cx="40.256" cy="42.787" r="9.361" id="gradient-16" gradientTransform="matrix(0.91073, 0, 0, 0.906897, 5.018157, 4.9794)">
      <stop offset="0" style="stop-color: rgb(100% 61.176% 0%)"/>
      <stop offset="1" style="stop-color: rgb(63.733% 31.968% 0%)"/>
    </radialGradient>
    <linearGradient gradientUnits="userSpaceOnUse" x1="45.989" y1="35.122" x2="45.989" y2="45.566" id="gradient-17">
      <stop offset="0" style="stop-color: rgb(92.941% 55.686% 0%)"/>
      <stop offset="1" style="stop-color: rgb(59.715% 29.02% 0%)"/>
    </linearGradient>
    <radialGradient gradientUnits="userSpaceOnUse" cx="40.256" cy="42.787" r="9.361" id="gradient-18" gradientTransform="matrix(0.91073, 0, 0, 0.906897, 5.018157, 4.9794)">
      <stop offset="0" style="stop-color: rgb(100% 61.176% 0%)"/>
      <stop offset="1" style="stop-color: rgb(63.733% 31.968% 0%)"/>
    </radialGradient>
    <linearGradient gradientUnits="userSpaceOnUse" x1="45.989" y1="35.122" x2="45.989" y2="45.566" id="gradient-19">
      <stop offset="0" style="stop-color: rgb(92.941% 55.686% 0%)"/>
      <stop offset="1" style="stop-color: rgb(59.715% 29.02% 0%)"/>
    </linearGradient>
    <radialGradient gradientUnits="userSpaceOnUse" cx="60.169" cy="138.307" r="42.071" id="gradient-2" gradientTransform="matrix(0.724302, 0, 0, 0.784496, 234.780529, 59.397478)">
      <stop offset="0" style="stop-color: rgb(10.588% 25.882% 89.412%)"/>
      <stop offset="1" style="stop-color: rgb(0% 24.045% 48.428%)"/>
    </radialGradient>
    <radialGradient gradientUnits="userSpaceOnUse" cx="202.437" cy="202.646" r="203.434" id="gradient-1" gradientTransform="matrix(2.133589, -0.005394, 0.007619, 0.272663, -183.62205, 191.215388)">
      <stop offset="0" style="stop-color: rgb(64, 28, 19);"/>
      <stop offset="0.507" style="stop-color: rgb(62, 27, 18);"/>
      <stop offset="1" style="stop-color: rgb(84, 38, 26);"/>
    </radialGradient>
    <radialGradient gradientUnits="userSpaceOnUse" cx="107.909" cy="116.311" r="71.776" id="gradient-50" gradientTransform="matrix(1, 0, 0, 1, 0.000009, -0.000007)">
      <stop offset="0" style="stop-color: rgb(18.824% 34.51% 5.098%)"/>
      <stop offset="1" style="stop-color: rgb(7.0899% 22.122% 0%)"/>
    </radialGradient>
    <linearGradient gradientUnits="userSpaceOnUse" x1="136.905" y1="99.519" x2="136.905" y2="128.382" id="gradient-51" gradientTransform="matrix(0.833977, 0, 0, -1.305595, -6.267665, 265.08416)">
      <stop offset="0" style="stop-color: rgb(8.2353% 22.745% 3.9216%)"/>
      <stop offset="1" style="stop-color: rgb(3.7408% 15.16% 0%)"/>
    </linearGradient>
    <linearGradient gradientUnits="userSpaceOnUse" x1="115.526" y1="189.674" x2="115.526" y2="248.03" id="gradient-56" gradientTransform="matrix(1.496258, 0, 0, 1.278233, 6.779177, -25.193568)">
      <stop offset="0" style="stop-color: rgb(10.196% 89.412% 91.765%)"/>
      <stop offset="1" style="stop-color: rgb(0% 52.201% 54.215%)"/>
    </linearGradient>
    <linearGradient gradientUnits="userSpaceOnUse" x1="249.932" y1="-2.602" x2="249.932" y2="206.126" id="gradient-9" gradientTransform="matrix(0.999605, 0.028104, -0.018599, 0.661506, 0.050332, -7.904965)">
      <stop offset="0" style="stop-color: rgb(16.078% 10.196% 7.451%)"/>
      <stop offset="1" style="stop-color: rgb(12.711% 6.6214% 2.1093%)"/>
    </linearGradient>
    <linearGradient gradientUnits="userSpaceOnUse" x1="55.562" y1="27.016" x2="55.562" y2="68.056" id="gradient-80" gradientTransform="matrix(0.450208, 0, 0, 0.466997, 121.161, 157.814)">
      <stop offset="0" style="stop-color: rgb(45.882% 26.275% 16.471%)"/>
      <stop offset="1" style="stop-color: rgb(31.827% 14.113% 4.9948%)"/>
    </linearGradient>
    <linearGradient gradientUnits="userSpaceOnUse" x1="87.877" y1="64.919" x2="87.877" y2="77.249" id="gradient-81" gradientTransform="matrix(0.450208, 0, 0, 0.466997, 121.161, 157.814)">
      <stop offset="0" style="stop-color: rgb(45.882% 26.275% 16.471%)"/>
      <stop offset="1" style="stop-color: rgb(31.827% 14.113% 4.9948%)"/>
    </linearGradient>
    <linearGradient gradientUnits="userSpaceOnUse" x1="29.852" y1="50.96" x2="29.852" y2="77.591" id="gradient-82" gradientTransform="matrix(0.450208, 0, 0, 0.466997, 121.161, 157.814)">
      <stop offset="0" style="stop-color: rgb(45.882% 26.275% 16.471%)"/>
      <stop offset="1" style="stop-color: rgb(31.827% 14.113% 4.9948%)"/>
    </linearGradient>
    <linearGradient gradientUnits="userSpaceOnUse" x1="51.99" y1="58.673" x2="51.99" y2="78.4" id="gradient-83" gradientTransform="matrix(0.450208, 0, 0, 0.466997, 121.161, 157.814)">
      <stop offset="0" style="stop-color: rgb(45.882% 26.275% 16.471%)"/>
      <stop offset="1" style="stop-color: rgb(31.827% 14.113% 4.9948%)"/>
    </linearGradient>
    <linearGradient gradientUnits="userSpaceOnUse" x1="55.562" y1="27.016" x2="55.562" y2="68.056" id="gradient-84" gradientTransform="matrix(0.450208, 0, 0, 0.466997, 121.161, 157.814)">
      <stop offset="0" style="stop-color: rgb(45.882% 26.275% 16.471%)"/>
      <stop offset="1" style="stop-color: rgb(31.827% 14.113% 4.9948%)"/>
    </linearGradient>
    <linearGradient gradientUnits="userSpaceOnUse" x1="87.877" y1="64.919" x2="87.877" y2="77.249" id="gradient-85" gradientTransform="matrix(0.450208, 0, 0, 0.466997, 121.161, 157.814)">
      <stop offset="0" style="stop-color: rgb(45.882% 26.275% 16.471%)"/>
      <stop offset="1" style="stop-color: rgb(31.827% 14.113% 4.9948%)"/>
    </linearGradient>
    <linearGradient gradientUnits="userSpaceOnUse" x1="29.852" y1="50.96" x2="29.852" y2="77.591" id="gradient-86" gradientTransform="matrix(0.450208, 0, 0, 0.466997, 121.161, 157.814)">
      <stop offset="0" style="stop-color: rgb(45.882% 26.275% 16.471%)"/>
      <stop offset="1" style="stop-color: rgb(31.827% 14.113% 4.9948%)"/>
    </linearGradient>
    <linearGradient gradientUnits="userSpaceOnUse" x1="51.99" y1="58.673" x2="51.99" y2="78.4" id="gradient-87" gradientTransform="matrix(0.450208, 0, 0, 0.466997, 121.161, 157.814)">
      <stop offset="0" style="stop-color: rgb(45.882% 26.275% 16.471%)"/>
      <stop offset="1" style="stop-color: rgb(31.827% 14.113% 4.9948%)"/>
    </linearGradient>
    <linearGradient gradientUnits="userSpaceOnUse" x1="55.562" y1="27.016" x2="55.562" y2="68.056" id="gradient-88" gradientTransform="matrix(0.450208, 0, 0, 0.466997, 121.161, 157.814)">
      <stop offset="0" style="stop-color: rgb(45.882% 26.275% 16.471%)"/>
      <stop offset="1" style="stop-color: rgb(31.827% 14.113% 4.9948%)"/>
    </linearGradient>
    <linearGradient gradientUnits="userSpaceOnUse" x1="87.877" y1="64.919" x2="87.877" y2="77.249" id="gradient-89" gradientTransform="matrix(0.450208, 0, 0, 0.466997, 121.161, 157.814)">
      <stop offset="0" style="stop-color: rgb(45.882% 26.275% 16.471%)"/>
      <stop offset="1" style="stop-color: rgb(31.827% 14.113% 4.9948%)"/>
    </linearGradient>
    <linearGradient gradientUnits="userSpaceOnUse" x1="29.852" y1="50.96" x2="29.852" y2="77.591" id="gradient-90" gradientTransform="matrix(0.450208, 0, 0, 0.466997, 121.161, 157.814)">
      <stop offset="0" style="stop-color: rgb(45.882% 26.275% 16.471%)"/>
      <stop offset="1" style="stop-color: rgb(31.827% 14.113% 4.9948%)"/>
    </linearGradient>
    <linearGradient gradientUnits="userSpaceOnUse" x1="51.99" y1="58.673" x2="51.99" y2="78.4" id="gradient-91" gradientTransform="matrix(0.450208, 0, 0, 0.466997, 121.161, 157.814)">
      <stop offset="0" style="stop-color: rgb(45.882% 26.275% 16.471%)"/>
      <stop offset="1" style="stop-color: rgb(31.827% 14.113% 4.9948%)"/>
    </linearGradient>
    <linearGradient gradientUnits="userSpaceOnUse" x1="69.493" y1="79.943" x2="69.493" y2="125.432" id="gradient-52" gradientTransform="matrix(1.39886, -0.042349, 0.044321, 1.33662, 114.2227, 30.969338)">
      <stop offset="0" style="stop-color: rgb(15.686% 40.392% 23.529%)"/>
      <stop offset="1" style="stop-color: rgb(0% 25.703% 10.208%)"/>
    </linearGradient>
    <linearGradient gradientUnits="userSpaceOnUse" x1="43.08" y1="89.367" x2="43.08" y2="109.039" id="gradient-53" gradientTransform="matrix(2.173307, 0, 0, 1.889524, 107.827041, 48.766011)">
      <stop offset="0" style="stop-color: rgb(8.6275% 32.549% 16.078%)"/>
      <stop offset="1" style="stop-color: rgb(0% 21.246% 5.8187%)"/>
    </linearGradient>
    <linearGradient gradientUnits="userSpaceOnUse" x1="33.017" y1="87.365" x2="33.017" y2="109.039" id="gradient-54" gradientTransform="matrix(2.758659, 0, 0, 2.094651, 93.3248, 31.168611)">
      <stop offset="0" style="stop-color: rgb(26.667% 64.706% 38.431%)"/>
      <stop offset="1" style="stop-color: rgb(0% 39.662% 15.739%)"/>
    </linearGradient>
    <linearGradient gradientUnits="userSpaceOnUse" x1="23.073" y1="55.781" x2="23.073" y2="85.193" id="gradient-55" gradientTransform="matrix(2.13794, 0.078159, -0.084841, 2.16185, 118.880766, 11.106586)">
      <stop offset="0" style="stop-color: rgb(26.667% 64.706% 38.431%)"/>
      <stop offset="1" style="stop-color: rgb(0% 39.662% 15.739%)"/>
    </linearGradient>
    <linearGradient gradientUnits="userSpaceOnUse" x1="16.555" y1="5.154" x2="16.555" y2="27.222" id="gradient-57" gradientTransform="matrix(0.92075, -1.257498, 1.251279, 0.932721, -12.065499, 28.621002)">
      <stop offset="0" style="stop-color: rgb(26.667% 64.706% 38.431%)"/>
      <stop offset="1" style="stop-color: rgb(0% 39.662% 15.739%)"/>
    </linearGradient>
    <linearGradient gradientUnits="userSpaceOnUse" x1="44.447" y1="2.502" x2="44.447" y2="45.874" id="gradient-58" gradientTransform="matrix(1.39956, 0, 0, 1.33729, 131.010752, 20.141318)">
      <stop offset="0" style="stop-color: rgb(5.8824% 5.098% 17.647%)"/>
      <stop offset="1" style="stop-color: rgb(4.2208% 2.275% 16.005%)"/>
    </linearGradient>
    <linearGradient gradientUnits="userSpaceOnUse" x1="44.447" y1="2.502" x2="44.447" y2="45.874" id="gradient-59" gradientTransform="matrix(1.39956, 0, 0, 1.33729, 131.010752, 20.141318)">
      <stop offset="0" style="stop-color: rgb(10.588% 25.882% 89.412%)"/>
      <stop offset="1" style="stop-color: rgb(0% 24.045% 48.428%)"/>
    </linearGradient>
    <linearGradient gradientUnits="userSpaceOnUse" x1="47.108" y1="36.53" x2="47.108" y2="51.721" id="gradient-60" gradientTransform="matrix(-1.299729, 0.496013, -0.394043, -0.9427, 278.549565, 114.698422)">
      <stop offset="0" style="stop-color: rgb(10.588% 25.882% 89.412%)"/>
      <stop offset="1" style="stop-color: rgb(0% 24.045% 48.428%)"/>
    </linearGradient>
    <linearGradient gradientUnits="userSpaceOnUse" x1="16.555" y1="5.154" x2="16.555" y2="27.222" id="gradient-61" gradientTransform="matrix(1.385136, -1.025267, 0.829164, 1.142248, -12.47437, 22.58353)">
      <stop offset="0" style="stop-color: rgb(26.667% 64.706% 38.431%)"/>
      <stop offset="1" style="stop-color: rgb(0% 39.662% 15.739%)"/>
    </linearGradient>
    <filter id="motion-blur-filter-2" bx:preset="motion-blur 1 5 horizontal" color-interpolation-filters="sRGB" x="-50%" y="-50%" width="200%" height="200%">
      <feGaussianBlur stdDeviation="5 0" edgeMode="none"/>
    </filter>
    <filter id="motion-blur-filter-3" bx:preset="motion-blur 1 5 horizontal" color-interpolation-filters="sRGB" x="-50%" y="-50%" width="200%" height="200%">
      <feGaussianBlur stdDeviation="5 0" edgeMode="none"/>
    </filter>
    <filter id="gaussian-blur-filter-0" bx:preset="gaussian-blur 1 0.8" color-interpolation-filters="sRGB" x="-50%" y="-50%" width="200%" height="200%">
      <feGaussianBlur stdDeviation="0.8 0.8" edgeMode="none"/>
    </filter>
    <filter id="gaussian-blur-filter-1" bx:preset="gaussian-blur 1 1.7" color-interpolation-filters="sRGB" x="-50%" y="-50%" width="200%" height="200%">
      <feGaussianBlur stdDeviation="1.7 1.7" edgeMode="none"/>
    </filter>
  </defs>
  <rect x="-0.892" y="-2.602" width="501.649" height="208.728" style="fill: url(&quot;#gradient-9&quot;);"/>
  <g transform="matrix(1, 0, 0, 1.88363, 3.01468, 35.762)" style="">
    <g transform="matrix(0.597508, 0, 0, 0.517632, 2.07108, -0.69346)" style="">
      <rect x="335.302" y="0.009" width="80" height="80" style="fill: none; stroke-width: 3px; stroke-dasharray: 20; stroke: rgba(0, 0, 0, 0.255);"/>
      <rect x="251.353" y="1.058" width="80" height="80" style="fill: none; stroke-width: 3px; stroke-dasharray: 20; stroke: rgba(0, 0, 0, 0.255);"/>
      <rect x="167.343" y="1.034" width="80" height="80" style="fill: none; stroke-width: 3px; stroke-dasharray: 20; stroke: rgba(0, 0, 0, 0.255);"/>
      <rect x="84.443" y="0.034" width="80" height="80" style="fill: none; stroke-width: 3px; stroke-dasharray: 20; stroke: rgba(0, 0, 0, 0.255);"/>
      <rect x="0.531" y="1.022" width="80" height="80" style="fill: none; stroke-width: 3px; stroke-dasharray: 20; stroke: rgba(0, 0, 0, 0.255);"/>
    </g>
    <g transform="matrix(0.597508, 0, 0, 0.517632, 250.408, -1.29933)" style="">
      <rect x="335.302" y="0.009" width="80" height="80" style="fill: none; stroke-width: 3px; stroke-dasharray: 20; stroke: rgba(0, 0, 0, 0.255);"/>
      <rect x="251.353" y="1.058" width="80" height="80" style="fill: none; stroke-width: 3px; stroke-dasharray: 20; stroke: rgba(0, 0, 0, 0.255);"/>
      <rect x="167.343" y="1.034" width="80" height="80" style="fill: none; stroke-width: 3px; stroke-dasharray: 20; stroke: rgba(0, 0, 0, 0.255);"/>
      <rect x="84.443" y="0.034" width="80" height="80" style="fill: none; stroke-width: 3px; stroke-dasharray: 20; stroke: rgba(0, 0, 0, 0.255);"/>
      <rect x="0.531" y="1.022" width="80" height="80" style="fill: none; stroke-width: 3px; stroke-dasharray: 20; stroke: rgba(0, 0, 0, 0.255);"/>
    </g>
    <g transform="matrix(0.597508, 0, 0, 0.517632, 2.87402, 42.0592)" style="">
      <rect x="335.302" y="0.009" width="80" height="80" style="fill: none; stroke-width: 3px; stroke-dasharray: 20; stroke: rgba(0, 0, 0, 0.255);"/>
      <rect x="251.353" y="1.058" width="80" height="80" style="fill: none; stroke-width: 3px; stroke-dasharray: 20; stroke: rgba(0, 0, 0, 0.255);"/>
      <rect x="167.343" y="1.034" width="80" height="80" style="fill: none; stroke-width: 3px; stroke-dasharray: 20; stroke: rgba(0, 0, 0, 0.255);"/>
      <rect x="84.443" y="0.034" width="80" height="80" style="fill: none; stroke-width: 3px; stroke-dasharray: 20; stroke: rgba(0, 0, 0, 0.255);"/>
      <rect x="0.531" y="1.022" width="80" height="80" style="fill: none; stroke-width: 3px; stroke-dasharray: 20; stroke: rgba(0, 0, 0, 0.255);"/>
    </g>
    <g transform="matrix(0.597508, 0, 0, 0.517632, 251.211, 41.4533)" style="">
      <rect x="335.302" y="0.009" width="80" height="80" style="fill: none; stroke-width: 3px; stroke-dasharray: 20; stroke: rgba(0, 0, 0, 0.255);"/>
      <rect x="251.353" y="1.058" width="80" height="80" style="fill: none; stroke-width: 3px; stroke-dasharray: 20; stroke: rgba(0, 0, 0, 0.255);"/>
      <rect x="167.343" y="1.034" width="80" height="80" style="fill: none; stroke-width: 3px; stroke-dasharray: 20; stroke: rgba(0, 0, 0, 0.255);"/>
      <rect x="84.443" y="0.034" width="80" height="80" style="fill: none; stroke-width: 3px; stroke-dasharray: 20; stroke: rgba(0, 0, 0, 0.255);"/>
      <rect x="0.531" y="1.022" width="80" height="80" style="fill: none; stroke-width: 3px; stroke-dasharray: 20; stroke: rgba(0, 0, 0, 0.255);"/>
    </g>
  </g>
  <rect x="-0.966" y="190.017" width="501.61" height="110.72" style="fill: url(&quot;#gradient-1&quot;);"/>
  <g transform="matrix(1.02566, 0, 0, 0.875594, -90.8897, 26.4884)" style="filter: url(&quot;#motion-blur-filter-2&quot;);">
    <path d="M 165.829 183.222 C 165.829 185.543 164.879 187.719 163.218 189.596 L 129.133 189.596 C 127.472 187.719 126.523 185.543 126.523 183.222 C 126.523 176.157 135.322 170.43 146.176 170.43 C 157.03 170.43 165.829 176.157 165.829 183.222 Z" style="stroke: rgba(0, 0, 0, 0.506); fill: url(&quot;#gradient-88&quot;);"/>
    <ellipse style="stroke: rgba(0, 0, 0, 0); fill: rgba(0, 0, 0, 0.125); transform-origin: 43.615px 38.727px;" cx="43.615" cy="38.727" rx="7.904" ry="7.957" transform="matrix(0.987349, -0.158562, 0.285808, 0.966914, 114.257712, 143.677997)"/>
    <ellipse style="stroke: rgba(0, 0, 0, 0.506); fill: rgb(48, 25, 13);" cx="156.776" cy="189.655" rx="1.557" ry="0.722"/>
    <ellipse style="stroke: rgba(0, 0, 0, 0); fill: rgba(255, 255, 255, 0.125); transform-origin: 43.615px 38.728px;" cx="43.615" cy="38.727" rx="4.588" ry="1.137" transform="matrix(0.828288, -0.560303, 0.65088, 0.767016, 91.275261, 135.819384)"/>
    <path d="M 165.668 191.974 C 165.668 192.672 165.429 193.326 165.011 193.888 L 156.438 193.888 C 156.02 193.326 155.781 192.672 155.781 191.974 C 155.781 189.851 157.995 188.131 160.724 188.131 C 163.455 188.131 165.668 189.851 165.668 191.974 Z" style="stroke: rgba(0, 0, 0, 0.506); fill: url(&quot;#gradient-89&quot;);"/>
    <ellipse style="stroke: rgba(0, 0, 0, 0.506); fill: rgb(66, 30, 11);" cx="133.256" cy="181.917" rx="2.096" ry="1.036"/>
    <path d="M 147.663 189.912 C 147.663 191.418 147.032 192.83 145.927 194.049 L 123.274 194.049 C 122.17 192.83 121.539 191.418 121.539 189.912 C 121.539 185.328 127.387 181.612 134.601 181.612 C 141.815 181.612 147.663 185.328 147.663 189.912 Z" style="stroke: rgba(0, 0, 0, 0.506); fill: url(&quot;#gradient-90&quot;);"/>
    <ellipse style="stroke: rgba(0, 0, 0, 0.506); fill: rgb(48, 25, 13);" cx="149.077" cy="186.98" rx="1.557" ry="1.351"/>
    <ellipse style="stroke: rgba(0, 0, 0, 0); fill: rgba(0, 0, 0, 0.125); transform-origin: 43.617px 38.726px;" cx="43.615" cy="38.727" rx="6.898" ry="5.993" transform="matrix(0.987349, -0.158562, 0.285808, 0.966914, 95.982304, 149.984713)"/>
    <ellipse style="stroke: rgba(0, 0, 0, 0.506); fill: rgb(48, 25, 13); transform-origin: 36.81px 65.445px;" cx="36.809" cy="65.446" rx="1.487" ry="1.341" transform="matrix(0.891036, 0.453932, -0.428108, 0.904192, 101.207507, 123.076085)"/>
    <path d="M 152.726 191.362 C 152.726 192.477 152.332 193.524 151.643 194.426 L 137.493 194.426 C 136.804 193.524 136.41 192.477 136.41 191.362 C 136.41 187.966 140.062 185.214 144.568 185.214 C 149.074 185.214 152.726 187.966 152.726 191.362 Z" style="stroke: rgba(0, 0, 0, 0.506); fill: url(&quot;#gradient-91&quot;);"/>
    <ellipse style="stroke: rgba(0, 0, 0, 0); fill: rgba(255, 255, 255, 0.15); transform-origin: 43.614px 38.728px;" cx="43.615" cy="38.727" rx="3.182" ry="0.837" transform="matrix(0.920869, -0.389873, 0.516908, 0.867085, 83.595106, 145.546554)"/>
    <ellipse style="stroke: rgba(0, 0, 0, 0); fill: rgba(255, 255, 255, 0.086); transform-origin: 43.615px 38.727px;" cx="43.615" cy="38.727" rx="3.084" ry="1.281" transform="matrix(0.842514, -0.538675, 0.65354, 0.769073, 97.460687, 149.299588)"/>
    <ellipse style="stroke: rgba(0, 0, 0, 0); fill: rgba(255, 255, 255, 0.184); transform-origin: 43.615px 38.727px;" cx="43.615" cy="38.727" rx="1.685" ry="0.723" transform="matrix(0.842514, -0.538675, 0.65354, 0.769073, 115.349987, 150.750588)"/>
    <ellipse style="stroke: rgba(0, 0, 0, 0.506); fill: rgb(48, 25, 13);" cx="157.245" cy="193.925" rx="2.735" ry="0.494"/>
    <ellipse style="stroke: rgba(0, 0, 0, 0.506); fill: rgb(48, 25, 13);" cx="123.272" cy="194.003" rx="1.063" ry="0.602"/>
    <ellipse style="stroke: rgba(0, 0, 0, 0); fill: rgba(0, 0, 0, 0.125); transform-origin: 43.615px 38.727px;" cx="43.615" cy="38.727" rx="3.42" ry="3.99" transform="matrix(0.987349, -0.158562, 0.285808, 0.966914, 105.765017, 151.816997)"/>
    <ellipse style="stroke: rgba(0, 0, 0, 0); fill: rgba(0, 0, 0, 0.125); transform-origin: 43.617px 38.727px;" cx="43.615" cy="38.727" rx="2.352" ry="2.705" transform="matrix(0.987349, -0.158562, 0.285808, 0.966914, 119.42669, 152.531679)"/>
  </g>
  <g transform="matrix(0.821789, 0, 0, 0.769977, -25.7217, 47.0486)" style="filter: url(&quot;#motion-blur-filter-3&quot;);">
    <path d="M 165.829 183.222 C 165.829 185.543 164.879 187.719 163.218 189.596 L 129.133 189.596 C 127.472 187.719 126.523 185.543 126.523 183.222 C 126.523 176.157 135.322 170.43 146.176 170.43 C 157.03 170.43 165.829 176.157 165.829 183.222 Z" style="stroke: rgba(0, 0, 0, 0.506); fill: url(&quot;#gradient-80&quot;);"/>
    <ellipse style="stroke: rgba(0, 0, 0, 0); fill: rgba(0, 0, 0, 0.125); transform-origin: 43.615px 38.727px;" cx="43.615" cy="38.727" rx="7.904" ry="7.957" transform="matrix(0.987349, -0.158562, 0.285808, 0.966914, 114.257712, 143.677997)"/>
    <ellipse style="stroke: rgba(0, 0, 0, 0.506); fill: rgb(48, 25, 13);" cx="156.776" cy="189.655" rx="1.557" ry="0.722"/>
    <ellipse style="stroke: rgba(0, 0, 0, 0); fill: rgba(255, 255, 255, 0.125); transform-origin: 43.615px 38.728px;" cx="43.615" cy="38.727" rx="4.588" ry="1.137" transform="matrix(0.828288, -0.560303, 0.65088, 0.767016, 91.275261, 135.819384)"/>
    <path d="M 165.668 191.974 C 165.668 192.672 165.429 193.326 165.011 193.888 L 156.438 193.888 C 156.02 193.326 155.781 192.672 155.781 191.974 C 155.781 189.851 157.995 188.131 160.724 188.131 C 163.455 188.131 165.668 189.851 165.668 191.974 Z" style="stroke: rgba(0, 0, 0, 0.506); fill: url(&quot;#gradient-81&quot;);"/>
    <ellipse style="stroke: rgba(0, 0, 0, 0.506); fill: rgb(66, 30, 11);" cx="133.256" cy="181.917" rx="2.096" ry="1.036"/>
    <path d="M 147.663 189.912 C 147.663 191.418 147.032 192.83 145.927 194.049 L 123.274 194.049 C 122.17 192.83 121.539 191.418 121.539 189.912 C 121.539 185.328 127.387 181.612 134.601 181.612 C 141.815 181.612 147.663 185.328 147.663 189.912 Z" style="stroke: rgba(0, 0, 0, 0.506); fill: url(&quot;#gradient-82&quot;);"/>
    <ellipse style="stroke: rgba(0, 0, 0, 0.506); fill: rgb(48, 25, 13);" cx="149.077" cy="186.98" rx="1.557" ry="1.351"/>
    <ellipse style="stroke: rgba(0, 0, 0, 0); fill: rgba(0, 0, 0, 0.125); transform-origin: 43.617px 38.726px;" cx="43.615" cy="38.727" rx="6.898" ry="5.993" transform="matrix(0.987349, -0.158562, 0.285808, 0.966914, 95.982304, 149.984713)"/>
    <ellipse style="stroke: rgba(0, 0, 0, 0.506); fill: rgb(48, 25, 13); transform-origin: 36.81px 65.445px;" cx="36.809" cy="65.446" rx="1.487" ry="1.341" transform="matrix(0.891036, 0.453932, -0.428108, 0.904192, 101.207507, 123.076085)"/>
    <path d="M 152.726 191.362 C 152.726 192.477 152.332 193.524 151.643 194.426 L 137.493 194.426 C 136.804 193.524 136.41 192.477 136.41 191.362 C 136.41 187.966 140.062 185.214 144.568 185.214 C 149.074 185.214 152.726 187.966 152.726 191.362 Z" style="stroke: rgba(0, 0, 0, 0.506); fill: url(&quot;#gradient-83&quot;);"/>
    <ellipse style="stroke: rgba(0, 0, 0, 0); fill: rgba(255, 255, 255, 0.15); transform-origin: 43.614px 38.728px;" cx="43.615" cy="38.727" rx="3.182" ry="0.837" transform="matrix(0.920869, -0.389873, 0.516908, 0.867085, 83.595106, 145.546554)"/>
    <ellipse style="stroke: rgba(0, 0, 0, 0); fill: rgba(255, 255, 255, 0.086); transform-origin: 43.615px 38.727px;" cx="43.615" cy="38.727" rx="3.084" ry="1.281" transform="matrix(0.842514, -0.538675, 0.65354, 0.769073, 97.460687, 149.299588)"/>
    <ellipse style="stroke: rgba(0, 0, 0, 0); fill: rgba(255, 255, 255, 0.184); transform-origin: 43.615px 38.727px;" cx="43.615" cy="38.727" rx="1.685" ry="0.723" transform="matrix(0.842514, -0.538675, 0.65354, 0.769073, 115.349987, 150.750588)"/>
    <ellipse style="stroke: rgba(0, 0, 0, 0.506); fill: rgb(48, 25, 13);" cx="157.245" cy="193.925" rx="2.735" ry="0.494"/>
    <ellipse style="stroke: rgba(0, 0, 0, 0.506); fill: rgb(48, 25, 13);" cx="123.272" cy="194.003" rx="1.063" ry="0.602"/>
    <ellipse style="stroke: rgba(0, 0, 0, 0); fill: rgba(0, 0, 0, 0.125); transform-origin: 43.615px 38.727px;" cx="43.615" cy="38.727" rx="3.42" ry="3.99" transform="matrix(0.987349, -0.158562, 0.285808, 0.966914, 105.765017, 151.816997)"/>
    <ellipse style="stroke: rgba(0, 0, 0, 0); fill: rgba(0, 0, 0, 0.125); transform-origin: 43.617px 38.727px;" cx="43.615" cy="38.727" rx="2.352" ry="2.705" transform="matrix(0.987349, -0.158562, 0.285808, 0.966914, 119.42669, 152.531679)"/>
  </g>
  <g transform="matrix(-1.16152, 0, 0, 0.729272, 518.362, 210.842)" style="filter: url(&quot;#gaussian-blur-filter-1&quot;);">
    <path stroke-width="0" d="M 136.92 134.715 C 142.238 134.924 151.347 135.584 157.642 134.715 C 163.808 133.863 171.361 131.165 174.378 129.658 C 176.246 128.725 176.532 128.183 177.034 127.064 C 177.693 125.599 177.813 123.087 177.034 121.36 C 176.304 119.737 172.542 118.367 172.784 116.951 C 173.029 115.513 177.555 114.368 178.629 112.802 C 179.737 111.183 180.07 108.959 179.16 107.355 C 178.291 105.822 176.368 104.461 173.581 103.335 C 170.278 101.999 165.192 100.781 159.767 100.222 C 153.443 99.572 143.12 99.811 137.451 100.222 C 133.326 100.524 131.19 102.002 127.888 101.778 C 124.138 101.525 121.595 98.849 116.199 98.149 C 108.769 97.183 93.979 97.304 85.382 98.149 C 78.187 98.854 72.695 102.105 67.317 102.038 C 62.564 101.979 58.404 99.229 54.565 98.667 C 51.463 98.213 48.679 98.082 46.065 98.407 C 43.455 98.732 40.528 99.466 38.892 100.611 C 37.045 101.904 35.75 104.507 36.235 106.058 C 36.665 107.432 37.951 108.34 40.751 109.56 C 45.122 111.463 59.04 113.457 63.332 115.653 C 66.379 117.213 65.564 119.071 67.583 120.582 C 69.679 122.15 72.681 123.673 75.819 124.86 C 78.966 126.051 81.585 126.903 86.445 127.713 C 93.349 128.863 107.832 129.03 115.136 130.307 C 120.697 131.278 123.97 133.217 127.888 133.937 C 131.126 134.532 133.081 134.565 136.92 134.715 Z" style="stroke-width: 2px; transform-box: fill-box; transform-origin: 50% 50%; fill: url(&quot;#gradient-50&quot;); stroke: url(&quot;#gradient-51&quot;);" transform="matrix(-1, 0, 0, -1, -0.000002, 0.000008)"/>
    <path d="M 79.834 119.624 C 79.834 120.722 79.633 121.774 79.265 122.746 C 77.146 121.611 74.057 120.896 70.62 120.896 C 67.356 120.896 64.409 121.54 62.307 122.576 C 61.978 121.651 61.799 120.66 61.799 119.624 C 61.799 114.71 65.837 110.724 70.816 110.724 C 75.796 110.724 79.834 114.71 79.834 119.624 Z" style="stroke: rgb(24, 63, 2); fill: rgb(77, 198, 0);"/>
    <path d="M 123.145 107.25 C 123.145 108.033 123.004 108.786 122.747 109.478 C 121.269 108.669 119.115 108.158 116.716 108.158 C 114.439 108.158 112.382 108.617 110.915 109.357 C 110.687 108.699 110.562 107.988 110.562 107.25 C 110.562 103.742 113.38 100.895 116.854 100.895 C 120.326 100.895 123.145 103.742 123.145 107.25 Z" style="stroke: rgb(24, 63, 2); fill: rgb(77, 198, 0);"/>
    <ellipse style="fill: rgb(255, 255, 255); transform-origin: 73.945px 115.957px;" cx="73.945" cy="115.957" rx="1.455" ry="2.361" transform="matrix(0.850365, -0.526193, 0.526193, 0.850365, 44.732187, -11.85775)"/>
    <path d="M 135.898 108.117 C 135.898 109.385 135.697 110.603 135.329 111.726 C 133.21 110.414 130.121 109.586 126.684 109.586 C 123.42 109.586 120.473 110.331 118.371 111.529 C 118.042 110.461 117.863 109.313 117.863 108.117 C 117.863 102.431 121.901 97.823 126.88 97.823 C 131.86 97.823 135.898 102.431 135.898 108.117 Z" style="stroke: rgb(24, 63, 2); fill: rgb(77, 198, 0);"/>
    <path d="M 105.393 104.713 C 105.393 105.463 105.191 106.18 104.823 106.844 C 102.704 106.069 99.616 105.581 96.179 105.581 C 92.916 105.581 89.967 106.02 87.865 106.728 C 87.536 106.098 87.358 105.419 87.358 104.713 C 87.358 101.358 91.395 98.636 96.376 98.636 C 101.355 98.636 105.393 101.358 105.393 104.713 Z" style="stroke: rgb(24, 63, 2); fill: rgb(77, 198, 0);"/>
    <ellipse style="fill: rgb(255, 255, 255); transform-box: fill-box; transform-origin: 50% 50%;" cx="73.945" cy="115.957" rx="2.921" ry="3.492" transform="matrix(0.850365, -0.526193, 0.526193, 0.850365, 0.25396, 0.254011)"/>
    <ellipse style="fill: rgb(255, 255, 255); transform-origin: 73.945px 115.957px;" cx="73.945" cy="115.957" rx="1.42" ry="2.782" transform="matrix(0.536324, -0.844012, 0.844012, 0.536324, 26.795002, -13.207158)"/>
    <ellipse style="fill: rgb(255, 255, 255); transform-origin: 73.945px 115.957px;" cx="73.945" cy="115.957" rx="2.921" ry="3.492" transform="matrix(0.850365, -0.526193, 0.526193, 0.850365, 56.383673, -12.826031)"/>
    <path d="M 120.911 132.241 C 120.911 132.958 120.716 133.644 120.358 134.278 C 118.298 133.538 115.294 133.071 111.952 133.071 C 108.779 133.071 105.913 133.491 103.869 134.167 C 103.55 133.564 103.376 132.917 103.376 132.241 C 103.376 129.035 107.302 126.435 112.143 126.435 C 116.985 126.435 120.911 129.035 120.911 132.241 Z" style="stroke: rgb(24, 63, 2); fill: rgba(77, 198, 0, 0.286);"/>
    <path d="M 163.023 124.168 C 163.023 124.679 162.886 125.17 162.636 125.622 C 161.199 125.094 159.105 124.761 156.772 124.761 C 154.558 124.761 152.558 125.06 151.132 125.543 C 150.91 125.114 150.788 124.65 150.788 124.168 C 150.788 121.879 153.528 120.022 156.906 120.022 C 160.282 120.022 163.023 121.879 163.023 124.168 Z" style="stroke: rgb(24, 63, 2); fill: rgba(77, 198, 0, 0.286);"/>
    <ellipse style="stroke: rgb(24, 63, 2); fill: rgba(77, 198, 0, 0.286); transform-origin: 73.945px 115.957px;" cx="73.945" cy="115.957" rx="1.303" ry="1.673" transform="matrix(0.923556, -0.383464, 0.722047, 0.782975, 84.733745, 6.155507)"/>
    <path d="M 175.423 124.734 C 175.423 125.561 175.227 126.356 174.87 127.088 C 172.809 126.232 169.806 125.692 166.464 125.692 C 163.29 125.692 160.425 126.178 158.381 126.96 C 158.061 126.263 157.887 125.514 157.887 124.734 C 157.887 121.024 161.813 118.018 166.654 118.018 C 171.497 118.018 175.423 121.024 175.423 124.734 Z" style="stroke: rgb(24, 63, 2); fill: rgba(77, 198, 0, 0.286);"/>
    <path d="M 145.762 122.513 C 145.762 123.002 145.566 123.47 145.208 123.903 C 143.148 123.398 140.145 123.079 136.804 123.079 C 133.631 123.079 130.764 123.366 128.72 123.828 C 128.4 123.417 128.227 122.974 128.227 122.513 C 128.227 120.324 132.152 118.548 136.995 118.548 C 141.836 118.548 145.762 120.324 145.762 122.513 Z" style="stroke: rgb(24, 63, 2); fill: rgba(77, 198, 0, 0.286);"/>
    <ellipse style="stroke: rgb(24, 63, 2); fill: rgba(77, 198, 0, 0.286); transform-box: fill-box; transform-origin: 50% 50%;" cx="73.945" cy="115.957" rx="2.615" ry="2.474" transform="matrix(0.923556, -0.383464, 0.722047, 0.782975, 41.487059, 14.057467)"/>
    <ellipse style="stroke: rgb(24, 63, 2); fill: rgba(77, 198, 0, 0.286); transform-origin: 73.945px 115.957px;" cx="73.945" cy="115.957" rx="1.077" ry="2.327" transform="matrix(0.68761, -0.72608, 0.981099, 0.418324, 67.293295, 5.275199)"/>
    <ellipse style="stroke: rgb(24, 63, 2); fill: rgba(77, 198, 0, 0.286); transform-origin: 73.945px 115.957px;" cx="73.945" cy="115.957" rx="2.615" ry="2.474" transform="matrix(0.923556, -0.383464, 0.722047, 0.782975, 96.06261, 5.523777)"/>
    <path d="M 62.448 117.453 C 62.448 118.17 62.252 118.856 61.895 119.49 C 59.834 118.75 56.831 118.283 53.489 118.283 C 50.315 118.283 47.45 118.703 45.406 119.379 C 45.086 118.776 44.912 118.129 44.912 117.453 C 44.912 114.247 48.838 111.647 53.679 111.647 C 58.522 111.647 62.448 114.247 62.448 117.453 Z" style="stroke: rgb(24, 63, 2); fill: rgba(77, 198, 0, 0.286);"/>
    <path d="M 104.56 109.38 C 104.56 109.891 104.422 110.383 104.173 110.834 C 102.735 110.306 100.641 109.973 98.309 109.973 C 96.095 109.973 94.095 110.272 92.668 110.755 C 92.446 110.326 92.325 109.862 92.325 109.38 C 92.325 107.092 95.065 105.234 98.443 105.234 C 101.819 105.234 104.56 107.092 104.56 109.38 Z" style="stroke: rgb(24, 63, 2); fill: rgba(77, 198, 0, 0.286);"/>
    <ellipse style="stroke: rgb(24, 63, 2); fill: rgba(77, 198, 0, 0.286); transform-origin: 73.945px 115.957px;" cx="73.945" cy="115.957" rx="1.303" ry="1.673" transform="matrix(0.923556, -0.383464, 0.722047, 0.782975, 26.270357, -8.632297)"/>
    <path d="M 116.959 109.946 C 116.959 110.773 116.764 111.568 116.406 112.301 C 114.346 111.445 111.342 110.904 108.001 110.904 C 104.827 110.904 101.962 111.39 99.918 112.172 C 99.598 111.475 99.424 110.726 99.424 109.946 C 99.424 106.236 103.35 103.23 108.191 103.23 C 113.033 103.23 116.959 106.236 116.959 109.946 Z" style="stroke: rgb(24, 63, 2); fill: rgba(77, 198, 0, 0.286);"/>
    <path d="M 87.299 107.725 C 87.299 108.215 87.103 108.682 86.745 109.116 C 84.685 108.61 81.682 108.291 78.34 108.291 C 75.168 108.291 72.3 108.578 70.256 109.04 C 69.937 108.629 69.763 108.186 69.763 107.725 C 69.763 105.536 73.689 103.76 78.532 103.76 C 83.373 103.76 87.299 105.536 87.299 107.725 Z" style="stroke: rgb(24, 63, 2); fill: rgba(77, 198, 0, 0.286);"/>
    <ellipse style="stroke: rgb(24, 63, 2); fill: rgba(77, 198, 0, 0.286); transform-box: fill-box; transform-origin: 50% 50%;" cx="73.945" cy="115.957" rx="2.615" ry="2.474" transform="matrix(0.923556, -0.383464, 0.722047, 0.782975, -16.976327, -0.730341)"/>
    <ellipse style="stroke: rgb(24, 63, 2); fill: rgba(77, 198, 0, 0.286); transform-origin: 73.945px 115.957px;" cx="73.945" cy="115.957" rx="1.077" ry="2.327" transform="matrix(0.68761, -0.72608, 0.981099, 0.418324, 8.829893, -9.512613)"/>
    <ellipse style="stroke: rgb(24, 63, 2); fill: rgba(77, 198, 0, 0.286); transform-origin: 73.945px 115.957px;" cx="73.945" cy="115.957" rx="2.615" ry="2.474" transform="matrix(0.923556, -0.383464, 0.722047, 0.782975, 37.599226, -9.264019)"/>
  </g>
  <ellipse style="stroke-width: 6px; stroke: rgb(39, 13, 6); fill: url(&quot;#gradient-56&quot;);" cx="179.635" cy="254.549" rx="168.393" ry="37.296"/>
  <g transform="matrix(3.38802, 0, 0, 3.30022, 23.2369, -313.278)" style="filter: url(&quot;#gaussian-blur-filter-0&quot;);">
    <path d="M 165.829 183.222 C 165.829 185.543 164.879 187.719 163.218 189.596 L 129.133 189.596 C 127.472 187.719 126.523 185.543 126.523 183.222 C 126.523 176.157 135.322 170.43 146.176 170.43 C 157.03 170.43 165.829 176.157 165.829 183.222 Z" style="stroke: rgba(0, 0, 0, 0.506); fill: url(&quot;#gradient-84&quot;);"/>
    <ellipse style="stroke: rgba(0, 0, 0, 0); fill: rgba(0, 0, 0, 0.125); transform-origin: 43.615px 38.727px;" cx="43.615" cy="38.727" rx="7.904" ry="7.957" transform="matrix(0.987349, -0.158562, 0.285808, 0.966914, 114.257712, 143.677997)"/>
    <ellipse style="stroke: rgba(0, 0, 0, 0.506); fill: rgb(48, 25, 13);" cx="156.776" cy="189.655" rx="1.557" ry="0.722"/>
    <ellipse style="stroke: rgba(0, 0, 0, 0); fill: rgba(255, 255, 255, 0.125); transform-origin: 43.615px 38.728px;" cx="43.615" cy="38.727" rx="4.588" ry="1.137" transform="matrix(0.828288, -0.560303, 0.65088, 0.767016, 91.275261, 135.819384)"/>
    <path d="M 165.668 191.974 C 165.668 192.672 165.429 193.326 165.011 193.888 L 156.438 193.888 C 156.02 193.326 155.781 192.672 155.781 191.974 C 155.781 189.851 157.995 188.131 160.724 188.131 C 163.455 188.131 165.668 189.851 165.668 191.974 Z" style="stroke: rgba(0, 0, 0, 0.506); fill: url(&quot;#gradient-85&quot;);"/>
    <ellipse style="stroke: rgba(0, 0, 0, 0.506); fill: rgb(66, 30, 11);" cx="133.256" cy="181.917" rx="2.096" ry="1.036"/>
    <path d="M 147.663 189.912 C 147.663 191.418 147.032 192.83 145.927 194.049 L 123.274 194.049 C 122.17 192.83 121.539 191.418 121.539 189.912 C 121.539 185.328 127.387 181.612 134.601 181.612 C 141.815 181.612 147.663 185.328 147.663 189.912 Z" style="stroke: rgba(0, 0, 0, 0.506); fill: url(&quot;#gradient-86&quot;);"/>
    <ellipse style="stroke: rgba(0, 0, 0, 0.506); fill: rgb(48, 25, 13);" cx="149.077" cy="186.98" rx="1.557" ry="1.351"/>
    <ellipse style="stroke: rgba(0, 0, 0, 0); fill: rgba(0, 0, 0, 0.125); transform-origin: 43.617px 38.726px;" cx="43.615" cy="38.727" rx="6.898" ry="5.993" transform="matrix(0.987349, -0.158562, 0.285808, 0.966914, 95.982304, 149.984713)"/>
    <ellipse style="stroke: rgba(0, 0, 0, 0.506); fill: rgb(48, 25, 13); transform-origin: 36.81px 65.445px;" cx="36.809" cy="65.446" rx="1.487" ry="1.341" transform="matrix(0.891036, 0.453932, -0.428108, 0.904192, 101.207507, 123.076085)"/>
    <path d="M 152.726 191.362 C 152.726 192.477 152.332 193.524 151.643 194.426 L 137.493 194.426 C 136.804 193.524 136.41 192.477 136.41 191.362 C 136.41 187.966 140.062 185.214 144.568 185.214 C 149.074 185.214 152.726 187.966 152.726 191.362 Z" style="stroke: rgba(0, 0, 0, 0.506); fill: url(&quot;#gradient-87&quot;);"/>
    <ellipse style="stroke: rgba(0, 0, 0, 0); fill: rgba(255, 255, 255, 0.15); transform-origin: 43.614px 38.728px;" cx="43.615" cy="38.727" rx="3.182" ry="0.837" transform="matrix(0.920869, -0.389873, 0.516908, 0.867085, 83.595106, 145.546554)"/>
    <ellipse style="stroke: rgba(0, 0, 0, 0); fill: rgba(255, 255, 255, 0.086); transform-origin: 43.615px 38.727px;" cx="43.615" cy="38.727" rx="3.084" ry="1.281" transform="matrix(0.842514, -0.538675, 0.65354, 0.769073, 97.460687, 149.299588)"/>
    <ellipse style="stroke: rgba(0, 0, 0, 0); fill: rgba(255, 255, 255, 0.184); transform-origin: 43.615px 38.727px;" cx="43.615" cy="38.727" rx="1.685" ry="0.723" transform="matrix(0.842514, -0.538675, 0.65354, 0.769073, 115.349987, 150.750588)"/>
    <ellipse style="stroke: rgba(0, 0, 0, 0.506); fill: rgb(48, 25, 13);" cx="157.245" cy="193.925" rx="2.735" ry="0.494"/>
    <ellipse style="stroke: rgba(0, 0, 0, 0.506); fill: rgb(48, 25, 13);" cx="123.272" cy="194.003" rx="1.063" ry="0.602"/>
    <ellipse style="stroke: rgba(0, 0, 0, 0); fill: rgba(0, 0, 0, 0.125); transform-origin: 43.615px 38.727px;" cx="43.615" cy="38.727" rx="3.42" ry="3.99" transform="matrix(0.987349, -0.158562, 0.285808, 0.966914, 105.765017, 151.816997)"/>
    <ellipse style="stroke: rgba(0, 0, 0, 0); fill: rgba(0, 0, 0, 0.125); transform-origin: 43.617px 38.727px;" cx="43.615" cy="38.727" rx="2.352" ry="2.705" transform="matrix(0.987349, -0.158562, 0.285808, 0.966914, 119.42669, 152.531679)"/>
  </g>
  <g transform="matrix(1, 0, 0, 1, -1.48685, -49.0659)">
    <g transform="matrix(0.597508, 0, 0, 0.517632, 2.07108, -0.69346)" style="">
      <rect x="335.302" y="0.009" width="80" height="80" style="fill: none; stroke-width: 3px; stroke-dasharray: 20; stroke: rgba(0, 0, 0, 0.255);"/>
      <rect x="251.353" y="1.058" width="80" height="80" style="fill: none; stroke-width: 3px; stroke-dasharray: 20; stroke: rgba(0, 0, 0, 0.255);"/>
      <rect x="167.343" y="1.034" width="80" height="80" style="fill: none; stroke-width: 3px; stroke-dasharray: 20; stroke: rgba(0, 0, 0, 0.255);"/>
      <rect x="84.443" y="0.034" width="80" height="80" style="fill: none; stroke-width: 3px; stroke-dasharray: 20; stroke: rgba(0, 0, 0, 0.255);"/>
      <rect x="0.531" y="1.022" width="80" height="80" style="fill: none; stroke-width: 3px; stroke-dasharray: 20; stroke: rgba(0, 0, 0, 0.255);"/>
    </g>
    <g transform="matrix(0.597508, 0, 0, 0.517632, 250.408, -1.29933)" style="">
      <rect x="335.302" y="0.009" width="80" height="80" style="fill: none; stroke-width: 3px; stroke-dasharray: 20; stroke: rgba(0, 0, 0, 0.255);"/>
      <rect x="251.353" y="1.058" width="80" height="80" style="fill: none; stroke-width: 3px; stroke-dasharray: 20; stroke: rgba(0, 0, 0, 0.255);"/>
      <rect x="167.343" y="1.034" width="80" height="80" style="fill: none; stroke-width: 3px; stroke-dasharray: 20; stroke: rgba(0, 0, 0, 0.255);"/>
      <rect x="84.443" y="0.034" width="80" height="80" style="fill: none; stroke-width: 3px; stroke-dasharray: 20; stroke: rgba(0, 0, 0, 0.255);"/>
      <rect x="0.531" y="1.022" width="80" height="80" style="fill: none; stroke-width: 3px; stroke-dasharray: 20; stroke: rgba(0, 0, 0, 0.255);"/>
    </g>
    <g transform="matrix(0.597508, 0, 0, 0.517632, 2.87402, 42.0592)" style="">
      <rect x="335.302" y="0.009" width="80" height="80" style="fill: none; stroke-width: 3px; stroke-dasharray: 20; stroke: rgba(0, 0, 0, 0.255);"/>
      <rect x="251.353" y="1.058" width="80" height="80" style="fill: none; stroke-width: 3px; stroke-dasharray: 20; stroke: rgba(0, 0, 0, 0.255);"/>
      <rect x="167.343" y="1.034" width="80" height="80" style="fill: none; stroke-width: 3px; stroke-dasharray: 20; stroke: rgba(0, 0, 0, 0.255);"/>
      <rect x="84.443" y="0.034" width="80" height="80" style="fill: none; stroke-width: 3px; stroke-dasharray: 20; stroke: rgba(0, 0, 0, 0.255);"/>
      <rect x="0.531" y="1.022" width="80" height="80" style="fill: none; stroke-width: 3px; stroke-dasharray: 20; stroke: rgba(0, 0, 0, 0.255);"/>
    </g>
    <g transform="matrix(0.597508, 0, 0, 0.517632, 251.211, 41.4533)" style="">
      <rect x="335.302" y="0.009" width="80" height="80" style="fill: none; stroke-width: 3px; stroke-dasharray: 20; stroke: rgba(0, 0, 0, 0.255);"/>
      <rect x="251.353" y="1.058" width="80" height="80" style="fill: none; stroke-width: 3px; stroke-dasharray: 20; stroke: rgba(0, 0, 0, 0.255);"/>
      <rect x="167.343" y="1.034" width="80" height="80" style="fill: none; stroke-width: 3px; stroke-dasharray: 20; stroke: rgba(0, 0, 0, 0.255);"/>
      <rect x="84.443" y="0.034" width="80" height="80" style="fill: none; stroke-width: 3px; stroke-dasharray: 20; stroke: rgba(0, 0, 0, 0.255);"/>
      <rect x="0.531" y="1.022" width="80" height="80" style="fill: none; stroke-width: 3px; stroke-dasharray: 20; stroke: rgba(0, 0, 0, 0.255);"/>
    </g>
  </g>
  <path d="M 206.863 147.649 L 207.836 179.518 L 207.78 179.519 L 208.282 195.937 L 214.955 195.746 C 219.696 194.31 223.445 191.237 225.125 187.417 L 224.875 179.029 L 224.819 179.03 L 223.993 152.016 L 224.231 152.009 L 223.696 134.618 L 212.836 147.477 L 206.863 147.649 Z" style="stroke: rgb(10, 44, 20); fill: url(&quot;#gradient-52&quot;); transform-origin: -113.989px 241.519px;"/>
  <ellipse style="fill: none; stroke-width: 5px; stroke: rgba(255, 255, 255, 0.11);" cx="188.577" cy="254.398" rx="77.846" ry="16.282"/>
  <rect x="189.414" y="217.626" width="24.082" height="37.171" style="stroke: rgb(10, 44, 20); fill: url(&quot;#gradient-53&quot;);"/>
  <ellipse style="fill: none; stroke-width: 5px; stroke: rgba(255, 255, 255, 0.11);" cx="187.71" cy="255.398" rx="116.345" ry="25.78"/>
  <rect x="169.121" y="214.165" width="30.568" height="45.4" style="stroke: rgb(10, 44, 20); fill: url(&quot;#gradient-54&quot;);"/>
  <path d="M 215.572 144.927 L 215.572 249.479 L 204.18 249.85 L 200.023 225.429 L 195.908 249.479 L 185.706 249.293 L 185.706 249.378 L 168.715 249.378 L 168.715 144.75 L 197.714 144.75 L 197.714 144.927 L 215.572 144.927 Z" style="fill: rgb(27, 66, 228); stroke-width: 1.5px; stroke: rgb(14, 29, 91);"/>
  <ellipse style="fill: rgb(21, 41, 124); transform-origin: 31.431px 66.895px;" cx="31.431" cy="66.892" rx="5.941" ry="9.141" transform="matrix(0.99294, -0.118616, 0.137788, 0.99065, 165.818382, 86.194415)"/>
  <ellipse style="fill: rgb(21, 41, 124);" cx="191.248" cy="147.039" rx="23.823" ry="13.16"/>
  <path d="M 169.205 180.198 L 169.247 180.199 L 168.589 197.36 L 162.711 197.144 C 158.54 195.634 155.307 192.414 153.866 188.418 L 154.201 179.648 L 154.257 179.649 L 155.363 151.408 L 155.153 151.4 L 155.853 133.219 L 165.174 146.55 C 166 143.358 167.455 141.242 169.107 141.242 C 171.696 141.242 173.781 146.388 173.781 152.734 C 173.795 158.472 172.074 163.229 169.835 164.087 L 169.205 180.198 Z" style="stroke-width: 2px; stroke: rgb(10, 44, 20); fill: url(&quot;#gradient-55&quot;);"/>
  <path d="M 233.336 118.341 C 227.716 137.893 219.561 142.576 215.972 144.972 C 215.545 145.281 214.304 148.183 214.304 148.183 C 212.098 154.864 210.907 157.357 209.837 157.406 L 205.19 157.318 L 209.284 151.659 L 209.131 147.632 C 200.09 150.086 201.503 149.85 199.044 150.216 L 196.444 152.036 L 196.845 158.965 C 195.78 158.798 193.128 157.099 192.409 155.523 L 191.744 150.658 C 188.307 150.853 186.398 149.858 182.895 149.138 C 161.153 144.668 149.63 124.001 154.552 102.145 C 159.473 80.288 181.113 66.199 202.855 70.669 C 224.61 75.141 238.257 96.485 233.336 118.341 Z" style="fill: rgb(38, 123, 67); stroke-width: 2px; stroke: rgb(10, 44, 20); transform-origin: -129.99px 202.375px;"/>
  <ellipse style="fill: rgb(56, 154, 89);" cx="195.6" cy="109.218" rx="37.475" ry="34.604"/>
  <ellipse style="" cx="222.55" cy="108.9" rx="10.945" ry="15.723"/>
  <ellipse style="" cx="192.228" cy="109.126" rx="14.655" ry="18.184"/>
  <g style="transform-origin: 22.829px 19.796px;" transform="matrix(-0.828324, -0.021711, -0.032295, 1.12487, 210.693, 20.3017)">
    <path d="M 17.011 9.81 L 32.45 31.078 C 33.554 30.884 34.717 30.886 35.855 31.119 C 39.618 31.893 41.671 34.925 40.439 37.891 C 39.206 40.856 35.157 42.634 31.393 41.86 C 27.63 41.086 25.577 38.054 26.81 35.088 C 26.983 34.669 27.214 34.275 27.49 33.907 L 21.401 25.517 C 17.681 19.375 15.402 14.07 15.227 11.131 L 17.011 9.81 Z" style="stroke: rgb(0, 0, 0); stroke-linejoin: round; stroke-linecap: round; stroke-width: 1.1492px; fill: url(&quot;#gradient-61&quot;);"/>
    <g transform="matrix(1.453482, -0.1505, -0.132041, 1.525681, 5.758062, -0.95463)" style="transform-origin: 11.862px 17.639px;">
      <path d="M 13.052 20.964 L 13.052 26.317 L 10.434 26.317 L 10.434 23.583 C 10.71 22.354 11.297 21.388 12.028 20.964 L 13.052 20.964 Z" style="stroke: rgb(0, 0, 0); stroke-linejoin: round; stroke-linecap: round; transform-box: fill-box; transform-origin: 50% 50%; fill: rgb(55, 142, 74); stroke-width: 0.775543px;" transform="matrix(-0.570538, -0.821271, 0.821271, -0.570538, -0.000001, -0.000002)"/>
      <path d="M 8.896 12.98 L 8.896 18.333 L 6.278 18.333 L 6.278 15.599 C 6.554 14.37 7.141 13.404 7.872 12.98 L 8.896 12.98 Z" style="stroke: rgb(0, 0, 0); stroke-linejoin: round; stroke-linecap: round; transform-origin: 7.587px 15.657px; fill: rgb(55, 142, 74); stroke-width: 0.773445px;" transform="matrix(-0.142092, -0.989853, 0.989853, -0.142092, -0.000002, 0)"/>
      <path d="M 10.662 17.127 L 10.662 22.48 L 8.044 22.48 L 8.044 19.746 C 8.32 18.517 8.907 17.551 9.638 17.127 L 10.662 17.127 Z" style="stroke: rgb(0, 0, 0); stroke-linejoin: round; stroke-linecap: round; transform-origin: 9.353px 19.804px; fill: rgb(55, 142, 74); stroke-width: 0.775141px;" transform="matrix(-0.465849, -0.884864, 0.884864, -0.465849, 0.000001, 0)"/>
      <path d="M 17.44 17.691 L 17.44 12.338 L 14.822 12.338 L 14.822 15.072 C 15.098 16.301 15.685 17.267 16.416 17.691 L 17.44 17.691 Z" style="stroke: rgb(0, 0, 0); stroke-linejoin: round; stroke-linecap: round; transform-origin: 16.131px 15.014px; fill: rgb(55, 142, 74); stroke-width: 0.775627px;" transform="matrix(-0.689551, -0.724237, 0.724237, -0.689551, 0.000001, 0)"/>
      <path d="M 14.93 14.622 L 14.93 9.269 L 12.312 9.269 L 12.312 12.003 C 12.588 13.232 13.175 14.198 13.906 14.622 L 14.93 14.622 Z" style="stroke: rgb(0, 0, 0); stroke-linejoin: round; stroke-linecap: round; transform-origin: 13.621px 11.945px; fill: rgb(55, 142, 74); stroke-width: 0.775257px;" transform="matrix(-0.782727, -0.622365, 0.622365, -0.782727, -0.000002, -0.000002)"/>
    </g>
    <path d="M 29.674 12.148 L 22.711 18.182 L 25.212 20.909 L 28.769 17.827 C 30.104 16.154 30.8 14.454 30.653 13.214 L 29.674 12.148 Z" style="stroke: rgb(0, 0, 0); stroke-linejoin: round; stroke-linecap: round; fill: rgb(36, 115, 56); stroke-width: 1.14939px; transform-origin: 24.736px 16.173px;"/>
  </g>
  <path d="M 155.783 37.796 C 159.8 31.094 168.309 25.825 178.96 23.511 L 192.619 23.511 L 192.619 23.487 L 207.497 23.487 C 218.147 25.802 226.657 31.071 230.673 37.773 L 230.673 41.644 L 230.743 41.644 L 230.743 81.488 L 155.699 81.488 L 155.699 41.644 L 155.783 41.644 L 155.783 37.796 Z" style="stroke-linejoin: round; stroke-linecap: round; stroke-width: 2px; fill: url(&quot;#gradient-59&quot;); stroke: url(&quot;#gradient-58&quot;);"/>
  <path d="M 228.812 41.32 L 228.812 44.972 L 228.882 44.972 L 228.882 82.559 L 215.726 82.559 L 215.726 29.542 C 221.674 32.139 226.335 36.304 228.812 41.32 Z" style="stroke-linejoin: round; stroke-linecap: round; fill: rgb(21, 41, 124);"/>
  <path d="M 138.722 84.346 C 140.318 81.38 143.957 79.009 148.589 77.889 L 158.904 77.889 L 158.904 78.062 L 234.648 78.062 L 234.648 78.081 L 237.303 78.081 C 241.936 79.199 245.589 81.57 247.184 84.536 L 247.184 91.558 C 245.589 94.524 241.936 96.895 237.303 98.013 L 234.648 98.013 L 234.648 98.145 L 158.904 98.145 L 158.904 98.204 L 148.589 98.202 C 143.957 97.084 140.318 94.713 138.722 91.746 L 138.722 87.601 L 138.722 84.346 Z" style="stroke-linejoin: round; stroke-linecap: round; stroke-width: 2px; stroke: rgb(9, 8, 28); fill: url(&quot;#gradient-60&quot;);"/>
  <path d="M 152.508 73.101 L 168.379 73.377 L 168.379 73.495 L 214.844 73.495 L 214.844 73.361 L 230.715 73.083 L 230.757 76.373 C 229.512 78.752 226.671 80.684 223.032 81.638 L 214.928 81.778 L 214.928 81.425 L 168.309 81.425 L 168.309 81.433 L 167.875 81.425 L 163.648 81.425 L 163.648 81.353 L 160.192 81.289 C 156.553 80.377 153.712 78.525 152.48 76.247 L 152.508 73.101 Z" style="stroke: rgb(0, 0, 0); stroke-linejoin: round; stroke-linecap: round; fill: rgb(255, 156, 0);"/>
  <g style="transform-origin: 22.829px 19.796px;" transform="matrix(0.828324, -0.021711, 0.032295, 1.12487, 125.126, 20.3017)">
    <path d="M 11.143 10.54 L 34.442 27.907 C 35.424 27.503 36.541 27.275 37.726 27.274 C 41.647 27.274 44.826 29.779 44.826 32.869 C 44.825 35.959 41.647 38.464 37.726 38.464 C 33.805 38.464 30.626 35.959 30.627 32.869 C 30.626 32.433 30.69 32.009 30.809 31.601 L 21.619 24.75 C 15.6 19.589 11.297 14.947 9.957 12.16 L 11.143 10.54 Z" style="stroke: rgb(0, 0, 0); stroke-linejoin: round; stroke-linecap: round; stroke-width: 1.1492px; fill: url(&quot;#gradient-57&quot;);"/>
    <g transform="matrix(1.335116, -0.431347, 0.481542, 1.490481, 2.60658, -0.620358)" style="transform-origin: 11.862px 17.639px;">
      <path d="M 13.052 20.964 L 13.052 26.317 L 10.434 26.317 L 10.434 23.583 C 10.71 22.354 11.297 21.388 12.028 20.964 L 13.052 20.964 Z" style="stroke: rgb(0, 0, 0); stroke-linejoin: round; stroke-linecap: round; transform-box: fill-box; transform-origin: 50% 50%; fill: rgb(55, 142, 74); stroke-width: 0.775543px;" transform="matrix(-0.570538, -0.821271, 0.821271, -0.570538, -0.000001, -0.000002)"/>
      <path d="M 8.896 12.98 L 8.896 18.333 L 6.278 18.333 L 6.278 15.599 C 6.554 14.37 7.141 13.404 7.872 12.98 L 8.896 12.98 Z" style="stroke: rgb(0, 0, 0); stroke-linejoin: round; stroke-linecap: round; transform-origin: 7.587px 15.657px; fill: rgb(55, 142, 74); stroke-width: 0.773445px;" transform="matrix(-0.142092, -0.989853, 0.989853, -0.142092, -0.000002, 0)"/>
      <path d="M 10.662 17.127 L 10.662 22.48 L 8.044 22.48 L 8.044 19.746 C 8.32 18.517 8.907 17.551 9.638 17.127 L 10.662 17.127 Z" style="stroke: rgb(0, 0, 0); stroke-linejoin: round; stroke-linecap: round; transform-origin: 9.353px 19.804px; fill: rgb(55, 142, 74); stroke-width: 0.775141px;" transform="matrix(-0.465849, -0.884864, 0.884864, -0.465849, 0.000001, 0)"/>
      <path d="M 17.44 17.691 L 17.44 12.338 L 14.822 12.338 L 14.822 15.072 C 15.098 16.301 15.685 17.267 16.416 17.691 L 17.44 17.691 Z" style="stroke: rgb(0, 0, 0); stroke-linejoin: round; stroke-linecap: round; transform-origin: 16.131px 15.014px; fill: rgb(55, 142, 74); stroke-width: 0.775627px;" transform="matrix(-0.689551, -0.724237, 0.724237, -0.689551, 0.000001, 0)"/>
      <path d="M 14.93 14.622 L 14.93 9.269 L 12.312 9.269 L 12.312 12.003 C 12.588 13.232 13.175 14.198 13.906 14.622 L 14.93 14.622 Z" style="stroke: rgb(0, 0, 0); stroke-linejoin: round; stroke-linecap: round; transform-origin: 13.621px 11.945px; fill: rgb(55, 142, 74); stroke-width: 0.775257px;" transform="matrix(-0.782727, -0.622365, 0.622365, -0.782727, -0.000002, -0.000002)"/>
    </g>
    <path d="M 25.423 10.751 L 19.403 16.532 L 22.206 19.502 L 25.281 16.549 C 26.368 14.909 26.826 13.2 26.52 11.912 L 25.423 10.751 Z" style="stroke: rgb(0, 0, 0); stroke-linejoin: round; stroke-linecap: round; transform-origin: 23.094px 14.952px; fill: rgb(36, 115, 56); stroke-width: 1.14939px;" transform="matrix(0.964438, -0.264309, 0.264309, 0.964438, 0, 0.000001)"/>
  </g>
  <ellipse style="stroke: rgb(0, 0, 0); fill: rgb(255, 156, 0);" cx="194.873" cy="78.808" rx="11.997" ry="15.586"/>
  <g transform="matrix(1.19923, 0, 0, 1.39368, 231.498, -7.96852)" style="">
    <ellipse style="stroke: rgb(0, 0, 0); fill: rgb(149, 149, 149);" cx="-30.569" cy="62.295" rx="7.479" ry="8.294"/>
    <ellipse style="fill: rgb(96, 96, 96);" cx="-28.592" cy="62.146" rx="4.78" ry="6.392"/>
  </g>
  <path style="stroke: rgb(0, 0, 0); stroke-miterlimit: 4.63; stroke-width: 7.48475px; fill: rgb(255, 156, 0);" transform="matrix(0.086163, 0, 0, 0.144592, 167.542, 9.95517)" d="M 464.356 181 L 485.644 181 L 490.136 213.513 A 56.55 56.55 0 0 1 502.825 218.769 L 528.992 198.955 L 544.045 214.008 L 524.231 240.175 A 56.55 56.55 0 0 1 529.487 252.864 L 562 257.356 L 562 278.644 L 529.487 283.136 A 56.55 56.55 0 0 1 524.231 295.825 L 544.045 321.992 L 528.992 337.045 L 502.825 317.231 A 56.55 56.55 0 0 1 490.136 322.487 L 485.644 355 L 464.356 355 L 459.864 322.487 A 56.55 56.55 0 0 1 447.175 317.231 L 421.008 337.045 L 405.955 321.992 L 425.769 295.825 A 56.55 56.55 0 0 1 420.513 283.136 L 388 278.644 L 388 257.356 L 420.513 252.864 A 56.55 56.55 0 0 1 425.769 240.175 L 405.955 214.008 L 421.008 198.955 L 447.175 218.769 A 56.55 56.55 0 0 1 459.864 213.513 Z M 475 241.9 A 26.1 26.1 0 0 0 475 294.1 A 26.1 26.1 0 0 0 475 241.9" bx:shape="cog 475 268 26.1 56.55 87 0.38 8 1@36eb139e"/>
  <ellipse style="stroke: rgb(0, 0, 0); fill: rgb(255, 156, 0);" cx="220.988" cy="76.94" rx="11.997" ry="15.586"/>
  <g transform="matrix(1.19923, 0, 0, 1.39368, 259.012, -9.83671)" style="">
    <ellipse style="stroke: rgb(0, 0, 0); fill: rgb(149, 149, 149);" cx="-30.569" cy="62.295" rx="7.479" ry="8.294"/>
    <ellipse style="fill: rgb(96, 96, 96);" cx="-28.592" cy="62.146" rx="4.78" ry="6.392"/>
  </g>
  <rect x="169.863" y="206.14" width="45.112" height="7.248" style="fill: rgb(21, 41, 124);"/>
  <rect x="168.435" y="201.57" width="46.758" height="8.402" style="fill: rgb(255, 156, 0); stroke: rgb(58, 36, 3);"/>
  <path d="M 199.477 -216.044 L 207.323 -209.587 L 204.326 -199.141 L 194.628 -199.141 L 191.631 -209.587 Z" bx:shape="n-gon 199.477 -206.7 8.25 9.344 5 0 1@63b5525e" style="fill: rgb(119, 77, 10); stroke: rgb(58, 36, 3);" transform="matrix(1, 0, 0, -1, 0, 0)"/>
  <path d="M -11.326 -315.235 L -8.523 -310.581 L -9.594 -303.051 L -13.058 -303.051 L -14.129 -310.581 Z" bx:shape="n-gon -11.326 -308.5 2.947 6.735 5 0 1@5c1f4e49" style="fill: rgb(0, 234, 255); stroke: rgb(10, 69, 67);" transform="matrix(1, 2e-12, 0, -1, 211.605583439995, -103.069035000016)"/>
  <ellipse style="fill: none; stroke-width: 5px; stroke: rgba(255, 255, 255, 0.11);" cx="320.829" cy="259.341" rx="14.831" ry="5.594"/>
  <ellipse style="fill: none; stroke-width: 5px; stroke: rgba(255, 255, 255, 0.11);" cx="315.244" cy="259.542" rx="23.605" ry="8.944"/>
  <g transform="matrix(1.60143, 0, 0, 1.59507, -71.3431, -88.186)" style="">
    <path d="M 243.32 174.81 L 259.431 174.81 L 259.431 179.739 L 255.034 179.739 C 255.485 180.693 255.742 181.781 255.742 182.937 C 255.742 186.689 253.044 189.731 249.715 189.731 C 249.674 189.731 249.633 189.73 249.592 189.729 L 249.592 219.036 L 244.795 219.036 L 244.795 186.861 C 244.099 185.753 243.689 184.399 243.689 182.937 C 243.689 181.781 243.946 180.693 244.397 179.739 L 243.32 179.739 L 243.32 174.81 Z" style="fill: url(&quot;#gradient-10&quot;); stroke: rgb(17, 7, 2); stroke-width: 2px;"/>
    <path d="M 258.973 145.518 C 259 145.533 259.026 145.542 259.053 145.546 C 259.832 145.664 261.009 141.527 261.684 136.304 C 262.358 131.081 262.274 126.753 261.495 126.635 C 260.925 126.548 260.141 128.75 259.496 131.99 L 255.965 102.81 L 253.15 124.603 L 251.573 136.429 L 251.621 136.436 L 251.448 137.78 L 251.512 137.79 L 248.305 161.84 L 248.279 161.836 L 247.227 169.719 C 247.637 173.403 249.14 176.493 251.319 178.093 L 254.589 178.625 L 256.646 163.197 L 256.617 163.192 L 258.973 145.518 Z" style="fill: url(&quot;#gradient-0&quot;); stroke-width: 2px; stroke: rgb(3, 20, 7); transform-origin: 395.122px 122.86px;"/>
    <rect x="277.095" y="184.471" width="11.693" height="28.673" style="fill: url(&quot;#gradient-3&quot;); stroke-width: 2px; stroke: rgb(3, 20, 7);"/>
    <rect x="26.347" y="113.386" width="13.389" height="26.633" style="fill: rgb(0, 98, 30); stroke-width: 2px; stroke: rgb(3, 20, 7); transform-box: fill-box; transform-origin: 50% 50%;" transform="matrix(1, -0.000145, 0.000124, 1, 238.927711, 74.770211)"/>
    <path d="M 294.327 151.178 C 294.3 151.191 294.273 151.197 294.246 151.199 C 293.461 151.259 292.552 147.043 292.213 141.782 C 291.875 136.521 292.236 132.209 293.021 132.15 C 293.595 132.107 294.237 134.363 294.672 137.643 L 300.064 108.799 L 301.476 130.75 L 302.292 142.666 L 302.243 142.67 L 302.33 144.024 L 302.266 144.029 L 303.924 168.261 L 303.951 168.259 L 304.495 176.203 C 303.849 179.847 302.152 182.817 299.876 184.249 L 296.579 184.534 L 295.516 168.989 L 295.545 168.986 L 294.327 151.178 Z" style="fill: rgb(0, 98, 30); stroke-width: 2px; stroke: rgb(3, 20, 7); transform-origin: 452.468px 130.371px;"/>
    <path d="M 263.674 130.522 L 265.834 130.522 C 269.656 130.089 273.896 129.849 278.362 129.849 C 282.827 129.849 287.068 130.089 290.889 130.522 L 293.324 130.522 L 293.324 130.831 C 302.582 132.139 308.834 134.625 308.834 137.476 C 308.834 140.327 302.582 142.813 293.324 144.122 L 293.324 205.947 L 283.352 205.947 L 278.985 188.597 L 273.646 205.947 L 263.674 205.947 L 263.674 144.16 C 254.264 142.862 247.89 140.355 247.89 137.476 C 247.89 134.597 254.264 132.091 263.674 130.792 L 263.674 130.522 Z" style="fill: url(&quot;#gradient-2&quot;); stroke-width: 2px; stroke: rgb(4, 19, 57);"/>
    <g transform="matrix(0.724302, 0, 0, 0.784496, 187.908, 59.8326)">
      <ellipse style="stroke: rgb(0, 0, 0); transform-box: fill-box; transform-origin: 50% 50%; fill: url(&quot;#gradient-7&quot;);" cx="91.334" cy="95.937" rx="8.384" ry="4.698" transform="matrix(0.981831, 0.189759, -0.189759, 0.981831, -0.913291, -0.521858)"/>
      <ellipse style="fill: rgb(255, 255, 255);" cx="88.194" cy="92.511" rx="4.065" ry="1.152"/>
    </g>
    <path d="M 288.958 144.316 C 289.401 146.565 289.641 148.971 289.641 151.471 C 289.641 163.977 283.646 174.115 276.25 174.115 C 268.854 174.115 262.859 163.977 262.859 151.471 C 262.859 138.966 268.854 128.828 276.25 128.828 C 276.703 128.828 277.151 128.866 277.593 128.941 C 279.386 128.427 281.388 128.14 283.501 128.14 C 289.675 128.14 294.906 130.591 296.703 133.98 C 297.811 133.368 299.27 132.996 300.869 132.996 C 304.332 132.996 307.14 134.741 307.14 136.892 C 307.14 139.044 304.332 140.789 300.869 140.789 C 299.13 140.789 297.555 140.349 296.419 139.637 C 295.066 141.739 292.363 143.43 288.958 144.316 Z" style="fill: rgba(0, 0, 0, 0.4);"/>
    <path d="M 293.842 125.334 C 293.842 133.422 290.536 140.623 285.391 145.256 L 284.23 156.004 L 284.744 154.133 L 287.581 154.711 C 288.771 155.287 289.59 156.16 289.801 157.082 L 289.481 158.249 L 284.09 157.15 C 283.936 158.031 283.776 158.883 283.612 159.701 L 286.246 160.015 C 287.459 160.485 288.332 161.301 288.611 162.211 L 288.385 163.419 L 282.931 162.772 C 282.743 163.546 282.551 164.274 282.356 164.954 L 282.837 164.028 L 285.305 165.425 C 286.262 166.35 286.808 167.472 286.785 168.468 L 286.217 169.559 L 281.705 167.011 C 281.292 168.186 280.874 169.12 280.466 169.768 L 279.02 169.599 L 279.269 167.299 L 274.598 168.928 L 274.377 167.775 C 274.658 166.802 275.534 165.782 276.749 165.029 L 279.587 164.041 L 279.608 164.153 L 279.749 162.85 L 274.389 163.882 L 274.317 162.69 C 274.713 161.748 275.693 160.87 276.973 160.297 L 279.864 159.74 L 279.944 161.045 L 280.406 156.762 L 275.756 158.391 L 275.536 157.23 C 275.817 156.257 276.693 155.245 277.908 154.484 L 280.745 153.495 L 280.754 153.539 L 281.335 148.155 C 278.447 149.749 275.21 150.642 271.792 150.642 C 268.708 150.642 265.772 149.915 263.107 148.603 L 263.864 155.625 L 263.873 155.581 L 266.71 156.572 C 267.925 157.328 268.801 158.34 269.083 159.318 L 268.862 160.473 L 264.213 158.85 L 264.675 163.132 L 264.754 161.824 L 267.646 162.381 C 268.926 162.953 269.906 163.834 270.302 164.773 L 270.229 165.968 L 264.869 164.938 L 265.01 166.24 L 265.032 166.126 L 267.869 167.116 C 269.084 167.872 269.96 168.884 270.242 169.862 L 270.021 171.017 L 265.35 169.387 L 265.597 171.682 L 264.152 171.851 C 263.745 171.203 263.327 170.27 262.914 169.095 L 258.401 171.648 L 257.833 170.553 C 257.81 169.555 258.357 168.434 259.313 167.511 L 261.782 166.115 L 262.264 167.044 C 262.069 166.364 261.877 165.633 261.688 164.859 L 256.233 165.504 L 256.008 164.297 C 256.287 163.384 257.159 162.574 258.372 162.097 L 261.008 161.786 C 260.842 160.967 260.682 160.114 260.528 159.233 L 255.137 160.332 L 254.817 159.165 C 255.028 158.242 255.848 157.369 257.037 156.794 L 259.875 156.216 L 260.388 158.086 L 259.084 146.019 C 253.433 141.437 249.742 133.88 249.742 125.334 C 249.742 121.115 250.641 117.138 252.231 113.64 L 247.909 108.109 C 247.71 107.817 247.516 107.528 247.325 107.242 L 245.218 109.344 C 244.082 110.034 242.946 110.223 242.137 109.856 L 241.465 108.881 L 245.623 104.732 L 246.774 106.401 C 244.249 102.509 242.505 99.164 241.887 97.016 L 242.386 99.522 L 239.683 100.25 C 238.403 100.246 237.307 99.8 236.713 99.037 L 236.469 97.809 L 241.761 96.384 L 241.764 96.398 L 242.73 95.497 L 242.581 95.376 L 245.552 89.936 L 246.424 90.641 C 246.812 91.576 246.776 92.962 246.33 94.401 L 244.812 97.18 L 243.246 95.914 L 248.065 102.08 L 252.116 97.517 L 252.943 98.392 C 253.202 99.393 252.92 100.747 252.18 102.066 L 250.04 104.477 L 249.453 103.854 L 254.252 109.994 C 258.281 103.935 264.638 100.026 271.792 100.026 C 277.658 100.026 282.989 102.655 286.94 106.943 L 293.24 98.884 L 291.083 96.919 C 290.219 95.691 289.807 94.377 289.967 93.354 L 290.705 92.388 L 295.15 96.439 L 299.908 90.353 L 298.344 91.617 L 296.826 88.838 C 296.38 87.399 296.343 86.012 296.732 85.078 L 297.604 84.373 L 300.575 89.813 L 300.427 89.933 L 301.392 90.834 L 301.395 90.821 L 306.687 92.246 L 306.442 93.474 C 305.848 94.237 304.753 94.683 303.472 94.687 L 300.769 93.959 L 301.267 91.459 C 300.647 93.609 298.901 96.955 296.375 100.848 L 297.533 99.168 L 301.691 103.318 L 301.019 104.293 C 300.209 104.661 299.073 104.471 297.937 103.781 L 295.83 101.678 C 295.64 101.965 295.445 102.254 295.247 102.546 L 289.374 110.06 C 292.178 114.304 293.842 119.596 293.842 125.334 Z M 238.607 103.965 L 243.164 100.47 L 244.622 103.193 L 242.294 104.978 C 241.094 105.493 239.946 105.513 239.177 105.029 L 238.607 103.965 Z M 249.585 94.406 C 249.863 95.394 249.669 96.758 249.062 98.105 L 247.238 100.599 L 245.228 98.445 L 248.799 93.565 L 249.585 94.406 Z M 294.357 88.002 L 297.928 92.882 L 295.918 95.036 L 294.094 92.543 C 293.486 91.195 293.293 89.831 293.571 88.844 L 294.357 88.002 Z M 303.978 99.466 C 303.21 99.951 302.062 99.93 300.862 99.415 L 298.534 97.63 L 299.992 94.907 L 304.548 98.402 L 303.978 99.466 Z" style="stroke-width: 2px; fill: url(&quot;#gradient-4&quot;); stroke: rgb(3, 20, 7);"/>
    <ellipse style="fill: rgb(0, 98, 30);" cx="273.955" cy="124.431" rx="19.229" ry="22.809"/>
    <ellipse style="stroke: rgb(5, 46, 13);" cx="279.668" cy="127.624" rx="5.653" ry="1.127"/>
    <rect x="285.467" y="180.512" width="5.677" height="12.338" rx="5" ry="5" style="fill: rgb(78, 50, 5); stroke: rgb(86, 31, 0);"/>
    <rect x="288.574" y="-200.64" width="5.294" height="20.637" rx="5" ry="5" style="fill: url(&quot;#gradient-15&quot;); stroke: rgb(86, 31, 0);" transform="matrix(1, 0, 0, -1, 0, 0)"/>
    <rect x="261.97" y="177.607" width="32.878" height="7.497" rx="5" ry="5" style="fill: url(&quot;#gradient-13&quot;); stroke: rgb(72, 30, 7);"/>
    <g transform="matrix(0.724302, 0, 0, 0.784496, 234.781, 59.3972)">
      <ellipse style="stroke: rgb(0, 0, 0); fill: url(&quot;#gradient-5&quot;); transform-box: fill-box; transform-origin: 50% 50%;" cx="91.334" cy="95.937" rx="8.384" ry="4.698" transform="matrix(0.981831, 0.189759, -0.189759, 0.981831, -0.913291, -0.521858)"/>
      <ellipse style="fill: rgb(255, 255, 255);" cx="88.194" cy="92.511" rx="4.065" ry="1.152"/>
    </g>
    <path d="M 293.766 113.327 C 293.766 114.025 293.76 114.721 293.746 115.412 C 288.167 111.289 280.937 108.8 273.039 108.8 C 264.19 108.8 256.18 111.924 250.391 116.972 C 250.349 115.769 250.328 114.554 250.328 113.327 C 250.328 87.206 260.052 66.031 272.047 66.031 C 284.043 66.031 293.766 87.206 293.766 113.327 Z" style="fill: url(&quot;#gradient-12&quot;); stroke: rgb(86, 31, 0); stroke-width: 2px; transform-box: fill-box; transform-origin: 50% 50%;" transform="matrix(0.999967, 0.008077, -0.008077, 0.999967, 0, 0)"/>
    <ellipse style="" cx="262.208" cy="126.737" rx="6.52" ry="8.741"/>
    <path d="M 290.413 108.573 C 290.413 109.143 290.408 109.71 290.396 110.274 C 285.705 106.911 279.626 104.882 272.985 104.882 C 265.544 104.882 258.809 107.429 253.941 111.546 C 253.906 110.566 253.888 109.574 253.888 108.573 C 253.888 87.273 262.064 70.006 272.15 70.006 C 282.238 70.006 290.413 87.273 290.413 108.573 Z" style="fill: rgb(27, 66, 228); stroke: rgb(86, 31, 0);"/>
    <g transform="matrix(0.724302, 0, 0, 0.784496, 233.59, 61.6808)">
      <path d="M 42.002 52.94 C 37.116 52.94 33.155 48.762 33.155 43.609 C 33.155 39.334 35.881 35.731 39.598 34.626 C 38.203 36.167 37.341 38.286 37.341 40.625 C 37.341 45.334 40.833 49.151 45.141 49.151 C 47.074 49.151 48.842 48.383 50.205 47.11 C 48.892 50.528 45.714 52.94 42.002 52.94 Z" style="fill: url(&quot;#gradient-11&quot;); stroke-width: 2.65112px; stroke: rgb(86, 31, 0);"/>
      <ellipse style="fill: url(&quot;#gradient-14&quot;); stroke-width: 2.65112px; stroke: rgb(86, 31, 0);" cx="45.989" cy="40.344" rx="4.852" ry="5.222"/>
    </g>
    <g transform="matrix(-0.589572, 0, 0, 0.627314, 295.918, 51.9357)" style="">
      <path d="M 42.002 52.94 C 37.116 52.94 33.155 48.762 33.155 43.609 C 33.155 39.334 35.881 35.731 39.598 34.626 C 38.203 36.167 37.341 38.286 37.341 40.625 C 37.341 45.334 40.833 49.151 45.141 49.151 C 47.074 49.151 48.842 48.383 50.205 47.11 C 48.892 50.528 45.714 52.94 42.002 52.94 Z" style="fill: url(&quot;#gradient-16&quot;); stroke-width: 3.28708px; stroke: rgb(86, 31, 0);"/>
      <ellipse style="fill: url(&quot;#gradient-17&quot;); stroke-width: 3.28708px; stroke: rgb(86, 31, 0);" cx="45.989" cy="40.344" rx="4.852" ry="5.222"/>
    </g>
    <g transform="matrix(0.724302, 0, 0, -0.784496, 249.628, 129.582)" style="">
      <path d="M 42.002 52.94 C 37.116 52.94 33.155 48.762 33.155 43.609 C 33.155 39.334 35.881 35.731 39.598 34.626 C 38.203 36.167 37.341 38.286 37.341 40.625 C 37.341 45.334 40.833 49.151 45.141 49.151 C 47.074 49.151 48.842 48.383 50.205 47.11 C 48.892 50.528 45.714 52.94 42.002 52.94 Z" style="fill: url(&quot;#gradient-18&quot;); stroke-width: 2.65112px; stroke: rgb(86, 31, 0);"/>
      <ellipse style="fill: url(&quot;#gradient-19&quot;); stroke-width: 2.65112px; stroke: rgb(86, 31, 0);" cx="45.989" cy="40.344" rx="4.852" ry="5.222"/>
    </g>
  </g>
  <path d="M 236.433 252.814 C 236.433 258.845 213.21 263.734 184.564 263.734 C 155.918 263.734 132.695 258.845 132.695 252.814 C 132.695 246.783 159.434 243.28 186.908 251.6 C 214.382 259.92 236.433 246.783 236.433 252.814 Z" style="fill: rgba(21, 212, 218, 0.545); transform-box: fill-box; transform-origin: 50% 50%;" transform="matrix(0.999194, -0.040137, 0.040137, 0.999194, 0, 0.000001)"/>
  <path style="fill: none; stroke-dasharray: 8; stroke: rgba(28, 249, 255, 0.255); stroke-width: 4px;" d="M 155.976 137.941 C 154.414 140.813 151.968 146.959 155.976 149.415 C 159.238 151.414 170.73 154.45 166.059 160.889 C 163.706 164.134 158.194 162.107 156.456 165.303 C 153.047 171.571 162.7 177.213 161.258 182.514 C 160.63 184.822 157.369 186.154 156.456 188.251 C 155.709 189.966 156.018 201.472 160.777 199.284 C 162.939 198.291 162.01 191.044 162.218 189.134 C 163.332 178.903 168.343 169.587 169.901 159.566 C 170.028 158.746 168.523 145.415 170.381 144.561 C 173.107 143.308 174.166 148.299 173.742 149.857 C 173.229 151.746 160.241 148.48 158.857 147.209 C 157.89 146.32 159.458 144.67 160.298 143.678 C 163.281 140.152 166.496 135.775 169.901 132.646 C 170.146 132.42 173.322 129.377 174.222 129.997 C 178.841 133.181 179.998 140.412 181.425 145.002 C 182.844 149.568 186.191 153.52 184.786 158.683 C 183.047 165.075 178.179 169.229 177.584 176.336 C 176.61 187.971 179.757 197.547 184.786 208.11 C 186.402 211.504 188.11 212.172 189.588 216.054 C 191.877 222.065 193.843 226.599 190.068 232.383 C 188.166 235.297 183.293 237.432 182.385 240.767 C 181.003 245.847 179.504 249.859 179.504 255.331 C 179.504 256.821 180.218 257.968 180.945 259.303 C 181.265 259.891 183.372 260.651 182.866 260.186 C 179.828 257.394 179.763 254.354 178.064 250.918 C 170.536 235.697 169.55 219.957 171.822 203.256 C 172.483 198.393 169.777 187.04 173.742 183.397 C 178.794 178.754 195.762 178.35 197.751 171.04 C 199.133 165.956 198.923 158.207 195.35 153.828 C 193.97 152.138 186.267 147.172 189.588 144.12 C 191.438 142.419 197.18 144.251 199.671 143.678 C 201.585 143.239 198.96 135.517 205.433 137.5 C 208.021 138.293 210.167 141.22 212.636 142.354 C 213.645 142.818 221.026 143.654 219.838 141.472 C 218.277 138.601 214.308 143.32 213.596 144.12 C 210.023 148.134 204.549 156.081 205.433 161.772 C 207.348 174.094 207.429 187.645 210.716 199.725 C 211.593 202.955 212.62 205.883 214.556 208.551 C 215.325 209.611 218.878 210.716 218.878 211.641 C 218.878 212.671 216.637 211.641 215.517 211.641 C 214.193 211.641 208.667 211.379 208.314 209.434 C 207.597 205.482 208.314 200.636 208.314 196.636 C 208.314 185.117 210.716 175.125 210.716 163.537 C 210.716 161.381 212.248 152.704 207.354 153.828 C 202.374 154.973 199.416 166.71 198.711 170.599 C 196.943 180.346 193.75 190.758 195.35 201.05 C 196.427 207.979 203.513 215.488 203.513 222.233 C 203.513 226.07 200.454 227.414 198.711 230.618 C 197.037 233.694 199.909 238.79 198.711 242.092 C 197.976 244.119 195.86 245.126 194.869 246.946 C 192.598 251.122 195.816 257.531 199.671 259.303 C 200.395 259.635 203.593 262.049 204.473 261.509 C 206.369 260.348 205.355 256.687 205.914 254.89 C 208.131 247.758 205.914 242.487 205.914 235.472 C 205.914 231.069 207.404 224.137 205.914 220.026 C 204.847 217.086 201.833 214.07 201.112 210.758 C 199.594 203.784 201.733 194.794 203.513 188.251 C 205.832 179.725 202.553 169.231 202.553 160.889"/>
  <ellipse style="fill: rgb(0, 255, 255); stroke: rgba(255, 255, 255, 0.25);" cx="161.786" cy="209.759" rx="2.416" ry="3.733"/>
  <ellipse style="fill: rgb(0, 255, 255); stroke: rgba(255, 255, 255, 0.25);" cx="145.865" cy="238.965" rx="1.428" ry="3.294"/>
  <ellipse style="fill: rgb(0, 255, 255); stroke: rgba(255, 255, 255, 0.25);" cx="222.503" cy="200.755" rx="1.647" ry="2.854"/>
</svg>