<?xml version="1.0" encoding="utf-8"?>
<svg xmlns="http://www.w3.org/2000/svg" viewBox="0 0 500 300" xmlns:bx="https://boxy-svg.com">
  <defs>
    <filter id="filter-8" bx:preset="gaussian-blur 1 5" color-interpolation-filters="sRGB" x="-50%" y="-50%" width="200%" height="200%">
      <feGaussianBlur stdDeviation="5 5" edgeMode="none"/>
    </filter>
    <linearGradient gradientUnits="userSpaceOnUse" x1="33.017" y1="87.365" x2="33.017" y2="109.039" id="gradient-3" gradientTransform="matrix(1.8801, 0.000002, -0.000001, 1.863749, -10.663506, 9.150688)">
      <stop offset="0" style="stop-color: rgb(26.667% 64.706% 38.431%)"/>
      <stop offset="1" style="stop-color: rgb(0% 39.662% 15.739%)"/>
    </linearGradient>
    <linearGradient gradientUnits="userSpaceOnUse" x1="16.555" y1="5.154" x2="16.555" y2="27.222" id="gradient-5" gradientTransform="matrix(1.18086, -1.087118, 1.00842, 1.273017, 172.215, 80.634798)">
      <stop offset="0" style="stop-color: rgb(26.667% 64.706% 38.431%)"/>
      <stop offset="1" style="stop-color: rgb(0% 39.662% 15.739%)"/>
    </linearGradient>
    <linearGradient gradientUnits="userSpaceOnUse" x1="61.751" y1="4.64" x2="61.751" y2="26.708" id="gradient-6" gradientTransform="matrix(-1.18086, -1.087118, 1.00842, -1.273017, 330.962, 168.944134)">
      <stop offset="0" style="stop-color: rgb(26.667% 64.706% 38.431%)"/>
      <stop offset="1" style="stop-color: rgb(0% 39.662% 15.739%)"/>
    </linearGradient>
    <linearGradient gradientUnits="userSpaceOnUse" x1="43.08" y1="89.367" x2="43.08" y2="109.039" id="gradient-0" gradientTransform="matrix(1.29062, -0.000001, 0, 1.68453, 12.396018, 25.511989)">
      <stop offset="0" style="stop-color: rgb(8.6275% 32.549% 16.078%)"/>
      <stop offset="1" style="stop-color: rgb(0% 21.246% 5.8187%)"/>
    </linearGradient>
    <filter id="gaussian-blur-filter-0" color-interpolation-filters="sRGB" x="-50%" y="-50%" width="200%" height="200%">
      <title>Desfoque gaussiano</title>
      <feGaussianBlur stdDeviation="0.7 0.7" edgeMode="none"/>
    </filter>
    <linearGradient gradientUnits="userSpaceOnUse" x1="135.744" y1="112.372" x2="135.744" y2="118.655" id="gradient-4" gradientTransform="matrix(1, 0, 0, 1, 0, 0)">
      <stop offset="0" style="stop-color: rgb(100% 61.176% 0%)"/>
      <stop offset="1" style="stop-color: rgb(63.733% 31.968% 0%)"/>
    </linearGradient>
    <radialGradient gradientUnits="userSpaceOnUse" cx="54.995" cy="25.183" r="26.807" id="gradient-7" gradientTransform="matrix(1, 0, 0, 1.068757, 185.941, 54.375446)">
      <stop offset="0" style="stop-color: rgb(10.588% 25.882% 89.412%)"/>
      <stop offset="1" style="stop-color: rgb(0% 24.045% 48.428%)"/>
    </radialGradient>
    <radialGradient gradientUnits="userSpaceOnUse" cx="54.79" cy="51.774" r="42.935" id="gradient-2" gradientTransform="matrix(1, 0, 0, 0.811777, 185.941, 62.522044)">
      <stop offset="0" style="stop-color: rgb(10.588% 25.882% 89.412%)"/>
      <stop offset="1" style="stop-color: rgb(0% 24.045% 48.428%)"/>
    </radialGradient>
    <radialGradient gradientUnits="userSpaceOnUse" cx="86.593" cy="150.219" r="7.676" id="gradient-26" gradientTransform="matrix(2.07283, 0, -0.000001, 2.68382, -92.899185, -252.944969)">
      <stop offset="0" style="stop-color: rgb(48.235% 48.235% 48.235%)"/>
      <stop offset="1" style="stop-color: rgb(28.577% 28.577% 28.577%)"/>
    </radialGradient>
    <radialGradient gradientUnits="userSpaceOnUse" cx="86.579" cy="144.39" r="12.997" id="gradient-27" gradientTransform="matrix(2.123749, 0, 0, 2.11897, -97.29234, -162.681)">
      <stop offset="0" style="stop-color: rgb(100% 58.431% 0%)"/>
      <stop offset="1" style="stop-color: rgb(64.317% 29.827% 0%)"/>
    </radialGradient>
    <radialGradient gradientUnits="userSpaceOnUse" cx="87.085" cy="138.9" r="14.726" id="gradient-28" gradientTransform="matrix(1.831049, 0, 0, 2.11897, -72.372163, -156.402)">
      <stop offset="0" style="stop-color: rgb(100% 58.431% 0%)"/>
      <stop offset="1" style="stop-color: rgb(64.317% 29.827% 0%)"/>
    </radialGradient>
    <linearGradient gradientUnits="userSpaceOnUse" x1="143.447" y1="91.624" x2="143.447" y2="99.572" id="gradient-29" gradientTransform="matrix(2.11897, 0, 0, 1.83105, 68.783798, -94.180702)">
      <stop offset="0" style="stop-color: rgb(0% 14.51% 73.725%)"/>
      <stop offset="1" style="stop-color: rgb(0% 18.802% 38.225%)"/>
    </linearGradient>
    <radialGradient gradientUnits="userSpaceOnUse" cx="239.233" cy="206.337" r="167.505" id="gradient-9" gradientTransform="matrix(1, 0, 0, 1, 0.638358, 1.276715)">
      <stop offset="0" style="stop-color: rgb(0% 96.863% 100%)"/>
      <stop offset="1" style="stop-color: rgb(0% 56.097% 58.58%)"/>
    </radialGradient>
    <filter id="gaussian-blur-filter-2" bx:preset="gaussian-blur 1 7.7" color-interpolation-filters="sRGB" x="-50%" y="-50%" width="200%" height="200%">
      <feGaussianBlur stdDeviation="7.7 7.7" edgeMode="none"/>
    </filter>
    <linearGradient gradientUnits="userSpaceOnUse" x1="-295.053" y1="-142.45" x2="-295.053" y2="431.02" id="gradient-8" gradientTransform="matrix(-0.999326, -0.03671, 0.031173, -0.848587, 84.200992, 380.796104)">
      <stop offset="0" style="stop-color: rgb(64, 28, 19);"/>
      <stop offset="0.507" style="stop-color: rgb(62, 27, 18);"/>
      <stop offset="1" style="stop-color: rgb(84, 38, 26);"/>
    </linearGradient>
    <linearGradient gradientUnits="userSpaceOnUse" x1="43.371" y1="201.187" x2="43.371" y2="210.953" id="gradient-57" gradientTransform="matrix(2.343336, 0.054072, -0.031272, 1.355236, 49.844217, -88.613989)">
      <stop offset="0" style="stop-color: rgb(100% 100% 100%)"/>
      <stop offset="1" style="stop-color: rgb(56.687% 56.687% 56.687%)"/>
    </linearGradient>
    <linearGradient gradientUnits="userSpaceOnUse" x1="43.371" y1="201.187" x2="43.371" y2="210.953" id="gradient-1" gradientTransform="matrix(1.65139, 0.038937, -0.022038, 0.975893, 93.415405, -12.249106)">
      <stop offset="0" style="stop-color: rgb(100% 100% 100%)"/>
      <stop offset="1" style="stop-color: rgb(56.687% 56.687% 56.687%)"/>
    </linearGradient>
    <linearGradient gradientUnits="userSpaceOnUse" x1="43.371" y1="201.187" x2="43.371" y2="210.953" id="gradient-10" gradientTransform="matrix(2.34334, 0.054072, -0.031272, 1.35524, 237.412616, -105.106)">
      <stop offset="0" style="stop-color: rgb(100% 100% 100%)"/>
      <stop offset="1" style="stop-color: rgb(56.687% 56.687% 56.687%)"/>
    </linearGradient>
    <linearGradient gradientUnits="userSpaceOnUse" x1="43.371" y1="201.187" x2="43.371" y2="210.953" id="gradient-11" gradientTransform="matrix(1.289109, 0.03255, -0.017203, 0.81581, 310.781629, 35.322303)">
      <stop offset="0" style="stop-color: rgb(100% 100% 100%)"/>
      <stop offset="1" style="stop-color: rgb(56.687% 56.687% 56.687%)"/>
    </linearGradient>
    <linearGradient gradientUnits="userSpaceOnUse" x1="43.371" y1="201.187" x2="43.371" y2="210.953" id="gradient-12" gradientTransform="matrix(1.28911, 0.03255, -0.017203, 0.81581, 66.966235, 59.517757)">
      <stop offset="0" style="stop-color: rgb(100% 100% 100%)"/>
      <stop offset="1" style="stop-color: rgb(56.687% 56.687% 56.687%)"/>
    </linearGradient>
    <linearGradient gradientUnits="userSpaceOnUse" x1="43.371" y1="201.187" x2="43.371" y2="210.953" id="gradient-13" gradientTransform="matrix(1.28911, 0.03255, -0.017203, 0.81581, 166.074515, 12.522778)">
      <stop offset="0" style="stop-color: rgb(100% 100% 100%)"/>
      <stop offset="1" style="stop-color: rgb(56.687% 56.687% 56.687%)"/>
    </linearGradient>
  </defs>
  <rect x="-25.513" y="-114.97" width="535.653" height="573.47" style="fill: url(&quot;#gradient-8&quot;);"/>
  <g transform="matrix(0.007707, 0.860034, 3.33589, -0.036559, 340.069, 191.186)" style="transform-origin: 15.427px 8.12px;">
    <ellipse style="fill: rgb(176, 71, 45); stroke: rgb(48, 24, 18);" cx="15.427" cy="8.12" rx="7.066" ry="5.101"/>
    <ellipse style="fill: rgb(221, 93, 60); stroke: rgb(48, 24, 18);" cx="14.876" cy="7.058" rx="5.623" ry="3.387"/>
    <ellipse style="fill: rgb(176, 71, 45); transform-box: fill-box; transform-origin: 50% 50%; stroke: rgb(48, 24, 18);" cx="15.275" cy="8.188" rx="5.623" ry="3.387" transform="matrix(0.981654, -0.190669, -0.321641, 1.081162, -0.195166, 0.133142)"/>
  </g>
  <g transform="matrix(0.007707, 0.860034, 3.33589, -0.036559, 397.162, 155.522)" style="transform-origin: 15.427px 8.12px;">
    <ellipse style="fill: rgb(176, 71, 45); stroke: rgb(48, 24, 18);" cx="15.427" cy="8.12" rx="7.066" ry="5.101"/>
    <ellipse style="fill: rgb(221, 93, 60); stroke: rgb(48, 24, 18);" cx="14.876" cy="7.058" rx="5.623" ry="3.387"/>
    <ellipse style="fill: rgb(176, 71, 45); transform-box: fill-box; transform-origin: 50% 50%; stroke: rgb(48, 24, 18);" cx="15.275" cy="8.188" rx="5.623" ry="3.387" transform="matrix(0.981654, -0.190669, -0.321641, 1.081162, -0.195166, 0.133142)"/>
  </g>
  <g transform="matrix(0.007707, 0.860034, 3.33589, -0.036559, 348.208, 201.902)" style="transform-origin: 15.427px 8.12px;">
    <ellipse style="fill: rgb(176, 71, 45); stroke: rgb(48, 24, 18);" cx="15.427" cy="8.12" rx="7.066" ry="5.101"/>
    <ellipse style="fill: rgb(221, 93, 60); stroke: rgb(48, 24, 18);" cx="14.876" cy="7.058" rx="5.623" ry="3.387"/>
    <ellipse style="fill: rgb(176, 71, 45); transform-box: fill-box; transform-origin: 50% 50%; stroke: rgb(48, 24, 18);" cx="15.275" cy="8.188" rx="5.623" ry="3.387" transform="matrix(0.981654, -0.190669, -0.321641, 1.081162, -0.195166, 0.133142)"/>
  </g>
  <g transform="matrix(0.007707, 0.860034, 3.33589, -0.036559, 18.532, 303.801)" style="transform-origin: 15.427px 8.12px;">
    <ellipse style="fill: rgb(176, 71, 45); stroke: rgb(48, 24, 18);" cx="15.427" cy="8.12" rx="7.066" ry="5.101"/>
    <ellipse style="fill: rgb(221, 93, 60); stroke: rgb(48, 24, 18);" cx="14.876" cy="7.058" rx="5.623" ry="3.387"/>
    <ellipse style="fill: rgb(176, 71, 45); transform-box: fill-box; transform-origin: 50% 50%; stroke: rgb(48, 24, 18);" cx="15.275" cy="8.188" rx="5.623" ry="3.387" transform="matrix(0.981654, -0.190669, -0.321641, 1.081162, -0.195166, 0.133142)"/>
  </g>
  <g transform="matrix(0.007707, 0.860034, 3.33589, -0.036559, 75.625, 268.137)" style="transform-origin: 15.427px 8.12px;">
    <ellipse style="fill: rgb(176, 71, 45); stroke: rgb(48, 24, 18);" cx="15.427" cy="8.12" rx="7.066" ry="5.101"/>
    <ellipse style="fill: rgb(221, 93, 60); stroke: rgb(48, 24, 18);" cx="14.876" cy="7.058" rx="5.623" ry="3.387"/>
    <ellipse style="fill: rgb(176, 71, 45); transform-box: fill-box; transform-origin: 50% 50%; stroke: rgb(48, 24, 18);" cx="15.275" cy="8.188" rx="5.623" ry="3.387" transform="matrix(0.981654, -0.190669, -0.321641, 1.081162, -0.195166, 0.133142)"/>
  </g>
  <g transform="matrix(0.007707, 0.860034, 3.33589, -0.036559, 26.671, 314.518)" style="transform-origin: 15.427px 8.12px;">
    <ellipse style="fill: rgb(176, 71, 45); stroke: rgb(48, 24, 18);" cx="15.427" cy="8.12" rx="7.066" ry="5.101"/>
    <ellipse style="fill: rgb(221, 93, 60); stroke: rgb(48, 24, 18);" cx="14.876" cy="7.058" rx="5.623" ry="3.387"/>
    <ellipse style="fill: rgb(176, 71, 45); transform-box: fill-box; transform-origin: 50% 50%; stroke: rgb(48, 24, 18);" cx="15.275" cy="8.188" rx="5.623" ry="3.387" transform="matrix(0.981654, -0.190669, -0.321641, 1.081162, -0.195166, 0.133142)"/>
  </g>
  <g transform="matrix(0.007707, 0.860034, 3.33589, -0.036559, 24.412, 103.913)" style="transform-origin: 15.427px 8.12px;">
    <ellipse style="fill: rgb(176, 71, 45); stroke: rgb(48, 24, 18);" cx="15.427" cy="8.12" rx="7.066" ry="5.101"/>
    <ellipse style="fill: rgb(221, 93, 60); stroke: rgb(48, 24, 18);" cx="14.876" cy="7.058" rx="5.623" ry="3.387"/>
    <ellipse style="fill: rgb(176, 71, 45); transform-box: fill-box; transform-origin: 50% 50%; stroke: rgb(48, 24, 18);" cx="15.275" cy="8.188" rx="5.623" ry="3.387" transform="matrix(0.981654, -0.190669, -0.321641, 1.081162, -0.195166, 0.133142)"/>
  </g>
  <g transform="matrix(0.007707, 0.860034, 3.33589, -0.036559, 81.506, 68.25)" style="transform-origin: 15.427px 8.12px;">
    <ellipse style="fill: rgb(176, 71, 45); stroke: rgb(48, 24, 18);" cx="15.427" cy="8.12" rx="7.066" ry="5.101"/>
    <ellipse style="fill: rgb(221, 93, 60); stroke: rgb(48, 24, 18);" cx="14.876" cy="7.058" rx="5.623" ry="3.387"/>
    <ellipse style="fill: rgb(176, 71, 45); transform-box: fill-box; transform-origin: 50% 50%; stroke: rgb(48, 24, 18);" cx="15.275" cy="8.188" rx="5.623" ry="3.387" transform="matrix(0.981654, -0.190669, -0.321641, 1.081162, -0.195166, 0.133142)"/>
  </g>
  <g transform="matrix(0.007707, 0.860034, 3.33589, -0.036559, 32.5519, 114.63)" style="transform-origin: 15.427px 8.12px;">
    <ellipse style="fill: rgb(176, 71, 45); stroke: rgb(48, 24, 18);" cx="15.427" cy="8.12" rx="7.066" ry="5.101"/>
    <ellipse style="fill: rgb(221, 93, 60); stroke: rgb(48, 24, 18);" cx="14.876" cy="7.058" rx="5.623" ry="3.387"/>
    <ellipse style="fill: rgb(176, 71, 45); transform-box: fill-box; transform-origin: 50% 50%; stroke: rgb(48, 24, 18);" cx="15.275" cy="8.188" rx="5.623" ry="3.387" transform="matrix(0.981654, -0.190669, -0.321641, 1.081162, -0.195166, 0.133142)"/>
  </g>
  <path stroke-width="0" d="M 114.787 311.259 C 108.207 311.381 94.297 312.196 90.777 312.742 C 89.417 312.953 89.357 313.001 88.697 313.395 C 87.917 313.845 87.017 314.677 86.477 315.431 C 85.987 316.127 85.707 316.974 85.537 317.713 C 85.397 318.388 85.377 318.983 85.517 319.679 C 85.667 320.476 86.097 321.531 86.587 322.229 C 87.017 322.87 87.537 323.367 88.187 323.767 C 88.877 324.193 89.567 324.46 90.607 324.665 C 92.047 324.943 95.317 324.236 96.267 324.97 C 96.977 325.531 96.387 326.888 96.817 327.751 C 97.267 328.673 98.457 329.838 98.987 330.298 C 99.317 330.565 99.627 330.401 99.757 330.71 C 99.957 331.215 99.257 332.695 99.377 333.612 C 99.487 334.512 99.957 335.466 100.447 336.165 C 100.877 336.806 101.337 337.298 102.037 337.701 C 102.887 338.179 103.587 338.448 105.277 338.682 C 108.407 339.112 118.237 339.359 121.047 339.015 C 122.387 338.853 122.687 338.651 123.397 338.217 C 124.127 337.767 124.857 337.04 125.337 336.329 C 125.817 335.643 126.127 334.784 126.277 334.046 C 126.417 333.371 126.377 332.624 126.297 332.081 C 126.257 331.645 125.817 331.267 125.977 330.989 C 126.207 330.633 127.377 330.724 128.007 330.341 C 128.707 329.916 129.467 329.164 129.957 328.452 C 130.417 327.768 130.727 326.93 130.897 326.169 C 131.037 325.447 130.217 324.444 130.897 324.009 C 132.277 323.147 140.707 325.064 143.077 324.829 C 144.327 324.705 144.707 324.463 145.407 324.031 C 146.147 323.581 146.877 322.854 147.357 322.142 C 147.827 321.458 148.147 320.597 148.287 319.86 C 148.447 319.185 148.437 318.561 148.327 317.895 C 148.207 317.182 147.967 316.382 147.537 315.718 C 147.097 315.013 146.377 314.278 145.647 313.804 C 144.957 313.35 144.687 313.168 143.347 312.9 C 140.567 312.336 132.467 311.925 127.527 311.651 C 123.007 311.402 119.897 311.166 114.787 311.259 Z" style="stroke-width: 2px; fill: rgba(0, 0, 0, 0.4); filter: url(&quot;#filter-8&quot;); transform-origin: 78.613px 181.279px;"/>
  <g transform="matrix(1.31653, 0, 0, 1.14217, -214.035, -15.7778)" style="">
    <path d="M 276.749 137.374 C 276.749 138.652 276.329 139.835 275.617 140.8 C 274.351 140.601 272.912 140.488 271.386 140.488 C 269.35 140.488 267.469 140.688 265.948 141.027 C 265.128 140.024 264.639 138.754 264.639 137.374 C 264.639 134.125 267.35 131.492 270.694 131.492 C 274.038 131.492 276.749 134.125 276.749 137.374 Z" style="fill: rgb(40, 161, 0); stroke: rgba(0, 0, 0, 0.47);"/>
    <path d="M 302.268 140.277 C 302.268 141.44 301.871 142.517 301.197 143.394 C 299.998 143.213 298.636 143.11 297.191 143.11 C 295.263 143.11 293.481 143.293 292.041 143.601 C 291.265 142.688 290.802 141.532 290.802 140.277 C 290.802 137.32 293.369 134.924 296.535 134.924 C 299.702 134.924 302.268 137.32 302.268 140.277 Z" style="fill: rgb(40, 161, 0); stroke: rgba(0, 0, 0, 0.47);"/>
    <ellipse style="fill: rgb(216, 216, 216); stroke: rgba(255, 255, 255, 0.255); transform-origin: 278.885px 138.091px;" cx="278.885" cy="138.091" rx="0.882" ry="2.776" transform="matrix(0.915533, 0.402243, -0.402243, 0.915533, 15.693706, 0.640932)"/>
    <path d="M 293.69 139.399 C 293.69 141.77 292.921 143.964 291.616 145.753 C 289.296 145.384 286.66 145.174 283.864 145.174 C 280.133 145.174 276.686 145.546 273.899 146.174 C 272.397 144.314 271.501 141.958 271.501 139.399 C 271.501 133.374 276.468 128.49 282.596 128.49 C 288.723 128.49 293.69 133.374 293.69 139.399 Z" style="fill: rgb(40, 161, 0); stroke: rgba(0, 0, 0, 0.47);"/>
    <ellipse style="fill: rgb(216, 216, 216); stroke: rgb(255, 255, 255); transform-box: fill-box; transform-origin: 50% 50%;" cx="278.885" cy="138.091" rx="2.528" ry="5.632" transform="matrix(0.915533, 0.402243, -0.402243, 0.915533, -1.867145, -1.918927)"/>
    <ellipse style="fill: rgb(216, 216, 216); stroke: rgba(255, 255, 255, 0.255); transform-origin: 278.885px 138.091px;" cx="278.885" cy="138.091" rx="0.882" ry="2.776" transform="matrix(0.915533, 0.402243, -0.402243, 0.915533, -11.133824, -2.533324)"/>
  </g>
  <g transform="matrix(1.31653, 0, 0, 1.14217, 47.233, -80.2739)" style="">
    <path d="M 276.749 137.374 C 276.749 138.652 276.329 139.835 275.617 140.8 C 274.351 140.601 272.912 140.488 271.386 140.488 C 269.35 140.488 267.469 140.688 265.948 141.027 C 265.128 140.024 264.639 138.754 264.639 137.374 C 264.639 134.125 267.35 131.492 270.694 131.492 C 274.038 131.492 276.749 134.125 276.749 137.374 Z" style="fill: rgb(40, 161, 0); stroke: rgba(0, 0, 0, 0.47);"/>
    <path d="M 302.268 140.277 C 302.268 141.44 301.871 142.517 301.197 143.394 C 299.998 143.213 298.636 143.11 297.191 143.11 C 295.263 143.11 293.481 143.293 292.041 143.601 C 291.265 142.688 290.802 141.532 290.802 140.277 C 290.802 137.32 293.369 134.924 296.535 134.924 C 299.702 134.924 302.268 137.32 302.268 140.277 Z" style="fill: rgb(40, 161, 0); stroke: rgba(0, 0, 0, 0.47);"/>
    <ellipse style="fill: rgb(216, 216, 216); stroke: rgba(255, 255, 255, 0.255); transform-origin: 278.885px 138.091px;" cx="278.885" cy="138.091" rx="0.882" ry="2.776" transform="matrix(0.915533, 0.402243, -0.402243, 0.915533, 15.693706, 0.640932)"/>
    <path d="M 293.69 139.399 C 293.69 141.77 292.921 143.964 291.616 145.753 C 289.296 145.384 286.66 145.174 283.864 145.174 C 280.133 145.174 276.686 145.546 273.899 146.174 C 272.397 144.314 271.501 141.958 271.501 139.399 C 271.501 133.374 276.468 128.49 282.596 128.49 C 288.723 128.49 293.69 133.374 293.69 139.399 Z" style="fill: rgb(40, 161, 0); stroke: rgba(0, 0, 0, 0.47);"/>
    <ellipse style="fill: rgb(216, 216, 216); stroke: rgb(255, 255, 255); transform-box: fill-box; transform-origin: 50% 50%;" cx="278.885" cy="138.091" rx="2.528" ry="5.632" transform="matrix(0.915533, 0.402243, -0.402243, 0.915533, -1.867145, -1.918927)"/>
    <ellipse style="fill: rgb(216, 216, 216); stroke: rgba(255, 255, 255, 0.255); transform-origin: 278.885px 138.091px;" cx="278.885" cy="138.091" rx="0.882" ry="2.776" transform="matrix(0.915533, 0.402243, -0.402243, 0.915533, -11.133824, -2.533324)"/>
  </g>
  <g transform="matrix(1.31653, 0, 0, 1.14217, -252.336, 157.708)" style="">
    <path d="M 276.749 137.374 C 276.749 138.652 276.329 139.835 275.617 140.8 C 274.351 140.601 272.912 140.488 271.386 140.488 C 269.35 140.488 267.469 140.688 265.948 141.027 C 265.128 140.024 264.639 138.754 264.639 137.374 C 264.639 134.125 267.35 131.492 270.694 131.492 C 274.038 131.492 276.749 134.125 276.749 137.374 Z" style="fill: rgb(40, 161, 0); stroke: rgba(0, 0, 0, 0.47);"/>
    <path d="M 302.268 140.277 C 302.268 141.44 301.871 142.517 301.197 143.394 C 299.998 143.213 298.636 143.11 297.191 143.11 C 295.263 143.11 293.481 143.293 292.041 143.601 C 291.265 142.688 290.802 141.532 290.802 140.277 C 290.802 137.32 293.369 134.924 296.535 134.924 C 299.702 134.924 302.268 137.32 302.268 140.277 Z" style="fill: rgb(40, 161, 0); stroke: rgba(0, 0, 0, 0.47);"/>
    <ellipse style="fill: rgb(216, 216, 216); stroke: rgba(255, 255, 255, 0.255); transform-origin: 278.885px 138.091px;" cx="278.885" cy="138.091" rx="0.882" ry="2.776" transform="matrix(0.915533, 0.402243, -0.402243, 0.915533, 15.693706, 0.640932)"/>
    <path d="M 293.69 139.399 C 293.69 141.77 292.921 143.964 291.616 145.753 C 289.296 145.384 286.66 145.174 283.864 145.174 C 280.133 145.174 276.686 145.546 273.899 146.174 C 272.397 144.314 271.501 141.958 271.501 139.399 C 271.501 133.374 276.468 128.49 282.596 128.49 C 288.723 128.49 293.69 133.374 293.69 139.399 Z" style="fill: rgb(40, 161, 0); stroke: rgba(0, 0, 0, 0.47);"/>
    <ellipse style="fill: rgb(216, 216, 216); stroke: rgb(255, 255, 255); transform-box: fill-box; transform-origin: 50% 50%;" cx="278.885" cy="138.091" rx="2.528" ry="5.632" transform="matrix(0.915533, 0.402243, -0.402243, 0.915533, -1.867145, -1.918927)"/>
    <ellipse style="fill: rgb(216, 216, 216); stroke: rgba(255, 255, 255, 0.255); transform-origin: 278.885px 138.091px;" cx="278.885" cy="138.091" rx="0.882" ry="2.776" transform="matrix(0.915533, 0.402243, -0.402243, 0.915533, -11.133824, -2.533324)"/>
  </g>
  <ellipse style="stroke-width: 10px; stroke: rgb(39, 13, 6); fill: url(&quot;#gradient-9&quot;);" cx="239.871" cy="207.614" rx="167.505" ry="77.523"/>
  <path d="M 271.782 140.917 L 271.75 140.894 L 278.973 129.506 L 282.516 132.077 C 284.48 134.815 285.206 138.343 284.505 141.65 L 280.813 147.469 L 280.784 147.448 L 268.896 166.19 L 269.025 166.283 L 261.371 178.348 L 260.925 165.324 L 259.176 164.056 C 257.209 166.748 255.346 168.385 254.663 167.897 C 253.817 167.293 255.094 163.668 257.514 159.799 C 259.934 155.93 262.581 153.283 263.426 153.887 C 263.456 153.909 263.483 153.933 263.508 153.963 L 271.782 140.917 Z" style="stroke-width: 2px; stroke: rgb(10, 44, 20); fill: rgb(38, 123, 67); transform-origin: 269.366px 147.224px;"/>
  <path d="M 283.031 66.024 L 260.777 94.117 L 264.666 97.698 L 276.033 83.347 C 280.732 76.521 283.876 70.65 284.552 67.425 L 283.031 66.024 Z" style="stroke: rgb(0, 0, 0); stroke-linejoin: round; stroke-linecap: round; fill: url(&quot;#gradient-6&quot;); transform-origin: 245.727px 67.36px;"/>
  <path d="M 284.819 84.879 L 277.992 79.766 L 275.673 83.366 L 279.159 85.977 C 280.971 86.771 282.723 86.886 283.911 86.287 L 284.819 84.879 Z" style="stroke: rgb(0, 0, 0); stroke-linejoin: round; stroke-linecap: round; stroke-width: 0.641198px; fill: rgb(49, 102, 50); transform-origin: 197.393px 78.395px;"/>
  <path d="M 291.817 71.283 L 283.834 68.801 L 282.698 73.011 L 286.775 74.279 C 288.728 74.405 290.423 73.909 291.372 72.931 L 291.817 71.283 Z" style="stroke: rgb(0, 0, 0); stroke-linejoin: round; stroke-linecap: round; stroke-width: 0.641194px; fill: rgb(49, 102, 50); transform-origin: 287.564px 70.928px;"/>
  <path d="M 288.874 78.027 L 281.519 73.853 L 279.625 77.73 L 283.382 79.862 C 285.27 80.412 287.022 80.296 288.133 79.544 L 288.874 78.027 Z" style="stroke: rgb(0, 0, 0); stroke-linejoin: round; stroke-linecap: round; stroke-width: 0.641197px; fill: rgb(49, 102, 50); transform-origin: 195.295px 74.472px;"/>
  <path d="M 272.115 66.252 L 278.135 72.43 L 275.332 75.604 L 272.257 72.448 C 271.17 70.695 270.712 68.868 271.018 67.492 L 272.115 66.252 Z" style="stroke: rgb(0, 0, 0); stroke-linejoin: round; stroke-linecap: round; stroke-width: 0.641199px; fill: rgb(49, 102, 50); transform-origin: 202.073px 70.422px;"/>
  <path d="M 276.625 60.92 L 281.799 67.933 L 278.617 70.661 L 275.974 67.079 C 275.122 65.181 274.902 63.303 275.381 61.986 L 276.625 60.92 Z" style="stroke: rgb(0, 0, 0); stroke-linejoin: round; stroke-linecap: round; stroke-width: 0.641199px; fill: rgb(49, 102, 50); transform-origin: 199.563px 67.142px;"/>
  <path d="M 268.001 71.439 L 274.35 77.229 L 271.725 80.574 L 268.483 77.616 C 267.302 75.934 266.744 74.139 266.974 72.746 L 268.001 71.439 Z" style="stroke: rgb(0, 0, 0); stroke-linejoin: round; stroke-linecap: round; fill: rgb(49, 102, 50); transform-origin: 270.131px 74.933px;"/>
  <path d="M 198.906 67.41 L 221.16 95.502 L 217.271 99.083 L 205.904 84.733 C 201.205 77.906 198.061 72.036 197.385 68.81 L 198.906 67.41 Z" style="stroke: rgb(0, 0, 0); stroke-linejoin: round; stroke-linecap: round; fill: url(&quot;#gradient-5&quot;); transform-origin: 204.955px 68.434px;"/>
  <g transform="matrix(1.39803, -0.126984, 0.132642, 1.66802, 188.821, 57.3175)" style="transform-origin: 11.862px 17.639px;">
    <path d="M 13.052 20.964 L 13.052 26.317 L 10.434 26.317 L 10.434 23.583 C 10.71 22.354 11.297 21.388 12.028 20.964 L 13.052 20.964 Z" style="stroke-linejoin: round; stroke-linecap: round; transform-box: fill-box; transform-origin: 50% 50%; stroke-width: 0.641198px; stroke: rgb(0, 0, 0); fill: rgb(49, 102, 50);" transform="matrix(-0.570538, -0.821271, 0.821271, -0.570538, -0.000001, -0.000002)"/>
    <path d="M 8.896 12.98 L 8.896 18.333 L 6.278 18.333 L 6.278 15.599 C 6.554 14.37 7.141 13.404 7.872 12.98 L 8.896 12.98 Z" style="stroke-linejoin: round; stroke-linecap: round; transform-origin: 7.587px 15.657px; stroke-width: 0.641194px; stroke: rgb(0, 0, 0); fill: rgb(49, 102, 50);" transform="matrix(-0.142092, -0.989853, 0.989853, -0.142092, -0.000002, 0)"/>
    <path d="M 10.662 17.127 L 10.662 22.48 L 8.044 22.48 L 8.044 19.746 C 8.32 18.517 8.907 17.551 9.638 17.127 L 10.662 17.127 Z" style="stroke-linejoin: round; stroke-linecap: round; transform-origin: 9.353px 19.804px; stroke-width: 0.641197px; stroke: rgb(0, 0, 0); fill: rgb(49, 102, 50);" transform="matrix(-0.465849, -0.884864, 0.884864, -0.465849, 0.000001, 0)"/>
    <path d="M 17.44 17.691 L 17.44 12.338 L 14.822 12.338 L 14.822 15.072 C 15.098 16.301 15.685 17.267 16.416 17.691 L 17.44 17.691 Z" style="stroke-linejoin: round; stroke-linecap: round; transform-origin: 16.131px 15.014px; stroke-width: 0.641199px; stroke: rgb(0, 0, 0); fill: rgb(49, 102, 50);" transform="matrix(-0.689551, -0.724237, 0.724237, -0.689551, 0.000001, 0)"/>
    <path d="M 14.93 14.622 L 14.93 9.269 L 12.312 9.269 L 12.312 12.003 C 12.588 13.232 13.175 14.198 13.906 14.622 L 14.93 14.622 Z" style="stroke-linejoin: round; stroke-linecap: round; transform-origin: 13.621px 11.945px; stroke-width: 0.641199px; stroke: rgb(0, 0, 0); fill: rgb(49, 102, 50);" transform="matrix(-0.782727, -0.622365, 0.622365, -0.782727, -0.000002, -0.000002)"/>
  </g>
  <path d="M 211.713 70.302 L 205.928 76.731 L 208.847 79.784 L 211.802 76.5 C 212.823 74.702 213.212 72.858 212.855 71.495 L 211.713 70.302 Z" style="stroke: rgb(0, 0, 0); stroke-linejoin: round; stroke-linecap: round; fill: rgb(49, 102, 50); transform-origin: 209.553px 73.808px;"/>
  <rect x="60.845" y="176.052" width="14.301" height="33.138" style="fill: url(&quot;#gradient-0&quot;); stroke-width: 2px; stroke: rgb(12, 46, 22); transform-box: fill-box; transform-origin: 50% 50%;" transform="matrix(0.999982, 0.006006, -0.005258, 0.999986, 181.318977, 13.731984)"/>
  <ellipse style="fill: none; stroke: rgba(255, 255, 255, 0.35); stroke-width: 7px;" cx="237.866" cy="226.498" rx="54.797" ry="8.045"/>
  <ellipse style="fill: none; stroke: rgba(255, 255, 255, 0.35); stroke-width: 7px;" cx="238.473" cy="228.713" rx="79.994" ry="19.885"/>
  <rect x="40.996" y="171.978" width="20.833" height="40.395" style="fill: url(&quot;#gradient-3&quot;); stroke-width: 2px; stroke: rgb(10, 44, 20); transform-box: fill-box; transform-origin: 50% 50%;" transform="matrix(0.999937, -0.011203, 0.009808, 0.999953, 182.032618, 15.413599)"/>
  <path d="M 225.059 185.45 C 225.059 189.528 218.322 187.32 218.348 187.32 C 218.373 187.32 211.974 189.528 211.972 185.45 C 211.971 181.372 214.902 178.065 218.515 178.065 C 222.129 178.065 225.059 181.372 225.059 185.45 Z" style="stroke: rgb(26, 228, 234); fill: url(&quot;#gradient-13&quot;);"/>
  <path d="M 209.056 142.672 L 209.088 142.649 L 201.865 131.262 L 198.322 133.832 C 196.358 136.57 195.632 140.098 196.333 143.405 L 200.025 149.224 L 200.054 149.203 L 211.942 167.945 L 211.813 168.038 L 219.467 180.104 L 219.913 167.079 L 221.662 165.812 C 223.629 168.503 225.492 170.14 226.175 169.652 C 227.021 169.048 225.744 165.423 223.324 161.554 C 220.904 157.685 218.257 155.038 217.412 155.643 C 217.382 155.664 217.355 155.688 217.33 155.719 L 209.056 142.672 Z" style="stroke-width: 2px; stroke: rgb(10, 44, 20); fill: rgb(38, 123, 67); transform-origin: 211.472px 148.867px;"/>
  <ellipse style="fill: none; stroke-width: 7px; stroke: rgba(255, 255, 255, 0.24);" cx="239.838" cy="232.356" rx="102.611" ry="32.028"/>
  <path d="M 221.597 151.655 L 257.332 151.655 L 257.332 216.728 L 245.314 216.728 L 240.05 201.76 L 233.615 216.728 L 221.597 216.728 L 221.597 151.655 Z" style="fill: rgb(27, 66, 228); stroke-width: 1.5px; stroke: rgb(14, 29, 91);"/>
  <ellipse style="fill: rgb(21, 41, 124); transform-origin: 31.431px 66.891px;" cx="31.431" cy="66.892" rx="5.902" ry="8.818" transform="matrix(0.831271, 0.555867, -0.499852, 0.868728, 218.086795, 103.506136)"/>
  <ellipse style="fill: rgb(21, 41, 124);" cx="239.53" cy="164.337" rx="17.022" ry="10.518"/>
  <ellipse style="fill: rgb(21, 41, 124); transform-box: fill-box; transform-origin: 50% 50%;" cx="31.431" cy="66.892" rx="5.826" ry="8.933" transform="matrix(0.93391, -0.357508, 0.313206, 0.950869, 197.928701, 104.766696)"/>
  <path d="M 270.993 129.568 C 270.993 143.503 263.858 155.545 253.512 161.223 C 253.647 161.542 253.762 161.879 253.856 162.229 L 253.856 166.285 L 253.511 166.285 L 253.845 166.419 L 252.432 170.204 C 251.337 171.723 249.866 172.675 248.43 172.78 L 246.729 172.105 L 249.198 165.5 L 249.198 163.151 C 246.318 164.159 243.261 164.702 240.091 164.702 C 236.664 164.702 233.368 164.067 230.287 162.897 L 230.287 165.867 L 232.756 172.472 L 231.055 173.147 C 229.62 173.041 228.148 172.09 227.054 170.57 L 225.64 166.786 L 225.974 166.651 L 225.629 166.651 L 225.629 162.595 C 225.785 162.018 225.998 161.477 226.255 160.992 C 216.135 155.22 209.19 143.317 209.19 129.568 C 209.19 110.164 223.025 94.435 240.091 94.435 C 257.159 94.435 270.993 110.164 270.993 129.568 Z" style="stroke-width: 2px; fill: rgb(38, 123, 67); stroke: rgb(10, 44, 20);"/>
  <ellipse style="fill: rgb(0, 255, 248); filter: url(&quot;#gaussian-blur-filter-0&quot;); transform-box: fill-box; transform-origin: 50% 50%;" cx="25.843" cy="33.348" rx="2.05" ry="4.95" transform="matrix(0.688978, -0.724783, 0.67894, 0.737202, 186.711549, 55.372944)"/>
  <ellipse style="fill: rgb(0, 255, 248); filter: url(&quot;#gaussian-blur-filter-0&quot;); transform-origin: 25.843px 33.348px;" cx="25.843" cy="33.348" rx="2.05" ry="4.95" transform="matrix(-0.688978, -0.724783, -0.67894, 0.737202, 243.762502, 53.489567)"/>
  <path d="M 214.186 69.549 C 217.055 64.192 223.139 59.981 230.75 58.132 L 240.505 58.132 L 240.505 58.113 L 251.134 58.113 C 258.742 59.963 264.827 64.174 267.698 69.531 L 267.698 72.624 L 267.743 72.624 L 267.743 104.467 L 214.13 104.467 L 214.13 72.624 L 214.186 72.624 L 214.186 69.549 Z" style="stroke: rgb(0, 0, 0); stroke-linejoin: round; stroke-linecap: round; fill: url(&quot;#gradient-7&quot;);"/>
  <ellipse style="fill: rgb(56, 154, 89);" cx="246.159" cy="128.276" rx="24.277" ry="29.86"/>
  <ellipse style="" cx="253.37" cy="124.479" rx="10.646" ry="13.409"/>
  <ellipse style="" cx="227.076" cy="125.648" rx="10.646" ry="13.409"/>
  <path d="M 197.799 102.304 C 199.064 100.503 201.948 99.065 205.616 98.385 L 213.78 98.385 L 213.78 98.49 L 273.744 98.49 L 273.744 98.502 L 275.849 98.502 C 279.517 99.18 282.401 100.619 283.666 102.42 L 283.666 106.682 C 282.401 108.483 279.517 109.922 275.849 110.601 L 273.744 110.601 L 273.744 110.681 L 213.779 110.681 L 213.779 110.716 L 205.616 110.715 C 201.946 110.037 199.063 108.597 197.797 106.796 L 197.799 104.28 L 197.799 102.304 Z" style="stroke: rgb(0, 0, 0); stroke-linejoin: round; stroke-linecap: round; fill: url(&quot;#gradient-2&quot;);"/>
  <ellipse style="fill: rgb(44, 83, 244);" cx="229.545" cy="102.156" rx="13.058" ry="7.029"/>
  <ellipse style="fill: rgb(44, 83, 244);" cx="254.387" cy="102.173" rx="14.932" ry="6.801"/>
  <path d="M 265.858 72.485 L 265.858 75.393 L 265.889 75.393 L 265.889 105.324 L 257.538 105.324 L 257.538 63.105 C 261.319 65.173 264.287 68.49 265.858 72.485 Z" style="stroke-linejoin: round; stroke-linecap: round; fill: rgb(44, 83, 244);"/>
  <path d="M 214.131 96.119 L 224.955 96.27 L 224.955 96.334 L 256.617 96.334 L 256.617 96.262 L 267.441 96.11 L 267.464 97.903 C 266.621 99.201 264.681 100.254 262.204 100.774 L 256.675 100.851 L 256.672 100.657 L 224.899 100.657 L 224.899 100.663 L 224.605 100.657 L 221.733 100.657 L 221.733 100.618 L 219.371 100.584 C 216.892 100.086 214.953 99.077 214.11 97.835 L 214.131 96.119 Z" style="stroke: rgb(0, 0, 0); stroke-linejoin: round; stroke-linecap: round; fill: rgb(255, 156, 0);"/>
  <path style="stroke-miterlimit: 4.63; stroke-width: 7.48475px; fill: rgb(21, 41, 124);" transform="matrix(0.100277, 0, 0, 0.126254, 193.505, 49.65)" d="M 464.356 181 L 485.644 181 L 490.136 213.513 A 56.55 56.55 0 0 1 502.825 218.769 L 528.992 198.955 L 544.045 214.008 L 524.231 240.175 A 56.55 56.55 0 0 1 529.487 252.864 L 562 257.356 L 562 278.644 L 529.487 283.136 A 56.55 56.55 0 0 1 524.231 295.825 L 544.045 321.992 L 528.992 337.045 L 502.825 317.231 A 56.55 56.55 0 0 1 490.136 322.487 L 485.644 355 L 464.356 355 L 459.864 322.487 A 56.55 56.55 0 0 1 447.175 317.231 L 421.008 337.045 L 405.955 321.992 L 425.769 295.825 A 56.55 56.55 0 0 1 420.513 283.136 L 388 278.644 L 388 257.356 L 420.513 252.864 A 56.55 56.55 0 0 1 425.769 240.175 L 405.955 214.008 L 421.008 198.955 L 447.175 218.769 A 56.55 56.55 0 0 1 459.864 213.513 Z M 475 241.9 A 26.1 26.1 0 0 0 475 294.1 A 26.1 26.1 0 0 0 475 241.9" bx:shape="cog 475 268 26.1 56.55 87 0.38 8 1@36eb139e"/>
  <ellipse style="stroke: rgb(0, 0, 0); fill: rgb(255, 156, 0);" cx="229.523" cy="99.793" rx="11.069" ry="8.702"/>
  <ellipse style="stroke: rgb(0, 0, 0); fill: rgb(149, 149, 149);" cx="229.374" cy="99.815" rx="7.479" ry="6.192"/>
  <path style="stroke: rgb(0, 0, 0); stroke-miterlimit: 4.63; stroke-width: 7.48475px; fill: rgb(255, 156, 0);" transform="matrix(0.100277, 0, 0, 0.089783, 193.505, 57.3179)" d="M 464.356 181 L 485.644 181 L 490.136 213.513 A 56.55 56.55 0 0 1 502.825 218.769 L 528.992 198.955 L 544.045 214.008 L 524.231 240.175 A 56.55 56.55 0 0 1 529.487 252.864 L 562 257.356 L 562 278.644 L 529.487 283.136 A 56.55 56.55 0 0 1 524.231 295.825 L 544.045 321.992 L 528.992 337.045 L 502.825 317.231 A 56.55 56.55 0 0 1 490.136 322.487 L 485.644 355 L 464.356 355 L 459.864 322.487 A 56.55 56.55 0 0 1 447.175 317.231 L 421.008 337.045 L 405.955 321.992 L 425.769 295.825 A 56.55 56.55 0 0 1 420.513 283.136 L 388 278.644 L 388 257.356 L 420.513 252.864 A 56.55 56.55 0 0 1 425.769 240.175 L 405.955 214.008 L 421.008 198.955 L 447.175 218.769 A 56.55 56.55 0 0 1 459.864 213.513 Z M 475 241.9 A 26.1 26.1 0 0 0 475 294.1 A 26.1 26.1 0 0 0 475 241.9" bx:shape="cog 475 268 26.1 56.55 87 0.38 8 1@36eb139e"/>
  <ellipse style="stroke: rgb(0, 0, 0); fill: rgb(255, 156, 0);" cx="251.572" cy="99.793" rx="11.069" ry="8.702"/>
  <ellipse style="fill: rgb(96, 96, 96);" cx="231.351" cy="99.704" rx="4.78" ry="4.772"/>
  <ellipse style="stroke: rgb(0, 0, 0); fill: rgb(149, 149, 149);" cx="251.634" cy="99.575" rx="7.479" ry="6.192"/>
  <ellipse style="fill: rgb(96, 96, 96);" cx="253.611" cy="99.464" rx="4.78" ry="4.772"/>
  <g style="" transform="matrix(1, 0, 0, 0.737911, 69.9903, 37.46)">
    <g transform="matrix(1.07387, 0, 0, 1, 23.361, 96.9371)" style="">
      <rect x="120.063" y="115.789" width="32.233" height="5.42" style="fill: rgb(21, 41, 124);"/>
      <rect x="119.039" y="112.372" width="33.409" height="6.283" style="stroke: rgb(58, 36, 3); fill: url(&quot;#gradient-4&quot;);"/>
      <path d="M 136.073 -124.686 L 143.857 -118.422 L 140.884 -108.285 L 131.262 -108.285 L 128.289 -118.422 Z" bx:shape="n-gon 136.073 -115.62 8.185 9.066 5 0 1@573883b9" style="fill: rgb(119, 77, 10); stroke: rgb(58, 36, 3);" transform="matrix(1, 0, 0, -1, 0, 0)"/>
      <path d="M 136.203 -121.178 L 141.126 -116.64 L 139.245 -109.296 L 133.161 -109.296 L 131.28 -116.64 Z" bx:shape="n-gon 136.203 -114.61 5.176 6.568 5 0 1@e1480012" style="fill: rgb(0, 234, 255); stroke: rgb(10, 69, 67);" transform="matrix(1, 0, 0, -1, 0, 0)"/>
      <ellipse style="fill: rgb(255, 255, 255);" cx="134.957" cy="114.124" rx="1.287" ry="3.513"/>
    </g>
  </g>
  <ellipse style="filter: url(&quot;#gaussian-blur-filter-2&quot;); fill: rgba(255, 255, 255, 0.463);" cx="245.192" cy="56.012" rx="84.242" ry="52.135"/>
  <g style="" transform="matrix(1.06474, 0, 0, 0.970232, -189.675, -14.5517)">
    <path d="M 359.235 64.029 L 369.226 49.476 L 386.559 54.103 L 386.581 61.834 L 374.608 61.858 L 370.303 56.235 C 365.986 61.872 359.235 64.029 359.235 64.029 Z" style="stroke: rgb(0, 0, 0); fill: rgb(0, 37, 188); stroke-width: 2.13146px;"/>
    <path d="M 359.07 73.587 L 369.061 88.141 L 386.394 83.514 L 386.415 75.783 L 374.443 75.759 L 370.137 81.382 C 365.821 75.744 359.07 73.587 359.07 73.587 Z" style="stroke: rgb(0, 0, 0); stroke-width: 2.13146px; fill: url(&quot;#gradient-29&quot;);"/>
    <rect x="222.18" y="254.706" width="30.729" height="12.004" style="stroke: rgb(0, 0, 0); fill: rgb(13, 21, 55); stroke-width: 2.13146px;" transform="matrix(-0.001848, -0.999998, 0.999996, -0.003081, 128.559, 307.233)"/>
    <rect x="219.657" y="263.256" width="35.944" height="54.771" style="stroke: rgb(0, 0, 0); fill: rgb(0, 50, 255); stroke-width: 2.13146px;" transform="matrix(-0.001848, -0.999998, 0.999996, -0.003081, 127.425, 307.722)"/>
    <path d="M 87.085 120.406 L 114.049 133.788 L 103.75 155.441 L 70.42 155.441 L 60.121 133.788 Z" bx:shape="n-gon 87.085 139.773 28.352 19.367 5 0 1@a98c23e7" style="stroke-width: 2.13146px; fill: url(&quot;#gradient-28&quot;); stroke: rgb(74, 31, 0);" transform="matrix(-0.00184811054, -0.999998292242, 0.999996014462, -0.003080600045, 281.609998025702, 156.384025456144)"/>
    <path d="M 86.579 123.305 L 114.181 138.562 L 103.638 163.248 L 69.52 163.248 L 58.977 138.562 Z" bx:shape="n-gon 86.579 145.385 29.022 22.08 5 0 1@e3331358" style="stroke-width: 2.13146px; fill: url(&quot;#gradient-27&quot;); stroke: rgb(74, 31, 0);" transform="matrix(-0.00184811054, -0.999998292242, 0.999996014443, -0.003080610044, 285.158997946961, 155.657025308511)"/>
    <path d="M 86.427 131.789 L 112.92 144.233 L 102.8 164.368 L 70.054 164.368 L 59.934 144.233 Z" bx:shape="n-gon 86.427 149.798 27.856 18.009 5 0 1@b7e63239" style="fill: rgb(255, 149, 0); stroke-width: 2.13146px; stroke: rgb(74, 31, 0);" transform="matrix(-0.00184811054, -0.999998292242, 0.999996014462, -0.003080600045, 287.348997880374, 155.883025264295)"/>
    <ellipse style="fill: rgb(0, 255, 255); stroke-width: 2.13146px; stroke: url(&quot;#gradient-26&quot;);" cx="86.593" cy="150.219" rx="15.912" ry="14.097" transform="matrix(-0.001848, -0.999998, 0.999996, -0.003081, 290.863998, 156.270025)"/>
    <ellipse style="fill: rgba(255, 255, 255, 0.337); stroke-width: 2.13146px;" cx="86.593" cy="150.219" rx="11.486" ry="9.425" transform="matrix(-0.001848, -0.999998, 0.999996, -0.003081, 294.652998, 156.063025)"/>
    <ellipse style="fill: rgba(255, 255, 255, 0.74); stroke-width: 2.13146px;" cx="86.593" cy="150.219" rx="6.645" ry="5.685" transform="matrix(-0.001848, -0.999998, 0.999996, -0.003081, 297.591998, 153.431025)"/>
  </g>
  <path d="M 220.91 215.178 C 231.646 220.995 259.255 215.942 257.846 215.178 L 257.846 229.898 L 220.91 229.898 L 220.91 215.178 Z" style="fill: rgba(0, 202, 209, 0.784);"/>
  <path d="M 168.976 194.61 C 168.976 199.489 160.347 196.847 160.379 196.847 C 160.411 196.847 152.214 199.489 152.212 194.61 C 152.21 189.731 155.965 185.776 160.594 185.776 C 165.223 185.776 168.976 189.731 168.976 194.61 Z" style="stroke: rgb(26, 228, 234); fill: url(&quot;#gradient-1&quot;);"/>
  <path d="M 157.066 198.655 C 157.066 205.43 144.821 201.761 144.867 201.761 C 144.913 201.761 133.281 205.43 133.278 198.655 C 133.275 191.88 138.603 186.387 145.172 186.387 C 151.741 186.387 157.066 191.88 157.066 198.655 Z" style="stroke: rgb(26, 228, 234); fill: url(&quot;#gradient-57&quot;);"/>
  <path d="M 369.767 208.249 C 369.767 212.327 363.03 210.119 363.056 210.119 C 363.081 210.119 356.682 212.327 356.68 208.249 C 356.679 204.171 359.61 200.864 363.223 200.864 C 366.837 200.864 369.767 204.171 369.767 208.249 Z" style="stroke: rgb(26, 228, 234); fill: url(&quot;#gradient-11&quot;);"/>
  <path d="M 344.635 182.163 C 344.635 188.938 332.39 185.269 332.436 185.269 C 332.482 185.269 320.85 188.938 320.847 182.163 C 320.844 175.388 326.172 169.895 332.741 169.895 C 339.31 169.895 344.635 175.388 344.635 182.163 Z" style="stroke: rgb(26, 228, 234); fill: url(&quot;#gradient-10&quot;);"/>
  <path d="M 125.951 232.445 C 125.951 236.523 119.214 234.315 119.24 234.315 C 119.265 234.315 112.866 236.523 112.864 232.445 C 112.863 228.367 115.794 225.06 119.407 225.06 C 123.021 225.06 125.951 228.367 125.951 232.445 Z" style="stroke: rgb(26, 228, 234); fill: url(&quot;#gradient-12&quot;);"/>
</svg>