<?xml version="1.0" encoding="utf-8"?>
<svg xmlns="http://www.w3.org/2000/svg" viewBox="0 0 500 300" xmlns:bx="https://boxy-svg.com">
  <defs>
    <linearGradient gradientUnits="userSpaceOnUse" x1="252.888" y1="-3.894" x2="252.888" y2="307.438" id="gradient-0">
      <stop offset="0" style="stop-color: rgb(69.804% 47.059% 11.765%)"/>
      <stop offset="1" style="stop-color: rgb(45.134% 25.918% 0%)"/>
    </linearGradient>
  </defs>
  <rect x="-1.838" y="-3.894" width="509.452" height="311.332" style="fill: url(&quot;#gradient-0&quot;);"/>
  <path d="M 221.7 96.024 L 258.26 96.281 L 268.955 183.921 L 216.975 183.921 L 221.7 96.024 Z" style="stroke: rgb(30, 7, 0); fill: rgb(30, 7, 0);"/>
  <g transform="matrix(1.02585, 0, 0, 1.06009, 190.131, 15.5924)">
    <path d="M 12.964 12.196 L 35.218 38.481 L 31.329 41.831 L 19.962 28.404 C 15.263 22.017 12.119 16.524 11.443 13.506 L 12.964 12.196 Z" style="stroke-linejoin: round; stroke-linecap: round; transform-origin: 19.013px 13.154px; fill: rgb(85, 31, 10); stroke: rgb(30, 7, 0);"/>
    <g transform="matrix(1.398026, -0.118815, 0.132642, 1.560712, 2.879618, 1.618607)" style="transform-origin: 11.8618px 17.6388px;">
      <path d="M 13.052 20.964 L 13.052 26.317 L 10.434 26.317 L 10.434 23.583 C 10.71 22.354 11.297 21.388 12.028 20.964 L 13.052 20.964 Z" style="stroke-linejoin: round; stroke-linecap: round; transform-box: fill-box; transform-origin: 50% 50%; stroke-width: 0.641198px; fill: rgb(85, 31, 10); stroke: rgb(30, 7, 0);" transform="matrix(-0.570538, -0.821271, 0.821271, -0.570538, -0.000001, -0.000002)"/>
      <path d="M 8.896 12.98 L 8.896 18.333 L 6.278 18.333 L 6.278 15.599 C 6.554 14.37 7.141 13.404 7.872 12.98 L 8.896 12.98 Z" style="stroke-linejoin: round; stroke-linecap: round; transform-origin: 7.587px 15.657px; stroke-width: 0.641194px; fill: rgb(85, 31, 10); stroke: rgb(30, 7, 0);" transform="matrix(-0.142092, -0.989853, 0.989853, -0.142092, -0.000002, 0)"/>
      <path d="M 10.662 17.127 L 10.662 22.48 L 8.044 22.48 L 8.044 19.746 C 8.32 18.517 8.907 17.551 9.638 17.127 L 10.662 17.127 Z" style="stroke-linejoin: round; stroke-linecap: round; transform-origin: 9.353px 19.804px; stroke-width: 0.641197px; fill: rgb(85, 31, 10); stroke: rgb(30, 7, 0);" transform="matrix(-0.465849, -0.884864, 0.884864, -0.465849, 0.000001, 0)"/>
      <path d="M 17.44 17.691 L 17.44 12.338 L 14.822 12.338 L 14.822 15.072 C 15.098 16.301 15.685 17.267 16.416 17.691 L 17.44 17.691 Z" style="stroke-linejoin: round; stroke-linecap: round; transform-origin: 16.131px 15.014px; stroke-width: 0.641199px; fill: rgb(85, 31, 10); stroke: rgb(30, 7, 0);" transform="matrix(-0.689551, -0.724237, 0.724237, -0.689551, 0.000001, 0)"/>
      <path d="M 14.93 14.622 L 14.93 9.269 L 12.312 9.269 L 12.312 12.003 C 12.588 13.232 13.175 14.198 13.906 14.622 L 14.93 14.622 Z" style="stroke-linejoin: round; stroke-linecap: round; transform-origin: 13.621px 11.945px; stroke-width: 0.641199px; fill: rgb(85, 31, 10); stroke: rgb(30, 7, 0);" transform="matrix(-0.782727, -0.622365, 0.622365, -0.782727, -0.000002, -0.000002)"/>
    </g>
    <path d="M 25.94 14.991 L 19.92 20.772 L 22.723 23.742 L 25.798 20.789 C 26.885 19.149 27.343 17.44 27.037 16.152 L 25.94 14.991 Z" style="stroke-linejoin: round; stroke-linecap: round; transform-box: fill-box; transform-origin: 51.1931% 48.0057%; fill: rgb(85, 31, 10); stroke: rgb(30, 7, 0);" transform="matrix(0.999209, -0.039768, 0.039768, 0.999209, 0, 0)"/>
  </g>
  <rect x="244.914" y="155.783" width="13.725" height="29.466" style="fill: rgb(85, 31, 10); stroke: rgb(30, 7, 0);"/>
  <rect x="37.319" y="153.206" width="18.964" height="35.986" style="fill: rgb(85, 31, 10); stroke: rgb(30, 7, 0); transform-origin: 46.802px 171.199px;" transform="matrix(0.998668, 0.051598, -0.048327, 0.998837, 186.516126, -0.745093)"/>
  <path d="M 218.711 129.207 L 218.755 129.207 L 218.661 141.924 L 213.727 141.894 C 210.204 140.869 207.394 138.556 206.082 135.629 L 206.133 129.132 L 206.173 129.132 L 206.33 108.201 L 206.151 108.2 L 206.252 94.725 L 214.487 104.489 L 216.921 104.503 C 217.193 101.355 217.996 99.073 218.943 99.073 C 220.116 99.073 221.066 102.56 221.066 106.861 C 221.066 111.164 220.116 114.651 218.943 114.651 C 218.901 114.651 218.862 114.647 218.82 114.638 L 218.711 129.207 Z" style="fill: rgb(85, 31, 10); stroke: rgb(30, 7, 0); transform-box: fill-box; transform-origin: 90.3492% 53.96%;" transform="matrix(0.981966, 0.189059, -0.189059, 0.981966, -0.000003, 0)"/>
  <path d="M 262.709 111.834 L 262.753 111.834 L 262.659 99.117 L 257.725 99.147 C 254.203 100.172 251.393 102.485 250.081 105.412 L 250.132 111.909 L 250.172 111.909 L 250.329 132.84 L 250.15 132.841 L 250.251 146.316 L 258.485 136.552 L 260.919 136.538 C 261.191 139.686 261.994 141.968 262.941 141.968 C 264.114 141.968 265.064 138.481 265.064 134.18 C 265.064 129.877 264.114 126.39 262.941 126.39 C 262.899 126.39 262.86 126.394 262.818 126.403 L 262.709 111.834 Z" style="fill: rgb(85, 31, 10); stroke: rgb(30, 7, 0); transform-origin: 263.617px 120.847px;" transform="matrix(-0.968748, 0.248045, -0.248045, -0.968748, 0.000041, -0.000024)"/>
  <path d="M 223.097 95.731 L 259.756 95.731 L 259.756 178.611 L 247.427 178.611 L 242.027 159.547 L 235.426 178.611 L 223.097 178.611 L 223.097 95.731 Z" style="fill: rgb(85, 31, 10); stroke: rgb(30, 7, 0);"/>
  <path d="M 273.77 73.822 C 273.77 87.644 266.451 99.588 255.837 105.22 C 255.976 105.537 256.094 105.871 256.19 106.218 L 256.19 110.241 L 255.836 110.241 L 256.179 110.374 L 254.729 114.128 C 253.606 115.635 252.097 116.579 250.624 116.684 L 248.879 116.014 L 251.412 109.463 L 251.412 107.132 C 248.457 108.132 245.321 108.671 242.069 108.671 C 238.554 108.671 235.172 108.041 232.012 106.88 L 232.012 109.826 L 234.545 116.378 L 232.8 117.047 C 231.328 116.943 229.818 115.999 228.695 114.492 L 227.245 110.738 L 227.587 110.604 L 227.233 110.604 L 227.233 106.581 C 227.393 106.009 227.612 105.472 227.876 104.991 C 217.494 99.266 210.369 87.459 210.369 73.822 C 210.369 54.575 224.562 38.974 242.069 38.974 C 259.578 38.974 273.77 54.575 273.77 73.822 Z" style="stroke-width: 2px; stroke: rgb(30, 7, 0); fill: rgb(30, 7, 0);"/>
  <ellipse style="fill: rgb(85, 31, 10); stroke: rgb(30, 7, 0);" cx="248.294" cy="72.541" rx="24.905" ry="29.618"/>
  <path d="M 265.842 65.324 C 268.24 72.239 265.582 79.549 259.903 81.652 C 254.225 83.754 247.678 79.853 245.28 72.939 C 244.982 72.078 244.762 71.212 244.616 70.35 L 264.765 62.889 C 265.181 63.65 265.544 64.464 265.842 65.324 Z" style="fill: rgb(85, 31, 10); stroke: rgb(30, 7, 0); transform-origin: 58.129px 37.244px;"/>
  <path d="M 240.525 74.242 C 238.002 81.109 231.386 84.883 225.747 82.671 C 220.108 80.458 217.582 73.098 220.104 66.231 C 220.583 64.929 221.208 63.738 221.946 62.678 L 241.429 70.321 C 241.301 71.62 241.003 72.94 240.525 74.242 Z" style="fill: rgb(85, 31, 10); stroke: rgb(30, 7, 0); transform-origin: 30.27px 37.669px;"/>
  <rect x="223.6" y="145.97" width="35.937" height="5.746" style="fill: rgb(85, 31, 10); stroke: rgb(30, 7, 0);"/>
  <rect x="222.882" y="142.348" width="36.545" height="4.887" style="fill: rgb(85, 31, 10); stroke: rgb(30, 7, 0);"/>
  <g transform="matrix(-1.02585, 0, 0, 1.06009, 295.293, 9.88933)" style="">
    <path d="M 12.964 12.196 L 35.218 38.481 L 31.329 41.831 L 19.962 28.404 C 15.263 22.017 12.119 16.524 11.443 13.506 L 12.964 12.196 Z" style="stroke-linejoin: round; stroke-linecap: round; transform-origin: 19.013px 13.154px; fill: rgb(85, 31, 10); stroke: rgb(30, 7, 0);"/>
    <g transform="matrix(1.398026, -0.118815, 0.132642, 1.560712, 2.879618, 1.618607)" style="transform-origin: 11.8618px 17.6388px;">
      <path d="M 13.052 20.964 L 13.052 26.317 L 10.434 26.317 L 10.434 23.583 C 10.71 22.354 11.297 21.388 12.028 20.964 L 13.052 20.964 Z" style="stroke-linejoin: round; stroke-linecap: round; transform-box: fill-box; transform-origin: 50% 50%; stroke-width: 0.641198px; fill: rgb(85, 31, 10); stroke: rgb(30, 7, 0);" transform="matrix(-0.570538, -0.821271, 0.821271, -0.570538, -0.000001, -0.000002)"/>
      <path d="M 8.896 12.98 L 8.896 18.333 L 6.278 18.333 L 6.278 15.599 C 6.554 14.37 7.141 13.404 7.872 12.98 L 8.896 12.98 Z" style="stroke-linejoin: round; stroke-linecap: round; transform-origin: 7.587px 15.657px; stroke-width: 0.641194px; fill: rgb(85, 31, 10); stroke: rgb(30, 7, 0);" transform="matrix(-0.142092, -0.989853, 0.989853, -0.142092, -0.000002, 0)"/>
      <path d="M 10.662 17.127 L 10.662 22.48 L 8.044 22.48 L 8.044 19.746 C 8.32 18.517 8.907 17.551 9.638 17.127 L 10.662 17.127 Z" style="stroke-linejoin: round; stroke-linecap: round; transform-origin: 9.353px 19.804px; stroke-width: 0.641197px; fill: rgb(85, 31, 10); stroke: rgb(30, 7, 0);" transform="matrix(-0.465849, -0.884864, 0.884864, -0.465849, 0.000001, 0)"/>
      <path d="M 17.44 17.691 L 17.44 12.338 L 14.822 12.338 L 14.822 15.072 C 15.098 16.301 15.685 17.267 16.416 17.691 L 17.44 17.691 Z" style="stroke-linejoin: round; stroke-linecap: round; transform-origin: 16.131px 15.014px; stroke-width: 0.641199px; fill: rgb(85, 31, 10); stroke: rgb(30, 7, 0);" transform="matrix(-0.689551, -0.724237, 0.724237, -0.689551, 0.000001, 0)"/>
      <path d="M 14.93 14.622 L 14.93 9.269 L 12.312 9.269 L 12.312 12.003 C 12.588 13.232 13.175 14.198 13.906 14.622 L 14.93 14.622 Z" style="stroke-linejoin: round; stroke-linecap: round; transform-origin: 13.621px 11.945px; stroke-width: 0.641199px; fill: rgb(85, 31, 10); stroke: rgb(30, 7, 0);" transform="matrix(-0.782727, -0.622365, 0.622365, -0.782727, -0.000002, -0.000002)"/>
    </g>
    <path d="M 25.94 14.991 L 19.92 20.772 L 22.723 23.742 L 25.798 20.789 C 26.885 19.149 27.343 17.44 27.037 16.152 L 25.94 14.991 Z" style="stroke-linejoin: round; stroke-linecap: round; transform-box: fill-box; transform-origin: 51.1931% 48.0057%; fill: rgb(85, 31, 10); stroke: rgb(30, 7, 0);" transform="matrix(0.999209, -0.039768, 0.039768, 0.999209, 0, 0)"/>
  </g>
  <path d="M 246.425 142.366 C 246.425 147.251 244.436 151.211 241.981 151.211 C 239.528 151.211 237.539 147.251 237.539 142.366 C 237.539 141.831 237.563 141.31 237.608 140.802 C 237.828 140.915 238.061 140.976 238.3 140.976 C 239.719 140.976 240.868 138.846 240.868 136.218 C 240.868 135.409 240.758 134.646 240.565 133.979 C 241.011 133.681 241.487 133.52 241.981 133.52 C 242.559 133.52 243.109 133.738 243.614 134.135 C 243.419 134.805 243.31 135.572 243.31 136.385 C 243.31 139.012 244.458 141.143 245.875 141.143 C 246.047 141.143 246.214 141.112 246.376 141.052 C 246.408 141.48 246.425 141.918 246.425 142.366 Z" style="fill: rgb(85, 31, 10); stroke: rgb(30, 7, 0);"/>
  <path d="M 627 395 Q 627 394.949 627.047 394.919 Q 627.097 394.887 627.162 394.907 Q 627.234 394.928 627.28 395 Q 627.332 395.081 627.324 395.187 Q 627.314 395.305 627.234 395.405 Q 627.144 395.515 627 395.561 Q 626.842 395.611 626.673 395.566 Q 626.489 395.518 626.353 395.374 Q 626.205 395.218 626.159 395 Q 626.109 394.766 626.191 394.533 Q 626.277 394.284 626.486 394.11 Q 626.707 393.925 627 393.879 Q 627.309 393.83 627.607 393.948 Q 627.921 394.072 628.133 394.346 Q 628.355 394.632 628.402 395 Q 628.451 395.384 628.295 395.748 Q 628.133 396.126 627.794 396.376 Q 627.443 396.635 627 396.682 Q 626.541 396.731 626.112 396.538 Q 625.669 396.338 625.381 395.934 Q 625.085 395.518 625.038 395 Q 624.989 394.466 625.22 393.972 Q 625.457 393.463 625.925 393.139 Q 626.407 392.805 627 392.757 Q 627.609 392.709 628.168 392.977 Q 628.742 393.252 629.104 393.785 Q 629.476 394.332 629.523 395 Q 629.571 395.685 629.266 396.308 Q 628.953 396.947 628.355 397.347 Q 627.743 397.756 627 397.803 Q 626.24 397.852 625.552 397.509 Q 624.848 397.158 624.41 396.495 Q 623.964 395.818 623.916 395 Q 623.868 394.165 624.249 393.411 Q 624.637 392.643 625.365 392.168 Q 626.107 391.683 627 391.636 Q 626.996 391.636 627 391.636" bx:shape="spiral 627 395 0 3.364 0 1080 1@76d26dad" style="stroke-width: 0.41654px; fill: rgb(85, 31, 10); stroke: rgb(30, 7, 0);" transform="matrix(0.9116259999999999, 0, 1e-12, 1.60294, -329.2850307737523, -488.071969590869)"/>
  <path d="M 121.583 149.396 L 158.143 149.653 L 168.838 237.293 L 116.858 237.293 L 121.583 149.396 Z" style="stroke: rgb(30, 7, 0); fill: rgb(30, 7, 0);"/>
  <g transform="matrix(1.02585, 0, 0, 1.06009, 90.0144, 68.9642)">
    <path d="M 12.964 12.196 L 35.218 38.481 L 31.329 41.831 L 19.962 28.404 C 15.263 22.017 12.119 16.524 11.443 13.506 L 12.964 12.196 Z" style="stroke-linejoin: round; stroke-linecap: round; transform-origin: 19.013px 13.154px; fill: rgb(85, 31, 10); stroke: rgb(30, 7, 0);"/>
    <g transform="matrix(1.398026, -0.118815, 0.132642, 1.560712, 2.879618, 1.618607)" style="transform-origin: 11.8618px 17.6388px;">
      <path d="M 13.052 20.964 L 13.052 26.317 L 10.434 26.317 L 10.434 23.583 C 10.71 22.354 11.297 21.388 12.028 20.964 L 13.052 20.964 Z" style="stroke-linejoin: round; stroke-linecap: round; transform-box: fill-box; transform-origin: 50% 50%; stroke-width: 0.641198px; fill: rgb(85, 31, 10); stroke: rgb(30, 7, 0);" transform="matrix(-0.570538, -0.821271, 0.821271, -0.570538, -0.000001, -0.000002)"/>
      <path d="M 8.896 12.98 L 8.896 18.333 L 6.278 18.333 L 6.278 15.599 C 6.554 14.37 7.141 13.404 7.872 12.98 L 8.896 12.98 Z" style="stroke-linejoin: round; stroke-linecap: round; transform-origin: 7.587px 15.657px; stroke-width: 0.641194px; fill: rgb(85, 31, 10); stroke: rgb(30, 7, 0);" transform="matrix(-0.142092, -0.989853, 0.989853, -0.142092, -0.000002, 0)"/>
      <path d="M 10.662 17.127 L 10.662 22.48 L 8.044 22.48 L 8.044 19.746 C 8.32 18.517 8.907 17.551 9.638 17.127 L 10.662 17.127 Z" style="stroke-linejoin: round; stroke-linecap: round; transform-origin: 9.353px 19.804px; stroke-width: 0.641197px; fill: rgb(85, 31, 10); stroke: rgb(30, 7, 0);" transform="matrix(-0.465849, -0.884864, 0.884864, -0.465849, 0.000001, 0)"/>
      <path d="M 17.44 17.691 L 17.44 12.338 L 14.822 12.338 L 14.822 15.072 C 15.098 16.301 15.685 17.267 16.416 17.691 L 17.44 17.691 Z" style="stroke-linejoin: round; stroke-linecap: round; transform-origin: 16.131px 15.014px; stroke-width: 0.641199px; fill: rgb(85, 31, 10); stroke: rgb(30, 7, 0);" transform="matrix(-0.689551, -0.724237, 0.724237, -0.689551, 0.000001, 0)"/>
      <path d="M 14.93 14.622 L 14.93 9.269 L 12.312 9.269 L 12.312 12.003 C 12.588 13.232 13.175 14.198 13.906 14.622 L 14.93 14.622 Z" style="stroke-linejoin: round; stroke-linecap: round; transform-origin: 13.621px 11.945px; stroke-width: 0.641199px; fill: rgb(85, 31, 10); stroke: rgb(30, 7, 0);" transform="matrix(-0.782727, -0.622365, 0.622365, -0.782727, -0.000002, -0.000002)"/>
    </g>
    <path d="M 25.94 14.991 L 19.92 20.772 L 22.723 23.742 L 25.798 20.789 C 26.885 19.149 27.343 17.44 27.037 16.152 L 25.94 14.991 Z" style="stroke-linejoin: round; stroke-linecap: round; transform-box: fill-box; transform-origin: 51.1931% 48.0057%; fill: rgb(85, 31, 10); stroke: rgb(30, 7, 0);" transform="matrix(0.999209, -0.039768, 0.039768, 0.999209, 0, 0)"/>
  </g>
  <rect x="144.797" y="209.155" width="13.725" height="29.466" style="fill: rgb(85, 31, 10); stroke: rgb(30, 7, 0);"/>
  <rect x="37.319" y="153.206" width="18.964" height="35.986" style="fill: rgb(85, 31, 10); stroke: rgb(30, 7, 0); transform-origin: 46.802px 171.199px;" transform="matrix(0.998668, 0.051598, -0.048327, 0.998837, 86.399424, 52.626684)"/>
  <path d="M 118.594 182.579 L 118.638 182.579 L 118.544 195.296 L 113.61 195.266 C 110.087 194.241 107.277 191.928 105.965 189.001 L 106.016 182.504 L 106.056 182.504 L 106.213 161.573 L 106.034 161.572 L 106.135 148.097 L 114.37 157.861 L 116.804 157.875 C 117.076 154.727 117.879 152.445 118.826 152.445 C 119.999 152.445 120.949 155.932 120.949 160.233 C 120.949 164.536 119.999 168.023 118.826 168.023 C 118.784 168.023 118.745 168.019 118.703 168.01 L 118.594 182.579 Z" style="fill: rgb(85, 31, 10); stroke: rgb(30, 7, 0); transform-origin: 119.503px 173.566px;" transform="matrix(0.981966, 0.189059, -0.189059, 0.981966, 0, 0)"/>
  <path d="M 162.593 165.206 L 162.637 165.206 L 162.543 152.489 L 157.609 152.519 C 154.086 153.544 151.276 155.857 149.964 158.784 L 150.015 165.281 L 150.055 165.281 L 150.212 186.212 L 150.033 186.213 L 150.134 199.688 L 158.369 189.924 L 160.803 189.91 C 161.075 193.058 161.878 195.34 162.825 195.34 C 163.998 195.34 164.948 191.853 164.948 187.552 C 164.948 183.249 163.998 179.762 162.825 179.762 C 162.783 179.762 162.744 179.766 162.702 179.775 L 162.593 165.206 Z" style="fill: rgb(85, 31, 10); stroke: rgb(30, 7, 0); transform-origin: 163.501px 174.219px;" transform="matrix(-0.968748, 0.248045, -0.248045, -0.968748, 0.000001, -0.000005)"/>
  <path d="M 122.98 149.103 L 159.639 149.103 L 159.639 231.983 L 147.31 231.983 L 141.91 212.919 L 135.309 231.983 L 122.98 231.983 L 122.98 149.103 Z" style="fill: rgb(85, 31, 10); stroke: rgb(30, 7, 0);"/>
  <path d="M 173.653 127.194 C 173.653 141.016 166.334 152.96 155.72 158.592 C 155.859 158.909 155.977 159.243 156.073 159.59 L 156.073 163.613 L 155.719 163.613 L 156.062 163.746 L 154.612 167.5 C 153.489 169.007 151.98 169.951 150.507 170.056 L 148.762 169.386 L 151.295 162.835 L 151.295 160.504 C 148.34 161.504 145.204 162.043 141.952 162.043 C 138.437 162.043 135.055 161.413 131.895 160.252 L 131.895 163.198 L 134.428 169.75 L 132.683 170.419 C 131.211 170.315 129.701 169.371 128.578 167.864 L 127.128 164.11 L 127.47 163.976 L 127.116 163.976 L 127.116 159.953 C 127.276 159.381 127.495 158.844 127.759 158.363 C 117.377 152.638 110.252 140.831 110.252 127.194 C 110.252 107.947 124.445 92.346 141.952 92.346 C 159.461 92.346 173.653 107.947 173.653 127.194 Z" style="stroke-width: 2px; stroke: rgb(30, 7, 0); fill: rgb(30, 7, 0);"/>
  <ellipse style="fill: rgb(85, 31, 10); stroke: rgb(30, 7, 0);" cx="148.177" cy="125.913" rx="24.905" ry="29.618"/>
  <path d="M 155.923 121.615 C 158.321 128.53 155.663 135.84 149.984 137.943 C 144.306 140.045 137.759 136.144 135.361 129.23 C 135.063 128.369 134.843 127.503 134.697 126.641 L 154.846 119.18 C 155.262 119.941 155.625 120.755 155.923 121.615 Z" style="fill: rgb(85, 31, 10); stroke: rgb(30, 7, 0); transform-origin: -51.79px 93.535px;"/>
  <path d="M 129.905 130.37 C 127.852 137.237 122.47 141.011 117.883 138.799 C 113.296 136.586 111.241 129.226 113.293 122.359 C 113.682 121.057 114.191 119.866 114.791 118.806 L 130.64 126.449 C 130.536 127.748 130.294 129.068 129.905 130.37 Z" style="fill: rgb(85, 31, 10); stroke: rgb(30, 7, 0); transform-origin: -41.135px 93.797px;"/>
  <rect x="123.483" y="199.342" width="35.937" height="5.746" style="fill: rgb(85, 31, 10); stroke: rgb(30, 7, 0);"/>
  <rect x="122.765" y="195.72" width="36.545" height="4.887" style="fill: rgb(85, 31, 10); stroke: rgb(30, 7, 0);"/>
  <g transform="matrix(-1.02585, 0, 0, 1.06009, 195.176, 63.2611)" style="">
    <path d="M 12.964 12.196 L 35.218 38.481 L 31.329 41.831 L 19.962 28.404 C 15.263 22.017 12.119 16.524 11.443 13.506 L 12.964 12.196 Z" style="stroke-linejoin: round; stroke-linecap: round; transform-origin: 19.013px 13.154px; fill: rgb(85, 31, 10); stroke: rgb(30, 7, 0);"/>
    <g transform="matrix(1.398026, -0.118815, 0.132642, 1.560712, 2.879618, 1.618607)" style="transform-origin: 11.8618px 17.6388px;">
      <path d="M 13.052 20.964 L 13.052 26.317 L 10.434 26.317 L 10.434 23.583 C 10.71 22.354 11.297 21.388 12.028 20.964 L 13.052 20.964 Z" style="stroke-linejoin: round; stroke-linecap: round; transform-box: fill-box; transform-origin: 50% 50%; stroke-width: 0.641198px; fill: rgb(85, 31, 10); stroke: rgb(30, 7, 0);" transform="matrix(-0.570538, -0.821271, 0.821271, -0.570538, -0.000001, -0.000002)"/>
      <path d="M 8.896 12.98 L 8.896 18.333 L 6.278 18.333 L 6.278 15.599 C 6.554 14.37 7.141 13.404 7.872 12.98 L 8.896 12.98 Z" style="stroke-linejoin: round; stroke-linecap: round; transform-origin: 7.587px 15.657px; stroke-width: 0.641194px; fill: rgb(85, 31, 10); stroke: rgb(30, 7, 0);" transform="matrix(-0.142092, -0.989853, 0.989853, -0.142092, -0.000002, 0)"/>
      <path d="M 10.662 17.127 L 10.662 22.48 L 8.044 22.48 L 8.044 19.746 C 8.32 18.517 8.907 17.551 9.638 17.127 L 10.662 17.127 Z" style="stroke-linejoin: round; stroke-linecap: round; transform-origin: 9.353px 19.804px; stroke-width: 0.641197px; fill: rgb(85, 31, 10); stroke: rgb(30, 7, 0);" transform="matrix(-0.465849, -0.884864, 0.884864, -0.465849, 0.000001, 0)"/>
      <path d="M 17.44 17.691 L 17.44 12.338 L 14.822 12.338 L 14.822 15.072 C 15.098 16.301 15.685 17.267 16.416 17.691 L 17.44 17.691 Z" style="stroke-linejoin: round; stroke-linecap: round; transform-origin: 16.131px 15.014px; stroke-width: 0.641199px; fill: rgb(85, 31, 10); stroke: rgb(30, 7, 0);" transform="matrix(-0.689551, -0.724237, 0.724237, -0.689551, 0.000001, 0)"/>
      <path d="M 14.93 14.622 L 14.93 9.269 L 12.312 9.269 L 12.312 12.003 C 12.588 13.232 13.175 14.198 13.906 14.622 L 14.93 14.622 Z" style="stroke-linejoin: round; stroke-linecap: round; transform-origin: 13.621px 11.945px; stroke-width: 0.641199px; fill: rgb(85, 31, 10); stroke: rgb(30, 7, 0);" transform="matrix(-0.782727, -0.622365, 0.622365, -0.782727, -0.000002, -0.000002)"/>
    </g>
    <path d="M 25.94 14.991 L 19.92 20.772 L 22.723 23.742 L 25.798 20.789 C 26.885 19.149 27.343 17.44 27.037 16.152 L 25.94 14.991 Z" style="stroke-linejoin: round; stroke-linecap: round; transform-box: fill-box; transform-origin: 51.1931% 48.0057%; fill: rgb(85, 31, 10); stroke: rgb(30, 7, 0);" transform="matrix(0.999209, -0.039768, 0.039768, 0.999209, 0, 0)"/>
  </g>
  <path d="M 146.308 195.738 C 146.308 200.623 144.319 204.583 141.864 204.583 C 139.411 204.583 137.422 200.623 137.422 195.738 C 137.422 195.203 137.446 194.682 137.491 194.174 C 137.711 194.287 137.944 194.348 138.183 194.348 C 139.602 194.348 140.751 192.218 140.751 189.59 C 140.751 188.781 140.641 188.018 140.448 187.351 C 140.894 187.053 141.37 186.892 141.864 186.892 C 142.442 186.892 142.992 187.11 143.497 187.507 C 143.302 188.177 143.193 188.944 143.193 189.757 C 143.193 192.384 144.341 194.515 145.758 194.515 C 145.93 194.515 146.097 194.484 146.259 194.424 C 146.291 194.852 146.308 195.29 146.308 195.738 Z" style="fill: rgb(85, 31, 10); stroke: rgb(30, 7, 0);"/>
  <path d="M 627 395 Q 627 394.949 627.047 394.919 Q 627.097 394.887 627.162 394.907 Q 627.234 394.928 627.28 395 Q 627.332 395.081 627.324 395.187 Q 627.314 395.305 627.234 395.405 Q 627.144 395.515 627 395.561 Q 626.842 395.611 626.673 395.566 Q 626.489 395.518 626.353 395.374 Q 626.205 395.218 626.159 395 Q 626.109 394.766 626.191 394.533 Q 626.277 394.284 626.486 394.11 Q 626.707 393.925 627 393.879 Q 627.309 393.83 627.607 393.948 Q 627.921 394.072 628.133 394.346 Q 628.355 394.632 628.402 395 Q 628.451 395.384 628.295 395.748 Q 628.133 396.126 627.794 396.376 Q 627.443 396.635 627 396.682 Q 626.541 396.731 626.112 396.538 Q 625.669 396.338 625.381 395.934 Q 625.085 395.518 625.038 395 Q 624.989 394.466 625.22 393.972 Q 625.457 393.463 625.925 393.139 Q 626.407 392.805 627 392.757 Q 627.609 392.709 628.168 392.977 Q 628.742 393.252 629.104 393.785 Q 629.476 394.332 629.523 395 Q 629.571 395.685 629.266 396.308 Q 628.953 396.947 628.355 397.347 Q 627.743 397.756 627 397.803 Q 626.24 397.852 625.552 397.509 Q 624.848 397.158 624.41 396.495 Q 623.964 395.818 623.916 395 Q 623.868 394.165 624.249 393.411 Q 624.637 392.643 625.365 392.168 Q 626.107 391.683 627 391.636 Q 626.996 391.636 627 391.636" bx:shape="spiral 627 395 0 3.364 0 1080 1@76d26dad" style="stroke-width: 0.41654px; fill: rgb(85, 31, 10); stroke: rgb(30, 7, 0);" transform="matrix(0.911626, 0, 0, 1.60294, -429.40181122025075, -434.70037730604975)"/>
  <path d="M 323.262 150.033 L 359.822 150.29 L 370.517 237.93 L 318.537 237.93 L 323.262 150.033 Z" style="stroke: rgb(30, 7, 0); fill: rgb(30, 7, 0);"/>
  <g transform="matrix(1.02585, 0, 0, 1.06009, 291.693, 69.6013)">
    <path d="M 12.964 12.196 L 35.218 38.481 L 31.329 41.831 L 19.962 28.404 C 15.263 22.017 12.119 16.524 11.443 13.506 L 12.964 12.196 Z" style="stroke-linejoin: round; stroke-linecap: round; transform-origin: 19.013px 13.154px; fill: rgb(85, 31, 10); stroke: rgb(30, 7, 0);"/>
    <g transform="matrix(1.398026, -0.118815, 0.132642, 1.560712, 2.879618, 1.618607)" style="transform-origin: 11.8618px 17.6388px;">
      <path d="M 13.052 20.964 L 13.052 26.317 L 10.434 26.317 L 10.434 23.583 C 10.71 22.354 11.297 21.388 12.028 20.964 L 13.052 20.964 Z" style="stroke-linejoin: round; stroke-linecap: round; transform-box: fill-box; transform-origin: 50% 50%; stroke-width: 0.641198px; fill: rgb(85, 31, 10); stroke: rgb(30, 7, 0);" transform="matrix(-0.570538, -0.821271, 0.821271, -0.570538, -0.000001, -0.000002)"/>
      <path d="M 8.896 12.98 L 8.896 18.333 L 6.278 18.333 L 6.278 15.599 C 6.554 14.37 7.141 13.404 7.872 12.98 L 8.896 12.98 Z" style="stroke-linejoin: round; stroke-linecap: round; transform-origin: 7.587px 15.657px; stroke-width: 0.641194px; fill: rgb(85, 31, 10); stroke: rgb(30, 7, 0);" transform="matrix(-0.142092, -0.989853, 0.989853, -0.142092, -0.000002, 0)"/>
      <path d="M 10.662 17.127 L 10.662 22.48 L 8.044 22.48 L 8.044 19.746 C 8.32 18.517 8.907 17.551 9.638 17.127 L 10.662 17.127 Z" style="stroke-linejoin: round; stroke-linecap: round; transform-origin: 9.353px 19.804px; stroke-width: 0.641197px; fill: rgb(85, 31, 10); stroke: rgb(30, 7, 0);" transform="matrix(-0.465849, -0.884864, 0.884864, -0.465849, 0.000001, 0)"/>
      <path d="M 17.44 17.691 L 17.44 12.338 L 14.822 12.338 L 14.822 15.072 C 15.098 16.301 15.685 17.267 16.416 17.691 L 17.44 17.691 Z" style="stroke-linejoin: round; stroke-linecap: round; transform-origin: 16.131px 15.014px; stroke-width: 0.641199px; fill: rgb(85, 31, 10); stroke: rgb(30, 7, 0);" transform="matrix(-0.689551, -0.724237, 0.724237, -0.689551, 0.000001, 0)"/>
      <path d="M 14.93 14.622 L 14.93 9.269 L 12.312 9.269 L 12.312 12.003 C 12.588 13.232 13.175 14.198 13.906 14.622 L 14.93 14.622 Z" style="stroke-linejoin: round; stroke-linecap: round; transform-origin: 13.621px 11.945px; stroke-width: 0.641199px; fill: rgb(85, 31, 10); stroke: rgb(30, 7, 0);" transform="matrix(-0.782727, -0.622365, 0.622365, -0.782727, -0.000002, -0.000002)"/>
    </g>
    <path d="M 25.94 14.991 L 19.92 20.772 L 22.723 23.742 L 25.798 20.789 C 26.885 19.149 27.343 17.44 27.037 16.152 L 25.94 14.991 Z" style="stroke-linejoin: round; stroke-linecap: round; transform-box: fill-box; transform-origin: 51.1931% 48.0057%; fill: rgb(85, 31, 10); stroke: rgb(30, 7, 0);" transform="matrix(0.999209, -0.039768, 0.039768, 0.999209, 0, 0)"/>
  </g>
  <rect x="346.476" y="209.792" width="13.725" height="29.466" style="fill: rgb(85, 31, 10); stroke: rgb(30, 7, 0);"/>
  <rect x="37.319" y="153.206" width="18.964" height="35.986" style="fill: rgb(85, 31, 10); stroke: rgb(30, 7, 0); transform-origin: 46.802px 171.199px;" transform="matrix(0.998668, 0.051598, -0.048327, 0.998837, 288.078125, 53.263879)"/>
  <path d="M 320.273 183.216 L 320.317 183.216 L 320.223 195.933 L 315.289 195.903 C 311.766 194.878 308.956 192.565 307.644 189.638 L 307.695 183.141 L 307.735 183.141 L 307.892 162.21 L 307.713 162.209 L 307.814 148.734 L 316.049 158.498 L 318.483 158.512 C 318.755 155.364 319.558 153.082 320.505 153.082 C 321.678 153.082 322.628 156.569 322.628 160.87 C 322.628 165.173 321.678 168.66 320.505 168.66 C 320.463 168.66 320.424 168.656 320.382 168.647 L 320.273 183.216 Z" style="fill: rgb(85, 31, 10); stroke: rgb(30, 7, 0); transform-origin: 321.182px 174.203px;" transform="matrix(0.981966, 0.189059, -0.189059, 0.981966, -0.000001, -0.000002)"/>
  <path d="M 364.272 165.843 L 364.316 165.843 L 364.222 153.126 L 359.288 153.156 C 355.765 154.181 352.955 156.494 351.643 159.421 L 351.694 165.918 L 351.734 165.918 L 351.891 186.849 L 351.712 186.85 L 351.813 200.325 L 360.048 190.561 L 362.482 190.547 C 362.754 193.695 363.557 195.977 364.504 195.977 C 365.677 195.977 366.627 192.49 366.627 188.189 C 366.627 183.886 365.677 180.399 364.504 180.399 C 364.462 180.399 364.423 180.403 364.381 180.412 L 364.272 165.843 Z" style="fill: rgb(85, 31, 10); stroke: rgb(30, 7, 0); transform-origin: 365.18px 174.856px;" transform="matrix(-0.968748, 0.248045, -0.248045, -0.968748, -0.000011, -0.000014)"/>
  <path d="M 324.659 149.74 L 361.318 149.74 L 361.318 232.62 L 348.989 232.62 L 343.589 213.556 L 336.988 232.62 L 324.659 232.62 L 324.659 149.74 Z" style="fill: rgb(85, 31, 10); stroke: rgb(30, 7, 0);"/>
  <path d="M 375.332 127.831 C 375.332 141.653 368.013 153.597 357.399 159.229 C 357.538 159.546 357.656 159.88 357.752 160.227 L 357.752 164.25 L 357.398 164.25 L 357.741 164.383 L 356.291 168.137 C 355.168 169.644 353.659 170.588 352.186 170.693 L 350.441 170.023 L 352.974 163.472 L 352.974 161.141 C 350.019 162.141 346.883 162.68 343.631 162.68 C 340.116 162.68 336.734 162.05 333.574 160.889 L 333.574 163.835 L 336.107 170.387 L 334.362 171.056 C 332.89 170.952 331.38 170.008 330.257 168.501 L 328.807 164.747 L 329.149 164.613 L 328.795 164.613 L 328.795 160.59 C 328.955 160.018 329.174 159.481 329.438 159 C 319.056 153.275 311.931 141.468 311.931 127.831 C 311.931 108.584 326.124 92.983 343.631 92.983 C 361.14 92.983 375.332 108.584 375.332 127.831 Z" style="stroke-width: 2px; stroke: rgb(30, 7, 0); fill: rgb(30, 7, 0);"/>
  <ellipse style="fill: rgb(85, 31, 10); stroke: rgb(30, 7, 0);" cx="349.856" cy="126.55" rx="24.905" ry="29.618"/>
  <path d="M 372.497 120.259 C 374.267 127.174 372.305 134.484 368.113 136.587 C 363.922 138.689 359.089 134.788 357.319 127.874 C 357.099 127.013 356.936 126.147 356.829 125.285 L 371.702 117.824 C 372.009 118.585 372.277 119.399 372.497 120.259 Z" style="fill: rgb(85, 31, 10); stroke: rgb(30, 7, 0); transform-origin: 219.169px 92.179px;"/>
  <path d="M 352.043 128.714 C 349.52 135.581 342.904 139.355 337.265 137.143 C 331.626 134.93 329.1 127.57 331.622 120.703 C 332.101 119.401 332.726 118.21 333.464 117.15 L 352.947 124.793 C 352.819 126.092 352.521 127.412 352.043 128.714 Z" style="fill: rgb(85, 31, 10); stroke: rgb(30, 7, 0); transform-origin: 141.788px 92.141px;"/>
  <rect x="325.162" y="199.979" width="35.937" height="5.746" style="fill: rgb(85, 31, 10); stroke: rgb(30, 7, 0);"/>
  <rect x="324.444" y="196.357" width="36.545" height="4.887" style="fill: rgb(85, 31, 10); stroke: rgb(30, 7, 0);"/>
  <g transform="matrix(-1.02585, 0, 0, 1.06009, 396.855, 63.8983)" style="">
    <path d="M 12.964 12.196 L 35.218 38.481 L 31.329 41.831 L 19.962 28.404 C 15.263 22.017 12.119 16.524 11.443 13.506 L 12.964 12.196 Z" style="stroke-linejoin: round; stroke-linecap: round; transform-origin: 19.013px 13.154px; fill: rgb(85, 31, 10); stroke: rgb(30, 7, 0);"/>
    <g transform="matrix(1.398026, -0.118815, 0.132642, 1.560712, 2.879618, 1.618607)" style="transform-origin: 11.8618px 17.6388px;">
      <path d="M 13.052 20.964 L 13.052 26.317 L 10.434 26.317 L 10.434 23.583 C 10.71 22.354 11.297 21.388 12.028 20.964 L 13.052 20.964 Z" style="stroke-linejoin: round; stroke-linecap: round; transform-box: fill-box; transform-origin: 50% 50%; stroke-width: 0.641198px; fill: rgb(85, 31, 10); stroke: rgb(30, 7, 0);" transform="matrix(-0.570538, -0.821271, 0.821271, -0.570538, -0.000001, -0.000002)"/>
      <path d="M 8.896 12.98 L 8.896 18.333 L 6.278 18.333 L 6.278 15.599 C 6.554 14.37 7.141 13.404 7.872 12.98 L 8.896 12.98 Z" style="stroke-linejoin: round; stroke-linecap: round; transform-origin: 7.587px 15.657px; stroke-width: 0.641194px; fill: rgb(85, 31, 10); stroke: rgb(30, 7, 0);" transform="matrix(-0.142092, -0.989853, 0.989853, -0.142092, -0.000002, 0)"/>
      <path d="M 10.662 17.127 L 10.662 22.48 L 8.044 22.48 L 8.044 19.746 C 8.32 18.517 8.907 17.551 9.638 17.127 L 10.662 17.127 Z" style="stroke-linejoin: round; stroke-linecap: round; transform-origin: 9.353px 19.804px; stroke-width: 0.641197px; fill: rgb(85, 31, 10); stroke: rgb(30, 7, 0);" transform="matrix(-0.465849, -0.884864, 0.884864, -0.465849, 0.000001, 0)"/>
      <path d="M 17.44 17.691 L 17.44 12.338 L 14.822 12.338 L 14.822 15.072 C 15.098 16.301 15.685 17.267 16.416 17.691 L 17.44 17.691 Z" style="stroke-linejoin: round; stroke-linecap: round; transform-origin: 16.131px 15.014px; stroke-width: 0.641199px; fill: rgb(85, 31, 10); stroke: rgb(30, 7, 0);" transform="matrix(-0.689551, -0.724237, 0.724237, -0.689551, 0.000001, 0)"/>
      <path d="M 14.93 14.622 L 14.93 9.269 L 12.312 9.269 L 12.312 12.003 C 12.588 13.232 13.175 14.198 13.906 14.622 L 14.93 14.622 Z" style="stroke-linejoin: round; stroke-linecap: round; transform-origin: 13.621px 11.945px; stroke-width: 0.641199px; fill: rgb(85, 31, 10); stroke: rgb(30, 7, 0);" transform="matrix(-0.782727, -0.622365, 0.622365, -0.782727, -0.000002, -0.000002)"/>
    </g>
    <path d="M 25.94 14.991 L 19.92 20.772 L 22.723 23.742 L 25.798 20.789 C 26.885 19.149 27.343 17.44 27.037 16.152 L 25.94 14.991 Z" style="stroke-linejoin: round; stroke-linecap: round; transform-box: fill-box; transform-origin: 51.1931% 48.0057%; fill: rgb(85, 31, 10); stroke: rgb(30, 7, 0);" transform="matrix(0.999209, -0.039768, 0.039768, 0.999209, 0, 0)"/>
  </g>
  <path d="M 347.987 196.375 C 347.987 201.26 345.998 205.22 343.543 205.22 C 341.09 205.22 339.101 201.26 339.101 196.375 C 339.101 195.84 339.125 195.319 339.17 194.811 C 339.39 194.924 339.623 194.985 339.862 194.985 C 341.281 194.985 342.43 192.855 342.43 190.227 C 342.43 189.418 342.32 188.655 342.127 187.988 C 342.573 187.69 343.049 187.529 343.543 187.529 C 344.121 187.529 344.671 187.747 345.176 188.144 C 344.981 188.814 344.872 189.581 344.872 190.394 C 344.872 193.021 346.02 195.152 347.437 195.152 C 347.609 195.152 347.776 195.121 347.938 195.061 C 347.97 195.489 347.987 195.927 347.987 196.375 Z" style="fill: rgb(85, 31, 10); stroke: rgb(30, 7, 0);"/>
  <path d="M 627 395 Q 627 394.949 627.047 394.919 Q 627.097 394.887 627.162 394.907 Q 627.234 394.928 627.28 395 Q 627.332 395.081 627.324 395.187 Q 627.314 395.305 627.234 395.405 Q 627.144 395.515 627 395.561 Q 626.842 395.611 626.673 395.566 Q 626.489 395.518 626.353 395.374 Q 626.205 395.218 626.159 395 Q 626.109 394.766 626.191 394.533 Q 626.277 394.284 626.486 394.11 Q 626.707 393.925 627 393.879 Q 627.309 393.83 627.607 393.948 Q 627.921 394.072 628.133 394.346 Q 628.355 394.632 628.402 395 Q 628.451 395.384 628.295 395.748 Q 628.133 396.126 627.794 396.376 Q 627.443 396.635 627 396.682 Q 626.541 396.731 626.112 396.538 Q 625.669 396.338 625.381 395.934 Q 625.085 395.518 625.038 395 Q 624.989 394.466 625.22 393.972 Q 625.457 393.463 625.925 393.139 Q 626.407 392.805 627 392.757 Q 627.609 392.709 628.168 392.977 Q 628.742 393.252 629.104 393.785 Q 629.476 394.332 629.523 395 Q 629.571 395.685 629.266 396.308 Q 628.953 396.947 628.355 397.347 Q 627.743 397.756 627 397.803 Q 626.24 397.852 625.552 397.509 Q 624.848 397.158 624.41 396.495 Q 623.964 395.818 623.916 395 Q 623.868 394.165 624.249 393.411 Q 624.637 392.643 625.365 392.168 Q 626.107 391.683 627 391.636 Q 626.996 391.636 627 391.636" bx:shape="spiral 627 395 0 3.364 0 1080 1@76d26dad" style="stroke-width: 0.41654px; fill: rgb(85, 31, 10); stroke: rgb(30, 7, 0);" transform="matrix(0.911626, 0, 0, 1.60294, -227.72299995509616, -434.063)"/>
  <ellipse style="stroke-width: 3px; fill: rgb(85, 31, 10); stroke: rgb(30, 7, 0);" cx="241.427" cy="185.408" rx="47.514" ry="48.26"/>
  <ellipse style="stroke-width: 3px; fill: rgb(85, 31, 10); stroke: rgb(30, 7, 0);" cx="241.809" cy="185.729" rx="39.492" ry="41.549"/>
  <path d="M 228.103 198.298 C 218.634 198.298 210.959 189.236 210.959 178.057 C 210.959 166.879 218.634 157.815 228.103 157.815 C 229.983 157.815 231.793 158.173 233.485 158.834 C 227.817 161.475 223.836 167.701 223.836 174.963 C 223.836 184.618 230.874 192.444 239.557 192.444 C 239.762 192.444 239.968 192.439 240.173 192.431 C 237.076 196.058 232.81 198.298 228.103 198.298 Z" style="fill: rgb(85, 31, 10); stroke: rgb(30, 7, 0);"/>
  <path d="M 265.079 163.864 C 258.36 163.864 252.914 170.171 252.914 177.951 C 252.914 185.729 258.36 192.036 265.079 192.036 C 266.413 192.036 267.697 191.788 268.899 191.328 C 264.877 189.49 262.051 185.157 262.051 180.104 C 262.051 173.385 267.046 167.939 273.207 167.939 C 273.354 167.939 273.5 167.942 273.645 167.948 C 271.447 165.424 268.42 163.864 265.079 163.864 Z" style="transform-box: fill-box; transform-origin: 50% 50%; fill: rgb(85, 31, 10); stroke: rgb(30, 7, 0);" transform="matrix(-0.827787, 0.561042, -0.561042, -0.827787, 0.000077, -0.000006)"/>
  <path d="M 248.101 199.343 C 243.004 199.343 238.873 205.65 238.873 213.43 C 238.873 221.208 243.004 227.515 248.101 227.515 C 249.113 227.515 250.087 227.267 250.999 226.807 C 247.948 224.969 245.804 220.636 245.804 215.583 C 245.804 208.864 249.593 203.418 254.267 203.418 C 254.379 203.418 254.489 203.421 254.599 203.427 C 252.932 200.903 250.636 199.343 248.101 199.343 Z" style="transform-origin: 246.736px 213.429px; fill: rgb(85, 31, 10); stroke: rgb(30, 7, 0);" transform="matrix(-0.533305, -0.845923, 0.845923, -0.533305, 0.000005, -0.000008)"/>
  <path d="M 237.282 165.132 C 233.93 165.132 231.214 169.667 231.214 175.258 C 231.214 180.851 233.93 185.385 237.282 185.385 C 237.947 185.385 238.588 185.207 239.187 184.875 C 237.181 183.555 235.771 180.44 235.771 176.807 C 235.771 171.977 238.263 168.062 241.336 168.062 C 241.409 168.062 241.482 168.064 241.555 168.068 C 240.458 166.254 238.949 165.132 237.282 165.132 Z" style="transform-box: fill-box; transform-origin: 50% 50%; fill: rgb(85, 31, 10); stroke: rgb(30, 7, 0);" transform="matrix(-0.947997, 0.318279, -0.318279, -0.947997, -0.000009, -0.00002)"/>
  <path d="M 255.467 197.392 C 252.115 197.392 249.399 192.857 249.399 187.266 C 249.399 181.673 252.115 177.139 255.467 177.139 C 256.132 177.139 256.773 177.317 257.372 177.649 C 255.366 178.969 253.956 182.084 253.956 185.717 C 253.956 190.547 256.448 194.462 259.521 194.462 C 259.594 194.462 259.667 194.46 259.74 194.456 C 258.643 196.27 257.134 197.392 255.467 197.392 Z" style="transform-origin: 254.57px 187.264px; fill: rgb(85, 31, 10); stroke: rgb(30, 7, 0);" transform="matrix(0.947997, 0.318279, -0.318279, 0.947997, 0, -0.000003)"/>
  <path d="M 233.754 217.433 C 230.402 217.433 227.686 212.898 227.686 207.307 C 227.686 201.714 230.402 197.18 233.754 197.18 C 234.419 197.18 235.06 197.358 235.659 197.69 C 233.653 199.01 232.243 202.125 232.243 205.758 C 232.243 210.588 234.735 214.503 237.808 214.503 C 237.881 214.503 237.954 214.501 238.027 214.497 C 236.93 216.311 235.421 217.433 233.754 217.433 Z" style="transform-origin: 232.857px 207.306px; fill: rgb(85, 31, 10); stroke: rgb(30, 7, 0);" transform="matrix(0.252999, 0.967467, -0.967467, 0.252999, 0.000019, 0.000002)"/>
  <path d="M 247.966 145.311 C 244.614 145.311 241.898 149.846 241.898 155.437 C 241.898 161.03 244.614 165.564 247.966 165.564 C 248.631 165.564 249.272 165.386 249.871 165.054 C 247.865 163.734 246.455 160.619 246.455 156.986 C 246.455 152.156 248.947 148.241 252.02 148.241 C 252.093 148.241 252.166 148.243 252.239 148.247 C 251.142 146.433 249.633 145.311 247.966 145.311 Z" style="transform-origin: 247.068px 155.438px; fill: rgb(85, 31, 10); stroke: rgb(30, 7, 0);" transform="matrix(0.184275, -0.982875, 0.982875, 0.184275, 0.000038, 0.000025)"/>
</svg>