<?xml version="1.0" encoding="UTF-8" standalone="no"?>
<!-- Created with Inkscape (http://www.inkscape.org/) -->

<svg
   width="64"
   height="64"
   viewBox="0 0 16.933332 16.933334"
   version="1.1"
   id="svg5"
   inkscape:version="1.1.2 (0a00cf5339, 2022-02-04)"
   sodipodi:docname="bar_Pedra.svg"
   xmlns:inkscape="http://www.inkscape.org/namespaces/inkscape"
   xmlns:sodipodi="http://sodipodi.sourceforge.net/DTD/sodipodi-0.dtd"
   xmlns="http://www.w3.org/2000/svg"
   xmlns:svg="http://www.w3.org/2000/svg">
  <sodipodi:namedview
     id="namedview7"
     pagecolor="#505050"
     bordercolor="#ffffff"
     borderopacity="1"
     inkscape:pageshadow="0"
     inkscape:pageopacity="0"
     inkscape:pagecheckerboard="1"
     inkscape:document-units="mm"
     showgrid="false"
     width="32px"
     units="px"
     inkscape:zoom="6.8845118"
     inkscape:cx="48.587323"
     inkscape:cy="31.883161"
     inkscape:window-width="1366"
     inkscape:window-height="697"
     inkscape:window-x="0"
     inkscape:window-y="0"
     inkscape:window-maximized="1"
     inkscape:current-layer="layer1" />
  <defs
     id="defs2" />
  <g
     inkscape:label="Camada 1"
     inkscape:groupmode="layer"
     id="layer1">
    <g
       id="g1411"
       transform="rotate(11.721624,4.014289,6.3343949)">
      <ellipse
         style="fill:#999999;stroke:#000000;stroke-width:0.27994"
         id="path31"
         cx="10.053888"
         cy="4.7767963"
         rx="5.8824"
         ry="4.2003946" />
      <path
         id="ellipse157"
         style="fill:#343434;fill-opacity:1;stroke:none;stroke-width:0.270289"
         d="M 6.6493138,1.5334741 A 5.6748439,4.0590073 0 0 0 4.3102077,4.8148332 5.6748439,4.0590073 0 0 0 9.9854814,8.8742103 5.6748439,4.0590073 0 0 0 13.981205,7.6966961 5.7329478,4.3337754 0 0 1 11.554357,8.1051806 5.7329478,4.3337754 0 0 1 5.8217528,3.7716495 5.7329478,4.3337754 0 0 1 6.6493138,1.5334741 Z" />
    </g>
    <g
       id="g1417"
       transform="matrix(1,0,0,0.93093436,-3.683938,6.1228962)">
      <ellipse
         style="fill:#999999;stroke:#000000;stroke-width:0.27994"
         id="ellipse1413"
         cx="10.053888"
         cy="4.7767963"
         rx="5.8824"
         ry="4.2003946" />
      <path
         id="path1415"
         style="fill:#343434;fill-opacity:1;stroke:none;stroke-width:0.270289"
         d="M 6.6493138,1.5334741 A 5.6748439,4.0590073 0 0 0 4.3102077,4.8148332 5.6748439,4.0590073 0 0 0 9.9854814,8.8742103 5.6748439,4.0590073 0 0 0 13.981205,7.6966961 5.7329478,4.3337754 0 0 1 11.554357,8.1051806 5.7329478,4.3337754 0 0 1 5.8217528,3.7716495 5.7329478,4.3337754 0 0 1 6.6493138,1.5334741 Z" />
    </g>
    <g
       id="g1423"
       transform="matrix(1,0,0,0.93093436,0.50109899,8.2427682)">
      <ellipse
         style="fill:#999999;stroke:#000000;stroke-width:0.27994"
         id="ellipse1419"
         cx="10.053888"
         cy="4.7767963"
         rx="5.8824"
         ry="4.2003946" />
      <path
         id="path1421"
         style="fill:#343434;fill-opacity:1;stroke:none;stroke-width:0.270289"
         d="M 6.6493138,1.5334741 A 5.6748439,4.0590073 0 0 0 4.3102077,4.8148332 5.6748439,4.0590073 0 0 0 9.9854814,8.8742103 5.6748439,4.0590073 0 0 0 13.981205,7.6966961 5.7329478,4.3337754 0 0 1 11.554357,8.1051806 5.7329478,4.3337754 0 0 1 5.8217528,3.7716495 5.7329478,4.3337754 0 0 1 6.6493138,1.5334741 Z" />
    </g>
  </g>
</svg>
