<?xml version="1.0" encoding="utf-8"?>
<svg xmlns="http://www.w3.org/2000/svg" viewBox="0 0 110 180" width="110px" height="180px" xmlns:bx="https://boxy-svg.com">
  <defs>
    <linearGradient gradientUnits="userSpaceOnUse" x1="61.751" y1="4.64" x2="61.751" y2="26.708" id="gradient-6" gradientTransform="matrix(-1.180857, -1.017182, 1.008421, -1.191115, 147.333424, 105.838909)">
      <stop offset="0" style="stop-color: rgb(26.667% 64.706% 38.431%)"/>
      <stop offset="1" style="stop-color: rgb(0% 39.662% 15.739%)"/>
    </linearGradient>
    <linearGradient gradientUnits="userSpaceOnUse" x1="16.555" y1="5.154" x2="16.555" y2="27.222" id="gradient-5" gradientTransform="matrix(1.180857, -1.017182, 1.008421, 1.191115, -15.837139, 22.719149)">
      <stop offset="0" style="stop-color: rgb(26.667% 64.706% 38.431%)"/>
      <stop offset="1" style="stop-color: rgb(0% 39.662% 15.739%)"/>
    </linearGradient>
    <linearGradient gradientUnits="userSpaceOnUse" x1="33.017" y1="87.365" x2="33.017" y2="109.039" id="gradient-3" gradientTransform="matrix(1.668197, 0, 0, 1.40709, -9.694595, 22.248553)">
      <stop offset="0" style="stop-color: rgb(26.667% 64.706% 38.431%)"/>
      <stop offset="1" style="stop-color: rgb(0% 39.662% 15.739%)"/>
    </linearGradient>
    <linearGradient gradientUnits="userSpaceOnUse" x1="143.447" y1="91.624" x2="143.447" y2="99.572" id="gradient-14" gradientTransform="matrix(0.340859, 0.874121, -0.649393, 0.253228, 115.115649, -41.029907)">
      <stop offset="0" style="stop-color: rgb(0% 14.51% 73.725%)"/>
      <stop offset="1" style="stop-color: rgb(0% 18.802% 38.225%)"/>
    </linearGradient>
    <radialGradient gradientUnits="userSpaceOnUse" cx="87.085" cy="138.9" r="14.726" id="gradient-11" gradientTransform="matrix(0.69702, 0, 0, 0.938228, 26.385015, 8.634071)">
      <stop offset="0" style="stop-color: rgb(100% 58.431% 0%)"/>
      <stop offset="1" style="stop-color: rgb(64.317% 29.827% 0%)"/>
    </radialGradient>
    <radialGradient gradientUnits="userSpaceOnUse" cx="86.579" cy="144.39" r="12.997" id="gradient-13" gradientTransform="matrix(0.808437, 0, 0, 0.938228, 16.585386, 8.980785)">
      <stop offset="0" style="stop-color: rgb(100% 58.431% 0%)"/>
      <stop offset="1" style="stop-color: rgb(64.317% 29.827% 0%)"/>
    </radialGradient>
    <radialGradient gradientUnits="userSpaceOnUse" cx="86.593" cy="150.219" r="7.676" id="gradient-12" gradientTransform="matrix(0.657822, 0, 0, 0.987473, 29.630519, 1.881948)">
      <stop offset="0" style="stop-color: rgb(48.235% 48.235% 48.235%)"/>
      <stop offset="1" style="stop-color: rgb(28.577% 28.577% 28.577%)"/>
    </radialGradient>
    <filter id="gaussian-blur-filter-0" color-interpolation-filters="sRGB" x="-50%" y="-50%" width="200%" height="200%">
      <title>Desfoque gaussiano</title>
      <feGaussianBlur stdDeviation="0.7 0.7" edgeMode="none"/>
    </filter>
  </defs>
  <path d="M 99.402 9.539 L 77.148 35.825 L 81.037 39.175 L 92.404 25.748 C 97.103 19.361 100.247 13.867 100.923 10.85 L 99.402 9.539 Z" style="stroke: rgb(0, 0, 0); stroke-linejoin: round; stroke-linecap: round; fill: url(&quot;#gradient-6&quot;); transform-origin: 62.098px 10.789px;"/>
  <g transform="matrix(-1.552848, 0, 0, 1.566338, 116.127426, -10.863686)">
    <path d="M 13.052 20.964 L 13.052 26.317 L 10.434 26.317 L 10.434 23.583 C 10.71 22.354 11.297 21.388 12.028 20.964 L 13.052 20.964 Z" style="stroke: rgb(0, 0, 0); stroke-linejoin: round; stroke-linecap: round; transform-box: fill-box; transform-origin: 50% 50%; fill: rgb(38, 123, 67);" transform="matrix(-0.570538, -0.821271, 0.821271, -0.570538, -0.000001, -0.000002)"/>
    <path d="M 8.896 12.98 L 8.896 18.333 L 6.278 18.333 L 6.278 15.599 C 6.554 14.37 7.141 13.404 7.872 12.98 L 8.896 12.98 Z" style="stroke: rgb(0, 0, 0); stroke-linejoin: round; stroke-linecap: round; transform-origin: 7.587px 15.657px; fill: rgb(38, 123, 67);" transform="matrix(-0.142092, -0.989853, 0.989853, -0.142092, -0.000002, 0)"/>
    <path d="M 10.662 17.127 L 10.662 22.48 L 8.044 22.48 L 8.044 19.746 C 8.32 18.517 8.907 17.551 9.638 17.127 L 10.662 17.127 Z" style="stroke: rgb(0, 0, 0); stroke-linejoin: round; stroke-linecap: round; transform-origin: 9.353px 19.804px; fill: rgb(38, 123, 67);" transform="matrix(-0.465849, -0.884864, 0.884864, -0.465849, 0.000001, 0)"/>
    <path d="M 17.44 17.691 L 17.44 12.338 L 14.822 12.338 L 14.822 15.072 C 15.098 16.301 15.685 17.267 16.416 17.691 L 17.44 17.691 Z" style="stroke: rgb(0, 0, 0); stroke-linejoin: round; stroke-linecap: round; transform-origin: 16.131px 15.014px; fill: rgb(38, 123, 67);" transform="matrix(-0.689551, -0.724237, 0.724237, -0.689551, 0.000001, 0)"/>
    <path d="M 14.93 14.622 L 14.93 9.269 L 12.312 9.269 L 12.312 12.003 C 12.588 13.232 13.175 14.198 13.906 14.622 L 14.93 14.622 Z" style="stroke: rgb(0, 0, 0); stroke-linejoin: round; stroke-linecap: round; transform-origin: 13.621px 11.945px; fill: rgb(38, 123, 67);" transform="matrix(-0.782727, -0.622365, 0.622365, -0.782727, -0.000002, -0.000002)"/>
  </g>
  <path d="M 85.287 13.014 L 91.307 18.795 L 88.503 21.765 L 85.429 18.812 C 84.342 17.172 83.884 15.462 84.19 14.175 L 85.287 13.014 Z" style="stroke: rgb(0, 0, 0); stroke-linejoin: round; stroke-linecap: round; transform-origin: 59.958px 6.341px; fill: rgb(38, 123, 67);"/>
  <path d="M 10.853 10.345 L 33.107 36.63 L 29.218 39.98 L 17.851 26.553 C 13.152 20.166 10.008 14.673 9.332 11.655 L 10.853 10.345 Z" style="stroke: rgb(0, 0, 0); stroke-linejoin: round; stroke-linecap: round; fill: url(&quot;#gradient-5&quot;); transform-origin: 16.902px 11.303px;"/>
  <g transform="matrix(1.552848, 0, 0, 1.566338, -5.870526, -10.058418)">
    <path d="M 13.052 20.964 L 13.052 26.317 L 10.434 26.317 L 10.434 23.583 C 10.71 22.354 11.297 21.388 12.028 20.964 L 13.052 20.964 Z" style="stroke: rgb(0, 0, 0); stroke-linejoin: round; stroke-linecap: round; transform-box: fill-box; transform-origin: 50% 50%; fill: rgb(38, 123, 67);" transform="matrix(-0.570538, -0.821271, 0.821271, -0.570538, -0.000001, -0.000002)"/>
    <path d="M 8.896 12.98 L 8.896 18.333 L 6.278 18.333 L 6.278 15.599 C 6.554 14.37 7.141 13.404 7.872 12.98 L 8.896 12.98 Z" style="stroke: rgb(0, 0, 0); stroke-linejoin: round; stroke-linecap: round; transform-origin: 7.587px 15.657px; fill: rgb(38, 123, 67);" transform="matrix(-0.142092, -0.989853, 0.989853, -0.142092, -0.000002, 0)"/>
    <path d="M 10.662 17.127 L 10.662 22.48 L 8.044 22.48 L 8.044 19.746 C 8.32 18.517 8.907 17.551 9.638 17.127 L 10.662 17.127 Z" style="stroke: rgb(0, 0, 0); stroke-linejoin: round; stroke-linecap: round; transform-origin: 9.353px 19.804px; fill: rgb(38, 123, 67);" transform="matrix(-0.465849, -0.884864, 0.884864, -0.465849, 0.000001, 0)"/>
    <path d="M 17.44 17.691 L 17.44 12.338 L 14.822 12.338 L 14.822 15.072 C 15.098 16.301 15.685 17.267 16.416 17.691 L 17.44 17.691 Z" style="stroke: rgb(0, 0, 0); stroke-linejoin: round; stroke-linecap: round; transform-origin: 16.131px 15.014px; fill: rgb(38, 123, 67);" transform="matrix(-0.689551, -0.724237, 0.724237, -0.689551, 0.000001, 0)"/>
    <path d="M 14.93 14.622 L 14.93 9.269 L 12.312 9.269 L 12.312 12.003 C 12.588 13.232 13.175 14.198 13.906 14.622 L 14.93 14.622 Z" style="stroke: rgb(0, 0, 0); stroke-linejoin: round; stroke-linecap: round; transform-origin: 13.621px 11.945px; fill: rgb(38, 123, 67);" transform="matrix(-0.782727, -0.622365, 0.622365, -0.782727, -0.000002, -0.000002)"/>
  </g>
  <path d="M 24.968 13.819 L 18.948 19.6 L 21.751 22.57 L 24.826 19.617 C 25.913 17.977 26.371 16.268 26.065 14.98 L 24.968 13.819 Z" style="stroke: rgb(0, 0, 0); stroke-linejoin: round; stroke-linecap: round; transform-origin: 19.042px 6.855px; fill: rgb(38, 123, 67);"/>
  <path d="M 35.705 102.72 L 35.676 102.892 C 37.415 104.668 38.269 108.455 37.654 112.638 C 36.997 117.095 34.875 120.64 32.522 121.609 L 31.289 128.922 L 31.328 128.928 L 29.054 142.424 L 24.724 141.689 C 21.805 140.097 19.735 137.24 19.087 133.945 L 20.25 127.049 L 20.285 127.055 L 24.029 104.845 L 23.872 104.818 L 26.282 90.52 L 31.834 102.064 L 32.032 102.097 C 32.6 101.86 33.182 101.771 33.759 101.857 C 34.381 101.948 34.949 102.233 35.451 102.677 L 35.705 102.72 Z" style="fill: rgb(38, 123, 67); stroke-width: 2px; stroke: rgb(10, 44, 20);"/>
  <path d="M 84.663 68.003 C 84.663 81.041 77.405 92.308 66.882 97.621 C 67.019 97.92 67.136 98.235 67.232 98.562 L 67.232 102.357 L 66.881 102.357 L 67.221 102.483 L 65.783 106.024 C 64.67 107.446 63.173 108.336 61.713 108.435 L 59.134 104.549 L 62.922 99.072 C 65.22 103.895 48.777 104.683 45.416 102.82 L 44.568 99.611 C 44.128 99.48 43.691 99.338 43.259 99.187 L 43.259 101.966 L 45.77 108.146 L 44.04 108.778 C 42.58 108.679 41.083 107.789 39.97 106.367 L 38.532 102.826 L 38.872 102.7 L 38.521 102.7 L 38.521 98.905 C 38.68 98.365 38.896 97.859 39.158 97.405 C 28.864 92.004 21.8 80.867 21.8 68.003 C 21.8 49.847 35.872 35.13 53.231 35.13 C 70.591 35.13 84.663 49.847 84.663 68.003 Z" style="fill: rgb(38, 123, 67); stroke-width: 2px; stroke: rgb(10, 44, 20);"/>
  <rect x="36.142" y="145.179" width="18.485" height="30.497" style="fill: url(&quot;#gradient-3&quot;); stroke-width: 2px; stroke: rgb(10, 44, 20);"/>
  <rect x="51.2" y="148.315" width="18.11" height="30.813" style="stroke: rgb(10, 44, 20); stroke-width: 2px; fill: rgb(38, 123, 67);"/>
  <path d="M 34.927 102.366 L 70.441 102.366 L 70.441 169.849 L 58.497 169.849 L 53.266 154.326 L 46.871 169.849 L 34.927 169.849 L 34.927 102.366 Z" style="fill: rgb(27, 66, 228); stroke-width: 2px; stroke: rgb(14, 29, 91);"/>
  <path d="M 79.446 90.483 L 82.351 103.53 L 82.192 103.565 L 86.703 123.83 L 86.741 123.822 L 88.143 130.114 C 87.569 133.209 85.508 136.002 82.535 137.689 L 78.078 138.683 L 75.334 126.367 L 75.376 126.358 L 75.033 124.821 C 71.939 124.26 68.882 119.91 67.822 114.21 C 66.613 107.699 68.471 101.892 71.971 101.242 C 72.67 101.112 73.382 101.197 74.083 101.469 L 79.446 90.483 Z" style="stroke-width: 2px; stroke: rgb(10, 44, 20); fill: rgb(18, 86, 41);"/>
  <rect x="35.819" y="140.08" width="34.433" height="5.42" style="fill: rgb(21, 41, 124);"/>
  <rect x="35.119" y="136.663" width="35.624" height="4.61" style="fill: rgb(255, 156, 0); stroke: rgb(58, 36, 3);"/>
  <ellipse style="fill: rgb(0, 255, 248); filter: url(&quot;#gaussian-blur-filter-0&quot;); transform-origin: 25.843px 33.348px;" cx="25.843" cy="33.348" rx="2.697" ry="7.521" transform="matrix(0.756465, -0.654034, 0.654034, 0.756465, 1.514841, -0.187547)"/>
  <ellipse style="fill: rgb(0, 255, 248); filter: url(&quot;#gaussian-blur-filter-0&quot;); transform-origin: 25.843px 33.348px;" cx="25.843" cy="33.348" rx="2.697" ry="7.521" transform="matrix(-0.756465, -0.654034, -0.654034, 0.756465, 57.787954, -0.943335)"/>
  <path d="M 28.591 14.312 C 31.46 9.3 37.544 5.36 45.155 3.63 L 54.91 3.63 L 54.91 3.612 L 65.539 3.612 C 73.147 5.343 79.232 9.283 82.103 14.295 L 82.103 17.189 L 82.148 17.189 L 82.148 46.984 L 28.535 46.984 L 28.535 17.189 L 28.591 17.189 L 28.591 14.312 Z" style="stroke: rgb(0, 0, 0); stroke-linejoin: round; stroke-linecap: round; fill: rgb(21, 41, 124);"/>
  <path d="M 84.863 57.292 C 84.863 62.384 79.411 66.874 71.12 69.524 C 71.314 70.219 71.415 70.935 71.415 71.666 C 71.415 78.193 63.342 83.484 53.384 83.484 C 43.426 83.484 35.353 78.193 35.353 71.666 C 35.353 70.867 35.474 70.085 35.706 69.33 C 27.749 66.657 22.557 62.262 22.557 57.292 C 22.557 49.146 36.505 42.543 53.71 42.543 C 70.915 42.543 84.863 49.146 84.863 57.292 Z" style="fill: rgba(0, 0, 0, 0.19);"/>
  <path d="M 12.204 49.121 C 13.469 46.903 16.353 45.13 20.021 44.293 L 28.185 44.293 L 28.185 44.422 L 88.149 44.422 L 88.149 44.436 L 90.254 44.436 C 93.922 45.272 96.806 47.045 98.071 49.263 L 98.071 54.514 C 96.806 56.732 93.922 58.505 90.254 59.341 L 88.149 59.341 L 88.149 59.44 L 28.184 59.44 L 28.184 59.484 L 20.021 59.482 C 16.351 58.646 13.468 56.873 12.202 54.655 L 12.204 51.555 L 12.204 49.121 Z" style="stroke: rgb(0, 0, 0); stroke-linejoin: round; stroke-linecap: round; fill: rgb(21, 41, 124);"/>
  <ellipse style="fill: rgb(9, 16, 49);" cx="55.42" cy="47.138" rx="28.829" ry="6.548"/>
  <path d="M 80.713 13.82 L 80.713 16.426 L 80.772 16.426 L 80.772 43.245 L 64.775 43.245 L 64.775 5.415 C 72.018 7.268 77.703 10.24 80.713 13.82 Z" style="stroke-linejoin: round; stroke-linecap: round; fill: rgb(27, 66, 228);"/>
  <path d="M 28.536 41.203 L 39.36 41.405 L 39.36 41.491 L 71.022 41.491 L 71.022 41.393 L 81.846 41.19 L 81.869 43.592 C 81.026 45.33 79.086 46.742 76.609 47.437 L 71.08 47.54 L 71.077 47.282 L 39.304 47.282 L 39.304 47.288 L 39.01 47.282 L 36.138 47.282 L 36.138 47.229 L 33.776 47.183 C 31.297 46.516 29.358 45.164 28.515 43.501 L 28.536 41.203 Z" style="stroke: rgb(0, 0, 0); stroke-linejoin: round; stroke-linecap: round; fill: rgb(255, 156, 0);"/>
  <path style="stroke-miterlimit: 4.63; stroke-width: 7.48475px; fill: rgb(255, 156, 0); stroke: rgb(21, 41, 124);" transform="matrix(0.080202, 0, 0, 0.085323, 16.562023, 21.256458)" d="M 464.356 181 L 485.644 181 L 490.136 213.513 A 56.55 56.55 0 0 1 502.825 218.769 L 528.992 198.955 L 544.045 214.008 L 524.231 240.175 A 56.55 56.55 0 0 1 529.487 252.864 L 562 257.356 L 562 278.644 L 529.487 283.136 A 56.55 56.55 0 0 1 524.231 295.825 L 544.045 321.992 L 528.992 337.045 L 502.825 317.231 A 56.55 56.55 0 0 1 490.136 322.487 L 485.644 355 L 464.356 355 L 459.864 322.487 A 56.55 56.55 0 0 1 447.175 317.231 L 421.008 337.045 L 405.955 321.992 L 425.769 295.825 A 56.55 56.55 0 0 1 420.513 283.136 L 388 278.644 L 388 257.356 L 420.513 252.864 A 56.55 56.55 0 0 1 425.769 240.175 L 405.955 214.008 L 421.008 198.955 L 447.175 218.769 A 56.55 56.55 0 0 1 459.864 213.513 Z M 475 241.9 A 26.1 26.1 0 0 0 475 294.1 A 26.1 26.1 0 0 0 475 241.9" bx:shape="cog 475 268 26.1 56.55 87 0.38 8 1@36eb139e"/>
  <g transform="matrix(0.857071, -0.310807, 0.349727, 0.936852, -21.772844, 13.712373)" style="transform-origin: 106.623px 125.76px;">
    <path d="M 116.665 103.254 L 118.417 110.124 L 112.383 115.184 L 110.031 113.417 L 113.22 109.182 L 116.077 108.953 C 115.518 106.134 116.665 103.254 116.665 103.254 Z" style="stroke: rgb(0, 0, 0); fill: rgb(0, 37, 188); stroke-width: 2.13146px; transform-origin: 115.123px 109.887px;"/>
    <path d="M 102.291 102.007 L 98.737 108.141 L 103.166 114.651 L 105.911 113.591 L 103.994 108.649 L 101.307 107.65 C 102.611 105.09 102.291 102.007 102.291 102.007 Z" style="stroke: rgb(0, 0, 0); fill: url(&quot;#gradient-14&quot;); stroke-width: 2.13146px; transform-origin: 101.885px 108.591px;"/>
    <rect x="84.576" y="112.778" width="11.697" height="5.315" style="stroke: rgb(0, 0, 0); fill: rgb(13, 21, 55); stroke-width: 2.13146px;" transform="matrix(0.99628, 0.08617, -0.085674, 0.996323, 27.302843, -6.612538)"/>
    <rect x="83.616" y="116.564" width="13.683" height="24.251" style="stroke: rgb(0, 0, 0); fill: rgb(0, 50, 255); stroke-width: 2.13146px;" transform="matrix(0.99628, 0.08617, -0.085674, 0.996323, 27.162148, -7.129084)"/>
    <path d="M 87.085 131.198 L 97.35 137.123 L 93.429 146.71 L 80.741 146.71 L 76.82 137.123 Z" bx:shape="n-gon 87.085 139.773 10.793 8.575 5 0 1@0810c02e" style="stroke: rgb(0, 0, 0); fill: url(&quot;#gradient-11&quot;); stroke-width: 2.13146px;" transform="matrix(0.996280423496, 0.086170283496, -0.085673743983, 0.996323370191, 31.45588805514, -16.284640506086)"/>
    <ellipse style="fill: rgb(0, 255, 255); stroke: url(&quot;#gradient-12&quot;); stroke-width: 2.13146px;" cx="86.593" cy="150.219" rx="5.05" ry="5.186" transform="matrix(0.99628, 0.08617, -0.085674, 0.996323, 31.819004, -13.216475)"/>
    <path d="M 86.579 135.609 L 97.086 142.364 L 93.073 153.294 L 80.085 153.294 L 76.072 142.364 Z" bx:shape="n-gon 86.579 145.385 11.048 9.776 5 0 1@e61df496" style="stroke: rgb(0, 0, 0); fill: url(&quot;#gradient-13&quot;); stroke-width: 2.13146px;" transform="matrix(0.996280423496, 0.086170283496, -0.085673743983, 0.996323370191, 32.17321720802, -17.783982590366)"/>
    <ellipse style="fill: rgba(255, 255, 255, 0.74); stroke-width: 2.13146px;" cx="86.593" cy="150.219" rx="2.529" ry="1.986" transform="matrix(0.99628, 0.08617, -0.085674, 0.996323, 31.466553, -10.969708)"/>
    <path d="M 86.427 141.824 L 96.512 147.334 L 92.66 156.249 L 80.194 156.249 L 76.342 147.334 Z" bx:shape="n-gon 86.427 149.798 10.604 7.974 5 0 1@fb6d40e0" style="fill: rgb(255, 149, 0); stroke: rgb(0, 0, 0); stroke-width: 2.13146px;" transform="matrix(0.996280423496, 0.086170283496, -0.085673743983, 0.996323370191, 32.305510952942, -19.267371590033)"/>
    <path d="M 102.029 130.943 L 99.242 137.077 L 102.715 143.587 L 104.868 142.527 L 103.365 137.585 L 101.257 136.586 C 102.28 134.026 102.029 130.943 102.029 130.943 Z" style="stroke: rgb(0, 0, 0); fill: rgb(131, 76, 0); transform-origin: 101.71px 137.527px;" transform="matrix(0.973946, 0.226781, -0.226781, 0.973946, 0.000001, -0.000001)"/>
    <path d="M 110.196 144.628 L 107.409 138.494 L 110.882 131.984 L 113.035 133.044 L 111.532 137.986 L 109.424 138.985 C 110.447 141.545 110.196 144.628 110.196 144.628 Z" style="stroke: rgb(0, 0, 0); fill: rgb(131, 76, 0); transform-origin: 109.877px 138.044px;" transform="matrix(-1, 0.000443, -0.000443, -1, -0.000004, -0.000019)"/>
  </g>
  <rect x="48.462" y="143.517" width="11.586" height="4.506" style="fill: rgb(21, 41, 124);"/>
  <rect x="49.828" y="134.824" width="3.056" height="7.762" style="fill: rgb(255, 156, 0); stroke: rgb(58, 36, 3);"/>
  <rect x="55.768" y="134.744" width="3.056" height="7.762" style="fill: rgb(255, 156, 0); stroke: rgb(58, 36, 3);"/>
</svg>