<?xml version="1.0" encoding="utf-8"?>
<svg xmlns="http://www.w3.org/2000/svg" viewBox="0 0 110 180" width="110px" height="180px" xmlns:bx="https://boxy-svg.com">
  <defs>
    <linearGradient gradientUnits="userSpaceOnUse" x1="43.08" y1="89.367" x2="43.08" y2="109.039" id="gradient-8" gradientTransform="matrix(1.552848, 0, 0, 1.412954, -14.44317, 21.91728)">
      <stop offset="0" style="stop-color: rgb(8.6275% 32.549% 16.078%)"/>
      <stop offset="1" style="stop-color: rgb(0% 21.246% 5.8187%)"/>
    </linearGradient>
    <linearGradient gradientUnits="userSpaceOnUse" x1="33.017" y1="87.365" x2="33.017" y2="109.039" id="gradient-9" gradientTransform="matrix(1.668197, 0, 0, 1.566338, -16.011078, 5.23049)">
      <stop offset="0" style="stop-color: rgb(26.667% 64.706% 38.431%)"/>
      <stop offset="1" style="stop-color: rgb(0% 39.662% 15.739%)"/>
    </linearGradient>
    <linearGradient gradientUnits="userSpaceOnUse" x1="24.133" y1="53.081" x2="24.133" y2="82.493" id="gradient-10" gradientTransform="matrix(-0.969397, -1.18202, 0.648314, -0.532515, -1.979524, 173.217572)">
      <stop offset="0" style="stop-color: rgb(26.667% 64.706% 38.431%)"/>
      <stop offset="1" style="stop-color: rgb(0% 39.662% 15.739%)"/>
    </linearGradient>
    <linearGradient gradientUnits="userSpaceOnUse" x1="16.555" y1="5.154" x2="16.555" y2="27.222" id="gradient-17" gradientTransform="matrix(0.912469, -1.023272, 0.934986, 0.967489, -10.735683, 23.937469)">
      <stop offset="0" style="stop-color: rgb(26.667% 64.706% 38.431%)"/>
      <stop offset="1" style="stop-color: rgb(0% 39.662% 15.739%)"/>
    </linearGradient>
    <filter id="gaussian-blur-filter-0" bx:preset="gaussian-blur 1 1.2" color-interpolation-filters="sRGB" x="-50%" y="-50%" width="200%" height="200%">
      <feGaussianBlur stdDeviation="1.2 1.2" edgeMode="none"/>
    </filter>
    <filter id="filter-1" bx:preset="gaussian-blur 1 1.2" color-interpolation-filters="sRGB" x="-50%" y="-50%" width="200%" height="200%">
      <feGaussianBlur stdDeviation="1.2 1.2" edgeMode="none"/>
    </filter>
    <linearGradient gradientUnits="userSpaceOnUse" x1="143.447" y1="91.624" x2="143.447" y2="99.572" id="gradient-14">
      <stop offset="0" style="stop-color: rgb(0% 14.51% 73.725%)"/>
      <stop offset="1" style="stop-color: rgb(0% 18.802% 38.225%)"/>
    </linearGradient>
    <radialGradient gradientUnits="userSpaceOnUse" cx="87.085" cy="138.9" r="14.726" id="gradient-11" gradientTransform="matrix(1, 0, 0, 1, 0.000015, 0.000015)">
      <stop offset="0" style="stop-color: rgb(100% 58.431% 0%)"/>
      <stop offset="1" style="stop-color: rgb(64.317% 29.827% 0%)"/>
    </radialGradient>
    <radialGradient gradientUnits="userSpaceOnUse" cx="86.579" cy="144.39" r="12.997" id="gradient-13" gradientTransform="matrix(1.159847, 0, 0, 1, -13.839353, 0.000067)">
      <stop offset="0" style="stop-color: rgb(100% 58.431% 0%)"/>
      <stop offset="1" style="stop-color: rgb(64.317% 29.827% 0%)"/>
    </radialGradient>
    <radialGradient gradientUnits="userSpaceOnUse" cx="86.593" cy="150.219" r="7.676" id="gradient-12" gradientTransform="matrix(1.132039, 0, 0, 1.266574, -11.433768, -40.04508)">
      <stop offset="0" style="stop-color: rgb(48.235% 48.235% 48.235%)"/>
      <stop offset="1" style="stop-color: rgb(28.577% 28.577% 28.577%)"/>
    </radialGradient>
    <linearGradient gradientUnits="userSpaceOnUse" x1="45.272" y1="93.165" x2="45.272" y2="171.479" id="gradient-6">
      <stop offset="0" style="stop-color: rgb(10.588% 25.882% 89.412%)"/>
      <stop offset="1" style="stop-color: rgb(0% 24.045% 48.428%)"/>
    </linearGradient>
    <radialGradient gradientUnits="userSpaceOnUse" cx="46.042" cy="26.559" r="26.81" id="gradient-0">
      <stop offset="0" style="stop-color: rgb(10.588% 25.882% 89.412%)"/>
      <stop offset="1" style="stop-color: rgb(0% 24.045% 48.428%)"/>
    </radialGradient>
    <radialGradient gradientUnits="userSpaceOnUse" cx="45.852" cy="53.764" r="38.75" id="gradient-1">
      <stop offset="0" style="stop-color: rgb(10.588% 25.882% 89.412%)"/>
      <stop offset="1" style="stop-color: rgb(0% 24.045% 48.428%)"/>
    </radialGradient>
  </defs>
  <path d="M 63.892 88.451 L 63.832 112.292 L 63.792 112.292 L 63.762 124.574 L 68.532 124.582 C 71.952 123.616 74.702 121.404 75.992 118.587 L 76.012 112.312 L 75.972 112.312 L 76.022 92.103 L 76.192 92.103 L 76.222 79.093 L 68.162 88.458 L 63.892 88.451 Z" style="stroke: rgb(0, 0, 0); transform-origin: 69.713px 102.218px; fill: rgb(10, 44, 20);" transform="matrix(0.09792, -0.995194, 0.995194, 0.09792, 0.000003, 0.000008)"/>
  <rect x="43.849" y="148.187" width="17.207" height="27.796" style="fill: url(&quot;#gradient-8&quot;); stroke-width: 2px; stroke: rgb(3, 18, 8);"/>
  <rect x="29.822" y="142.072" width="18.485" height="33.949" style="fill: url(&quot;#gradient-9&quot;); stroke-width: 2px; stroke: rgb(3, 18, 8);"/>
  <path d="M 62.012 93.297 L 62.012 171.479 L 59.288 171.479 L 59.929 153.982 L 54.999 171.296 L 46.502 171.479 L 46.502 171.404 L 28.532 171.404 L 28.532 93.165 L 49.252 93.165 L 49.252 93.297 L 62.012 93.297 Z" style="stroke-width: 1.5px; stroke: rgb(13, 21, 55); fill: url(&quot;#gradient-6&quot;);"/>
  <ellipse style="fill: rgb(21, 41, 124); transform-origin: 31.431px 66.892px;" cx="31.431" cy="66.892" rx="4.248" ry="8.208" transform="matrix(0.860305, -0.509779, 0.516445, 0.856355, 22.76197, 35.265946)"/>
  <ellipse style="fill: rgb(21, 41, 124);" cx="44.632" cy="96.461" rx="17.022" ry="10.425"/>
  <path d="M 29.274 120.484 L 29.304 120.483 L 29.31 133.325 L 25.1 133.32 C 22.084 132.302 19.68 129.981 18.543 127.033 L 18.543 120.471 L 18.583 120.471 L 18.587 99.337 L 18.437 99.337 L 18.435 85.732 L 25.524 95.548 L 25.9 95.548 C 26.418 93.119 27.606 91.42 28.99 91.42 C 30.85 91.42 32.358 94.492 32.358 98.281 C 32.358 101.875 31.001 104.824 29.274 105.118 L 29.274 120.484 Z" style="fill: url(&quot;#gradient-10&quot;); stroke-width: 2px; stroke: rgb(3, 18, 8);"/>
  <path d="M 75.652 68.33 C 75.652 73.039 74.622 77.496 72.782 81.469 C 71.762 85.241 70.102 88.438 67.942 90.729 C 68.062 90.955 68.162 91.197 68.252 91.449 L 68.742 94.477 L 68.562 94.505 L 68.752 94.579 L 68.462 97.519 C 68.062 98.744 67.402 99.576 66.652 99.773 L 65.672 99.408 L 66.182 94.275 L 65.892 92.522 C 64.512 93.496 62.982 94.147 61.332 94.416 C 59.812 95.353 58.192 96.149 56.512 96.786 L 58.312 100.832 L 57.492 101.477 C 56.712 101.515 55.822 100.926 55.062 99.882 L 54.042 97.592 C 51.652 98.251 49.152 98.601 46.562 98.601 C 30.502 98.601 17.472 85.048 17.472 68.33 C 17.472 51.612 30.502 38.06 46.562 38.06 C 62.632 38.06 75.652 51.612 75.652 68.33 Z" style="stroke: rgb(0, 0, 0); fill: rgb(38, 123, 67);"/>
  <g transform="matrix(0.992307, 0.123798, -0.108527, 0.869902, -72.678169, 15.469737)" style="transform-origin: 159.642px 88.9199px;">
    <path d="M 137.072 86.404 L 141.787 78.456 L 149.967 80.983 L 149.977 85.205 L 144.327 85.218 L 142.295 82.147 C 140.258 85.226 137.072 86.404 137.072 86.404 Z" style="stroke: rgb(0, 0, 0); fill: rgb(0, 37, 188); stroke-width: 2.13146px;"/>
    <path d="M 136.994 91.624 L 141.709 99.572 L 149.889 97.045 L 149.899 92.823 L 144.249 92.81 L 142.217 95.881 C 140.18 92.802 136.994 91.624 136.994 91.624 Z" style="stroke: rgb(0, 0, 0); fill: url(&quot;#gradient-14&quot;); stroke-width: 2.13146px;"/>
    <rect x="121.34" y="120.203" width="16.782" height="5.665" style="stroke: rgb(0, 0, 0); fill: rgb(13, 21, 55); stroke-width: 2.13146px;" transform="matrix(-0.001597, -0.999999, 0.999996, -0.003565, 28.209553, 219.226349)"/>
    <rect x="119.962" y="124.238" width="19.63" height="25.848" style="stroke: rgb(0, 0, 0); fill: rgb(0, 50, 255); stroke-width: 2.13146px;" transform="matrix(-0.001597, -0.999999, 0.999996, -0.003565, 27.674393, 219.492859)"/>
    <path d="M 87.085 130.633 L 101.811 136.949 L 96.186 147.167 L 77.984 147.167 L 72.359 136.949 Z" bx:shape="n-gon 87.085 139.773 15.484 9.14 5 0 1@efafd5d1" style="stroke: rgb(0, 0, 0); fill: url(&quot;#gradient-11&quot;); stroke-width: 2.13146px;" transform="matrix(-0.001597000047, -0.999998724795, 0.999995581889, -0.003565003563, 26.692048682688, 176.630023654043)"/>
    <path d="M 86.579 134.965 L 101.653 142.165 L 95.895 153.815 L 77.263 153.815 L 71.505 142.165 Z" bx:shape="n-gon 86.579 145.385 15.85 10.42 5 0 1@4cd93789" style="stroke: rgb(0, 0, 0); fill: url(&quot;#gradient-13&quot;); stroke-width: 2.13146px;" transform="matrix(-0.001597000862, -0.999998724793, 0.999995581885, -0.003565005193, 25.402558309378, 176.01350743414)"/>
    <path d="M 86.427 141.299 L 100.895 147.172 L 95.369 156.674 L 77.485 156.674 L 71.959 147.172 Z" bx:shape="n-gon 86.427 149.798 15.213 8.499 5 0 1@52e06b4f" style="fill: rgb(255, 149, 0); stroke: rgb(0, 0, 0); stroke-width: 2.13146px;" transform="matrix(-0.00159700028, -0.999998724794, 0.999995581887, -0.003565004727, 24.10588117976, 176.077426470697)"/>
    <ellipse style="fill: rgb(0, 255, 255); stroke: url(&quot;#gradient-12&quot;); stroke-width: 2.13146px;" cx="86.593" cy="150.219" rx="8.69" ry="6.653" transform="matrix(-0.001597, -0.999999, 0.999996, -0.003565, 25.542422, 176.363579)"/>
    <ellipse style="fill: rgba(255, 255, 255, 0.337); stroke-width: 2.13146px;" cx="86.593" cy="150.219" rx="6.273" ry="4.448" transform="matrix(-0.001597, -0.999999, 0.999996, -0.003565, 27.330264, 176.251)"/>
    <ellipse style="fill: rgba(255, 255, 255, 0.74); stroke-width: 2.13146px;" cx="86.593" cy="150.219" rx="3.629" ry="2.683" transform="matrix(-0.001597, -0.999999, 0.999996, -0.003565, 28.717383, 174.814003)"/>
  </g>
  <path d="M 75.215 68.939 C 75.215 73.648 74.185 78.105 72.345 82.078 C 71.325 85.85 69.665 89.047 67.505 91.338 C 67.625 91.564 67.725 91.806 67.815 92.058 L 68.305 95.086 C 67.972 95.359 68.025 98.128 68.025 98.128 C 67.625 99.353 66.965 100.185 66.215 100.382 L 65.235 100.017 L 65.745 94.884 L 65.455 93.131 C 64.075 94.105 62.545 94.756 60.895 95.025 C 59.375 95.962 57.755 96.758 56.075 97.395 L 57.875 101.441 L 57.055 102.086 C 56.275 102.124 55.385 101.535 54.625 100.491 L 53.605 98.201 C 51.215 98.86 48.715 99.21 46.125 99.21 C 30.065 99.21 17.035 85.657 17.035 68.939 C 17.035 52.221 30.065 38.669 46.125 38.669 C 62.195 38.669 75.215 52.221 75.215 68.939 Z" style="fill: rgb(38, 123, 67); stroke-width: 2px; stroke: rgb(3, 18, 8);"/>
  <ellipse style="fill: rgb(56, 154, 89);" cx="48.742" cy="67.595" rx="26.776" ry="25.876"/>
  <ellipse style="" cx="71.842" cy="62.747" rx="3.508" ry="11.609"/>
  <ellipse style="" cx="53.822" cy="65.77" rx="9.419" ry="11.734"/>
  <path d="M 19.292 15.769 C 22.162 10.846 28.242 6.977 35.852 5.278 L 45.612 5.278 L 45.612 5.26 L 56.242 5.26 C 63.852 6.96 69.932 10.83 72.802 15.752 L 72.802 18.595 L 72.852 18.595 L 72.852 47.859 L 19.232 47.859 L 19.232 18.595 L 19.292 18.595 L 19.292 15.769 Z" style="stroke: rgb(0, 0, 0); stroke-linejoin: round; stroke-linecap: round; fill: url(&quot;#gradient-0&quot;);"/>
  <path d="M 71.502 19.926 L 71.502 22.382 L 71.522 22.382 L 71.522 47.66 L 67.542 47.66 L 67.542 12.005 C 69.342 13.752 70.752 16.552 71.502 19.926 Z" style="stroke-linejoin: round; stroke-linecap: round; fill: rgb(21, 41, 124);"/>
  <path d="M 7.102 50.996 C 8.242 48.778 10.842 47.005 14.152 46.168 L 21.522 46.168 L 21.522 46.297 L 75.642 46.297 L 75.642 46.311 L 77.542 46.311 C 80.852 47.147 83.462 48.92 84.602 51.138 L 84.602 56.389 C 83.462 58.607 80.852 60.38 77.542 61.216 L 75.642 61.216 L 75.642 61.315 L 21.522 61.315 L 21.522 61.359 L 14.152 61.357 C 10.842 60.521 8.242 58.748 7.102 56.53 L 7.102 53.43 L 7.102 50.996 Z" style="stroke: rgb(0, 0, 0); stroke-linejoin: round; stroke-linecap: round; transform-box: fill-box; transform-origin: 50% 50%; fill: url(&quot;#gradient-1&quot;);" transform="matrix(0.99876, 0.049784, -0.049784, 0.99876, 0, 0)"/>
  <path d="M 16.952 41.587 L 28.292 41.794 L 28.292 41.882 L 61.492 41.882 L 61.492 41.782 L 72.832 41.574 L 72.862 44.034 C 71.972 45.813 69.942 47.258 67.342 47.971 L 61.552 48.076 L 61.552 47.812 L 28.242 47.812 L 28.242 47.818 L 27.932 47.812 L 24.912 47.812 L 24.912 47.758 L 22.442 47.71 C 19.842 47.028 17.812 45.643 16.932 43.94 L 16.952 41.587 Z" style="stroke: rgb(0, 0, 0); stroke-linejoin: round; stroke-linecap: round; fill: rgb(255, 156, 0); transform-box: fill-box; transform-origin: 50% 50%;" transform="matrix(0.999457, 0.032948, -0.032948, 0.999457, 0, 0)"/>
  <ellipse style="stroke: rgb(0, 0, 0); fill: rgb(255, 156, 0); transform-box: fill-box; transform-origin: 50% 50%;" cx="60.232" cy="44.855" rx="6.785" ry="11.655" transform="matrix(0.995476, 0.095017, -0.095017, 0.995476, 0.000023, 0.000017)"/>
  <ellipse style="stroke: rgb(0, 0, 0); fill: rgb(255, 156, 0); transform-box: fill-box; transform-origin: 50% 50%;" cx="70.912" cy="44.075" rx="3.112" ry="9.776" transform="matrix(0.99542, 0.095595, -0.095595, 0.99542, -0.00003, 0.00001)"/>
  <g transform="matrix(0.684348, 0, 0, 1.042168, 82.225784, -20.035227)" style="">
    <ellipse style="stroke: rgb(0, 0, 0); fill: rgb(149, 149, 149);" cx="-30.569" cy="62.295" rx="7.479" ry="8.294"/>
    <ellipse style="fill: rgb(96, 96, 96);" cx="-28.592" cy="62.146" rx="4.78" ry="6.392"/>
  </g>
  <ellipse style="stroke: rgb(0, 0, 0); fill: rgb(96, 96, 96); transform-box: fill-box; transform-origin: 50% 50%;" cx="72.022" cy="43.69" rx="1.795" ry="7.944" transform="matrix(0.996404, 0.084728, -0.084728, 0.996404, -0.000007, 0.999952)"/>
  <path style="stroke: rgb(0, 0, 0); stroke-miterlimit: 4.63; stroke-width: 7.48475px; fill: rgb(255, 156, 0); transform-box: fill-box; transform-origin: 50% 50%;" transform="matrix(0.033912, 0.001543, -0.004913, 0.108011, -406.723724, -242.869202)" d="M 464.356 181 L 485.644 181 L 490.136 213.513 A 56.55 56.55 0 0 1 502.825 218.769 L 528.992 198.955 L 544.045 214.008 L 524.231 240.175 A 56.55 56.55 0 0 1 529.487 252.864 L 562 257.356 L 562 278.644 L 529.487 283.136 A 56.55 56.55 0 0 1 524.231 295.825 L 544.045 321.992 L 528.992 337.045 L 502.825 317.231 A 56.55 56.55 0 0 1 490.136 322.487 L 485.644 355 L 464.356 355 L 459.864 322.487 A 56.55 56.55 0 0 1 447.175 317.231 L 421.008 337.045 L 405.955 321.992 L 425.769 295.825 A 56.55 56.55 0 0 1 420.513 283.136 L 388 278.644 L 388 257.356 L 420.513 252.864 A 56.55 56.55 0 0 1 425.769 240.175 L 405.955 214.008 L 421.008 198.955 L 447.175 218.769 A 56.55 56.55 0 0 1 459.864 213.513 Z M 475 241.9 A 26.1 26.1 0 0 0 475 294.1 A 26.1 26.1 0 0 0 475 241.9" bx:shape="cog 475 268 26.1 56.55 87 0.38 8 1@36eb139e"/>
  <g transform="matrix(1, 0, 0, 1, 0.493819, 0.030003)">
    <path d="M 10.692 10.303 L 28.101 28.318 C 28.967 28.063 29.923 27.98 30.911 28.107 C 34.178 28.529 36.538 31.108 36.181 33.867 C 35.824 36.625 32.886 38.518 29.619 38.096 C 26.352 37.673 23.992 35.094 24.35 32.336 C 24.398 31.947 24.501 31.575 24.647 31.224 L 17.78 24.117 C 13.361 18.861 10.311 14.254 9.516 11.621 L 10.692 10.303 Z" style="stroke: rgb(0, 0, 0); stroke-linejoin: round; stroke-linecap: round; fill: url(&quot;#gradient-17&quot;); transform-origin: 22.586px 24.514px;"/>
    <g transform="matrix(1.162362, -0.241129, 0.229157, 1.382408, 0.852939, -1.198307)" style="transform-origin: 11.862px 17.639px;">
      <path d="M 13.052 20.964 L 13.052 26.317 L 10.434 26.317 L 10.434 23.583 C 10.71 22.354 11.297 21.388 12.028 20.964 L 13.052 20.964 Z" style="stroke: rgb(0, 0, 0); stroke-linejoin: round; stroke-linecap: round; fill: rgb(0, 255, 198); transform-box: fill-box; transform-origin: 50% 50%; stroke-width: 0.641198px;" transform="matrix(-0.570538, -0.821271, 0.821271, -0.570538, -0.000001, -0.000002)"/>
      <path d="M 8.896 12.98 L 8.896 18.333 L 6.278 18.333 L 6.278 15.599 C 6.554 14.37 7.141 13.404 7.872 12.98 L 8.896 12.98 Z" style="stroke: rgb(0, 0, 0); stroke-linejoin: round; stroke-linecap: round; fill: rgb(0, 255, 198); transform-origin: 7.587px 15.657px; stroke-width: 0.641194px;" transform="matrix(-0.142092, -0.989853, 0.989853, -0.142092, -0.000002, 0)"/>
      <path d="M 10.662 17.127 L 10.662 22.48 L 8.044 22.48 L 8.044 19.746 C 8.32 18.517 8.907 17.551 9.638 17.127 L 10.662 17.127 Z" style="stroke: rgb(0, 0, 0); stroke-linejoin: round; stroke-linecap: round; fill: rgb(0, 255, 198); transform-origin: 9.353px 19.804px; stroke-width: 0.641197px;" transform="matrix(-0.465849, -0.884864, 0.884864, -0.465849, 0.000001, 0)"/>
      <path d="M 17.44 17.691 L 17.44 12.338 L 14.822 12.338 L 14.822 15.072 C 15.098 16.301 15.685 17.267 16.416 17.691 L 17.44 17.691 Z" style="stroke: rgb(0, 0, 0); stroke-linejoin: round; stroke-linecap: round; fill: rgb(0, 255, 198); transform-origin: 16.131px 15.014px; stroke-width: 0.641199px;" transform="matrix(-0.689551, -0.724237, 0.724237, -0.689551, 0.000001, 0)"/>
      <path d="M 14.93 14.622 L 14.93 9.269 L 12.312 9.269 L 12.312 12.003 C 12.588 13.232 13.175 14.198 13.906 14.622 L 14.93 14.622 Z" style="stroke: rgb(0, 0, 0); stroke-linejoin: round; stroke-linecap: round; fill: rgb(0, 255, 198); transform-origin: 13.621px 11.945px; stroke-width: 0.641199px;" transform="matrix(-0.782727, -0.622365, 0.622365, -0.782727, -0.000002, -0.000002)"/>
    </g>
    <path d="M 21.627 11.482 L 17.234 17.418 L 19.896 19.69 L 22.139 16.657 C 22.868 15.055 23.064 13.475 22.668 12.37 L 21.627 11.482 Z" style="stroke: rgb(0, 0, 0); stroke-linejoin: round; stroke-linecap: round; fill: rgb(0, 255, 198); transform-origin: 23.094px 14.952px;"/>
  </g>
  <ellipse style="fill: rgb(0, 241, 255); filter: url(&quot;#gaussian-blur-filter-0&quot;); transform-origin: 29.944px 33.644px;" cx="29.944" cy="33.644" rx="4.472" ry="2.227" transform="matrix(0.663418, 0.748249, -0.748249, 0.663418, -5.61304, -6.302908)"/>
  <ellipse style="fill: rgb(0, 241, 255); filter: url(&quot;#filter-1&quot;); transform-origin: 29.944px 33.644px;" cx="29.944" cy="33.644" rx="2.5" ry="2.828" transform="matrix(0.663418, 0.748249, -0.748249, 0.663418, -2.08427, -4.164542)"/>
  <g transform="matrix(0.996276, 0.086219, -0.086219, 0.996276, 2.344447, 1.471065)" style="transform-origin: 44.106px 139.267px;">
    <rect x="26.896" y="138.646" width="32.233" height="5.42" style="fill: rgb(21, 41, 124);"/>
    <rect x="25.285" y="135.229" width="33.409" height="6.283" style="fill: rgb(255, 156, 0); stroke: rgb(58, 36, 3);"/>
    <path d="M 57.321 -145.587 L 62.927 -140.759 L 60.786 -132.947 L 53.856 -132.947 L 51.715 -140.759 Z" bx:shape="n-gon 57.321 -138.6 5.895 6.987 5 0 1@bbb03090" style="fill: rgb(119, 77, 10); stroke: rgb(58, 36, 3);" transform="matrix(1, 0, 0, -1, 0, 0)"/>
    <path d="M 58.601 -142.926 L 60.604 -139.446 L 59.839 -133.816 L 57.363 -133.816 L 56.598 -139.446 Z" bx:shape="n-gon 58.601 -137.89 2.106 5.036 5 0 1@5a4f3e56" style="fill: rgb(0, 234, 255); stroke: rgb(10, 69, 67);" transform="matrix(1, 0, 0, -1, 0, 0)"/>
  </g>
</svg>