<?xml version="1.0" encoding="utf-8"?>
<svg xmlns="http://www.w3.org/2000/svg" viewBox="0 0 110 180" width="110px" height="180px" xmlns:bx="https://boxy-svg.com">
  <defs>
    <linearGradient gradientUnits="userSpaceOnUse" x1="16.555" y1="5.154" x2="16.555" y2="27.222" id="gradient-18" gradientTransform="matrix(0.92075, -1.257498, 1.251279, 0.932721, -12.065499, 28.621002)">
      <stop offset="0" style="stop-color: rgb(26.667% 64.706% 38.431%)"/>
      <stop offset="1" style="stop-color: rgb(0% 39.662% 15.739%)"/>
    </linearGradient>
    <linearGradient gradientUnits="userSpaceOnUse" x1="43.08" y1="89.367" x2="43.08" y2="109.039" id="gradient-20" gradientTransform="matrix(1.281552, 0, 0, 1.412954, -1.975899, 23.605968)">
      <stop offset="0" style="stop-color: rgb(8.6275% 32.549% 16.078%)"/>
      <stop offset="1" style="stop-color: rgb(0% 21.246% 5.8187%)"/>
    </linearGradient>
    <linearGradient gradientUnits="userSpaceOnUse" x1="33.017" y1="87.365" x2="33.017" y2="109.039" id="gradient-21" gradientTransform="matrix(1.668197, 0, 0, 1.566338, -17.734169, 5.919179)">
      <stop offset="0" style="stop-color: rgb(26.667% 64.706% 38.431%)"/>
      <stop offset="1" style="stop-color: rgb(0% 39.662% 15.739%)"/>
    </linearGradient>
    <linearGradient gradientUnits="userSpaceOnUse" x1="23.073" y1="55.781" x2="23.073" y2="85.193" id="gradient-22" gradientTransform="matrix(-1.507466, -0.25387, 0.153227, -0.914086, 49.742274, 183.595152)">
      <stop offset="0" style="stop-color: rgb(26.667% 64.706% 38.431%)"/>
      <stop offset="1" style="stop-color: rgb(0% 39.662% 15.739%)"/>
    </linearGradient>
    <linearGradient gradientUnits="userSpaceOnUse" x1="16.555" y1="5.154" x2="16.555" y2="27.222" id="gradient-17" gradientTransform="matrix(0.912469, -1.023272, 0.934986, 0.967489, -10.735683, 23.937469)">
      <stop offset="0" style="stop-color: rgb(26.667% 64.706% 38.431%)"/>
      <stop offset="1" style="stop-color: rgb(0% 39.662% 15.739%)"/>
    </linearGradient>
    <filter id="filter-1" bx:preset="gaussian-blur 1 1.2" color-interpolation-filters="sRGB" x="-50%" y="-50%" width="200%" height="200%">
      <feGaussianBlur stdDeviation="1.2 1.2" edgeMode="none"/>
    </filter>
    <linearGradient gradientUnits="userSpaceOnUse" x1="143.447" y1="91.624" x2="143.447" y2="99.572" id="gradient-14">
      <stop offset="0" style="stop-color: rgb(0% 14.51% 73.725%)"/>
      <stop offset="1" style="stop-color: rgb(0% 18.802% 38.225%)"/>
    </linearGradient>
    <radialGradient gradientUnits="userSpaceOnUse" cx="87.085" cy="138.9" r="14.726" id="gradient-11" gradientTransform="matrix(1, 0, 0, 1, 0.000015, 0.000015)">
      <stop offset="0" style="stop-color: rgb(100% 58.431% 0%)"/>
      <stop offset="1" style="stop-color: rgb(64.317% 29.827% 0%)"/>
    </radialGradient>
    <radialGradient gradientUnits="userSpaceOnUse" cx="86.579" cy="144.39" r="12.997" id="gradient-13" gradientTransform="matrix(1.159847, 0, 0, 1, -13.839353, 0.000067)">
      <stop offset="0" style="stop-color: rgb(100% 58.431% 0%)"/>
      <stop offset="1" style="stop-color: rgb(64.317% 29.827% 0%)"/>
    </radialGradient>
    <radialGradient gradientUnits="userSpaceOnUse" cx="86.593" cy="150.219" r="7.676" id="gradient-12" gradientTransform="matrix(1.132039, 0, 0, 1.266574, -11.433768, -40.04508)">
      <stop offset="0" style="stop-color: rgb(48.235% 48.235% 48.235%)"/>
      <stop offset="1" style="stop-color: rgb(28.577% 28.577% 28.577%)"/>
    </radialGradient>
    <radialGradient gradientUnits="userSpaceOnUse" cx="45.319" cy="26.862" r="26.81" id="gradient-0">
      <stop offset="0" style="stop-color: rgb(10.588% 25.882% 89.412%)"/>
      <stop offset="1" style="stop-color: rgb(0% 24.045% 48.428%)"/>
    </radialGradient>
    <radialGradient gradientUnits="userSpaceOnUse" cx="45.129" cy="53.452" r="38.75" id="gradient-1">
      <stop offset="0" style="stop-color: rgb(10.588% 25.882% 89.412%)"/>
      <stop offset="1" style="stop-color: rgb(0% 24.045% 48.428%)"/>
    </radialGradient>
  </defs>
  <g style="transform-origin: 22.829px 19.796px;" transform="matrix(0.836036, 0.083977, -0.089959, 0.895595, 25.757353, -1.660232)">
    <path d="M 11.143 10.54 L 34.442 27.907 C 35.424 27.503 36.541 27.275 37.726 27.274 C 41.647 27.274 44.826 29.779 44.826 32.869 C 44.825 35.959 41.647 38.464 37.726 38.464 C 33.805 38.464 30.626 35.959 30.627 32.869 C 30.626 32.433 30.69 32.009 30.809 31.601 L 21.619 24.75 C 15.6 19.589 11.297 14.947 9.957 12.16 L 11.143 10.54 Z" style="stroke: rgb(0, 0, 0); stroke-linejoin: round; stroke-linecap: round; fill: url(&quot;#gradient-18&quot;);"/>
    <g transform="matrix(1.335116, -0.431347, 0.481542, 1.490481, 2.60658, -0.620358)" style="transform-origin: 11.862px 17.639px;">
      <path d="M 13.052 20.964 L 13.052 26.317 L 10.434 26.317 L 10.434 23.583 C 10.71 22.354 11.297 21.388 12.028 20.964 L 13.052 20.964 Z" style="stroke: rgb(0, 0, 0); stroke-linejoin: round; stroke-linecap: round; fill: rgb(0, 255, 198); transform-box: fill-box; transform-origin: 50% 50%; stroke-width: 0.641198px;" transform="matrix(-0.570538, -0.821271, 0.821271, -0.570538, -0.000001, -0.000002)"/>
      <path d="M 8.896 12.98 L 8.896 18.333 L 6.278 18.333 L 6.278 15.599 C 6.554 14.37 7.141 13.404 7.872 12.98 L 8.896 12.98 Z" style="stroke: rgb(0, 0, 0); stroke-linejoin: round; stroke-linecap: round; fill: rgb(0, 255, 198); transform-origin: 7.587px 15.657px; stroke-width: 0.641194px;" transform="matrix(-0.142092, -0.989853, 0.989853, -0.142092, -0.000002, 0)"/>
      <path d="M 10.662 17.127 L 10.662 22.48 L 8.044 22.48 L 8.044 19.746 C 8.32 18.517 8.907 17.551 9.638 17.127 L 10.662 17.127 Z" style="stroke: rgb(0, 0, 0); stroke-linejoin: round; stroke-linecap: round; fill: rgb(0, 255, 198); transform-origin: 9.353px 19.804px; stroke-width: 0.641197px;" transform="matrix(-0.465849, -0.884864, 0.884864, -0.465849, 0.000001, 0)"/>
      <path d="M 17.44 17.691 L 17.44 12.338 L 14.822 12.338 L 14.822 15.072 C 15.098 16.301 15.685 17.267 16.416 17.691 L 17.44 17.691 Z" style="stroke: rgb(0, 0, 0); stroke-linejoin: round; stroke-linecap: round; fill: rgb(0, 255, 198); transform-origin: 16.131px 15.014px; stroke-width: 0.641199px;" transform="matrix(-0.689551, -0.724237, 0.724237, -0.689551, 0.000001, 0)"/>
      <path d="M 14.93 14.622 L 14.93 9.269 L 12.312 9.269 L 12.312 12.003 C 12.588 13.232 13.175 14.198 13.906 14.622 L 14.93 14.622 Z" style="stroke: rgb(0, 0, 0); stroke-linejoin: round; stroke-linecap: round; fill: rgb(0, 255, 198); transform-origin: 13.621px 11.945px; stroke-width: 0.641199px;" transform="matrix(-0.782727, -0.622365, 0.622365, -0.782727, -0.000002, -0.000002)"/>
    </g>
    <path d="M 25.423 10.751 L 19.403 16.532 L 22.206 19.502 L 25.281 16.549 C 26.368 14.909 26.826 13.2 26.52 11.912 L 25.423 10.751 Z" style="stroke: rgb(0, 0, 0); stroke-linejoin: round; stroke-linecap: round; fill: rgb(0, 255, 198); transform-origin: 23.094px 14.952px;" transform="matrix(0.964438, -0.264309, 0.264309, 0.964438, 0, 0.000001)"/>
  </g>
  <path d="M 63.169 88.14 L 63.109 111.981 L 63.069 111.981 L 63.039 124.263 L 67.809 124.271 C 71.229 123.305 73.979 121.093 75.269 118.276 L 75.289 112.001 L 75.249 112.001 L 75.299 91.792 L 75.469 91.792 L 75.499 78.782 L 67.439 88.147 L 63.169 88.14 Z" style="stroke: rgb(0, 0, 0); transform-origin: 68.99px 101.907px; fill: rgb(10, 44, 20);" transform="matrix(-0.047699, -0.998862, 0.998862, -0.047699, 0.000001, 0.000002)"/>
  <rect x="46.132" y="149.876" width="14.201" height="27.796" style="fill: url(&quot;#gradient-20&quot;); stroke-width: 2px; stroke: rgb(3, 18, 8);"/>
  <rect x="28.099" y="142.761" width="18.485" height="33.949" style="fill: url(&quot;#gradient-21&quot;); stroke-width: 2px; stroke: rgb(3, 18, 8);"/>
  <path d="M 61.289 94.986 L 61.289 173.168 L 56.069 173.168 L 53.789 155.184 L 50.989 173.168 L 45.779 173.168 L 45.779 173.093 L 27.809 173.093 L 27.809 94.854 L 48.529 94.854 L 48.529 94.986 L 61.289 94.986 Z" style="fill: rgb(27, 66, 228); stroke-width: 1.5px; stroke: rgb(13, 21, 55);"/>
  <ellipse style="fill: rgb(21, 41, 124); transform-origin: 31.431px 66.892px;" cx="31.431" cy="66.892" rx="4.248" ry="6.831" transform="matrix(0.860305, -0.509779, 0.516445, 0.856355, 21.327744, 35.775468)"/>
  <ellipse style="fill: rgb(21, 41, 124);" cx="44.432" cy="97.566" rx="16.499" ry="9.841"/>
  <path d="M 28.551 122.173 L 28.581 122.172 L 28.587 135.014 L 24.377 135.009 C 21.361 133.991 18.957 131.67 17.82 128.722 L 17.82 122.16 L 17.86 122.16 L 17.864 101.026 L 17.714 101.026 L 17.712 87.421 L 23.522 95.466 C 24.183 94.224 25.116 93.451 26.15 93.451 C 28.151 93.451 29.773 96.347 29.773 99.919 C 29.773 101.847 29.3 103.578 28.551 104.762 L 28.551 122.173 Z" style="fill: url(&quot;#gradient-22&quot;); stroke-width: 2px; stroke: rgb(3, 18, 8);"/>
  <g transform="matrix(0.993564, -0.113277, 0.099304, 0.871003, -73.174408, 11.678259)" style="transform-origin: 159.642px 88.9199px;">
    <path d="M 137.072 86.404 L 141.787 78.456 L 149.967 80.983 L 149.977 85.205 L 144.327 85.218 L 142.295 82.147 C 140.258 85.226 137.072 86.404 137.072 86.404 Z" style="stroke: rgb(0, 0, 0); fill: rgb(0, 37, 188); stroke-width: 2.13146px;"/>
    <path d="M 136.994 91.624 L 141.709 99.572 L 149.889 97.045 L 149.899 92.823 L 144.249 92.81 L 142.217 95.881 C 140.18 92.802 136.994 91.624 136.994 91.624 Z" style="stroke: rgb(0, 0, 0); fill: url(&quot;#gradient-14&quot;); stroke-width: 2.13146px;"/>
    <rect x="121.34" y="120.203" width="16.782" height="5.665" style="stroke: rgb(0, 0, 0); fill: rgb(13, 21, 55); stroke-width: 2.13146px;" transform="matrix(-0.001597, -0.999999, 0.999996, -0.003565, 28.209553, 219.226349)"/>
    <rect x="119.962" y="124.238" width="19.63" height="25.848" style="stroke: rgb(0, 0, 0); fill: rgb(0, 50, 255); stroke-width: 2.13146px;" transform="matrix(-0.001597, -0.999999, 0.999996, -0.003565, 27.674393, 219.492859)"/>
    <path d="M 87.085 130.633 L 101.811 136.949 L 96.186 147.167 L 77.984 147.167 L 72.359 136.949 Z" bx:shape="n-gon 87.085 139.773 15.484 9.14 5 0 1@efafd5d1" style="stroke: rgb(0, 0, 0); fill: url(&quot;#gradient-11&quot;); stroke-width: 2.13146px;" transform="matrix(-0.001597000047, -0.999998724795, 0.999995581889, -0.003565003563, 26.692048682688, 176.630023654043)"/>
    <path d="M 86.579 134.965 L 101.653 142.165 L 95.895 153.815 L 77.263 153.815 L 71.505 142.165 Z" bx:shape="n-gon 86.579 145.385 15.85 10.42 5 0 1@4cd93789" style="stroke: rgb(0, 0, 0); fill: url(&quot;#gradient-13&quot;); stroke-width: 2.13146px;" transform="matrix(-0.001597000862, -0.999998724793, 0.999995581885, -0.003565005193, 25.402558309378, 176.01350743414)"/>
    <path d="M 86.427 141.299 L 100.895 147.172 L 95.369 156.674 L 77.485 156.674 L 71.959 147.172 Z" bx:shape="n-gon 86.427 149.798 15.213 8.499 5 0 1@52e06b4f" style="fill: rgb(255, 149, 0); stroke: rgb(0, 0, 0); stroke-width: 2.13146px;" transform="matrix(-0.00159700028, -0.999998724794, 0.999995581887, -0.003565004727, 24.10588117976, 176.077426470697)"/>
    <ellipse style="fill: rgb(0, 255, 255); stroke: url(&quot;#gradient-12&quot;); stroke-width: 2.13146px;" cx="86.593" cy="150.219" rx="8.69" ry="6.653" transform="matrix(-0.001597, -0.999999, 0.999996, -0.003565, 25.542422, 176.363579)"/>
    <ellipse style="fill: rgba(255, 255, 255, 0.337); stroke-width: 2.13146px;" cx="86.593" cy="150.219" rx="6.273" ry="4.448" transform="matrix(-0.001597, -0.999999, 0.999996, -0.003565, 27.330264, 176.251)"/>
    <ellipse style="fill: rgba(255, 255, 255, 0.74); stroke-width: 2.13146px;" cx="86.593" cy="150.219" rx="3.629" ry="2.683" transform="matrix(-0.001597, -0.999999, 0.999996, -0.003565, 28.717383, 174.814003)"/>
  </g>
  <path d="M 74.929 70.019 C 74.929 74.728 73.899 79.185 72.059 83.158 C 71.039 86.93 69.379 90.127 67.219 92.418 C 67.339 92.644 67.439 92.886 67.529 93.138 L 67.913 95.105 C 67.996 95.207 67.739 99.208 67.739 99.208 C 67.339 100.433 66.679 101.265 65.929 101.462 L 64.949 101.097 C 63.789 95.185 65.604 93.8 63.954 94.069 C 62.434 95.006 59.142 96.674 57.462 97.311 L 57.589 102.521 L 56.769 103.166 C 55.989 103.204 55.099 102.615 54.339 101.571 L 53.319 99.281 C 50.929 99.94 48.429 100.29 45.839 100.29 C 29.779 100.29 16.749 86.737 16.749 70.019 C 16.749 53.301 29.779 39.749 45.839 39.749 C 61.909 39.749 74.929 53.301 74.929 70.019 Z" style="fill: rgb(38, 123, 67); stroke-width: 2px; stroke: rgb(3, 18, 8);"/>
  <ellipse style="fill: rgb(56, 154, 89);" cx="48.019" cy="69.284" rx="26.776" ry="25.876"/>
  <ellipse style="" cx="71.119" cy="65.373" rx="3.508" ry="12.546"/>
  <ellipse style="" cx="53.099" cy="68.271" rx="9.419" ry="12.546"/>
  <path d="M 18.569 15.876 C 21.439 10.864 27.519 6.924 35.129 5.194 L 44.889 5.194 L 44.889 5.176 L 55.519 5.176 C 63.129 6.907 69.209 10.847 72.079 15.859 L 72.079 18.753 L 72.129 18.753 L 72.129 48.548 L 18.509 48.548 L 18.509 18.753 L 18.569 18.753 L 18.569 15.876 Z" style="stroke: rgb(0, 0, 0); stroke-linejoin: round; stroke-linecap: round; fill: url(&quot;#gradient-0&quot;);"/>
  <path d="M 70.779 21.615 L 70.779 24.071 L 70.799 24.071 L 70.799 49.349 L 66.819 49.349 L 66.819 13.694 C 68.619 15.441 70.029 18.241 70.779 21.615 Z" style="stroke-linejoin: round; stroke-linecap: round; fill: rgb(21, 41, 124);"/>
  <path d="M 6.379 50.685 C 7.519 48.467 10.119 46.694 13.429 45.857 L 20.799 45.857 L 20.799 45.986 L 74.919 45.986 L 74.919 46 L 76.819 46 C 80.129 46.836 82.739 48.609 83.879 50.827 L 83.879 56.078 C 82.739 58.296 80.129 60.069 76.819 60.905 L 74.919 60.905 L 74.919 61.004 L 20.799 61.004 L 20.799 61.048 L 13.429 61.046 C 10.119 60.21 7.519 58.437 6.379 56.219 L 6.379 53.119 L 6.379 50.685 Z" style="stroke: rgb(0, 0, 0); stroke-linejoin: round; stroke-linecap: round; fill: url(&quot;#gradient-1&quot;);"/>
  <path d="M 16.229 42.276 L 27.569 42.483 L 27.569 42.571 L 60.769 42.571 L 60.769 42.471 L 72.109 42.263 L 72.139 44.723 C 71.249 46.502 69.219 47.947 66.619 48.66 L 60.829 48.765 L 60.829 48.501 L 27.519 48.501 L 27.519 48.507 L 27.209 48.501 L 24.189 48.501 L 24.189 48.447 L 21.719 48.399 C 19.119 47.717 17.089 46.332 16.209 44.629 L 16.229 42.276 Z" style="stroke: rgb(0, 0, 0); stroke-linejoin: round; stroke-linecap: round; fill: rgb(255, 156, 0);"/>
  <ellipse style="stroke: rgb(0, 0, 0); fill: rgb(255, 156, 0);" cx="59.509" cy="46.544" rx="6.785" ry="11.655"/>
  <ellipse style="stroke: rgb(0, 0, 0); fill: rgb(255, 156, 0);" cx="70.189" cy="45.764" rx="3.112" ry="9.776"/>
  <g transform="matrix(0.684348, 0, 0, 1.042168, 81.502693, -18.346539)" style="">
    <ellipse style="stroke: rgb(0, 0, 0); fill: rgb(149, 149, 149);" cx="-30.569" cy="62.295" rx="7.479" ry="8.294"/>
    <ellipse style="fill: rgb(96, 96, 96);" cx="-28.592" cy="62.146" rx="4.78" ry="6.392"/>
  </g>
  <ellipse style="stroke: rgb(0, 0, 0); fill: rgb(96, 96, 96);" cx="71.299" cy="45.379" rx="1.795" ry="7.944"/>
  <path style="stroke: rgb(0, 0, 0); stroke-miterlimit: 4.63; stroke-width: 7.48475px; fill: rgb(255, 156, 0);" transform="matrix(0.033947, 0, 0, 0.108123, 51.428356, -2.157472)" d="M 464.356 181 L 485.644 181 L 490.136 213.513 A 56.55 56.55 0 0 1 502.825 218.769 L 528.992 198.955 L 544.045 214.008 L 524.231 240.175 A 56.55 56.55 0 0 1 529.487 252.864 L 562 257.356 L 562 278.644 L 529.487 283.136 A 56.55 56.55 0 0 1 524.231 295.825 L 544.045 321.992 L 528.992 337.045 L 502.825 317.231 A 56.55 56.55 0 0 1 490.136 322.487 L 485.644 355 L 464.356 355 L 459.864 322.487 A 56.55 56.55 0 0 1 447.175 317.231 L 421.008 337.045 L 405.955 321.992 L 425.769 295.825 A 56.55 56.55 0 0 1 420.513 283.136 L 388 278.644 L 388 257.356 L 420.513 252.864 A 56.55 56.55 0 0 1 425.769 240.175 L 405.955 214.008 L 421.008 198.955 L 447.175 218.769 A 56.55 56.55 0 0 1 459.864 213.513 Z M 475 241.9 A 26.1 26.1 0 0 0 475 294.1 A 26.1 26.1 0 0 0 475 241.9" bx:shape="cog 475 268 26.1 56.55 87 0.38 8 1@36eb139e"/>
  <g transform="matrix(1, 0, 0, 1, 0.311968, 0.92519)">
    <path d="M 10.692 10.303 L 28.101 28.318 C 28.967 28.063 29.923 27.98 30.911 28.107 C 34.178 28.529 36.538 31.108 36.181 33.867 C 35.824 36.625 32.886 38.518 29.619 38.096 C 26.352 37.673 23.992 35.094 24.35 32.336 C 24.398 31.947 24.501 31.575 24.647 31.224 L 17.78 24.117 C 13.361 18.861 10.311 14.254 9.516 11.621 L 10.692 10.303 Z" style="stroke: rgb(0, 0, 0); stroke-linejoin: round; stroke-linecap: round; fill: url(&quot;#gradient-17&quot;); transform-origin: 22.586px 24.514px;"/>
    <g transform="matrix(1.162362, -0.241129, 0.229157, 1.382408, 0.852939, -1.198307)" style="transform-origin: 11.862px 17.639px;">
      <path d="M 13.052 20.964 L 13.052 26.317 L 10.434 26.317 L 10.434 23.583 C 10.71 22.354 11.297 21.388 12.028 20.964 L 13.052 20.964 Z" style="stroke: rgb(0, 0, 0); stroke-linejoin: round; stroke-linecap: round; fill: rgb(0, 255, 198); transform-box: fill-box; transform-origin: 50% 50%; stroke-width: 0.641198px;" transform="matrix(-0.570538, -0.821271, 0.821271, -0.570538, -0.000001, -0.000002)"/>
      <path d="M 8.896 12.98 L 8.896 18.333 L 6.278 18.333 L 6.278 15.599 C 6.554 14.37 7.141 13.404 7.872 12.98 L 8.896 12.98 Z" style="stroke: rgb(0, 0, 0); stroke-linejoin: round; stroke-linecap: round; fill: rgb(0, 255, 198); transform-origin: 7.587px 15.657px; stroke-width: 0.641194px;" transform="matrix(-0.142092, -0.989853, 0.989853, -0.142092, -0.000002, 0)"/>
      <path d="M 10.662 17.127 L 10.662 22.48 L 8.044 22.48 L 8.044 19.746 C 8.32 18.517 8.907 17.551 9.638 17.127 L 10.662 17.127 Z" style="stroke: rgb(0, 0, 0); stroke-linejoin: round; stroke-linecap: round; fill: rgb(0, 255, 198); transform-origin: 9.353px 19.804px; stroke-width: 0.641197px;" transform="matrix(-0.465849, -0.884864, 0.884864, -0.465849, 0.000001, 0)"/>
      <path d="M 17.44 17.691 L 17.44 12.338 L 14.822 12.338 L 14.822 15.072 C 15.098 16.301 15.685 17.267 16.416 17.691 L 17.44 17.691 Z" style="stroke: rgb(0, 0, 0); stroke-linejoin: round; stroke-linecap: round; fill: rgb(0, 255, 198); transform-origin: 16.131px 15.014px; stroke-width: 0.641199px;" transform="matrix(-0.689551, -0.724237, 0.724237, -0.689551, 0.000001, 0)"/>
      <path d="M 14.93 14.622 L 14.93 9.269 L 12.312 9.269 L 12.312 12.003 C 12.588 13.232 13.175 14.198 13.906 14.622 L 14.93 14.622 Z" style="stroke: rgb(0, 0, 0); stroke-linejoin: round; stroke-linecap: round; fill: rgb(0, 255, 198); transform-origin: 13.621px 11.945px; stroke-width: 0.641199px;" transform="matrix(-0.782727, -0.622365, 0.622365, -0.782727, -0.000002, -0.000002)"/>
    </g>
    <path d="M 21.627 11.482 L 17.234 17.418 L 19.896 19.69 L 22.139 16.657 C 22.868 15.055 23.064 13.475 22.668 12.37 L 21.627 11.482 Z" style="stroke: rgb(0, 0, 0); stroke-linejoin: round; stroke-linecap: round; fill: rgb(0, 255, 198); transform-origin: 23.094px 14.952px;"/>
  </g>
  <ellipse style="fill: rgb(0, 241, 255); filter: url(&quot;#filter-1&quot;); transform-origin: 29.944px 33.644px;" cx="29.944" cy="33.644" rx="6.562" ry="2.227" transform="matrix(0.627234, 0.778831, -0.778831, 0.627234, -15.602344, -16.470896)"/>
  <g transform="matrix(1, 0, 0, 1, 0.769841, 5.336991)">
    <rect x="26.896" y="138.646" width="32.233" height="5.42" style="fill: rgb(21, 41, 124);"/>
    <rect x="25.285" y="135.229" width="33.409" height="6.283" style="fill: rgb(255, 156, 0); stroke: rgb(58, 36, 3);"/>
    <path d="M 57.321 -145.587 L 62.927 -140.759 L 60.786 -132.947 L 53.856 -132.947 L 51.715 -140.759 Z" bx:shape="n-gon 57.321 -138.6 5.895 6.987 5 0 1@bbb03090" style="fill: rgb(119, 77, 10); stroke: rgb(58, 36, 3);" transform="matrix(1, 0, 0, -1, 0, 0)"/>
    <path d="M 58.601 -142.926 L 60.604 -139.446 L 59.839 -133.816 L 57.363 -133.816 L 56.598 -139.446 Z" bx:shape="n-gon 58.601 -137.89 2.106 5.036 5 0 1@5a4f3e56" style="fill: rgb(0, 234, 255); stroke: rgb(10, 69, 67);" transform="matrix(1, 0, 0, -1, 0, 0)"/>
  </g>
</svg>