<?xml version="1.0" encoding="utf-8"?>
<svg xmlns="http://www.w3.org/2000/svg" viewBox="0 0 110 180" width="110px" height="180px" xmlns:bx="https://boxy-svg.com">
  <defs>
    <linearGradient gradientUnits="userSpaceOnUse" x1="16.555" y1="5.154" x2="16.555" y2="27.222" id="gradient-12" gradientTransform="matrix(0.882903, -1.048887, 0.962207, 0.940419, 18.818217, 23.323229)">
      <stop offset="0" style="stop-color: rgb(26.667% 64.706% 38.431%)"/>
      <stop offset="1" style="stop-color: rgb(0% 39.662% 15.739%)"/>
    </linearGradient>
    <linearGradient gradientUnits="userSpaceOnUse" x1="43.08" y1="89.367" x2="43.08" y2="109.039" id="gradient-14" gradientTransform="matrix(1.139289, 0, 0, 1.412954, 5.139796, 23.820137)">
      <stop offset="0" style="stop-color: rgb(8.6275% 32.549% 16.078%)"/>
      <stop offset="1" style="stop-color: rgb(0% 21.246% 5.8187%)"/>
    </linearGradient>
    <linearGradient gradientUnits="userSpaceOnUse" x1="33.017" y1="87.365" x2="33.017" y2="109.039" id="gradient-15" gradientTransform="matrix(1.668197, 0, 0, 1.566338, -16.72666, 4.97682)">
      <stop offset="0" style="stop-color: rgb(26.667% 64.706% 38.431%)"/>
      <stop offset="1" style="stop-color: rgb(0% 39.662% 15.739%)"/>
    </linearGradient>
    <linearGradient gradientUnits="userSpaceOnUse" x1="16.555" y1="5.154" x2="16.555" y2="27.222" id="gradient-17" gradientTransform="matrix(0.912469, -1.023272, 0.934986, 0.967489, -10.735683, 23.937469)">
      <stop offset="0" style="stop-color: rgb(26.667% 64.706% 38.431%)"/>
      <stop offset="1" style="stop-color: rgb(0% 39.662% 15.739%)"/>
    </linearGradient>
    <filter id="gaussian-blur-filter-0" bx:preset="gaussian-blur 1 1.2" color-interpolation-filters="sRGB" x="-50%" y="-50%" width="200%" height="200%">
      <feGaussianBlur stdDeviation="1.2 1.2" edgeMode="none"/>
    </filter>
    <linearGradient gradientUnits="userSpaceOnUse" x1="28.033" y1="91.417" x2="28.033" y2="132.767" id="gradient-0" gradientTransform="matrix(-0.874532, 0.484968, -0.324083, -0.584413, 89.124194, 169.464433)">
      <stop offset="0" style="stop-color: rgb(14.902% 48.235% 26.275%)"/>
      <stop offset="1" style="stop-color: rgb(0% 30.313% 10.068%)"/>
    </linearGradient>
    <linearGradient gradientUnits="userSpaceOnUse" x1="143.447" y1="91.624" x2="143.447" y2="99.572" id="gradient-1">
      <stop offset="0" style="stop-color: rgb(0% 14.51% 73.725%)"/>
      <stop offset="1" style="stop-color: rgb(0% 18.802% 38.225%)"/>
    </linearGradient>
    <radialGradient gradientUnits="userSpaceOnUse" cx="87.085" cy="138.9" r="14.726" id="gradient-11" gradientTransform="matrix(1, 0, 0, 1, 0.000015, 0.000015)">
      <stop offset="0" style="stop-color: rgb(100% 58.431% 0%)"/>
      <stop offset="1" style="stop-color: rgb(64.317% 29.827% 0%)"/>
    </radialGradient>
    <radialGradient gradientUnits="userSpaceOnUse" cx="86.579" cy="144.39" r="12.997" id="gradient-2" gradientTransform="matrix(1.159847, 0, 0, 1, -13.839353, 0.000067)">
      <stop offset="0" style="stop-color: rgb(100% 58.431% 0%)"/>
      <stop offset="1" style="stop-color: rgb(64.317% 29.827% 0%)"/>
    </radialGradient>
    <radialGradient gradientUnits="userSpaceOnUse" cx="86.593" cy="150.219" r="7.676" id="gradient-3" gradientTransform="matrix(1.132039, 0, 0, 1.266574, -11.433768, -40.04508)">
      <stop offset="0" style="stop-color: rgb(48.235% 48.235% 48.235%)"/>
      <stop offset="1" style="stop-color: rgb(28.577% 28.577% 28.577%)"/>
    </radialGradient>
    <linearGradient gradientUnits="userSpaceOnUse" x1="44.748" y1="95.068" x2="44.748" y2="173.119" id="gradient-4">
      <stop offset="0" style="stop-color: rgb(10.588% 25.882% 89.412%)"/>
      <stop offset="1" style="stop-color: rgb(0% 24.045% 48.428%)"/>
    </linearGradient>
    <radialGradient gradientUnits="userSpaceOnUse" cx="45.328" cy="53.667" r="38.75" id="gradient-5">
      <stop offset="0" style="stop-color: rgb(10.588% 25.882% 89.412%)"/>
      <stop offset="1" style="stop-color: rgb(0% 24.045% 48.428%)"/>
    </radialGradient>
    <radialGradient gradientUnits="userSpaceOnUse" cx="45.518" cy="27.076" r="26.81" id="gradient-6">
      <stop offset="0" style="stop-color: rgb(10.588% 25.882% 89.412%)"/>
      <stop offset="1" style="stop-color: rgb(0% 24.045% 48.428%)"/>
    </radialGradient>
  </defs>
  <path d="M 39.848 9.082 L 57.765 26.592 C 58.622 26.313 59.576 26.202 60.567 26.301 C 63.845 26.63 66.277 29.14 66 31.908 C 65.721 34.676 62.838 36.652 59.56 36.323 C 56.282 35.993 53.849 33.483 54.128 30.715 C 54.167 30.325 54.259 29.951 54.395 29.595 L 47.328 22.688 C 42.76 17.56 39.58 13.042 38.71 10.433 L 39.848 9.082 Z" style="stroke: rgb(0, 0, 0); stroke-linejoin: round; stroke-linecap: round; fill: url(&quot;#gradient-12&quot;); transform-origin: 52.15px 22.948px;"/>
  <g transform="matrix(0.958064, -0.700957, 0.781211, 1.163301, 30.183397, -4.478534)" style="transform-origin: 11.862px 17.639px;">
    <path d="M 13.052 20.964 L 13.052 26.317 L 10.434 26.317 L 10.434 23.583 C 10.71 22.354 11.297 21.388 12.028 20.964 L 13.052 20.964 Z" style="stroke: rgb(0, 0, 0); stroke-linejoin: round; stroke-linecap: round; fill: rgb(0, 255, 198); transform-box: fill-box; transform-origin: 50% 50%; stroke-width: 0.641198px;" transform="matrix(-0.570538, -0.821271, 0.821271, -0.570538, -0.000001, -0.000002)"/>
    <path d="M 8.896 12.98 L 8.896 18.333 L 6.278 18.333 L 6.278 15.599 C 6.554 14.37 7.141 13.404 7.872 12.98 L 8.896 12.98 Z" style="stroke: rgb(0, 0, 0); stroke-linejoin: round; stroke-linecap: round; fill: rgb(0, 255, 198); transform-origin: 7.587px 15.657px; stroke-width: 0.641194px;" transform="matrix(-0.142092, -0.989853, 0.989853, -0.142092, -0.000002, 0)"/>
    <path d="M 10.662 17.127 L 10.662 22.48 L 8.044 22.48 L 8.044 19.746 C 8.32 18.517 8.907 17.551 9.638 17.127 L 10.662 17.127 Z" style="stroke: rgb(0, 0, 0); stroke-linejoin: round; stroke-linecap: round; fill: rgb(0, 255, 198); transform-origin: 9.353px 19.804px; stroke-width: 0.641197px;" transform="matrix(-0.465849, -0.884864, 0.884864, -0.465849, 0.000001, 0)"/>
    <path d="M 17.44 17.691 L 17.44 12.338 L 14.822 12.338 L 14.822 15.072 C 15.098 16.301 15.685 17.267 16.416 17.691 L 17.44 17.691 Z" style="stroke: rgb(0, 0, 0); stroke-linejoin: round; stroke-linecap: round; fill: rgb(0, 255, 198); transform-origin: 16.131px 15.014px; stroke-width: 0.641199px;" transform="matrix(-0.689551, -0.724237, 0.724237, -0.689551, 0.000001, 0)"/>
    <path d="M 14.93 14.622 L 14.93 9.269 L 12.312 9.269 L 12.312 12.003 C 12.588 13.232 13.175 14.198 13.906 14.622 L 14.93 14.622 Z" style="stroke: rgb(0, 0, 0); stroke-linejoin: round; stroke-linecap: round; fill: rgb(0, 255, 198); transform-origin: 13.621px 11.945px; stroke-width: 0.641199px;" transform="matrix(-0.782727, -0.622365, 0.622365, -0.782727, -0.000002, -0.000002)"/>
  </g>
  <path d="M 50.812 9.949 L 46.591 16.008 L 49.316 18.203 L 51.472 15.108 C 52.154 13.486 52.305 11.901 51.878 10.807 L 50.812 9.949 Z" style="stroke: rgb(0, 0, 0); stroke-linejoin: round; stroke-linecap: round; fill: rgb(0, 255, 198); transform-origin: 23.094px 14.952px;"/>
  <path d="M 63.368 90.354 L 63.308 114.195 L 63.268 114.195 L 63.238 126.477 L 68.008 126.485 C 71.428 125.519 74.178 123.307 75.468 120.49 L 75.488 114.215 L 75.448 114.215 L 75.498 94.006 L 75.668 94.006 L 75.698 80.996 L 67.638 90.361 L 63.368 90.354 Z" style="stroke: rgb(0, 0, 0); transform-origin: 69.189px 104.121px; fill: rgb(10, 44, 20);" transform="matrix(0.02326, -0.999729, 0.999729, 0.02326, -0.000005, -0.000008)"/>
  <rect x="47.908" y="150.09" width="12.624" height="27.796" style="fill: url(&quot;#gradient-14&quot;); stroke-width: 2px; stroke: rgb(3, 18, 8);"/>
  <rect x="29.107" y="141.818" width="18.485" height="33.949" style="fill: url(&quot;#gradient-15&quot;); stroke-width: 2px; stroke: rgb(3, 18, 8);"/>
  <path d="M 61.488 95.197 L 61.488 171.676 L 55.021 171.151 L 57.072 154.412 L 48.367 172.595 C 45.528 172.877 38.144 173.285 38.038 173.047 L 28.27 171.669 L 28.008 95.068 L 48.728 95.068 L 48.728 95.197 L 61.488 95.197 Z" style="stroke-width: 1.5px; stroke: rgb(13, 21, 55); fill: url(&quot;#gradient-4&quot;);"/>
  <ellipse style="fill: rgb(21, 41, 124); transform-origin: 31.431px 66.892px;" cx="31.431" cy="66.892" rx="4.248" ry="6.831" transform="matrix(0.860305, -0.509779, 0.516445, 0.856355, 21.526536, 35.989579)"/>
  <ellipse style="fill: rgb(21, 41, 124);" cx="44.108" cy="97.78" rx="17.022" ry="9.841"/>
  <path d="M 30.116 99.644 C 30.116 100.343 30.022 101.011 29.851 101.624 L 37.245 119.288 L 37.273 119.276 L 42.238 131.119 L 38.353 132.74 C 35.178 132.966 32.064 131.753 29.876 129.473 L 27.343 123.42 L 27.379 123.404 L 19.221 103.909 L 19.083 103.967 L 13.828 91.417 L 22.978 97.013 C 23.63 95.365 24.875 94.251 26.305 94.251 C 28.41 94.251 30.116 96.666 30.116 99.644 Z" style="fill: url(&quot;#gradient-0&quot;); stroke-width: 2px; stroke: rgb(3, 18, 8);"/>
  <g transform="matrix(1, 0, 0, 0.876646, -73.292694, 25.814362)" style="">
    <path d="M 137.072 86.404 L 141.787 78.456 L 149.967 80.983 L 149.977 85.205 L 144.327 85.218 L 142.295 82.147 C 140.258 85.226 137.072 86.404 137.072 86.404 Z" style="stroke: rgb(0, 0, 0); fill: rgb(0, 37, 188); stroke-width: 2.13146px;"/>
    <path d="M 136.994 91.624 L 141.709 99.572 L 149.889 97.045 L 149.899 92.823 L 144.249 92.81 L 142.217 95.881 C 140.18 92.802 136.994 91.624 136.994 91.624 Z" style="stroke: rgb(0, 0, 0); fill: url(&quot;#gradient-1&quot;); stroke-width: 2.13146px;"/>
    <rect x="121.34" y="120.203" width="16.782" height="5.665" style="stroke: rgb(0, 0, 0); fill: rgb(13, 21, 55); stroke-width: 2.13146px;" transform="matrix(-0.001597, -0.999999, 0.999996, -0.003565, 28.209553, 219.226349)"/>
    <rect x="119.962" y="124.238" width="19.63" height="25.848" style="stroke: rgb(0, 0, 0); fill: rgb(0, 50, 255); stroke-width: 2.13146px;" transform="matrix(-0.001597, -0.999999, 0.999996, -0.003565, 27.674393, 219.492859)"/>
    <path d="M 87.085 130.633 L 101.811 136.949 L 96.186 147.167 L 77.984 147.167 L 72.359 136.949 Z" bx:shape="n-gon 87.085 139.773 15.484 9.14 5 0 1@efafd5d1" style="stroke: rgb(0, 0, 0); fill: url(&quot;#gradient-11&quot;); stroke-width: 2.13146px;" transform="matrix(-0.001597000047, -0.999998724795, 0.999995581889, -0.003565003563, 26.692048682688, 176.630023654043)"/>
    <path d="M 86.579 134.965 L 101.653 142.165 L 95.895 153.815 L 77.263 153.815 L 71.505 142.165 Z" bx:shape="n-gon 86.579 145.385 15.85 10.42 5 0 1@4cd93789" style="stroke: rgb(0, 0, 0); fill: url(&quot;#gradient-2&quot;); stroke-width: 2.13146px;" transform="matrix(-0.001597000862, -0.999998724793, 0.999995581885, -0.003565005193, 25.402558309378, 176.01350743414)"/>
    <path d="M 86.427 141.299 L 100.895 147.172 L 95.369 156.674 L 77.485 156.674 L 71.959 147.172 Z" bx:shape="n-gon 86.427 149.798 15.213 8.499 5 0 1@52e06b4f" style="fill: rgb(255, 149, 0); stroke: rgb(0, 0, 0); stroke-width: 2.13146px;" transform="matrix(-0.00159700028, -0.999998724794, 0.999995581887, -0.003565004727, 24.10588117976, 176.077426470697)"/>
    <ellipse style="fill: rgb(0, 255, 255); stroke: url(&quot;#gradient-3&quot;); stroke-width: 2.13146px;" cx="86.593" cy="150.219" rx="8.69" ry="6.653" transform="matrix(-0.001597, -0.999999, 0.999996, -0.003565, 25.542422, 176.363579)"/>
    <ellipse style="fill: rgba(255, 255, 255, 0.337); stroke-width: 2.13146px;" cx="86.593" cy="150.219" rx="6.273" ry="4.448" transform="matrix(-0.001597, -0.999999, 0.999996, -0.003565, 27.330264, 176.251)"/>
    <ellipse style="fill: rgba(255, 255, 255, 0.74); stroke-width: 2.13146px;" cx="86.593" cy="150.219" rx="3.629" ry="2.683" transform="matrix(-0.001597, -0.999999, 0.999996, -0.003565, 28.717383, 174.814003)"/>
  </g>
  <path d="M 75.128 70.233 C 75.128 74.942 74.098 79.399 72.258 83.372 C 71.238 87.144 69.578 90.341 67.418 92.632 C 67.538 92.858 67.638 93.1 67.728 93.352 L 68.218 96.38 L 68.038 96.408 L 68.228 96.482 L 67.938 99.422 C 67.538 100.647 66.878 101.479 66.128 101.676 L 65.148 101.311 L 65.658 96.178 L 65.368 94.425 C 63.988 95.399 62.458 96.05 60.808 96.319 C 59.288 97.256 57.668 98.052 55.988 98.689 L 57.788 102.735 L 56.968 103.38 C 56.188 103.418 55.298 102.829 54.538 101.785 L 53.518 99.495 C 51.128 100.154 48.628 100.504 46.038 100.504 C 29.978 100.504 16.948 86.951 16.948 70.233 C 16.948 53.515 29.978 39.963 46.038 39.963 C 62.108 39.963 75.128 53.515 75.128 70.233 Z" style="stroke: rgb(0, 0, 0); fill: rgb(38, 123, 67);"/>
  <path d="M 75.268 71.261 C 75.268 75.97 74.846 79.809 73.18 83.852 C 72.16 87.624 69.863 90.209 68.54 92.918 C 69.35 96.754 68.078 100.45 68.078 100.45 C 67.678 101.675 67.018 102.507 66.268 102.704 L 65.288 102.339 L 65.798 97.206 L 65.508 95.453 C 64.128 96.427 62.598 97.078 60.948 97.347 C 59.428 98.284 57.808 99.08 56.128 99.717 L 57.928 103.763 L 57.108 104.408 C 56.328 104.446 55.438 103.857 54.678 102.813 L 53.658 100.523 C 51.268 101.182 48.768 101.532 46.178 101.532 C 30.118 101.532 17.088 87.979 17.088 71.261 C 17.088 54.543 30.118 40.991 46.178 40.991 C 62.248 40.991 75.268 54.543 75.268 71.261 Z" style="fill: rgb(38, 123, 67); stroke-width: 2px; stroke: rgb(3, 18, 8);"/>
  <ellipse style="fill: rgb(56, 154, 89);" cx="48.218" cy="70.498" rx="26.776" ry="25.876"/>
  <ellipse style="" cx="71.318" cy="65.587" rx="3.508" ry="12.546"/>
  <ellipse style="" cx="53.298" cy="68.485" rx="9.419" ry="12.546"/>
  <path d="M 18.768 16.09 C 21.638 11.078 27.718 7.138 35.328 5.408 L 45.088 5.408 L 45.088 5.39 L 55.718 5.39 C 63.328 7.121 69.408 11.061 72.278 16.073 L 72.278 18.967 L 72.328 18.967 L 72.328 48.762 L 18.708 48.762 L 18.708 18.967 L 18.768 18.967 L 18.768 16.09 Z" style="stroke: rgb(0, 0, 0); stroke-linejoin: round; stroke-linecap: round; fill: url(&quot;#gradient-6&quot;);"/>
  <path d="M 70.978 21.829 L 70.978 24.285 L 70.998 24.285 L 70.998 49.563 L 67.018 49.563 L 67.018 13.908 C 68.818 15.655 70.228 18.455 70.978 21.829 Z" style="stroke-linejoin: round; stroke-linecap: round; fill: rgb(21, 41, 124);"/>
  <path d="M 6.578 50.899 C 7.718 48.681 10.318 46.908 13.628 46.071 L 20.998 46.071 L 20.998 46.2 L 75.118 46.2 L 75.118 46.214 L 77.018 46.214 C 80.328 47.05 82.938 48.823 84.078 51.041 L 84.078 56.292 C 82.938 58.51 80.328 60.283 77.018 61.119 L 75.118 61.119 L 75.118 61.218 L 20.998 61.218 L 20.998 61.262 L 13.628 61.26 C 10.318 60.424 7.718 58.651 6.578 56.433 L 6.578 53.333 L 6.578 50.899 Z" style="stroke: rgb(0, 0, 0); stroke-linejoin: round; stroke-linecap: round; fill: url(&quot;#gradient-5&quot;);"/>
  <path d="M 16.428 42.49 L 27.768 42.697 L 27.768 42.785 L 60.968 42.785 L 60.968 42.685 L 72.308 42.477 L 72.338 44.937 C 71.448 46.716 69.418 48.161 66.818 48.874 L 61.028 48.979 L 61.028 48.715 L 27.718 48.715 L 27.718 48.721 L 27.408 48.715 L 24.388 48.715 L 24.388 48.661 L 21.918 48.613 C 19.318 47.931 17.288 46.546 16.408 44.843 L 16.428 42.49 Z" style="stroke: rgb(0, 0, 0); stroke-linejoin: round; stroke-linecap: round; fill: rgb(255, 156, 0);"/>
  <g transform="matrix(1, 0, 0, 1, 0, 1)">
    <path d="M 10.692 10.303 L 28.101 28.318 C 28.967 28.063 29.923 27.98 30.911 28.107 C 34.178 28.529 36.538 31.108 36.181 33.867 C 35.824 36.625 32.886 38.518 29.619 38.096 C 26.352 37.673 23.992 35.094 24.35 32.336 C 24.398 31.947 24.501 31.575 24.647 31.224 L 17.78 24.117 C 13.361 18.861 10.311 14.254 9.516 11.621 L 10.692 10.303 Z" style="stroke: rgb(0, 0, 0); stroke-linejoin: round; stroke-linecap: round; fill: url(&quot;#gradient-17&quot;); transform-origin: 22.586px 24.514px;"/>
    <g transform="matrix(1.162362, -0.241129, 0.229157, 1.382408, 0.852939, -1.198307)" style="transform-origin: 11.862px 17.639px;">
      <path d="M 13.052 20.964 L 13.052 26.317 L 10.434 26.317 L 10.434 23.583 C 10.71 22.354 11.297 21.388 12.028 20.964 L 13.052 20.964 Z" style="stroke: rgb(0, 0, 0); stroke-linejoin: round; stroke-linecap: round; fill: rgb(0, 255, 198); transform-box: fill-box; transform-origin: 50% 50%; stroke-width: 0.641198px;" transform="matrix(-0.570538, -0.821271, 0.821271, -0.570538, -0.000001, -0.000002)"/>
      <path d="M 8.896 12.98 L 8.896 18.333 L 6.278 18.333 L 6.278 15.599 C 6.554 14.37 7.141 13.404 7.872 12.98 L 8.896 12.98 Z" style="stroke: rgb(0, 0, 0); stroke-linejoin: round; stroke-linecap: round; fill: rgb(0, 255, 198); transform-origin: 7.587px 15.657px; stroke-width: 0.641194px;" transform="matrix(-0.142092, -0.989853, 0.989853, -0.142092, -0.000002, 0)"/>
      <path d="M 10.662 17.127 L 10.662 22.48 L 8.044 22.48 L 8.044 19.746 C 8.32 18.517 8.907 17.551 9.638 17.127 L 10.662 17.127 Z" style="stroke: rgb(0, 0, 0); stroke-linejoin: round; stroke-linecap: round; fill: rgb(0, 255, 198); transform-origin: 9.353px 19.804px; stroke-width: 0.641197px;" transform="matrix(-0.465849, -0.884864, 0.884864, -0.465849, 0.000001, 0)"/>
      <path d="M 17.44 17.691 L 17.44 12.338 L 14.822 12.338 L 14.822 15.072 C 15.098 16.301 15.685 17.267 16.416 17.691 L 17.44 17.691 Z" style="stroke: rgb(0, 0, 0); stroke-linejoin: round; stroke-linecap: round; fill: rgb(0, 255, 198); transform-origin: 16.131px 15.014px; stroke-width: 0.641199px;" transform="matrix(-0.689551, -0.724237, 0.724237, -0.689551, 0.000001, 0)"/>
      <path d="M 14.93 14.622 L 14.93 9.269 L 12.312 9.269 L 12.312 12.003 C 12.588 13.232 13.175 14.198 13.906 14.622 L 14.93 14.622 Z" style="stroke: rgb(0, 0, 0); stroke-linejoin: round; stroke-linecap: round; fill: rgb(0, 255, 198); transform-origin: 13.621px 11.945px; stroke-width: 0.641199px;" transform="matrix(-0.782727, -0.622365, 0.622365, -0.782727, -0.000002, -0.000002)"/>
    </g>
    <path d="M 21.627 11.482 L 17.234 17.418 L 19.896 19.69 L 22.139 16.657 C 22.868 15.055 23.064 13.475 22.668 12.37 L 21.627 11.482 Z" style="stroke: rgb(0, 0, 0); stroke-linejoin: round; stroke-linecap: round; fill: rgb(0, 255, 198); transform-origin: 23.094px 14.952px;"/>
  </g>
  <ellipse style="stroke: rgb(0, 0, 0); fill: rgb(255, 156, 0);" cx="59.708" cy="46.758" rx="6.785" ry="11.655"/>
  <ellipse style="stroke: rgb(0, 0, 0); fill: rgb(255, 156, 0);" cx="70.388" cy="45.978" rx="3.112" ry="9.776"/>
  <ellipse style="stroke: rgb(0, 0, 0); fill: rgb(149, 149, 149);" cx="60.782" cy="46.789" rx="5.118" ry="8.644"/>
  <ellipse style="fill: rgb(96, 96, 96);" cx="62.135" cy="46.634" rx="3.271" ry="6.662"/>
  <ellipse style="stroke: rgb(0, 0, 0); fill: rgb(96, 96, 96);" cx="71.498" cy="45.593" rx="1.795" ry="7.944"/>
  <path style="stroke: rgb(0, 0, 0); stroke-miterlimit: 4.63; stroke-width: 7.48475px; fill: rgb(255, 156, 0);" transform="matrix(0.033947, 0, 0, 0.108123, 51.627167, -1.943303)" d="M 464.356 181 L 485.644 181 L 490.136 213.513 A 56.55 56.55 0 0 1 502.825 218.769 L 528.992 198.955 L 544.045 214.008 L 524.231 240.175 A 56.55 56.55 0 0 1 529.487 252.864 L 562 257.356 L 562 278.644 L 529.487 283.136 A 56.55 56.55 0 0 1 524.231 295.825 L 544.045 321.992 L 528.992 337.045 L 502.825 317.231 A 56.55 56.55 0 0 1 490.136 322.487 L 485.644 355 L 464.356 355 L 459.864 322.487 A 56.55 56.55 0 0 1 447.175 317.231 L 421.008 337.045 L 405.955 321.992 L 425.769 295.825 A 56.55 56.55 0 0 1 420.513 283.136 L 388 278.644 L 388 257.356 L 420.513 252.864 A 56.55 56.55 0 0 1 425.769 240.175 L 405.955 214.008 L 421.008 198.955 L 447.175 218.769 A 56.55 56.55 0 0 1 459.864 213.513 Z M 475 241.9 A 26.1 26.1 0 0 0 475 294.1 A 26.1 26.1 0 0 0 475 241.9" bx:shape="cog 475 268 26.1 56.55 87 0.38 8 1@36eb139e"/>
  <ellipse style="fill: rgb(0, 241, 255); filter: url(&quot;#gaussian-blur-filter-0&quot;); transform-box: fill-box; transform-origin: 50% 50%;" cx="29.944" cy="33.644" rx="4.472" ry="2.227" transform="matrix(0.663418, 0.748249, -0.748249, 0.663418, -12.143665, -12.112019)"/>
  <g transform="matrix(1, 0, 0, 1, 1.753217, 3.806226)">
    <rect x="26.896" y="138.646" width="32.233" height="5.42" style="fill: rgb(21, 41, 124);"/>
    <rect x="25.285" y="135.229" width="33.409" height="6.283" style="fill: rgb(255, 156, 0); stroke: rgb(58, 36, 3);"/>
    <path d="M 57.321 -145.587 L 62.927 -140.759 L 60.786 -132.947 L 53.856 -132.947 L 51.715 -140.759 Z" bx:shape="n-gon 57.321 -138.6 5.895 6.987 5 0 1@bbb03090" style="fill: rgb(119, 77, 10); stroke: rgb(58, 36, 3);" transform="matrix(1, 0, 0, -1, 0, 0)"/>
    <path d="M 58.601 -142.926 L 60.604 -139.446 L 59.839 -133.816 L 57.363 -133.816 L 56.598 -139.446 Z" bx:shape="n-gon 58.601 -137.89 2.106 5.036 5 0 1@5a4f3e56" style="fill: rgb(0, 234, 255); stroke: rgb(10, 69, 67);" transform="matrix(1, 0, 0, -1, 0, 0)"/>
  </g>
</svg>