<?xml version="1.0" encoding="utf-8"?>
<svg xmlns="http://www.w3.org/2000/svg" viewBox="0 0 110 180" width="110px" height="180px" xmlns:bx="https://boxy-svg.com">
  <defs>
    <linearGradient gradientUnits="userSpaceOnUse" x1="61.751" y1="4.64" x2="61.751" y2="26.708" id="gradient-6" gradientTransform="matrix(-1.180857, -1.017182, 1.008421, -1.191115, 147.1091, 107.394836)">
      <stop offset="0" style="stop-color: rgb(26.667% 64.706% 38.431%)"/>
      <stop offset="1" style="stop-color: rgb(0% 39.662% 15.739%)"/>
    </linearGradient>
    <linearGradient gradientUnits="userSpaceOnUse" x1="16.555" y1="5.154" x2="16.555" y2="27.222" id="gradient-5" gradientTransform="matrix(1.180857, -1.017182, 1.008421, 1.191115, -16.061462, 24.275085)">
      <stop offset="0" style="stop-color: rgb(26.667% 64.706% 38.431%)"/>
      <stop offset="1" style="stop-color: rgb(0% 39.662% 15.739%)"/>
    </linearGradient>
    <linearGradient gradientUnits="userSpaceOnUse" x1="33.017" y1="87.365" x2="33.017" y2="109.039" id="gradient-3" gradientTransform="matrix(1.668197, 0, 0, 1.40709, -9.918915, 23.804489)">
      <stop offset="0" style="stop-color: rgb(26.667% 64.706% 38.431%)"/>
      <stop offset="1" style="stop-color: rgb(0% 39.662% 15.739%)"/>
    </linearGradient>
    <filter id="gaussian-blur-filter-0" color-interpolation-filters="sRGB" x="-50%" y="-50%" width="200%" height="200%">
      <title>Desfoque gaussiano</title>
      <feGaussianBlur stdDeviation="0.7 0.7" edgeMode="none"/>
    </filter>
    <linearGradient gradientUnits="userSpaceOnUse" x1="143.447" y1="91.624" x2="143.447" y2="99.572" id="gradient-14" gradientTransform="matrix(0.472999, 0.801268, -0.533607, 0.356493, 54.310824, -22.567928)">
      <stop offset="0" style="stop-color: rgb(0% 14.51% 73.725%)"/>
      <stop offset="1" style="stop-color: rgb(0% 18.802% 38.225%)"/>
    </linearGradient>
    <radialGradient gradientUnits="userSpaceOnUse" cx="87.085" cy="138.9" r="14.726" id="gradient-11" gradientTransform="matrix(0.636504, 0, 0, 0.936654, 31.655063, 8.854109)">
      <stop offset="0" style="stop-color: rgb(100% 58.431% 0%)"/>
      <stop offset="1" style="stop-color: rgb(64.317% 29.827% 0%)"/>
    </radialGradient>
    <radialGradient gradientUnits="userSpaceOnUse" cx="86.593" cy="150.219" r="7.676" id="gradient-12" gradientTransform="matrix(0.600709, 0, 0, 0.985816, 34.576093, 2.130888)">
      <stop offset="0" style="stop-color: rgb(48.235% 48.235% 48.235%)"/>
      <stop offset="1" style="stop-color: rgb(28.577% 28.577% 28.577%)"/>
    </radialGradient>
    <radialGradient gradientUnits="userSpaceOnUse" cx="86.579" cy="144.39" r="12.997" id="gradient-13" gradientTransform="matrix(0.738248, 0, 0, 0.936654, 22.662318, 9.209659)">
      <stop offset="0" style="stop-color: rgb(100% 58.431% 0%)"/>
      <stop offset="1" style="stop-color: rgb(64.317% 29.827% 0%)"/>
    </radialGradient>
  </defs>
  <path d="M 99.178 11.095 L 76.924 37.381 L 80.813 40.731 L 92.18 27.304 C 96.879 20.917 100.023 15.423 100.699 12.406 L 99.178 11.095 Z" style="stroke: rgb(0, 0, 0); stroke-linejoin: round; stroke-linecap: round; fill: url(&quot;#gradient-6&quot;); transform-origin: 61.874px 12.345px;"/>
  <path d="M 102.241 28.429 L 95.414 23.646 L 93.095 27.013 L 96.582 29.457 C 98.393 30.2 100.146 30.308 101.334 29.747 L 102.241 28.429 Z" style="stroke: rgb(0, 0, 0); stroke-linejoin: round; stroke-linecap: round; transform-origin: 11.743px 23.641px; fill: rgb(0, 255, 248);"/>
  <path d="M 108.525 13.783 L 100.297 12.591 L 99.72 16.65 L 103.922 17.259 C 105.872 17.104 107.486 16.409 108.299 15.37 L 108.525 13.783 Z" style="stroke: rgb(0, 0, 0); stroke-linejoin: round; stroke-linecap: round; fill: rgb(38, 123, 67); transform-origin: 7.587px 15.657px;"/>
  <path d="M 106.005 21.851 L 98.649 17.945 L 96.755 21.574 L 100.512 23.569 C 102.4 24.083 104.152 23.974 105.264 23.27 L 106.005 21.851 Z" style="stroke: rgb(0, 0, 0); stroke-linejoin: round; stroke-linecap: round; fill: rgb(38, 123, 67); transform-origin: 9.353px 19.804px;"/>
  <path d="M 89.245 9.833 L 95.265 15.615 L 92.462 18.584 L 89.387 15.632 C 88.301 13.991 87.843 12.282 88.149 10.995 L 89.245 9.833 Z" style="stroke: rgb(0, 0, 0); stroke-linejoin: round; stroke-linecap: round; fill: rgb(38, 123, 67); transform-origin: 16.131px 15.014px;"/>
  <path d="M 93.756 4.844 L 98.929 11.407 L 95.747 13.959 L 93.105 10.607 C 92.252 8.831 92.032 7.075 92.511 5.842 L 93.756 4.844 Z" style="stroke: rgb(0, 0, 0); stroke-linejoin: round; stroke-linecap: round; fill: rgb(38, 123, 67); transform-origin: 13.621px 11.945px;"/>
  <path d="M 85.063 14.57 L 91.083 20.351 L 88.279 23.321 L 85.205 20.368 C 84.118 18.728 83.66 17.018 83.966 15.731 L 85.063 14.57 Z" style="stroke: rgb(0, 0, 0); stroke-linejoin: round; stroke-linecap: round; transform-origin: 59.734px 7.897px; fill: rgb(5, 240, 227);"/>
  <path d="M 10.634 11.901 L 32.884 38.186 L 28.994 41.536 L 17.624 28.109 C 12.924 21.722 9.784 16.229 9.104 13.211 L 10.634 11.901 Z" style="stroke: rgb(0, 0, 0); stroke-linejoin: round; stroke-linecap: round; fill: url(&quot;#gradient-5&quot;); transform-origin: 16.678px 12.859px;"/>
  <path d="M 7.567 29.235 L 14.394 24.451 L 16.713 27.819 L 13.227 30.262 C 11.415 31.005 9.663 31.113 8.474 30.552 L 7.567 29.235 Z" style="stroke: rgb(0, 0, 0); stroke-linejoin: round; stroke-linecap: round; transform-origin: 11.743px 23.641px; fill: rgb(0, 255, 248);"/>
  <path d="M 1.283 14.588 L 9.511 13.397 L 10.089 17.456 L 5.886 18.064 C 3.936 17.91 2.322 17.215 1.509 16.176 L 1.283 14.588 Z" style="stroke: rgb(0, 0, 0); stroke-linejoin: round; stroke-linecap: round; fill: rgb(38, 123, 67); transform-origin: 7.587px 15.657px;"/>
  <path d="M 3.804 22.656 L 11.159 18.75 L 13.053 22.379 L 9.296 24.374 C 7.408 24.888 5.656 24.779 4.544 24.076 L 3.804 22.656 Z" style="stroke: rgb(0, 0, 0); stroke-linejoin: round; stroke-linecap: round; fill: rgb(38, 123, 67); transform-origin: 9.353px 19.804px;"/>
  <path d="M 20.563 10.638 L 14.543 16.42 L 17.346 19.39 L 20.421 16.437 C 21.508 14.796 21.965 13.087 21.66 11.8 L 20.563 10.638 Z" style="stroke: rgb(0, 0, 0); stroke-linejoin: round; stroke-linecap: round; fill: rgb(38, 123, 67); transform-origin: 16.131px 15.014px;"/>
  <path d="M 16.053 5.649 L 10.879 12.212 L 14.061 14.764 L 16.704 11.412 C 17.556 9.637 17.776 7.88 17.297 6.648 L 16.053 5.649 Z" style="stroke: rgb(0, 0, 0); stroke-linejoin: round; stroke-linecap: round; fill: rgb(38, 123, 67); transform-origin: 13.621px 11.945px;"/>
  <path d="M 24.744 15.375 L 18.724 21.156 L 21.524 24.126 L 24.604 21.173 C 25.684 19.533 26.144 17.824 25.844 16.536 L 24.744 15.375 Z" style="stroke: rgb(0, 0, 0); stroke-linejoin: round; stroke-linecap: round; transform-origin: 18.818px 8.411px; fill: rgb(1, 252, 244);"/>
  <path d="M 37.213 104.534 L 37.183 104.706 C 38.923 106.482 39.773 110.269 39.163 114.452 C 38.503 118.909 36.383 122.454 34.023 123.423 L 32.793 130.736 L 32.833 130.742 L 30.563 144.238 L 26.233 143.503 C 23.313 141.911 21.243 139.054 20.593 135.759 L 21.753 128.863 L 21.793 128.869 L 25.533 106.659 L 25.373 106.632 L 27.783 92.334 L 33.343 103.878 L 33.533 103.911 C 34.103 103.674 34.683 103.585 35.263 103.671 C 35.883 103.762 36.453 104.047 36.953 104.491 L 37.213 104.534 Z" style="fill: rgb(38, 123, 67); stroke-width: 2px; stroke: rgb(10, 44, 20); transform-box: fill-box; transform-origin: 50% 50%;" transform="matrix(0.981574, -0.19108, 0.19108, 0.981574, 0, 0)"/>
  <path d="M 84.439 68.559 C 84.439 81.597 77.181 92.864 66.658 98.177 C 66.795 98.476 66.912 98.791 67.008 99.118 L 67.008 102.913 L 66.657 102.913 L 66.997 103.039 L 65.559 106.58 C 64.446 108.002 62.949 108.892 61.489 108.991 L 58.91 105.105 L 62.698 99.628 C 64.996 104.451 48.554 105.239 45.194 103.376 L 44.344 100.167 C 43.904 100.036 43.464 99.894 43.034 99.743 L 43.034 102.522 L 45.544 108.702 L 43.814 109.334 C 42.354 109.235 40.854 108.345 39.744 106.923 L 38.304 103.382 L 38.644 103.256 L 38.294 103.256 L 38.294 99.461 C 38.454 98.921 38.674 98.415 38.934 97.961 C 28.644 92.56 21.574 81.423 21.574 68.559 C 21.574 50.403 35.644 35.686 53.007 35.686 C 70.367 35.686 84.439 50.403 84.439 68.559 Z" style="fill: rgb(38, 123, 67); stroke-width: 2px; stroke: rgb(10, 44, 20);"/>
  <rect x="35.914" y="146.735" width="18.485" height="30.497" style="fill: url(&quot;#gradient-3&quot;); stroke-width: 2px; stroke: rgb(10, 44, 20);"/>
  <rect x="50.976" y="146.272" width="18.11" height="30.813" style="stroke: rgb(10, 44, 20); stroke-width: 2px; fill: rgb(38, 123, 67);"/>
  <path d="M 34.704 102.922 L 70.217 102.922 L 70.217 170.405 L 58.273 170.405 L 53.042 154.882 L 46.644 170.405 L 34.704 170.405 L 34.704 102.922 Z" style="fill: rgb(27, 66, 228); stroke-width: 2px; stroke: rgb(14, 29, 91);"/>
  <path d="M 77.417 92.736 L 80.322 105.783 L 80.163 105.818 L 84.674 126.083 L 84.712 126.075 L 86.114 132.367 C 85.54 135.462 83.479 138.255 80.506 139.942 L 76.049 140.936 L 73.305 128.62 L 73.347 128.611 L 73.004 127.074 C 69.91 126.513 66.853 122.163 65.793 116.463 C 64.584 109.952 66.442 104.145 69.942 103.495 C 70.641 103.365 71.353 103.45 72.054 103.722 L 77.417 92.736 Z" style="stroke-width: 2px; stroke: rgb(10, 44, 20); fill: rgb(18, 86, 41); transform-box: fill-box; transform-origin: 50% 50%;" transform="matrix(0.986497, 0.16378, -0.16378, 0.986497, 0.000001, 0)"/>
  <rect x="35.594" y="140.636" width="34.433" height="5.42" style="fill: rgb(21, 41, 124);"/>
  <rect x="34.894" y="137.219" width="35.624" height="4.61" style="fill: rgb(255, 156, 0); stroke: rgb(58, 36, 3);"/>
  <ellipse style="fill: rgb(0, 255, 248); filter: url(&quot;#gaussian-blur-filter-0&quot;); transform-origin: 25.843px 33.348px;" cx="25.843" cy="33.348" rx="2.697" ry="7.521" transform="matrix(0.756465, -0.654034, 0.654034, 0.756465, -5.404255, -6.406182)"/>
  <ellipse style="fill: rgb(0, 255, 248); filter: url(&quot;#gaussian-blur-filter-0&quot;); transform-origin: 25.843px 33.348px;" cx="25.843" cy="33.348" rx="2.697" ry="7.521" transform="matrix(-0.756465, -0.654034, -0.654034, 0.756465, 64.150394, -7.161974)"/>
  <path d="M 28.364 15.868 C 31.234 10.856 37.324 6.916 44.934 5.186 L 54.686 5.186 L 54.686 5.168 L 65.315 5.168 C 72.923 6.899 79.008 10.839 81.879 15.851 L 81.879 18.745 L 81.924 18.745 L 81.924 48.54 L 28.314 48.54 L 28.314 18.745 L 28.364 18.745 L 28.364 15.868 Z" style="stroke: rgb(0, 0, 0); stroke-linejoin: round; stroke-linecap: round; fill: rgb(21, 41, 124);"/>
  <path d="M 84.639 57.848 C 84.639 62.94 79.187 67.43 70.896 70.08 C 71.09 70.775 71.191 71.491 71.191 72.222 C 71.191 78.749 63.118 84.04 53.16 84.04 C 43.204 84.04 35.124 78.749 35.124 72.222 C 35.124 71.423 35.254 70.641 35.484 69.886 C 27.524 67.213 22.334 62.818 22.334 57.848 C 22.334 49.702 36.284 43.099 53.486 43.099 C 70.691 43.099 84.639 49.702 84.639 57.848 Z" style="fill: rgba(0, 0, 0, 0.19);"/>
  <path d="M 11.984 50.677 C 13.244 48.459 16.134 46.686 19.794 45.849 L 27.964 45.849 L 27.964 45.978 L 87.925 45.978 L 87.925 45.992 L 90.03 45.992 C 93.698 46.828 96.582 48.601 97.847 50.819 L 97.847 56.07 C 96.582 58.288 93.698 60.061 90.03 60.897 L 87.925 60.897 L 87.925 60.996 L 27.964 60.996 L 27.964 61.04 L 19.794 61.038 C 16.124 60.202 13.244 58.429 11.974 56.211 L 11.984 53.111 L 11.984 50.677 Z" style="stroke: rgb(0, 0, 0); stroke-linejoin: round; stroke-linecap: round; fill: rgb(21, 41, 124);"/>
  <ellipse style="fill: rgb(9, 16, 49);" cx="55.196" cy="48.694" rx="28.829" ry="6.548"/>
  <path d="M 80.489 15.376 L 80.489 17.982 L 80.548 17.982 L 80.548 44.801 L 64.551 44.801 L 64.551 6.971 C 71.794 8.824 77.479 11.796 80.489 15.376 Z" style="stroke-linejoin: round; stroke-linecap: round; fill: rgb(27, 66, 228);"/>
  <path d="M 28.314 42.759 L 39.134 42.961 L 39.134 43.047 L 70.798 43.047 L 70.798 42.949 L 81.622 42.746 L 81.645 45.148 C 80.802 46.886 78.862 48.298 76.385 48.993 L 70.856 49.096 L 70.853 48.838 L 39.084 48.838 L 39.084 48.844 L 38.784 48.838 L 35.914 48.838 L 35.914 48.785 L 33.554 48.739 C 31.074 48.072 29.134 46.72 28.294 45.057 L 28.314 42.759 Z" style="stroke: rgb(0, 0, 0); stroke-linejoin: round; stroke-linecap: round; fill: rgb(255, 156, 0);"/>
  <path style="stroke-miterlimit: 4.63; stroke-width: 7.48475px; fill: rgb(255, 156, 0); stroke: rgb(21, 41, 124);" transform="matrix(0.080202, 0, 0, 0.085323, 16.3377, 22.812399)" d="M 464.356 181 L 485.644 181 L 490.136 213.513 A 56.55 56.55 0 0 1 502.825 218.769 L 528.992 198.955 L 544.045 214.008 L 524.231 240.175 A 56.55 56.55 0 0 1 529.487 252.864 L 562 257.356 L 562 278.644 L 529.487 283.136 A 56.55 56.55 0 0 1 524.231 295.825 L 544.045 321.992 L 528.992 337.045 L 502.825 317.231 A 56.55 56.55 0 0 1 490.136 322.487 L 485.644 355 L 464.356 355 L 459.864 322.487 A 56.55 56.55 0 0 1 447.175 317.231 L 421.008 337.045 L 405.955 321.992 L 425.769 295.825 A 56.55 56.55 0 0 1 420.513 283.136 L 388 278.644 L 388 257.356 L 420.513 252.864 A 56.55 56.55 0 0 1 425.769 240.175 L 405.955 214.008 L 421.008 198.955 L 447.175 218.769 A 56.55 56.55 0 0 1 459.864 213.513 Z M 475 241.9 A 26.1 26.1 0 0 0 475 294.1 A 26.1 26.1 0 0 0 475 241.9" bx:shape="cog 475 268 26.1 56.55 87 0.38 8 1@36eb139e"/>
  <path d="M 83.34 118.786 L 86.226 125.238 L 81.787 131.207 L 79.34 129.864 L 81.387 125.177 L 83.904 124.477 C 82.863 121.804 83.34 118.786 83.34 118.786 Z" style="stroke: rgb(0, 0, 0); fill: rgb(0, 37, 188); stroke-width: 2.13146px; transform-origin: 115.123px 109.887px;"/>
  <path d="M 70.216 119.952 L 68.205 126.563 L 73.422 132.216 L 75.68 130.72 L 73.015 126.188 L 70.415 125.654 C 71.093 122.925 70.216 119.952 70.216 119.952 Z" style="stroke: rgb(0, 0, 0); fill: url(&quot;#gradient-14&quot;); stroke-width: 2.13146px; transform-origin: 101.885px 108.591px;"/>
  <rect x="77.233" y="112.589" width="10.681" height="5.306" style="stroke: rgb(0, 0, 0); fill: rgb(13, 21, 55); stroke-width: 2.13146px;" transform="matrix(0.996054, -0.088752, 0.114256, 0.993781, -17.811518, 25.809944)"/>
  <rect x="76.356" y="116.368" width="12.495" height="24.21" style="stroke: rgb(0, 0, 0); fill: rgb(0, 50, 255); stroke-width: 2.13146px;" transform="matrix(0.996054, -0.088752, 0.114256, 0.993781, -18.036591, 25.326353)"/>
  <path d="M 87.085 131.212 L 96.459 137.128 L 92.878 146.699 L 81.292 146.699 L 77.711 137.128 Z" bx:shape="n-gon 87.085 139.773 9.856 8.561 5 0 1@085ee8d2" style="stroke: rgb(0, 0, 0); fill: url(&quot;#gradient-11&quot;); stroke-width: 2.13146px;" transform="matrix(0.996053776888, -0.088751752362, 0.114256262973, 0.993781238936, -23.499361059163, 16.064538144021)"/>
  <ellipse style="fill: rgb(0, 255, 255); stroke: url(&quot;#gradient-12&quot;); stroke-width: 2.13146px;" cx="86.593" cy="150.219" rx="4.612" ry="5.177" transform="matrix(0.996054, -0.088752, 0.114256, 0.993781, -22.545609, 18.994268)"/>
  <path d="M 86.579 135.625 L 96.174 142.369 L 92.509 153.281 L 80.649 153.281 L 76.984 142.369 Z" bx:shape="n-gon 86.579 145.385 10.089 9.76 5 0 1@27638ca5" style="stroke: rgb(0, 0, 0); fill: url(&quot;#gradient-13&quot;); stroke-width: 2.13146px;" transform="matrix(0.996053776888, -0.088751752362, 0.114256262973, 0.993781238936, -23.100887671882, 14.460459081894)"/>
  <ellipse style="fill: rgba(255, 255, 255, 0.74); stroke-width: 2.13146px;" cx="86.593" cy="150.219" rx="2.309" ry="1.983" transform="matrix(0.996054, -0.088752, 0.114256, 0.993781, -22.431141, 21.258016)"/>
  <path d="M 86.427 141.837 L 95.636 147.338 L 92.119 156.239 L 80.735 156.239 L 77.218 147.338 Z" bx:shape="n-gon 86.427 149.798 9.683 7.961 5 0 1@bb802d32" style="fill: rgb(255, 149, 0); stroke: rgb(0, 0, 0); stroke-width: 2.13146px;" transform="matrix(0.996053776888, -0.088751752362, 0.114256262973, 0.993781238936, -23.254168739614, 12.974021161343)"/>
  <path d="M 76.902 148.388 L 74.245 154.314 L 77.319 160.993 L 79.31 160.07 L 78.015 155.069 L 76.1 153.948 C 77.08 151.467 76.902 148.388 76.902 148.388 Z" style="stroke: rgb(0, 0, 0); transform-origin: 101.71px 137.527px; fill: rgb(18, 198, 168);"/>
  <path d="M 82.37 147.652 L 86.045 153.207 L 84.182 160.175 L 82.049 159.494 L 82.447 154.393 L 84.145 153.061 C 82.737 150.719 82.37 147.652 82.37 147.652 Z" style="stroke: rgb(0, 0, 0); transform-origin: 109.877px 138.044px; fill: rgb(18, 198, 168);"/>
  <rect x="48.234" y="144.073" width="11.586" height="4.506" style="fill: rgb(21, 41, 124);"/>
  <rect x="49.604" y="135.38" width="3.056" height="7.762" style="fill: rgb(255, 156, 0); stroke: rgb(58, 36, 3);"/>
  <rect x="55.544" y="135.3" width="3.056" height="7.762" style="fill: rgb(255, 156, 0); stroke: rgb(58, 36, 3);"/>
</svg>