<?xml version="1.0" encoding="utf-8"?>
<svg xmlns="http://www.w3.org/2000/svg" viewBox="0 0 110 180" width="110px" height="180px" xmlns:bx="https://boxy-svg.com">
  <defs>
    <linearGradient gradientUnits="userSpaceOnUse" x1="16.555" y1="5.154" x2="16.555" y2="27.222" id="gradient-5" gradientTransform="matrix(0.882903, -1.048887, 0.962207, 0.940419, -12.198174, 23.112453)">
      <stop offset="0" style="stop-color: rgb(26.667% 64.706% 38.431%)"/>
      <stop offset="1" style="stop-color: rgb(0% 39.662% 15.739%)"/>
    </linearGradient>
    <linearGradient gradientUnits="userSpaceOnUse" x1="43.08" y1="89.367" x2="43.08" y2="109.039" id="gradient-0" gradientTransform="matrix(1.552848, 0, 0, 1.412954, -17.08708, 18.610685)">
      <stop offset="0" style="stop-color: rgb(8.6275% 32.549% 16.078%)"/>
      <stop offset="1" style="stop-color: rgb(0% 21.246% 5.8187%)"/>
    </linearGradient>
    <linearGradient gradientUnits="userSpaceOnUse" x1="33.017" y1="87.365" x2="33.017" y2="109.039" id="gradient-3" gradientTransform="matrix(1.668197, 0, 0, 1.566338, -19.127495, 8.451382)">
      <stop offset="0" style="stop-color: rgb(26.667% 64.706% 38.431%)"/>
      <stop offset="1" style="stop-color: rgb(0% 39.662% 15.739%)"/>
    </linearGradient>
    <linearGradient gradientUnits="userSpaceOnUse" x1="23.073" y1="55.781" x2="23.073" y2="85.193" id="gradient-1" gradientTransform="matrix(-1.449799, -0.484757, 0.255825, -0.767054, 39.813469, 178.687149)">
      <stop offset="0" style="stop-color: rgb(26.667% 64.706% 38.431%)"/>
      <stop offset="1" style="stop-color: rgb(0% 39.662% 15.739%)"/>
    </linearGradient>
    <filter id="filter-1" bx:preset="gaussian-blur 1 1.6" color-interpolation-filters="sRGB" x="-50%" y="-50%" width="200%" height="200%">
      <feGaussianBlur stdDeviation="1.6 1.6" edgeMode="none"/>
    </filter>
    <linearGradient gradientUnits="userSpaceOnUse" x1="11.743" y1="20.964" x2="11.743" y2="26.317" id="gradient-4">
      <stop offset="0" style="stop-color: rgb(24.706% 68.627% 35.686%)"/>
      <stop offset="1" style="stop-color: rgb(0% 41.999% 11.249%)"/>
    </linearGradient>
    <linearGradient gradientUnits="userSpaceOnUse" x1="7.587" y1="12.98" x2="7.587" y2="18.333" id="gradient-6">
      <stop offset="0" style="stop-color: rgb(24.706% 68.627% 35.686%)"/>
      <stop offset="1" style="stop-color: rgb(0% 41.999% 11.249%)"/>
    </linearGradient>
    <linearGradient gradientUnits="userSpaceOnUse" x1="9.353" y1="17.127" x2="9.353" y2="22.48" id="gradient-7">
      <stop offset="0" style="stop-color: rgb(24.706% 68.627% 35.686%)"/>
      <stop offset="1" style="stop-color: rgb(0% 41.999% 11.249%)"/>
    </linearGradient>
    <linearGradient gradientUnits="userSpaceOnUse" x1="16.131" y1="12.338" x2="16.131" y2="17.691" id="gradient-8">
      <stop offset="0" style="stop-color: rgb(24.706% 68.627% 35.686%)"/>
      <stop offset="1" style="stop-color: rgb(0% 41.999% 11.249%)"/>
    </linearGradient>
    <linearGradient gradientUnits="userSpaceOnUse" x1="13.621" y1="9.269" x2="13.621" y2="14.622" id="gradient-9">
      <stop offset="0" style="stop-color: rgb(24.706% 68.627% 35.686%)"/>
      <stop offset="1" style="stop-color: rgb(0% 41.999% 11.249%)"/>
    </linearGradient>
    <linearGradient gradientUnits="userSpaceOnUse" x1="20.338" y1="9.739" x2="20.338" y2="17.992" id="gradient-10" gradientTransform="matrix(1, 0, 0, 1, -2, 0)">
      <stop offset="0" style="stop-color: rgb(19.216% 50.588% 25.49%)"/>
      <stop offset="1" style="stop-color: rgb(0% 31.632% 8.0763%)"/>
    </linearGradient>
    <radialGradient gradientUnits="userSpaceOnUse" cx="86.593" cy="150.219" r="7.676" id="gradient-12" gradientTransform="matrix(1.132039, 0, 0, 1.266574, -11.433768, -40.04508)">
      <stop offset="0" style="stop-color: rgb(48.235% 48.235% 48.235%)"/>
      <stop offset="1" style="stop-color: rgb(28.577% 28.577% 28.577%)"/>
    </radialGradient>
    <radialGradient gradientUnits="userSpaceOnUse" cx="86.579" cy="144.39" r="12.997" id="gradient-13" gradientTransform="matrix(1.159847, 0, 0, 1, -13.839353, 0.000067)">
      <stop offset="0" style="stop-color: rgb(100% 58.431% 0%)"/>
      <stop offset="1" style="stop-color: rgb(64.317% 29.827% 0%)"/>
    </radialGradient>
    <radialGradient gradientUnits="userSpaceOnUse" cx="87.085" cy="138.9" r="14.726" id="gradient-11" gradientTransform="matrix(1, 0, 0, 1, 0.000015, 0.000015)">
      <stop offset="0" style="stop-color: rgb(100% 58.431% 0%)"/>
      <stop offset="1" style="stop-color: rgb(64.317% 29.827% 0%)"/>
    </radialGradient>
    <linearGradient gradientUnits="userSpaceOnUse" x1="143.447" y1="91.624" x2="143.447" y2="99.572" id="gradient-14">
      <stop offset="0" style="stop-color: rgb(0% 14.51% 73.725%)"/>
      <stop offset="1" style="stop-color: rgb(0% 18.802% 38.225%)"/>
    </linearGradient>
    <radialGradient gradientUnits="userSpaceOnUse" cx="43.926" cy="24.394" r="26.807" id="gradient-15">
      <stop offset="0" style="stop-color: rgb(0% 0% 0%)"/>
      <stop offset="1" style="stop-color: rgb(0% 0% 0%)"/>
    </radialGradient>
    <linearGradient gradientUnits="userSpaceOnUse" x1="43.156" y1="92.386" x2="43.156" y2="168.36" id="gradient-17">
      <stop offset="0" style="stop-color: rgb(5.098% 8.2353% 21.569%)"/>
      <stop offset="1" style="stop-color: rgb(2.6641% 5.1045% 18.894%)"/>
    </linearGradient>
    <linearGradient gradientUnits="userSpaceOnUse" x1="43.156" y1="92.386" x2="43.156" y2="168.36" id="gradient-16">
      <stop offset="0" style="stop-color: rgb(10.588% 25.882% 89.412%)"/>
      <stop offset="1" style="stop-color: rgb(0% 24.045% 48.428%)"/>
    </linearGradient>
    <radialGradient gradientUnits="userSpaceOnUse" cx="43.732" cy="50.985" r="38.75" id="gradient-2">
      <stop offset="0" style="stop-color: rgb(10.588% 25.882% 89.412%)"/>
      <stop offset="1" style="stop-color: rgb(0% 24.045% 48.428%)"/>
    </radialGradient>
    <radialGradient gradientUnits="userSpaceOnUse" cx="43.926" cy="24.394" r="26.807" id="gradient-18">
      <stop offset="0" style="stop-color: rgb(10.588% 25.882% 89.412%)"/>
      <stop offset="1" style="stop-color: rgb(0% 24.045% 48.428%)"/>
    </radialGradient>
  </defs>
  <path d="M 61.642 85.851 L 61.585 109.692 L 61.541 109.692 L 61.511 121.974 L 66.288 121.982 C 69.709 121.016 72.453 118.804 73.749 115.987 L 73.764 109.712 L 73.724 109.712 L 73.773 89.503 L 73.944 89.503 L 73.976 76.493 L 65.912 85.858 L 61.642 85.851 Z" style="stroke: rgb(0, 0, 0); transform-box: fill-box; transform-origin: 47.7589% 50.8357%; fill: rgb(10, 44, 20);" transform="matrix(0.005052, -0.999987, 0.999987, 0.005052, -0.000006, -0.000009)"/>
  <rect x="41.205" y="144.881" width="17.207" height="27.796" style="fill: url(&quot;#gradient-0&quot;); stroke-width: 2px; stroke: rgb(3, 18, 8);"/>
  <rect x="26.709" y="145.293" width="18.485" height="33.949" style="fill: url(&quot;#gradient-3&quot;); stroke-width: 2px; stroke: rgb(3, 18, 8);"/>
  <path d="M 59.893 92.514 L 59.893 168.36 L 54.676 168.36 L 52.392 150.913 L 49.599 168.36 L 44.383 168.36 L 44.383 168.287 L 26.419 168.287 L 26.419 92.386 L 47.141 92.386 L 47.141 92.514 L 59.893 92.514 Z" style="stroke-width: 1.5px; stroke: url(&quot;#gradient-17&quot;); fill: url(&quot;#gradient-16&quot;);"/>
  <ellipse style="fill: rgb(21, 41, 124); transform-origin: 31.431px 66.892px;" cx="31.431" cy="66.892" rx="4.248" ry="6.831" transform="matrix(0.860305, -0.509779, 0.516445, 0.856355, 19.934462, 33.307939)"/>
  <ellipse style="fill: rgb(21, 41, 124);" cx="42.519" cy="95.098" rx="17.022" ry="9.841"/>
  <path d="M 26.214 120.135 L 26.251 120.138 L 25.096 132.928 L 20.905 132.545 C 17.999 131.261 15.806 128.734 14.94 125.696 L 15.531 119.16 L 15.566 119.163 L 17.469 98.116 L 17.317 98.102 L 18.543 84.552 L 23.495 92.907 C 24.443 88.72 26.001 85.776 27.325 85.964 C 28.925 86.191 29.579 90.899 28.786 96.48 C 28.588 97.873 28.319 99.189 28 100.375 L 26.214 120.135 Z" style="fill: url(&quot;#gradient-1&quot;); stroke-width: 2px; stroke: rgb(3, 18, 8);"/>
  <g transform="matrix(1, 0, 0, 0.876646, -72.515205, 20.999733)" style="">
    <path d="M 137.072 86.404 L 141.787 78.456 L 149.967 80.983 L 149.977 85.205 L 144.327 85.218 L 142.295 82.147 C 140.258 85.226 137.072 86.404 137.072 86.404 Z" style="stroke: rgb(0, 0, 0); fill: rgb(0, 37, 188); stroke-width: 2.13146px;"/>
    <path d="M 136.994 91.624 L 141.709 99.572 L 149.889 97.045 L 149.899 92.823 L 144.249 92.81 L 142.217 95.881 C 140.18 92.802 136.994 91.624 136.994 91.624 Z" style="stroke: rgb(0, 0, 0); fill: url(&quot;#gradient-14&quot;); stroke-width: 2.13146px;"/>
    <rect x="121.34" y="120.203" width="16.782" height="5.665" style="stroke: rgb(0, 0, 0); fill: rgb(13, 21, 55); stroke-width: 2.13146px;" transform="matrix(-0.001597, -0.999999, 0.999996, -0.003565, 28.209553, 219.226349)"/>
    <rect x="119.962" y="124.238" width="19.63" height="25.848" style="stroke: rgb(0, 0, 0); fill: rgb(0, 50, 255); stroke-width: 2.13146px;" transform="matrix(-0.001597, -0.999999, 0.999996, -0.003565, 27.674393, 219.492859)"/>
    <path d="M 87.085 130.633 L 101.811 136.949 L 96.186 147.167 L 77.984 147.167 L 72.359 136.949 Z" bx:shape="n-gon 87.085 139.773 15.484 9.14 5 0 1@efafd5d1" style="stroke: rgb(0, 0, 0); fill: url(&quot;#gradient-11&quot;); stroke-width: 2.13146px;" transform="matrix(-0.001597000047, -0.999998724795, 0.999995581889, -0.003565003563, 26.692048682688, 176.630023654043)"/>
    <path d="M 86.579 134.965 L 101.653 142.165 L 95.895 153.815 L 77.263 153.815 L 71.505 142.165 Z" bx:shape="n-gon 86.579 145.385 15.85 10.42 5 0 1@4cd93789" style="stroke: rgb(0, 0, 0); fill: url(&quot;#gradient-13&quot;); stroke-width: 2.13146px;" transform="matrix(-0.001597000862, -0.999998724793, 0.999995581885, -0.003565005193, 25.402558309378, 176.01350743414)"/>
    <path d="M 86.427 141.299 L 100.895 147.172 L 95.369 156.674 L 77.485 156.674 L 71.959 147.172 Z" bx:shape="n-gon 86.427 149.798 15.213 8.499 5 0 1@52e06b4f" style="fill: rgb(255, 149, 0); stroke: rgb(0, 0, 0); stroke-width: 2.13146px;" transform="matrix(-0.00159700028, -0.999998724794, 0.999995581887, -0.003565004727, 24.10588117976, 176.077426470697)"/>
    <ellipse style="fill: rgb(0, 255, 255); stroke: url(&quot;#gradient-12&quot;); stroke-width: 2.13146px;" cx="86.593" cy="150.219" rx="8.69" ry="6.653" transform="matrix(-0.001597, -0.999999, 0.999996, -0.003565, 25.542422, 176.363579)"/>
    <ellipse style="fill: rgba(255, 255, 255, 0.337); stroke-width: 2.13146px;" cx="86.593" cy="150.219" rx="6.273" ry="4.448" transform="matrix(-0.001597, -0.999999, 0.999996, -0.003565, 27.330264, 176.251)"/>
    <ellipse style="fill: rgba(255, 255, 255, 0.74); stroke-width: 2.13146px;" cx="86.593" cy="150.219" rx="3.629" ry="2.683" transform="matrix(-0.001597, -0.999999, 0.999996, -0.003565, 28.717383, 174.814003)"/>
  </g>
  <path d="M 73.54 67.551 C 73.54 72.26 72.507 76.717 70.664 80.69 C 69.646 84.462 67.989 87.659 65.831 89.95 C 65.942 90.176 66.043 90.418 66.135 90.67 L 66.625 93.698 L 66.442 93.726 L 66.635 93.8 L 66.344 96.74 C 65.947 97.965 65.283 98.797 64.534 98.994 L 63.552 98.629 L 64.062 93.496 L 63.778 91.743 C 62.395 92.717 60.867 93.368 59.215 93.637 C 57.692 94.574 56.078 95.37 54.392 96.007 L 56.194 100.053 L 55.374 100.698 C 54.601 100.736 53.707 100.147 52.944 99.103 L 51.923 96.813 C 49.538 97.472 47.033 97.822 44.449 97.822 C 28.382 97.822 15.358 84.269 15.358 67.551 C 15.358 50.833 28.382 37.281 44.449 37.281 C 60.515 37.281 73.54 50.833 73.54 67.551 Z" style="stroke: rgb(0, 0, 0); fill: rgb(38, 123, 67);"/>
  <path d="M 73.511 67.275 C 73.511 71.984 72.984 76.426 71.358 80.414 C 69.908 83.971 68.541 87.275 66.123 89.33 C 66.722 91.087 66.525 94.211 66.525 94.211 L 66.321 96.464 C 65.921 97.689 65.261 98.521 64.511 98.718 L 63.531 98.353 L 63.439 93.477 L 62.956 91.553 C 61.576 92.527 60.841 93.092 59.191 93.361 C 57.671 94.298 56.051 95.094 54.371 95.731 L 56.171 99.777 L 55.351 100.422 C 54.571 100.46 53.681 99.871 52.921 98.827 L 51.901 96.537 C 49.511 97.196 47.011 97.546 44.421 97.546 C 28.361 97.546 15.331 83.993 15.331 67.275 C 15.331 50.557 28.361 37.005 44.421 37.005 C 60.491 37.005 73.511 50.557 73.511 67.275 Z" style="fill: rgb(38, 123, 67); stroke-width: 2px; stroke: rgb(3, 18, 8);"/>
  <ellipse style="fill: rgb(56, 154, 89);" cx="46.626" cy="66.816" rx="26.776" ry="25.876"/>
  <ellipse style="" cx="69.73" cy="63.905" rx="3.508" ry="12.546"/>
  <ellipse style="" cx="52.706" cy="65.803" rx="9.419" ry="12.546"/>
  <g transform="matrix(0.563194, -1.045007, 1.205767, 0.713923, 31.222492, -7.545431)" style="transform-origin: 11.862px 17.639px;">
    <path d="M 13.052 20.964 L 13.052 26.317 L 10.434 26.317 L 10.434 23.583 C 10.71 22.354 11.297 21.388 12.028 20.964 L 13.052 20.964 Z" style="stroke: rgb(0, 0, 0); stroke-linejoin: round; stroke-linecap: round; fill: rgb(0, 255, 198); transform-box: fill-box; transform-origin: 50% 50%; stroke-width: 0.641198px;" transform="matrix(-0.570538, -0.821271, 0.821271, -0.570538, -0.000001, -0.000002)"/>
    <path d="M 8.896 12.98 L 8.896 18.333 L 6.278 18.333 L 6.278 15.599 C 6.554 14.37 7.141 13.404 7.872 12.98 L 8.896 12.98 Z" style="stroke: rgb(0, 0, 0); stroke-linejoin: round; stroke-linecap: round; fill: rgb(0, 255, 198); transform-origin: 7.587px 15.657px; stroke-width: 0.641194px;" transform="matrix(-0.142092, -0.989853, 0.989853, -0.142092, -0.000002, 0)"/>
    <path d="M 10.662 17.127 L 10.662 22.48 L 8.044 22.48 L 8.044 19.746 C 8.32 18.517 8.907 17.551 9.638 17.127 L 10.662 17.127 Z" style="stroke: rgb(0, 0, 0); stroke-linejoin: round; stroke-linecap: round; fill: rgb(0, 255, 198); transform-origin: 9.353px 19.804px; stroke-width: 0.641197px;" transform="matrix(-0.465849, -0.884864, 0.884864, -0.465849, 0.000001, 0)"/>
    <path d="M 17.44 17.691 L 17.44 12.338 L 14.822 12.338 L 14.822 15.072 C 15.098 16.301 15.685 17.267 16.416 17.691 L 17.44 17.691 Z" style="stroke: rgb(0, 0, 0); stroke-linejoin: round; stroke-linecap: round; fill: rgb(0, 255, 198); transform-origin: 16.131px 15.014px; stroke-width: 0.641199px;" transform="matrix(-0.689551, -0.724237, 0.724237, -0.689551, 0.000001, 0)"/>
    <path d="M 14.93 14.622 L 14.93 9.269 L 12.312 9.269 L 12.312 12.003 C 12.588 13.232 13.175 14.198 13.906 14.622 L 14.93 14.622 Z" style="stroke: rgb(0, 0, 0); stroke-linejoin: round; stroke-linecap: round; fill: rgb(0, 255, 198); transform-origin: 13.621px 11.945px; stroke-width: 0.641199px;" transform="matrix(-0.782727, -0.622365, 0.622365, -0.782727, -0.000002, -0.000002)"/>
  </g>
  <path d="M 17.175 13.408 C 20.044 8.396 26.128 4.456 33.739 2.726 L 43.494 2.726 L 43.494 2.708 L 54.123 2.708 C 61.731 4.439 67.816 8.379 70.687 13.391 L 70.687 16.285 L 70.732 16.285 L 70.732 46.08 L 17.119 46.08 L 17.119 16.285 L 17.175 16.285 L 17.175 13.408 Z" style="stroke-linejoin: round; stroke-linecap: round; stroke: url(&quot;#gradient-15&quot;); fill: url(&quot;#gradient-18&quot;);"/>
  <path d="M 69.388 19.147 L 69.388 21.603 L 69.403 21.603 L 69.403 46.881 L 65.424 46.881 L 65.424 11.226 C 67.225 12.973 68.64 15.773 69.388 19.147 Z" style="stroke-linejoin: round; stroke-linecap: round; fill: rgb(21, 41, 124);"/>
  <path d="M 4.984 48.217 C 6.126 45.999 8.728 44.226 12.039 43.389 L 19.407 43.389 L 19.407 43.518 L 73.527 43.518 L 73.527 43.532 L 75.427 43.532 C 78.738 44.368 81.341 46.141 82.482 48.359 L 82.482 53.61 C 81.341 55.828 78.738 57.601 75.427 58.437 L 73.527 58.437 L 73.527 58.536 L 19.406 58.536 L 19.406 58.58 L 12.039 58.578 C 8.727 57.742 6.125 55.969 4.982 53.751 L 4.984 50.651 L 4.984 48.217 Z" style="stroke: rgb(0, 0, 0); stroke-linejoin: round; stroke-linecap: round; fill: url(&quot;#gradient-2&quot;);"/>
  <path d="M 14.832 39.808 L 26.18 40.015 L 26.18 40.103 L 59.372 40.103 L 59.372 40.003 L 70.72 39.795 L 70.744 42.255 C 69.861 44.034 67.827 45.479 65.23 46.192 L 59.434 46.297 L 59.431 46.033 L 26.122 46.033 L 26.122 46.039 L 25.813 46.033 L 22.8 46.033 L 22.8 45.979 L 20.326 45.931 C 17.726 45.249 15.692 43.864 14.812 42.161 L 14.832 39.808 Z" style="stroke: rgb(0, 0, 0); stroke-linejoin: round; stroke-linecap: round; fill: rgb(255, 156, 0);"/>
  <path d="M 8.832 8.871 L 26.748 26.382 C 27.606 26.102 28.56 25.991 29.55 26.09 C 32.828 26.419 35.261 28.929 34.983 31.698 C 34.704 34.465 31.822 36.441 28.544 36.112 C 25.266 35.783 22.833 33.272 23.112 30.505 C 23.15 30.114 23.243 29.74 23.378 29.384 L 16.311 22.477 C 11.744 17.349 8.563 12.831 7.694 10.222 L 8.832 8.871 Z" style="stroke: rgb(0, 0, 0); stroke-linejoin: round; stroke-linecap: round; fill: url(&quot;#gradient-5&quot;); transform-origin: 22.134px 22.737px;"/>
  <g transform="matrix(1.155009, -0.274193, 0.268504, 1.375306, -0.832992, -2.689307)" style="transform-origin: 11.862px 17.639px;">
    <path d="M 13.052 20.964 L 13.052 26.317 L 10.434 26.317 L 10.434 23.583 C 10.71 22.354 11.297 21.388 12.028 20.964 L 13.052 20.964 Z" style="stroke: rgb(0, 0, 0); stroke-linejoin: round; stroke-linecap: round; transform-box: fill-box; transform-origin: 50% 50%; stroke-width: 0.641198px; fill: url(&quot;#gradient-4&quot;);" transform="matrix(-0.570538, -0.821271, 0.821271, -0.570538, -0.000001, -0.000002)"/>
    <path d="M 8.896 12.98 L 8.896 18.333 L 6.278 18.333 L 6.278 15.599 C 6.554 14.37 7.141 13.404 7.872 12.98 L 8.896 12.98 Z" style="stroke: rgb(0, 0, 0); stroke-linejoin: round; stroke-linecap: round; transform-origin: 7.587px 15.657px; stroke-width: 0.641194px; fill: url(&quot;#gradient-6&quot;);" transform="matrix(-0.142092, -0.989853, 0.989853, -0.142092, -0.000002, 0)"/>
    <path d="M 10.662 17.127 L 10.662 22.48 L 8.044 22.48 L 8.044 19.746 C 8.32 18.517 8.907 17.551 9.638 17.127 L 10.662 17.127 Z" style="stroke: rgb(0, 0, 0); stroke-linejoin: round; stroke-linecap: round; transform-origin: 9.353px 19.804px; stroke-width: 0.641197px; fill: url(&quot;#gradient-7&quot;);" transform="matrix(-0.465849, -0.884864, 0.884864, -0.465849, 0.000001, 0)"/>
    <path d="M 17.44 17.691 L 17.44 12.338 L 14.822 12.338 L 14.822 15.072 C 15.098 16.301 15.685 17.267 16.416 17.691 L 17.44 17.691 Z" style="stroke: rgb(0, 0, 0); stroke-linejoin: round; stroke-linecap: round; transform-origin: 16.131px 15.014px; stroke-width: 0.641199px; fill: url(&quot;#gradient-8&quot;);" transform="matrix(-0.689551, -0.724237, 0.724237, -0.689551, 0.000001, 0)"/>
    <path d="M 14.93 14.622 L 14.93 9.269 L 12.312 9.269 L 12.312 12.003 C 12.588 13.232 13.175 14.198 13.906 14.622 L 14.93 14.622 Z" style="stroke: rgb(0, 0, 0); stroke-linejoin: round; stroke-linecap: round; transform-origin: 13.621px 11.945px; stroke-width: 0.641199px; fill: url(&quot;#gradient-9&quot;);" transform="matrix(-0.782727, -0.622365, 0.622365, -0.782727, -0.000002, -0.000002)"/>
  </g>
  <path d="M 19.796 9.739 L 15.574 15.798 L 18.3 17.992 L 20.456 14.897 C 21.138 13.275 21.289 11.69 20.862 10.596 L 19.796 9.739 Z" style="stroke: rgb(0, 0, 0); stroke-linejoin: round; stroke-linecap: round; fill: url(&quot;#gradient-10&quot;); transform-origin: 21.094px 14.952px;"/>
  <ellipse style="stroke: rgb(0, 0, 0); fill: rgb(255, 156, 0);" cx="58.114" cy="44.076" rx="6.785" ry="11.655"/>
  <ellipse style="stroke: rgb(0, 0, 0); fill: rgb(255, 156, 0);" cx="68.797" cy="43.296" rx="3.112" ry="9.776"/>
  <g transform="matrix(0.684348, 0, 0, 1.042168, 80.109352, -20.814337)" style="">
    <ellipse style="stroke: rgb(0, 0, 0); fill: rgb(149, 149, 149);" cx="-30.569" cy="62.295" rx="7.479" ry="8.294"/>
    <ellipse style="fill: rgb(96, 96, 96);" cx="-28.592" cy="62.146" rx="4.78" ry="6.392"/>
  </g>
  <ellipse style="stroke: rgb(0, 0, 0); fill: rgb(96, 96, 96);" cx="69.908" cy="42.911" rx="1.795" ry="7.944"/>
  <path style="stroke: rgb(0, 0, 0); stroke-miterlimit: 4.63; stroke-width: 7.48475px; fill: rgb(255, 156, 0);" transform="matrix(0.033947, 0, 0, 0.108123, 50.035011, -4.625269)" d="M 464.356 181 L 485.644 181 L 490.136 213.513 A 56.55 56.55 0 0 1 502.825 218.769 L 528.992 198.955 L 544.045 214.008 L 524.231 240.175 A 56.55 56.55 0 0 1 529.487 252.864 L 562 257.356 L 562 278.644 L 529.487 283.136 A 56.55 56.55 0 0 1 524.231 295.825 L 544.045 321.992 L 528.992 337.045 L 502.825 317.231 A 56.55 56.55 0 0 1 490.136 322.487 L 485.644 355 L 464.356 355 L 459.864 322.487 A 56.55 56.55 0 0 1 447.175 317.231 L 421.008 337.045 L 405.955 321.992 L 425.769 295.825 A 56.55 56.55 0 0 1 420.513 283.136 L 388 278.644 L 388 257.356 L 420.513 252.864 A 56.55 56.55 0 0 1 425.769 240.175 L 405.955 214.008 L 421.008 198.955 L 447.175 218.769 A 56.55 56.55 0 0 1 459.864 213.513 Z M 475 241.9 A 26.1 26.1 0 0 0 475 294.1 A 26.1 26.1 0 0 0 475 241.9" bx:shape="cog 475 268 26.1 56.55 87 0.38 8 1@36eb139e"/>
  <g>
    <rect x="26.896" y="138.646" width="32.233" height="5.42" style="fill: rgb(21, 41, 124);"/>
    <rect x="25.285" y="135.229" width="33.409" height="6.283" style="fill: rgb(255, 156, 0); stroke: rgb(58, 36, 3);"/>
    <path d="M 57.321 -145.587 L 62.927 -140.759 L 60.786 -132.947 L 53.856 -132.947 L 51.715 -140.759 Z" bx:shape="n-gon 57.321 -138.6 5.895 6.987 5 0 1@bbb03090" style="fill: rgb(119, 77, 10); stroke: rgb(58, 36, 3);" transform="matrix(1, 0, 0, -1, 0, 0)"/>
    <path d="M 58.601 -142.926 L 60.604 -139.446 L 59.839 -133.816 L 57.363 -133.816 L 56.598 -139.446 Z" bx:shape="n-gon 58.601 -137.89 2.106 5.036 5 0 1@5a4f3e56" style="fill: rgb(0, 234, 255); stroke: rgb(10, 69, 67);" transform="matrix(1, 0, 0, -1, 0, 0)"/>
  </g>
  <ellipse style="fill: rgb(0, 241, 255); filter: url(&quot;#filter-1&quot;);" cx="29.023" cy="30.903" rx="4.472" ry="4.224"/>
</svg>