<?xml version="1.0" encoding="utf-8"?>
<svg xmlns="http://www.w3.org/2000/svg" viewBox="0 0 110 180" width="110px" height="180px" xmlns:bx="https://boxy-svg.com">
  <defs>
    <linearGradient gradientUnits="userSpaceOnUse" x1="61.751" y1="4.64" x2="61.751" y2="26.708" id="gradient-6" gradientTransform="matrix(-1.180857, -1.017182, 1.008421, -1.191115, 147.067795, 105.596901)">
      <stop offset="0" style="stop-color: rgb(26.667% 64.706% 38.431%)"/>
      <stop offset="1" style="stop-color: rgb(0% 39.662% 15.739%)"/>
    </linearGradient>
    <linearGradient gradientUnits="userSpaceOnUse" x1="16.555" y1="5.154" x2="16.555" y2="27.222" id="gradient-5" gradientTransform="matrix(1.180857, -1.017182, 1.008421, 1.191115, -16.102768, 22.477142)">
      <stop offset="0" style="stop-color: rgb(26.667% 64.706% 38.431%)"/>
      <stop offset="1" style="stop-color: rgb(0% 39.662% 15.739%)"/>
    </linearGradient>
    <linearGradient gradientUnits="userSpaceOnUse" x1="33.017" y1="87.365" x2="33.017" y2="109.039" id="gradient-3" gradientTransform="matrix(1.668197, 0, 0, 1.40709, -10.081322, 25.490955)">
      <stop offset="0" style="stop-color: rgb(26.667% 64.706% 38.431%)"/>
      <stop offset="1" style="stop-color: rgb(0% 39.662% 15.739%)"/>
    </linearGradient>
    <filter id="gaussian-blur-filter-0" color-interpolation-filters="sRGB" x="-50%" y="-50%" width="200%" height="200%">
      <title>Desfoque gaussiano</title>
      <feGaussianBlur stdDeviation="0.7 0.7" edgeMode="none"/>
    </filter>
    <linearGradient gradientUnits="userSpaceOnUse" x1="143.447" y1="91.624" x2="143.447" y2="99.572" id="gradient-14" gradientTransform="matrix(0.597844, 0.712981, -0.468015, 0.439073, 33.532239, -19.666676)">
      <stop offset="0" style="stop-color: rgb(0% 14.51% 73.725%)"/>
      <stop offset="1" style="stop-color: rgb(0% 18.802% 38.225%)"/>
    </linearGradient>
    <radialGradient gradientUnits="userSpaceOnUse" cx="87.085" cy="138.9" r="14.726" id="gradient-11" gradientTransform="matrix(0.636504, 0, 0, 0.936654, 31.655066, 8.854091)">
      <stop offset="0" style="stop-color: rgb(100% 58.431% 0%)"/>
      <stop offset="1" style="stop-color: rgb(64.317% 29.827% 0%)"/>
    </radialGradient>
    <radialGradient gradientUnits="userSpaceOnUse" cx="86.593" cy="150.219" r="7.676" id="gradient-12" gradientTransform="matrix(0.600709, 0, 0, 0.985816, 34.576111, 2.130868)">
      <stop offset="0" style="stop-color: rgb(48.235% 48.235% 48.235%)"/>
      <stop offset="1" style="stop-color: rgb(28.577% 28.577% 28.577%)"/>
    </radialGradient>
    <radialGradient gradientUnits="userSpaceOnUse" cx="86.579" cy="144.39" r="12.997" id="gradient-13" gradientTransform="matrix(0.738247, 0, 0, 0.936654, 22.662322, 9.209641)">
      <stop offset="0" style="stop-color: rgb(100% 58.431% 0%)"/>
      <stop offset="1" style="stop-color: rgb(64.317% 29.827% 0%)"/>
    </radialGradient>
  </defs>
  <path d="M 99.136 9.297 L 76.882 35.583 L 80.771 38.933 L 92.138 25.506 C 96.837 19.119 99.981 13.625 100.657 10.608 L 99.136 9.297 Z" style="stroke: rgb(0, 0, 0); stroke-linejoin: round; stroke-linecap: round; fill: url(&quot;#gradient-6&quot;); transform-origin: 61.832px 10.547px;"/>
  <g transform="matrix(-1.552848, 0, 0, 1.566338, 115.861801, -11.105689)">
    <path d="M 13.052 20.964 L 13.052 26.317 L 10.434 26.317 L 10.434 23.583 C 10.71 22.354 11.297 21.388 12.028 20.964 L 13.052 20.964 Z" style="stroke: rgb(0, 0, 0); stroke-linejoin: round; stroke-linecap: round; transform-box: fill-box; transform-origin: 50% 50%; fill: rgb(0, 253, 246);" transform="matrix(-0.570538, -0.821271, 0.821271, -0.570538, -0.000001, -0.000002)"/>
    <path d="M 8.896 12.98 L 8.896 18.333 L 6.278 18.333 L 6.278 15.599 C 6.554 14.37 7.141 13.404 7.872 12.98 L 8.896 12.98 Z" style="stroke: rgb(0, 0, 0); stroke-linejoin: round; stroke-linecap: round; transform-origin: 7.587px 15.657px; fill: rgb(0, 253, 246);" transform="matrix(-0.142092, -0.989853, 0.989853, -0.142092, -0.000002, 0)"/>
    <path d="M 10.662 17.127 L 10.662 22.48 L 8.044 22.48 L 8.044 19.746 C 8.32 18.517 8.907 17.551 9.638 17.127 L 10.662 17.127 Z" style="stroke: rgb(0, 0, 0); stroke-linejoin: round; stroke-linecap: round; transform-origin: 9.353px 19.804px; fill: rgb(0, 253, 246);" transform="matrix(-0.465849, -0.884864, 0.884864, -0.465849, 0.000001, 0)"/>
    <path d="M 17.44 17.691 L 17.44 12.338 L 14.822 12.338 L 14.822 15.072 C 15.098 16.301 15.685 17.267 16.416 17.691 L 17.44 17.691 Z" style="stroke: rgb(0, 0, 0); stroke-linejoin: round; stroke-linecap: round; transform-origin: 16.131px 15.014px; fill: rgb(0, 253, 246);" transform="matrix(-0.689551, -0.724237, 0.724237, -0.689551, 0.000001, 0)"/>
    <path d="M 14.93 14.622 L 14.93 9.269 L 12.312 9.269 L 12.312 12.003 C 12.588 13.232 13.175 14.198 13.906 14.622 L 14.93 14.622 Z" style="stroke: rgb(0, 0, 0); stroke-linejoin: round; stroke-linecap: round; transform-origin: 13.621px 11.945px; fill: rgb(0, 253, 246);" transform="matrix(-0.782727, -0.622365, 0.622365, -0.782727, -0.000002, -0.000002)"/>
  </g>
  <path d="M 85.021 12.772 L 91.041 18.553 L 88.237 21.523 L 85.163 18.57 C 84.076 16.93 83.618 15.22 83.924 13.933 L 85.021 12.772 Z" style="stroke: rgb(0, 0, 0); stroke-linejoin: round; stroke-linecap: round; transform-origin: 59.692px 6.099px; fill: rgb(0, 202, 197);"/>
  <path d="M 10.59 10.103 L 32.841 36.388 L 28.952 39.738 L 17.585 26.311 C 12.886 19.924 9.74 14.431 9.07 11.413 L 10.59 10.103 Z" style="stroke: rgb(0, 0, 0); stroke-linejoin: round; stroke-linecap: round; fill: url(&quot;#gradient-5&quot;); transform-origin: 16.636px 11.061px;"/>
  <g transform="matrix(1.552848, 0, 0, 1.566338, -6.136151, -10.300422)">
    <path d="M 13.052 20.964 L 13.052 26.317 L 10.434 26.317 L 10.434 23.583 C 10.71 22.354 11.297 21.388 12.028 20.964 L 13.052 20.964 Z" style="stroke: rgb(0, 0, 0); stroke-linejoin: round; stroke-linecap: round; transform-box: fill-box; transform-origin: 50% 50%; fill: rgb(0, 254, 247);" transform="matrix(-0.570538, -0.821271, 0.821271, -0.570538, -0.000001, -0.000002)"/>
    <path d="M 8.896 12.98 L 8.896 18.333 L 6.278 18.333 L 6.278 15.599 C 6.554 14.37 7.141 13.404 7.872 12.98 L 8.896 12.98 Z" style="stroke: rgb(0, 0, 0); stroke-linejoin: round; stroke-linecap: round; transform-origin: 7.587px 15.657px; fill: rgb(0, 254, 247);" transform="matrix(-0.142092, -0.989853, 0.989853, -0.142092, -0.000002, 0)"/>
    <path d="M 10.662 17.127 L 10.662 22.48 L 8.044 22.48 L 8.044 19.746 C 8.32 18.517 8.907 17.551 9.638 17.127 L 10.662 17.127 Z" style="stroke: rgb(0, 0, 0); stroke-linejoin: round; stroke-linecap: round; transform-origin: 9.353px 19.804px; fill: rgb(0, 254, 247);" transform="matrix(-0.465849, -0.884864, 0.884864, -0.465849, 0.000001, 0)"/>
    <path d="M 17.44 17.691 L 17.44 12.338 L 14.822 12.338 L 14.822 15.072 C 15.098 16.301 15.685 17.267 16.416 17.691 L 17.44 17.691 Z" style="stroke: rgb(0, 0, 0); stroke-linejoin: round; stroke-linecap: round; transform-origin: 16.131px 15.014px; fill: rgb(0, 254, 247);" transform="matrix(-0.689551, -0.724237, 0.724237, -0.689551, 0.000001, 0)"/>
    <path d="M 14.93 14.622 L 14.93 9.269 L 12.312 9.269 L 12.312 12.003 C 12.588 13.232 13.175 14.198 13.906 14.622 L 14.93 14.622 Z" style="stroke: rgb(0, 0, 0); stroke-linejoin: round; stroke-linecap: round; transform-origin: 13.621px 11.945px; fill: rgb(0, 254, 247);" transform="matrix(-0.782727, -0.622365, 0.622365, -0.782727, -0.000002, -0.000002)"/>
  </g>
  <path d="M 24.702 13.577 L 18.682 19.358 L 21.485 22.328 L 24.56 19.375 C 25.647 17.735 26.105 16.026 25.799 14.738 L 24.702 13.577 Z" style="stroke: rgb(0, 0, 0); stroke-linejoin: round; stroke-linecap: round; transform-origin: 18.776px 6.613px; fill: rgb(0, 255, 248);"/>
  <path d="M 35.439 102.478 L 35.41 102.65 C 37.149 104.426 38.003 108.213 37.388 112.396 C 36.731 116.853 34.609 120.398 32.256 121.367 L 31.023 128.68 L 31.062 128.686 L 28.788 142.182 L 24.458 141.447 C 21.539 139.855 19.469 136.998 18.821 133.703 L 19.984 126.807 L 20.019 126.813 L 23.763 104.603 L 23.606 104.576 L 26.016 90.278 L 31.568 101.822 L 31.766 101.855 C 32.334 101.618 32.916 101.529 33.493 101.615 C 34.115 101.706 34.683 101.991 35.185 102.435 L 35.439 102.478 Z" style="fill: rgb(38, 123, 67); stroke-width: 2px; stroke: rgb(10, 44, 20);"/>
  <path d="M 84.397 67.761 C 84.397 80.799 77.139 92.066 66.616 97.379 C 66.753 97.678 66.87 97.993 66.966 98.32 L 66.966 102.115 L 66.615 102.115 L 66.955 102.241 L 65.517 105.782 C 64.404 107.204 62.907 108.094 61.447 108.193 L 58.868 104.307 L 62.656 98.83 C 64.954 103.653 48.511 104.441 45.15 102.578 L 44.302 99.369 C 43.862 99.238 43.425 99.096 42.993 98.945 L 42.993 101.724 L 45.504 107.904 L 43.774 108.536 C 42.314 108.437 40.817 107.547 39.704 106.125 L 38.266 102.584 L 38.606 102.458 L 38.255 102.458 L 38.255 98.663 C 38.414 98.123 38.63 97.617 38.892 97.163 C 28.598 91.762 21.534 80.625 21.534 67.761 C 21.534 49.605 35.606 34.888 52.965 34.888 C 70.325 34.888 84.397 49.605 84.397 67.761 Z" style="fill: rgb(38, 123, 67); stroke-width: 2px; stroke: rgb(10, 44, 20);"/>
  <rect x="35.755" y="148.421" width="18.485" height="30.497" style="fill: url(&quot;#gradient-3&quot;); stroke-width: 2px; stroke: rgb(10, 44, 20);"/>
  <rect x="53.479" y="144.077" width="15.807" height="30.813" style="stroke: rgb(10, 44, 20); stroke-width: 2px; fill: rgb(38, 123, 67);"/>
  <path d="M 34.661 102.124 L 70.175 102.124 L 70.175 169.607 L 58.231 169.607 L 53 154.084 L 46.605 169.607 L 34.661 169.607 L 34.661 102.124 Z" style="fill: rgb(27, 66, 228); stroke-width: 2px; stroke: rgb(14, 29, 91);"/>
  <path d="M 79.18 90.241 L 82.085 103.288 L 81.926 103.323 L 86.437 123.588 L 86.475 123.58 L 87.877 129.872 C 87.303 132.967 85.242 135.76 82.269 137.447 L 77.812 138.441 L 75.068 126.125 L 75.11 126.116 L 74.767 124.579 C 71.673 124.018 68.616 119.668 67.556 113.968 C 66.347 107.457 68.205 101.65 71.705 101 C 72.404 100.87 73.116 100.955 73.817 101.227 L 79.18 90.241 Z" style="stroke-width: 2px; stroke: rgb(10, 44, 20); fill: rgb(18, 86, 41);"/>
  <rect x="35.553" y="139.838" width="34.433" height="5.42" style="fill: rgb(21, 41, 124);"/>
  <rect x="34.853" y="136.421" width="35.624" height="4.61" style="fill: rgb(255, 156, 0); stroke: rgb(58, 36, 3);"/>
  <ellipse style="fill: rgb(0, 255, 248); filter: url(&quot;#gaussian-blur-filter-0&quot;); transform-origin: 25.843px 33.348px;" cx="25.843" cy="33.348" rx="2.697" ry="9.181" transform="matrix(0.80463, -0.593777, 0.593777, 0.80463, -10.685904, -15.370685)"/>
  <ellipse style="fill: rgb(0, 255, 248); filter: url(&quot;#gaussian-blur-filter-0&quot;); transform-origin: 25.843px 33.348px;" cx="25.843" cy="33.348" rx="2.697" ry="8.768" transform="matrix(-0.756465, -0.654034, -0.654034, 0.756465, 68.788745, -15.847943)"/>
  <path d="M 28.325 14.07 C 31.194 9.058 37.278 5.118 44.889 3.388 L 54.644 3.388 L 54.644 3.37 L 65.273 3.37 C 72.881 5.101 78.966 9.041 81.837 14.053 L 81.837 16.947 L 81.882 16.947 L 81.882 46.742 L 28.269 46.742 L 28.269 16.947 L 28.325 16.947 L 28.325 14.07 Z" style="stroke: rgb(0, 0, 0); stroke-linejoin: round; stroke-linecap: round; fill: rgb(21, 41, 124);"/>
  <path d="M 84.597 57.05 C 84.597 62.142 79.145 66.632 70.854 69.282 C 71.048 69.977 71.149 70.693 71.149 71.424 C 71.149 77.951 63.076 83.242 53.118 83.242 C 43.16 83.242 35.087 77.951 35.087 71.424 C 35.087 70.625 35.208 69.843 35.44 69.088 C 27.483 66.415 22.291 62.02 22.291 57.05 C 22.291 48.904 36.239 42.301 53.444 42.301 C 70.649 42.301 84.597 48.904 84.597 57.05 Z" style="fill: rgba(0, 0, 0, 0.19);"/>
  <path d="M 11.94 48.879 C 13.203 46.661 16.087 44.888 19.755 44.051 L 27.919 44.051 L 27.919 44.18 L 87.883 44.18 L 87.883 44.194 L 89.988 44.194 C 93.656 45.03 96.54 46.803 97.805 49.021 L 97.805 54.272 C 96.54 56.49 93.656 58.263 89.988 59.099 L 87.883 59.099 L 87.883 59.198 L 27.918 59.198 L 27.918 59.242 L 19.755 59.24 C 16.085 58.404 13.202 56.631 11.94 54.413 L 11.94 51.313 L 11.94 48.879 Z" style="stroke: rgb(0, 0, 0); stroke-linejoin: round; stroke-linecap: round; fill: rgb(21, 41, 124);"/>
  <ellipse style="fill: rgb(9, 16, 49);" cx="55.154" cy="46.896" rx="28.829" ry="6.548"/>
  <path d="M 80.447 13.578 L 80.447 16.184 L 80.506 16.184 L 80.506 43.003 L 64.509 43.003 L 64.509 5.173 C 71.752 7.026 77.437 9.998 80.447 13.578 Z" style="stroke-linejoin: round; stroke-linecap: round; fill: rgb(27, 66, 228);"/>
  <path d="M 28.27 40.961 L 39.094 41.163 L 39.094 41.249 L 70.756 41.249 L 70.756 41.151 L 81.58 40.948 L 81.603 43.35 C 80.76 45.088 78.82 46.5 76.343 47.195 L 70.814 47.298 L 70.811 47.04 L 39.038 47.04 L 39.038 47.046 L 38.744 47.04 L 35.872 47.04 L 35.872 46.987 L 33.51 46.941 C 31.031 46.274 29.092 44.922 28.249 43.259 L 28.27 40.961 Z" style="stroke: rgb(0, 0, 0); stroke-linejoin: round; stroke-linecap: round; fill: rgb(255, 156, 0);"/>
  <path style="stroke-miterlimit: 4.63; stroke-width: 7.48475px; fill: rgb(255, 156, 0); stroke: rgb(21, 41, 124);" transform="matrix(0.080202, 0, 0, 0.085323, 16.296398, 21.014456)" d="M 464.356 181 L 485.644 181 L 490.136 213.513 A 56.55 56.55 0 0 1 502.825 218.769 L 528.992 198.955 L 544.045 214.008 L 524.231 240.175 A 56.55 56.55 0 0 1 529.487 252.864 L 562 257.356 L 562 278.644 L 529.487 283.136 A 56.55 56.55 0 0 1 524.231 295.825 L 544.045 321.992 L 528.992 337.045 L 502.825 317.231 A 56.55 56.55 0 0 1 490.136 322.487 L 485.644 355 L 464.356 355 L 459.864 322.487 A 56.55 56.55 0 0 1 447.175 317.231 L 421.008 337.045 L 405.955 321.992 L 425.769 295.825 A 56.55 56.55 0 0 1 420.513 283.136 L 388 278.644 L 388 257.356 L 420.513 252.864 A 56.55 56.55 0 0 1 425.769 240.175 L 405.955 214.008 L 421.008 198.955 L 447.175 218.769 A 56.55 56.55 0 0 1 459.864 213.513 Z M 475 241.9 A 26.1 26.1 0 0 0 475 294.1 A 26.1 26.1 0 0 0 475 241.9" bx:shape="cog 475 268 26.1 56.55 87 0.38 8 1@36eb139e"/>
  <path d="M 85.32 115.024 L 89.224 120.916 L 85.822 127.532 L 83.189 126.608 L 84.441 121.649 L 86.809 120.546 C 85.344 118.079 85.32 115.024 85.32 115.024 Z" style="stroke: rgb(0, 0, 0); fill: rgb(0, 37, 188); stroke-width: 2.13146px; transform-origin: 115.123px 109.887px;"/>
  <path d="M 72.564 118.324 L 71.664 125.175 L 77.736 129.897 L 79.718 128.051 L 76.347 124.017 L 73.695 123.916 C 73.917 121.113 72.564 118.324 72.564 118.324 Z" style="stroke: rgb(0, 0, 0); fill: url(&quot;#gradient-14&quot;); stroke-width: 2.13146px; transform-origin: 101.885px 108.591px;"/>
  <rect x="77.233" y="112.589" width="10.681" height="5.306" style="stroke: rgb(0, 0, 0); fill: rgb(13, 21, 55); stroke-width: 2.13146px;" transform="matrix(0.968068, -0.250687, 0.275475, 0.961649, -29.692902, 39.870159)"/>
  <rect x="76.356" y="116.368" width="12.495" height="24.21" style="stroke: rgb(0, 0, 0); fill: rgb(0, 50, 255); stroke-width: 2.13146px;" transform="matrix(0.968068, -0.250687, 0.275475, 0.961649, -29.994137, 39.429958)"/>
  <path d="M 87.085 131.212 L 96.459 137.128 L 92.878 146.699 L 81.292 146.699 L 77.711 137.128 Z" bx:shape="n-gon 87.085 139.773 9.856 8.561 5 0 1@085ee8d2" style="stroke: rgb(0, 0, 0); fill: url(&quot;#gradient-11&quot;); stroke-width: 2.13146px;" transform="matrix(0.96806818324, -0.250687041145, 0.275474856316, 0.961649230372, -36.900042558015, 31.187920794047)"/>
  <ellipse style="fill: rgb(0, 255, 255); stroke: url(&quot;#gradient-12&quot;); stroke-width: 2.13146px;" cx="86.593" cy="150.219" rx="4.612" ry="5.177" transform="matrix(0.968068, -0.250687, 0.275475, 0.961649, -35.479344, 33.921879)"/>
  <path d="M 86.579 135.625 L 96.174 142.369 L 92.509 153.281 L 80.649 153.281 L 76.984 142.369 Z" bx:shape="n-gon 86.579 145.385 10.089 9.76 5 0 1@27638ca5" style="stroke: rgb(0, 0, 0); fill: url(&quot;#gradient-13&quot;); stroke-width: 2.13146px;" transform="matrix(0.96806818324, -0.250687041145, 0.275474856316, 0.961649230372, -36.769666829207, 29.540240084544)"/>
  <ellipse style="fill: rgba(255, 255, 255, 0.74); stroke-width: 2.13146px;" cx="86.593" cy="150.219" rx="2.309" ry="1.983" transform="matrix(0.968068, -0.250687, 0.275475, 0.961649, -34.995665, 36.13631)"/>
  <path d="M 86.427 141.837 L 95.636 147.338 L 92.119 156.239 L 80.735 156.239 L 77.218 147.338 Z" bx:shape="n-gon 86.427 149.798 9.683 7.961 5 0 1@bb802d32" style="fill: rgb(255, 149, 0); stroke: rgb(0, 0, 0); stroke-width: 2.13146px;" transform="matrix(0.96806818324, -0.250687041145, 0.275474856316, 0.961649230372, -37.164326519647, 28.098977928148)"/>
  <path d="M 83.818 145.281 L 82.167 151.562 L 86.294 157.647 L 88.107 156.411 L 86.01 151.689 L 83.937 150.897 C 84.498 148.289 83.818 145.281 83.818 145.281 Z" style="transform-origin: 101.71px 137.527px; fill: rgb(0, 255, 255); stroke: rgba(255, 255, 255, 0.43);"/>
  <path d="M 89.091 143.659 L 93.627 148.538 L 92.93 155.717 L 90.714 155.394 L 90.271 150.297 L 91.728 148.705 C 89.955 146.625 89.091 143.659 89.091 143.659 Z" style="transform-origin: 109.877px 138.044px; stroke: rgba(255, 255, 255, 0.463); fill: rgb(0, 255, 255);"/>
  <rect x="48.196" y="143.275" width="11.586" height="4.506" style="fill: rgb(21, 41, 124);"/>
  <rect x="49.562" y="134.582" width="3.056" height="7.762" style="fill: rgb(255, 156, 0); stroke: rgb(58, 36, 3);"/>
  <rect x="55.502" y="134.502" width="3.056" height="7.762" style="fill: rgb(255, 156, 0); stroke: rgb(58, 36, 3);"/>
</svg>