<?xml version="1.0" encoding="utf-8"?>
<svg xmlns="http://www.w3.org/2000/svg" viewBox="0 0 110 180" width="110px" height="180px" xmlns:bx="https://boxy-svg.com">
  <defs>
    <linearGradient gradientUnits="userSpaceOnUse" x1="61.751" y1="4.64" x2="61.751" y2="26.708" id="gradient-6" gradientTransform="matrix(-1.180857, -1.017182, 1.008421, -1.191115, 210.612679, 90.387865)">
      <stop offset="0" style="stop-color: rgb(26.667% 64.706% 38.431%)"/>
      <stop offset="1" style="stop-color: rgb(0% 39.662% 15.739%)"/>
    </linearGradient>
    <linearGradient gradientUnits="userSpaceOnUse" x1="43.08" y1="89.367" x2="43.08" y2="109.039" id="gradient-0" gradientTransform="matrix(-1.366247, -0.325979, 0.286265, -1.372809, 80.862771, 297.319643)">
      <stop offset="0" style="stop-color: rgb(8.6275% 32.549% 16.078%)"/>
      <stop offset="1" style="stop-color: rgb(0% 21.246% 5.8187%)"/>
    </linearGradient>
    <filter id="gaussian-blur-filter-0" color-interpolation-filters="sRGB" x="-50%" y="-50%" width="200%" height="200%">
      <title>Desfoque gaussiano</title>
      <feGaussianBlur stdDeviation="0.7 0.7" edgeMode="none"/>
    </filter>
    <linearGradient gradientUnits="userSpaceOnUse" x1="143.447" y1="91.624" x2="143.447" y2="99.572" id="gradient-14">
      <stop offset="0" style="stop-color: rgb(0% 14.51% 73.725%)"/>
      <stop offset="1" style="stop-color: rgb(0% 18.802% 38.225%)"/>
    </linearGradient>
    <radialGradient gradientUnits="userSpaceOnUse" cx="87.085" cy="138.9" r="14.726" id="gradient-11" gradientTransform="matrix(1, 0, 0, 1, 0.000015, 0.000015)">
      <stop offset="0" style="stop-color: rgb(100% 58.431% 0%)"/>
      <stop offset="1" style="stop-color: rgb(64.317% 29.827% 0%)"/>
    </radialGradient>
    <radialGradient gradientUnits="userSpaceOnUse" cx="86.579" cy="144.39" r="12.997" id="gradient-13" gradientTransform="matrix(1.159847, 0, 0, 1, -13.839353, 0.000067)">
      <stop offset="0" style="stop-color: rgb(100% 58.431% 0%)"/>
      <stop offset="1" style="stop-color: rgb(64.317% 29.827% 0%)"/>
    </radialGradient>
    <radialGradient gradientUnits="userSpaceOnUse" cx="86.593" cy="150.219" r="7.676" id="gradient-12" gradientTransform="matrix(1.132039, 0, 0, 1.266574, -11.433768, -40.04508)">
      <stop offset="0" style="stop-color: rgb(48.235% 48.235% 48.235%)"/>
      <stop offset="1" style="stop-color: rgb(28.577% 28.577% 28.577%)"/>
    </radialGradient>
    <linearGradient gradientUnits="userSpaceOnUse" x1="135.744" y1="112.372" x2="135.744" y2="118.655" id="gradient-4" gradientTransform="matrix(1.165885, 0, 0, 1.071765, -218.849075, 4.77806)">
      <stop offset="0" style="stop-color: rgb(100% 61.176% 0%)"/>
      <stop offset="1" style="stop-color: rgb(63.733% 31.968% 0%)"/>
    </linearGradient>
    <radialGradient gradientUnits="userSpaceOnUse" cx="54.995" cy="25.183" r="26.807" id="gradient-1" gradientTransform="matrix(1, 0, 0, -1.071765, 7.175328, 53.704308)">
      <stop offset="0" style="stop-color: rgb(10.588% 25.882% 89.412%)"/>
      <stop offset="1" style="stop-color: rgb(0% 24.045% 48.428%)"/>
    </radialGradient>
    <radialGradient gradientUnits="userSpaceOnUse" cx="54.79" cy="51.774" r="42.935" id="gradient-2" gradientTransform="matrix(1, 0, 0, -0.794858, 7.956159, 86.193468)">
      <stop offset="0" style="stop-color: rgb(10.588% 25.882% 89.412%)"/>
      <stop offset="1" style="stop-color: rgb(0% 24.045% 48.428%)"/>
    </radialGradient>
    <linearGradient gradientUnits="userSpaceOnUse" x1="33.017" y1="87.365" x2="33.017" y2="109.039" id="gradient-7" gradientTransform="matrix(-2.290203, 0.542029, -0.167325, -0.820408, 141.844213, 192.253725)">
      <stop offset="0" style="stop-color: rgb(26.667% 64.706% 38.431%)"/>
      <stop offset="1" style="stop-color: rgb(0% 39.662% 15.739%)"/>
    </linearGradient>
    <linearGradient gradientUnits="userSpaceOnUse" x1="61.751" y1="4.64" x2="61.751" y2="26.708" id="gradient-3" gradientTransform="matrix(-1.180857, -1.017182, 1.008421, -1.191115, 210.612679, 90.387865)">
      <stop offset="0" style="stop-color: rgb(26.667% 64.706% 38.431%)"/>
      <stop offset="1" style="stop-color: rgb(0% 39.662% 15.739%)"/>
    </linearGradient>
  </defs>
  <g transform="matrix(0.998286, -0.062729, 0.058528, 1.069928, -63.362949, 13.195354)" style="transform-origin: 156.031px 6.518px;">
    <path d="M 162.682 -5.912 L 140.428 20.374 L 144.317 23.724 L 155.684 10.297 C 160.383 3.91 163.527 -1.584 164.203 -4.601 L 162.682 -5.912 Z" style="stroke: rgb(0, 0, 0); stroke-linejoin: round; stroke-linecap: round; transform-origin: 125.378px -4.662px; fill: url(&quot;#gradient-3&quot;);"/>
    <path d="M 164.47 11.73 L 157.643 6.946 L 155.324 10.314 L 158.81 12.757 C 160.622 13.5 162.374 13.608 163.562 13.047 L 164.47 11.73 Z" style="stroke: rgb(0, 0, 0); stroke-linejoin: round; stroke-linecap: round; stroke-width: 0.641198px; fill: rgb(49, 102, 50); transform-origin: 77.044px 5.663px;"/>
    <path d="M 171.358 -1.577 L 163.13 -2.768 L 162.552 1.291 L 166.755 1.899 C 168.705 1.745 170.319 1.05 171.132 0.011 L 171.358 -1.577 Z" style="stroke: rgb(0, 0, 0); stroke-linejoin: round; stroke-linecap: round; stroke-width: 0.641194px; fill: rgb(49, 102, 50); transform-box: fill-box; transform-origin: 52.9501% 48.6225%;" transform="matrix(0.990302, 0.138934, -0.138934, 0.990302, 0, -0.000001)"/>
    <path d="M 168.525 5.319 L 161.17 1.413 L 159.276 5.041 L 163.033 7.036 C 164.921 7.55 166.673 7.442 167.784 6.738 L 168.525 5.319 Z" style="stroke: rgb(0, 0, 0); stroke-linejoin: round; stroke-linecap: round; stroke-width: 0.641197px; fill: rgb(49, 102, 50); transform-origin: 74.946px 1.993px;"/>
    <path d="M 151.766 -5.699 L 157.786 0.082 L 154.983 3.052 L 151.908 0.099 C 150.821 -1.541 150.363 -3.251 150.669 -4.538 L 151.766 -5.699 Z" style="stroke: rgb(0, 0, 0); stroke-linejoin: round; stroke-linecap: round; stroke-width: 0.641199px; fill: rgb(49, 102, 50); transform-origin: 81.724px -1.797px;"/>
    <path d="M 156.276 -10.688 L 161.45 -4.126 L 158.268 -1.573 L 155.625 -4.925 C 154.773 -6.701 154.553 -8.458 155.032 -9.69 L 156.276 -10.688 Z" style="stroke: rgb(0, 0, 0); stroke-linejoin: round; stroke-linecap: round; stroke-width: 0.641199px; fill: rgb(49, 102, 50); transform-origin: 79.214px -4.866px;"/>
    <path d="M 147.911 -0.962 L 153.931 4.819 L 151.127 7.789 L 148.053 4.836 C 146.966 3.196 146.508 1.486 146.814 0.199 L 147.911 -0.962 Z" style="stroke: rgb(0, 0, 0); stroke-linejoin: round; stroke-linecap: round; fill: rgb(49, 102, 50); transform-box: fill-box; transform-origin: 42.4502% 51.0687%;" transform="matrix(0.998276, -0.058696, 0.058696, 0.998276, 0, 0)"/>
    <ellipse style="fill: rgb(0, 255, 248); filter: url(&quot;#gaussian-blur-filter-0&quot;); transform-origin: 25.843px 33.348px;" cx="25.843" cy="33.348" rx="1.982" ry="4.791" transform="matrix(-0.712682, -0.701487, -0.701487, 0.712682, 123.415043, -19.784632)"/>
  </g>
  <g transform="matrix(-0.864497, -0.53871, 0.502638, -0.926537, 14.238942, -14.999071)" style="transform-origin: 70.9957px 98.2283px;">
    <path d="M 73.564 72.779 L 80.118 63.414 L 80.092 76.424 L 79.953 76.424 L 79.913 96.633 L 79.946 96.633 L 79.934 102.908 C 78.88 105.725 76.65 107.937 73.869 108.903 L 69.987 108.895 L 70.011 96.613 L 70.047 96.613 L 70.078 80.662 C 69.321 79.653 68.798 77.509 68.798 75.027 C 68.798 71.575 69.809 68.777 71.056 68.777 C 72.017 68.777 72.837 70.437 73.163 72.778 L 73.564 72.779 Z" style="stroke-width: 2px; stroke: rgb(10, 44, 20); fill: rgb(38, 123, 67); transform-box: fill-box; transform-origin: 50% 50%;" transform="matrix(0.974596, 0.223968, -0.223968, 0.974596, 0, -0.000001)"/>
    <g transform="matrix(-0.175953, 0.921582, -0.684652, -0.130717, -88.646492, 21.966183)" style="transform-origin: 159.642px 88.92px;">
      <path d="M 137.072 86.404 L 141.787 78.456 L 149.967 80.983 L 149.977 85.205 L 144.327 85.218 L 142.295 82.147 C 140.258 85.226 137.072 86.404 137.072 86.404 Z" style="stroke: rgb(0, 0, 0); fill: rgb(0, 37, 188); stroke-width: 2.13146px;"/>
      <path d="M 136.994 91.624 L 141.709 99.572 L 149.889 97.045 L 149.899 92.823 L 144.249 92.81 L 142.217 95.881 C 140.18 92.802 136.994 91.624 136.994 91.624 Z" style="stroke: rgb(0, 0, 0); fill: url(&quot;#gradient-14&quot;); stroke-width: 2.13146px;"/>
      <rect x="121.34" y="120.203" width="16.782" height="5.665" style="stroke: rgb(0, 0, 0); fill: rgb(13, 21, 55); stroke-width: 2.13146px;" transform="matrix(-0.001597, -0.999999, 0.999996, -0.003565, 28.209553, 219.226349)"/>
      <rect x="119.962" y="124.238" width="19.63" height="25.848" style="stroke: rgb(0, 0, 0); fill: rgb(0, 50, 255); stroke-width: 2.13146px;" transform="matrix(-0.001597, -0.999999, 0.999996, -0.003565, 27.674393, 219.492859)"/>
      <path d="M 87.085 130.633 L 101.811 136.949 L 96.186 147.167 L 77.984 147.167 L 72.359 136.949 Z" bx:shape="n-gon 87.085 139.773 15.484 9.14 5 0 1@efafd5d1" style="stroke: rgb(0, 0, 0); fill: url(&quot;#gradient-11&quot;); stroke-width: 2.13146px;" transform="matrix(-0.001597000047, -0.999998724795, 0.999995581889, -0.003565003563, 26.692048682688, 176.630023654043)"/>
      <path d="M 86.579 134.965 L 101.653 142.165 L 95.895 153.815 L 77.263 153.815 L 71.505 142.165 Z" bx:shape="n-gon 86.579 145.385 15.85 10.42 5 0 1@4cd93789" style="stroke: rgb(0, 0, 0); fill: url(&quot;#gradient-13&quot;); stroke-width: 2.13146px;" transform="matrix(-0.001597000862, -0.999998724793, 0.999995581885, -0.003565005193, 25.402558309378, 176.01350743414)"/>
      <path d="M 86.427 141.299 L 100.895 147.172 L 95.369 156.674 L 77.485 156.674 L 71.959 147.172 Z" bx:shape="n-gon 86.427 149.798 15.213 8.499 5 0 1@52e06b4f" style="fill: rgb(255, 149, 0); stroke: rgb(0, 0, 0); stroke-width: 2.13146px;" transform="matrix(-0.00159700028, -0.999998724794, 0.999995581887, -0.003565004727, 24.10588117976, 176.077426470697)"/>
      <ellipse style="fill: rgb(0, 255, 255); stroke: url(&quot;#gradient-12&quot;); stroke-width: 2.13146px;" cx="86.593" cy="150.219" rx="8.69" ry="6.653" transform="matrix(-0.001597, -0.999999, 0.999996, -0.003565, 25.542422, 176.363579)"/>
      <ellipse style="fill: rgba(255, 255, 255, 0.337); stroke-width: 2.13146px;" cx="86.593" cy="150.219" rx="6.273" ry="4.448" transform="matrix(-0.001597, -0.999999, 0.999996, -0.003565, 27.330264, 176.251)"/>
      <ellipse style="fill: rgba(255, 255, 255, 0.74); stroke-width: 2.13146px;" cx="86.593" cy="150.219" rx="3.629" ry="2.683" transform="matrix(-0.001597, -0.999999, 0.999996, -0.003565, 28.717383, 174.814003)"/>
    </g>
  </g>
  <g transform="matrix(-0.980093, 0.19982, 0.222561, 1.048159, -127.023994, 11.986633)" style="transform-origin: 156.031px 6.518px;">
    <path d="M 162.682 -5.912 L 140.428 20.374 L 144.317 23.724 L 155.684 10.297 C 160.383 3.91 163.527 -1.584 164.203 -4.601 L 162.682 -5.912 Z" style="stroke: rgb(0, 0, 0); stroke-linejoin: round; stroke-linecap: round; fill: url(&quot;#gradient-6&quot;); transform-origin: 125.378px -4.662px;"/>
    <path d="M 164.47 11.73 L 157.643 6.946 L 155.324 10.314 L 158.81 12.757 C 160.622 13.5 162.374 13.608 163.562 13.047 L 164.47 11.73 Z" style="stroke: rgb(0, 0, 0); stroke-linejoin: round; stroke-linecap: round; stroke-width: 0.641198px; fill: rgb(49, 102, 50); transform-origin: 77.044px 5.663px;"/>
    <path d="M 171.358 -1.577 L 163.13 -2.768 L 162.552 1.291 L 166.755 1.899 C 168.705 1.745 170.319 1.05 171.132 0.011 L 171.358 -1.577 Z" style="stroke: rgb(0, 0, 0); stroke-linejoin: round; stroke-linecap: round; stroke-width: 0.641194px; fill: rgb(49, 102, 50); transform-box: fill-box; transform-origin: 52.9501% 48.6225%;" transform="matrix(0.990302, 0.138934, -0.138934, 0.990302, 0, -0.000001)"/>
    <path d="M 168.525 5.319 L 161.17 1.413 L 159.276 5.041 L 163.033 7.036 C 164.921 7.55 166.673 7.442 167.784 6.738 L 168.525 5.319 Z" style="stroke: rgb(0, 0, 0); stroke-linejoin: round; stroke-linecap: round; stroke-width: 0.641197px; fill: rgb(49, 102, 50); transform-origin: 74.946px 1.993px;"/>
    <path d="M 151.766 -5.699 L 157.786 0.082 L 154.983 3.052 L 151.908 0.099 C 150.821 -1.541 150.363 -3.251 150.669 -4.538 L 151.766 -5.699 Z" style="stroke: rgb(0, 0, 0); stroke-linejoin: round; stroke-linecap: round; stroke-width: 0.641199px; fill: rgb(49, 102, 50); transform-origin: 81.724px -1.797px;"/>
    <path d="M 156.276 -10.688 L 161.45 -4.126 L 158.268 -1.573 L 155.625 -4.925 C 154.773 -6.701 154.553 -8.458 155.032 -9.69 L 156.276 -10.688 Z" style="stroke: rgb(0, 0, 0); stroke-linejoin: round; stroke-linecap: round; stroke-width: 0.641199px; fill: rgb(49, 102, 50); transform-origin: 79.214px -4.866px;"/>
    <path d="M 147.911 -0.962 L 153.931 4.819 L 151.127 7.789 L 148.053 4.836 C 146.966 3.196 146.508 1.486 146.814 0.199 L 147.911 -0.962 Z" style="stroke: rgb(0, 0, 0); stroke-linejoin: round; stroke-linecap: round; fill: rgb(49, 102, 50); transform-box: fill-box; transform-origin: 42.4502% 51.0687%;" transform="matrix(0.998276, -0.058696, 0.058696, 0.998276, 0, 0)"/>
    <ellipse style="fill: rgb(0, 255, 248); filter: url(&quot;#gaussian-blur-filter-0&quot;); transform-origin: 25.843px 33.348px;" cx="25.843" cy="33.348" rx="1.982" ry="4.791" transform="matrix(-0.712682, -0.701487, -0.701487, 0.712682, 123.415043, -19.784632)"/>
  </g>
  <path d="M 55.159 162.399 L 40.02 158.786 L 45.651 131.781 L 46.401 131.96 L 46.228 131.607 L 69.366 120.692 L 76.946 136.063 L 58.874 144.589 L 55.159 162.399 Z" style="fill: url(&quot;#gradient-0&quot;); stroke-width: 2px; stroke: rgb(12, 46, 22); transform-origin: 59.791px 148.49px;" transform="matrix(-1, 0, 0, -1, 0.000001, -0.000013)"/>
  <path d="M 64.298 135.471 L 50.014 138.853 L 39.027 164.049 L 22.346 155.693 L 35.614 125.263 L 35.295 123.696 L 36.413 123.431 L 36.791 122.565 L 37.847 123.091 L 60.671 117.69 L 64.298 135.471 Z" style="stroke-width: 2px; stroke: rgb(10, 44, 20); fill: url(&quot;#gradient-7&quot;); transform-origin: 45.657px 146.189px;" transform="matrix(-0.957127, 0.28967, -0.28967, -0.957127, -0.000009, 0.000011)"/>
  <path d="M 29.079 75.359 L 29.105 75.329 L 20.043 66.205 L 17.117 69.543 C 15.739 72.655 15.699 76.215 16.988 79.21 L 21.619 83.871 L 21.644 83.844 L 36.558 98.86 L 36.452 98.981 L 46.053 108.648 L 44.057 96.056 L 45.501 94.41 C 47.893 96.5 49.989 97.609 50.555 96.973 C 51.255 96.185 49.353 93.027 46.307 89.919 C 43.26 86.811 40.224 84.93 39.524 85.718 C 39.499 85.746 39.478 85.776 39.459 85.811 L 29.079 75.359 Z" style="stroke-width: 2px; stroke: rgb(10, 44, 20); fill: rgb(38, 123, 67); transform-origin: 33.716px 82.763px;" transform="matrix(0.972125, -0.234465, 0.234465, 0.972125, 0.000001, 0.000001)"/>
  <path d="M 43.914 152.212 L 79.649 152.212 L 82.108 67.599 L 60.731 68.308 L 56.702 88.687 L 55.932 68.419 L 43.914 68.419 L 43.914 152.212 Z" style="fill: rgb(27, 66, 228); stroke-width: 1.5px; stroke: rgb(14, 29, 91); transform-box: fill-box; transform-origin: 50% 50%;" transform="matrix(-1, 0, 0, -1, -2.458992, 0.709)"/>
  <ellipse style="fill: rgb(21, 41, 124); transform-origin: 31.431px 66.892px;" cx="31.431" cy="66.892" rx="5.906" ry="8.835" transform="matrix(-0.830548, 0.556947, 0.498884, 0.869484, 20.529084, 25.349728)"/>
  <ellipse style="fill: rgb(21, 41, 124);" cx="-61.947" cy="82.947" rx="17.022" ry="10.547" transform="matrix(-1, 0, 0, 1, 0, 0)"/>
  <ellipse style="fill: rgb(21, 41, 124); transform-box: fill-box; transform-origin: 50% 50%;" cx="31.431" cy="66.892" rx="5.828" ry="8.956" transform="matrix(-0.933574, -0.358386, -0.312439, 0.951212, 40.685339, 26.614551)"/>
  <path d="M 92.287 58.197 C 92.287 70.659 85.152 81.426 74.806 86.504 C 74.941 86.788 75.056 87.091 75.15 87.403 L 75.15 91.029 L 74.805 91.029 L 75.139 91.15 L 73.726 94.534 C 72.631 95.894 71.16 96.745 69.724 96.837 L 68.023 96.235 L 70.492 90.328 L 70.492 88.227 C 67.612 89.129 64.555 89.613 61.385 89.613 C 57.958 89.613 54.662 89.046 51.581 88.001 L 51.581 90.655 L 54.05 96.562 L 52.349 97.167 C 50.914 97.071 49.442 96.221 48.348 94.862 L 46.934 91.479 L 47.268 91.356 L 46.923 91.356 L 46.923 87.731 C 47.079 87.215 47.292 86.73 47.549 86.298 C 37.429 81.135 30.484 70.492 30.484 58.197 C 30.484 40.846 44.319 26.78 61.385 26.78 C 78.453 26.78 92.287 40.846 92.287 58.197 Z" style="stroke-width: 2px; fill: rgb(38, 123, 67); stroke: rgb(10, 44, 20); transform-origin: 61.386px 61.974px;"/>
  <ellipse style="fill: rgb(56, 154, 89);" cx="-57.753" cy="58.221" rx="26.712" ry="27.449" transform="matrix(-1, 0, 0, 1, 0, 0)"/>
  <ellipse style="" cx="-60.796" cy="55.738" rx="10.646" ry="11.318" transform="matrix(-1, 0, 0, 1, 0, 0)"/>
  <rect x="-78.962" y="128.877" width="37.278" height="6.629" style="fill: rgb(21, 41, 124);" transform="matrix(-1, 0, 0, 1, 0, 0)"/>
  <rect x="-80.062" y="125.214" width="38.951" height="6.733" style="stroke: rgb(58, 36, 3); fill: url(&quot;#gradient-4&quot;);" transform="matrix(-1, 0, 0, 1, 0, 0)"/>
  <path d="M -68.04 -137.866 L -59.68 -131.152 L -62.873 -120.29 L -73.207 -120.29 L -76.4 -131.152 Z" bx:shape="n-gon -68.04 -128.15 8.79 9.716 5 0 1@77acc37b" style="fill: rgb(119, 77, 10); stroke: rgb(58, 36, 3);" transform="matrix(-1, 0, 0, -1, 0, 0)"/>
  <path d="M -67.901 -134.11 L -62.615 -129.245 L -64.634 -121.375 L -71.168 -121.375 L -73.187 -129.245 Z" bx:shape="n-gon -67.901 -127.07 5.558 7.04 5 0 1@f34eeddd" style="fill: rgb(0, 234, 255); stroke: rgb(10, 69, 67);" transform="matrix(-1, 0, 0, -1, 0, 0)"/>
  <ellipse style="fill: rgb(255, 255, 255);" cx="-69.239" cy="126.548" rx="1.382" ry="3.765" transform="matrix(-1, 0, 0, 1, 0, 0)"/>
  <path d="M 35.421 38.489 C 38.29 43.86 44.374 48.083 51.985 49.938 L 61.74 49.938 L 61.74 49.956 L 72.369 49.956 C 79.977 48.101 86.062 43.878 88.933 38.507 L 88.933 35.405 L 88.978 35.405 L 88.978 3.472 L 35.365 3.472 L 35.365 35.405 L 35.421 35.405 L 35.421 38.489 Z" style="stroke: rgb(0, 0, 0); stroke-linejoin: round; stroke-linecap: round; fill: url(&quot;#gradient-1&quot;); transform-box: fill-box; transform-origin: 50% 50%;" transform="matrix(-1, 0, 0, -1, -0.000006, 0)"/>
  <ellipse style="" cx="-84.052" cy="56.963" rx="7.192" ry="8.747" transform="matrix(-1, 0, 0, 1, 0, 0)"/>
  <path d="M 19.815 47.242 C 21.08 49.004 23.964 50.413 27.632 51.079 L 35.796 51.079 L 35.796 50.978 L 95.76 50.978 L 95.76 50.965 L 97.865 50.965 C 101.533 50.3 104.417 48.891 105.682 47.129 L 105.682 42.955 C 104.417 41.193 101.533 39.782 97.865 39.118 L 95.76 39.118 L 95.76 39.038 L 35.795 39.038 L 35.795 39.005 L 27.632 39.007 C 23.962 39.67 21.079 41.079 19.813 42.842 L 19.815 45.307 L 19.815 47.242 Z" style="stroke: rgb(0, 0, 0); stroke-linejoin: round; stroke-linecap: round; fill: url(&quot;#gradient-2&quot;); transform-box: fill-box; transform-origin: 50% 50%;" transform="matrix(-1, 0, 0, -1, -0.000013, 0)"/>
  <path d="M 86.532 16.034 L 86.532 18.619 L 86.563 18.619 L 86.563 45.212 L 78.212 45.212 L 78.212 7.701 C 81.993 9.537 84.961 12.484 86.532 16.034 Z" style="stroke-linejoin: round; stroke-linecap: round; fill: rgb(44, 83, 244); transform-origin: 82.388px 26.457px;"/>
  <path d="M 36.115 45.545 L 46.939 45.327 L 46.939 45.236 L 78.601 45.236 L 78.601 45.34 L 89.425 45.558 L 89.448 42.984 C 88.605 41.121 86.665 39.608 84.188 38.863 L 78.659 38.752 L 78.656 39.029 L 46.883 39.029 L 46.883 39.022 L 46.589 39.029 L 43.717 39.029 L 43.717 39.085 L 41.355 39.135 C 38.876 39.849 36.937 41.299 36.094 43.081 L 36.115 45.545 Z" style="stroke: rgb(0, 0, 0); stroke-linejoin: round; stroke-linecap: round; fill: rgb(255, 156, 0); transform-box: fill-box; transform-origin: 50% 50%;" transform="matrix(-1, 0, 0, -1, 0.000011, -0.000001)"/>
  <path style="stroke-miterlimit: 4.63; stroke-width: 7.48475px; fill: rgb(21, 41, 124);" transform="matrix(-0.100277, 0, 0, 0.12667, 117.762016, -11.304776)" d="M 464.356 181 L 485.644 181 L 490.136 213.513 A 56.55 56.55 0 0 1 502.825 218.769 L 528.992 198.955 L 544.045 214.008 L 524.231 240.175 A 56.55 56.55 0 0 1 529.487 252.864 L 562 257.356 L 562 278.644 L 529.487 283.136 A 56.55 56.55 0 0 1 524.231 295.825 L 544.045 321.992 L 528.992 337.045 L 502.825 317.231 A 56.55 56.55 0 0 1 490.136 322.487 L 485.644 355 L 464.356 355 L 459.864 322.487 A 56.55 56.55 0 0 1 447.175 317.231 L 421.008 337.045 L 405.955 321.992 L 425.769 295.825 A 56.55 56.55 0 0 1 420.513 283.136 L 388 278.644 L 388 257.356 L 420.513 252.864 A 56.55 56.55 0 0 1 425.769 240.175 L 405.955 214.008 L 421.008 198.955 L 447.175 218.769 A 56.55 56.55 0 0 1 459.864 213.513 Z M 475 241.9 A 26.1 26.1 0 0 0 475 294.1 A 26.1 26.1 0 0 0 475 241.9" bx:shape="cog 475 268 26.1 56.55 87 0.38 8 1@36eb139e"/>
  <g transform="matrix(0.857641, 0, 0, 0.892445, 65.375015, 22.52924)" style="">
    <ellipse style="stroke: rgb(0, 0, 0); fill: rgb(255, 156, 0);" cx="-6.197" cy="21.006" rx="11.069" ry="8.866"/>
    <ellipse style="stroke: rgb(0, 0, 0); fill: rgb(149, 149, 149);" cx="-5.684" cy="21.717" rx="7.479" ry="7.423"/>
    <ellipse style="fill: rgb(96, 96, 96);" cx="-4.42" cy="21.515" rx="5.657" ry="6.285"/>
  </g>
  <path style="stroke: rgb(0, 0, 0); stroke-miterlimit: 4.63; stroke-width: 7.48475px; fill: rgb(255, 156, 0);" transform="matrix(-0.100277, 0, 0, 0.09855, 117.762016, -5.410004)" d="M 464.356 181 L 485.644 181 L 490.136 213.513 A 56.55 56.55 0 0 1 502.825 218.769 L 528.992 198.955 L 544.045 214.008 L 524.231 240.175 A 56.55 56.55 0 0 1 529.487 252.864 L 562 257.356 L 562 278.644 L 529.487 283.136 A 56.55 56.55 0 0 1 524.231 295.825 L 544.045 321.992 L 528.992 337.045 L 502.825 317.231 A 56.55 56.55 0 0 1 490.136 322.487 L 485.644 355 L 464.356 355 L 459.864 322.487 A 56.55 56.55 0 0 1 447.175 317.231 L 421.008 337.045 L 405.955 321.992 L 425.769 295.825 A 56.55 56.55 0 0 1 420.513 283.136 L 388 278.644 L 388 257.356 L 420.513 252.864 A 56.55 56.55 0 0 1 425.769 240.175 L 405.955 214.008 L 421.008 198.955 L 447.175 218.769 A 56.55 56.55 0 0 1 459.864 213.513 Z M 475 241.9 A 26.1 26.1 0 0 0 475 294.1 A 26.1 26.1 0 0 0 475 241.9" bx:shape="cog 475 268 26.1 56.55 87 0.38 8 1@36eb139e"/>
  <g transform="matrix(0.857641, 0, 0, 0.892445, 85.297455, 22.386341)" style="">
    <ellipse style="stroke: rgb(0, 0, 0); fill: rgb(255, 156, 0);" cx="-6.197" cy="21.006" rx="11.069" ry="8.866"/>
    <ellipse style="stroke: rgb(0, 0, 0); fill: rgb(149, 149, 149);" cx="-5.684" cy="21.717" rx="7.479" ry="7.423"/>
    <ellipse style="fill: rgb(96, 96, 96);" cx="-4.42" cy="21.515" rx="5.657" ry="6.285"/>
  </g>
</svg>