<?xml version="1.0" encoding="UTF-8" standalone="no"?>
<!-- Created with Inkscape (http://www.inkscape.org/) -->

<svg
   width="200"
   height="200"
   viewBox="0 0 52.916667 52.916666"
   version="1.1"
   id="svg3527"
   inkscape:version="1.4.2 (ebf0e940d0, 2025-05-08)"
   sodipodi:docname="ciclop.svg"
   xmlns:inkscape="http://www.inkscape.org/namespaces/inkscape"
   xmlns:sodipodi="http://sodipodi.sourceforge.net/DTD/sodipodi-0.dtd"
   xmlns="http://www.w3.org/2000/svg"
   xmlns:svg="http://www.w3.org/2000/svg">
  <sodipodi:namedview
     id="namedview3529"
     pagecolor="#505050"
     bordercolor="#ffffff"
     borderopacity="1"
     inkscape:pageshadow="0"
     inkscape:pageopacity="0"
     inkscape:pagecheckerboard="1"
     inkscape:document-units="mm"
     showgrid="false"
     width="100mm"
     inkscape:zoom="1.7211279"
     inkscape:cx="77.565416"
     inkscape:cy="93.252803"
     inkscape:window-width="1366"
     inkscape:window-height="697"
     inkscape:window-x="0"
     inkscape:window-y="0"
     inkscape:window-maximized="1"
     inkscape:current-layer="layer1"
     inkscape:snap-global="false"
     inkscape:showpageshadow="0"
     inkscape:deskcolor="#505050"
     showguides="true">
    <sodipodi:guide
       position="49.169673,83.35102"
       orientation="0,-1"
       id="guide68"
       inkscape:locked="false" />
  </sodipodi:namedview>
  <defs
     id="defs3524">
    <inkscape:path-effect
       effect="fillet_chamfer"
       id="path-effect68"
       is_visible="true"
       lpeversion="1"
       nodesatellites_param="F,0,0,1,0,0,0,1 @ F,0,0,1,0,0,0,1 @ F,0,0,1,0,0,0,1 @ F,0,0,1,0,0,0,1 @ F,0,0,1,0,0,0,1 @ F,0,0,1,0,0,0,1 @ F,0,0,1,0,0,0,1 @ F,0,0,1,0,0,0,1 @ F,0,0,1,0,0,0,1"
       radius="0"
       unit="px"
       method="auto"
       mode="F"
       chamfer_steps="1"
       flexible="false"
       use_knot_distance="true"
       apply_no_radius="true"
       apply_with_radius="true"
       only_selected="false"
       hide_knots="false" />
    <inkscape:path-effect
       effect="fillet_chamfer"
       id="path-effect66"
       is_visible="true"
       lpeversion="1"
       nodesatellites_param="F,0,0,1,0,0,0,1 @ F,0,0,1,0,0.44929322,0,1 @ F,0,0,1,0,0.44929322,0,1 @ F,0,0,1,0,0,0,1 @ F,0,0,1,0,0,0,1 @ F,0,0,1,0,0,0,1 @ F,0,0,1,0,0,0,1 @ F,0,0,1,0,0,0,1 @ F,0,0,1,0,0,0,1 @ F,0,0,1,0,0,0,1"
       radius="0"
       unit="px"
       method="auto"
       mode="F"
       chamfer_steps="1"
       flexible="false"
       use_knot_distance="true"
       apply_no_radius="true"
       apply_with_radius="true"
       only_selected="false"
       hide_knots="false" />
  </defs>
  <g
     inkscape:label="Camada 1"
     inkscape:groupmode="layer"
     id="layer1">
    <rect
       style="fill:#2b6a6a;fill-opacity:1;stroke:#0d1f1f;stroke-width:0.93;stroke-dasharray:none;stroke-opacity:1"
       id="rect9"
       width="4.3757286"
       height="13.875885"
       x="27.870729"
       y="38.551445"
       ry="1.806289" />
    <path
       id="path4"
       style="fill:#2b6a6a;fill-opacity:1;stroke:#0d1f1f;stroke-width:1.07892;stroke-miterlimit:4;stroke-dasharray:none;stroke-opacity:1"
       d="m 22.647934,27.073306 c 0.06171,0.603271 -0.09864,1.156471 -0.455725,1.412393 l -4.301644,3.146467 c -0.05464,0.07042 -0.722903,0.553182 -0.81495,0.574379 -0.104271,0.104312 -0.290307,0.106177 -0.423072,0.145582 l -5.645351,1.675878 C 10.4112,34.204928 9.7889976,33.581786 9.6116841,32.631798 L 9.4765687,31.913194 C 9.2992505,30.963206 9.6373174,30.056035 10.233312,29.879119 l 5.191457,-1.391643 c 0.31086,-0.213324 0.371559,-0.298515 0.413041,-0.313738 l 4.647053,-3.489265 c 0.519405,-0.372243 1.252481,0.02946 1.643461,0.899722 l 0.296252,0.658663 c 0.122194,0.271947 0.195287,0.556249 0.223299,0.830469 z"
       sodipodi:nodetypes="cccccccccccccccc" />
    <path
       id="path74"
       style="fill:#143030;fill-opacity:1;stroke:none;stroke-width:0.855959;stroke-miterlimit:4;stroke-dasharray:none;stroke-opacity:1"
       d="m 21.980479,27.243128 c 0.143696,0.350349 0.06035,0.720351 -0.258747,0.955074 l -3.835342,2.865936 c -0.04456,0.05479 -0.641202,0.496366 -0.729581,0.529841 -0.08913,0.0864 -0.273356,0.129321 -0.399622,0.182933 -4.112092,1.161948 -3.647768,1.531824 -5.368941,2.279959 -0.566813,0.240696 -1.269037,0.0043 -1.5747939,-0.529438 L 9.5811857,33.123946 C 9.2754238,32.590247 9.4865934,31.96662 10.053408,31.725925 l 5.031849,-0.953219 c 1.073928,-0.339162 1.722422,-0.664325 2.241871,-0.971073 l 2.181655,-3.514788 c 0.464152,-0.341413 1.246038,-0.263571 1.75277,0.173994 l 0.383858,0.331101 c 0.158365,0.136732 0.269731,0.291953 0.335012,0.451214 z"
       sodipodi:nodetypes="cccccccccccccccc" />
    <ellipse
       style="fill:#143030;fill-opacity:1;stroke:#050d0d;stroke-width:0.689877;stroke-dasharray:none;stroke-opacity:1"
       id="ellipse9"
       cx="16.930101"
       cy="13.812074"
       rx="1.8224092"
       ry="2.9370708" />
    <rect
       style="fill:#2b6a6a;fill-opacity:1;stroke:#0d1f1f;stroke-width:0.749015;stroke-opacity:1"
       id="rect1"
       width="6.0032535"
       height="11.166561"
       x="22.977961"
       y="17.585918" />
    <path
       id="path75"
       style="fill:#143030;stroke-width:0.509912"
       d="m 25.560059,21.319928 h 0.843196 c 1.22714,0 2.215054,0.200961 2.215054,0.450586 v 2.560221 c 0,0.604999 0.194897,0.450586 -2.215054,0.450586 h -0.843196 c -1.227139,0 -2.215053,-0.200961 -2.215053,-0.450586 v -2.560221 c 0,-0.249625 0.987914,-0.450586 2.215053,-0.450586 z"
       sodipodi:nodetypes="sssssssss" />
    <ellipse
       style="fill:#2b6a6a;fill-opacity:1;stroke:#050d0d;stroke-width:0.359071;stroke-dasharray:none;stroke-opacity:1"
       id="ellipse27"
       cx="17.752153"
       cy="13.839249"
       rx="1.6364409"
       ry="1.8746989" />
    <g
       id="g32"
       transform="matrix(-1,0,0,1,73.91246,-0.271753)">
      <ellipse
         style="fill:#143030;fill-opacity:1;stroke:#050d0d;stroke-width:0.689877;stroke-dasharray:none;stroke-opacity:1"
         id="ellipse31"
         cx="38.670341"
         cy="13.051166"
         rx="1.8224092"
         ry="2.9370708" />
      <ellipse
         style="fill:#2b6a6a;fill-opacity:1;stroke:#050d0d;stroke-width:0.359071;stroke-dasharray:none;stroke-opacity:1"
         id="ellipse32"
         cx="39.492393"
         cy="13.078341"
         rx="1.6364409"
         ry="1.8746989" />
    </g>
    <ellipse
       style="fill:#143030;fill-opacity:1;stroke:#060e0e;stroke-width:0.866;stroke-dasharray:none;stroke-opacity:1"
       id="path2"
       cx="26.038166"
       cy="13.348282"
       rx="8.662508"
       ry="9.3458481" />
    <ellipse
       style="fill:#2b6a6a;fill-opacity:1;stroke:none;stroke-width:0.555001;stroke-dasharray:none;stroke-opacity:1"
       id="path66"
       cx="26.940607"
       cy="11.520626"
       rx="6.9561338"
       ry="6.8408389" />
    <g
       id="g28"
       transform="translate(-0.29892831,-0.1087012)">
      <path
         sodipodi:type="spiral"
         style="fill:#005d19;fill-opacity:1;fill-rule:evenodd;stroke:#050c0c;stroke-width:1.165;stroke-dasharray:none;stroke-opacity:1"
         id="path28"
         sodipodi:cx="7.3788824"
         sodipodi:cy="11.990684"
         sodipodi:expansion="1"
         sodipodi:revolution="3"
         sodipodi:radius="7.1775723"
         sodipodi:argument="-18.677364"
         sodipodi:t0="0"
         d="m 7.3788824,11.990684 c 0.3545501,0.06166 0.091804,0.508347 -0.1024849,0.589285 -0.5265123,0.219336 -1.0101602,-0.312416 -1.0760864,-0.794255 -0.1179264,-0.861898 0.6785411,-1.533067 1.4860261,-1.562887 1.1850166,-0.04376 2.0659185,1.047626 2.0496877,2.177796 -0.021633,1.506339 -1.4174993,2.602675 -2.8695671,2.536489 C 5.0391786,14.853823 3.7250753,13.149428 3.8431686,11.375774 3.9861954,9.2276413 6.0011989,7.6945659 8.0962768,7.8656841 10.565254,8.067341 12.31801,10.39416 12.093167,12.810563 11.833578,15.600395 9.1941789,17.573289 6.4565181,17.294254 3.345814,16.977198 1.1524728,14.024706 1.4860261,10.965834 1.8602224,7.5342424 5.1261684,5.1202316 8.5062165,5.5085416 12.258711,5.9396393 14.893555,9.5193049 14.45031,13.220503"
         transform="matrix(-0.12693299,-0.27940024,-0.24651116,0.18568287,23.532179,18.320999)" />
      <path
         sodipodi:type="spiral"
         style="fill:#00d438;fill-opacity:1;fill-rule:evenodd;stroke:#050c0c;stroke-width:1.165;stroke-dasharray:none;stroke-opacity:1"
         id="path12"
         sodipodi:cx="7.3788824"
         sodipodi:cy="11.990684"
         sodipodi:expansion="1"
         sodipodi:revolution="3"
         sodipodi:radius="7.1775723"
         sodipodi:argument="-18.677364"
         sodipodi:t0="0"
         d="m 7.3788824,11.990684 c 0.3545501,0.06166 0.091804,0.508347 -0.1024849,0.589285 -0.5265123,0.219336 -1.0101602,-0.312416 -1.0760864,-0.794255 -0.1179264,-0.861898 0.6785411,-1.533067 1.4860261,-1.562887 1.1850166,-0.04376 2.0659185,1.047626 2.0496877,2.177796 -0.021633,1.506339 -1.4174993,2.602675 -2.8695671,2.536489 C 5.0391786,14.853823 3.7250753,13.149428 3.8431686,11.375774 3.9861954,9.2276413 6.0011989,7.6945659 8.0962768,7.8656841 10.565254,8.067341 12.31801,10.39416 12.093167,12.810563 11.833578,15.600395 9.1941789,17.573289 6.4565181,17.294254 3.345814,16.977198 1.1524728,14.024706 1.4860261,10.965834 1.8602224,7.5342424 5.1261684,5.1202316 8.5062165,5.5085416 12.258711,5.9396393 14.893555,9.5193049 14.45031,13.220503"
         transform="matrix(0.12693299,-0.27940024,0.24651116,0.18568287,15.465587,19.054733)" />
    </g>
    <path
       id="path15"
       style="fill:#ffffff;stroke-width:0.454;stroke:#060e0e;stroke-opacity:1;stroke-dasharray:none"
       d="m 28.49305,8.9768696 c 0,1.3926794 -0.989109,3.1738254 -2.209237,3.1738254 -1.220127,-1e-6 -2.209236,-1.781146 -2.209236,-3.1738254 0,-1.3926789 1.034196,-3.2607784 2.254323,-3.2607787 1.220127,0 2.16415,1.8680998 2.16415,3.2607787 z"
       sodipodi:nodetypes="sssss" />
    <path
       id="path16"
       style="fill:#2b6a6a;fill-opacity:1;stroke:#060e0e;stroke-width:0.577;stroke-opacity:1;stroke-dasharray:none"
       d="m 21.852392,10.441664 c 1.12343,0.01876 2.544659,0.795297 2.525461,1.723605 -0.0192,0.928309 -1.471552,1.656857 -2.594982,1.638096 -1.123429,-0.01876 -2.614092,-0.830772 -2.594895,-1.75908 0.0192,-0.928308 1.540987,-1.621382 2.664416,-1.602621 z"
       sodipodi:nodetypes="sssss" />
    <path
       id="path18"
       style="fill:#e7f5f5;fill-opacity:1;stroke:none;stroke-width:0.180451"
       d="m 27.498894,8.6650889 c 0,0.6900657 -0.519283,1.5726151 -1.15985,1.5726151 -0.640567,0 -1.159849,-0.8825494 -1.159849,-1.5726151 0,-0.6900665 0.542953,-1.6157017 1.18352,-1.6157017 0.640567,0 1.136179,0.9256352 1.136179,1.6157017 z"
       sodipodi:nodetypes="sssss" />
    <path
       id="path19"
       style="fill:#0f2222;fill-opacity:1;stroke:#060e0e;stroke-width:0.51927;stroke-dasharray:none;stroke-opacity:1"
       d="m 27.609599,9.022614 c 0,0.7640512 -0.622815,1.741222 -1.391092,1.741222 -0.76828,0 -1.391093,-0.9771708 -1.391093,-1.741222 0,-0.7640507 0.651203,-1.7889266 1.419481,-1.7889266 0.76828,0 1.362704,1.0248759 1.362704,1.7889266 z"
       sodipodi:nodetypes="sssss" />
    <path
       id="path20"
       style="fill:#ffffff;fill-opacity:1;stroke:none;stroke-width:0.117381"
       d="m 27.662955,7.9334995 c 0,0.4487857 -0.337856,1.0227532 -0.754621,1.0227532 -0.416764,0 -0.75462,-0.5739675 -0.75462,-1.0227532 0,-0.4487852 0.353255,-1.0507734 0.77002,-1.0507734 0.416765,0 0.739221,0.6019882 0.739221,1.0507734 z"
       sodipodi:nodetypes="sssss" />
    <g
       id="g31"
       transform="translate(1.5218168,1.8207451)">
      <path
         sodipodi:type="spiral"
         style="fill:#005d19;fill-opacity:1;fill-rule:evenodd;stroke:#050c0c;stroke-width:1.165;stroke-dasharray:none;stroke-opacity:1"
         id="path29"
         sodipodi:cx="7.3788824"
         sodipodi:cy="11.990684"
         sodipodi:expansion="1"
         sodipodi:revolution="3"
         sodipodi:radius="7.1775723"
         sodipodi:argument="-18.677364"
         sodipodi:t0="0"
         d="m 7.3788824,11.990684 c 0.3545501,0.06166 0.091804,0.508347 -0.1024849,0.589285 -0.5265123,0.219336 -1.0101602,-0.312416 -1.0760864,-0.794255 -0.1179264,-0.861898 0.6785411,-1.533067 1.4860261,-1.562887 1.1850166,-0.04376 2.0659185,1.047626 2.0496877,2.177796 -0.021633,1.506339 -1.4174993,2.602675 -2.8695671,2.536489 C 5.0391786,14.853823 3.7250753,13.149428 3.8431686,11.375774 3.9861954,9.2276413 6.0011989,7.6945659 8.0962768,7.8656841 10.565254,8.067341 12.31801,10.39416 12.093167,12.810563 11.833578,15.600395 9.1941789,17.573289 6.4565181,17.294254 3.345814,16.977198 1.1524728,14.024706 1.4860261,10.965834 1.8602224,7.5342424 5.1261684,5.1202316 8.5062165,5.5085416 12.258711,5.9396393 14.893555,9.5193049 14.45031,13.220503"
         transform="matrix(-0.12693299,-0.27940024,-0.24651116,0.18568287,23.532179,18.320999)" />
      <path
         sodipodi:type="spiral"
         style="fill:#00d438;fill-opacity:1;fill-rule:evenodd;stroke:#050c0c;stroke-width:1.165;stroke-dasharray:none;stroke-opacity:1"
         id="path31"
         sodipodi:cx="7.3788824"
         sodipodi:cy="11.990684"
         sodipodi:expansion="1"
         sodipodi:revolution="3"
         sodipodi:radius="7.1775723"
         sodipodi:argument="-18.677364"
         sodipodi:t0="0"
         d="m 7.3788824,11.990684 c 0.3545501,0.06166 0.091804,0.508347 -0.1024849,0.589285 -0.5265123,0.219336 -1.0101602,-0.312416 -1.0760864,-0.794255 -0.1179264,-0.861898 0.6785411,-1.533067 1.4860261,-1.562887 1.1850166,-0.04376 2.0659185,1.047626 2.0496877,2.177796 -0.021633,1.506339 -1.4174993,2.602675 -2.8695671,2.536489 C 5.0391786,14.853823 3.7250753,13.149428 3.8431686,11.375774 3.9861954,9.2276413 6.0011989,7.6945659 8.0962768,7.8656841 10.565254,8.067341 12.31801,10.39416 12.093167,12.810563 11.833578,15.600395 9.1941789,17.573289 6.4565181,17.294254 3.345814,16.977198 1.1524728,14.024706 1.4860261,10.965834 1.8602224,7.5342424 5.1261684,5.1202316 8.5062165,5.5085416 12.258711,5.9396393 14.893555,9.5193049 14.45031,13.220503"
         transform="matrix(0.12693299,-0.27940024,0.24651116,0.18568287,15.465587,19.054733)" />
    </g>
    <g
       id="g33"
       transform="matrix(0.99394598,-0.13171397,0.14699635,0.89061098,1.9688559,7.4468667)">
      <path
         sodipodi:type="spiral"
         style="fill:#005d19;fill-opacity:1;fill-rule:evenodd;stroke:#050c0c;stroke-width:1.165;stroke-dasharray:none;stroke-opacity:1"
         id="path32"
         sodipodi:cx="7.3788824"
         sodipodi:cy="11.990684"
         sodipodi:expansion="1"
         sodipodi:revolution="3"
         sodipodi:radius="7.1775723"
         sodipodi:argument="-18.677364"
         sodipodi:t0="0"
         d="m 7.3788824,11.990684 c 0.3545501,0.06166 0.091804,0.508347 -0.1024849,0.589285 -0.5265123,0.219336 -1.0101602,-0.312416 -1.0760864,-0.794255 -0.1179264,-0.861898 0.6785411,-1.533067 1.4860261,-1.562887 1.1850166,-0.04376 2.0659185,1.047626 2.0496877,2.177796 -0.021633,1.506339 -1.4174993,2.602675 -2.8695671,2.536489 C 5.0391786,14.853823 3.7250753,13.149428 3.8431686,11.375774 3.9861954,9.2276413 6.0011989,7.6945659 8.0962768,7.8656841 10.565254,8.067341 12.31801,10.39416 12.093167,12.810563 11.833578,15.600395 9.1941789,17.573289 6.4565181,17.294254 3.345814,16.977198 1.1524728,14.024706 1.4860261,10.965834 1.8602224,7.5342424 5.1261684,5.1202316 8.5062165,5.5085416 12.258711,5.9396393 14.893555,9.5193049 14.45031,13.220503"
         transform="matrix(-0.12693299,-0.27940024,-0.24651116,0.18568287,23.532179,18.320999)" />
      <path
         sodipodi:type="spiral"
         style="fill:#00d438;fill-opacity:1;fill-rule:evenodd;stroke:#050c0c;stroke-width:1.165;stroke-dasharray:none;stroke-opacity:1"
         id="path33"
         sodipodi:cx="7.3788824"
         sodipodi:cy="11.990684"
         sodipodi:expansion="1"
         sodipodi:revolution="3"
         sodipodi:radius="7.1775723"
         sodipodi:argument="-18.677364"
         sodipodi:t0="0"
         d="m 7.3788824,11.990684 c 0.3545501,0.06166 0.091804,0.508347 -0.1024849,0.589285 -0.5265123,0.219336 -1.0101602,-0.312416 -1.0760864,-0.794255 -0.1179264,-0.861898 0.6785411,-1.533067 1.4860261,-1.562887 1.1850166,-0.04376 2.0659185,1.047626 2.0496877,2.177796 -0.021633,1.506339 -1.4174993,2.602675 -2.8695671,2.536489 C 5.0391786,14.853823 3.7250753,13.149428 3.8431686,11.375774 3.9861954,9.2276413 6.0011989,7.6945659 8.0962768,7.8656841 10.565254,8.067341 12.31801,10.39416 12.093167,12.810563 11.833578,15.600395 9.1941789,17.573289 6.4565181,17.294254 3.345814,16.977198 1.1524728,14.024706 1.4860261,10.965834 1.8602224,7.5342424 5.1261684,5.1202316 8.5062165,5.5085416 12.258711,5.9396393 14.893555,9.5193049 14.45031,13.220503"
         transform="matrix(0.12693299,-0.27940024,0.24651116,0.18568287,15.465587,19.054733)" />
    </g>
    <g
       id="g35"
       transform="matrix(0.97769643,-0.22223156,0.22798145,0.87339585,3.7656318,9.6662638)">
      <path
         sodipodi:type="spiral"
         style="fill:#005d19;fill-opacity:1;fill-rule:evenodd;stroke:#050c0c;stroke-width:1.165;stroke-dasharray:none;stroke-opacity:1"
         id="path34"
         sodipodi:cx="7.3788824"
         sodipodi:cy="11.990684"
         sodipodi:expansion="1"
         sodipodi:revolution="3"
         sodipodi:radius="7.1775723"
         sodipodi:argument="-18.677364"
         sodipodi:t0="0"
         d="m 7.3788824,11.990684 c 0.3545501,0.06166 0.091804,0.508347 -0.1024849,0.589285 -0.5265123,0.219336 -1.0101602,-0.312416 -1.0760864,-0.794255 -0.1179264,-0.861898 0.6785411,-1.533067 1.4860261,-1.562887 1.1850166,-0.04376 2.0659185,1.047626 2.0496877,2.177796 -0.021633,1.506339 -1.4174993,2.602675 -2.8695671,2.536489 C 5.0391786,14.853823 3.7250753,13.149428 3.8431686,11.375774 3.9861954,9.2276413 6.0011989,7.6945659 8.0962768,7.8656841 10.565254,8.067341 12.31801,10.39416 12.093167,12.810563 11.833578,15.600395 9.1941789,17.573289 6.4565181,17.294254 3.345814,16.977198 1.1524728,14.024706 1.4860261,10.965834 1.8602224,7.5342424 5.1261684,5.1202316 8.5062165,5.5085416 12.258711,5.9396393 14.893555,9.5193049 14.45031,13.220503"
         transform="matrix(-0.12693299,-0.27940024,-0.24651116,0.18568287,23.532179,18.320999)" />
      <path
         sodipodi:type="spiral"
         style="fill:#00d438;fill-opacity:1;fill-rule:evenodd;stroke:#050c0c;stroke-width:1.165;stroke-dasharray:none;stroke-opacity:1"
         id="path35"
         sodipodi:cx="7.3788824"
         sodipodi:cy="11.990684"
         sodipodi:expansion="1"
         sodipodi:revolution="3"
         sodipodi:radius="7.1775723"
         sodipodi:argument="-18.677364"
         sodipodi:t0="0"
         d="m 7.3788824,11.990684 c 0.3545501,0.06166 0.091804,0.508347 -0.1024849,0.589285 -0.5265123,0.219336 -1.0101602,-0.312416 -1.0760864,-0.794255 -0.1179264,-0.861898 0.6785411,-1.533067 1.4860261,-1.562887 1.1850166,-0.04376 2.0659185,1.047626 2.0496877,2.177796 -0.021633,1.506339 -1.4174993,2.602675 -2.8695671,2.536489 C 5.0391786,14.853823 3.7250753,13.149428 3.8431686,11.375774 3.9861954,9.2276413 6.0011989,7.6945659 8.0962768,7.8656841 10.565254,8.067341 12.31801,10.39416 12.093167,12.810563 11.833578,15.600395 9.1941789,17.573289 6.4565181,17.294254 3.345814,16.977198 1.1524728,14.024706 1.4860261,10.965834 1.8602224,7.5342424 5.1261684,5.1202316 8.5062165,5.5085416 12.258711,5.9396393 14.893555,9.5193049 14.45031,13.220503"
         transform="matrix(0.12693299,-0.27940024,0.24651116,0.18568287,15.465587,19.054733)" />
    </g>
    <path
       id="path5"
       style="fill:#2b6a6a;fill-opacity:1;stroke:#0d1f1f;stroke-width:1.1665;stroke-miterlimit:4;stroke-dasharray:none;stroke-opacity:1"
       d="m 31.110953,24.858098 c -0.327016,0.50301 -0.404475,1.089976 -0.150266,1.525449 l 3.034552,5.302605 c 0.02523,0.09455 0.499293,0.912916 0.584393,0.985184 0.06129,0.153581 0.251212,0.263041 0.370098,0.375166 l 5.055082,4.767854 c 0.533679,0.503348 1.444007,0.307365 2.04112,-0.438308 l 0.45269,-0.563481 c 0.597112,-0.745674 0.64713,-1.751736 0.113448,-2.255082 l -4.714003,-4.251004 c -0.225441,-0.370642 -0.250428,-0.481893 -0.286301,-0.519525 l -3.238805,-5.808897 c -0.369768,-0.633407 -1.296957,-0.69943 -2.078268,-0.148769 l -0.591685,0.416584 c -0.244152,0.172087 -0.443399,0.383617 -0.592003,0.612287 z"
       sodipodi:nodetypes="cccccccccccccccc" />
    <path
       id="path79"
       style="fill:#143030;fill-opacity:1;stroke:none;stroke-width:0.892164;stroke-miterlimit:4;stroke-dasharray:none;stroke-opacity:1"
       d="m 31.515267,24.169909 c -0.296293,0.256174 -0.403949,0.651263 -0.239817,1.042932 l 1.950963,4.750024 c 0.01219,0.07557 0.317764,0.810465 0.378601,0.889033 0.03568,0.129164 0.175594,0.267467 0.259689,0.385205 3.023485,3.280446 2.437745,3.385288 3.575613,5.006661 0.37749,0.528561 1.105841,0.676346 1.633047,0.332084 l 0.39953,-0.259654 c 0.527191,-0.344222 0.646922,-1.047584 0.269433,-1.576143 L 35.814062,31.170342 C 35.041849,30.279745 34.634236,29.627799 34.330306,29.06168 L 34.139497,24.572274 C 33.900748,24.00257 33.180162,23.662199 32.524391,23.808778 l -0.496582,0.110693 c -0.204935,0.04579 -0.377853,0.13402 -0.512506,0.250493 z"
       sodipodi:nodetypes="cccccccccccccccc" />
    <g
       id="g37"
       transform="matrix(0.85817786,-0.51846691,0.4911194,0.75736226,4.1560552,16.858801)">
      <path
         sodipodi:type="spiral"
         style="fill:#005d19;fill-opacity:1;fill-rule:evenodd;stroke:#050c0c;stroke-width:1.165;stroke-dasharray:none;stroke-opacity:1"
         id="path36"
         sodipodi:cx="7.3788824"
         sodipodi:cy="11.990684"
         sodipodi:expansion="1"
         sodipodi:revolution="3"
         sodipodi:radius="7.1775723"
         sodipodi:argument="-18.677364"
         sodipodi:t0="0"
         d="m 7.3788824,11.990684 c 0.3545501,0.06166 0.091804,0.508347 -0.1024849,0.589285 -0.5265123,0.219336 -1.0101602,-0.312416 -1.0760864,-0.794255 -0.1179264,-0.861898 0.6785411,-1.533067 1.4860261,-1.562887 1.1850166,-0.04376 2.0659185,1.047626 2.0496877,2.177796 -0.021633,1.506339 -1.4174993,2.602675 -2.8695671,2.536489 C 5.0391786,14.853823 3.7250753,13.149428 3.8431686,11.375774 3.9861954,9.2276413 6.0011989,7.6945659 8.0962768,7.8656841 10.565254,8.067341 12.31801,10.39416 12.093167,12.810563 11.833578,15.600395 9.1941789,17.573289 6.4565181,17.294254 3.345814,16.977198 1.1524728,14.024706 1.4860261,10.965834 1.8602224,7.5342424 5.1261684,5.1202316 8.5062165,5.5085416 12.258711,5.9396393 14.893555,9.5193049 14.45031,13.220503"
         transform="matrix(-0.12693299,-0.27940024,-0.24651116,0.18568287,23.532179,18.320999)" />
      <path
         sodipodi:type="spiral"
         style="fill:#00d438;fill-opacity:1;fill-rule:evenodd;stroke:#050c0c;stroke-width:1.165;stroke-dasharray:none;stroke-opacity:1"
         id="path37"
         sodipodi:cx="7.3788824"
         sodipodi:cy="11.990684"
         sodipodi:expansion="1"
         sodipodi:revolution="3"
         sodipodi:radius="7.1775723"
         sodipodi:argument="-18.677364"
         sodipodi:t0="0"
         d="m 7.3788824,11.990684 c 0.3545501,0.06166 0.091804,0.508347 -0.1024849,0.589285 -0.5265123,0.219336 -1.0101602,-0.312416 -1.0760864,-0.794255 -0.1179264,-0.861898 0.6785411,-1.533067 1.4860261,-1.562887 1.1850166,-0.04376 2.0659185,1.047626 2.0496877,2.177796 -0.021633,1.506339 -1.4174993,2.602675 -2.8695671,2.536489 C 5.0391786,14.853823 3.7250753,13.149428 3.8431686,11.375774 3.9861954,9.2276413 6.0011989,7.6945659 8.0962768,7.8656841 10.565254,8.067341 12.31801,10.39416 12.093167,12.810563 11.833578,15.600395 9.1941789,17.573289 6.4565181,17.294254 3.345814,16.977198 1.1524728,14.024706 1.4860261,10.965834 1.8602224,7.5342424 5.1261684,5.1202316 8.5062165,5.5085416 12.258711,5.9396393 14.893555,9.5193049 14.45031,13.220503"
         transform="matrix(0.12693299,-0.27940024,0.24651116,0.18568287,15.465587,19.054733)" />
    </g>
    <g
       id="g39"
       transform="matrix(0.30140871,-0.91329263,0.70893461,0.29211155,13.105355,32.188028)">
      <path
         sodipodi:type="spiral"
         style="fill:#005d19;fill-opacity:1;fill-rule:evenodd;stroke:#050c0c;stroke-width:1.165;stroke-dasharray:none;stroke-opacity:1"
         id="path38"
         sodipodi:cx="7.3788824"
         sodipodi:cy="11.990684"
         sodipodi:expansion="1"
         sodipodi:revolution="3"
         sodipodi:radius="7.1775723"
         sodipodi:argument="-18.677364"
         sodipodi:t0="0"
         d="m 7.3788824,11.990684 c 0.3545501,0.06166 0.091804,0.508347 -0.1024849,0.589285 -0.5265123,0.219336 -1.0101602,-0.312416 -1.0760864,-0.794255 -0.1179264,-0.861898 0.6785411,-1.533067 1.4860261,-1.562887 1.1850166,-0.04376 2.0659185,1.047626 2.0496877,2.177796 -0.021633,1.506339 -1.4174993,2.602675 -2.8695671,2.536489 C 5.0391786,14.853823 3.7250753,13.149428 3.8431686,11.375774 3.9861954,9.2276413 6.0011989,7.6945659 8.0962768,7.8656841 10.565254,8.067341 12.31801,10.39416 12.093167,12.810563 11.833578,15.600395 9.1941789,17.573289 6.4565181,17.294254 3.345814,16.977198 1.1524728,14.024706 1.4860261,10.965834 1.8602224,7.5342424 5.1261684,5.1202316 8.5062165,5.5085416 12.258711,5.9396393 14.893555,9.5193049 14.45031,13.220503"
         transform="matrix(-0.12693299,-0.27940024,-0.24651116,0.18568287,23.532179,18.320999)" />
      <path
         sodipodi:type="spiral"
         style="fill:#00d438;fill-opacity:1;fill-rule:evenodd;stroke:#050c0c;stroke-width:1.165;stroke-dasharray:none;stroke-opacity:1"
         id="path39"
         sodipodi:cx="7.3788824"
         sodipodi:cy="11.990684"
         sodipodi:expansion="1"
         sodipodi:revolution="3"
         sodipodi:radius="7.1775723"
         sodipodi:argument="-18.677364"
         sodipodi:t0="0"
         d="m 7.3788824,11.990684 c 0.3545501,0.06166 0.091804,0.508347 -0.1024849,0.589285 -0.5265123,0.219336 -1.0101602,-0.312416 -1.0760864,-0.794255 -0.1179264,-0.861898 0.6785411,-1.533067 1.4860261,-1.562887 1.1850166,-0.04376 2.0659185,1.047626 2.0496877,2.177796 -0.021633,1.506339 -1.4174993,2.602675 -2.8695671,2.536489 C 5.0391786,14.853823 3.7250753,13.149428 3.8431686,11.375774 3.9861954,9.2276413 6.0011989,7.6945659 8.0962768,7.8656841 10.565254,8.067341 12.31801,10.39416 12.093167,12.810563 11.833578,15.600395 9.1941789,17.573289 6.4565181,17.294254 3.345814,16.977198 1.1524728,14.024706 1.4860261,10.965834 1.8602224,7.5342424 5.1261684,5.1202316 8.5062165,5.5085416 12.258711,5.9396393 14.893555,9.5193049 14.45031,13.220503"
         transform="matrix(0.12693299,-0.27940024,0.24651116,0.18568287,15.465587,19.054733)" />
    </g>
    <g
       id="g41"
       transform="matrix(-0.95603024,0.10467485,0.13812483,0.75421414,49.78475,1.5403211)">
      <path
         sodipodi:type="spiral"
         style="fill:#005d19;fill-opacity:1;fill-rule:evenodd;stroke:#050c0c;stroke-width:1.165;stroke-dasharray:none;stroke-opacity:1"
         id="path40"
         sodipodi:cx="7.3788824"
         sodipodi:cy="11.990684"
         sodipodi:expansion="1"
         sodipodi:revolution="3"
         sodipodi:radius="7.1775723"
         sodipodi:argument="-18.677364"
         sodipodi:t0="0"
         d="m 7.3788824,11.990684 c 0.3545501,0.06166 0.091804,0.508347 -0.1024849,0.589285 -0.5265123,0.219336 -1.0101602,-0.312416 -1.0760864,-0.794255 -0.1179264,-0.861898 0.6785411,-1.533067 1.4860261,-1.562887 1.1850166,-0.04376 2.0659185,1.047626 2.0496877,2.177796 -0.021633,1.506339 -1.4174993,2.602675 -2.8695671,2.536489 C 5.0391786,14.853823 3.7250753,13.149428 3.8431686,11.375774 3.9861954,9.2276413 6.0011989,7.6945659 8.0962768,7.8656841 10.565254,8.067341 12.31801,10.39416 12.093167,12.810563 11.833578,15.600395 9.1941789,17.573289 6.4565181,17.294254 3.345814,16.977198 1.1524728,14.024706 1.4860261,10.965834 1.8602224,7.5342424 5.1261684,5.1202316 8.5062165,5.5085416 12.258711,5.9396393 14.893555,9.5193049 14.45031,13.220503"
         transform="matrix(-0.12693299,-0.27940024,-0.24651116,0.18568287,23.532179,18.320999)" />
      <path
         sodipodi:type="spiral"
         style="fill:#00d438;fill-opacity:1;fill-rule:evenodd;stroke:#050c0c;stroke-width:1.165;stroke-dasharray:none;stroke-opacity:1"
         id="path41"
         sodipodi:cx="7.3788824"
         sodipodi:cy="11.990684"
         sodipodi:expansion="1"
         sodipodi:revolution="3"
         sodipodi:radius="7.1775723"
         sodipodi:argument="-18.677364"
         sodipodi:t0="0"
         d="m 7.3788824,11.990684 c 0.3545501,0.06166 0.091804,0.508347 -0.1024849,0.589285 -0.5265123,0.219336 -1.0101602,-0.312416 -1.0760864,-0.794255 -0.1179264,-0.861898 0.6785411,-1.533067 1.4860261,-1.562887 1.1850166,-0.04376 2.0659185,1.047626 2.0496877,2.177796 -0.021633,1.506339 -1.4174993,2.602675 -2.8695671,2.536489 C 5.0391786,14.853823 3.7250753,13.149428 3.8431686,11.375774 3.9861954,9.2276413 6.0011989,7.6945659 8.0962768,7.8656841 10.565254,8.067341 12.31801,10.39416 12.093167,12.810563 11.833578,15.600395 9.1941789,17.573289 6.4565181,17.294254 3.345814,16.977198 1.1524728,14.024706 1.4860261,10.965834 1.8602224,7.5342424 5.1261684,5.1202316 8.5062165,5.5085416 12.258711,5.9396393 14.893555,9.5193049 14.45031,13.220503"
         transform="matrix(0.12693299,-0.27940024,0.24651116,0.18568287,15.465587,19.054733)" />
    </g>
    <g
       id="g56"
       transform="matrix(-0.96021902,-0.04782067,0.04679791,-0.98120438,65.004967,20.624169)">
      <g
         id="g43"
         transform="translate(14.267033,-5.6524625)">
        <path
           sodipodi:type="spiral"
           style="fill:#005d19;fill-opacity:1;fill-rule:evenodd;stroke:#050c0c;stroke-width:1.165;stroke-dasharray:none;stroke-opacity:1"
           id="path42"
           sodipodi:cx="7.3788824"
           sodipodi:cy="11.990684"
           sodipodi:expansion="1"
           sodipodi:revolution="3"
           sodipodi:radius="7.1775723"
           sodipodi:argument="-18.677364"
           sodipodi:t0="0"
           d="m 7.3788824,11.990684 c 0.3545501,0.06166 0.091804,0.508347 -0.1024849,0.589285 -0.5265123,0.219336 -1.0101602,-0.312416 -1.0760864,-0.794255 -0.1179264,-0.861898 0.6785411,-1.533067 1.4860261,-1.562887 1.1850166,-0.04376 2.0659185,1.047626 2.0496877,2.177796 -0.021633,1.506339 -1.4174993,2.602675 -2.8695671,2.536489 C 5.0391786,14.853823 3.7250753,13.149428 3.8431686,11.375774 3.9861954,9.2276413 6.0011989,7.6945659 8.0962768,7.8656841 10.565254,8.067341 12.31801,10.39416 12.093167,12.810563 11.833578,15.600395 9.1941789,17.573289 6.4565181,17.294254 3.345814,16.977198 1.1524728,14.024706 1.4860261,10.965834 1.8602224,7.5342424 5.1261684,5.1202316 8.5062165,5.5085416 12.258711,5.9396393 14.893555,9.5193049 14.45031,13.220503"
           transform="matrix(-0.12693299,-0.27940024,-0.24651116,0.18568287,23.532179,18.320999)" />
        <path
           sodipodi:type="spiral"
           style="fill:#00d438;fill-opacity:1;fill-rule:evenodd;stroke:#050c0c;stroke-width:1.165;stroke-dasharray:none;stroke-opacity:1"
           id="path43"
           sodipodi:cx="7.3788824"
           sodipodi:cy="11.990684"
           sodipodi:expansion="1"
           sodipodi:revolution="3"
           sodipodi:radius="7.1775723"
           sodipodi:argument="-18.677364"
           sodipodi:t0="0"
           d="m 7.3788824,11.990684 c 0.3545501,0.06166 0.091804,0.508347 -0.1024849,0.589285 -0.5265123,0.219336 -1.0101602,-0.312416 -1.0760864,-0.794255 -0.1179264,-0.861898 0.6785411,-1.533067 1.4860261,-1.562887 1.1850166,-0.04376 2.0659185,1.047626 2.0496877,2.177796 -0.021633,1.506339 -1.4174993,2.602675 -2.8695671,2.536489 C 5.0391786,14.853823 3.7250753,13.149428 3.8431686,11.375774 3.9861954,9.2276413 6.0011989,7.6945659 8.0962768,7.8656841 10.565254,8.067341 12.31801,10.39416 12.093167,12.810563 11.833578,15.600395 9.1941789,17.573289 6.4565181,17.294254 3.345814,16.977198 1.1524728,14.024706 1.4860261,10.965834 1.8602224,7.5342424 5.1261684,5.1202316 8.5062165,5.5085416 12.258711,5.9396393 14.893555,9.5193049 14.45031,13.220503"
           transform="matrix(0.12693299,-0.27940024,0.24651116,0.18568287,15.465587,19.054733)" />
      </g>
      <g
         id="g45"
         transform="translate(16.087778,-3.7230162)">
        <path
           sodipodi:type="spiral"
           style="fill:#005d19;fill-opacity:1;fill-rule:evenodd;stroke:#050c0c;stroke-width:1.165;stroke-dasharray:none;stroke-opacity:1"
           id="path44"
           sodipodi:cx="7.3788824"
           sodipodi:cy="11.990684"
           sodipodi:expansion="1"
           sodipodi:revolution="3"
           sodipodi:radius="7.1775723"
           sodipodi:argument="-18.677364"
           sodipodi:t0="0"
           d="m 7.3788824,11.990684 c 0.3545501,0.06166 0.091804,0.508347 -0.1024849,0.589285 -0.5265123,0.219336 -1.0101602,-0.312416 -1.0760864,-0.794255 -0.1179264,-0.861898 0.6785411,-1.533067 1.4860261,-1.562887 1.1850166,-0.04376 2.0659185,1.047626 2.0496877,2.177796 -0.021633,1.506339 -1.4174993,2.602675 -2.8695671,2.536489 C 5.0391786,14.853823 3.7250753,13.149428 3.8431686,11.375774 3.9861954,9.2276413 6.0011989,7.6945659 8.0962768,7.8656841 10.565254,8.067341 12.31801,10.39416 12.093167,12.810563 11.833578,15.600395 9.1941789,17.573289 6.4565181,17.294254 3.345814,16.977198 1.1524728,14.024706 1.4860261,10.965834 1.8602224,7.5342424 5.1261684,5.1202316 8.5062165,5.5085416 12.258711,5.9396393 14.893555,9.5193049 14.45031,13.220503"
           transform="matrix(-0.12693299,-0.27940024,-0.24651116,0.18568287,23.532179,18.320999)" />
        <path
           sodipodi:type="spiral"
           style="fill:#00d438;fill-opacity:1;fill-rule:evenodd;stroke:#050c0c;stroke-width:1.165;stroke-dasharray:none;stroke-opacity:1"
           id="path45"
           sodipodi:cx="7.3788824"
           sodipodi:cy="11.990684"
           sodipodi:expansion="1"
           sodipodi:revolution="3"
           sodipodi:radius="7.1775723"
           sodipodi:argument="-18.677364"
           sodipodi:t0="0"
           d="m 7.3788824,11.990684 c 0.3545501,0.06166 0.091804,0.508347 -0.1024849,0.589285 -0.5265123,0.219336 -1.0101602,-0.312416 -1.0760864,-0.794255 -0.1179264,-0.861898 0.6785411,-1.533067 1.4860261,-1.562887 1.1850166,-0.04376 2.0659185,1.047626 2.0496877,2.177796 -0.021633,1.506339 -1.4174993,2.602675 -2.8695671,2.536489 C 5.0391786,14.853823 3.7250753,13.149428 3.8431686,11.375774 3.9861954,9.2276413 6.0011989,7.6945659 8.0962768,7.8656841 10.565254,8.067341 12.31801,10.39416 12.093167,12.810563 11.833578,15.600395 9.1941789,17.573289 6.4565181,17.294254 3.345814,16.977198 1.1524728,14.024706 1.4860261,10.965834 1.8602224,7.5342424 5.1261684,5.1202316 8.5062165,5.5085416 12.258711,5.9396393 14.893555,9.5193049 14.45031,13.220503"
           transform="matrix(0.12693299,-0.27940024,0.24651116,0.18568287,15.465587,19.054733)" />
      </g>
      <g
         id="g47"
         transform="matrix(0.99394598,-0.13171397,0.14699635,0.89061098,16.534817,1.9031054)">
        <path
           sodipodi:type="spiral"
           style="fill:#005d19;fill-opacity:1;fill-rule:evenodd;stroke:#050c0c;stroke-width:1.165;stroke-dasharray:none;stroke-opacity:1"
           id="path46"
           sodipodi:cx="7.3788824"
           sodipodi:cy="11.990684"
           sodipodi:expansion="1"
           sodipodi:revolution="3"
           sodipodi:radius="7.1775723"
           sodipodi:argument="-18.677364"
           sodipodi:t0="0"
           d="m 7.3788824,11.990684 c 0.3545501,0.06166 0.091804,0.508347 -0.1024849,0.589285 -0.5265123,0.219336 -1.0101602,-0.312416 -1.0760864,-0.794255 -0.1179264,-0.861898 0.6785411,-1.533067 1.4860261,-1.562887 1.1850166,-0.04376 2.0659185,1.047626 2.0496877,2.177796 -0.021633,1.506339 -1.4174993,2.602675 -2.8695671,2.536489 C 5.0391786,14.853823 3.7250753,13.149428 3.8431686,11.375774 3.9861954,9.2276413 6.0011989,7.6945659 8.0962768,7.8656841 10.565254,8.067341 12.31801,10.39416 12.093167,12.810563 11.833578,15.600395 9.1941789,17.573289 6.4565181,17.294254 3.345814,16.977198 1.1524728,14.024706 1.4860261,10.965834 1.8602224,7.5342424 5.1261684,5.1202316 8.5062165,5.5085416 12.258711,5.9396393 14.893555,9.5193049 14.45031,13.220503"
           transform="matrix(-0.12693299,-0.27940024,-0.24651116,0.18568287,23.532179,18.320999)" />
        <path
           sodipodi:type="spiral"
           style="fill:#00d438;fill-opacity:1;fill-rule:evenodd;stroke:#050c0c;stroke-width:1.165;stroke-dasharray:none;stroke-opacity:1"
           id="path47"
           sodipodi:cx="7.3788824"
           sodipodi:cy="11.990684"
           sodipodi:expansion="1"
           sodipodi:revolution="3"
           sodipodi:radius="7.1775723"
           sodipodi:argument="-18.677364"
           sodipodi:t0="0"
           d="m 7.3788824,11.990684 c 0.3545501,0.06166 0.091804,0.508347 -0.1024849,0.589285 -0.5265123,0.219336 -1.0101602,-0.312416 -1.0760864,-0.794255 -0.1179264,-0.861898 0.6785411,-1.533067 1.4860261,-1.562887 1.1850166,-0.04376 2.0659185,1.047626 2.0496877,2.177796 -0.021633,1.506339 -1.4174993,2.602675 -2.8695671,2.536489 C 5.0391786,14.853823 3.7250753,13.149428 3.8431686,11.375774 3.9861954,9.2276413 6.0011989,7.6945659 8.0962768,7.8656841 10.565254,8.067341 12.31801,10.39416 12.093167,12.810563 11.833578,15.600395 9.1941789,17.573289 6.4565181,17.294254 3.345814,16.977198 1.1524728,14.024706 1.4860261,10.965834 1.8602224,7.5342424 5.1261684,5.1202316 8.5062165,5.5085416 12.258711,5.9396393 14.893555,9.5193049 14.45031,13.220503"
           transform="matrix(0.12693299,-0.27940024,0.24651116,0.18568287,15.465587,19.054733)" />
      </g>
      <g
         id="g49"
         transform="matrix(0.97769643,-0.22223156,0.22798145,0.87339585,18.331593,4.1225025)">
        <path
           sodipodi:type="spiral"
           style="fill:#005d19;fill-opacity:1;fill-rule:evenodd;stroke:#050c0c;stroke-width:1.165;stroke-dasharray:none;stroke-opacity:1"
           id="path48"
           sodipodi:cx="7.3788824"
           sodipodi:cy="11.990684"
           sodipodi:expansion="1"
           sodipodi:revolution="3"
           sodipodi:radius="7.1775723"
           sodipodi:argument="-18.677364"
           sodipodi:t0="0"
           d="m 7.3788824,11.990684 c 0.3545501,0.06166 0.091804,0.508347 -0.1024849,0.589285 -0.5265123,0.219336 -1.0101602,-0.312416 -1.0760864,-0.794255 -0.1179264,-0.861898 0.6785411,-1.533067 1.4860261,-1.562887 1.1850166,-0.04376 2.0659185,1.047626 2.0496877,2.177796 -0.021633,1.506339 -1.4174993,2.602675 -2.8695671,2.536489 C 5.0391786,14.853823 3.7250753,13.149428 3.8431686,11.375774 3.9861954,9.2276413 6.0011989,7.6945659 8.0962768,7.8656841 10.565254,8.067341 12.31801,10.39416 12.093167,12.810563 11.833578,15.600395 9.1941789,17.573289 6.4565181,17.294254 3.345814,16.977198 1.1524728,14.024706 1.4860261,10.965834 1.8602224,7.5342424 5.1261684,5.1202316 8.5062165,5.5085416 12.258711,5.9396393 14.893555,9.5193049 14.45031,13.220503"
           transform="matrix(-0.12693299,-0.27940024,-0.24651116,0.18568287,23.532179,18.320999)" />
        <path
           sodipodi:type="spiral"
           style="fill:#00d438;fill-opacity:1;fill-rule:evenodd;stroke:#050c0c;stroke-width:1.165;stroke-dasharray:none;stroke-opacity:1"
           id="path49"
           sodipodi:cx="7.3788824"
           sodipodi:cy="11.990684"
           sodipodi:expansion="1"
           sodipodi:revolution="3"
           sodipodi:radius="7.1775723"
           sodipodi:argument="-18.677364"
           sodipodi:t0="0"
           d="m 7.3788824,11.990684 c 0.3545501,0.06166 0.091804,0.508347 -0.1024849,0.589285 -0.5265123,0.219336 -1.0101602,-0.312416 -1.0760864,-0.794255 -0.1179264,-0.861898 0.6785411,-1.533067 1.4860261,-1.562887 1.1850166,-0.04376 2.0659185,1.047626 2.0496877,2.177796 -0.021633,1.506339 -1.4174993,2.602675 -2.8695671,2.536489 C 5.0391786,14.853823 3.7250753,13.149428 3.8431686,11.375774 3.9861954,9.2276413 6.0011989,7.6945659 8.0962768,7.8656841 10.565254,8.067341 12.31801,10.39416 12.093167,12.810563 11.833578,15.600395 9.1941789,17.573289 6.4565181,17.294254 3.345814,16.977198 1.1524728,14.024706 1.4860261,10.965834 1.8602224,7.5342424 5.1261684,5.1202316 8.5062165,5.5085416 12.258711,5.9396393 14.893555,9.5193049 14.45031,13.220503"
           transform="matrix(0.12693299,-0.27940024,0.24651116,0.18568287,15.465587,19.054733)" />
      </g>
      <g
         id="g51"
         transform="matrix(0.85817786,-0.51846691,0.4911194,0.75736226,18.722016,11.31504)">
        <path
           sodipodi:type="spiral"
           style="fill:#005d19;fill-opacity:1;fill-rule:evenodd;stroke:#050c0c;stroke-width:1.165;stroke-dasharray:none;stroke-opacity:1"
           id="path50"
           sodipodi:cx="7.3788824"
           sodipodi:cy="11.990684"
           sodipodi:expansion="1"
           sodipodi:revolution="3"
           sodipodi:radius="7.1775723"
           sodipodi:argument="-18.677364"
           sodipodi:t0="0"
           d="m 7.3788824,11.990684 c 0.3545501,0.06166 0.091804,0.508347 -0.1024849,0.589285 -0.5265123,0.219336 -1.0101602,-0.312416 -1.0760864,-0.794255 -0.1179264,-0.861898 0.6785411,-1.533067 1.4860261,-1.562887 1.1850166,-0.04376 2.0659185,1.047626 2.0496877,2.177796 -0.021633,1.506339 -1.4174993,2.602675 -2.8695671,2.536489 C 5.0391786,14.853823 3.7250753,13.149428 3.8431686,11.375774 3.9861954,9.2276413 6.0011989,7.6945659 8.0962768,7.8656841 10.565254,8.067341 12.31801,10.39416 12.093167,12.810563 11.833578,15.600395 9.1941789,17.573289 6.4565181,17.294254 3.345814,16.977198 1.1524728,14.024706 1.4860261,10.965834 1.8602224,7.5342424 5.1261684,5.1202316 8.5062165,5.5085416 12.258711,5.9396393 14.893555,9.5193049 14.45031,13.220503"
           transform="matrix(-0.12693299,-0.27940024,-0.24651116,0.18568287,23.532179,18.320999)" />
        <path
           sodipodi:type="spiral"
           style="fill:#00d438;fill-opacity:1;fill-rule:evenodd;stroke:#050c0c;stroke-width:1.165;stroke-dasharray:none;stroke-opacity:1"
           id="path51"
           sodipodi:cx="7.3788824"
           sodipodi:cy="11.990684"
           sodipodi:expansion="1"
           sodipodi:revolution="3"
           sodipodi:radius="7.1775723"
           sodipodi:argument="-18.677364"
           sodipodi:t0="0"
           d="m 7.3788824,11.990684 c 0.3545501,0.06166 0.091804,0.508347 -0.1024849,0.589285 -0.5265123,0.219336 -1.0101602,-0.312416 -1.0760864,-0.794255 -0.1179264,-0.861898 0.6785411,-1.533067 1.4860261,-1.562887 1.1850166,-0.04376 2.0659185,1.047626 2.0496877,2.177796 -0.021633,1.506339 -1.4174993,2.602675 -2.8695671,2.536489 C 5.0391786,14.853823 3.7250753,13.149428 3.8431686,11.375774 3.9861954,9.2276413 6.0011989,7.6945659 8.0962768,7.8656841 10.565254,8.067341 12.31801,10.39416 12.093167,12.810563 11.833578,15.600395 9.1941789,17.573289 6.4565181,17.294254 3.345814,16.977198 1.1524728,14.024706 1.4860261,10.965834 1.8602224,7.5342424 5.1261684,5.1202316 8.5062165,5.5085416 12.258711,5.9396393 14.893555,9.5193049 14.45031,13.220503"
           transform="matrix(0.12693299,-0.27940024,0.24651116,0.18568287,15.465587,19.054733)" />
      </g>
      <g
         id="g53"
         transform="matrix(0.30140871,-0.91329263,0.70893461,0.29211155,27.671316,26.644267)">
        <path
           sodipodi:type="spiral"
           style="fill:#005d19;fill-opacity:1;fill-rule:evenodd;stroke:#050c0c;stroke-width:1.165;stroke-dasharray:none;stroke-opacity:1"
           id="path52"
           sodipodi:cx="7.3788824"
           sodipodi:cy="11.990684"
           sodipodi:expansion="1"
           sodipodi:revolution="3"
           sodipodi:radius="7.1775723"
           sodipodi:argument="-18.677364"
           sodipodi:t0="0"
           d="m 7.3788824,11.990684 c 0.3545501,0.06166 0.091804,0.508347 -0.1024849,0.589285 -0.5265123,0.219336 -1.0101602,-0.312416 -1.0760864,-0.794255 -0.1179264,-0.861898 0.6785411,-1.533067 1.4860261,-1.562887 1.1850166,-0.04376 2.0659185,1.047626 2.0496877,2.177796 -0.021633,1.506339 -1.4174993,2.602675 -2.8695671,2.536489 C 5.0391786,14.853823 3.7250753,13.149428 3.8431686,11.375774 3.9861954,9.2276413 6.0011989,7.6945659 8.0962768,7.8656841 10.565254,8.067341 12.31801,10.39416 12.093167,12.810563 11.833578,15.600395 9.1941789,17.573289 6.4565181,17.294254 3.345814,16.977198 1.1524728,14.024706 1.4860261,10.965834 1.8602224,7.5342424 5.1261684,5.1202316 8.5062165,5.5085416 12.258711,5.9396393 14.893555,9.5193049 14.45031,13.220503"
           transform="matrix(-0.12693299,-0.27940024,-0.24651116,0.18568287,23.532179,18.320999)" />
        <path
           sodipodi:type="spiral"
           style="fill:#00d438;fill-opacity:1;fill-rule:evenodd;stroke:#050c0c;stroke-width:1.165;stroke-dasharray:none;stroke-opacity:1"
           id="path53"
           sodipodi:cx="7.3788824"
           sodipodi:cy="11.990684"
           sodipodi:expansion="1"
           sodipodi:revolution="3"
           sodipodi:radius="7.1775723"
           sodipodi:argument="-18.677364"
           sodipodi:t0="0"
           d="m 7.3788824,11.990684 c 0.3545501,0.06166 0.091804,0.508347 -0.1024849,0.589285 -0.5265123,0.219336 -1.0101602,-0.312416 -1.0760864,-0.794255 -0.1179264,-0.861898 0.6785411,-1.533067 1.4860261,-1.562887 1.1850166,-0.04376 2.0659185,1.047626 2.0496877,2.177796 -0.021633,1.506339 -1.4174993,2.602675 -2.8695671,2.536489 C 5.0391786,14.853823 3.7250753,13.149428 3.8431686,11.375774 3.9861954,9.2276413 6.0011989,7.6945659 8.0962768,7.8656841 10.565254,8.067341 12.31801,10.39416 12.093167,12.810563 11.833578,15.600395 9.1941789,17.573289 6.4565181,17.294254 3.345814,16.977198 1.1524728,14.024706 1.4860261,10.965834 1.8602224,7.5342424 5.1261684,5.1202316 8.5062165,5.5085416 12.258711,5.9396393 14.893555,9.5193049 14.45031,13.220503"
           transform="matrix(0.12693299,-0.27940024,0.24651116,0.18568287,15.465587,19.054733)" />
      </g>
      <g
         id="g55"
         transform="matrix(-0.95603024,0.10467485,0.13812483,0.75421414,64.350711,-4.0034402)">
        <path
           sodipodi:type="spiral"
           style="fill:#005d19;fill-opacity:1;fill-rule:evenodd;stroke:#050c0c;stroke-width:1.165;stroke-dasharray:none;stroke-opacity:1"
           id="path54"
           sodipodi:cx="7.3788824"
           sodipodi:cy="11.990684"
           sodipodi:expansion="1"
           sodipodi:revolution="3"
           sodipodi:radius="7.1775723"
           sodipodi:argument="-18.677364"
           sodipodi:t0="0"
           d="m 7.3788824,11.990684 c 0.3545501,0.06166 0.091804,0.508347 -0.1024849,0.589285 -0.5265123,0.219336 -1.0101602,-0.312416 -1.0760864,-0.794255 -0.1179264,-0.861898 0.6785411,-1.533067 1.4860261,-1.562887 1.1850166,-0.04376 2.0659185,1.047626 2.0496877,2.177796 -0.021633,1.506339 -1.4174993,2.602675 -2.8695671,2.536489 C 5.0391786,14.853823 3.7250753,13.149428 3.8431686,11.375774 3.9861954,9.2276413 6.0011989,7.6945659 8.0962768,7.8656841 10.565254,8.067341 12.31801,10.39416 12.093167,12.810563 11.833578,15.600395 9.1941789,17.573289 6.4565181,17.294254 3.345814,16.977198 1.1524728,14.024706 1.4860261,10.965834 1.8602224,7.5342424 5.1261684,5.1202316 8.5062165,5.5085416 12.258711,5.9396393 14.893555,9.5193049 14.45031,13.220503"
           transform="matrix(-0.12693299,-0.27940024,-0.24651116,0.18568287,23.532179,18.320999)" />
        <path
           sodipodi:type="spiral"
           style="fill:#00d438;fill-opacity:1;fill-rule:evenodd;stroke:#050c0c;stroke-width:1.165;stroke-dasharray:none;stroke-opacity:1"
           id="path55"
           sodipodi:cx="7.3788824"
           sodipodi:cy="11.990684"
           sodipodi:expansion="1"
           sodipodi:revolution="3"
           sodipodi:radius="7.1775723"
           sodipodi:argument="-18.677364"
           sodipodi:t0="0"
           d="m 7.3788824,11.990684 c 0.3545501,0.06166 0.091804,0.508347 -0.1024849,0.589285 -0.5265123,0.219336 -1.0101602,-0.312416 -1.0760864,-0.794255 -0.1179264,-0.861898 0.6785411,-1.533067 1.4860261,-1.562887 1.1850166,-0.04376 2.0659185,1.047626 2.0496877,2.177796 -0.021633,1.506339 -1.4174993,2.602675 -2.8695671,2.536489 C 5.0391786,14.853823 3.7250753,13.149428 3.8431686,11.375774 3.9861954,9.2276413 6.0011989,7.6945659 8.0962768,7.8656841 10.565254,8.067341 12.31801,10.39416 12.093167,12.810563 11.833578,15.600395 9.1941789,17.573289 6.4565181,17.294254 3.345814,16.977198 1.1524728,14.024706 1.4860261,10.965834 1.8602224,7.5342424 5.1261684,5.1202316 8.5062165,5.5085416 12.258711,5.9396393 14.893555,9.5193049 14.45031,13.220503"
           transform="matrix(0.12693299,-0.27940024,0.24651116,0.18568287,15.465587,19.054733)" />
      </g>
    </g>
    <rect
       style="fill:#2b6a6a;fill-opacity:1;stroke:#0d1f1f;stroke-width:0.93;stroke-dasharray:none;stroke-opacity:1"
       id="rect63"
       width="4.3757286"
       height="13.875885"
       x="20.030666"
       y="38.474583"
       ry="1.806289" />
    <path
       id="rect10"
       style="fill:#143030;stroke-width:0.412673"
       d="m 21.942396,45.288543 h 0.552269 c 0.803741,0 1.450796,0.200961 1.450796,0.450586 v 2.560221 c 0,0.604999 0.127652,0.450586 -1.450796,0.450586 h -0.552269 c -0.803741,0 -1.450796,-0.200961 -1.450796,-0.450586 v -2.560221 c 0,-0.249625 0.647055,-0.450586 1.450796,-0.450586 z"
       sodipodi:nodetypes="sssssssss" />
    <path
       id="path21"
       style="fill:#143030;stroke-width:0.413483"
       d="m 29.774586,46.893388 h 0.554441 c 0.8069,0 1.456499,0.200961 1.456499,0.450586 v 2.560221 c 0,0.604999 0.128154,0.450586 -1.456499,0.450586 h -0.554441 c -0.8069,0 -1.456499,-0.200961 -1.456499,-0.450586 v -2.560221 c 0,-0.249625 0.649599,-0.450586 1.456499,-0.450586 z"
       sodipodi:nodetypes="sssssssss" />
    <path
       id="rect56"
       style="fill:#ffffff;fill-opacity:1;stroke:#060e0e;stroke-width:0.859202;stroke-dasharray:none;stroke-opacity:1"
       d="m 19.414496,25.516732 c -0.456561,8.539672 -0.34766,17.932885 -0.314956,20.06399 0.0038,0.246391 0.208297,0.433871 0.45618,0.422696 9.43876,-0.425527 8.631153,3.944539 12.459894,1.700564 0.213954,-0.125395 0.33594,-0.42982 0.3385,-0.671614 0.02745,-2.592508 1.308583,-16.09868 0.581584,-23.129767 -0.139964,-1.35365 -3.647496,-0.30627 -3.647496,-0.30627 -0.135497,0.319831 -0.208038,0.819153 -0.208143,1.086316 0,1.161992 -1.427897,2.103977 -3.189313,2.103993 -1.761416,-1.7e-5 -3.189311,-0.889871 -3.189311,-2.051862 -0.223651,-0.281481 -0.555453,-0.824767 -0.04171,-0.961195 0,0 -3.171063,0.35587 -3.245232,1.743149 z"
       sodipodi:nodetypes="sccscccccss"
       inkscape:path-effect="#path-effect66"
       inkscape:original-d="m 19.414496,25.516732 c -0.518809,9.703979 -0.307454,20.51011 -0.307454,20.51011 10.225904,-0.605201 8.95319,4.247261 13.290612,1.441188 -0.331653,0.110551 1.347287,-15.738929 0.538044,-23.565429 -0.139964,-1.35365 -3.647496,-0.30627 -3.647496,-0.30627 -0.135497,0.319831 -0.208038,0.819153 -0.208143,1.086316 0,1.161992 -1.427897,2.103977 -3.189313,2.103993 -1.761416,-1.7e-5 -3.189311,-0.889871 -3.189311,-2.051862 -0.223651,-0.281481 -0.555453,-0.824767 -0.04171,-0.961195 0,0 -3.171063,0.35587 -3.245232,1.743149 z"
       transform="matrix(0.99931209,0,0,1.0425749,0.0179625,-0.98716182)" />
    <rect
       style="fill:#1f1f1f;fill-opacity:1;stroke:#000000;stroke-width:0.70295;stroke-dasharray:none;stroke-opacity:1"
       id="rect65"
       width="2.4817927"
       height="28.641481"
       x="9.4222775"
       y="23.444731" />
    <path
       id="rect66"
       style="fill:#747474;fill-opacity:1;stroke:#191919;stroke-width:0.855;stroke-opacity:1;stroke-dasharray:none"
       d="M 13.58744,0.76067708 6.6307584,4.4565755 6.9547696,9.1007365 a 2.71753,2.6631794 0 0 1 0.6542237,-0.078548 2.71753,2.6631794 0 0 1 2.7176637,2.6634037 2.71753,2.6631794 0 0 1 -2.7176637,2.662886 2.71753,2.6631794 0 0 1 -0.2893881,-0.01499 l 0.9415446,13.494267 h 3.8049362 z" />
    <path
       id="path68"
       style="fill:#2b6a6a;fill-opacity:1;stroke:#0d1f1f;stroke-width:1.126;stroke-dasharray:none;stroke-opacity:1"
       d="m 13.853011,32.748273 c -0.04523,1.304074 -1.638269,2.86827 -3.68873,1.951334 -1.6349961,-0.731147 -3.1854469,-1.468222 -2.8999692,-2.984881 0.2874449,-1.5271 0.5557633,-3.071664 3.7966372,-2.033622 1.731287,0.554524 2.830349,1.963578 2.792062,3.067169 z"
       sodipodi:nodetypes="sssss" />
    <path
       id="path76"
       style="fill:#143030;fill-opacity:1;stroke:none;stroke-width:0.49557;stroke-dasharray:none;stroke-opacity:1"
       d="m 20.443424,11.035578 c -0.534197,0.242718 -0.947436,0.613981 -0.956761,1.045457 -0.01685,0.779977 1.292075,1.462065 2.278388,1.477835 0.634655,0.01014 1.389052,-0.239933 1.850685,-0.627173 -0.40376,0.183579 -0.873557,0.289557 -1.291223,0.282883 -0.986313,-0.01577 -2.294736,-0.697859 -2.277882,-1.477836 0.0056,-0.260774 0.158608,-0.499543 0.396793,-0.701166 z" />
    <path
       style="fill:#2b6a6a;fill-opacity:1;stroke:#060e0e;stroke-width:0.577001;stroke-dasharray:none;stroke-opacity:1"
       d="m 19.403164,11.984307 c 2.060597,-0.464935 3.520557,-0.269168 4.864379,0.05435"
       id="path22"
       sodipodi:nodetypes="cc" />
    <path
       id="path23"
       style="fill:#2b6a6a;fill-opacity:1;stroke:#060e0e;stroke-width:0.577;stroke-dasharray:none;stroke-opacity:1"
       d="m 30.993184,10.455652 c 1.12343,0.01876 2.544659,0.795297 2.525461,1.723605 -0.0192,0.928309 -1.471552,1.656857 -2.594982,1.638096 -1.123429,-0.01876 -2.614092,-0.830772 -2.594895,-1.75908 0.0192,-0.928308 1.540987,-1.621382 2.664416,-1.602621 z"
       sodipodi:nodetypes="sssss" />
    <path
       id="path77"
       style="fill:#143030;fill-opacity:1;stroke:none;stroke-width:0.495503;stroke-dasharray:none;stroke-opacity:1"
       d="m 29.574325,11.036261 c -0.534197,0.242652 -0.947436,0.613815 -0.956761,1.045174 -0.01685,0.779766 1.292075,1.46167 2.278388,1.477435 0.634655,0.01014 1.389052,-0.239868 1.850685,-0.627004 -0.40376,0.18353 -0.873557,0.289479 -1.291223,0.282807 -0.986313,-0.01577 -2.294736,-0.69767 -2.277882,-1.477436 0.0056,-0.260704 0.158608,-0.499408 0.396793,-0.700976 z" />
    <path
       style="fill:#2b6a6a;fill-opacity:1;stroke:#060e0e;stroke-width:0.577001;stroke-dasharray:none;stroke-opacity:1"
       d="m 28.540659,12.126612 c 2.060597,-0.464935 3.520557,-0.269168 4.864379,0.05435"
       id="path27"
       sodipodi:nodetypes="cc" />
    <rect
       style="fill:#1f1f1f;fill-opacity:1;stroke:#000000;stroke-width:0.5;stroke-miterlimit:4;stroke-dasharray:none;stroke-opacity:1"
       id="rect32"
       width="5.5141988"
       height="1.327625"
       x="7.9232454"
       y="49.281166"
       ry="0.62142354" />
    <rect
       style="fill:#1f1f1f;fill-opacity:1;stroke:#000000;stroke-width:0.776;stroke-miterlimit:4;stroke-dasharray:none;stroke-opacity:1"
       id="rect33"
       width="6.6018896"
       height="1.7486444"
       x="7.3738289"
       y="50.639847"
       ry="0.81849068" />
    <ellipse
       style="fill:#1c4333;fill-opacity:1;stroke:#060e0e;stroke-width:0.913104;stroke-dasharray:none;stroke-opacity:1"
       id="ellipse62"
       cx="43.738941"
       cy="32.817852"
       rx="7.0632572"
       ry="12.742716" />
    <path
       id="ellipse73"
       style="fill:#112a21;fill-opacity:1;stroke:none;stroke-width:0.874653;stroke-dasharray:none;stroke-opacity:1"
       d="m 38.066164,26.150859 a 6.6617439,12.396831 0 0 0 -1.006163,6.551538 6.6617439,12.396831 0 0 0 6.661735,12.397176 6.6617439,12.396831 0 0 0 4.572322,-3.381189 9.5094857,12.396831 0 0 1 -1.049997,0.07596 9.5094857,12.396831 0 0 1 -9.509422,-12.396659 9.5094857,12.396831 0 0 1 0.331525,-3.24683 z" />
    <path
       id="path62"
       style="fill:#ffffff;stroke:#060e0e;stroke-width:1.183;stroke-dasharray:none;stroke-opacity:1"
       d="m 52.047356,32.919984 c 0,2.404356 -1.296252,5.479368 -2.895262,5.479368 -1.599009,-2e-6 -2.895261,-3.075012 -2.895261,-5.479368 0,-2.404354 1.35534,-5.629484 2.954348,-5.629486 1.599008,0 2.836175,3.225132 2.836175,5.629486 z"
       sodipodi:nodetypes="sssss" />
    <path
       id="path63"
       style="fill:#0f2222;fill-opacity:1;stroke:#060e0e;stroke-width:0.781069;stroke-dasharray:none;stroke-opacity:1"
       d="m 51.283807,32.871704 c 0,1.319075 -0.816215,3.006087 -1.823062,3.006087 -1.006851,0 -1.823064,-1.687012 -1.823064,-3.006087 0,-1.319076 0.853419,-3.088446 1.860267,-3.088446 1.006851,0 1.785859,1.76937 1.785859,3.088446 z"
       sodipodi:nodetypes="sssss" />
    <path
       id="path64"
       style="fill:#ffffff;fill-opacity:1;stroke:none;stroke-width:0.176561"
       d="m 51.12267,30.742216 c 0.151021,0.763813 -0.09232,1.804621 -0.630763,1.883501 -0.538437,0.07888 -1.168078,-0.83404 -1.319099,-1.597852 -0.151023,-0.76381 0.102786,-1.855223 0.641228,-1.934102 0.538439,-0.07888 1.157611,0.884643 1.308634,1.648453 z"
       sodipodi:nodetypes="sssss" />
    <g
       id="g67"
       transform="matrix(1.1423859,-0.0534734,-0.60252081,-1.1809115,33.985823,45.937785)"
       style="stroke:#021212;stroke-opacity:1">
      <path
         sodipodi:type="spiral"
         style="fill:none;fill-opacity:1;fill-rule:evenodd;stroke:#021212;stroke-width:1.165;stroke-dasharray:none;stroke-opacity:1"
         id="path65"
         sodipodi:cx="7.3788824"
         sodipodi:cy="11.990684"
         sodipodi:expansion="1"
         sodipodi:revolution="3"
         sodipodi:radius="7.1775723"
         sodipodi:argument="-18.677364"
         sodipodi:t0="0"
         d="m 7.3788824,11.990684 c 0.3545501,0.06166 0.091804,0.508347 -0.1024849,0.589285 -0.5265123,0.219336 -1.0101602,-0.312416 -1.0760864,-0.794255 -0.1179264,-0.861898 0.6785411,-1.533067 1.4860261,-1.562887 1.1850166,-0.04376 2.0659185,1.047626 2.0496877,2.177796 -0.021633,1.506339 -1.4174993,2.602675 -2.8695671,2.536489 C 5.0391786,14.853823 3.7250753,13.149428 3.8431686,11.375774 3.9861954,9.2276413 6.0011989,7.6945659 8.0962768,7.8656841 10.565254,8.067341 12.31801,10.39416 12.093167,12.810563 11.833578,15.600395 9.1941789,17.573289 6.4565181,17.294254 3.345814,16.977198 1.1524728,14.024706 1.4860261,10.965834 1.8602224,7.5342424 5.1261684,5.1202316 8.5062165,5.5085416 12.258711,5.9396393 14.893555,9.5193049 14.45031,13.220503"
         transform="matrix(-0.12693299,-0.27940024,-0.24651116,0.18568287,23.532179,18.320999)" />
    </g>
    <g
       id="g68"
       transform="matrix(-1.1423859,-0.0534734,0.60252081,-1.1809115,56.893245,64.397187)"
       style="stroke:#021212;stroke-opacity:1">
      <path
         sodipodi:type="spiral"
         style="fill:none;fill-opacity:1;fill-rule:evenodd;stroke:#021212;stroke-width:1.165;stroke-dasharray:none;stroke-opacity:1"
         id="path67"
         sodipodi:cx="7.3788824"
         sodipodi:cy="11.990684"
         sodipodi:expansion="1"
         sodipodi:revolution="3"
         sodipodi:radius="7.1775723"
         sodipodi:argument="-18.677364"
         sodipodi:t0="0"
         d="m 7.3788824,11.990684 c 0.3545501,0.06166 0.091804,0.508347 -0.1024849,0.589285 -0.5265123,0.219336 -1.0101602,-0.312416 -1.0760864,-0.794255 -0.1179264,-0.861898 0.6785411,-1.533067 1.4860261,-1.562887 1.1850166,-0.04376 2.0659185,1.047626 2.0496877,2.177796 -0.021633,1.506339 -1.4174993,2.602675 -2.8695671,2.536489 C 5.0391786,14.853823 3.7250753,13.149428 3.8431686,11.375774 3.9861954,9.2276413 6.0011989,7.6945659 8.0962768,7.8656841 10.565254,8.067341 12.31801,10.39416 12.093167,12.810563 11.833578,15.600395 9.1941789,17.573289 6.4565181,17.294254 3.345814,16.977198 1.1524728,14.024706 1.4860261,10.965834 1.8602224,7.5342424 5.1261684,5.1202316 8.5062165,5.5085416 12.258711,5.9396393 14.893555,9.5193049 14.45031,13.220503"
         transform="matrix(-0.12693299,-0.27940024,-0.24651116,0.18568287,23.532179,18.320999)" />
    </g>
    <g
       id="g69"
       transform="matrix(0.88791321,-1.2506392,-1.4052365,-0.66496526,49.721419,69.185305)"
       style="stroke:#021212;stroke-opacity:1">
      <path
         sodipodi:type="spiral"
         style="fill:none;fill-opacity:1;fill-rule:evenodd;stroke:#021212;stroke-width:1.165;stroke-dasharray:none;stroke-opacity:1"
         id="path69"
         sodipodi:cx="7.3788824"
         sodipodi:cy="11.990684"
         sodipodi:expansion="1"
         sodipodi:revolution="3"
         sodipodi:radius="7.1775723"
         sodipodi:argument="-18.677364"
         sodipodi:t0="0"
         d="m 7.3788824,11.990684 c 0.3545501,0.06166 0.091804,0.508347 -0.1024849,0.589285 -0.5265123,0.219336 -1.0101602,-0.312416 -1.0760864,-0.794255 -0.1179264,-0.861898 0.6785411,-1.533067 1.4860261,-1.562887 1.1850166,-0.04376 2.0659185,1.047626 2.0496877,2.177796 -0.021633,1.506339 -1.4174993,2.602675 -2.8695671,2.536489 C 5.0391786,14.853823 3.7250753,13.149428 3.8431686,11.375774 3.9861954,9.2276413 6.0011989,7.6945659 8.0962768,7.8656841 10.565254,8.067341 12.31801,10.39416 12.093167,12.810563 11.833578,15.600395 9.1941789,17.573289 6.4565181,17.294254 3.345814,16.977198 1.1524728,14.024706 1.4860261,10.965834 1.8602224,7.5342424 5.1261684,5.1202316 8.5062165,5.5085416 12.258711,5.9396393 14.893555,9.5193049 14.45031,13.220503"
         transform="matrix(-0.12693299,-0.27940024,-0.24651116,0.18568287,23.532179,18.320999)" />
    </g>
    <g
       id="g70"
       transform="matrix(1.3068608,-0.15694759,-0.80288785,-1.2085768,31.441416,52.121817)"
       style="stroke:#021212;stroke-opacity:1">
      <path
         sodipodi:type="spiral"
         style="fill:none;fill-opacity:1;fill-rule:evenodd;stroke:#021212;stroke-width:1.165;stroke-dasharray:none;stroke-opacity:1"
         id="path70"
         sodipodi:cx="7.3788824"
         sodipodi:cy="11.990684"
         sodipodi:expansion="1"
         sodipodi:revolution="3"
         sodipodi:radius="7.1775723"
         sodipodi:argument="-18.677364"
         sodipodi:t0="0"
         d="m 7.3788824,11.990684 c 0.3545501,0.06166 0.091804,0.508347 -0.1024849,0.589285 -0.5265123,0.219336 -1.0101602,-0.312416 -1.0760864,-0.794255 -0.1179264,-0.861898 0.6785411,-1.533067 1.4860261,-1.562887 1.1850166,-0.04376 2.0659185,1.047626 2.0496877,2.177796 -0.021633,1.506339 -1.4174993,2.602675 -2.8695671,2.536489 C 5.0391786,14.853823 3.7250753,13.149428 3.8431686,11.375774 3.9861954,9.2276413 6.0011989,7.6945659 8.0962768,7.8656841 10.565254,8.067341 12.31801,10.39416 12.093167,12.810563 11.833578,15.600395 9.1941789,17.573289 6.4565181,17.294254 3.345814,16.977198 1.1524728,14.024706 1.4860261,10.965834 1.8602224,7.5342424 5.1261684,5.1202316 8.5062165,5.5085416 12.258711,5.9396393 14.893555,9.5193049 14.45031,13.220503"
         transform="matrix(-0.03138143,-0.26457186,-0.33973589,0.08157699,23.858253,19.394667)" />
    </g>
    <g
       id="g71"
       transform="matrix(-1.2865326,-0.38549928,1.0364457,-1.1281096,48.977028,66.686573)"
       style="stroke:#021212;stroke-opacity:1">
      <path
         sodipodi:type="spiral"
         style="fill:none;fill-opacity:1;fill-rule:evenodd;stroke:#021212;stroke-width:1.165;stroke-dasharray:none;stroke-opacity:1"
         id="path71"
         sodipodi:cx="7.3788824"
         sodipodi:cy="11.990684"
         sodipodi:expansion="1"
         sodipodi:revolution="3"
         sodipodi:radius="7.1775723"
         sodipodi:argument="-18.677364"
         sodipodi:t0="0"
         d="m 7.3788824,11.990684 c 0.3545501,0.06166 0.091804,0.508347 -0.1024849,0.589285 -0.5265123,0.219336 -1.0101602,-0.312416 -1.0760864,-0.794255 -0.1179264,-0.861898 0.6785411,-1.533067 1.4860261,-1.562887 1.1850166,-0.04376 2.0659185,1.047626 2.0496877,2.177796 -0.021633,1.506339 -1.4174993,2.602675 -2.8695671,2.536489 C 5.0391786,14.853823 3.7250753,13.149428 3.8431686,11.375774 3.9861954,9.2276413 6.0011989,7.6945659 8.0962768,7.8656841 10.565254,8.067341 12.31801,10.39416 12.093167,12.810563 11.833578,15.600395 9.1941789,17.573289 6.4565181,17.294254 3.345814,16.977198 1.1524728,14.024706 1.4860261,10.965834 1.8602224,7.5342424 5.1261684,5.1202316 8.5062165,5.5085416 12.258711,5.9396393 14.893555,9.5193049 14.45031,13.220503"
         transform="matrix(-0.12693299,-0.27940024,-0.24651116,0.18568287,23.532179,18.320999)" />
    </g>
    <rect
       style="fill:#143255;fill-opacity:1;stroke:#090e2f;stroke-width:0.403746;stroke-dasharray:none;stroke-opacity:1"
       id="rect72"
       width="7.9426875"
       height="1.2601123"
       x="40.52005"
       y="-30.228895"
       ry="0.63005614"
       transform="matrix(0.08408266,0.99645878,-0.99647267,0.08391792,0,0)" />
    <rect
       style="fill:#143255;fill-opacity:1;stroke:#090e2f;stroke-width:0.340773;stroke-dasharray:none;stroke-opacity:1"
       id="rect73"
       width="6.2671309"
       height="1.1376847"
       x="34.907413"
       y="-35.127659"
       ry="0.56884235"
       transform="matrix(-0.07992342,0.99680101,-0.99778257,-0.06655785,0,0)" />
    <rect
       style="fill:#143255;fill-opacity:1;stroke:#090e2f;stroke-width:0.741838;stroke-dasharray:none;stroke-opacity:1"
       id="rect71"
       width="15.974588"
       height="2.115186"
       x="18.291222"
       y="36.661728"
       ry="1.057593" />
    <path
       id="path78"
       style="fill:#464646;fill-opacity:1;stroke:none;stroke-width:0.69778;stroke-dasharray:none;stroke-opacity:1"
       d="M 13.1237,1.4921663 9.7618831,3.906737 9.4221918,9.2032608 c 0.6185902,0.4421835 1.2970222,1.5566592 1.2968852,2.5010542 -4e-6,0.944212 -0.463627,1.878392 -1.0820969,2.32049 l 0.124903,13.405045 h 2.2151139 z"
       sodipodi:nodetypes="cccccccc" />
  </g>
</svg>
