<?xml version="1.0" encoding="utf-8"?>
<svg xmlns="http://www.w3.org/2000/svg" viewBox="0 0 75 75" width="75px" height="75px">
  <defs>
    <linearGradient gradientUnits="userSpaceOnUse" x1="47.588" y1="1.979" x2="47.588" y2="86.429" id="gradient-2" gradientTransform="matrix(0.804071, 0, 0, 0.864489, -0.865098, -0.727086)">
      <stop offset="0" style="stop-color: rgb(39.608% 70.98% 4.3137%)"/>
      <stop offset="1" style="stop-color: rgb(9.2921% 42.895% 0%)"/>
    </linearGradient>
    <linearGradient gradientUnits="userSpaceOnUse" x1="37.89" y1="18.687" x2="37.89" y2="27.492" id="gradient-0" gradientTransform="matrix(1.466879, 0, 0, 2.060531, -18.021856, -30.552321)">
      <stop offset="0" style="stop-color: rgb(52.549% 100% 0%)"/>
      <stop offset="1" style="stop-color: rgb(4.1261% 59.051% 0%)"/>
    </linearGradient>
  </defs>
  <path d="M 73.864 37.488 C 73.864 46.938 66.903 55.219 56.465 59.829 C 52.122 68.444 45.325 73.989 37.684 73.989 C 30.135 73.989 23.411 68.579 19.061 60.142 C 8.22 55.601 0.933 47.156 0.933 37.488 C 0.933 27.822 8.218 19.377 19.059 14.836 C 23.408 6.398 30.134 0.984 37.684 0.984 C 45.326 0.984 52.124 6.532 56.468 15.15 C 66.904 19.76 73.864 28.041 73.864 37.488 Z" style="fill: url(&quot;#gradient-2&quot;); stroke-width: 2px; stroke: rgb(21, 65, 10);"/>
  <ellipse style="stroke: rgb(0, 0, 0); fill: rgb(255, 255, 255);" cx="37.214" cy="28.112" rx="14.258" ry="18.872"/>
  <ellipse style="" cx="37.421" cy="30.152" rx="9.002" ry="11.99"/>
  <ellipse style="fill: rgb(255, 255, 255);" cx="36.645" cy="18.539" rx="6.147" ry="7.259"/>
  <path d="M 37.558 7.952 C 45.043 7.952 51.247 15.822 52.349 26.096 L 51.59 26.096 C 49.368 21.44 43.832 18.14 37.353 18.14 C 30.875 18.14 25.338 21.44 23.116 26.096 L 22.768 26.096 C 23.869 15.822 30.073 7.952 37.558 7.952 Z" style="stroke: rgb(21, 65, 10); fill: url(&quot;#gradient-0&quot;);"/>
  <path d="M 60.214 58.781 C 60.214 61.892 58.782 64.784 56.335 67.18 C 51.22 66.445 45.243 66.021 38.862 66.021 C 31.521 66.021 24.718 66.583 19.143 67.536 C 16.463 65.072 14.887 62.048 14.887 58.781 C 14.887 56.253 15.832 53.869 17.503 51.776 C 23.438 52.974 31.072 53.693 39.399 53.693 C 46.27 53.693 52.675 53.203 58.039 52.356 C 59.435 54.305 60.214 56.481 60.214 58.781 Z" style="fill: rgb(216, 216, 216); stroke: rgb(0, 0, 0); stroke-width: 2px;"/>
  <path style="fill: rgb(216, 216, 216); stroke: rgb(0, 0, 0); stroke-width: 2px;" d="M 15.035 59.216 L 60.141 59.63"/>
  <path d="M 60.69 28.723 C 60.69 30.794 59.867 32.473 58.854 32.473 C 57.839 32.473 57.017 30.794 57.017 28.723 C 57.017 26.651 58.029 18.12 59.043 18.12 C 60.058 18.12 60.69 26.651 60.69 28.723 Z" style="fill: rgba(59, 226, 253, 0.98); stroke: rgb(0, 0, 0);"/>
</svg>