<?xml version="1.0" encoding="utf-8"?>
<svg xmlns="http://www.w3.org/2000/svg" viewBox="0 0 200 200" width="200px" height="200px" xmlns:bx="https://boxy-svg.com">
  <defs>
    <linearGradient gradientUnits="userSpaceOnUse" x1="27.713" y1="117.383" x2="27.713" y2="196.973" id="gradient-3">
      <stop offset="0" style="stop-color: rgb(36.078% 67.843% 3.9216%)"/>
      <stop offset="1" style="stop-color: rgb(5.8473% 41.162% 0%)"/>
    </linearGradient>
    <linearGradient gradientUnits="userSpaceOnUse" x1="27.713" y1="117.383" x2="27.713" y2="196.973" id="gradient-4" gradientTransform="matrix(0.838238, 0, 0, 0.874822, 38.805915, 25.954228)">
      <stop offset="0" style="stop-color: rgb(36.078% 67.843% 3.9216%)"/>
      <stop offset="1" style="stop-color: rgb(5.8473% 41.162% 0%)"/>
    </linearGradient>
    <linearGradient gradientUnits="userSpaceOnUse" x1="27.713" y1="117.383" x2="27.713" y2="196.973" id="gradient-5" gradientTransform="matrix(0.739821, 0, 0, 0.72566, 76.684185, 52.916773)">
      <stop offset="0" style="stop-color: rgb(36.078% 67.843% 3.9216%)"/>
      <stop offset="1" style="stop-color: rgb(5.8473% 41.162% 0%)"/>
    </linearGradient>
    <filter id="filter-5" bx:preset="outline 1 1 #fff0" color-interpolation-filters="sRGB" x="-50%" y="-50%" width="200%" height="200%">
      <feMorphology in="SourceAlpha" result="dilated" operator="dilate" radius="1"/>
      <feFlood flood-color="#fff0" result="flood"/>
      <feComposite in="flood" in2="dilated" operator="in" result="outline"/>
      <feMerge>
        <feMergeNode in="outline"/>
        <feMergeNode in="SourceGraphic"/>
      </feMerge>
    </filter>
    <filter id="filter-6" bx:preset="outline 1 1 #fff0" color-interpolation-filters="sRGB" x="-50%" y="-50%" width="200%" height="200%">
      <feMorphology in="SourceAlpha" result="dilated" operator="dilate" radius="1"/>
      <feFlood flood-color="#fff0" result="flood"/>
      <feComposite in="flood" in2="dilated" operator="in" result="outline"/>
      <feMerge>
        <feMergeNode in="outline"/>
        <feMergeNode in="SourceGraphic"/>
      </feMerge>
    </filter>
    <filter id="filter-7" bx:preset="outline 1 1 #fff0" color-interpolation-filters="sRGB" x="-50%" y="-50%" width="200%" height="200%">
      <feMorphology in="SourceAlpha" result="dilated" operator="dilate" radius="1"/>
      <feFlood flood-color="#fff0" result="flood"/>
      <feComposite in="flood" in2="dilated" operator="in" result="outline"/>
      <feMerge>
        <feMergeNode in="outline"/>
        <feMergeNode in="SourceGraphic"/>
      </feMerge>
    </filter>
    <filter id="filter-8" bx:preset="outline 1 1 #fff0" color-interpolation-filters="sRGB" x="-50%" y="-50%" width="200%" height="200%">
      <feMorphology in="SourceAlpha" result="dilated" operator="dilate" radius="1"/>
      <feFlood flood-color="#fff0" result="flood"/>
      <feComposite in="flood" in2="dilated" operator="in" result="outline"/>
      <feMerge>
        <feMergeNode in="outline"/>
        <feMergeNode in="SourceGraphic"/>
      </feMerge>
    </filter>
    <filter id="filter-9" bx:preset="outline 1 1 #fff0" color-interpolation-filters="sRGB" x="-50%" y="-50%" width="200%" height="200%">
      <feMorphology in="SourceAlpha" result="dilated" operator="dilate" radius="1"/>
      <feFlood flood-color="#fff0" result="flood"/>
      <feComposite in="flood" in2="dilated" operator="in" result="outline"/>
      <feMerge>
        <feMergeNode in="outline"/>
        <feMergeNode in="SourceGraphic"/>
      </feMerge>
    </filter>
    <linearGradient gradientUnits="userSpaceOnUse" x1="158.068" y1="53.448" x2="158.068" y2="178.874" id="gradient-1" gradientTransform="matrix(1.003677, 0, 0, 0.931302, -0.723589, 9.546806)">
      <stop offset="0" style="stop-color: rgb(25.882% 37.255% 15.686%)"/>
      <stop offset="1" style="stop-color: rgb(12.337% 23.573% 2.1052%)"/>
    </linearGradient>
    <linearGradient gradientUnits="userSpaceOnUse" x1="74.602" y1="74.237" x2="74.602" y2="161.72" id="gradient-2">
      <stop offset="0" style="stop-color: rgb(25.882% 37.255% 15.686%)"/>
      <stop offset="1" style="stop-color: rgb(12.337% 23.573% 2.1052%)"/>
    </linearGradient>
    <linearGradient gradientUnits="userSpaceOnUse" x1="167.017" y1="66.723" x2="167.017" y2="167.957" id="gradient-0">
      <stop offset="0" style="stop-color: rgb(12.941% 14.902% 10.588%)"/>
      <stop offset="1" style="stop-color: rgb(8.5396% 10.301% 5.6975%)"/>
    </linearGradient>
  </defs>
  <path d="M 90.984 142.98 C 98.761 137.91 103.385 132.501 101.311 130.9 C 99.238 129.298 91.254 132.112 83.477 137.183 C 80.069 139.406 77.266 141.693 75.368 143.696 C 72.679 145.425 69.659 150.167 67.808 155.974 C 66.968 158.612 66.478 161.124 66.323 163.306 C 64.833 165.786 63.873 169.683 63.873 174.063 C 63.873 181.558 66.684 187.634 70.15 187.634 C 73.617 187.634 76.427 181.558 76.427 174.064 C 76.427 170.991 75.954 168.156 75.158 165.881 C 76.593 163.68 77.922 160.871 78.914 157.756 C 80.024 154.273 80.523 151.007 80.446 148.437 C 83.573 147.277 87.301 145.382 90.984 142.98 Z" style="transform-origin: 82.84px 159.042px; fill: rgb(31, 46, 18);" transform="matrix(-0.66831, 0.743883, -0.743883, -0.66831, 0, -0.000004)"/>
  <path d="M 123.853 143.394 C 131.63 138.324 136.254 132.915 134.18 131.314 C 132.107 129.712 124.123 132.526 116.346 137.597 C 112.938 139.82 110.135 142.107 108.237 144.11 C 105.548 145.839 102.528 150.581 100.677 156.388 C 99.837 159.026 99.347 161.538 99.192 163.72 C 97.702 166.2 96.742 170.097 96.742 174.477 C 96.742 181.972 99.553 188.048 103.019 188.048 C 106.486 188.048 109.296 181.972 109.296 174.478 C 109.296 171.405 108.823 168.57 108.027 166.295 C 109.462 164.094 110.791 161.285 111.783 158.17 C 112.893 154.687 113.392 151.421 113.315 148.851 C 116.442 147.691 120.17 145.796 123.853 143.394 Z" style="transform-origin: 115.709px 159.456px; fill: rgb(31, 46, 18);" transform="matrix(-0.66831, 0.743883, -0.743883, -0.66831, 0.000012, 0.000017)"/>
  <path d="M 33.36 141.849 C 41.137 136.779 45.761 131.37 43.687 129.769 C 41.614 128.167 33.63 130.981 25.853 136.052 C 22.445 138.275 19.642 140.562 17.744 142.565 C 15.055 144.294 12.035 149.036 10.184 154.843 C 9.344 157.481 8.854 159.993 8.699 162.175 C 7.209 164.655 6.249 168.552 6.249 172.932 C 6.249 180.427 9.06 186.503 12.526 186.503 C 15.993 186.503 18.803 180.427 18.803 172.933 C 18.803 169.86 18.33 167.025 17.534 164.75 C 18.969 162.549 20.298 159.74 21.29 156.625 C 22.4 153.142 22.899 149.876 22.822 147.306 C 25.949 146.146 29.677 144.251 33.36 141.849 Z" style="transform-origin: 25.216px 157.911px; fill: rgb(31, 46, 18);" transform="matrix(-0.66831, 0.743883, -0.743883, -0.66831, -0.000003, 0.000004)"/>
  <path d="M 40.464 12.648 L 62.789 82.756 L 40.464 82.756 L 40.464 12.648 Z" bx:shape="triangle 40.464 12.648 22.325 70.108 0 0 1@9082e11d" style="stroke: rgb(0, 0, 0); fill: rgb(31, 46, 18);"/>
  <path d="M 40.983 38.374 L 41.726 38.374 L 43.74 49.58 L 45.451 49.58 L 43.502 38.739 L 44.485 38.739 L 45.464 44.181 L 48.629 44.343 L 47.648 38.73 L 48.183 38.757 L 49.164 44.37 L 49.177 44.37 L 49.599 46.779 L 45.897 46.589 L 47.78 57.065 L 48.837 57.065 L 48.825 57.001 L 49.401 57.001 L 52.881 76.359 L 52.305 76.359 L 49.298 59.63 L 48.241 59.63 L 48.261 59.741 L 47.278 59.741 L 47.266 59.674 L 44.977 59.674 L 44.476 56.89 L 46.765 56.89 L 45.76 51.298 L 44.049 51.298 L 44.057 51.341 L 43.314 51.341 L 40.983 38.374 Z" style="fill: rgb(98, 143, 79); transform-origin: 47.962px 57.366px;"/>
  <path d="M 139.488 74.237 L 139.488 105.806 L 139.718 105.806 L 139.718 161.72 L 40.358 161.72 C 37.371 152.715 24.962 145.963 10.109 145.963 C 9.977 145.963 9.846 145.963 9.716 145.964 L 9.716 130.151 L 9.486 130.151 L 9.486 89.992 C 9.616 89.994 9.747 89.994 9.878 89.994 C 24.732 89.994 37.141 83.242 40.128 74.237 L 139.488 74.237 Z" style="stroke: rgb(0, 0, 0); fill: url(&quot;#gradient-2&quot;); stroke-width: 2px;"/>
  <ellipse style="fill: url(&quot;#gradient-1&quot;); stroke-width: 2px; stroke: rgb(12, 21, 4);" cx="157.926" cy="117.728" rx="38.846" ry="58.405"/>
  <path d="M 39.259 179.532 C 50.286 186.59 56.842 194.118 53.903 196.347 C 50.963 198.576 39.643 194.66 28.616 187.601 C 23.784 184.508 19.81 181.324 17.118 178.537 C 13.306 176.13 9.025 169.53 6.401 161.448 C 5.209 157.776 4.515 154.28 4.295 151.244 C 2.182 147.791 0.821 142.368 0.821 136.271 C 0.821 125.839 4.806 117.382 9.721 117.383 C 14.636 117.382 18.621 125.839 18.621 136.27 C 18.621 140.547 17.951 144.492 16.822 147.658 C 18.855 150.722 20.74 154.632 22.147 158.967 C 23.721 163.815 24.428 168.361 24.319 171.938 C 28.752 173.552 34.038 176.19 39.259 179.532 Z" style="stroke: rgb(0, 0, 0); transform-box: fill-box; transform-origin: 50% 50%; fill: url(&quot;#gradient-3&quot;);" transform="matrix(0.480746, 0.87686, -0.87686, 0.480746, 0.000007, 0.000006)"/>
  <ellipse style="fill: rgb(31, 46, 18); stroke: rgb(28, 33, 21);" cx="164.898" cy="116.265" rx="31.874" ry="53.399"/>
  <ellipse style="stroke: rgb(0, 0, 0); fill: url(&quot;#gradient-0&quot;);" cx="167.017" cy="117.34" rx="29.671" ry="50.617"/>
  <path d="M 71.715 183.013 C 80.958 189.188 86.453 195.773 83.99 197.723 C 81.525 199.673 72.036 196.247 62.793 190.072 C 58.743 187.366 55.412 184.581 53.155 182.143 C 49.96 180.037 46.371 174.263 44.172 167.193 C 43.173 163.98 42.591 160.922 42.406 158.266 C 40.635 155.245 39.494 150.501 39.494 145.167 C 39.494 136.041 42.835 128.643 46.955 128.644 C 51.075 128.643 54.415 136.041 54.415 145.166 C 54.415 148.908 53.853 152.359 52.907 155.129 C 54.611 157.809 56.191 161.23 57.371 165.022 C 58.69 169.263 59.283 173.24 59.191 176.37 C 62.907 177.782 67.338 180.089 71.715 183.013 Z" style="stroke: rgb(0, 0, 0); fill: url(&quot;#gradient-4&quot;); transform-origin: 62.036px 163.457px;" transform="matrix(0.480746, 0.87686, -0.87686, 0.480746, 0.000002, 0)"/>
  <path d="M 105.729 183.197 C 113.887 188.319 118.737 193.781 116.563 195.399 C 114.387 197.016 106.012 194.175 97.855 189.052 C 94.28 186.808 91.34 184.498 89.348 182.475 C 86.528 180.728 83.361 175.939 81.42 170.074 C 80.538 167.409 80.024 164.873 79.861 162.669 C 78.298 160.164 77.291 156.228 77.291 151.804 C 77.291 144.234 80.24 138.097 83.876 138.098 C 87.512 138.097 90.46 144.234 90.46 151.803 C 90.46 154.907 89.964 157.77 89.129 160.067 C 90.633 162.29 92.028 165.128 93.069 168.274 C 94.233 171.791 94.757 175.09 94.676 177.687 C 97.955 178.858 101.866 180.772 105.729 183.197 Z" style="stroke: rgb(0, 0, 0); fill: url(&quot;#gradient-5&quot;); transform-origin: 97.186px 166.975px;" transform="matrix(0.480746, 0.87686, -0.87686, 0.480746, -0.000005, 0)"/>
  <ellipse style="stroke: rgb(0, 0, 0); fill: rgb(255, 255, 255);" cx="102.058" cy="108.542" rx="14.431" ry="26.782"/>
  <ellipse style="stroke: rgb(0, 0, 0);" cx="104.367" cy="113.977" rx="10.39" ry="18.827"/>
  <path d="M 60.938 124.966 L 63.681 124.966 L 63.681 110.063 L 69.997 110.063 L 69.997 124.48 L 73.623 124.48 L 73.623 117.244 L 85.202 117.029 L 85.303 124.493 L 87.261 124.457 L 87.158 116.992 L 87.206 116.992 L 87.163 113.789 L 73.623 114.04 L 73.623 100.109 L 77.527 100.109 L 77.527 100.193 L 79.655 100.193 L 79.655 74.448 L 77.527 74.448 L 77.527 96.697 L 73.623 96.697 L 73.623 96.549 L 69.997 96.549 L 69.997 96.638 L 61.547 96.638 L 61.547 100.341 L 69.997 100.341 L 69.997 107.777 L 63.681 107.777 L 63.681 107.721 L 60.938 107.721 L 60.938 124.966 Z" style="fill: rgb(41, 65, 31); transform-origin: 74.099px 99.708px;" transform="matrix(-1, 0, 0, -1, 0.00001, -0.00001)"/>
  <path d="M 42.18 76.015 L 43.82 76.015 L 43.82 87.221 L 47.599 87.221 L 47.599 76.38 L 49.769 76.38 L 49.769 81.822 L 56.696 81.984 L 56.756 76.371 L 57.928 76.398 L 57.865 82.011 L 57.894 82.011 L 57.869 84.42 L 49.769 84.23 L 49.769 94.706 L 52.104 94.706 L 52.104 94.642 L 53.377 94.642 L 53.377 114 L 52.104 114 L 52.104 97.271 L 49.769 97.271 L 49.769 97.382 L 47.599 97.382 L 47.599 97.315 L 42.544 97.315 L 42.544 94.531 L 47.599 94.531 L 47.599 88.939 L 43.82 88.939 L 43.82 88.982 L 42.18 88.982 L 42.18 76.015 Z" style="fill: rgb(41, 65, 31); transform-origin: 50.053px 95.007px;"/>
  <path d="M 18.288 90.507 L 19.928 90.507 L 19.928 101.713 L 23.707 101.713 L 23.707 90.872 L 25.877 90.872 L 25.877 96.314 L 32.804 96.476 L 32.864 90.863 L 34.036 90.89 L 33.973 96.503 L 34.002 96.503 L 33.977 98.912 L 25.877 98.722 L 25.877 109.198 L 28.212 109.198 L 28.212 109.134 L 29.485 109.134 L 29.485 128.492 L 28.212 128.492 L 28.212 111.763 L 25.877 111.763 L 25.877 111.874 L 23.707 111.874 L 23.707 111.807 L 18.652 111.807 L 18.652 109.023 L 23.707 109.023 L 23.707 103.431 L 19.928 103.431 L 19.928 103.474 L 18.288 103.474 L 18.288 90.507 Z" style="fill: rgb(41, 65, 31); transform-origin: 26.161px 109.499px;" transform="matrix(0.862278, 0.506435, -0.506435, 0.862278, -0.000003, -0.000002)"/>
  <g transform="matrix(0.618099, 0, 0, 0.656317, -200.701401, -8.24649)" style="">
    <ellipse style="stroke: rgb(0, 0, 0); paint-order: fill; fill: rgb(24, 24, 24); filter: url(&quot;#filter-5&quot;);" cx="395.243" cy="42.745" rx="27.597" ry="27.247"/>
    <ellipse style="stroke: rgb(0, 0, 0); paint-order: fill; fill: rgb(12, 221, 255); filter: url(&quot;#filter-6&quot;);" cx="395.146" cy="42.816" rx="23.03" ry="22.622"/>
    <ellipse style="paint-order: fill; fill: rgb(70, 229, 255); filter: url(&quot;#filter-7&quot;);" cx="393.333" cy="40.179" rx="18.909" ry="18.337"/>
    <ellipse style="paint-order: fill; fill: rgb(119, 236, 255); filter: url(&quot;#filter-8&quot;);" cx="389.377" cy="38.366" rx="14.953" ry="15.205"/>
    <ellipse style="paint-order: fill; fill: rgb(213, 249, 255); filter: url(&quot;#filter-9&quot;);" cx="385.914" cy="33.75" rx="8.853" ry="8.941"/>
  </g>
  <ellipse style="stroke: rgb(0, 0, 0); fill: rgb(37, 66, 29);" cx="44.667" cy="126.525" rx="2.889" ry="2.889"/>
  <ellipse style="stroke: rgb(0, 0, 0); fill: rgb(37, 66, 29);" cx="79.313" cy="136.514" rx="2.889" ry="2.889"/>
  <ellipse style="stroke: rgb(0, 0, 0); fill: rgb(37, 66, 29);" cx="110.924" cy="143.974" rx="2.889" ry="2.889"/>
  <ellipse style="fill: rgb(255, 255, 255);" cx="95.727" cy="103.696" rx="5.379" ry="5.954"/>
</svg>