<?xml version="1.0" encoding="utf-8"?>
<svg xmlns="http://www.w3.org/2000/svg" viewBox="0 0 800 500" xmlns:bx="https://boxy-svg.com">
  <defs>
    <linearGradient gradientUnits="userSpaceOnUse" x1="-81.325" y1="291.443" x2="-81.325" y2="396.147" id="gradient-41" gradientTransform="matrix(0.999847, -0.01643, 0.012642, 0.677356, 463.250006, 102.30717)">
      <stop offset="0" style="stop-color: rgb(217, 0, 0);"/>
      <stop offset="1" style="stop-color: rgb(76, 0, 0);"/>
    </linearGradient>
    <linearGradient gradientUnits="userSpaceOnUse" x1="-164.28" y1="7.906" x2="-164.28" y2="66.595" id="gradient-48" gradientTransform="matrix(1, 0, 0, 0.938329, 466.947006, 27.584834)">
      <stop offset="0" style="stop-color: rgb(100% 50.196% 0%)"/>
      <stop offset="1" style="stop-color: rgb(65.966% 22.808% 0%)"/>
    </linearGradient>
    <linearGradient gradientUnits="userSpaceOnUse" x1="6.22" y1="7.579" x2="6.22" y2="66.268" id="gradient-49" gradientTransform="matrix(1, 0, 0, 0.938329, 466.947006, 27.584834)">
      <stop offset="0" style="stop-color: rgb(100% 50.196% 0%)"/>
      <stop offset="1" style="stop-color: rgb(65.966% 22.808% 0%)"/>
    </linearGradient>
    <linearGradient gradientUnits="userSpaceOnUse" x1="-81.403" y1="0.572" x2="-81.403" y2="83.37" id="gradient-50" gradientTransform="matrix(1, 0, 0, 0.938329, 465.301006, 26.040344)">
      <stop offset="0" style="stop-color: rgb(100% 55.686% 0%)"/>
      <stop offset="1" style="stop-color: rgb(64.89% 27.596% 0%)"/>
    </linearGradient>
    <radialGradient gradientUnits="userSpaceOnUse" cx="-113.79" cy="148.183" r="10.506" id="gradient-54" gradientTransform="matrix(1, 0, 0, 0.938329, 464.643006, 26.503879)">
      <stop offset="0" style="stop-color: rgb(100% 89.02% 0%)"/>
      <stop offset="1" style="stop-color: rgb(57.219% 50.942% 0%)"/>
    </radialGradient>
    <radialGradient gradientUnits="userSpaceOnUse" cx="-76.634" cy="153.079" r="10.783" id="gradient-55" gradientTransform="matrix(1, 0, 0, 0.938329, 464.643006, 26.503879)">
      <stop offset="0" style="stop-color: rgb(100% 89.02% 0%)"/>
      <stop offset="1" style="stop-color: rgb(57.219% 50.942% 0%)"/>
    </radialGradient>
    <radialGradient gradientUnits="userSpaceOnUse" cx="-42.651" cy="150.215" r="10.783" id="gradient-56" gradientTransform="matrix(1, 0, 0, 0.938329, 464.643006, 26.503879)">
      <stop offset="0" style="stop-color: rgb(100% 89.02% 0%)"/>
      <stop offset="1" style="stop-color: rgb(57.219% 50.942% 0%)"/>
    </radialGradient>
    <radialGradient gradientUnits="userSpaceOnUse" cx="-113.79" cy="148.183" r="10.506" id="gradient-51" gradientTransform="matrix(1, 0, 0, 0.938329, 463.491006, 72.443721)">
      <stop offset="0" style="stop-color: rgb(100% 89.02% 0%)"/>
      <stop offset="1" style="stop-color: rgb(57.219% 50.942% 0%)"/>
    </radialGradient>
    <radialGradient gradientUnits="userSpaceOnUse" cx="-76.634" cy="153.079" r="10.783" id="gradient-52" gradientTransform="matrix(1, 0, 0, 0.938329, 463.491006, 72.443721)">
      <stop offset="0" style="stop-color: rgb(100% 89.02% 0%)"/>
      <stop offset="1" style="stop-color: rgb(57.219% 50.942% 0%)"/>
    </radialGradient>
    <radialGradient gradientUnits="userSpaceOnUse" cx="-42.651" cy="150.215" r="10.783" id="gradient-53" gradientTransform="matrix(1, 0, 0, 0.938329, 463.491006, 72.443721)">
      <stop offset="0" style="stop-color: rgb(100% 89.02% 0%)"/>
      <stop offset="1" style="stop-color: rgb(57.219% 50.942% 0%)"/>
    </radialGradient>
    <radialGradient gradientUnits="userSpaceOnUse" cx="-113.79" cy="148.183" r="10.506" id="gradient-57" gradientTransform="matrix(1, 0, 0, 0.938329, 462.339006, 121.626053)">
      <stop offset="0" style="stop-color: rgb(100% 89.02% 0%)"/>
      <stop offset="1" style="stop-color: rgb(57.219% 50.942% 0%)"/>
    </radialGradient>
    <radialGradient gradientUnits="userSpaceOnUse" cx="-76.634" cy="153.079" r="10.783" id="gradient-58" gradientTransform="matrix(1, 0, 0, 0.938329, 462.339006, 121.626053)">
      <stop offset="0" style="stop-color: rgb(100% 89.02% 0%)"/>
      <stop offset="1" style="stop-color: rgb(57.219% 50.942% 0%)"/>
    </radialGradient>
    <radialGradient gradientUnits="userSpaceOnUse" cx="-42.651" cy="150.215" r="10.783" id="gradient-59" gradientTransform="matrix(1, 0, 0, 0.938329, 462.339006, 121.626053)">
      <stop offset="0" style="stop-color: rgb(100% 89.02% 0%)"/>
      <stop offset="1" style="stop-color: rgb(57.219% 50.942% 0%)"/>
    </radialGradient>
    <radialGradient gradientUnits="userSpaceOnUse" cx="-80.454" cy="143.978" r="89.186" id="gradient-60" gradientTransform="matrix(1.49967, 0.015501, -0.025126, 2.140225, 510.765006, -144.214874)">
      <stop offset="0" style="stop-color: rgb(65.882% 10.98% 10.98%)"/>
      <stop offset="1" style="stop-color: rgb(88, 0, 0);"/>
    </radialGradient>
    <radialGradient gradientUnits="userSpaceOnUse" cx="-76.634" cy="153.079" r="10.783" id="gradient-1" gradientTransform="matrix(4.61864, 0, 0, 0.401801, 741.9, 261.672)">
      <stop offset="0" style="stop-color: rgb(100% 89.02% 0%)"/>
      <stop offset="1" style="stop-color: rgb(57.219% 50.942% 0%)"/>
    </radialGradient>
  </defs>
  <rect x="463.147" y="73.623" width="18.622" height="399.893" style="stroke-width: 7px; fill: rgb(76, 0, 0); stroke: rgb(32, 2, 2);"/>
  <rect x="292.477" y="79.967" width="19.925" height="393.781" style="stroke-width: 7px; fill: rgb(76, 0, 0); stroke: rgb(32, 2, 2);"/>
  <rect x="264.477" y="301.054" width="242.29" height="98.247" style="stroke-width: 7px; fill: url(&quot;#gradient-41&quot;); stroke: rgb(32, 2, 2);" rx="35.478" ry="35.478"/>
  <rect x="-193.86" y="145.913" width="35.483" height="38.648" style="stroke-width: 7px; fill: rgb(168, 28, 28); stroke: rgb(32, 2, 2);" transform="matrix(1, 0, -0.378742, 1, 517.996, 153.161)"/>
  <rect x="253.807" y="339.609" width="34.414" height="157.907" style="stroke-width: 7px; fill: rgb(76, 0, 0); stroke: rgb(32, 2, 2);"/>
  <rect x="193.86" y="-145.91" width="35.483" height="38.648" style="stroke-width: 7px; fill: rgb(168, 28, 28); stroke: rgb(32, 2, 2);" transform="matrix(-1, 0, 0.378742, 1, 754.711736, 448.577319)"/>
  <rect x="-520.65" y="339.199" width="34.414" height="157.907" style="stroke-width: 7px; fill: rgb(76, 0, 0); stroke: rgb(32, 2, 2);" transform="matrix(-1, 0, 0, 1, 0, 0)"/>
  <path d="M 378.658 9.244 C 382.207 5.926 385.757 5.926 389.306 9.244 L 445.215 61.503 C 448.765 64.821 448.765 68.139 445.215 71.457 L 415.682 99.062 C 450.109 129.541 474.766 211.605 474.766 308.056 C 474.766 310.293 474.752 312.521 474.727 314.743 C 461.947 301.861 324.597 292.666 297.407 318.612 C 297.347 315.114 297.307 311.594 297.307 308.056 C 297.307 213.548 320.977 132.855 354.317 100.968 L 322.747 71.457 C 319.197 68.139 319.197 64.821 322.747 61.503 L 378.658 9.244 Z" style="stroke-width: 7px; stroke: rgb(32, 2, 2); fill: url(&quot;#gradient-60&quot;);"/>
  <path d="M 319.486 79.807 C 319.486 85.477 311.956 90.073 302.667 90.073 C 293.378 90.073 285.848 85.477 285.848 79.807 C 285.848 76.367 288.62 73.322 292.874 71.459 C 292.764 70.985 292.706 70.498 292.706 70 C 292.706 66.348 295.808 63.259 300.077 62.237 L 296.527 53.329 C 296.152 52.389 296.152 51.449 296.527 50.51 L 302.425 35.708 C 302.8 34.769 303.174 34.769 303.549 35.708 L 309.447 50.51 C 309.822 51.449 309.822 52.389 309.447 53.329 L 305.925 62.167 C 310.354 63.11 313.608 66.26 313.608 70 C 313.608 70.643 313.512 71.268 313.331 71.867 C 317.089 73.75 319.486 76.607 319.486 79.807 Z" style="stroke-width: 7px; stroke: rgb(32, 2, 2); fill: url(&quot;#gradient-48&quot;);"/>
  <path d="M 489.986 79.5 C 489.986 85.17 482.456 89.766 473.167 89.766 C 463.878 89.766 456.348 85.17 456.348 79.5 C 456.348 76.06 459.12 73.015 463.374 71.152 C 463.264 70.678 463.206 70.191 463.206 69.693 C 463.206 66.041 466.308 62.952 470.577 61.93 L 467.027 53.022 C 466.652 52.083 466.652 51.142 467.027 50.203 L 472.925 35.401 C 473.3 34.462 473.674 34.462 474.049 35.401 L 479.947 50.203 C 480.322 51.142 480.322 52.083 479.947 53.022 L 476.425 61.86 C 480.854 62.803 484.108 65.953 484.108 69.693 C 484.108 70.336 484.012 70.961 483.831 71.56 C 487.589 73.443 489.986 76.3 489.986 79.5 Z" style="stroke-width: 7px; stroke: rgb(32, 2, 2); fill: url(&quot;#gradient-49&quot;);"/>
  <path d="M 380.277 28.196 C 382.691 26.037 385.105 26.037 387.519 28.196 L 406.204 44.9 C 405.002 44.758 403.731 44.682 402.418 44.682 C 394.82 44.682 388.661 47.221 388.661 50.352 C 388.661 53.484 394.82 56.023 402.418 56.023 C 407.978 56.023 412.768 54.663 414.937 52.707 L 425.541 62.186 C 427.955 64.344 427.955 66.502 425.541 68.66 L 387.519 102.65 C 385.105 104.808 382.691 104.808 380.277 102.65 L 342.255 68.66 C 339.841 66.502 339.841 64.344 342.255 62.186 L 354.984 50.807 C 355.214 54.239 360.994 56.987 368.091 56.987 C 375.334 56.987 381.205 54.124 381.205 50.594 C 381.205 47.063 375.334 44.2 368.091 44.2 C 365.631 44.2 363.33 44.53 361.363 45.104 L 380.277 28.196 Z M 384.419 77.978 C 374.123 77.978 365.777 81.489 365.777 85.819 C 365.777 90.15 374.123 93.661 384.419 93.661 C 394.715 93.661 403.061 90.15 403.061 85.819 C 403.061 81.489 394.715 77.978 384.419 77.978 Z" style="stroke-width: 6px; fill: url(&quot;#gradient-50&quot;); stroke: rgb(53, 0, 0);"/>
  <path d="M 349.981 155.852 Q 350.857 155.009 351.733 155.852 L 360.925 164.705 Q 361.801 165.548 360.925 166.391 L 351.733 175.244 Q 350.857 176.087 349.981 175.244 L 340.789 166.391 Q 339.913 165.548 340.789 164.705 Z" bx:shape="n-gon 350.857 165.548 10.944 10.539 4 0.08 1@40cf8316" style="stroke-width: 4px; fill: url(&quot;#gradient-54&quot;); stroke: rgb(94, 0, 0);"/>
  <path d="M 387.11 158.705 Q 388.009 157.711 388.908 158.705 L 398.342 169.148 Q 399.241 170.142 398.342 171.136 L 388.908 181.579 Q 388.009 182.573 387.11 181.579 L 377.676 171.136 Q 376.777 170.142 377.676 169.148 Z" bx:shape="n-gon 388.009 170.142 11.232 12.431 4 0.08 1@00dc5085" style="stroke-width: 4px; fill: url(&quot;#gradient-55&quot;); stroke: rgb(94, 0, 0);"/>
  <path d="M 421.093 155.77 Q 421.992 154.754 422.891 155.77 L 432.325 166.439 Q 433.224 167.455 432.325 168.471 L 422.891 179.14 Q 421.992 180.156 421.093 179.14 L 411.659 168.471 Q 410.76 167.455 411.659 166.439 Z" bx:shape="n-gon 421.992 167.455 11.232 12.701 4 0.08 1@57e8ef4f" style="stroke-width: 4px; fill: url(&quot;#gradient-56&quot;); stroke: rgb(94, 0, 0);"/>
  <path d="M 348.831 201.792 Q 349.707 200.949 350.583 201.792 L 359.775 210.645 Q 360.651 211.488 359.775 212.331 L 350.583 221.184 Q 349.707 222.027 348.831 221.184 L 339.639 212.331 Q 338.763 211.488 339.639 210.645 Z" bx:shape="n-gon 349.707 211.488 10.944 10.539 4 0.08 1@4c013f43" style="stroke-width: 4px; stroke: rgb(94, 0, 0); fill: url(&quot;#gradient-51&quot;);"/>
  <path d="M 385.958 204.645 Q 386.857 203.651 387.756 204.645 L 397.19 215.088 Q 398.089 216.082 397.19 217.076 L 387.756 227.519 Q 386.857 228.513 385.958 227.519 L 376.524 217.076 Q 375.625 216.082 376.524 215.088 Z" bx:shape="n-gon 386.857 216.082 11.232 12.431 4 0.08 1@21380eda" style="stroke-width: 4px; stroke: rgb(94, 0, 0); fill: url(&quot;#gradient-52&quot;);"/>
  <path d="M 419.941 201.71 Q 420.84 200.694 421.739 201.71 L 431.173 212.379 Q 432.072 213.395 431.173 214.411 L 421.739 225.08 Q 420.84 226.096 419.941 225.08 L 410.507 214.411 Q 409.608 213.395 410.507 212.379 Z" bx:shape="n-gon 420.84 213.395 11.232 12.701 4 0.08 1@8c456eb9" style="stroke-width: 4px; stroke: rgb(94, 0, 0); fill: url(&quot;#gradient-53&quot;);"/>
  <path d="M 347.681 250.974 Q 348.557 250.131 349.433 250.974 L 358.625 259.827 Q 359.501 260.67 358.625 261.513 L 349.433 270.366 Q 348.557 271.209 347.681 270.366 L 338.489 261.513 Q 337.613 260.67 338.489 259.827 Z" bx:shape="n-gon 348.557 260.67 10.944 10.539 4 0.08 1@c2c1f1ef" style="stroke-width: 4px; stroke: rgb(94, 0, 0); fill: url(&quot;#gradient-57&quot;);"/>
  <path d="M 384.806 253.827 Q 385.705 252.833 386.604 253.827 L 396.038 264.27 Q 396.937 265.264 396.038 266.258 L 386.604 276.701 Q 385.705 277.695 384.806 276.701 L 375.372 266.258 Q 374.473 265.264 375.372 264.27 Z" bx:shape="n-gon 385.705 265.264 11.232 12.431 4 0.08 1@2d80381c" style="stroke-width: 4px; stroke: rgb(94, 0, 0); fill: url(&quot;#gradient-58&quot;);"/>
  <path d="M 418.789 250.892 Q 419.688 249.876 420.587 250.892 L 430.021 261.561 Q 430.92 262.577 430.021 263.593 L 420.587 274.262 Q 419.688 275.278 418.789 274.262 L 409.355 263.593 Q 408.456 262.577 409.355 261.561 Z" bx:shape="n-gon 419.688 262.577 11.232 12.701 4 0.08 1@7410382c" style="stroke-width: 4px; stroke: rgb(94, 0, 0); fill: url(&quot;#gradient-59&quot;);"/>
  <path d="M 383.804 318.282 Q 387.954 317.856 392.104 318.282 L 435.681 322.753 Q 439.831 323.179 435.681 323.605 L 392.104 328.076 Q 387.954 328.502 383.804 328.076 L 340.227 323.605 Q 336.077 323.179 340.227 322.753 Z" bx:shape="n-gon 387.954 323.179 51.877 5.323 4 0.08 1@ee24130f" style="stroke-width: 4px; stroke: rgb(94, 0, 0); fill: url(&quot;#gradient-1&quot;);"/>
</svg>