<?xml version="1.0" encoding="utf-8"?>
<svg xmlns="http://www.w3.org/2000/svg" viewBox="0 0 800 800">
  <defs>
    <linearGradient gradientUnits="userSpaceOnUse" x1="398.543" y1="-3.195" x2="398.543" y2="803.707" id="gradient-0">
      <stop offset="0" style="stop-color: rgb(11.373% 13.725% 27.843%)"/>
      <stop offset="1" style="stop-color: rgb(5.9247% 9.1059% 22.531%)"/>
    </linearGradient>
  </defs>
  <rect x="-3.646" y="-3.195" width="804.377" height="806.902" rx="3" ry="3" style="fill: url(&quot;#gradient-0&quot;);"/>
  <path d="M 122.095 179.604 C 122.095 181.365 121.551 183.036 120.575 184.54 C 120.257 184.498 119.931 184.477 119.598 184.477 L 91.418 184.477 C 90.886 184.477 90.37 184.532 89.879 184.635 C 88.864 183.107 88.297 181.402 88.297 179.604 C 88.297 173.036 95.863 167.712 105.196 167.712 C 114.529 167.712 122.095 173.036 122.095 179.604 Z" style="fill: rgb(216, 216, 216); stroke: rgb(0, 0, 0);"/>
  <path d="M 138.897 189.101 C 138.897 190.862 138.353 192.533 137.377 194.037 C 137.059 193.995 136.733 193.974 136.4 193.974 L 108.22 193.974 C 107.688 193.974 107.172 194.029 106.681 194.132 C 105.666 192.604 105.099 190.899 105.099 189.101 C 105.099 182.533 112.665 177.209 121.998 177.209 C 131.331 177.209 138.897 182.533 138.897 189.101 Z" style="fill: rgb(216, 216, 216); stroke: rgb(0, 0, 0);"/>
</svg>