<?xml version="1.0" encoding="utf-8"?>
<svg xmlns="http://www.w3.org/2000/svg" viewBox="0 0 600 400" xmlns:bx="https://boxy-svg.com">
  <path style="stroke: rgb(0, 0, 0); fill: rgb(99, 30, 30);" d="M -0.363 203.927 L -3.444 401.97 L 319.217 404.195 L 197.545 330.022 L 109.757 326.312 L 51.232 236.563 L -0.363 203.927 Z"/>
  <rect x="172.334" y="171.429" width="12.677" height="131.368" style="fill: rgb(216, 216, 216); stroke: rgb(66, 66, 66);"/>
  <path style="stroke: rgb(0, 0, 0); fill: rgb(91, 159, 69);" d="M 79.228 125.679 L 218.085 197.114 L 341.691 194.706 L 545.562 265.338 L 599.338 267.746 L 599.338 94.376 L 428.376 87.955 L 399.481 95.981 L 356.941 91.968 L 129.794 91.165 L 7.793 105.613 L 79.228 125.679 Z"/>
  <text style="fill: rgb(51, 51, 51); font-family: &quot;Snowburst One&quot;; font-size: 28px; letter-spacing: -3.2px; white-space: pre;" transform="matrix(1, 0, 0, 1, 57.333252, 0.868686)"><tspan x="219.363" y="312.713" dy="1em">​</tspan><tspan style="baseline-shift: sub;">UnderWorld</tspan></text>
  <defs>
    <style bx:fonts="Snowburst One">@import url(https://fonts.googleapis.com/css2?family=Snowburst+One%3Aital%2Cwght%400%2C400&amp;display=swap);</style>
    <linearGradient gradientUnits="userSpaceOnUse" x1="72.85" y1="240.05" x2="72.85" y2="373.001" id="gradient-0" gradientTransform="matrix(1, 0, 0, 1, 9.810873, 19.01208)">
      <stop offset="0" style="stop-color: rgb(39.608% 21.569% 17.647%)"/>
      <stop offset="1" style="stop-color: rgb(28.116% 11.498% 8.3133%)"/>
    </linearGradient>
  </defs>
  <text style="fill: rgb(51, 51, 51); font-family: &quot;Snowburst One&quot;; font-size: 28px; letter-spacing: -3.2px; white-space: pre;" transform="matrix(1, 0, 0, 1, -134.491318, -284.694611)" y="312.7130126953125"><tspan x="219.36300659179688" dy="1em">​</tspan><tspan style="baseline-shift: sub;">NormalWorld</tspan></text>
  <path d="M 88.706 336.378 L 123.25 336.378 C 133.417 336.378 141.659 344.62 141.659 354.787 L 141.659 373.195 C 141.659 383.362 133.417 391.604 123.25 391.604 L 88.706 391.604 L 88.706 392.013 L 23.662 392.013 L 23.662 264.839 C 29.989 267.336 41.926 269.02 55.609 269.02 C 70.172 269.02 82.757 267.113 88.706 264.347 L 88.706 336.378 Z" style="stroke: rgb(0, 0, 0); fill: url(&quot;#gradient-0&quot;);"/>
  <g transform="matrix(0.555306, 0, 0, 1, 43.437962, -7.345166)" style="">
    <ellipse style="stroke: rgb(0, 0, 0); fill: rgb(206, 122, 18);" cx="74.723" cy="298.625" rx="12.966" ry="14.223"/>
    <ellipse style="stroke: rgb(0, 0, 0); fill: rgb(132, 18, 18);" cx="74.645" cy="299.254" rx="9.272" ry="10.294"/>
    <path d="M 74.209 295.68 C 74.209 297.525 73.323 297.225 72.054 297.225 C 70.784 297.225 69.611 297.525 69.611 295.68 C 69.611 293.835 70.64 292.339 71.91 292.339 C 73.18 292.339 74.209 293.835 74.209 295.68 Z" style="fill: rgb(59, 9, 9);"/>
    <ellipse style="fill: rgb(59, 9, 9);" cx="78.017" cy="295.68" rx="2.299" ry="3.341"/>
    <ellipse style="fill: rgb(59, 9, 9);" cx="74.712" cy="303.547" rx="3.951" ry="1.724"/>
    <ellipse style="fill: rgb(59, 9, 9);" cx="76.975" cy="304.158" rx="1.975" ry="1.76"/>
  </g>
  <g transform="matrix(0.555306, 0, 0, 1, 43.788284, 30.6758)" style="">
    <ellipse style="stroke: rgb(0, 0, 0); fill: rgb(206, 122, 18);" cx="74.723" cy="298.625" rx="12.966" ry="14.223"/>
    <ellipse style="stroke: rgb(0, 0, 0); fill: rgb(132, 18, 18);" cx="74.645" cy="299.254" rx="9.272" ry="10.294"/>
    <path d="M 74.209 295.68 C 74.209 297.525 73.323 297.225 72.054 297.225 C 70.784 297.225 69.611 297.525 69.611 295.68 C 69.611 293.835 70.64 292.339 71.91 292.339 C 73.18 292.339 74.209 293.835 74.209 295.68 Z" style="fill: rgb(59, 9, 9);"/>
    <ellipse style="fill: rgb(59, 9, 9);" cx="78.017" cy="295.68" rx="2.299" ry="3.341"/>
    <ellipse style="fill: rgb(59, 9, 9);" cx="74.712" cy="303.547" rx="3.951" ry="1.724"/>
    <ellipse style="fill: rgb(59, 9, 9);" cx="76.975" cy="304.158" rx="1.975" ry="1.76"/>
  </g>
  <text style="fill: rgb(255, 255, 255); font-family: &quot;Snowburst One&quot;; font-size: 28px; letter-spacing: -3.2px; white-space: pre;" transform="matrix(0.933972, 0, 0, 0.9, 2.639856, 35.043617)" x="39.981" y="379.494">DirtyBoots</text>
  <rect x="144.743" y="285.709" width="57.833" height="50.507" rx="9" ry="9" style="fill: rgb(216, 216, 216); stroke: rgb(0, 0, 0);"/>
  <text style="fill: rgb(51, 51, 51); font-family: &quot;Snowburst One&quot;; font-size: 28px; letter-spacing: -3.2px; white-space: pre;" x="206.041" y="293.681">DeepWeb</text>
</svg>