<?xml version="1.0" encoding="utf-8"?>
<svg xmlns="http://www.w3.org/2000/svg" viewBox="0 0 120 200" xmlns:bx="https://boxy-svg.com">
  <defs>
    <linearGradient gradientUnits="userSpaceOnUse" x1="-15.293" y1="205.562" x2="-15.293" y2="236.175" id="gradient-0">
      <stop offset="0" style="stop-color: rgb(17.647% 33.333% 5.4902%)"/>
      <stop offset="1" style="stop-color: rgb(6.2233% 21.489% 0%)"/>
    </linearGradient>
    <radialGradient gradientUnits="userSpaceOnUse" cx="-19.949" cy="234.377" r="14.599" id="gradient-3" gradientTransform="matrix(1, 0, 0, 1, -0.846299, -2.962048)">
      <stop offset="0" style="stop-color: rgb(17.647% 33.333% 5.4902%)"/>
      <stop offset="1" style="stop-color: rgb(6.2233% 21.489% 0%)"/>
    </radialGradient>
    <linearGradient gradientUnits="userSpaceOnUse" x1="-15.293" y1="205.562" x2="-15.293" y2="236.175" id="gradient-1">
      <stop offset="0" style="stop-color: rgb(17.647% 33.333% 5.4902%)"/>
      <stop offset="1" style="stop-color: rgb(6.2233% 21.489% 0%)"/>
    </linearGradient>
    <radialGradient gradientUnits="userSpaceOnUse" cx="-19.949" cy="234.377" r="14.599" id="gradient-4" gradientTransform="matrix(1, 0, 0, 1, -0.846299, -2.962048)">
      <stop offset="0" style="stop-color: rgb(17.647% 33.333% 5.4902%)"/>
      <stop offset="1" style="stop-color: rgb(6.2233% 21.489% 0%)"/>
    </radialGradient>
    <radialGradient gradientUnits="userSpaceOnUse" cx="120.764" cy="91.883" r="7.98" id="gradient-5" gradientTransform="matrix(1.000001, 0, 0, 1, -0.000065, 0.000045)">
      <stop offset="0" style="stop-color: rgb(100% 44.314% 0%)"/>
      <stop offset="1" style="stop-color: rgb(67.01% 16.877% 0%)"/>
    </radialGradient>
    <radialGradient gradientUnits="userSpaceOnUse" cx="120.764" cy="91.883" r="7.98" id="gradient-6" gradientTransform="matrix(1.000001, 0, 0, 1, -0.000065, 0.000045)">
      <stop offset="0" style="stop-color: rgb(100% 44.314% 0%)"/>
      <stop offset="1" style="stop-color: rgb(67.01% 16.877% 0%)"/>
    </radialGradient>
    <radialGradient gradientUnits="userSpaceOnUse" cx="120.764" cy="91.883" r="7.98" id="gradient-7" gradientTransform="matrix(1.000001, 0, 0, 1, -0.000065, 0.000045)">
      <stop offset="0" style="stop-color: rgb(100% 44.314% 0%)"/>
      <stop offset="1" style="stop-color: rgb(67.01% 16.877% 0%)"/>
    </radialGradient>
    <radialGradient gradientUnits="userSpaceOnUse" cx="58.145" cy="17.657" r="37.854" id="gradient-8" gradientTransform="matrix(0.92097, 0, 0, 0.973719, 4.11337, 0.494715)">
      <stop offset="0" style="stop-color: rgb(16.863% 44.706% 10.98%)"/>
      <stop offset="1" style="stop-color: rgb(0% 28.304% 0%)"/>
    </radialGradient>
    <radialGradient gradientUnits="userSpaceOnUse" cx="120.764" cy="91.883" r="7.98" id="gradient-9" gradientTransform="matrix(1.000001, 0, 0, 1, -0.000065, 0.000045)">
      <stop offset="0" style="stop-color: rgb(100% 44.314% 0%)"/>
      <stop offset="1" style="stop-color: rgb(67.01% 16.877% 0%)"/>
    </radialGradient>
    <linearGradient gradientUnits="userSpaceOnUse" x1="61.863" y1="66.122" x2="61.863" y2="143.128" id="gradient-10">
      <stop offset="0" style="stop-color: rgb(12.549% 28.235% 3.1373%)"/>
      <stop offset="1" style="stop-color: rgb(5.541% 18.289% 0%)"/>
    </linearGradient>
    <linearGradient gradientUnits="userSpaceOnUse" x1="79.435" y1="93.304" x2="79.435" y2="97.284" id="gradient-11">
      <stop offset="0" style="stop-color: rgb(12.549% 28.235% 3.1373%)"/>
      <stop offset="1" style="stop-color: rgb(5.541% 18.289% 0%)"/>
    </linearGradient>
    <linearGradient gradientUnits="userSpaceOnUse" x1="72.668" y1="98.677" x2="72.668" y2="102.259" id="gradient-12">
      <stop offset="0" style="stop-color: rgb(12.549% 28.235% 3.1373%)"/>
      <stop offset="1" style="stop-color: rgb(5.541% 18.289% 0%)"/>
    </linearGradient>
    <linearGradient gradientUnits="userSpaceOnUse" x1="70.479" y1="92.507" x2="70.479" y2="95.891" id="gradient-13">
      <stop offset="0" style="stop-color: rgb(12.549% 28.235% 3.1373%)"/>
      <stop offset="1" style="stop-color: rgb(5.541% 18.289% 0%)"/>
    </linearGradient>
    <linearGradient gradientUnits="userSpaceOnUse" x1="64.608" y1="103.055" x2="64.608" y2="106.637" id="gradient-14">
      <stop offset="0" style="stop-color: rgb(12.549% 28.235% 3.1373%)"/>
      <stop offset="1" style="stop-color: rgb(5.541% 18.289% 0%)"/>
    </linearGradient>
    <linearGradient gradientUnits="userSpaceOnUse" x1="-38.987" y1="86.28" x2="-38.987" y2="115.382" id="gradient-15" gradientTransform="matrix(1, 0, 0, 0.890111, 90.63728, -68.447499)">
      <stop offset="0" style="stop-color: rgb(92.549% 18.039% 0%)"/>
      <stop offset="1" style="stop-color: rgb(62.689% 0% 0%)"/>
    </linearGradient>
  </defs>
  <path d="M 110.453 100.088 C 110.453 77.392 101.765 68.456 89.44 68.997 C 77.114 69.537 66.799 77.392 66.799 100.088 C 66.799 122.784 78.741 179.575 90.795 179.575 C 102.849 179.575 110.453 122.784 110.453 100.088 Z" style="stroke: rgb(29, 78, 65); stroke-width: 4px; fill: rgb(73, 153, 116); transform-origin: 88.626px 124.274px;" transform="matrix(-0.984484, 0.175472, -0.175472, -0.984484, 0.000015, -0.000013)"/>
  <g>
    <rect x="21.029" y="38.004" width="7.125" height="35.249" style="fill: rgb(6, 78, 4); stroke: rgb(12, 27, 4);"/>
    <rect x="18.553" y="69.601" width="11.707" height="10.316" rx="3" ry="3" style="fill: rgb(37, 108, 24); stroke: rgb(12, 27, 4);"/>
    <rect x="20.764" y="71.992" width="7.418" height="5.332" rx="3" ry="3" style="fill: rgb(255, 149, 0); stroke: rgb(12, 27, 4);"/>
  </g>
  <path d="M 54.991 145.67 C 54.991 168.366 46.303 177.302 33.978 176.761 C 21.652 176.221 11.337 168.366 11.337 145.67 C 11.337 122.974 23.279 66.183 35.333 66.183 C 47.387 66.183 54.991 122.974 54.991 145.67 Z" style="stroke: rgb(29, 78, 65); stroke-width: 4px; transform-box: fill-box; transform-origin: 50% 50%; fill: rgb(73, 153, 116);" transform="matrix(0.984484, 0.175472, -0.175472, 0.984484, 0, 0.000001)"/>
  <path d="M 87.49 134.79 C 87.49 152.833 74.164 178.881 57.725 178.881 C 41.286 178.881 27.959 152.833 27.959 134.79 C 27.959 116.744 41.286 102.117 57.725 102.117 C 74.164 102.117 87.49 116.744 87.49 134.79 Z" style="fill: rgb(72, 26, 26); stroke: rgb(44, 18, 18); stroke-width: 3px;"/>
  <path d="M 85.619 127.086 C 85.619 135.163 72.679 145.786 57.128 145.786 C 41.577 145.786 29.303 135.163 29.303 127.086 C 29.303 119.01 41.91 112.463 57.461 112.463 C 73.012 112.463 85.619 119.01 85.619 127.086 Z" style="fill: rgb(44, 18, 18);"/>
  <g transform="matrix(-0.928051, 0.372454, 0.372454, 0.928051, 130.059, 9.13384)" style="transform-origin: -36.017px 113.779px;">
    <rect x="-39.395" y="-139.19" width="6.758" height="38.305" rx="3" ry="3" style="fill: rgb(44, 18, 18); stroke-width: 2px; stroke: rgb(118, 34, 34);" transform="matrix(1, 0, 0, -1, 0, 0)"/>
    <rect x="-40.697" y="-112.07" width="9.966" height="38.305" rx="3" ry="3" style="fill: rgb(44, 18, 18); stroke-width: 2px; stroke: rgb(118, 34, 34);" transform="matrix(1, 0, 0, -1, 0, 0)"/>
    <path d="M -26.43 144.059 C -26.43 144.853 -26.524 145.625 -26.7 146.364 C -27.372 146.088 -28.094 145.938 -28.845 145.938 C -32.442 145.938 -35.358 149.378 -35.358 153.622 C -35.358 153.671 -35.358 153.72 -35.357 153.769 C -35.575 153.784 -35.795 153.792 -36.017 153.792 C -41.312 153.792 -45.604 149.434 -45.604 144.059 C -45.604 138.684 -41.312 134.326 -36.017 134.326 C -30.722 134.326 -26.43 138.684 -26.43 144.059 Z" style="fill: rgb(44, 18, 18); stroke-width: 2px; stroke: rgb(118, 34, 34);"/>
  </g>
  <g transform="matrix(0.982869, 0.184307, -0.184307, 0.982869, 55.8526, 11.077)" style="transform-origin: -36.017px 113.779px;">
    <rect x="-39.395" y="-139.19" width="6.758" height="38.305" rx="3" ry="3" style="fill: rgb(44, 18, 18); stroke-width: 2px; stroke: rgb(118, 34, 34);" transform="matrix(1, 0, 0, -1, 0, 0)"/>
    <rect x="-40.697" y="-112.07" width="9.966" height="38.305" rx="3" ry="3" style="fill: rgb(44, 18, 18); stroke-width: 2px; stroke: rgb(118, 34, 34);" transform="matrix(1, 0, 0, -1, 0, 0)"/>
    <path d="M -26.43 144.059 C -26.43 144.853 -26.524 145.625 -26.7 146.364 C -27.372 146.088 -28.094 145.938 -28.845 145.938 C -32.442 145.938 -35.358 149.378 -35.358 153.622 C -35.358 153.671 -35.358 153.72 -35.357 153.769 C -35.575 153.784 -35.795 153.792 -36.017 153.792 C -41.312 153.792 -45.604 149.434 -45.604 144.059 C -45.604 138.684 -41.312 134.326 -36.017 134.326 C -30.722 134.326 -26.43 138.684 -26.43 144.059 Z" style="fill: rgb(44, 18, 18); stroke-width: 2px; stroke: rgb(118, 34, 34);"/>
  </g>
  <path d="M 95.533 94.853 C 95.533 112.439 78.4 137.827 57.265 137.827 C 36.13 137.827 18.996 112.439 18.996 94.853 C 18.996 77.264 36.13 63.007 57.265 63.007 C 78.4 63.007 95.533 77.264 95.533 94.853 Z" style="fill: rgb(255, 149, 0); stroke: rgb(117, 65, 0); stroke-width: 3px;"/>
  <ellipse style="fill: rgb(88, 49, 0);" cx="57.894" cy="75.536" rx="27.307" ry="15.803"/>
  <path d="M 92.106 40.751 C 92.106 54.831 84.224 73.375 72.778 82.81 C 73.052 83.729 73.212 84.837 73.212 86.031 C 73.212 89.207 72.079 91.781 70.682 91.781 C 69.285 91.781 68.152 89.207 68.152 86.031 C 68.152 86.018 68.152 86.005 68.152 85.993 C 64.838 87.836 61.307 88.891 57.641 88.891 C 53.936 88.891 50.368 87.814 47.023 85.933 C 46.609 89.387 45.172 91.936 43.463 91.936 C 41.431 91.936 39.783 88.331 39.783 83.885 C 39.783 82.731 39.894 81.633 40.094 80.641 C 29.966 70.734 23.175 53.82 23.175 40.751 C 23.175 21.049 38.606 5.078 57.641 5.078 C 76.676 5.078 92.106 21.049 92.106 40.751 Z" style="stroke: rgb(117, 65, 0); stroke-width: 3px; fill: rgb(255, 149, 0);"/>
  <path d="M 89.923 43.028 C 89.923 48.838 74.1 45.567 55.832 45.567 C 37.562 45.567 23.765 48.838 23.765 43.028 C 23.765 37.217 38.575 32.506 56.844 32.506 C 75.113 32.506 89.923 37.217 89.923 43.028 Z" style="fill: rgb(88, 49, 0);"/>
  <rect x="31.716" y="113.106" width="69.979" height="9.824" style="fill: rgb(117, 65, 0); transform-box: fill-box; transform-origin: 50% 50%;" transform="matrix(0.787196, -0.616702, 0.616703, 0.787196, -0.19594, -9.629619)"/>
  <g>
    <path d="M 52.493 66.122 C 53.33 68.862 68.117 68.711 67.48 66.624 L 71.226 140.269 C 71.612 138.37 54.134 142.017 54.204 143.128 L 52.493 66.122 Z" style="transform-box: fill-box; transform-origin: 50% 50%; fill: url(&quot;#gradient-10&quot;); stroke: rgb(10, 22, 3);" transform="matrix(0.551896, 0.833913, -0.833913, 0.551896, 0.000003, 0)"/>
    <ellipse style="fill: url(&quot;#gradient-11&quot;); stroke: rgb(10, 22, 3);" cx="79.435" cy="95.294" rx="1.692" ry="1.99"/>
    <ellipse style="fill: url(&quot;#gradient-12&quot;); stroke: rgb(10, 22, 3);" cx="72.668" cy="100.468" rx="1.692" ry="1.791"/>
    <ellipse style="fill: url(&quot;#gradient-13&quot;); stroke: rgb(10, 22, 3);" cx="70.479" cy="94.199" rx="1.891" ry="1.692"/>
    <ellipse style="fill: url(&quot;#gradient-14&quot;); stroke: rgb(10, 22, 3);" cx="64.608" cy="104.846" rx="1.791" ry="1.791"/>
  </g>
  <g transform="matrix(0.555609, 0.427356, -0.408727, 0.53139, -73.8341, -5.07497)" style="transform-origin: 159.623px 92.7046px;">
    <path d="M 119.956 85.873 Q 120.283 85.619 120.61 85.873 L 126.494 90.45 Q 126.821 90.704 126.696 91.115 L 124.448 98.52 Q 124.323 98.932 123.919 98.932 L 116.647 98.932 Q 116.243 98.932 116.118 98.52 L 113.87 91.115 Q 113.745 90.704 114.072 90.45 Z" bx:shape="n-gon 120.283 92.978 6.874 7.359 5 0.05 1@2a81eef9" style="fill: rgb(255, 0, 0); stroke: rgb(124, 0, 0);" transform="matrix(0.978581476301, -0.205859889832, -0.205860091282, -0.978581433922, 60.710371479402, 207.97702709384)"/>
    <path d="M 120.764 84.288 L 123.021 89.735 L 128.744 91.883 L 123.021 94.031 L 120.764 99.478 L 118.507 94.031 L 112.784 91.883 L 118.507 89.735 Z" bx:shape="star 120.764 91.883 7.98 7.595 0.4 4 1@b0637641" style="stroke: rgb(255, 219, 94); fill: url(&quot;#gradient-5&quot;);" transform="matrix(0.9785814763, -0.205859889832, -0.205860091282, -0.978581433922, 60.360271631348, 207.480026565697)"/>
  </g>
  <g transform="matrix(0.82312, 0, 0, 0.82477, 54.2464, 2.35122)" style="">
    <ellipse style="stroke: rgb(0, 0, 0); fill: rgb(21, 44, 9); stroke-width: 2.42735px;" cx="-15.236" cy="205.799" rx="6.559" ry="2.433"/>
    <rect x="-19.143" y="184.76" width="6.976" height="50.37" rx="3" ry="3" style="fill: rgb(96, 39, 39); stroke: rgb(44, 18, 18); stroke-width: 2.42735px;"/>
    <path d="M -8.523 236.175 L -22.064 236.175 L -22.064 205.562 C -20.464 206.288 -17.771 206.765 -14.717 206.765 C -12.308 206.765 -10.123 206.468 -8.523 205.987 Z" style="stroke: rgb(12, 27, 4); fill: url(&quot;#gradient-0&quot;); stroke-width: 2.42735px;"/>
    <rect x="-35.393" y="224.327" width="29.197" height="14.176" style="stroke: rgb(12, 27, 4); fill: url(&quot;#gradient-3&quot;); stroke-width: 2.42735px;" rx="7.088" ry="7.088"/>
  </g>
  <g transform="matrix(0.82312, 0, 0, 0.82477, 83.0458, 2.30035)" style="">
    <ellipse style="stroke: rgb(0, 0, 0); fill: rgb(21, 44, 9); stroke-width: 2.42735px;" cx="-15.236" cy="205.799" rx="6.559" ry="2.433"/>
    <rect x="-19.143" y="184.76" width="6.976" height="50.37" rx="3" ry="3" style="fill: rgb(96, 39, 39); stroke: rgb(44, 18, 18); stroke-width: 2.42735px;"/>
    <path d="M -8.523 236.175 L -22.064 236.175 L -22.064 205.562 C -20.464 206.288 -17.771 206.765 -14.717 206.765 C -12.308 206.765 -10.123 206.468 -8.523 205.987 Z" style="stroke: rgb(12, 27, 4); fill: url(&quot;#gradient-1&quot;); stroke-width: 2.42735px;"/>
    <rect x="-35.393" y="224.327" width="29.197" height="14.176" style="stroke: rgb(12, 27, 4); fill: url(&quot;#gradient-4&quot;); stroke-width: 2.42735px;" rx="7.088" ry="7.088"/>
  </g>
  <g transform="matrix(0.34931, 0.054472, -0.058811, 0.377139, -86.9276, 85.272)" style="transform-origin: 159.623px 92.705px;">
    <path d="M 119.956 85.873 Q 120.283 85.619 120.61 85.873 L 126.494 90.45 Q 126.821 90.704 126.696 91.115 L 124.448 98.52 Q 124.323 98.932 123.919 98.932 L 116.647 98.932 Q 116.243 98.932 116.118 98.52 L 113.87 91.115 Q 113.745 90.704 114.072 90.45 Z" bx:shape="n-gon 120.283 92.978 6.874 7.359 5 0.05 1@2a81eef9" style="fill: rgb(255, 0, 0); stroke: rgb(124, 0, 0); stroke-width: 5.44118px;" transform="matrix(0.978581476301, -0.205859889832, -0.205860091282, -0.978581433922, 60.710371479402, 207.97702709384)"/>
    <path d="M 120.764 84.288 L 123.021 89.735 L 128.744 91.883 L 123.021 94.031 L 120.764 99.478 L 118.507 94.031 L 112.784 91.883 L 118.507 89.735 Z" bx:shape="star 120.764 91.883 7.98 7.595 0.4 4 1@b0637641" style="stroke: rgb(255, 219, 94); fill: url(&quot;#gradient-6&quot;); stroke-width: 5.44118px;" transform="matrix(0.9785814763, -0.205859889832, -0.205860091282, -0.978581433922, 60.360271631348, 207.480026565697)"/>
  </g>
  <g transform="matrix(0.34931, 0.054472, -0.058811, 0.377139, -115.341, 85.0872)" style="transform-origin: 159.623px 92.705px;">
    <path d="M 119.956 85.873 Q 120.283 85.619 120.61 85.873 L 126.494 90.45 Q 126.821 90.704 126.696 91.115 L 124.448 98.52 Q 124.323 98.932 123.919 98.932 L 116.647 98.932 Q 116.243 98.932 116.118 98.52 L 113.87 91.115 Q 113.745 90.704 114.072 90.45 Z" bx:shape="n-gon 120.283 92.978 6.874 7.359 5 0.05 1@2a81eef9" style="fill: rgb(255, 0, 0); stroke: rgb(124, 0, 0); stroke-width: 5.44118px;" transform="matrix(0.978581476301, -0.205859889832, -0.205860091282, -0.978581433922, 60.710371479402, 207.97702709384)"/>
    <path d="M 120.764 84.288 L 123.021 89.735 L 128.744 91.883 L 123.021 94.031 L 120.764 99.478 L 118.507 94.031 L 112.784 91.883 L 118.507 89.735 Z" bx:shape="star 120.764 91.883 7.98 7.595 0.4 4 1@b0637641" style="stroke: rgb(255, 219, 94); fill: url(&quot;#gradient-7&quot;); stroke-width: 5.44118px;" transform="matrix(0.9785814763, -0.205859889832, -0.205860091282, -0.978581433922, 60.360271631348, 207.480026565697)"/>
  </g>
  <g transform="matrix(1.04883, 0, 0, 1.19092, 63.1103, -10.1131)" style="">
    <rect x="21.029" y="38.004" width="7.125" height="35.249" style="fill: rgb(6, 78, 4); stroke: rgb(12, 27, 4);"/>
    <rect x="18.553" y="69.601" width="11.707" height="10.316" rx="3" ry="3" style="fill: rgb(37, 108, 24); stroke: rgb(12, 27, 4);"/>
    <rect x="20.764" y="71.992" width="7.418" height="5.332" rx="3" ry="3" style="fill: rgb(255, 149, 0); stroke: rgb(12, 27, 4);"/>
  </g>
  <path d="M 57.662 0.185 C 73.445 0.185 86.839 13.062 91.579 30.928 L 96.928 30.928 L 96.928 40.095 L 18.797 40.095 L 18.797 30.928 L 23.747 30.928 C 28.484 13.062 41.881 0.185 57.662 0.185 Z" style="fill: url(&quot;#gradient-8&quot;); stroke: rgb(12, 27, 4);"/>
  <g transform="matrix(0.94991, 0.178445, -0.210911, 0.889544, -77.1527, -54.4291)" style="transform-origin: 159.623px 92.705px;">
    <path d="M 119.956 85.873 Q 120.283 85.619 120.61 85.873 L 126.494 90.45 Q 126.821 90.704 126.696 91.115 L 124.448 98.52 Q 124.323 98.932 123.919 98.932 L 116.647 98.932 Q 116.243 98.932 116.118 98.52 L 113.87 91.115 Q 113.745 90.704 114.072 90.45 Z" bx:shape="n-gon 120.283 92.978 6.874 7.359 5 0.05 1@2a81eef9" style="fill: rgb(255, 0, 0); stroke: rgb(124, 0, 0);" transform="matrix(0.978581476301, -0.205859889832, -0.205860091282, -0.978581433922, 60.710371479402, 207.97702709384)"/>
    <path d="M 120.764 84.288 L 123.021 89.735 L 128.744 91.883 L 123.021 94.031 L 120.764 99.478 L 118.507 94.031 L 112.784 91.883 L 118.507 89.735 Z" bx:shape="star 120.764 91.883 7.98 7.595 0.4 4 1@b0637641" style="stroke: rgb(255, 219, 94); fill: url(&quot;#gradient-9&quot;);" transform="matrix(0.9785814763, -0.205859889832, -0.205860091282, -0.978581433922, 60.360271631348, 207.480026565697)"/>
  </g>
  <ellipse style="stroke-width: 2px; stroke: rgb(12, 27, 4); fill: url(&quot;#gradient-15&quot;);" cx="51.65" cy="21.304" rx="14.67" ry="12.952"/>
  <path d="M 44.893 20.278 C 43.083 26.159 50.395 29.336 46.314 29.21 C 42.233 29.082 39.854 26.791 39.854 21.09 C 39.854 15.388 44.192 10.767 49.544 10.767 C 54.896 10.767 46.703 14.396 44.893 20.278 Z" style="fill: rgb(255, 255, 255);"/>
  <path d="M 38.595 45.881 C 41.796 47.503 45.724 52.058 44.192 54.932 C 42.659 57.807 36.246 57.913 33.045 56.291 C 29.843 54.67 25.922 47.949 27.455 45.074 C 28.988 42.2 35.394 44.26 38.595 45.881 Z" style="stroke: rgb(0, 0, 0); transform-origin: 46.546px 57.914px;"/>
  <path d="M 59.415 44.91 C 55.583 46.85 50.809 52.16 52.537 55.402 C 54.265 58.642 61.841 58.587 65.672 56.646 C 69.503 54.706 74.332 46.923 72.604 43.682 C 70.876 40.44 63.245 42.969 59.415 44.91 Z" style="stroke: rgb(0, 0, 0); transform-origin: 76.451px 57.523px;"/>
</svg>