<?xml version="1.0" encoding="utf-8"?>
<svg xmlns="http://www.w3.org/2000/svg" viewBox="100 80 100 80" width="100px" height="80px" xmlns:bx="https://boxy-svg.com">
  <defs>
    <linearGradient gradientUnits="userSpaceOnUse" x1="149.611" y1="137.466" x2="149.611" y2="150.887" id="gradient-4">
      <stop offset="0" style="stop-color: rgb(97.647% 59.608% 0%)"/>
      <stop offset="1" style="stop-color: rgb(62.348% 31.18% 0%)"/>
    </linearGradient>
    <linearGradient gradientUnits="userSpaceOnUse" x1="150.1" y1="90.971" x2="150.1" y2="121.277" id="gradient-5" gradientTransform="matrix(-0.999448, 0.033225, -0.027235, -0.819309, 303.419289, 190.230503)">
      <stop offset="0" style="stop-color: rgb(97.647% 59.608% 0%)"/>
      <stop offset="1" style="stop-color: rgb(62.348% 31.18% 0%)"/>
    </linearGradient>
  </defs>
  <rect x="97.384" y="125.282" width="60.304" height="15.605" rx="3" ry="3" style="stroke-opacity: 0.39; fill: rgba(0, 0, 0, 0.325);" transform="matrix(1, 0, -0.693623, 1, 129.796, 18.5262)"/>
  <path d="M 148.269 81.874 Q 150.23 81.109 152.191 81.874 L 187.497 95.647 Q 189.458 96.413 189.943 98.132 L 198.663 129.08 Q 199.147 130.8 197.79 132.178 L 173.357 156.997 Q 172 158.376 169.823 158.376 L 130.637 158.376 Q 128.46 158.376 127.103 156.997 L 102.67 132.178 Q 101.313 130.8 101.797 129.08 L 110.517 98.132 Q 111.002 96.413 112.963 95.647 Z" bx:shape="n-gon 150.23 121.755 50.175 40.646 7 0.05 1@99df6123" style="stroke-width: 3px; fill: rgb(249, 152, 0); stroke: rgb(81, 70, 0);"/>
  <path style="fill: rgb(216, 216, 216); stroke-width: 3px; stroke: rgb(81, 70, 0);" d="M 102.482 129.251 L 197.537 129.251"/>
  <g transform="matrix(1, 0, 0, 1, 24.9033, -28.8533)">
    <path d="M 124.766 150.503 C 118.45 150.503 113.331 145.557 113.331 139.456 C 113.331 134.282 117.012 129.939 121.98 128.739 C 120.817 130.468 120.14 132.534 120.14 134.752 C 120.14 140.854 125.259 145.799 131.575 145.799 C 132.535 145.799 133.469 145.684 134.36 145.468 C 132.321 148.499 128.785 150.503 124.766 150.503 Z" style="fill: rgb(77, 23, 12); transform-box: fill-box; transform-origin: 50% 50%;" transform="matrix(0.999145, -0.041333, 0.041333, 0.999145, 0, 0)"/>
    <path d="M 132.245 142.463 C 127.938 142.463 124.448 138.809 124.448 134.303 C 124.448 130.481 126.958 127.273 130.345 126.387 C 129.552 127.664 129.091 129.19 129.091 130.828 C 129.091 135.335 132.581 138.988 136.888 138.988 C 137.543 138.988 138.18 138.903 138.787 138.744 C 137.397 140.983 134.986 142.463 132.245 142.463 Z" style="fill: rgb(77, 23, 12); transform-box: fill-box; transform-origin: 50% 50%;" transform="matrix(-0.999793, 0.020351, -0.020351, -0.999793, 0.000012, -0.000003)"/>
    <path d="M 127.302 142.054 C 124.804 142.054 122.78 140.038 122.78 137.551 C 122.78 135.442 124.236 133.671 126.2 133.182 C 125.741 133.887 125.473 134.729 125.473 135.633 C 125.473 138.121 127.497 140.137 129.995 140.137 C 130.375 140.137 130.744 140.09 131.096 140.002 C 130.29 141.237 128.892 142.054 127.302 142.054 Z" style="fill: rgb(77, 23, 12);"/>
    <ellipse style="fill: rgb(77, 23, 12);" cx="129.472" cy="135.709" rx="1.784" ry="1.901"/>
  </g>
  <g transform="matrix(1, 0, 0, 1, 24.9043, -28.8543)">
    <path d="M 124.766 150.503 C 118.45 150.503 113.331 145.557 113.331 139.456 C 113.331 134.282 117.012 129.939 121.98 128.739 C 120.817 130.468 120.14 132.534 120.14 134.752 C 120.14 140.854 125.259 145.799 131.575 145.799 C 132.535 145.799 133.469 145.684 134.36 145.468 C 132.321 148.499 128.785 150.503 124.766 150.503 Z" style="fill: rgb(77, 23, 12); transform-box: fill-box; transform-origin: 50% 50%;" transform="matrix(0.999145, -0.041333, 0.041333, 0.999145, 0, 0)"/>
    <path d="M 132.245 142.463 C 127.938 142.463 124.448 138.809 124.448 134.303 C 124.448 130.481 126.958 127.273 130.345 126.387 C 129.552 127.664 129.091 129.19 129.091 130.828 C 129.091 135.335 132.581 138.988 136.888 138.988 C 137.543 138.988 138.18 138.903 138.787 138.744 C 137.397 140.983 134.986 142.463 132.245 142.463 Z" style="fill: rgb(77, 23, 12); transform-box: fill-box; transform-origin: 50% 50%;" transform="matrix(-0.999793, 0.020351, -0.020351, -0.999793, 0.000012, -0.000003)"/>
    <path d="M 127.302 142.054 C 124.804 142.054 122.78 140.038 122.78 137.551 C 122.78 135.442 124.236 133.671 126.2 133.182 C 125.741 133.887 125.473 134.729 125.473 135.633 C 125.473 138.121 127.497 140.137 129.995 140.137 C 130.375 140.137 130.744 140.09 131.096 140.002 C 130.29 141.237 128.892 142.054 127.302 142.054 Z" style="fill: rgb(77, 23, 12);"/>
    <ellipse style="fill: rgb(77, 23, 12);" cx="129.472" cy="135.709" rx="1.784" ry="1.901"/>
  </g>
  <path d="M 148.414 88.276 C 149.456 87.878 150.5 87.878 151.542 88.276 L 179.712 99.02 C 180.754 99.418 181.405 100.064 181.663 100.958 L 188.38 124.271 L 111.576 124.271 L 118.294 100.958 C 118.551 100.064 119.202 99.418 120.246 99.02 L 148.414 88.276 Z" style="fill: rgb(255, 198, 0); stroke: rgb(81, 70, 0);"/>
  <path d="M 148.795 91.221 C 149.664 90.888 150.536 90.888 151.405 91.221 L 174.908 100.192 C 175.776 100.524 176.32 101.064 176.535 101.81 L 182.139 121.277 L 118.06 121.277 L 123.666 101.81 C 123.88 101.064 124.423 100.524 125.294 100.192 L 148.795 91.221 Z" style="stroke: rgb(81, 70, 0); fill: url(&quot;#gradient-5&quot;);"/>
  <path d="M 185.793 135.473 L 167.525 152.675 C 166.848 153.312 165.967 153.631 164.883 153.631 L 135.584 153.631 C 134.5 153.631 133.619 153.312 132.943 152.675 L 114.675 135.473 C 114.341 135.158 114.118 134.823 114.009 134.471 L 186.459 134.471 C 186.349 134.823 186.126 135.158 185.793 135.473 Z" style="fill: rgb(255, 198, 0); stroke: rgb(81, 70, 0);"/>
  <path d="M 176.965 138.168 L 162.912 150.218 C 162.391 150.664 161.713 150.887 160.879 150.887 L 138.341 150.887 C 137.507 150.887 136.829 150.664 136.309 150.218 L 122.256 138.168 C 121.999 137.947 121.828 137.713 121.744 137.466 L 177.477 137.466 C 177.392 137.713 177.221 137.947 176.965 138.168 Z" style="stroke: rgb(81, 70, 0); fill: url(&quot;#gradient-4&quot;);"/>
  <ellipse style="stroke: rgb(0, 0, 0); fill: rgb(255, 198, 0);" cx="151.117" cy="129.075" rx="11.011" ry="11.1"/>
  <path d="M 153.137 134.576 C 153.137 134.873 153.08 135.095 152.967 135.243 L 151.177 137.574 C 151.064 137.722 150.95 137.722 150.837 137.574 L 149.047 135.243 C 148.934 135.095 148.877 134.873 148.877 134.576 L 148.877 130.964 L 146.4 129.518 C 146.237 129.423 146.155 129.279 146.155 129.088 L 146.155 123.922 C 146.155 123.731 146.237 123.587 146.4 123.492 L 150.825 120.909 C 150.989 120.813 151.153 120.813 151.317 120.909 L 155.742 123.492 C 155.905 123.587 155.987 123.731 155.987 123.922 L 155.987 129.088 C 155.987 129.279 155.905 129.423 155.742 129.518 L 153.137 131.039 L 153.137 134.576 Z" style="fill: rgb(97, 81, 24); stroke: rgb(0, 0, 0);"/>
  <g transform="matrix(0.679619, 0, 0, 0.718163, 64.3523, 6.13699)" style="">
    <path d="M 124.766 150.503 C 118.45 150.503 113.331 145.557 113.331 139.456 C 113.331 134.282 117.012 129.939 121.98 128.739 C 120.817 130.468 120.14 132.534 120.14 134.752 C 120.14 140.854 125.259 145.799 131.575 145.799 C 132.535 145.799 133.469 145.684 134.36 145.468 C 132.321 148.499 128.785 150.503 124.766 150.503 Z" style="transform-box: fill-box; transform-origin: 50% 50%; fill: rgb(255, 212, 62); stroke: rgb(255, 255, 255);" transform="matrix(0.999145, -0.041333, 0.041333, 0.999145, 0, 0)"/>
    <path d="M 132.245 142.463 C 127.938 142.463 124.448 138.809 124.448 134.303 C 124.448 130.481 126.958 127.273 130.345 126.387 C 129.552 127.664 129.091 129.19 129.091 130.828 C 129.091 135.335 132.581 138.988 136.888 138.988 C 137.543 138.988 138.18 138.903 138.787 138.744 C 137.397 140.983 134.986 142.463 132.245 142.463 Z" style="transform-box: fill-box; transform-origin: 50% 50%; fill: rgb(255, 212, 62); stroke: rgb(255, 255, 255);" transform="matrix(-0.999793, 0.020351, -0.020351, -0.999793, 0.000012, -0.000003)"/>
    <path d="M 127.302 142.054 C 124.804 142.054 122.78 140.038 122.78 137.551 C 122.78 135.442 124.236 133.671 126.2 133.182 C 125.741 133.887 125.473 134.729 125.473 135.633 C 125.473 138.121 127.497 140.137 129.995 140.137 C 130.375 140.137 130.744 140.09 131.096 140.002 C 130.29 141.237 128.892 142.054 127.302 142.054 Z" style="fill: rgb(255, 212, 62); stroke: rgb(255, 255, 255);"/>
    <ellipse style="fill: rgb(255, 212, 62); stroke: rgb(255, 255, 255);" cx="129.472" cy="135.709" rx="1.784" ry="1.901"/>
  </g>
  <path d="M 125.048 98.727 Q 125.352 98.541 125.656 98.727 L 128.843 100.682 Q 129.146 100.869 129.146 101.241 L 129.146 105.151 Q 129.146 105.524 128.843 105.71 L 125.656 107.665 Q 125.352 107.851 125.048 107.665 L 121.861 105.71 Q 121.558 105.524 121.558 105.151 L 121.558 101.241 Q 121.558 100.869 121.861 100.682 Z" bx:shape="n-gon 125.352 103.196 4.381 4.655 6 0.08 1@ca59b082" style="fill: none; stroke: rgba(255, 255, 255, 0.384);"/>
  <path d="M 111.669 117.551 Q 111.973 117.365 112.277 117.551 L 115.464 119.506 Q 115.767 119.693 115.767 120.065 L 115.767 123.975 Q 115.767 124.348 115.464 124.534 L 112.277 126.489 Q 111.973 126.675 111.669 126.489 L 108.482 124.534 Q 108.179 124.348 108.179 123.975 L 108.179 120.065 Q 108.179 119.693 108.482 119.506 Z" bx:shape="n-gon 111.973 122.02 4.381 4.655 6 0.08 1@c38f56f6" style="fill: none; stroke: rgba(255, 255, 255, 0.384);"/>
  <path d="M 170.164 103.55 Q 170.468 103.364 170.772 103.55 L 173.959 105.505 Q 174.262 105.692 174.262 106.064 L 174.262 109.974 Q 174.262 110.347 173.959 110.533 L 170.772 112.488 Q 170.468 112.674 170.164 112.488 L 166.977 110.533 Q 166.674 110.347 166.674 109.974 L 166.674 106.064 Q 166.674 105.692 166.977 105.505 Z" bx:shape="n-gon 170.468 108.019 4.381 4.655 6 0.08 1@9dca8e98" style="fill: none; stroke: rgba(255, 255, 255, 0.384);"/>
  <path d="M 182.765 97.327 Q 183.069 97.141 183.373 97.327 L 186.56 99.282 Q 186.863 99.469 186.863 99.841 L 186.863 103.751 Q 186.863 104.124 186.56 104.31 L 183.373 106.265 Q 183.069 106.451 182.765 106.265 L 179.578 104.31 Q 179.275 104.124 179.275 103.751 L 179.275 99.841 Q 179.275 99.469 179.578 99.282 Z" bx:shape="n-gon 183.069 101.796 4.381 4.655 6 0.08 1@162926a9" style="fill: none; stroke: rgba(255, 255, 255, 0.384);"/>
  <path d="M 163.172 143.488 Q 163.476 143.302 163.78 143.488 L 166.967 145.443 Q 167.27 145.63 167.27 146.002 L 167.27 149.912 Q 167.27 150.284 166.967 150.471 L 163.78 152.426 Q 163.476 152.612 163.172 152.426 L 159.985 150.471 Q 159.682 150.285 159.682 149.912 L 159.682 146.002 Q 159.682 145.63 159.985 145.443 Z" bx:shape="n-gon 163.476 147.957 4.381 4.655 6 0.08 1@95698684" style="fill: none; stroke: rgba(255, 255, 255, 0.384);"/>
</svg>