<?xml version="1.0" encoding="utf-8"?>
<svg xmlns="http://www.w3.org/2000/svg" viewBox="0 0 100 190" xmlns:bx="https://boxy-svg.com">
  <defs>
    <radialGradient gradientUnits="userSpaceOnUse" cx="58.145" cy="17.657" r="37.854" id="gradient-8" gradientTransform="matrix(0.92097, 0, 0, 0.973719, 76.891469, 31.616831)">
      <stop offset="0" style="stop-color: rgb(16.863% 44.706% 10.98%)"/>
      <stop offset="1" style="stop-color: rgb(0% 28.304% 0%)"/>
    </radialGradient>
    <radialGradient gradientUnits="userSpaceOnUse" cx="120.764" cy="91.883" r="7.98" id="gradient-9" gradientTransform="matrix(1.000001, 0, 0, 1.000001, -0.000365, -0.001248)">
      <stop offset="0" style="stop-color: rgb(100% 44.314% 0%)"/>
      <stop offset="1" style="stop-color: rgb(67.01% 16.877% 0%)"/>
    </radialGradient>
    <radialGradient gradientUnits="userSpaceOnUse" cx="120.764" cy="91.883" r="7.98" id="gradient-1" gradientTransform="matrix(1.000001, 0, 0, 1, -0.000065, 0.000045)">
      <stop offset="0" style="stop-color: rgb(100% 44.314% 0%)"/>
      <stop offset="1" style="stop-color: rgb(67.01% 16.877% 0%)"/>
    </radialGradient>
    <linearGradient gradientUnits="userSpaceOnUse" x1="-15.293" y1="205.562" x2="-15.293" y2="236.175" id="gradient-0">
      <stop offset="0" style="stop-color: rgb(17.647% 33.333% 5.4902%)"/>
      <stop offset="1" style="stop-color: rgb(6.2233% 21.489% 0%)"/>
    </linearGradient>
    <radialGradient gradientUnits="userSpaceOnUse" cx="-19.949" cy="234.377" r="14.599" id="gradient-3" gradientTransform="matrix(1, 0, 0, 1, -0.846299, -2.962048)">
      <stop offset="0" style="stop-color: rgb(17.647% 33.333% 5.4902%)"/>
      <stop offset="1" style="stop-color: rgb(6.2233% 21.489% 0%)"/>
    </radialGradient>
    <radialGradient gradientUnits="userSpaceOnUse" cx="120.764" cy="91.883" r="7.98" id="gradient-7" gradientTransform="matrix(1.000001, 0, 0, 1, -0.000065, 0.000045)">
      <stop offset="0" style="stop-color: rgb(100% 44.314% 0%)"/>
      <stop offset="1" style="stop-color: rgb(67.01% 16.877% 0%)"/>
    </radialGradient>
    <linearGradient gradientUnits="userSpaceOnUse" x1="-15.293" y1="205.562" x2="-15.293" y2="236.175" id="gradient-2">
      <stop offset="0" style="stop-color: rgb(17.647% 33.333% 5.4902%)"/>
      <stop offset="1" style="stop-color: rgb(6.2233% 21.489% 0%)"/>
    </linearGradient>
    <radialGradient gradientUnits="userSpaceOnUse" cx="-19.949" cy="234.377" r="14.599" id="gradient-4" gradientTransform="matrix(1, 0, 0, 1, -0.846299, -2.962048)">
      <stop offset="0" style="stop-color: rgb(17.647% 33.333% 5.4902%)"/>
      <stop offset="1" style="stop-color: rgb(6.2233% 21.489% 0%)"/>
    </radialGradient>
    <radialGradient gradientUnits="userSpaceOnUse" cx="120.764" cy="91.883" r="7.98" id="gradient-5" gradientTransform="matrix(1.000001, 0, 0, 1, -0.000065, 0.000045)">
      <stop offset="0" style="stop-color: rgb(100% 44.314% 0%)"/>
      <stop offset="1" style="stop-color: rgb(67.01% 16.877% 0%)"/>
    </radialGradient>
  </defs>
  <g transform="matrix(1.04884, 0, 0, 1.18147, -14.4545, -14.0079)" style="">
    <rect x="21.029" y="38.004" width="7.125" height="35.249" style="fill: rgb(6, 78, 4); stroke: rgb(12, 27, 4);"/>
    <rect x="18.553" y="69.601" width="11.707" height="10.316" rx="3" ry="3" style="fill: rgb(37, 108, 24); stroke: rgb(12, 27, 4);"/>
    <rect x="20.764" y="71.992" width="7.418" height="5.332" rx="3" ry="3" style="fill: rgb(255, 149, 0); stroke: rgb(12, 27, 4);"/>
  </g>
  <path d="M 51.077 147.86 C 51.077 170.556 42.389 179.492 30.064 178.951 C 17.738 178.411 7.423 170.556 7.423 147.86 C 7.423 125.164 19.365 68.373 31.419 68.373 C 43.473 68.373 51.077 125.164 51.077 147.86 Z" style="stroke-width: 4px; stroke: rgb(13, 45, 37); fill: rgb(38, 86, 64); transform-origin: 29.25px 123.674px;" transform="matrix(0.999304, 0.037314, -0.037314, 0.999304, 0, 0)"/>
  <path d="M 93.818 103.341 C 93.818 80.645 85.13 71.709 72.805 72.25 C 60.479 72.79 50.164 80.645 50.164 103.341 C 50.164 126.037 62.106 182.828 74.16 182.828 C 86.214 182.828 93.818 126.037 93.818 103.341 Z" style="stroke: rgb(29, 78, 65); stroke-width: 4px; fill: rgb(73, 153, 116); transform-origin: 71.991px 127.527px;" transform="matrix(-0.990178, 0.139813, -0.139813, -0.990178, -0.000001, 0.000005)"/>
  <g transform="matrix(0.785826, 0, 0, 1, -60.63, 17.4218)" style="">
    <g transform="matrix(0.82312, 0, 0, 0.82477, 161.899, -29.4354)" style="">
      <ellipse style="stroke: rgb(0, 0, 0); fill: rgb(21, 44, 9);" cx="-15.236" cy="205.799" rx="6.559" ry="2.433"/>
      <rect x="-19.143" y="184.76" width="6.976" height="50.37" rx="3" ry="3" style="fill: rgb(96, 39, 39); stroke: rgb(44, 18, 18);"/>
      <path d="M -8.523 236.175 L -22.064 236.175 L -22.064 205.562 C -20.464 206.288 -17.771 206.765 -14.717 206.765 C -12.308 206.765 -10.123 206.468 -8.523 205.987 Z" style="stroke: rgb(12, 27, 4); fill: url(&quot;#gradient-2&quot;);"/>
      <rect x="-35.393" y="224.327" width="29.197" height="14.176" style="stroke: rgb(12, 27, 4); fill: url(&quot;#gradient-4&quot;);" rx="7.088" ry="7.088"/>
    </g>
    <g transform="matrix(0.34931, 0.054472, -0.058811, 0.377139, -7.68916, 53.3007)" style="transform-origin: 159.623px 92.705px;">
      <path d="M 119.956 85.873 Q 120.283 85.619 120.61 85.873 L 126.494 90.45 Q 126.821 90.704 126.696 91.115 L 124.448 98.52 Q 124.323 98.932 123.919 98.932 L 116.647 98.932 Q 116.243 98.932 116.118 98.52 L 113.87 91.115 Q 113.745 90.704 114.072 90.45 Z" bx:shape="n-gon 120.283 92.978 6.874 7.359 5 0.05 1@2a81eef9" style="fill: rgb(255, 0, 0); stroke: rgb(124, 0, 0);" transform="matrix(0.978581476301, -0.205859889832, -0.205860091282, -0.978581433922, 60.710371479402, 207.97702709384)"/>
      <path d="M 120.764 84.288 L 123.021 89.735 L 128.744 91.883 L 123.021 94.031 L 120.764 99.478 L 118.507 94.031 L 112.784 91.883 L 118.507 89.735 Z" bx:shape="star 120.764 91.883 7.98 7.595 0.4 4 1@b0637641" style="stroke: rgb(255, 219, 94); fill: url(&quot;#gradient-5&quot;);" transform="matrix(0.9785814763, -0.205859889832, -0.205860091282, -0.978581433922, 60.360271631348, 207.480026565697)"/>
    </g>
  </g>
  <path d="M 66.477 131.996 C 66.477 146.781 56.511 168.127 44.218 168.127 C 31.925 168.127 21.959 146.781 21.959 131.996 C 21.959 117.207 31.925 105.221 44.218 105.221 C 56.511 105.221 66.477 117.207 66.477 131.996 Z" style="fill: rgb(44, 18, 18); stroke-width: 3px; stroke: rgb(30, 10, 10);"/>
  <g transform="matrix(0.885037, 0.169108, -0.154497, 0.80857, 51.933, -0.045421)" style="transform-origin: -36.017px 113.779px;">
    <rect x="-39.395" y="-139.19" width="6.758" height="38.305" rx="3" ry="3" style="fill: rgb(44, 18, 18); stroke-width: 2px; stroke: rgb(30, 10, 10);" transform="matrix(1, 0, 0, -1, 0, 0)"/>
    <rect x="-40.697" y="-112.07" width="9.966" height="38.305" rx="3" ry="3" style="fill: rgb(44, 18, 18); stroke-width: 2px; stroke: rgb(30, 10, 10);" transform="matrix(1, 0, 0, -1, 0, 0)"/>
    <path d="M -26.43 144.059 C -26.43 144.853 -26.524 145.625 -26.7 146.364 C -27.372 146.088 -28.094 145.938 -28.845 145.938 C -32.442 145.938 -35.358 149.378 -35.358 153.622 C -35.358 153.671 -35.358 153.72 -35.357 153.769 C -35.575 153.784 -35.795 153.792 -36.017 153.792 C -41.312 153.792 -45.604 149.434 -45.604 144.059 C -45.604 138.684 -41.312 134.326 -36.017 134.326 C -30.722 134.326 -26.43 138.684 -26.43 144.059 Z" style="fill: rgb(44, 18, 18); stroke-width: 2px; stroke: rgb(30, 10, 10);"/>
  </g>
  <path d="M 65.557 124.252 C 65.557 132.452 69.747 132.824 44.664 139.1 C 19.581 145.376 18.739 134.784 23.771 124.252 C 28.803 113.72 33.125 109.404 44.664 109.404 C 56.203 109.404 65.557 116.052 65.557 124.252 Z" style="fill: rgb(30, 10, 10);"/>
  <g transform="matrix(-0.974045, 0.226356, 0.226356, 0.974045, 109.303, 0.33034)" style="transform-origin: -36.017px 113.779px;">
    <rect x="-39.395" y="-139.19" width="6.758" height="38.305" rx="3" ry="3" style="fill: rgb(44, 18, 18); stroke-width: 2px; stroke: rgb(118, 34, 34);" transform="matrix(1, 0, 0, -1, 0, 0)"/>
    <rect x="-40.697" y="-112.07" width="9.966" height="38.305" rx="3" ry="3" style="fill: rgb(44, 18, 18); stroke-width: 2px; stroke: rgb(118, 34, 34);" transform="matrix(1, 0, 0, -1, 0, 0)"/>
    <path d="M -26.43 144.059 C -26.43 144.853 -26.524 145.625 -26.7 146.364 C -27.372 146.088 -28.094 145.938 -28.845 145.938 C -32.442 145.938 -35.358 149.378 -35.358 153.622 C -35.358 153.671 -35.358 153.72 -35.357 153.769 C -35.575 153.784 -35.795 153.792 -36.017 153.792 C -41.312 153.792 -45.604 149.434 -45.604 144.059 C -45.604 138.684 -41.312 134.326 -36.017 134.326 C -30.722 134.326 -26.43 138.684 -26.43 144.059 Z" style="fill: rgb(44, 18, 18); stroke-width: 2px; stroke: rgb(118, 34, 34);"/>
  </g>
  <path d="M 69.417 98.118 C 69.417 113.81 57.953 136.465 43.81 136.465 C 29.667 136.465 18.202 113.81 18.202 98.118 C 18.202 82.424 29.667 69.702 43.81 69.702 C 57.953 69.702 69.417 82.424 69.417 98.118 Z" style="fill: rgb(255, 149, 0); stroke-width: 2px; stroke: rgb(117, 65, 0);"/>
  <path d="M 55.649 81.079 C 55.649 88.024 39.779 94.006 29.688 91.825 C 29.644 93.167 36.347 109.759 37.929 113.516 C 48.311 138.173 48.209 134.335 42.442 136.3 C 36.676 138.265 24.241 126.835 20.462 111.99 C 17.165 99.042 17.969 87.021 22.054 82.857 C 21.97 82.24 21.927 81.645 21.927 81.079 C 21.927 73.716 29.476 67.748 38.788 67.748 C 48.1 67.748 55.649 73.716 55.649 81.079 Z" style="fill: rgb(117, 65, 0);"/>
  <path d="M 74.73 42.456 C 74.73 61.559 60.036 89.137 41.909 89.137 C 23.782 89.137 9.086 61.559 9.086 42.456 C 9.086 23.351 23.782 7.865 41.909 7.865 C 60.036 7.865 74.73 23.351 74.73 42.456 Z" style="fill: rgb(255, 149, 0); stroke: rgb(117, 65, 0); stroke-width: 3px;"/>
  <path d="M 69.655 43.451 C 69.655 44.564 69.193 45.467 68.337 46.199 C 68.826 48.654 69.123 51.871 69.123 55.391 C 69.123 63.093 67.705 69.337 65.956 69.337 C 64.208 69.337 65.093 62.776 65.093 55.075 C 65.093 52.393 64.986 49.926 64.92 47.849 C 59.339 49.462 49.441 49.314 38.566 49.314 C 21.873 49.314 9.205 49.665 9.205 43.451 C 9.205 37.236 22.737 32.199 39.43 32.199 C 56.123 32.199 69.655 37.236 69.655 43.451 Z" style="fill: rgb(117, 65, 0);"/>
  <path d="M 24.469 47.428 C 27.67 49.05 31.598 53.605 30.066 56.479 C 28.533 59.354 22.12 59.46 18.919 57.838 C 15.717 56.217 11.796 49.496 13.329 46.621 C 14.862 43.747 21.268 45.807 24.469 47.428 Z" style="stroke: rgb(0, 0, 0); transform-origin: 32.42px 59.461px;"/>
  <path d="M 45.289 46.457 C 41.457 48.397 36.683 53.707 38.411 56.949 C 40.139 60.189 47.715 60.134 51.546 58.193 C 55.377 56.253 60.206 48.47 58.478 45.229 C 56.75 41.987 49.119 44.516 45.289 46.457 Z" style="stroke: rgb(0, 0, 0); transform-origin: 62.325px 59.07px;"/>
  <g transform="matrix(0.988164, 0.153404, -0.153404, 0.988164, -99.5068, 46.5122)" style="transform-origin: 183.188px 60.386px;">
    <rect x="178.833" y="81.454" width="8.315" height="26.528" style="stroke: rgb(0, 0, 0);" rx="3.167" ry="3.167"/>
    <rect x="177.645" y="12.79" width="11.086" height="72.456" style="fill: rgb(255, 255, 255); stroke: rgb(0, 255, 7); stroke-width: 6px;" rx="4.949" ry="4.949"/>
  </g>
  <g transform="matrix(1.25176, 0, 0, 1.32317, 41.3792, -12.9109)" style="">
    <rect x="21.029" y="38.004" width="7.125" height="35.249" style="fill: rgb(6, 78, 4); stroke: rgb(12, 27, 4);"/>
    <rect x="18.553" y="69.601" width="11.707" height="10.316" rx="3" ry="3" style="fill: rgb(37, 108, 24); stroke: rgb(12, 27, 4);"/>
    <rect x="20.764" y="71.992" width="7.418" height="5.332" rx="3" ry="3" style="fill: rgb(255, 149, 0); stroke: rgb(12, 27, 4);"/>
  </g>
  <g transform="matrix(1, 0, 0, 1, -86.8775, -30.883)">
    <path d="M 130.44 31.307 C 146.223 31.307 159.617 44.184 164.357 62.05 L 169.706 62.05 L 169.706 71.217 L 91.575 71.217 L 91.575 62.05 L 96.525 62.05 C 101.262 44.184 114.659 31.307 130.44 31.307 Z" style="fill: url(&quot;#gradient-8&quot;); stroke: rgb(12, 27, 4);"/>
    <rect x="143.539" y="48.946" width="10.713" height="15.687" style="fill: rgb(255, 255, 255); stroke: rgb(85, 85, 85);"/>
    <rect x="151" y="45.502" width="10.139" height="17.026" style="fill: rgb(255, 255, 255); stroke: rgb(85, 85, 85);"/>
    <rect x="96.911" y="60.086" width="67.377" height="2.66" style="fill: rgb(12, 27, 4);"/>
    <g transform="matrix(1.68211, 0.315993, -0.397268, 1.67553, -41.7333, -31.7972)" style="transform-origin: 159.623px 92.705px;">
      <path d="M 119.956 85.873 Q 120.283 85.619 120.61 85.873 L 126.494 90.45 Q 126.821 90.704 126.696 91.115 L 124.448 98.52 Q 124.323 98.932 123.919 98.932 L 116.647 98.932 Q 116.243 98.932 116.118 98.52 L 113.87 91.115 Q 113.745 90.704 114.072 90.45 Z" bx:shape="n-gon 120.283 92.978 6.874 7.359 5 0.05 1@2a81eef9" style="fill: rgb(255, 0, 0); stroke: rgb(124, 0, 0);" transform="matrix(0.978581476301, -0.205859889832, -0.205860091282, -0.978581433922, 60.710371479402, 207.97702709384)"/>
      <path d="M 120.764 84.288 L 123.021 89.735 L 128.744 91.883 L 123.021 94.031 L 120.764 99.478 L 118.507 94.031 L 112.784 91.883 L 118.507 89.735 Z" bx:shape="star 120.764 91.883 7.98 7.595 0.4 4 1@b0637641" style="stroke: rgb(255, 219, 94); fill: url(&quot;#gradient-9&quot;);" transform="matrix(0.9785814763, -0.205859889832, -0.205859889832, -0.978581476301, 60.765253121449, 209.19293857655)"/>
    </g>
    <ellipse style="stroke: rgb(0, 0, 0);" cx="154.687" cy="53.549" rx="2.2" ry="1.817"/>
    <ellipse style="stroke: rgb(0, 0, 0);" cx="156.313" cy="51.54" rx="1.53" ry="1.722"/>
    <ellipse style="stroke: rgb(0, 0, 0);" cx="158.27" cy="54.027" rx="1.53" ry="1.913"/>
    <ellipse style="stroke: rgb(0, 0, 0);" cx="155.739" cy="55.47" rx="0.765" ry="2.87"/>
    <ellipse style="fill: rgb(255, 0, 0);" cx="148.183" cy="55.94" rx="1.817" ry="1.722"/>
  </g>
  <g transform="matrix(0.788139, 0.148056, -0.218353, 0.92093, -132.413, 7.27067)" style="transform-origin: 159.623px 92.705px;">
    <path d="M 119.956 85.873 Q 120.283 85.619 120.61 85.873 L 126.494 90.45 Q 126.821 90.704 126.696 91.115 L 124.448 98.52 Q 124.323 98.932 123.919 98.932 L 116.647 98.932 Q 116.243 98.932 116.118 98.52 L 113.87 91.115 Q 113.745 90.704 114.072 90.45 Z" bx:shape="n-gon 120.283 92.978 6.874 7.359 5 0.05 1@2a81eef9" style="fill: rgb(255, 0, 0); stroke: rgb(124, 0, 0);" transform="matrix(0.978581476301, -0.205859889832, -0.205860091282, -0.978581433922, 60.710371479402, 207.97702709384)"/>
    <path d="M 120.764 84.288 L 123.021 89.735 L 128.744 91.883 L 123.021 94.031 L 120.764 99.478 L 118.507 94.031 L 112.784 91.883 L 118.507 89.735 Z" bx:shape="star 120.764 91.883 7.98 7.595 0.4 4 1@b0637641" style="stroke: rgb(255, 219, 94); fill: url(&quot;#gradient-1&quot;);" transform="matrix(0.9785814763, -0.205859889832, -0.205860091282, -0.978581433922, 60.360271631348, 207.480026565697)"/>
  </g>
  <g transform="matrix(1, 0, 0, 1, -115.801, 21.1725)">
    <g transform="matrix(0.82312, 0, 0, 0.82477, 161.899, -29.4354)" style="">
      <ellipse style="stroke: rgb(0, 0, 0); fill: rgb(21, 44, 9);" cx="-15.236" cy="205.799" rx="6.559" ry="2.433"/>
      <rect x="-19.143" y="184.76" width="6.976" height="50.37" rx="3" ry="3" style="fill: rgb(96, 39, 39); stroke: rgb(44, 18, 18);"/>
      <path d="M -8.523 236.175 L -22.064 236.175 L -22.064 205.562 C -20.464 206.288 -17.771 206.765 -14.717 206.765 C -12.308 206.765 -10.123 206.468 -8.523 205.987 Z" style="stroke: rgb(12, 27, 4); fill: url(&quot;#gradient-0&quot;);"/>
      <rect x="-35.393" y="224.327" width="29.197" height="14.176" style="stroke: rgb(12, 27, 4); fill: url(&quot;#gradient-3&quot;);" rx="7.088" ry="7.088"/>
    </g>
    <g transform="matrix(0.34931, 0.054472, -0.058811, 0.377139, -7.68916, 53.3007)" style="transform-origin: 159.623px 92.705px;">
      <path d="M 119.956 85.873 Q 120.283 85.619 120.61 85.873 L 126.494 90.45 Q 126.821 90.704 126.696 91.115 L 124.448 98.52 Q 124.323 98.932 123.919 98.932 L 116.647 98.932 Q 116.243 98.932 116.118 98.52 L 113.87 91.115 Q 113.745 90.704 114.072 90.45 Z" bx:shape="n-gon 120.283 92.978 6.874 7.359 5 0.05 1@2a81eef9" style="fill: rgb(255, 0, 0); stroke: rgb(124, 0, 0);" transform="matrix(0.978581476301, -0.205859889832, -0.205860091282, -0.978581433922, 60.710371479402, 207.97702709384)"/>
      <path d="M 120.764 84.288 L 123.021 89.735 L 128.744 91.883 L 123.021 94.031 L 120.764 99.478 L 118.507 94.031 L 112.784 91.883 L 118.507 89.735 Z" bx:shape="star 120.764 91.883 7.98 7.595 0.4 4 1@b0637641" style="stroke: rgb(255, 219, 94); fill: url(&quot;#gradient-7&quot;);" transform="matrix(0.9785814763, -0.205859889832, -0.205860091282, -0.978581433922, 60.360271631348, 207.480026565697)"/>
    </g>
  </g>
</svg>