<?xml version="1.0" encoding="utf-8"?>
<svg xmlns="http://www.w3.org/2000/svg" viewBox="0 0 120 140" width="120px" height="140px" xmlns:bx="https://boxy-svg.com">
  <defs>
    <path id="path-0" d="M 47.45576835269847 80.80186377892636 L 88.10802791144843 72.48662886918206" style="fill: none;"/>
    <path id="path-1" d="M 79.959 48.171 C 80.47 57.633 80.342 62.787 80.342 67.878 C 78.993 71.797 78.039 74.456 78.039 77.603 C 78.039 81.289 77.548 84.917 79.447 86.816 L 79.575 87.328 C 79.575 87.797 79.575 88.266 79.575 88.736" style="fill: none;"/>
    <linearGradient gradientUnits="userSpaceOnUse" x1="60.687" y1="0.614" x2="60.687" y2="46.67" id="gradient-0" gradientTransform="matrix(1.3418, 0, 0, 1.47738, -30.0214, 1.22801)">
      <stop offset="0" style="stop-color: rgb(100% 65.49% 10.98%)"/>
      <stop offset="1" style="stop-color: rgb(63.351% 34.832% 0%)"/>
    </linearGradient>
    <linearGradient gradientUnits="userSpaceOnUse" x1="59.406" y1="56.838" x2="59.406" y2="94.01" id="gradient-1" gradientTransform="matrix(1.24209, 0, 0, 1.346, -23.987, 6.65471)">
      <stop offset="0" style="stop-color: rgb(97.647% 63.529% 10.196%)"/>
      <stop offset="1" style="stop-color: rgb(62.023% 33.769% 0%)"/>
    </linearGradient>
    <linearGradient gradientUnits="userSpaceOnUse" x1="59.421" y1="68.471" x2="59.421" y2="98.838" id="gradient-2" gradientTransform="matrix(0.940035, 0, 0, 1.346, -7.33716, 5.48867)">
      <stop offset="0" style="stop-color: rgb(98.039% 63.922% 10.588%)"/>
      <stop offset="1" style="stop-color: rgb(62.249% 33.982% 0%)"/>
    </linearGradient>
    <linearGradient gradientUnits="userSpaceOnUse" x1="58.552" y1="-96.881" x2="58.552" y2="-75.038" id="gradient-3" gradientTransform="matrix(-0.939047, -0.041862, 0.024607, -0.521359, 109.12, -162.441)">
      <stop offset="0" style="stop-color: rgb(98.039% 63.922% 10.196%)"/>
      <stop offset="1" style="stop-color: rgb(62.228% 33.996% 0%)"/>
    </linearGradient>
    <linearGradient gradientUnits="userSpaceOnUse" x1="58.907" y1="74.148" x2="58.907" y2="96.86" id="gradient-4" gradientTransform="matrix(0.940035, 0, 0, 0.913581, -6.78076, 43.3738)">
      <stop offset="0" style="stop-color: rgb(98.039% 63.922% 10.196%)"/>
      <stop offset="1" style="stop-color: rgb(62.228% 33.996% 0%)"/>
    </linearGradient>
    <linearGradient gradientUnits="userSpaceOnUse" x1="59.406" y1="56.838" x2="59.406" y2="94.01" id="gradient-6" gradientTransform="matrix(0.881477, 0, 0, 0.907994, -1.84774, 40.4098)">
      <stop offset="0" style="stop-color: rgb(97.647% 63.529% 10.196%)"/>
      <stop offset="1" style="stop-color: rgb(62.023% 33.769% 0%)"/>
    </linearGradient>
  </defs>
  <rect x="19.916" y="48.638" width="84.481" height="33.351" rx="3" ry="3" style="fill: rgba(0, 0, 0, 0.408);" transform="matrix(0.999987, 0.005195, -0.62699, 0.996756, 47.1819, 57.1625)"/>
  <path d="M 49.426 26.543 Q 50.849 24.698 52.272 26.543 L 67.21 45.914 Q 68.633 47.759 68.633 51.449 L 68.633 90.191 Q 68.633 93.881 67.21 95.726 L 52.272 115.097 Q 50.849 116.942 49.426 115.097 L 34.488 95.726 Q 33.065 93.881 33.065 90.191 L 33.065 51.449 Q 33.065 47.759 34.488 45.914 Z" bx:shape="n-gon 50.849 70.82 20.535 46.122 6 0.08 1@8c6b3a8e" style="stroke: rgb(81, 70, 0); fill: rgb(255, 255, 255); stroke-width: 3px;"/>
  <rect x="39.644" y="42.862" width="22.461" height="57.952" rx="3" ry="3" style="fill: rgb(255, 186, 31); stroke: rgb(188, 115, 0); stroke-width: 2px;"/>
  <path d="M 49.238 2.83 Q 51.409 1.441 53.58 2.83 L 76.379 17.41 Q 78.55 18.798 78.55 21.576 L 78.55 50.736 Q 78.55 53.513 76.379 54.902 L 53.58 69.482 Q 51.409 70.871 49.238 69.482 L 26.439 54.902 Q 24.268 53.514 24.268 50.736 L 24.268 21.576 Q 24.268 18.798 26.439 17.41 Z" bx:shape="n-gon 51.409 36.156 31.34 34.715 6 0.08 1@047d2f0e" style="fill: url(&quot;#gradient-0&quot;); stroke: rgb(81, 70, 0); stroke-width: 3px;"/>
  <path d="M 46.546 83.935 Q 49.801 82.382 53.056 83.935 L 87.237 100.237 Q 90.492 101.79 89.249 104.302 L 76.193 130.68 Q 74.949 133.192 70.926 133.192 L 28.676 133.192 Q 24.653 133.192 23.409 130.68 L 10.353 104.302 Q 9.11 101.79 12.365 100.237 Z" bx:shape="n-gon 49.801 110.469 42.785 28.087 5 0.08 1@f837310d" style="fill: url(&quot;#gradient-1&quot;); stroke: rgb(54, 28, 0); stroke-width: 2px;"/>
  <path d="M 47.046 88.433 Q 49.942 87.1 52.838 88.433 L 83.243 102.433 Q 86.139 103.767 85.033 105.924 L 73.419 128.576 Q 72.313 130.733 68.734 130.733 L 31.15 130.733 Q 27.571 130.733 26.465 128.576 L 14.851 105.924 Q 13.745 103.767 16.641 102.433 Z" bx:shape="n-gon 49.942 111.22 38.06 24.12 5 0.08 1@f64b5125" style="fill: rgb(255, 198, 0); stroke: rgb(104, 87, 0); stroke-width: 2px;"/>
  <path d="M 48.208 92.543 Q 50.518 91.496 52.828 92.543 L 77.085 103.54 Q 79.395 104.587 78.513 106.282 L 69.247 124.075 Q 68.365 125.77 65.509 125.77 L 35.527 125.77 Q 32.671 125.77 31.789 124.075 L 22.523 106.282 Q 21.641 104.587 23.951 103.54 Z" bx:shape="n-gon 50.518 110.442 30.363 18.946 5 0.08 1@161b445a" style="stroke: rgb(54, 28, 0); fill: url(&quot;#gradient-6&quot;); stroke-width: 2px;"/>
  <path d="M 44.64 98.285 Q 48.521 97.017 52.402 98.285 L 93.154 111.603 Q 97.035 112.872 95.553 114.924 L 79.987 136.473 Q 78.505 138.525 73.707 138.525 L 23.335 138.525 Q 18.537 138.525 17.055 136.473 L 1.489 114.924 Q 0.007 112.872 3.888 111.603 Z" bx:shape="n-gon 48.521 119.962 51.011 22.945 5 0.08 1@efbbc7d0" style="fill: url(&quot;#gradient-2&quot;); stroke: rgb(54, 28, 0); stroke-width: 2px;"/>
  <path d="M 47.34 -131.574 Q 48.26 -132.193 49.18 -131.574 L 58.839 -125.071 Q 59.759 -124.452 59.408 -123.45 L 55.718 -112.929 Q 55.367 -111.927 54.23 -111.927 L 42.29 -111.927 Q 41.153 -111.927 40.802 -112.929 L 37.112 -123.45 Q 36.761 -124.452 37.681 -125.071 Z" bx:shape="n-gon 48.26 -120.99 12.091 11.203 5 0.08 1@7e37057e" style="fill: url(&quot;#gradient-3&quot;); stroke: rgb(54, 28, 0); stroke-width: 2px;" transform="matrix(1, 0, 0, -1, 0, 0)"/>
  <path d="M 48.593 111.114 L 53.591 118.555 L 66.262 121.489 L 53.591 124.423 L 48.593 131.864 L 43.595 124.423 L 30.924 121.489 L 43.595 118.555 Z" bx:shape="star 48.593 121.489 17.669 10.375 0.4 4 1@0fac7f7b" style="fill: url(&quot;#gradient-4&quot;); stroke: rgb(54, 28, 0); stroke-width: 2px;"/>
  <g transform="matrix(1.10773, -0.377837, 0.322829, 0.946457, -4.09128, -0.93169)" style="transform-origin: 19.6329px 119.318px;">
    <path d="M 15.756 118.993 C 15.796 119.002 15.837 119.014 15.876 119.026 C 15.921 119.034 15.966 119.044 16.011 119.055 L 20.816 120.207 L 22.198 108.389 C 22.455 106.19 23.801 104.679 25.205 105.016 C 26.608 105.352 27.538 107.408 27.281 109.607 L 25.477 125.031 C 25.254 126.94 24.209 128.33 23.019 128.443 C 22.688 128.539 22.336 128.549 21.982 128.465 L 17.374 127.359 L 17.036 130.244 C 16.778 132.443 15.439 133.955 14.045 133.621 C 12.651 133.286 11.728 131.232 11.985 129.033 C 11.987 129.015 12.768 122.334 12.77 122.317 C 12.772 122.301 12.775 122.284 12.777 122.268 C 12.832 121.79 12.948 121.346 13.111 120.95 C 13.653 119.563 14.689 118.737 15.756 118.993 Z" style="fill: rgb(255, 198, 0); stroke: rgb(104, 87, 0); stroke-width: 2px;"/>
    <ellipse style="fill: rgb(255, 255, 255); stroke: rgb(188, 115, 0); stroke-width: 0.5px;" cx="25.85" cy="112.999" rx="1.143" ry="1.793"/>
    <ellipse style="fill: rgb(255, 255, 255); stroke: rgb(188, 115, 0); stroke-width: 0.5px;" cx="21.576" cy="120.808" rx="1.143" ry="1.793"/>
    <ellipse style="fill: rgb(255, 255, 255); stroke: rgb(188, 115, 0); stroke-width: 0.5px;" cx="15.369" cy="126.404" rx="0.715" ry="1.152"/>
  </g>
  <path d="M 45.196 31.503 C 48.128 34.415 48.777 38.821 46.643 41.342 C 44.51 43.864 40.403 43.544 37.471 40.632 C 34.539 37.719 29.601 27.204 31.733 24.683 C 33.865 22.163 42.263 28.589 45.196 31.503 Z" style="stroke: rgb(81, 70, 0); transform-origin: 50.755px 21.308px;"/>
  <path d="M 57.909 31.617 C 54.977 34.529 54.328 38.936 56.462 41.457 C 58.595 43.978 62.702 43.659 65.633 40.747 C 68.566 37.833 73.504 27.318 71.372 24.797 C 69.24 22.277 60.842 28.703 57.909 31.617 Z" style="stroke: rgb(81, 70, 0); transform-origin: 70.878px 21.393px;"/>
  <ellipse style="fill: rgb(255, 255, 255); stroke: rgb(188, 115, 0);" cx="39.892" cy="71.09" rx="2.909" ry="3.571"/>
  <ellipse style="fill: rgb(255, 255, 255); stroke: rgb(188, 115, 0);" cx="62.593" cy="79.648" rx="2.785" ry="3.018"/>
  <g transform="matrix(-1.07407, -0.464982, -0.397287, 0.917694, 63.7559, -1.40014)" style="transform-origin: 19.633px 119.318px;">
    <path d="M 15.756 118.993 C 15.796 119.002 15.837 119.014 15.876 119.026 C 15.921 119.034 15.966 119.044 16.011 119.055 L 20.816 120.207 L 22.198 108.389 C 22.455 106.19 23.801 104.679 25.205 105.016 C 26.608 105.352 27.538 107.408 27.281 109.607 L 25.477 125.031 C 25.254 126.94 24.209 128.33 23.019 128.443 C 22.688 128.539 22.336 128.549 21.982 128.465 L 17.374 127.359 L 17.036 130.244 C 16.778 132.443 15.439 133.955 14.045 133.621 C 12.651 133.286 11.728 131.232 11.985 129.033 C 11.987 129.015 12.768 122.334 12.77 122.317 C 12.772 122.301 12.775 122.284 12.777 122.268 C 12.832 121.79 12.948 121.346 13.111 120.95 C 13.653 119.563 14.689 118.737 15.756 118.993 Z" style="fill: rgb(255, 198, 0); stroke: rgb(104, 87, 0); stroke-width: 2px;"/>
    <ellipse style="fill: rgb(255, 255, 255); stroke: rgb(188, 115, 0); stroke-width: 0.5px;" cx="25.85" cy="112.999" rx="1.143" ry="1.793"/>
    <ellipse style="fill: rgb(255, 255, 255); stroke: rgb(188, 115, 0); stroke-width: 0.5px;" cx="21.576" cy="120.808" rx="1.143" ry="1.793"/>
    <ellipse style="fill: rgb(255, 255, 255); stroke: rgb(188, 115, 0); stroke-width: 0.5px;" cx="15.369" cy="126.404" rx="0.715" ry="1.152"/>
  </g>
  <ellipse style="fill: rgb(81, 70, 0); transform-origin: 32.985px 23.421px;" cx="32.985" cy="23.421" rx="4.784" ry="8.74" transform="matrix(-0.791522, 0.61114, 0.61114, 0.791523, 42.716525, -1.40761)"/>
  <g transform="matrix(0.837197, -0.817885, -0.698807, -0.71531, 67.4312, -96.4543)" style="transform-origin: 19.633px 119.318px;">
    <path d="M 15.756 118.993 C 15.796 119.002 15.837 119.014 15.876 119.026 C 15.921 119.034 15.966 119.044 16.011 119.055 L 20.816 120.207 L 22.198 108.389 C 22.455 106.19 23.801 104.679 25.205 105.016 C 26.608 105.352 27.538 107.408 27.281 109.607 L 25.477 125.031 C 25.254 126.94 24.209 128.33 23.019 128.443 C 22.688 128.539 22.336 128.549 21.982 128.465 L 17.374 127.359 L 17.036 130.244 C 16.778 132.443 15.439 133.955 14.045 133.621 C 12.651 133.286 11.728 131.232 11.985 129.033 C 11.987 129.015 12.768 122.334 12.77 122.317 C 12.772 122.301 12.775 122.284 12.777 122.268 C 12.832 121.79 12.948 121.346 13.111 120.95 C 13.653 119.563 14.689 118.737 15.756 118.993 Z" style="fill: rgb(255, 198, 0); stroke: rgb(104, 87, 0); stroke-width: 2px;"/>
    <ellipse style="fill: rgb(255, 255, 255); stroke: rgb(188, 115, 0); stroke-width: 0.5px;" cx="25.85" cy="112.999" rx="1.143" ry="1.793"/>
    <ellipse style="fill: rgb(255, 255, 255); stroke: rgb(188, 115, 0); stroke-width: 0.5px;" cx="21.576" cy="120.808" rx="1.143" ry="1.793"/>
    <ellipse style="fill: rgb(255, 255, 255); stroke: rgb(188, 115, 0); stroke-width: 0.5px;" cx="15.369" cy="126.404" rx="0.715" ry="1.152"/>
  </g>
  <ellipse style="fill: rgb(81, 70, 0); transform-box: fill-box; transform-origin: 50% 50%;" cx="32.985" cy="23.421" rx="4.784" ry="8.74" transform="matrix(0.791522, 0.61114, -0.61114, 0.791523, -4.034057, -2.805087)"/>
  <g transform="matrix(-0.8387, -0.816344, 0.69749, -0.716594, -2.24185, -96.8727)" style="transform-origin: 19.633px 119.318px;">
    <path d="M 15.756 118.993 C 15.796 119.002 15.837 119.014 15.876 119.026 C 15.921 119.034 15.966 119.044 16.011 119.055 L 20.816 120.207 L 22.198 108.389 C 22.455 106.19 23.801 104.679 25.205 105.016 C 26.608 105.352 27.538 107.408 27.281 109.607 L 25.477 125.031 C 25.254 126.94 24.209 128.33 23.019 128.443 C 22.688 128.539 22.336 128.549 21.982 128.465 L 17.374 127.359 L 17.036 130.244 C 16.778 132.443 15.439 133.955 14.045 133.621 C 12.651 133.286 11.728 131.232 11.985 129.033 C 11.987 129.015 12.768 122.334 12.77 122.317 C 12.772 122.301 12.775 122.284 12.777 122.268 C 12.832 121.79 12.948 121.346 13.111 120.95 C 13.653 119.563 14.689 118.737 15.756 118.993 Z" style="fill: rgb(255, 198, 0); stroke: rgb(104, 87, 0); stroke-width: 2px;"/>
    <ellipse style="fill: rgb(255, 255, 255); stroke: rgb(188, 115, 0); stroke-width: 0.5px;" cx="25.85" cy="112.999" rx="1.143" ry="1.793"/>
    <ellipse style="fill: rgb(255, 255, 255); stroke: rgb(188, 115, 0); stroke-width: 0.5px;" cx="21.576" cy="120.808" rx="1.143" ry="1.793"/>
    <ellipse style="fill: rgb(255, 255, 255); stroke: rgb(188, 115, 0); stroke-width: 0.5px;" cx="15.369" cy="126.404" rx="0.715" ry="1.152"/>
  </g>
</svg>