<?xml version="1.0" encoding="utf-8"?>
<svg xmlns="http://www.w3.org/2000/svg" viewBox="0 0 300 480" xmlns:bx="https://boxy-svg.com">
  <defs>
    <linearGradient gradientUnits="userSpaceOnUse" x1="191.154" y1="181.886" x2="191.154" y2="190.487" id="gradient-21" gradientTransform="matrix(0.409514, 0, 0, 5.144, 67.2791, -556.458)">
      <stop offset="0" style="stop-color: rgb(100% 61.176% 0%)"/>
      <stop offset="1" style="stop-color: rgb(63.733% 31.968% 0%)"/>
    </linearGradient>
    <linearGradient gradientUnits="userSpaceOnUse" x1="191.154" y1="181.886" x2="191.154" y2="190.487" id="gradient-22" gradientTransform="matrix(0.409514, 0, 0, 5.144, 67.2791, -556.458)">
      <stop offset="0" style="stop-color: rgb(52.157% 17.255% 0%)"/>
      <stop offset="1" style="stop-color: rgb(34.15% 10.428% 0%)"/>
    </linearGradient>
    <linearGradient gradientUnits="userSpaceOnUse" x1="191.154" y1="181.886" x2="191.154" y2="190.487" id="gradient-24" gradientTransform="matrix(0.409514, 0, 0, 6.40167, 79.2011, -780.371)">
      <stop offset="0" style="stop-color: rgb(100% 61.176% 0%)"/>
      <stop offset="1" style="stop-color: rgb(63.733% 31.968% 0%)"/>
    </linearGradient>
    <linearGradient gradientUnits="userSpaceOnUse" x1="191.154" y1="181.886" x2="191.154" y2="190.487" id="gradient-25" gradientTransform="matrix(0.409514, 0, 0, 6.40167, 79.2011, -780.371)">
      <stop offset="0" style="stop-color: rgb(52.157% 17.255% 0%)"/>
      <stop offset="1" style="stop-color: rgb(34.15% 10.428% 0%)"/>
    </linearGradient>
    <linearGradient gradientUnits="userSpaceOnUse" x1="191.154" y1="181.886" x2="191.154" y2="190.487" id="gradient-26" gradientTransform="matrix(2.24575, 0, 0, -2.06603, -307.133, 767.303)">
      <stop offset="0" style="stop-color: rgb(100% 61.176% 0%)"/>
      <stop offset="1" style="stop-color: rgb(63.733% 31.968% 0%)"/>
    </linearGradient>
    <linearGradient gradientUnits="userSpaceOnUse" x1="191.154" y1="181.886" x2="191.154" y2="190.487" id="gradient-27" gradientTransform="matrix(2.24575, 0, 0, -2.06603, -307.133, 767.303)">
      <stop offset="0" style="stop-color: rgb(52.157% 17.255% 0%)"/>
      <stop offset="1" style="stop-color: rgb(34.15% 10.428% 0%)"/>
    </linearGradient>
    <linearGradient gradientUnits="userSpaceOnUse" x1="52.462" y1="30.369" x2="52.462" y2="111.641" id="gradient-28" gradientTransform="matrix(2.02973, 0, 0, 2.13222, 10.9291, 25.5103)">
      <stop offset="0" style="stop-color: rgb(85.882% 60.392% 29.02%)"/>
      <stop offset="1" style="stop-color: rgb(54.499% 33.003% 0%)"/>
    </linearGradient>
    <linearGradient gradientUnits="userSpaceOnUse" x1="52.462" y1="30.369" x2="52.462" y2="111.641" id="gradient-29" gradientTransform="matrix(2.02973, 0, 0, 2.13222, 10.9291, 25.5103)">
      <stop offset="0" style="stop-color: rgb(39.608% 21.961% 0%)"/>
      <stop offset="1" style="stop-color: rgb(25.446% 14.002% 0%)"/>
    </linearGradient>
    <linearGradient gradientUnits="userSpaceOnUse" x1="53.607" y1="-134.16" x2="53.607" y2="-104.887" id="gradient-30" gradientTransform="matrix(2.05612, 0, 0, -1.69648, 10.0691, 67.749)">
      <stop offset="0" style="stop-color: rgb(73.333% 49.412% 17.647%)"/>
      <stop offset="1" style="stop-color: rgb(47.313% 27.05% 0%)"/>
    </linearGradient>
    <linearGradient gradientUnits="userSpaceOnUse" x1="213.33" y1="120.032" x2="213.33" y2="175.616" id="gradient-31">
      <stop offset="0" style="stop-color: rgb(81.569% 56.863% 25.098%)"/>
      <stop offset="1" style="stop-color: rgb(51.965% 31.143% 0%)"/>
    </linearGradient>
    <linearGradient gradientUnits="userSpaceOnUse" x1="199.289" y1="166.617" x2="199.289" y2="188.734" id="gradient-32">
      <stop offset="0" style="stop-color: rgb(81.569% 56.863% 25.098%)"/>
      <stop offset="1" style="stop-color: rgb(51.965% 31.143% 0%)"/>
    </linearGradient>
    <linearGradient gradientUnits="userSpaceOnUse" x1="213.33" y1="120.032" x2="213.33" y2="175.616" id="gradient-33">
      <stop offset="0" style="stop-color: rgb(63.137% 40.392% 7.8431%)"/>
      <stop offset="1" style="stop-color: rgb(41.638% 22.061% 0%)"/>
    </linearGradient>
    <linearGradient gradientUnits="userSpaceOnUse" x1="199.289" y1="166.617" x2="199.289" y2="188.734" id="gradient-34">
      <stop offset="0" style="stop-color: rgb(63.137% 40.392% 7.8431%)"/>
      <stop offset="1" style="stop-color: rgb(41.638% 22.061% 0%)"/>
    </linearGradient>
    <linearGradient gradientUnits="userSpaceOnUse" x1="83.652" y1="-6.397" x2="83.652" y2="51.764" id="gradient-35" gradientTransform="matrix(1.85414, 0.867513, -0.825813, 1.94776, 44.3511, -42.8746)">
      <stop offset="0" style="stop-color: rgb(60% 37.647% 5.098%)"/>
      <stop offset="1" style="stop-color: rgb(39.551% 20.77% 0%)"/>
    </linearGradient>
    <linearGradient gradientUnits="userSpaceOnUse" x1="27.413" y1="-4.882" x2="27.413" y2="53.279" id="gradient-36" gradientTransform="matrix(-1.85414, 0.867513, -0.825813, -1.94776, 137.381, 100.456)">
      <stop offset="0" style="stop-color: rgb(60% 37.647% 5.098%)"/>
      <stop offset="1" style="stop-color: rgb(39.551% 20.77% 0%)"/>
    </linearGradient>
    <linearGradient gradientUnits="userSpaceOnUse" x1="373.389" y1="92.239" x2="373.389" y2="243.222" id="gradient-43" gradientTransform="matrix(1, 0, 0, 1, -256.496, -8.998428)">
      <stop offset="0" style="stop-color: rgb(13.333% 13.333% 13.333%)"/>
      <stop offset="1" style="stop-color: rgb(9.1726% 9.1726% 9.1726%)"/>
    </linearGradient>
    <linearGradient gradientUnits="userSpaceOnUse" x1="375.357" y1="69.908" x2="375.357" y2="175.244" id="gradient-44" gradientTransform="matrix(1, 0, 0, 1, -257.496, -8.99852)">
      <stop offset="0" style="stop-color: rgb(18.039% 18.039% 18.039%)"/>
      <stop offset="1" style="stop-color: rgb(11.843% 11.843% 11.843%)"/>
    </linearGradient>
    <radialGradient gradientUnits="userSpaceOnUse" cx="375.427" cy="93.679" r="63.729" id="gradient-45" gradientTransform="matrix(0.828293, 0, 0, 1, -201.401, -5.01407)">
      <stop offset="0" style="stop-color: rgb(18.039% 18.039% 18.039%)"/>
      <stop offset="1" style="stop-color: rgb(11.843% 11.843% 11.843%)"/>
    </radialGradient>
    <radialGradient gradientUnits="userSpaceOnUse" cx="376.063" cy="245.203" r="51.889" id="gradient-46" gradientTransform="matrix(1, 0, 0, 1, -256.652022, -5.678876)">
      <stop offset="0" style="stop-color: rgb(18.039% 18.039% 18.039%)"/>
      <stop offset="1" style="stop-color: rgb(11.843% 11.843% 11.843%)"/>
    </radialGradient>
    <linearGradient gradientUnits="userSpaceOnUse" x1="381.654" y1="239.105" x2="381.654" y2="458.227" id="gradient-47" gradientTransform="matrix(0.822845, 0, 0.000001, 0.951131, -180.622, 24.3607)">
      <stop offset="0" style="stop-color: rgb(18.431% 12.157% 68.627%)"/>
      <stop offset="1" style="stop-color: rgb(0% 2.2729% 58.111%)"/>
    </linearGradient>
    <linearGradient gradientUnits="userSpaceOnUse" x1="395.556" y1="316.703" x2="395.556" y2="433.633" id="gradient-39" gradientTransform="matrix(1, 0, 0, 0.589268, -273.182, 130.016)">
      <stop offset="0" style="stop-color: rgb(47.451% 15.294% 0%)"/>
      <stop offset="1" style="stop-color: rgb(30.632% 10.356% 0%)"/>
    </linearGradient>
    <linearGradient gradientUnits="userSpaceOnUse" x1="-81.403" y1="0.572" x2="-81.403" y2="83.37" id="gradient-50" gradientTransform="matrix(0.584288, 0, 0, 0.530321, 157.033, 91.3273)">
      <stop offset="0" style="stop-color: rgb(100% 55.686% 0%)"/>
      <stop offset="1" style="stop-color: rgb(64.89% 27.596% 0%)"/>
    </linearGradient>
    <linearGradient gradientUnits="userSpaceOnUse" x1="256.955" y1="62.728" x2="256.955" y2="312.376" id="gradient-2" gradientTransform="matrix(1, 0, 0, 1, 5.627663, 125.133962)">
      <stop offset="0" style="stop-color: rgb(36.863% 36.863% 36.863%)"/>
      <stop offset="1" style="stop-color: rgb(22.327% 22.327% 22.327%)"/>
    </linearGradient>
    <linearGradient gradientUnits="userSpaceOnUse" x1="257.748" y1="33.037" x2="257.748" y2="80.766" id="gradient-3" gradientTransform="matrix(1, 0, 0, 1, 16.4066, 124.621)">
      <stop offset="0" style="stop-color: rgb(36.863% 36.863% 36.863%)"/>
      <stop offset="1" style="stop-color: rgb(22.327% 22.327% 22.327%)"/>
    </linearGradient>
    <filter id="gaussian-blur-filter-0" bx:preset="gaussian-blur 1 6.5" color-interpolation-filters="sRGB" x="-50%" y="-50%" width="200%" height="200%">
      <feGaussianBlur stdDeviation="6.5 6.5" edgeMode="none"/>
    </filter>
  </defs>
  <path d="M 83.359 253.188 L 167.878 251.791 C 189.005 283.093 145.924 331.696 192.712 431.704 C 174.289 459.175 79.637 493.355 50.286 422.394 C 41.557 417.651 74.94 248.613 83.359 253.188 Z" style="fill: url(&quot;#gradient-47&quot;); stroke-width: 7px; stroke: rgb(5, 0, 41); transform-box: fill-box; transform-origin: 50% 50%;" transform="matrix(0.99557, -0.094025, 0.094025, 0.99557, 0, 0)"/>
  <path d="M 107.88 87.513 C 113.887 81.816 119.896 81.816 125.904 87.513 L 220.519 177.248 C 226.527 182.944 226.527 188.644 220.519 194.341 C 107.88 284.076 13.265 194.341 13.265 194.341 C 7.257 188.644 7.257 182.944 13.265 177.248 L 107.88 87.513 Z" style="stroke-width: 6px; stroke: rgb(16, 16, 16); fill: url(&quot;#gradient-43&quot;); transform-box: fill-box; transform-origin: 50% 50%;" transform="matrix(0.994864, -0.10122, 0.10122, 0.994864, 0, -0.000003)"/>
  <g transform="matrix(1.98563, -0.425898, 0.426321, 2.08813, -141.928, 188.363)" style="transform-origin: 209.175px 154.383px;">
    <path d="M 216.702 152.108 L 228.143 126.132 C 228.84 124.549 228.126 122.698 226.549 122 L 222.717 120.3 C 221.139 119.6 219.296 120.316 218.598 121.899 L 207.159 147.875 C 206.725 148.859 206.836 149.947 207.363 150.796 L 198.518 170.877 C 197.82 172.461 198.535 174.311 200.112 175.011 L 200.87 175.347 C 202.448 176.047 204.292 175.332 204.989 173.748 L 213.699 153.973 C 214.95 154.031 216.166 153.326 216.702 152.108 Z" style="stroke-width: 2px; stroke: rgb(69, 38, 0); fill: url(&quot;#gradient-31&quot;);"/>
    <path d="M 207.58 181.535 C 207.229 182.402 206.805 183.21 206.326 183.95 C 205.867 183.393 205.308 182.952 204.659 182.665 C 201.548 181.29 197.501 183.934 195.62 188.572 C 195.598 188.626 195.577 188.68 195.555 188.734 C 195.36 188.667 195.166 188.591 194.974 188.507 C 190.395 186.482 188.615 180.079 190.997 174.206 C 193.381 168.331 199.025 165.21 203.604 167.234 C 208.184 169.258 209.964 175.661 207.58 181.535 Z" style="transform-origin: 200.772px 175.202px; stroke-width: 2px; stroke: rgb(69, 38, 0); fill: url(&quot;#gradient-32&quot;);"/>
  </g>
  <rect x="79.697" y="386.37" width="35.256" height="92.014" style="stroke-width: 3px; fill: rgb(69, 38, 0); stroke: rgb(31, 15, 0);"/>
  <g transform="matrix(-1.67797, -1.38569, 1.36815, -1.63482, -22.5811, 90.3714)" style="transform-origin: 209.175px 154.383px;">
    <path d="M 216.702 152.108 L 228.143 126.132 C 228.84 124.549 228.126 122.698 226.549 122 L 222.717 120.3 C 221.139 119.6 219.296 120.316 218.598 121.899 L 207.159 147.875 C 206.725 148.859 206.836 149.947 207.363 150.796 L 198.518 170.877 C 197.82 172.461 198.535 174.311 200.112 175.011 L 200.87 175.347 C 202.448 176.047 204.292 175.332 204.989 173.748 L 213.699 153.973 C 214.95 154.031 216.166 153.326 216.702 152.108 Z" style="stroke-width: 2px; fill: url(&quot;#gradient-33&quot;); stroke: rgb(0, 255, 213);"/>
    <path d="M 207.58 181.535 C 207.229 182.402 206.805 183.21 206.326 183.95 C 205.867 183.393 205.308 182.952 204.659 182.665 C 201.548 181.29 197.501 183.934 195.62 188.572 C 195.598 188.626 195.577 188.68 195.555 188.734 C 195.36 188.667 195.166 188.591 194.974 188.507 C 190.395 186.482 188.615 180.079 190.997 174.206 C 193.381 168.331 199.025 165.21 203.604 167.234 C 208.184 169.258 209.964 175.661 207.58 181.535 Z" style="transform-origin: 200.772px 175.202px; stroke-width: 2px; fill: url(&quot;#gradient-34&quot;); stroke: rgb(0, 255, 213);"/>
  </g>
  <rect x="121.437" y="383.597" width="37.461" height="95.453" style="stroke-width: 3px; fill: rgb(69, 38, 0); stroke: rgb(31, 15, 0);"/>
  <rect x="76.973" y="248.284" width="85.823" height="194.382" style="stroke: rgb(23, 0, 33); stroke-width: 6px; fill: rgb(50, 0, 90);"/>
  <path d="M 111.602 316.639 L 133.503 316.639 L 133.146 384.912 C 133.146 385.491 111.244 385.817 111.244 385.238 L 111.602 316.639 Z" style="fill: rgb(209, 119, 0); stroke-width: 3px; stroke: url(&quot;#gradient-39&quot;);"/>
  <path d="M 120.864 -339.26 L 186.225 -235.888 L 55.502 -235.888 L 120.864 -339.26 Z" bx:shape="triangle 55.502 -339.26 130.723 103.372 0.5 0 1@1f9baef3" style="fill: rgb(26, 26, 26); stroke-width: 5px; stroke: rgb(16, 16, 16);" transform="matrix(1, 0, 0, -1, 0, 0)"/>
  <path d="M 121.64 292.499 C 133.017 291.501 161.361 245.007 153.721 245.677 L 86.861 245.677 C 79.91 247.069 111.912 294.45 121.64 292.499 Z" style="stroke-width: 3px; fill: url(&quot;#gradient-30&quot;); stroke: rgb(16, 16, 16);"/>
  <path d="M 137.339 379.16 L 153.778 379.16 L 153.778 423.403 L 140.59 432.229 L 137.339 379.16 Z" style="stroke-width: 3px; fill: url(&quot;#gradient-21&quot;); stroke: url(&quot;#gradient-22&quot;);"/>
  <path d="M 149.261 384 L 165.701 384 L 165.701 439.06 L 151.702 443.045 C 152.266 443.935 152.623 389.296 149.261 384 Z" style="stroke-width: 3px; fill: url(&quot;#gradient-24&quot;); stroke: url(&quot;#gradient-25&quot;);"/>
  <path d="M 77.08 391.521 C 85.571 382.602 169.693 388.929 167.225 391.521 L 167.225 373.752 L 77.08 373.752 L 77.08 391.521 Z" style="stroke-width: 3px; fill: url(&quot;#gradient-26&quot;); stroke: url(&quot;#gradient-27&quot;);"/>
  <path d="M 222.677 25.726 C 218.09 21.015 145.844 120.368 155.203 129.814 C 152.632 127.833 153.647 122.031 150.613 120.611 C 148.245 119.503 142.013 122.702 139.586 122.047 C 135.392 114.556 219.485 20.022 222.677 25.726 Z" style="stroke: rgb(87, 49, 0); fill: url(&quot;#gradient-35&quot;); transform-origin: 97.213px 39.334px;"/>
  <path d="M 24.618 28.955 C 29.204 24.243 101.451 123.595 92.091 133.043 C 94.661 131.061 93.648 125.259 96.68 123.839 C 99.049 122.732 105.28 125.931 107.708 125.276 C 111.903 117.784 27.81 23.25 24.618 28.955 Z" style="stroke: rgb(87, 49, 0); fill: url(&quot;#gradient-36&quot;); transform-origin: 40.974px 40.848px;"/>
  <path d="M 152.505 250.167 C 150.816 261.703 137.799 275.25 121.288 275.288 C 104.777 275.326 91.29 265.024 91.29 252.362 C 91.29 239.7 104.721 229.436 121.288 229.436 C 137.855 229.436 154.194 238.631 152.505 250.167 Z" style="fill: rgb(78, 43, 0);"/>
  <path d="M 184.034 164.019 C 184.034 204.751 154.208 263.553 117.416 263.553 C 80.623 263.553 50.794 204.751 50.794 164.019 C 50.794 123.283 80.623 90.263 117.416 90.263 C 154.208 90.263 184.034 123.283 184.034 164.019 Z" style="stroke-width: 3px; fill: url(&quot;#gradient-28&quot;); stroke: url(&quot;#gradient-29&quot;);"/>
  <path d="M 187.133 147.415 C 178.666 171.836 143.518 189.892 117.996 181.635 C 92.474 173.378 48.859 166.314 48.859 147.415 C 48.859 128.516 79.813 113.195 117.996 113.195 C 156.179 113.195 195.6 122.994 187.133 147.415 Z" style="fill: rgb(101, 56, 0);"/>
  <path d="M 116.821 60.909 C 152.47 60.909 180.636 81.461 182.309 122.155 L 196.473 133.996 C 196.483 134.214 196.489 134.434 196.489 134.652 C 196.489 152.103 161.287 166.245 117.863 166.245 C 74.437 166.245 39.231 152.103 39.231 134.652 C 39.231 134.434 39.236 134.214 39.248 133.996 L 48.331 130.23 C 60.738 97.068 81.174 60.909 116.821 60.909 Z" style="stroke: rgb(16, 16, 16); stroke-width: 6px; fill: url(&quot;#gradient-44&quot;);"/>
  <path d="M 119.555 267.762 C 93.2 267.762 71.368 240.958 67.521 219.119 L 85.338 225.236 C 88.983 216.391 98.271 210.667 111.624 210.667 C 124.979 210.667 130.868 218.758 134.512 227.603 L 178.671 208.75 C 174.126 230.298 145.317 267.762 119.555 267.762 Z" style="stroke-width: 3px; stroke: rgb(16, 16, 16); fill: url(&quot;#gradient-46&quot;); transform-box: fill-box; transform-origin: 50% 50%;" transform="matrix(0.998373, -0.057018, 0.057018, 0.998373, -0.078301, -0.20812)"/>
  <path d="M 121.211 99.077 L 177.285 99.476 C 179.449 99.085 187.769 118.756 184.129 119.414 L 121.211 119.215 L 121.211 99.077 Z" style="stroke-width: 4px; stroke: rgb(16, 16, 16); fill: rgb(36, 36, 36);"/>
  <path d="M 50.921 118.289 L 106.996 117.89 C 109.16 118.281 117.48 98.61 113.839 97.952 L 50.921 98.151 L 50.921 118.289 Z" style="stroke-width: 4px; stroke: rgb(16, 16, 16); fill: rgb(36, 36, 36); transform-box: fill-box; transform-origin: 50% 50%;" transform="matrix(-1, 0, 0, -1, 0.000041, 0.000001)"/>
  <path d="M 162.348 86.336 C 162.348 108.828 138.713 127.06 109.56 127.06 C 80.409 127.06 56.775 108.828 56.775 86.336 C 56.775 70.676 68.232 57.081 85.032 50.268 C 79.619 55.76 76.319 63.057 76.319 71.066 C 76.319 88.151 91.339 102 109.865 102 C 128.393 102 143.412 88.151 143.412 71.066 C 143.412 63.263 140.28 56.134 135.11 50.692 C 151.353 57.635 162.348 70.996 162.348 86.336 Z" style="stroke-width: 4px; stroke: rgb(16, 16, 16); fill: url(&quot;#gradient-45&quot;);"/>
  <path d="M 107.355 92.545 C 108.765 91.325 110.176 91.325 111.586 92.545 L 122.505 101.986 C 121.802 101.905 121.06 101.862 120.292 101.862 C 115.853 101.862 112.254 103.297 112.254 105.067 C 112.254 106.837 115.853 108.272 120.292 108.272 C 123.541 108.272 126.34 107.503 127.607 106.398 L 133.802 111.756 C 135.214 112.975 135.214 114.194 133.802 115.414 L 111.586 134.625 C 110.176 135.844 108.765 135.844 107.355 134.625 L 85.139 115.414 C 83.729 114.194 83.729 112.975 85.139 111.756 L 92.577 105.324 C 92.712 107.264 96.087 108.817 100.235 108.817 C 104.466 108.817 107.898 107.199 107.898 105.204 C 107.898 103.208 104.466 101.59 100.235 101.59 C 98.798 101.59 97.453 101.777 96.304 102.101 L 107.355 92.545 Z M 109.776 120.681 C 103.76 120.681 98.883 122.665 98.883 125.112 C 98.883 127.559 103.76 129.544 109.776 129.544 C 115.791 129.544 120.668 127.559 120.668 125.112 C 120.668 122.665 115.791 120.681 109.776 120.681 Z" style="fill: url(&quot;#gradient-50&quot;); stroke: rgb(110, 39, 4); stroke-width: 3px;"/>
  <path d="M 78.143 178.661 C 84.64 182.119 92.613 191.831 89.503 197.96 C 86.392 204.09 73.375 204.316 66.878 200.857 C 60.379 197.401 52.42 183.069 55.532 176.94 C 58.643 170.812 71.646 175.204 78.143 178.661 Z" style="stroke-width: 2px; stroke: rgb(101, 56, 0); transform-origin: 94.281px 204.318px;"/>
  <path stroke-width="0" d="M 111.014 58.98 C 114.757 58.78 123.365 60.388 130.025 63.733 C 138.247 67.862 151.389 79.659 156.166 84.17 C 158.694 86.557 158.14 88.098 160.444 89.398 C 163.575 91.166 170.364 90.291 174.702 92.25 C 179.086 94.23 183.801 97.599 186.585 101.281 C 189.238 104.79 190.534 109.275 191.338 113.638 C 192.166 118.132 192.109 123.749 191.338 127.897 C 190.662 131.53 185.821 133.481 187.535 137.403 C 190.865 145.019 225.244 160.05 231.262 168.772 C 234.717 173.78 234.363 177.982 233.163 182.08 C 231.893 186.42 227.246 190.607 223.182 193.962 C 218.922 197.479 215.034 199.645 207.973 202.517 C 197.565 206.751 169.855 207.602 163.771 215.35 C 159.06 221.349 160.29 237.896 165.197 239.59 C 171.968 241.928 198.306 216.025 210.824 210.122 C 219.818 205.881 225.693 204.594 233.638 203.468 C 241.832 202.307 253.302 201.569 259.304 203.468 C 263.658 204.845 266.503 207.43 268.335 210.597 C 270.228 213.871 271.173 219.348 270.236 222.955 C 269.329 226.444 267.263 229.586 263.106 231.985 C 256.916 235.558 244.088 233.836 232.688 238.639 C 217.867 244.884 189.037 261.296 181.832 270.484 C 177.745 275.696 180.999 279.303 178.98 284.742 C 176.353 291.819 167.939 300.357 165.672 309.458 C 163.302 318.972 163.779 330.701 165.672 340.827 C 167.57 350.982 174.826 359.578 177.079 370.295 C 179.494 381.783 175.185 403.206 178.98 407.842 C 181.213 410.57 185.709 406.626 188.961 407.842 C 192.704 409.242 197.775 413.185 199.893 416.873 C 201.907 420.38 202.731 425.623 201.794 429.231 C 200.887 432.72 197.832 436.429 194.665 438.261 C 191.39 440.154 186.973 440.303 182.307 440.162 C 176.746 439.995 168.584 438.865 163.296 436.36 C 158.457 434.068 153.836 429.523 151.413 426.379 C 149.627 424.061 149.177 423.283 148.562 419.725 C 147.428 413.175 150.538 397.857 148.562 386.454 C 146.428 374.145 137.536 362.065 135.253 348.431 C 132.835 333.983 132.55 315.859 135.253 301.853 C 137.733 289.009 151.061 273.923 149.512 267.157 C 148.484 262.667 140.955 263.264 138.105 260.027 C 135.242 256.776 133.361 252.06 132.402 247.67 C 131.424 243.198 132.298 239.22 132.402 233.411 C 132.538 225.745 130.191 212.868 133.352 204.894 C 136.346 197.341 142.343 191.121 149.987 186.357 C 158.971 180.759 184.439 181.04 185.634 175.426 C 186.792 169.987 163.721 161.856 159.018 153.562 C 154.952 146.393 155.619 135.164 156.166 129.798 C 156.514 126.393 160.009 124.646 159.018 122.669 C 157.726 120.089 151.29 120.702 145.235 116.965 C 134.995 110.647 107.847 91.197 101.983 82.269 C 98.751 77.349 99.145 73.519 100.082 69.912 C 100.989 66.422 105.127 62.655 107.211 60.881 C 108.611 59.69 108.982 59.088 111.014 58.98 Z" style="stroke-width: 2px; filter: url(&quot;#gaussian-blur-filter-0&quot;); fill: rgba(0, 255, 213, 0.53);"/>
  <path d="M 123.925 178.093 C 116.148 181.734 106.458 191.699 109.965 197.782 C 113.472 203.863 128.85 203.759 136.626 200.117 C 144.401 196.477 154.203 181.87 150.696 175.788 C 147.187 169.704 131.699 174.451 123.925 178.093 Z" style="stroke-width: 2px; stroke: rgb(101, 56, 0); transform-origin: 158.504px 201.763px;"/>
  <g transform="matrix(0.991722, -0.128414, 0.128414, 0.991722, -24.4863, -83.2527)" style="transform-origin: 267.302px 297.48px;">
    <path d="M 253.519 258.065 L 257.287 258.065 L 257.287 187.863 L 267.256 187.863 L 267.256 258.065 L 271.646 258.065 L 271.646 357.786 L 268.429 357.786 L 268.429 437.511 L 257.25 437.511 L 257.25 357.786 L 253.519 357.786 L 253.519 258.065 Z" style="stroke-width: 4px; transform-box: fill-box; transform-origin: 50% 50%; stroke: rgb(0, 255, 213); fill: url(&quot;#gradient-2&quot;);" transform="matrix(0.995605, 0.093653, -0.093653, 0.995605, -0.000004, 0.000003)"/>
    <path d="M 274.155 157.658 L 290.426 205.387 L 257.883 205.387 L 274.155 157.658 Z" bx:shape="triangle 257.883 157.658 32.543 47.729 0.5 0 1@d1e02118" style="stroke-width: 4px; transform-box: fill-box; transform-origin: 50% 50%; stroke: rgb(0, 255, 213); fill: url(&quot;#gradient-3&quot;);" transform="matrix(0.994969, 0.100184, -0.100184, 0.994969, -0.000006, 1.000062)"/>
  </g>
  <ellipse style="fill: rgb(0, 255, 213);" cx="232.518" cy="75.49" rx="63.705" ry="64.61"/>
  <ellipse style="fill: rgb(151, 255, 238);" cx="232.144" cy="74.91" rx="53.194" ry="51.575"/>
  <ellipse style="fill: rgb(255, 255, 255);" cx="230.732" cy="75.4" rx="32.376" ry="31.955"/>
</svg>