<?xml version="1.0" encoding="utf-8"?>
<svg xmlns="http://www.w3.org/2000/svg" viewBox="0 0 120 220" xmlns:bx="https://boxy-svg.com">
  <defs>
    <linearGradient gradientUnits="userSpaceOnUse" x1="191.154" y1="181.886" x2="191.154" y2="190.487" id="gradient-6" gradientTransform="matrix(0.201758, 0, 0, 2.41251, 27.7617, -272.94)">
      <stop offset="0" style="stop-color: rgb(100% 61.176% 0%)"/>
      <stop offset="1" style="stop-color: rgb(63.733% 31.968% 0%)"/>
    </linearGradient>
    <linearGradient gradientUnits="userSpaceOnUse" x1="191.154" y1="181.886" x2="191.154" y2="190.487" id="gradient-7" gradientTransform="matrix(0.201758, 0, 0, 2.41251, 27.7617, -272.94)">
      <stop offset="0" style="stop-color: rgb(52.157% 17.255% 0%)"/>
      <stop offset="1" style="stop-color: rgb(34.15% 10.428% 0%)"/>
    </linearGradient>
    <linearGradient gradientUnits="userSpaceOnUse" x1="191.154" y1="181.886" x2="191.154" y2="190.487" id="gradient-4" gradientTransform="matrix(0.201758, 0, 0, 3.00235, 33.6357, -377.954)">
      <stop offset="0" style="stop-color: rgb(100% 61.176% 0%)"/>
      <stop offset="1" style="stop-color: rgb(63.733% 31.968% 0%)"/>
    </linearGradient>
    <linearGradient gradientUnits="userSpaceOnUse" x1="191.154" y1="181.886" x2="191.154" y2="190.487" id="gradient-5" gradientTransform="matrix(0.201758, 0, 0, 3.00235, 33.6357, -377.954)">
      <stop offset="0" style="stop-color: rgb(52.157% 17.255% 0%)"/>
      <stop offset="1" style="stop-color: rgb(34.15% 10.428% 0%)"/>
    </linearGradient>
    <linearGradient gradientUnits="userSpaceOnUse" x1="191.154" y1="181.886" x2="191.154" y2="190.487" id="gradient-2" gradientTransform="matrix(1.10643, 0, 0, 0.968956, -155.717, -12.916)">
      <stop offset="0" style="stop-color: rgb(100% 61.176% 0%)"/>
      <stop offset="1" style="stop-color: rgb(63.733% 31.968% 0%)"/>
    </linearGradient>
    <linearGradient gradientUnits="userSpaceOnUse" x1="191.154" y1="181.886" x2="191.154" y2="190.487" id="gradient-3" gradientTransform="matrix(1.10643, 0, 0, 0.968956, -155.717, -12.916)">
      <stop offset="0" style="stop-color: rgb(52.157% 17.255% 0%)"/>
      <stop offset="1" style="stop-color: rgb(34.15% 10.428% 0%)"/>
    </linearGradient>
    <linearGradient gradientUnits="userSpaceOnUse" x1="52.462" y1="30.369" x2="52.462" y2="111.641" id="gradient-11">
      <stop offset="0" style="stop-color: rgb(85.882% 60.392% 29.02%)"/>
      <stop offset="1" style="stop-color: rgb(54.499% 33.003% 0%)"/>
    </linearGradient>
    <linearGradient gradientUnits="userSpaceOnUse" x1="52.462" y1="30.369" x2="52.462" y2="111.641" id="gradient-14">
      <stop offset="0" style="stop-color: rgb(39.608% 21.961% 0%)"/>
      <stop offset="1" style="stop-color: rgb(25.446% 14.002% 0%)"/>
    </linearGradient>
    <linearGradient gradientUnits="userSpaceOnUse" x1="53.607" y1="-134.16" x2="53.607" y2="-104.887" id="gradient-0" gradientTransform="matrix(1, 0, 0, 1.119337, 0, 16.010288)">
      <stop offset="0" style="stop-color: rgb(73.333% 49.412% 17.647%)"/>
      <stop offset="1" style="stop-color: rgb(47.313% 27.05% 0%)"/>
    </linearGradient>
    <linearGradient gradientUnits="userSpaceOnUse" x1="213.33" y1="120.032" x2="213.33" y2="175.616" id="gradient-8">
      <stop offset="0" style="stop-color: rgb(81.569% 56.863% 25.098%)"/>
      <stop offset="1" style="stop-color: rgb(51.965% 31.143% 0%)"/>
    </linearGradient>
    <linearGradient gradientUnits="userSpaceOnUse" x1="199.289" y1="166.617" x2="199.289" y2="188.734" id="gradient-9">
      <stop offset="0" style="stop-color: rgb(81.569% 56.863% 25.098%)"/>
      <stop offset="1" style="stop-color: rgb(51.965% 31.143% 0%)"/>
    </linearGradient>
    <linearGradient gradientUnits="userSpaceOnUse" x1="213.33" y1="120.032" x2="213.33" y2="175.616" id="gradient-10">
      <stop offset="0" style="stop-color: rgb(63.137% 40.392% 7.8431%)"/>
      <stop offset="1" style="stop-color: rgb(41.638% 22.061% 0%)"/>
    </linearGradient>
    <linearGradient gradientUnits="userSpaceOnUse" x1="199.289" y1="166.617" x2="199.289" y2="188.734" id="gradient-13">
      <stop offset="0" style="stop-color: rgb(63.137% 40.392% 7.8431%)"/>
      <stop offset="1" style="stop-color: rgb(41.638% 22.061% 0%)"/>
    </linearGradient>
    <linearGradient gradientUnits="userSpaceOnUse" x1="83.652" y1="-6.397" x2="83.652" y2="51.764" id="gradient-15">
      <stop offset="0" style="stop-color: rgb(60% 37.647% 5.098%)"/>
      <stop offset="1" style="stop-color: rgb(39.551% 20.77% 0%)"/>
    </linearGradient>
    <linearGradient gradientUnits="userSpaceOnUse" x1="27.413" y1="-4.882" x2="27.413" y2="53.279" id="gradient-18">
      <stop offset="0" style="stop-color: rgb(60% 37.647% 5.098%)"/>
      <stop offset="1" style="stop-color: rgb(39.551% 20.77% 0%)"/>
    </linearGradient>
    <linearGradient gradientUnits="userSpaceOnUse" x1="54.855" y1="134.766" x2="54.855" y2="214.16" id="gradient-16" gradientTransform="matrix(1, 0, 0, 1, 1, 0)">
      <stop offset="0" style="stop-color: rgb(27.059% 14.902% 0%)"/>
      <stop offset="1" style="stop-color: rgb(16.816% 10.917% 0%)"/>
    </linearGradient>
    <linearGradient gradientUnits="userSpaceOnUse" x1="54.855" y1="134.766" x2="54.855" y2="214.16" id="gradient-12" gradientTransform="matrix(1, 0, 0, 1, 1, 0)">
      <stop offset="0" style="stop-color: rgb(58.039% 36.078% 3.1373%)"/>
      <stop offset="1" style="stop-color: rgb(38.127% 20.134% 0%)"/>
    </linearGradient>
    <linearGradient gradientUnits="userSpaceOnUse" x1="54.162" y1="-147.15" x2="54.162" y2="-98.669" id="gradient-17">
      <stop offset="0" style="stop-color: rgb(76.471% 42.353% 0%)"/>
      <stop offset="1" style="stop-color: rgb(50.176% 21.895% 0%)"/>
    </linearGradient>
    <linearGradient gradientUnits="userSpaceOnUse" x1="54.456" y1="94.773" x2="54.456" y2="211.761" id="gradient-1">
      <stop offset="0" style="stop-color: rgb(14.51% 47.843% 74.118%)"/>
      <stop offset="1" style="stop-color: rgb(0% 29.49% 49.853%)"/>
    </linearGradient>
    <linearGradient gradientUnits="userSpaceOnUse" x1="54.456" y1="94.773" x2="54.456" y2="211.761" id="gradient-19">
      <stop offset="0" style="stop-color: rgb(0% 17.647% 42.745%)"/>
      <stop offset="1" style="stop-color: rgb(0% 12.46% 31.849%)"/>
    </linearGradient>
    <linearGradient gradientUnits="userSpaceOnUse" x1="55.731" y1="15.909" x2="55.731" y2="69.25" id="gradient-20">
      <stop offset="0" style="stop-color: rgb(48.627% 39.216% 0%)"/>
      <stop offset="1" style="stop-color: rgb(30.257% 23.42% 0%)"/>
    </linearGradient>
    <linearGradient gradientUnits="userSpaceOnUse" x1="55.731" y1="15.909" x2="55.731" y2="69.25" id="gradient-21">
      <stop offset="0" style="stop-color: rgb(100% 77.647% 0%)"/>
      <stop offset="1" style="stop-color: rgb(59.984% 43.628% 0%)"/>
    </linearGradient>
  </defs>
  <path d="M 83.681 168.557 C 83.681 187.218 71.224 214.16 55.856 214.16 C 40.487 214.16 28.029 187.218 28.029 168.557 C 28.029 149.894 40.488 134.766 55.856 134.766 C 71.224 134.766 83.681 149.894 83.681 168.557 Z" style="stroke-width: 3px; stroke: url(&quot;#gradient-16&quot;); fill: url(&quot;#gradient-12&quot;); transform-origin: 55.856px 174.463px;" transform="matrix(0.999865, 0.016423, -0.016423, 0.999865, 0, 0)"/>
  <rect x="37.681" y="192.487" width="17.37" height="25.621" style="stroke-width: 3px; fill: rgb(69, 38, 0); stroke: rgb(31, 15, 0);"/>
  <rect x="55.485" y="189.27" width="18.456" height="25.186" style="stroke-width: 3px; fill: rgb(69, 38, 0); stroke: rgb(31, 15, 0);"/>
  <g transform="matrix(0.994898, -0.10089, 0.10089, 0.994898, -184.017, -15.9381)" style="transform-origin: 209.175px 154.383px;">
    <path d="M 216.702 152.108 L 228.143 126.132 C 228.84 124.549 228.126 122.698 226.549 122 L 222.717 120.3 C 221.139 119.6 219.296 120.316 218.598 121.899 L 207.159 147.875 C 206.725 148.859 206.836 149.947 207.363 150.796 L 198.518 170.877 C 197.82 172.461 198.535 174.311 200.112 175.011 L 200.87 175.347 C 202.448 176.047 204.292 175.332 204.989 173.748 L 213.699 153.973 C 214.95 154.031 216.166 153.326 216.702 152.108 Z" style="stroke-width: 2px; fill: url(&quot;#gradient-8&quot;); stroke: rgb(69, 38, 0);"/>
    <path d="M 207.58 181.535 C 207.229 182.402 206.805 183.21 206.326 183.95 C 205.867 183.393 205.308 182.952 204.659 182.665 C 201.548 181.29 197.501 183.934 195.62 188.572 C 195.598 188.626 195.577 188.68 195.555 188.734 C 195.36 188.667 195.166 188.591 194.974 188.507 C 190.395 186.482 188.615 180.079 190.997 174.206 C 193.381 168.331 199.025 165.21 203.604 167.234 C 208.184 169.258 209.964 175.661 207.58 181.535 Z" style="transform-origin: 200.772px 175.202px; stroke-width: 2px; fill: url(&quot;#gradient-9&quot;); stroke: rgb(69, 38, 0);"/>
  </g>
  <g transform="matrix(-0.997786, -0.066508, -0.066508, 0.997786, -121.844, -19.6567)" style="transform-origin: 209.175px 154.383px;">
    <path d="M 216.702 152.108 L 228.143 126.132 C 228.84 124.549 228.126 122.698 226.549 122 L 222.717 120.3 C 221.139 119.6 219.296 120.316 218.598 121.899 L 207.159 147.875 C 206.725 148.859 206.836 149.947 207.363 150.796 L 198.518 170.877 C 197.82 172.461 198.535 174.311 200.112 175.011 L 200.87 175.347 C 202.448 176.047 204.292 175.332 204.989 173.748 L 213.699 153.973 C 214.95 154.031 216.166 153.326 216.702 152.108 Z" style="stroke-width: 2px; stroke: rgb(76, 42, 0); fill: url(&quot;#gradient-10&quot;);"/>
    <path d="M 207.58 181.535 C 207.229 182.402 206.805 183.21 206.326 183.95 C 205.867 183.393 205.308 182.952 204.659 182.665 C 201.548 181.29 197.501 183.934 195.62 188.572 C 195.598 188.626 195.577 188.68 195.555 188.734 C 195.36 188.667 195.166 188.591 194.974 188.507 C 190.395 186.482 188.615 180.079 190.997 174.206 C 193.381 168.331 199.025 165.21 203.604 167.234 C 208.184 169.258 209.964 175.661 207.58 181.535 Z" style="transform-origin: 200.772px 175.202px; stroke-width: 2px; stroke: rgb(76, 42, 0); fill: url(&quot;#gradient-13&quot;);"/>
  </g>
  <path d="M 34.6 94.773 L 74.31 94.773 L 74.31 204.697 C 74.593 212.803 34.973 215.343 34.6 204.697 L 34.6 94.773 Z" style="stroke-width: 3px; fill: url(&quot;#gradient-1&quot;); stroke: url(&quot;#gradient-19&quot;);"/>
  <path d="M 49.599 136.538 L 60.389 136.538 L 60.213 210.311 C 60.213 210.937 49.423 211.289 49.423 210.663 L 49.599 136.538 Z" style="fill: rgb(255, 255, 255); stroke: rgb(40, 46, 76);"/>
  <path d="M 54.162 -147.15 L 86.364 -98.669 L 21.96 -98.669 L 54.162 -147.15 Z" bx:shape="triangle 21.96 -147.15 64.404 48.481 0.5 0 1@96c0d4f4" style="stroke-width: 3px; stroke: rgb(125, 41, 0); fill: url(&quot;#gradient-17&quot;);" transform="matrix(1, 0, 0, -1, 0, 0)"/>
  <path d="M 53.607 -134.16 L 69.866 -101.394 L 37.348 -101.394 L 53.607 -134.16 Z" bx:shape="triangle 37.348 -134.16 32.518 32.766 0.5 0 1@fefa0e13" style="stroke-width: 3px; stroke: rgb(128, 42, 0); fill: url(&quot;#gradient-0&quot;);" transform="matrix(1, 0, 0, -1, 0, 0)"/>
  <path d="M 62.279 165.86 L 70.378 165.86 L 70.378 186.61 L 63.881 190.749 L 62.279 165.86 Z" style="fill: url(&quot;#gradient-6&quot;); stroke: url(&quot;#gradient-7&quot;); stroke-width: 3px;"/>
  <path d="M 68.153 168.13 L 76.252 168.13 L 76.252 193.953 L 69.355 195.822 C 69.633 196.239 69.809 170.614 68.153 168.13 Z" style="fill: url(&quot;#gradient-4&quot;); stroke: url(&quot;#gradient-5&quot;); stroke-width: 3px;"/>
  <path d="M 33.576 163.324 C 37.759 167.507 79.204 164.54 77.988 163.324 L 77.988 171.658 L 33.576 171.658 L 33.576 163.324 Z" style="fill: url(&quot;#gradient-2&quot;); stroke: url(&quot;#gradient-3&quot;); stroke-width: 3px;"/>
  <path d="M 93.347 -6.355 C 90.384 -7.454 76.827 49.593 82.842 51.764 C 81.307 51.43 80.656 48.741 79.02 48.741 C 77.743 48.741 75.549 51.361 74.331 51.567 C 71.014 49.198 90.822 -8.159 93.347 -6.355 Z" style="transform-origin: 83.652px 22.684px; fill: url(&quot;#gradient-15&quot;); stroke: rgb(87, 49, 0);" transform="matrix(0.913491, 0.406859, -0.406859, 0.913491, -0.000001, -0.000001)"/>
  <path d="M 37.108 53.237 C 34.145 54.336 20.588 -2.711 26.603 -4.882 C 25.068 -4.548 24.417 -1.859 22.781 -1.859 C 21.504 -1.859 19.31 -4.479 18.092 -4.685 C 14.775 -2.316 34.583 55.041 37.108 53.237 Z" style="transform-origin: 27.413px 24.198px; fill: url(&quot;#gradient-18&quot;); stroke: rgb(87, 49, 0);" transform="matrix(-0.913491, 0.406859, -0.406859, -0.913491, 0.000012, -0.000005)"/>
  <path d="M 85.284 64.96 C 85.284 84.063 70.59 111.641 52.463 111.641 C 34.336 111.641 19.64 84.063 19.64 64.96 C 19.64 45.855 34.336 30.369 52.463 30.369 C 70.59 30.369 85.284 45.855 85.284 64.96 Z" style="stroke-width: 3px; fill: url(&quot;#gradient-11&quot;); stroke: url(&quot;#gradient-14&quot;);"/>
  <path d="M 37.63 70.301 C 40.831 71.923 44.759 76.478 43.227 79.352 C 41.694 82.227 35.281 82.333 32.08 80.711 C 28.878 79.09 24.957 72.369 26.49 69.494 C 28.023 66.62 34.429 68.68 37.63 70.301 Z" style="stroke-width: 2px; stroke: rgb(101, 56, 0); transform-origin: 45.581px 82.334px;"/>
  <path d="M 58.45 69.33 C 54.618 71.27 49.844 76.58 51.572 79.822 C 53.3 83.062 60.876 83.007 64.707 81.066 C 68.538 79.126 73.367 71.343 71.639 68.102 C 69.911 64.86 62.28 67.389 58.45 69.33 Z" style="stroke-width: 2px; stroke: rgb(101, 56, 0); transform-origin: 75.486px 81.943px;"/>
  <path d="M 60.922 15.909 L 109.581 58.383 C 101.202 74.76 -4.22 70.854 2.16 58.383 L 60.922 15.909 Z" style="stroke-width: 3px; stroke: url(&quot;#gradient-20&quot;); fill: url(&quot;#gradient-21&quot;);"/>
</svg>