<?xml version="1.0" encoding="utf-8"?>
<svg xmlns="http://www.w3.org/2000/svg" viewBox="0 0 160 300">
  <defs>
    <radialGradient gradientUnits="userSpaceOnUse" cx="82.323" cy="21.031" r="5.793" id="gradient-5" gradientTransform="matrix(1.508892, 0, 0, 1.484711, -40.765343, -9.784037)">
      <stop offset="0" style="stop-color: rgb(100% 0% 0%)"/>
      <stop offset="1" style="stop-color: rgb(64.913% 0% 0%)"/>
    </radialGradient>
    <linearGradient gradientUnits="userSpaceOnUse" x1="26.09" y1="131.889" x2="26.09" y2="144.053" id="gradient-7">
      <stop offset="0" style="stop-color: rgb(9.0196% 79.608% 69.804%)"/>
      <stop offset="1" style="stop-color: rgb(0% 47.058% 39.946%)"/>
    </linearGradient>
    <linearGradient gradientUnits="userSpaceOnUse" x1="26.09" y1="131.889" x2="26.09" y2="144.053" id="gradient-6">
      <stop offset="0" style="stop-color: rgb(89.02% 89.02% 89.02%)"/>
      <stop offset="1" style="stop-color: rgb(50.754% 50.754% 50.754%)"/>
    </linearGradient>
    <linearGradient gradientUnits="userSpaceOnUse" x1="26.09" y1="131.889" x2="26.09" y2="144.053" id="gradient-8" gradientTransform="matrix(1, 0, 0, 1, 32.188822, 19.740105)">
      <stop offset="0" style="stop-color: rgb(9.0196% 79.608% 69.804%)"/>
      <stop offset="1" style="stop-color: rgb(0% 47.058% 39.946%)"/>
    </linearGradient>
    <linearGradient gradientUnits="userSpaceOnUse" x1="26.09" y1="131.889" x2="26.09" y2="144.053" id="gradient-9" gradientTransform="matrix(1, 0, 0, 1, 32.188822, 19.740105)">
      <stop offset="0" style="stop-color: rgb(89.02% 89.02% 89.02%)"/>
      <stop offset="1" style="stop-color: rgb(50.754% 50.754% 50.754%)"/>
    </linearGradient>
    <linearGradient gradientUnits="userSpaceOnUse" x1="26.09" y1="131.889" x2="26.09" y2="144.053" id="gradient-10" gradientTransform="matrix(1, 0, 0, 1, 75.58149, 19.384427)">
      <stop offset="0" style="stop-color: rgb(9.0196% 79.608% 69.804%)"/>
      <stop offset="1" style="stop-color: rgb(0% 47.058% 39.946%)"/>
    </linearGradient>
    <linearGradient gradientUnits="userSpaceOnUse" x1="26.09" y1="131.889" x2="26.09" y2="144.053" id="gradient-11" gradientTransform="matrix(1, 0, 0, 1, 75.58149, 19.384427)">
      <stop offset="0" style="stop-color: rgb(89.02% 89.02% 89.02%)"/>
      <stop offset="1" style="stop-color: rgb(50.754% 50.754% 50.754%)"/>
    </linearGradient>
    <linearGradient gradientUnits="userSpaceOnUse" x1="26.09" y1="131.889" x2="26.09" y2="144.053" id="gradient-12" gradientTransform="matrix(1, 0, 0, 1, 110.260052, -4.268133)">
      <stop offset="0" style="stop-color: rgb(9.0196% 79.608% 69.804%)"/>
      <stop offset="1" style="stop-color: rgb(0% 47.058% 39.946%)"/>
    </linearGradient>
    <linearGradient gradientUnits="userSpaceOnUse" x1="26.09" y1="131.889" x2="26.09" y2="144.053" id="gradient-13" gradientTransform="matrix(1, 0, 0, 1, 110.260052, -4.268133)">
      <stop offset="0" style="stop-color: rgb(89.02% 89.02% 89.02%)"/>
      <stop offset="1" style="stop-color: rgb(50.754% 50.754% 50.754%)"/>
    </linearGradient>
    <linearGradient gradientUnits="userSpaceOnUse" x1="79.854" y1="4.458" x2="79.854" y2="171.286" id="gradient-0">
      <stop offset="0" style="stop-color: rgb(34.51% 62.745% 9.4118%)"/>
      <stop offset="1" style="stop-color: rgb(6.4102% 38.425% 0%)"/>
    </linearGradient>
    <linearGradient gradientUnits="userSpaceOnUse" x1="20.211" y1="114.518" x2="20.211" y2="294.669" id="gradient-1">
      <stop offset="0" style="stop-color: rgb(20.784% 38.431% 4.3137%)"/>
      <stop offset="1" style="stop-color: rgb(7.3291% 24.354% 0%)"/>
    </linearGradient>
    <radialGradient gradientUnits="userSpaceOnUse" cx="19.799" cy="156.466" r="3.651" id="gradient-3">
      <stop offset="0" style="stop-color: rgb(0% 100% 55.686%)"/>
      <stop offset="1" style="stop-color: rgb(0% 57.963% 26.822%)"/>
    </radialGradient>
    <radialGradient gradientUnits="userSpaceOnUse" cx="19.799" cy="156.466" r="3.651" id="gradient-4" gradientTransform="matrix(0.802741, 0, 0, 3.131444, 4.91379, -222.302094)">
      <stop offset="0" style="stop-color: rgb(0% 100% 55.686%)"/>
      <stop offset="1" style="stop-color: rgb(0% 57.963% 26.822%)"/>
    </radialGradient>
    <linearGradient gradientUnits="userSpaceOnUse" x1="20.211" y1="114.518" x2="20.211" y2="294.669" id="gradient-14">
      <stop offset="0" style="stop-color: rgb(20.784% 38.431% 4.3137%)"/>
      <stop offset="1" style="stop-color: rgb(7.3291% 24.354% 0%)"/>
    </linearGradient>
    <radialGradient gradientUnits="userSpaceOnUse" cx="19.799" cy="156.466" r="3.651" id="gradient-15">
      <stop offset="0" style="stop-color: rgb(0% 100% 55.686%)"/>
      <stop offset="1" style="stop-color: rgb(0% 57.963% 26.822%)"/>
    </radialGradient>
    <radialGradient gradientUnits="userSpaceOnUse" cx="19.799" cy="156.466" r="3.651" id="gradient-16" gradientTransform="matrix(0.802741, 0, 0, 3.131444, 4.91379, -222.302094)">
      <stop offset="0" style="stop-color: rgb(0% 100% 55.686%)"/>
      <stop offset="1" style="stop-color: rgb(0% 57.963% 26.822%)"/>
    </radialGradient>
    <linearGradient gradientUnits="userSpaceOnUse" x1="20.211" y1="114.518" x2="20.211" y2="294.669" id="gradient-17">
      <stop offset="0" style="stop-color: rgb(20.784% 38.431% 4.3137%)"/>
      <stop offset="1" style="stop-color: rgb(7.3291% 24.354% 0%)"/>
    </linearGradient>
    <radialGradient gradientUnits="userSpaceOnUse" cx="19.799" cy="156.466" r="3.651" id="gradient-18">
      <stop offset="0" style="stop-color: rgb(0% 100% 55.686%)"/>
      <stop offset="1" style="stop-color: rgb(0% 57.963% 26.822%)"/>
    </radialGradient>
    <radialGradient gradientUnits="userSpaceOnUse" cx="19.799" cy="156.466" r="3.651" id="gradient-19" gradientTransform="matrix(0.802741, 0, 0, 3.131444, 4.91379, -222.302094)">
      <stop offset="0" style="stop-color: rgb(0% 100% 55.686%)"/>
      <stop offset="1" style="stop-color: rgb(0% 57.963% 26.822%)"/>
    </radialGradient>
    <linearGradient gradientUnits="userSpaceOnUse" x1="20.211" y1="114.518" x2="20.211" y2="294.669" id="gradient-20">
      <stop offset="0" style="stop-color: rgb(20.784% 38.431% 4.3137%)"/>
      <stop offset="1" style="stop-color: rgb(7.3291% 24.354% 0%)"/>
    </linearGradient>
    <radialGradient gradientUnits="userSpaceOnUse" cx="19.799" cy="156.466" r="3.651" id="gradient-21">
      <stop offset="0" style="stop-color: rgb(0% 100% 55.686%)"/>
      <stop offset="1" style="stop-color: rgb(0% 57.963% 26.822%)"/>
    </radialGradient>
    <radialGradient gradientUnits="userSpaceOnUse" cx="19.799" cy="156.466" r="3.651" id="gradient-22" gradientTransform="matrix(0.802741, 0, 0, 3.131444, 4.91379, -222.302094)">
      <stop offset="0" style="stop-color: rgb(0% 100% 55.686%)"/>
      <stop offset="1" style="stop-color: rgb(0% 57.963% 26.822%)"/>
    </radialGradient>
  </defs>
  <g transform="matrix(1, 0, 0, 1, -10, -4)">
    <path d="M 27.107 154.194 C 27.107 167.676 25.909 179.588 24.078 186.758 C 24.47 191.731 24.693 197.444 24.693 203.521 C 24.693 210.947 24.36 217.83 23.793 223.484 C 25.969 229.839 27.451 242.406 27.451 256.87 C 27.451 277.745 24.364 294.669 20.556 294.669 C 16.747 294.669 13.66 277.745 13.66 256.87 C 13.66 245.246 14.617 234.847 16.123 227.913 C 15.239 221.628 14.694 213.018 14.694 203.521 C 14.694 196.542 14.988 190.042 15.496 184.592 C 13.952 177.314 12.97 166.397 12.97 154.194 C 12.97 132.282 16.135 114.518 20.038 114.518 C 23.942 114.518 27.107 132.282 27.107 154.194 Z" style="stroke-width: 2px; fill: url(&quot;#gradient-1&quot;); stroke: rgb(12, 37, 3);"/>
    <ellipse style="stroke: rgb(0, 0, 0); fill: url(&quot;#gradient-3&quot;);" cx="19.799" cy="156.466" rx="3.651" ry="6.082"/>
    <ellipse style="stroke: rgb(0, 0, 0); fill: url(&quot;#gradient-4&quot;);" cx="20.808" cy="267.664" rx="2.931" ry="19.045"/>
  </g>
  <g transform="matrix(1, 0, 0, 0.815661, 33.031265, 58.029587)" style="">
    <path d="M 27.107 154.194 C 27.107 167.676 25.909 179.588 24.078 186.758 C 24.47 191.731 24.693 197.444 24.693 203.521 C 24.693 210.947 24.36 217.83 23.793 223.484 C 25.969 229.839 27.451 242.406 27.451 256.87 C 27.451 277.745 24.364 294.669 20.556 294.669 C 16.747 294.669 13.66 277.745 13.66 256.87 C 13.66 245.246 14.617 234.847 16.123 227.913 C 15.239 221.628 14.694 213.018 14.694 203.521 C 14.694 196.542 14.988 190.042 15.496 184.592 C 13.952 177.314 12.97 166.397 12.97 154.194 C 12.97 132.282 16.135 114.518 20.038 114.518 C 23.942 114.518 27.107 132.282 27.107 154.194 Z" style="stroke-width: 2px; stroke: rgb(12, 37, 3); fill: url(&quot;#gradient-14&quot;);"/>
    <ellipse style="stroke: rgb(0, 0, 0); fill: url(&quot;#gradient-15&quot;);" cx="19.799" cy="156.466" rx="3.651" ry="6.082"/>
    <ellipse style="stroke: rgb(0, 0, 0); fill: url(&quot;#gradient-16&quot;);" cx="20.808" cy="267.664" rx="2.931" ry="19.045"/>
  </g>
  <g transform="matrix(1, 0, 0, 0.815661, 78.861877, 57.863464)" style="">
    <path d="M 27.107 154.194 C 27.107 167.676 25.909 179.588 24.078 186.758 C 24.47 191.731 24.693 197.444 24.693 203.521 C 24.693 210.947 24.36 217.83 23.793 223.484 C 25.969 229.839 27.451 242.406 27.451 256.87 C 27.451 277.745 24.364 294.669 20.556 294.669 C 16.747 294.669 13.66 277.745 13.66 256.87 C 13.66 245.246 14.617 234.847 16.123 227.913 C 15.239 221.628 14.694 213.018 14.694 203.521 C 14.694 196.542 14.988 190.042 15.496 184.592 C 13.952 177.314 12.97 166.397 12.97 154.194 C 12.97 132.282 16.135 114.518 20.038 114.518 C 23.942 114.518 27.107 132.282 27.107 154.194 Z" style="stroke-width: 2px; stroke: rgb(12, 37, 3); fill: url(&quot;#gradient-17&quot;);"/>
    <ellipse style="stroke: rgb(0, 0, 0); fill: url(&quot;#gradient-18&quot;);" cx="19.799" cy="156.466" rx="3.651" ry="6.082"/>
    <ellipse style="stroke: rgb(0, 0, 0); fill: url(&quot;#gradient-19&quot;);" cx="20.808" cy="267.664" rx="2.931" ry="19.045"/>
  </g>
  <g transform="matrix(1, 0, 0, 1, 130.403015, -7.633224)">
    <path d="M 27.107 154.194 C 27.107 167.676 25.909 179.588 24.078 186.758 C 24.47 191.731 24.693 197.444 24.693 203.521 C 24.693 210.947 24.36 217.83 23.793 223.484 C 25.969 229.839 27.451 242.406 27.451 256.87 C 27.451 277.745 24.364 294.669 20.556 294.669 C 16.747 294.669 13.66 277.745 13.66 256.87 C 13.66 245.246 14.617 234.847 16.123 227.913 C 15.239 221.628 14.694 213.018 14.694 203.521 C 14.694 196.542 14.988 190.042 15.496 184.592 C 13.952 177.314 12.97 166.397 12.97 154.194 C 12.97 132.282 16.135 114.518 20.038 114.518 C 23.942 114.518 27.107 132.282 27.107 154.194 Z" style="stroke-width: 2px; stroke: rgb(12, 37, 3); fill: url(&quot;#gradient-20&quot;);"/>
    <ellipse style="stroke: rgb(0, 0, 0); fill: url(&quot;#gradient-21&quot;);" cx="19.799" cy="156.466" rx="3.651" ry="6.082"/>
    <ellipse style="stroke: rgb(0, 0, 0); fill: url(&quot;#gradient-22&quot;);" cx="20.808" cy="267.664" rx="2.931" ry="19.045"/>
  </g>
  <path d="M 81.723 4.458 C 101.582 4.458 118.308 18.953 123.335 38.685 C 144.272 51.677 158.055 73.787 158.055 98.878 C 158.055 134.656 130.029 164.374 93.196 170.236 L 93.196 180.579 C 93.689 182.591 93.584 185.602 92.779 188.833 C 91.436 194.232 88.647 198.193 86.551 197.676 C 84.455 197.16 83.846 192.362 85.189 186.962 C 85.793 184.535 86.688 182.4 87.682 180.831 L 87.682 170.928 C 85.107 171.165 82.496 171.286 79.854 171.286 C 76.909 171.286 74.002 171.135 71.142 170.842 L 71.142 181.159 C 72.136 182.728 73.031 184.863 73.635 187.29 C 74.978 192.69 74.369 197.488 72.273 198.004 C 70.177 198.521 67.388 194.56 66.045 189.161 C 65.24 185.93 65.135 182.919 65.628 180.907 L 65.628 170.091 C 29.231 163.897 1.653 134.37 1.653 98.878 C 1.653 72.043 17.419 48.617 40.843 36.109 C 46.617 17.704 62.739 4.458 81.723 4.458 Z" style="stroke: rgb(16, 49, 15); stroke-width: 3px; fill: url(&quot;#gradient-0&quot;);"/>
  <ellipse style="stroke: rgb(0, 0, 0); fill: rgb(44, 74, 22);" cx="81.655" cy="84.403" rx="27.788" ry="44.953"/>
  <path d="M 106.073 85.555 C 106.073 99.49 101.551 111.734 94.726 118.737 C 90.924 116.336 86.387 114.941 81.516 114.941 C 76.612 114.941 72.047 116.354 68.229 118.785 C 61.378 111.791 56.835 99.522 56.835 85.555 C 56.835 63.801 67.857 46.165 81.454 46.165 C 95.051 46.165 106.073 63.801 106.073 85.555 Z" style="stroke: rgb(0, 0, 0); fill: rgb(255, 255, 255);"/>
  <ellipse style="stroke: rgb(0, 0, 0);" cx="81.744" cy="87.003" rx="12.165" ry="24.619"/>
  <ellipse style="fill: rgb(255, 255, 255);" cx="94.488" cy="88.161" rx="7.53" ry="7.241"/>
  <path d="M 21.663 136.373 L 23.742 136.373 L 23.742 112.028 L 28.529 112.028 L 28.529 135.579 L 31.277 135.579 L 31.277 123.758 L 40.053 123.407 L 40.13 135.601 L 41.614 135.541 L 41.536 123.347 L 41.572 123.346 L 41.54 118.114 L 31.277 118.525 L 31.277 95.766 L 34.236 95.766 L 34.236 95.904 L 35.849 95.904 L 35.849 53.848 L 34.236 53.848 L 34.236 90.193 L 31.277 90.193 L 31.277 89.951 L 28.529 89.951 L 28.529 90.097 L 22.124 90.097 L 22.124 96.146 L 28.529 96.146 L 28.529 108.294 L 23.742 108.294 L 23.742 108.202 L 21.663 108.202 L 21.663 136.373 Z" style="fill: rgb(23, 35, 18); transform-origin: 31.638px 95.111px;" transform="matrix(-1, 0, 0, -1, -0.000003, 0.000012)"/>
  <path d="M 119.821 56.587 L 121.9 56.587 L 121.9 80.932 L 126.687 80.932 L 126.687 57.381 L 129.435 57.381 L 129.435 69.202 L 138.211 69.553 L 138.288 57.359 L 139.772 57.419 L 139.694 69.613 L 139.73 69.614 L 139.698 74.846 L 129.435 74.435 L 129.435 97.194 L 132.394 97.194 L 132.394 97.056 L 134.007 97.056 L 134.007 139.112 L 132.394 139.112 L 132.394 102.767 L 129.435 102.767 L 129.435 103.009 L 126.687 103.009 L 126.687 102.863 L 120.282 102.863 L 120.282 96.814 L 126.687 96.814 L 126.687 84.666 L 121.9 84.666 L 121.9 84.758 L 119.821 84.758 L 119.821 56.587 Z" style="fill: rgb(23, 35, 18); transform-origin: 129.796px 97.849px;"/>
  <ellipse style="stroke: rgb(0, 0, 0); fill: url(&quot;#gradient-5&quot;);" cx="83.451" cy="21.441" rx="8.741" ry="9.03"/>
  <ellipse style="fill: url(&quot;#gradient-7&quot;); stroke: url(&quot;#gradient-6&quot;);" cx="26.09" cy="137.971" rx="4.718" ry="6.082"/>
  <ellipse style="fill: url(&quot;#gradient-8&quot;); stroke: url(&quot;#gradient-9&quot;);" cx="58.279" cy="157.711" rx="4.718" ry="6.082"/>
  <ellipse style="fill: url(&quot;#gradient-10&quot;); stroke: url(&quot;#gradient-11&quot;);" cx="101.672" cy="157.355" rx="4.718" ry="6.082"/>
  <ellipse style="fill: url(&quot;#gradient-12&quot;); stroke: url(&quot;#gradient-13&quot;);" cx="136.351" cy="133.702" rx="4.718" ry="6.082"/>
</svg>