<?xml version="1.0" encoding="utf-8"?>
<svg xmlns="http://www.w3.org/2000/svg" viewBox="0 0 200 100" width="200px" height="100px">
  <defs>
    <linearGradient gradientUnits="userSpaceOnUse" x1="28.838" y1="-4.536" x2="28.838" y2="15.196" id="gradient-0" gradientTransform="matrix(1.092512, 0, 0, 1, -5.346021, 0)">
      <stop offset="0" style="stop-color: rgb(41.569% 20.392% 13.333%)"/>
      <stop offset="1" style="stop-color: rgb(29.815% 10.182% 3.1888%)"/>
    </linearGradient>
    <linearGradient gradientUnits="userSpaceOnUse" x1="86.125" y1="-0.123" x2="86.125" y2="7.926" id="gradient-1" gradientTransform="matrix(1.021734, 0, 0, 1, -1.234229, 0)">
      <stop offset="0" style="stop-color: rgb(41.569% 20.392% 13.333%)"/>
      <stop offset="1" style="stop-color: rgb(29.815% 10.182% 3.1888%)"/>
    </linearGradient>
    <linearGradient gradientUnits="userSpaceOnUse" x1="118.229" y1="-0.681" x2="118.229" y2="22.687" id="gradient-2">
      <stop offset="0" style="stop-color: rgb(41.569% 20.392% 13.333%)"/>
      <stop offset="1" style="stop-color: rgb(29.815% 10.182% 3.1888%)"/>
    </linearGradient>
    <linearGradient gradientUnits="userSpaceOnUse" x1="132.417" y1="-0.642" x2="132.417" y2="7.407" id="gradient-3">
      <stop offset="0" style="stop-color: rgb(41.569% 20.392% 13.333%)"/>
      <stop offset="1" style="stop-color: rgb(29.815% 10.182% 3.1888%)"/>
    </linearGradient>
    <linearGradient gradientUnits="userSpaceOnUse" x1="152.332" y1="-4.536" x2="152.332" y2="17.274" id="gradient-4">
      <stop offset="0" style="stop-color: rgb(41.569% 20.392% 13.333%)"/>
      <stop offset="1" style="stop-color: rgb(29.815% 10.182% 3.1888%)"/>
    </linearGradient>
    <linearGradient gradientUnits="userSpaceOnUse" x1="167.78" y1="-4.758" x2="167.78" y2="24.322" id="gradient-5">
      <stop offset="0" style="stop-color: rgb(41.569% 20.392% 13.333%)"/>
      <stop offset="1" style="stop-color: rgb(29.815% 10.182% 3.1888%)"/>
    </linearGradient>
    <linearGradient gradientUnits="userSpaceOnUse" x1="198.417" y1="-5.055" x2="198.417" y2="14.677" id="gradient-6">
      <stop offset="0" style="stop-color: rgb(41.569% 20.392% 13.333%)"/>
      <stop offset="1" style="stop-color: rgb(29.815% 10.182% 3.1888%)"/>
    </linearGradient>
    <linearGradient gradientUnits="userSpaceOnUse" x1="198.936" y1="86.855" x2="198.936" y2="106.587" id="gradient-7">
      <stop offset="0" style="stop-color: rgb(41.569% 20.392% 13.333%)"/>
      <stop offset="1" style="stop-color: rgb(29.815% 10.182% 3.1888%)"/>
    </linearGradient>
    <linearGradient gradientUnits="userSpaceOnUse" x1="168.299" y1="84.152" x2="168.299" y2="113.232" id="gradient-8">
      <stop offset="0" style="stop-color: rgb(41.569% 20.392% 13.333%)"/>
      <stop offset="1" style="stop-color: rgb(29.815% 10.182% 3.1888%)"/>
    </linearGradient>
    <linearGradient gradientUnits="userSpaceOnUse" x1="152.851" y1="87.374" x2="152.851" y2="109.184" id="gradient-9">
      <stop offset="0" style="stop-color: rgb(41.569% 20.392% 13.333%)"/>
      <stop offset="1" style="stop-color: rgb(29.815% 10.182% 3.1888%)"/>
    </linearGradient>
    <linearGradient gradientUnits="userSpaceOnUse" x1="132.937" y1="91.268" x2="132.937" y2="99.317" id="gradient-10" gradientTransform="matrix(1, 0, 0, 1, 0, 2)">
      <stop offset="0" style="stop-color: rgb(41.569% 20.392% 13.333%)"/>
      <stop offset="1" style="stop-color: rgb(29.815% 10.182% 3.1888%)"/>
    </linearGradient>
    <linearGradient gradientUnits="userSpaceOnUse" x1="118.748" y1="91.229" x2="118.748" y2="114.597" id="gradient-22">
      <stop offset="0" style="stop-color: rgb(41.569% 20.392% 13.333%)"/>
      <stop offset="1" style="stop-color: rgb(29.815% 10.182% 3.1888%)"/>
    </linearGradient>
    <linearGradient gradientUnits="userSpaceOnUse" x1="86.644" y1="91.787" x2="86.644" y2="99.836" id="gradient-23" gradientTransform="matrix(1, 0, 0, 1, 0, 1)">
      <stop offset="0" style="stop-color: rgb(41.569% 20.392% 13.333%)"/>
      <stop offset="1" style="stop-color: rgb(29.815% 10.182% 3.1888%)"/>
    </linearGradient>
    <linearGradient gradientUnits="userSpaceOnUse" x1="29.357" y1="87.374" x2="29.357" y2="107.106" id="gradient-24" gradientTransform="matrix(1.092512, 0, 0, 1, -5.394035, 0)">
      <stop offset="0" style="stop-color: rgb(41.569% 20.392% 13.333%)"/>
      <stop offset="1" style="stop-color: rgb(29.815% 10.182% 3.1888%)"/>
    </linearGradient>
    <linearGradient gradientUnits="userSpaceOnUse" x1="103.171" y1="4.81" x2="103.171" y2="101.134" id="gradient-25">
      <stop offset="0" style="stop-color: rgb(32.549% 12.941% 7.451%)"/>
      <stop offset="1" style="stop-color: rgb(24.715% 5.7592% 0%)"/>
    </linearGradient>
  </defs>
  <rect x="-4.447" y="4.81" width="215.236" height="96.324" style="fill: url(&quot;#gradient-25&quot;); stroke: rgb(91, 36, 22);"/>
  <path style="fill: none; transform-origin: 106.636px 16.71px; stroke: rgb(91, 36, 22);" d="M 84.648 22.036 L 126.502 10.726 L 126.146 24.191 L 84.292 13.204 L 103.442 26.345 C 103.442 26.345 104.509 12.126 104.865 12.018 C 105.222 11.911 66.912 18.267 66.912 18.267 L 114.791 25.268 L 138.202 19.666 L 105.222 9.217 L 69.042 14.28 L 116.921 18.483 L 128.27 26.56 C 128.27 26.56 86.419 27.206 86.062 27.099 C 85.709 26.991 76.134 22.144 76.134 22.144 L 87.482 9.002 L 116.214 16.112 L 140.329 13.311 C 140.329 13.311 132.527 22.144 132.881 22.144 C 133.237 22.144 125.789 25.16 125.789 25.16 L 94.223 24.621 L 75.421 20.313 L 71.876 15.681 L 76.134 11.049 L 91.383 12.342 L 96.351 6.309 L 111.6 12.449 L 115.147 7.602 L 126.502 12.342 L 142.102 10.619 L 146.36 16.866" transform="matrix(-1, 0, 0, -1, -0.000011, 0)"/>
  <rect x="56.787" y="-0.123" width="59.952" height="8.049" style="fill: url(&quot;#gradient-1&quot;);"/>
  <rect x="-5.467" y="-4.536" width="63.254" height="19.732" style="fill: url(&quot;#gradient-0&quot;);"/>
  <rect x="120.215" y="-0.642" width="24.405" height="8.049" style="fill: url(&quot;#gradient-3&quot;);"/>
  <rect x="115.503" y="-0.681" width="5.452" height="23.368" style="fill: url(&quot;#gradient-2&quot;);"/>
  <path style="fill: none; transform-box: fill-box; transform-origin: 50% 50%; stroke: rgb(91, 36, 22);" d="M 141.945 24.164 L 156.033 8.337 L 155.913 27.179 L 141.825 11.804 L 148.271 30.193 C 148.271 30.193 148.63 10.296 148.75 10.145 C 148.87 9.995 135.975 18.889 135.975 18.889 L 152.091 28.686 L 159.971 20.847 L 148.87 6.225 L 136.692 13.31 L 152.808 19.191 L 156.628 30.494 C 156.628 30.494 142.541 31.399 142.421 31.249 C 142.302 31.097 139.079 24.314 139.079 24.314 L 142.899 5.924 L 152.57 15.873 L 160.687 11.954 C 160.687 11.954 158.061 24.314 158.18 24.314 C 158.3 24.314 155.793 28.535 155.793 28.535 L 145.168 27.781 L 138.839 21.752 L 137.646 15.27 L 139.079 8.788 L 144.212 10.598 L 145.884 2.155 L 151.017 10.748 L 152.211 3.965 L 156.033 10.598 L 161.284 8.187 L 162.717 16.928" transform="matrix(-1, 0, 0, -1, -0.000004, 0.000003)"/>
  <rect x="138.312" y="-4.536" width="28.04" height="21.81" style="fill: url(&quot;#gradient-4&quot;);"/>
  <rect x="169.468" y="-5.055" width="57.898" height="19.732" style="fill: url(&quot;#gradient-6&quot;);"/>
  <rect x="165.054" y="-4.758" width="5.452" height="29.08" style="fill: url(&quot;#gradient-5&quot;);"/>
  <rect x="57.306" y="92.787" width="58.677" height="8.049" style="fill: url(&quot;#gradient-23&quot;);"/>
  <path style="fill: none; stroke: rgb(91, 36, 22); transform-box: fill-box; transform-origin: 50% 50%;" d="M 12.587 33.698 L 28.316 75.358 L 28.182 25.761 L 12.453 66.233 L 19.651 17.827 C 19.651 17.827 20.051 70.2 20.185 70.598 C 20.318 70.993 5.922 47.584 5.922 47.584 L 23.917 21.794 L 32.714 42.428 L 20.318 80.915 L 6.722 62.266 L 24.716 46.79 L 28.982 17.036 C 28.982 17.036 13.253 14.653 13.12 15.049 C 12.986 15.447 9.388 33.302 9.388 33.302 L 13.653 81.708 L 24.45 55.52 L 33.514 65.835 C 33.514 65.835 30.581 33.302 30.715 33.302 C 30.848 33.302 28.049 22.192 28.049 22.192 L 16.186 24.177 L 9.121 40.045 L 7.788 57.107 L 9.388 74.169 L 15.119 69.406 L 16.986 91.627 L 22.717 69.011 L 24.05 86.864 L 28.316 69.406 L 34.18 75.754 L 35.78 52.745" transform="matrix(0.97703, -0.213104, 0.213104, 0.97703, 0.000001, 0)"/>
  <rect x="-4.948" y="87.374" width="63.254" height="19.732" style="fill: url(&quot;#gradient-24&quot;);"/>
  <rect x="120.734" y="93.268" width="24.405" height="8.049" style="fill: url(&quot;#gradient-10&quot;);"/>
  <rect x="116.022" y="91.229" width="5.452" height="23.368" style="fill: url(&quot;#gradient-22&quot;);"/>
  <rect x="138.831" y="87.374" width="28.04" height="21.81" style="fill: url(&quot;#gradient-9&quot;);"/>
  <rect x="169.987" y="86.855" width="57.898" height="19.732" style="fill: url(&quot;#gradient-7&quot;);"/>
  <rect x="165.573" y="84.152" width="5.452" height="29.08" style="fill: url(&quot;#gradient-8&quot;);"/>
  <path style="fill: none; stroke: rgb(91, 36, 22);" d="M 40.554 36.05 L 59.839 53.148 L 59.675 32.793 L 40.39 49.403 L 49.215 29.537 C 49.215 29.537 49.705 51.031 49.87 51.194 C 50.033 51.357 32.382 41.749 32.382 41.749 L 54.445 31.165 L 65.231 39.633 L 50.033 55.429 L 33.363 47.775 L 55.425 41.423 L 60.656 29.212 C 60.656 29.212 41.37 28.234 41.207 28.397 C 41.043 28.56 36.632 35.888 36.632 35.888 L 41.861 55.754 L 55.099 45.006 L 66.212 49.24 C 66.212 49.24 62.616 35.888 62.78 35.888 C 62.943 35.888 59.512 31.328 59.512 31.328 L 44.967 32.143 L 36.304 38.655 L 34.67 45.658 L 36.632 52.66 L 43.658 50.705 L 45.947 59.825 L 52.974 50.543 L 54.608 57.87 L 59.839 50.705 L 67.029 53.31 L 68.99 43.867"/>
  <path style="fill: none; stroke: rgb(91, 36, 22);" d="M 32.547 20.098 L 43.352 29.996 L 43.26 18.212 L 32.455 27.828 L 37.399 16.327 C 37.399 16.327 37.674 28.771 37.766 28.865 C 37.858 28.959 27.968 23.397 27.968 23.397 L 40.329 17.27 L 46.373 22.172 L 37.858 31.317 L 28.518 26.886 L 40.879 23.208 L 43.809 16.139 C 43.809 16.139 33.004 15.573 32.912 15.667 C 32.821 15.762 30.349 20.004 30.349 20.004 L 33.279 31.505 L 40.696 25.283 L 46.922 27.734 C 46.922 27.734 44.908 20.004 44.999 20.004 C 45.091 20.004 43.168 17.364 43.168 17.364 L 35.019 17.836 L 30.165 21.606 L 29.25 25.66 L 30.349 29.714 L 34.286 28.582 L 35.568 33.862 L 39.505 28.488 L 40.421 32.73 L 43.352 28.582 L 47.38 30.09 L 48.479 24.623"/>
  <path style="fill: none; stroke: rgb(91, 36, 22);" d="M 54.624 65.63 L 99.759 84.42 L 99.375 62.049 L 54.24 80.305 L 74.892 58.47 C 74.892 58.47 76.041 82.095 76.425 82.273 C 76.81 82.452 35.497 71.893 35.497 71.893 L 87.132 60.261 L 112.379 69.567 L 76.81 86.928 L 37.794 78.516 L 89.429 71.534 L 101.668 58.114 C 101.668 58.114 56.533 57.039 56.149 57.217 C 55.769 57.398 45.443 65.451 45.443 65.451 L 57.682 87.285 L 88.665 75.473 L 114.672 80.126 C 114.672 80.126 106.259 65.451 106.639 65.451 C 107.024 65.451 98.991 60.439 98.991 60.439 L 64.951 61.335 L 44.674 68.492 L 40.852 76.189 L 45.443 83.885 L 61.889 81.736 L 67.244 91.76 L 83.69 81.558 L 87.516 89.611 L 99.759 81.736 L 116.585 84.599 L 121.176 74.22"/>
  <path style="fill: none; transform-origin: 85.477px 39.688px; stroke: rgb(91, 36, 22);" d="M 89.66 47.207 L 82.983 30.913 L 68.384 53.656 L 99.506 32.247 L 76.37 55.763 C 76.37 55.763 91.472 31.793 91.427 31.635 C 91.384 31.477 101.877 39.633 101.877 39.633 L 72.377 54.71 L 67.849 46.821 L 94.337 26.922 L 105.276 33.037 L 78.847 43.38 L 64.817 57.806 C 64.817 57.806 83.185 56.069 83.464 55.863 C 83.745 55.657 93.422 46.813 93.422 46.813 L 102.656 25.359 L 81.767 39.324 L 73.845 36.219 C 73.845 36.219 67.72 50.626 67.557 50.65 C 67.396 50.674 67.483 55.271 67.483 55.271 L 82.462 52.225 L 95.753 43.67 L 102.448 35.597 L 105.585 28.053 L 97.217 31.271 L 101.567 21.405 L 87.885 32.819 L 91.582 24.863 L 81.212 33.645 L 75.989 31.787 L 67.201 42.637"/>
  <path style="fill: none; stroke: rgb(91, 36, 22);" d="M 61.459 15.488 L 75.547 31.315 L 75.427 12.473 L 61.339 27.848 L 67.785 9.459 C 67.785 9.459 68.144 29.356 68.264 29.507 C 68.384 29.657 55.489 20.763 55.489 20.763 L 71.605 10.966 L 79.485 18.805 L 68.384 33.427 L 56.206 26.342 L 72.322 20.461 L 76.142 9.158 C 76.142 9.158 62.055 8.253 61.935 8.403 C 61.816 8.555 58.593 15.338 58.593 15.338 L 62.413 33.728 L 72.084 23.779 L 80.201 27.698 C 80.201 27.698 77.575 15.338 77.694 15.338 C 77.814 15.338 75.307 11.117 75.307 11.117 L 64.682 11.871 L 58.353 17.9 L 57.16 24.382 L 58.593 30.864 L 63.726 29.054 L 65.398 37.497 L 70.531 28.904 L 71.725 35.687 L 75.547 29.054 L 80.798 31.465 L 82.231 22.724"/>
  <path style="fill: none; transform-origin: 189.169px 33.556px; stroke: rgb(91, 36, 22);" d="M 187.946 21.267 L 191.833 47.081 L 174.04 19.248 L 199.775 39.49 L 177.22 13.468 C 177.22 13.468 195.825 42.899 195.874 43.143 C 195.922 43.386 197.674 28.014 197.674 28.014 L 175.63 16.359 L 176.842 29.301 L 199.501 48.949 L 202.402 36.371 L 184.079 30.5 L 170.327 14.48 C 170.327 14.48 180.605 10.691 180.842 10.892 C 181.081 11.095 190.069 20.546 190.069 20.546 L 204.507 48.354 L 187.416 35.353 L 184.718 42.551 C 184.718 42.551 175.062 23.851 174.966 23.872 C 174.872 23.893 172.848 17.226 172.848 17.226 L 181.963 16.489 L 192.69 24.285 L 199.787 33.645 L 204.807 43.462 L 199.032 41.685 L 205.723 54.437 L 193.509 42.648 L 199.004 52.867 L 189.687 43.743 L 187.824 48.217 L 178.392 35.564"/>
  <path style="fill: none; transform-box: fill-box; transform-origin: 50% 50%; stroke: rgb(91, 36, 22);" d="M 142.07 67.325 L 161.355 34.275 L 161.191 73.621 L 141.906 41.514 L 150.731 79.915 C 150.731 79.915 151.221 38.368 151.386 38.052 C 151.549 37.737 133.898 56.309 133.898 56.309 L 155.961 76.768 L 166.747 60.4 L 151.549 29.866 L 134.879 44.661 L 156.941 56.94 L 162.172 80.543 C 162.172 80.543 142.886 82.434 142.723 82.118 C 142.559 81.803 138.148 67.639 138.148 67.639 L 143.377 29.238 L 156.615 50.014 L 167.728 41.83 C 167.728 41.83 164.132 67.639 164.296 67.639 C 164.459 67.639 161.028 76.453 161.028 76.453 L 146.483 74.878 L 137.82 62.29 L 136.186 48.753 L 138.148 35.219 L 145.174 38.998 L 147.463 21.369 L 154.49 39.311 L 156.124 25.148 L 161.355 38.998 L 168.545 33.962 L 170.506 52.215" transform="matrix(-1, 0, 0, -1, -0.000015, -0.000009)"/>
  <path style="fill: none; transform-box: fill-box; transform-origin: 50% 50%; stroke: rgb(91, 36, 22);" d="M 165.478 39.286 L 176.283 29.388 L 176.191 41.172 L 165.386 31.556 L 170.33 43.057 C 170.33 43.057 170.605 30.613 170.697 30.519 C 170.789 30.425 160.899 35.987 160.899 35.987 L 173.26 42.114 L 179.304 37.212 L 170.789 28.067 L 161.449 32.498 L 173.81 36.176 L 176.74 43.245 C 176.74 43.245 165.935 43.811 165.843 43.717 C 165.752 43.622 163.28 39.38 163.28 39.38 L 166.21 27.879 L 173.627 34.101 L 179.853 31.65 C 179.853 31.65 177.839 39.38 177.93 39.38 C 178.022 39.38 176.099 42.02 176.099 42.02 L 167.95 41.548 L 163.096 37.778 L 162.181 33.724 L 163.28 29.67 L 167.217 30.802 L 168.499 25.522 L 172.436 30.896 L 173.352 26.654 L 176.283 30.802 L 180.311 29.294 L 181.41 34.761" transform="matrix(-1, 0, 0, -1, -0.000009, 0.000001)"/>
  <path style="fill: none; stroke: rgb(91, 36, 22); transform-box: fill-box; transform-origin: 50% 50%;" d="M 110.763 81.917 L 143.171 59.66 L 142.894 86.158 L 110.488 64.534 L 125.315 90.398 C 125.315 90.398 126.141 62.414 126.416 62.203 C 126.693 61.991 97.03 74.498 97.03 74.498 L 134.105 88.276 L 152.232 77.253 L 126.693 56.689 L 98.679 66.653 L 135.754 74.924 L 144.541 90.819 C 144.541 90.819 112.134 92.093 111.859 91.882 C 111.586 91.667 104.172 82.129 104.172 82.129 L 112.958 56.267 L 135.204 70.258 L 153.879 64.746 C 153.879 64.746 147.838 82.129 148.111 82.129 C 148.387 82.129 142.619 88.065 142.619 88.065 L 118.178 87.004 L 103.619 78.527 L 100.874 69.41 L 104.172 60.294 L 115.98 62.839 L 119.824 50.966 L 131.633 63.05 L 134.38 53.511 L 143.171 62.839 L 155.251 59.448 L 158.549 71.742" transform="matrix(-1, 0, 0, -1, 0.000002, -0.000004)"/>
  <path style="fill: none; transform-origin: 118.709px 38.39px; stroke: rgb(91, 36, 22);" d="M 122.687 46.447 L 112.978 31.296 L 137.431 29.314 L 106.491 47.985 L 135.44 38.161 C 135.44 38.161 109.798 39.974 109.695 39.847 C 109.59 39.721 111.192 54.22 111.192 54.22 L 136.436 33.738 L 132.326 25.15 L 104.681 40.145 L 104.48 53.987 L 124.62 33.949 L 142.305 28.079 C 142.305 28.079 132.574 44.915 132.285 45.075 C 131.995 45.237 120.664 49.875 120.664 49.875 L 99.665 47.356 L 120.115 34.608 L 121.296 25.29 C 121.296 25.29 135.362 27.055 135.456 26.91 C 135.547 26.768 139.106 29.305 139.106 29.305 L 129.894 42.164 L 117.141 50.452 L 107.773 52.618 L 100.439 51.626 L 106.771 45.251 L 97.067 44.193 L 112.236 37.053 L 104.325 36.382 L 115.923 31.041 L 116.85 24.998 L 129.346 22.291"/>
  <path style="fill: none; transform-origin: 184.266px 62.406px; stroke: rgb(91, 36, 22);" d="M 170.9 72.783 L 196.339 50.746 L 196.123 76.983 L 170.683 55.573 L 182.323 81.179 C 182.323 81.179 182.971 53.473 183.187 53.264 C 183.404 53.055 160.119 65.438 160.119 65.438 L 189.222 79.08 L 203.452 68.166 L 183.404 47.805 L 161.414 57.67 L 190.517 65.859 L 197.415 81.598 C 197.415 81.598 171.976 82.858 171.759 82.649 C 171.545 82.437 165.725 72.993 165.725 72.993 L 172.623 47.386 L 190.086 61.239 L 204.745 55.782 C 204.745 55.782 200.003 72.993 200.217 72.993 C 200.434 72.993 195.906 78.871 195.906 78.871 L 176.72 77.82 L 165.291 69.426 L 163.137 60.4 L 165.725 51.374 L 174.994 53.894 L 178.012 42.138 L 187.282 54.103 L 189.438 44.659 L 196.339 53.894 L 205.823 50.537 L 208.41 62.709" transform="matrix(-1, 0, 0, -1, -0.000007, 0)"/>
  <ellipse style="fill: rgb(45, 15, 15); stroke: rgb(32, 7, 7);" cx="84.005" cy="59.549" rx="9.182" ry="2.677"/>
  <ellipse style="fill: rgb(45, 15, 15); stroke: rgb(32, 7, 7);" cx="38.349" cy="39.144" rx="3.571" ry="6.758"/>
  <ellipse style="fill: rgb(45, 15, 15); stroke: rgb(32, 7, 7);" cx="62.07" cy="26.136" rx="10.713" ry="2.422"/>
  <ellipse style="fill: rgb(45, 15, 15); stroke: rgb(32, 7, 7);" cx="73.164" cy="40.419" rx="3.443" ry="3.442"/>
  <ellipse style="fill: rgb(45, 15, 15); stroke: rgb(32, 7, 7);" cx="80.945" cy="21.417" rx="1.531" ry="8.926"/>
  <ellipse style="fill: rgb(45, 15, 15); stroke: rgb(32, 7, 7);" cx="178.887" cy="37.486" rx="7.396" ry="5.61"/>
  <ellipse style="fill: rgb(45, 15, 15); stroke: rgb(32, 7, 7);" cx="128.257" cy="33.788" rx="6.768" ry="2.154" transform="matrix(0.734809, 0.678275, 0, 1.360899, 34.012658, -99.187494)"/>
  <ellipse style="fill: rgb(45, 15, 15); stroke: rgb(32, 7, 7);" cx="147.386" cy="63.503" rx="2.167" ry="10.456"/>
  <ellipse style="fill: rgb(45, 15, 15); stroke: rgb(32, 7, 7);" cx="125.833" cy="55.724" rx="9.946" ry="2.677"/>
  <ellipse style="fill: rgb(45, 15, 15); stroke: rgb(32, 7, 7);" cx="131.956" cy="18.229" rx="4.846" ry="4.972" transform="matrix(1, 0, -0.406837, 1, 5.375733, 0)"/>
  <ellipse style="fill: rgb(45, 15, 15); stroke: rgb(32, 7, 7);" cx="44.98" cy="77.02" rx="8.417" ry="4.845"/>
  <ellipse style="fill: rgb(45, 15, 15); stroke: rgb(32, 7, 7);" cx="37.966" cy="61.589" rx="3.443" ry="3.442"/>
  <ellipse style="fill: rgb(45, 15, 15); stroke: rgb(32, 7, 7);" cx="34.395" cy="61.589" rx="7.014" ry="3.442"/>
  <ellipse style="fill: rgb(45, 15, 15); stroke: rgb(32, 7, 7);" cx="60.667" cy="49.474" rx="7.524" ry="4.08" transform="matrix(1, 0, 0.817291, 1, -40.434639, 0)"/>
  <ellipse style="fill: rgb(45, 15, 15); stroke: rgb(32, 7, 7);" cx="193.809" cy="70.261" rx="10.33" ry="3.442"/>
  <ellipse style="fill: rgb(45, 15, 15); stroke: rgb(32, 7, 7);" cx="159.503" cy="45.52" rx="5.866" ry="4.462"/>
  <ellipse style="fill: rgb(45, 15, 15); stroke: rgb(32, 7, 7);" cx="158.61" cy="76.892" rx="3.443" ry="3.442"/>
  <ellipse style="fill: rgb(45, 15, 15); stroke: rgb(32, 7, 7);" cx="114.484" cy="78.167" rx="8.544" ry="3.442"/>
  <ellipse style="fill: rgb(45, 15, 15); stroke: rgb(32, 7, 7);" cx="102.879" cy="39.27" rx="3.571" ry="6.63"/>
  <ellipse style="fill: rgb(45, 15, 15); stroke: rgb(32, 7, 7);" cx="19.984" cy="35.955" rx="4.846" ry="6.63" transform="matrix(1, 0, -0.621474, 1, 22.345118, 0)"/>
  <ellipse style="fill: rgb(45, 15, 15); stroke: rgb(32, 7, 7);" cx="70.742" cy="75.235" rx="1.785" ry="8.161"/>
  <ellipse style="fill: rgb(45, 15, 15); stroke: rgb(32, 7, 7);" cx="95.738" cy="67.328" rx="1.785" ry="8.161"/>
  <ellipse style="fill: rgb(45, 15, 15); stroke: rgb(32, 7, 7);" cx="89.234" cy="74.215" rx="2.423" ry="11.987" transform="matrix(1, 0, -0.167678, 1, 9.893634, 4.080983)"/>
</svg>