<?xml version="1.0" encoding="utf-8"?>
<svg xmlns="http://www.w3.org/2000/svg" viewBox="0 0 500 500" xmlns:bx="https://boxy-svg.com">
  <defs>
    <linearGradient gradientUnits="userSpaceOnUse" x1="76.515" y1="0.651" x2="76.515" y2="510.32" id="gradient-0">
      <stop offset="0" style="stop-color: rgb(0% 100% 97.255%)"/>
      <stop offset="1" style="stop-color: rgb(0% 57.811% 56.235%)"/>
    </linearGradient>
    <filter id="drop-shadow-filter-0" bx:preset="drop-shadow 1 10 10 0 0.5 rgba(0,0,0,0.3)" color-interpolation-filters="sRGB" x="-50%" y="-50%" width="200%" height="200%">
      <feGaussianBlur in="SourceAlpha" stdDeviation="0"/>
      <feOffset dx="10" dy="10"/>
      <feComponentTransfer result="offsetblur">
        <feFuncA id="spread-ctrl" type="linear" slope="1"/>
      </feComponentTransfer>
      <feFlood flood-color="rgba(0,0,0,0.3)"/>
      <feComposite in2="offsetblur" operator="in"/>
      <feMerge>
        <feMergeNode/>
        <feMergeNode in="SourceGraphic"/>
      </feMerge>
    </filter>
    <filter id="filter-1" bx:preset="drop-shadow 1 10 10 0 0.5 rgba(0,0,0,0.3)" color-interpolation-filters="sRGB" x="-50%" y="-50%" width="200%" height="200%">
      <feGaussianBlur in="SourceAlpha" stdDeviation="0"/>
      <feOffset dx="10" dy="10"/>
      <feComponentTransfer result="offsetblur">
        <feFuncA id="feFuncA-1" type="linear" slope="1"/>
      </feComponentTransfer>
      <feFlood flood-color="rgba(0,0,0,0.3)"/>
      <feComposite in2="offsetblur" operator="in"/>
      <feMerge>
        <feMergeNode/>
        <feMergeNode in="SourceGraphic"/>
      </feMerge>
    </filter>
    <filter id="filter-2" bx:preset="drop-shadow 1 10 10 0 0.5 rgba(0,0,0,0.3)" color-interpolation-filters="sRGB" x="-50%" y="-50%" width="200%" height="200%">
      <feGaussianBlur in="SourceAlpha" stdDeviation="0"/>
      <feOffset dx="10" dy="10"/>
      <feComponentTransfer result="offsetblur">
        <feFuncA id="feFuncA-2" type="linear" slope="1"/>
      </feComponentTransfer>
      <feFlood flood-color="rgba(0,0,0,0.3)"/>
      <feComposite in2="offsetblur" operator="in"/>
      <feMerge>
        <feMergeNode/>
        <feMergeNode in="SourceGraphic"/>
      </feMerge>
    </filter>
    <linearGradient gradientUnits="userSpaceOnUse" x1="76.515" y1="0.651" x2="76.515" y2="510.32" id="gradient-1" gradientTransform="matrix(1, 0, 0, 1, 349.909027, -0.094155)">
      <stop offset="0" style="stop-color: rgb(0% 100% 97.255%)"/>
      <stop offset="1" style="stop-color: rgb(0% 57.811% 56.235%)"/>
    </linearGradient>
  </defs>
  <rect y="-8.458" width="509.791" height="510.458" style="fill: rgb(41, 41, 41);" x="-8.791"/>
  <g transform="matrix(0.870612, 0, 0, -1.129115, 225.018066, 592.65094)" style="">
    <path d="M -279.98 301.053 L -266.28 301.053 L -266.28 233.548 L -234.72 233.548 L -234.72 298.851 L -216.6 298.851 L -216.6 266.076 L -158.75 265.101 L -158.24 298.912 L -148.46 298.748 L -148.97 264.937 L -148.74 264.933 L -148.95 250.427 L -216.6 251.566 L -216.6 188.461 L -197.1 188.461 L -197.1 188.842 L -186.47 188.842 L -186.47 72.231 L -197.1 72.231 L -197.1 173.007 L -216.6 173.007 L -216.6 172.336 L -234.72 172.336 L -234.72 172.744 L -276.94 172.744 L -276.94 189.513 L -234.72 189.513 L -234.72 223.195 L -266.28 223.195 L -266.28 222.943 L -279.98 222.943 L -279.98 301.053 Z" style="fill: rgba(0, 0, 0, 0.23); transform-origin: -214.223px 186.644px;" transform="matrix(-0.999908, -0.013559, 0.013559, -0.999908, 0.000028, -0.000014)"/>
    <path d="M -244.95 528.332 L -231.25 528.332 L -231.25 460.827 L -199.69 460.827 L -199.69 526.13 L -181.57 526.13 L -181.57 493.355 L -123.72 492.38 L -123.21 526.191 L -113.43 526.027 L -113.94 492.216 L -113.71 492.212 L -113.92 477.706 L -181.57 478.845 L -181.57 415.74 L -162.07 415.74 L -162.07 416.121 L -151.44 416.121 L -151.44 299.51 L -162.07 299.51 L -162.07 400.286 L -181.57 400.286 L -181.57 399.615 L -199.69 399.615 L -199.69 400.023 L -241.91 400.023 L -241.91 416.792 L -199.69 416.792 L -199.69 450.474 L -231.25 450.474 L -231.25 450.222 L -244.95 450.222 L -244.95 528.332 Z" style="fill: rgba(0, 0, 0, 0.23); transform-origin: -179.191px 413.923px;" transform="matrix(-0.999908, -0.013559, 0.013559, -0.999908, 0.000016, -0.000022)"/>
    <path d="M -151.23 301.59 L -143.73 301.59 L -143.73 267.115 L -126.46 267.115 L -126.46 300.466 L -116.54 300.466 L -116.54 283.728 L -84.888 283.23 L -84.603 300.497 L -79.257 300.413 L -79.531 283.146 L -79.405 283.144 L -79.519 275.735 L -116.54 276.317 L -116.54 244.089 L -105.87 244.089 L -105.87 244.284 L -100.06 244.284 L -100.06 184.732 L -105.87 184.732 L -105.87 236.198 L -116.54 236.198 L -116.54 235.855 L -126.46 235.855 L -126.46 236.063 L -149.56 236.063 L -149.56 244.627 L -126.46 244.627 L -126.46 261.828 L -143.73 261.828 L -143.73 261.699 L -151.23 261.699 L -151.23 301.59 Z" style="fill: rgba(0, 0, 0, 0.23); transform-origin: -115.242px 243.162px;" transform="matrix(-0.999908, -0.013559, 0.013559, -0.999908, -0.000011, 0.000018)"/>
  </g>
  <rect x="67.118" y="0.651" width="18.795" height="509.669" style="fill: url(&quot;#gradient-0&quot;);"/>
  <rect x="61.544" y="-8.16" width="30.841" height="510.28" style="stroke: rgb(0, 0, 0); fill: rgba(255, 255, 255, 0.36); stroke-width: 3px; stroke-opacity: 0.48;"/>
  <g>
    <path d="M 79.007 -7.897 L 79.007 5.836 L 56.73 5.836 L 47.911 -7.897 L 79.007 -7.897 Z" style="stroke-width: 3px; stroke: rgb(0, 0, 0); fill: rgb(172, 100, 35);"/>
    <path d="M 107.779 5.627 L 107.779 -8.106 L 85.502 -8.106 L 76.683 5.627 L 107.779 5.627 Z" style="stroke-width: 3px; stroke: rgb(0, 0, 0); fill: rgb(255, 177, 0); transform-box: fill-box; transform-origin: 50% 50%;" transform="matrix(-1, 0, 0, -1, 0.000002, 0)"/>
  </g>
  <ellipse style="fill: rgb(255, 255, 255);" cx="71.251" cy="88.642" rx="5.884" ry="5.884"/>
  <ellipse style="fill: rgb(255, 255, 255);" cx="83.554" cy="121.004" rx="5.884" ry="5.884"/>
  <ellipse style="fill: rgb(255, 255, 255);" cx="69.111" cy="180.513" rx="3.744" ry="3.878"/>
  <ellipse style="fill: rgb(255, 255, 255);" cx="-83.554" cy="301.647" rx="5.884" ry="5.884" transform="matrix(-1, 0, 0, 1, 0, 0)"/>
  <ellipse style="fill: rgb(255, 255, 255);" cx="-71.251" cy="334.009" rx="5.884" ry="5.884" transform="matrix(-1, 0, 0, 1, 0, 0)"/>
  <ellipse style="fill: rgb(255, 255, 255);" cx="-85.694" cy="393.518" rx="3.744" ry="3.878" transform="matrix(-1, 0, 0, 1, 0, 0)"/>
  <g transform="matrix(0.870612, 0, 0, 1.129115, 499.048431, -92.898506)" style="">
    <path d="M -279.98 301.053 L -266.28 301.053 L -266.28 233.548 L -234.72 233.548 L -234.72 298.851 L -216.6 298.851 L -216.6 266.076 L -158.75 265.101 L -158.24 298.912 L -148.46 298.748 L -148.97 264.937 L -148.74 264.933 L -148.95 250.427 L -216.6 251.566 L -216.6 188.461 L -197.1 188.461 L -197.1 188.842 L -186.47 188.842 L -186.47 72.231 L -197.1 72.231 L -197.1 173.007 L -216.6 173.007 L -216.6 172.336 L -234.72 172.336 L -234.72 172.744 L -276.94 172.744 L -276.94 189.513 L -234.72 189.513 L -234.72 223.195 L -266.28 223.195 L -266.28 222.943 L -279.98 222.943 L -279.98 301.053 Z" style="fill: rgba(0, 0, 0, 0.23); transform-origin: -214.223px 186.644px;" transform="matrix(-0.999908, -0.013559, 0.013559, -0.999908, 0.000028, -0.000014)"/>
    <path d="M -244.95 528.332 L -231.25 528.332 L -231.25 460.827 L -199.69 460.827 L -199.69 526.13 L -181.57 526.13 L -181.57 493.355 L -123.72 492.38 L -123.21 526.191 L -113.43 526.027 L -113.94 492.216 L -113.71 492.212 L -113.92 477.706 L -181.57 478.845 L -181.57 415.74 L -162.07 415.74 L -162.07 416.121 L -151.44 416.121 L -151.44 299.51 L -162.07 299.51 L -162.07 400.286 L -181.57 400.286 L -181.57 399.615 L -199.69 399.615 L -199.69 400.023 L -241.91 400.023 L -241.91 416.792 L -199.69 416.792 L -199.69 450.474 L -231.25 450.474 L -231.25 450.222 L -244.95 450.222 L -244.95 528.332 Z" style="fill: rgba(0, 0, 0, 0.23); transform-origin: -179.191px 413.923px;" transform="matrix(-0.999908, -0.013559, 0.013559, -0.999908, 0.000016, -0.000022)"/>
    <path d="M -151.23 301.59 L -143.73 301.59 L -143.73 267.115 L -126.46 267.115 L -126.46 300.466 L -116.54 300.466 L -116.54 283.728 L -84.888 283.23 L -84.603 300.497 L -79.257 300.413 L -79.531 283.146 L -79.405 283.144 L -79.519 275.735 L -116.54 276.317 L -116.54 244.089 L -105.87 244.089 L -105.87 244.284 L -100.06 244.284 L -100.06 184.732 L -105.87 184.732 L -105.87 236.198 L -116.54 236.198 L -116.54 235.855 L -126.46 235.855 L -126.46 236.063 L -149.56 236.063 L -149.56 244.627 L -126.46 244.627 L -126.46 261.828 L -143.73 261.828 L -143.73 261.699 L -151.23 261.699 L -151.23 301.59 Z" style="fill: rgba(0, 0, 0, 0.23); transform-origin: -115.242px 243.162px;" transform="matrix(-0.999908, -0.013559, 0.013559, -0.999908, -0.000011, 0.000018)"/>
  </g>
  <path d="M 488.172 502.36 L 476.246 502.569 L 475.449 426.356 L 447.975 426.839 L 448.746 500.567 L 432.972 500.844 L 432.585 463.841 L 382.213 463.626 L 382.168 501.806 L 373.653 501.771 L 373.697 463.59 L 373.497 463.589 L 373.509 447.208 L 432.414 447.459 L 431.669 376.212 L 414.693 376.511 L 414.698 376.941 L 405.444 377.104 L 404.067 245.449 L 413.321 245.286 L 414.511 359.063 L 431.486 358.765 L 431.478 358.007 L 447.252 357.73 L 447.257 358.19 L 484.011 357.544 L 484.209 376.476 L 447.455 377.123 L 447.853 415.15 L 475.327 414.667 L 475.324 414.382 L 487.25 414.173 L 488.172 502.36 Z" style="fill: rgba(0, 0, 0, 0.23); transform-origin: -214.223px 186.644px;"/>
  <path d="M 518.673 245.736 L 506.747 245.945 L 505.95 169.731 L 478.476 170.215 L 479.247 243.942 L 463.473 244.22 L 463.086 207.216 L 412.714 207.001 L 412.669 245.182 L 404.154 245.147 L 404.198 206.966 L 403.998 206.965 L 404.01 190.584 L 462.915 190.835 L 462.17 119.588 L 445.194 119.887 L 445.199 120.317 L 435.945 120.48 L 434.569 -11.175 L 443.822 -11.338 L 445.012 102.439 L 461.987 102.141 L 461.979 101.383 L 477.753 101.106 L 477.758 101.566 L 514.512 100.92 L 514.71 119.852 L 477.956 120.499 L 478.354 158.526 L 505.828 158.043 L 505.825 157.758 L 517.751 157.549 L 518.673 245.736 Z" style="fill: rgba(0, 0, 0, 0.23); transform-origin: -179.191px 413.923px;"/>
  <path d="M 547.77 375.797 L 541.241 375.912 L 540.834 336.989 L 525.8 337.254 L 526.194 374.907 L 517.558 375.059 L 517.361 356.162 L 489.801 356.084 L 489.757 375.583 L 485.102 375.57 L 485.136 356.071 L 485.027 356.071 L 485.038 347.704 L 517.273 347.795 L 516.893 311.409 L 507.604 311.572 L 507.607 311.792 L 502.549 311.881 L 501.846 244.646 L 506.904 244.557 L 507.511 302.663 L 516.8 302.5 L 516.796 302.112 L 525.431 301.961 L 525.434 302.195 L 545.543 301.842 L 545.644 311.511 L 525.535 311.864 L 525.738 331.284 L 540.772 331.02 L 540.77 330.874 L 547.299 330.76 L 547.77 375.797 Z" style="fill: rgba(0, 0, 0, 0.23); transform-origin: -115.242px 243.162px;"/>
  <g transform="matrix(0.870612, 0, 0, -1.129115, 375.572418, 584.697998)" style="">
    <path d="M -279.98 301.053 L -266.28 301.053 L -266.28 233.548 L -234.72 233.548 L -234.72 298.851 L -216.6 298.851 L -216.6 266.076 L -158.75 265.101 L -158.24 298.912 L -148.46 298.748 L -148.97 264.937 L -148.74 264.933 L -148.95 250.427 L -216.6 251.566 L -216.6 188.461 L -197.1 188.461 L -197.1 188.842 L -186.47 188.842 L -186.47 72.231 L -197.1 72.231 L -197.1 173.007 L -216.6 173.007 L -216.6 172.336 L -234.72 172.336 L -234.72 172.744 L -276.94 172.744 L -276.94 189.513 L -234.72 189.513 L -234.72 223.195 L -266.28 223.195 L -266.28 222.943 L -279.98 222.943 L -279.98 301.053 Z" style="fill: rgba(0, 0, 0, 0.23); transform-origin: -214.223px 186.644px;" transform="matrix(-0.999908, -0.013559, 0.013559, -0.999908, 0.000028, -0.000014)"/>
    <path d="M -244.95 528.332 L -231.25 528.332 L -231.25 460.827 L -199.69 460.827 L -199.69 526.13 L -181.57 526.13 L -181.57 493.355 L -123.72 492.38 L -123.21 526.191 L -113.43 526.027 L -113.94 492.216 L -113.71 492.212 L -113.92 477.706 L -181.57 478.845 L -181.57 415.74 L -162.07 415.74 L -162.07 416.121 L -151.44 416.121 L -151.44 299.51 L -162.07 299.51 L -162.07 400.286 L -181.57 400.286 L -181.57 399.615 L -199.69 399.615 L -199.69 400.023 L -241.91 400.023 L -241.91 416.792 L -199.69 416.792 L -199.69 450.474 L -231.25 450.474 L -231.25 450.222 L -244.95 450.222 L -244.95 528.332 Z" style="fill: rgba(0, 0, 0, 0.23); transform-origin: -179.191px 413.923px;" transform="matrix(-0.999908, -0.013559, 0.013559, -0.999908, 0.000016, -0.000022)"/>
    <path d="M -151.23 301.59 L -143.73 301.59 L -143.73 267.115 L -126.46 267.115 L -126.46 300.466 L -116.54 300.466 L -116.54 283.728 L -84.888 283.23 L -84.603 300.497 L -79.257 300.413 L -79.531 283.146 L -79.405 283.144 L -79.519 275.735 L -116.54 276.317 L -116.54 244.089 L -105.87 244.089 L -105.87 244.284 L -100.06 244.284 L -100.06 184.732 L -105.87 184.732 L -105.87 236.198 L -116.54 236.198 L -116.54 235.855 L -126.46 235.855 L -126.46 236.063 L -149.56 236.063 L -149.56 244.627 L -126.46 244.627 L -126.46 261.828 L -143.73 261.828 L -143.73 261.699 L -151.23 261.699 L -151.23 301.59 Z" style="fill: rgba(0, 0, 0, 0.23); transform-origin: -115.242px 243.162px;" transform="matrix(-0.999908, -0.013559, 0.013559, -0.999908, -0.000011, 0.000018)"/>
  </g>
  <path d="M 231.882 341.256 L 227.006 341.332 L 226.702 315.702 L 215.475 315.877 L 215.77 340.67 L 209.32 340.771 L 209.173 328.327 L 188.592 328.276 L 188.559 341.116 L 185.083 341.107 L 185.108 328.267 L 185.027 328.267 L 185.035 322.758 L 209.108 322.818 L 208.824 298.858 L 201.887 298.965 L 201.889 299.11 L 198.112 299.169 L 197.587 254.896 L 201.364 254.837 L 201.818 293.099 L 208.754 292.992 L 208.751 292.736 L 215.2 292.637 L 215.202 292.791 L 230.219 292.558 L 230.294 298.925 L 215.277 299.158 L 215.429 311.945 L 226.656 311.772 L 226.655 311.675 L 231.53 311.6 L 231.882 341.256 Z" style="fill: rgba(0, 0, 0, 0.23); transform-origin: -263.241px 253.918px;"/>
  <path d="M 173.003 107.587 L 167.544 107.687 L 167.204 74.026 L 154.633 74.256 L 154.963 106.817 L 147.741 106.95 L 147.577 90.607 L 124.533 90.54 L 124.496 107.403 L 120.604 107.391 L 120.632 90.528 L 120.541 90.528 L 120.55 83.293 L 147.504 83.372 L 147.186 51.904 L 139.419 52.044 L 139.421 52.235 L 135.192 52.312 L 134.604 -5.834 L 138.833 -5.911 L 139.341 44.34 L 147.108 44.2 L 147.104 43.863 L 154.325 43.733 L 154.327 43.936 L 171.141 43.63 L 171.225 51.992 L 154.411 52.298 L 154.581 69.092 L 167.152 68.864 L 167.151 68.737 L 172.609 68.638 L 173.003 107.587 Z" style="fill: rgba(0, 0, 0, 0.23); transform-origin: -381.374px -7.118px;"/>
  <g transform="matrix(1, 0, 0, -1, -1.64714, 493.231018)" style="">
    <path d="M 79.007 -7.897 L 79.007 5.836 L 56.73 5.836 L 47.911 -7.897 L 79.007 -7.897 Z" style="stroke-width: 3px; stroke: rgb(0, 0, 0); fill: rgb(172, 100, 35);"/>
    <path d="M 107.779 5.627 L 107.779 -8.106 L 85.502 -8.106 L 76.683 5.627 L 107.779 5.627 Z" style="stroke-width: 3px; stroke: rgb(0, 0, 0); fill: rgb(255, 177, 0); transform-box: fill-box; transform-origin: 50% 50%;" transform="matrix(-1, 0, 0, -1, 0.000002, 0)"/>
  </g>
  <g transform="matrix(1, 0, 0, -1, -0.658616, 286.997131)" style="">
    <path d="M 79.007 -7.897 L 79.007 5.836 L 56.73 5.836 L 47.911 -7.897 L 79.007 -7.897 Z" style="stroke-width: 3px; stroke: rgb(0, 0, 0); fill: rgb(172, 100, 35);"/>
    <path d="M 107.779 5.627 L 107.779 -8.106 L 85.502 -8.106 L 76.683 5.627 L 107.779 5.627 Z" style="stroke-width: 3px; stroke: rgb(0, 0, 0); fill: rgb(255, 177, 0); transform-box: fill-box; transform-origin: 50% 50%;" transform="matrix(-1, 0, 0, -1, 0.000002, 0)"/>
  </g>
  <g transform="matrix(1, 0, 0, 1, 1.062835, 115.497719)" style="">
    <path d="M 79.007 -7.897 L 79.007 5.836 L 56.73 5.836 L 47.911 -7.897 L 79.007 -7.897 Z" style="stroke-width: 3px; stroke: rgb(0, 0, 0); fill: rgb(172, 100, 35);"/>
    <path d="M 107.779 5.627 L 107.779 -8.106 L 85.502 -8.106 L 76.683 5.627 L 107.779 5.627 Z" style="stroke-width: 3px; stroke: rgb(0, 0, 0); fill: rgb(255, 177, 0); transform-box: fill-box; transform-origin: 50% 50%;" transform="matrix(-1, 0, 0, -1, 0.000002, 0)"/>
  </g>
  <g transform="matrix(0.666092, 0, 0, 0.622902, -243.504944, 63.13406)" style="">
    <rect x="631.75" y="101.626" width="229.9" height="144.508" style="fill: rgb(21, 21, 21); stroke: rgb(0, 0, 0); stroke-width: 8px; stroke-linejoin: bevel; filter: url(&quot;#drop-shadow-filter-0&quot;);"/>
    <rect x="644.887" y="113.763" width="204.72" height="122.613" style="stroke-linejoin: bevel; stroke-width: 2px; stroke: rgb(23, 34, 64); fill: rgb(0, 255, 227);"/>
    <text style="fill: rgb(34, 60, 188); font-family: Arial, sans-serif; font-size: 28px; white-space: pre;" transform="matrix(0.466985, 0, 0, 0.843337, 586.166199, -8.049309)" x="169.492" y="173.509">O jean esta chorando agora</text>
    <ellipse style="fill: rgb(255, 255, 255);" cx="689.581" cy="196.437" rx="21.79" ry="21.363"/>
    <ellipse style="fill: rgb(255, 255, 255);" cx="689.068" cy="168.637" rx="14.1" ry="15.168"/>
    <rect x="351.178" y="275.42" width="82.91" height="6.683" style="fill: rgb(255, 255, 255); transform-origin: 392.633px 278.762px;" transform="matrix(0.900333, 0.435201, -0.435201, 0.900333, 300.220898, -82.539787)"/>
    <rect x="-351.18" y="-275.42" width="82.91" height="6.683" style="fill: rgb(255, 255, 255); transform-origin: -309.723px -272.078px;" transform="matrix(-0.900333, 0.435201, 0.435201, 0.900333, 1002.149687, 468.300236)"/>
    <rect x="351.18" y="275.42" width="82.91" height="6.683" style="fill: rgb(255, 255, 255); transform-origin: 392.637px 278.762px;" transform="matrix(-0.998813, 0.048702, 0.048702, 0.998813, 299.362449, -82.539796)"/>
    <rect x="708.72" y="146.779" width="67.729" height="33.258" style="fill: rgb(26, 38, 171);"/>
    <path d="M 466.976 523.863 L 483.234 560.172 L 466.976 560.172 L 466.976 523.863 Z" bx:shape="triangle 466.976 523.863 16.258 36.309 0 0 1@f3dca52a" style="fill: rgb(26, 38, 171); transform-origin: 475.105px 542.018px;" transform="matrix(-0.667441, -0.744663, 0.744663, -0.667441, 227.424085, -361.859948)"/>
    <ellipse style="fill: rgb(255, 255, 255);" cx="743.773" cy="163.029" rx="11.837" ry="12.745"/>
    <ellipse style="fill: rgb(26, 38, 171);" cx="751.056" cy="163.151" rx="3.098" ry="3.642"/>
    <ellipse style="fill: rgb(26, 38, 171);" cx="743.288" cy="168.977" rx="3.098" ry="3.642"/>
    <ellipse style="fill: rgb(26, 38, 171);" cx="736.005" cy="162.908" rx="3.098" ry="3.642"/>
    <rect x="557.832" y="158.377" width="8.331" height="2.845" style="fill: rgb(255, 255, 255);" transform="matrix(1, 0, 0, 1, 175.025131, 0)"/>
    <rect x="739.141" y="164.489" width="8.331" height="2.845" style="fill: rgb(255, 255, 255);"/>
    <rect x="746.236" y="158.815" width="8.331" height="2.845" style="fill: rgb(255, 255, 255);"/>
    <rect x="173.406" y="2075.64" width="40.939" height="50.365" style="fill: rgb(255, 255, 255); transform-origin: 193.898px 2100.77px;" transform="matrix(0.000388, 1, -1, 0.000388, 619.892081, -1930.113282)"/>
    <rect x="790.371" y="194.456" width="46.317" height="6.422" style="fill: rgb(26, 38, 171);"/>
    <rect x="790.086" y="204.448" width="46.317" height="6.422" style="fill: rgb(26, 38, 171);"/>
    <rect x="789.515" y="215.582" width="46.317" height="6.422" style="fill: rgb(26, 38, 171);"/>
    <rect x="736.718" y="21.107" width="27.779" height="71.924" style="fill: rgb(21, 21, 21); stroke: rgb(0, 0, 0); stroke-linejoin: bevel; filter: url(&quot;#filter-1&quot;); stroke-width: 3px;"/>
    <rect x="712.151" y="-3.577" width="79.147" height="42.89" style="fill: rgb(21, 21, 21); stroke: rgb(0, 0, 0); stroke-linejoin: bevel; filter: url(&quot;#filter-2&quot;); stroke-width: 3px;"/>
    <ellipse style="fill: rgb(0, 248, 255); stroke: rgb(0, 0, 0);" cx="752.158" cy="18.619" rx="9.492" ry="8.933"/>
  </g>
  <rect x="417.027" y="0.557" width="18.795" height="509.669" style="fill: url(&quot;#gradient-1&quot;);"/>
  <rect x="411.453" y="-8.254" width="30.841" height="510.28" style="stroke: rgb(0, 0, 0); fill: rgba(255, 255, 255, 0.36); stroke-width: 3px; stroke-opacity: 0.48;"/>
  <g transform="matrix(-1, 0, 0, 1, 505.59903, -0.094155)" style="">
    <path d="M 79.007 -7.897 L 79.007 5.836 L 56.73 5.836 L 47.911 -7.897 L 79.007 -7.897 Z" style="stroke-width: 3px; stroke: rgb(0, 0, 0); fill: rgb(172, 100, 35);"/>
    <path d="M 107.779 5.627 L 107.779 -8.106 L 85.502 -8.106 L 76.683 5.627 L 107.779 5.627 Z" style="stroke-width: 3px; stroke: rgb(0, 0, 0); fill: rgb(255, 177, 0); transform-box: fill-box; transform-origin: 50% 50%;" transform="matrix(-1, 0, 0, -1, 0.000002, 0)"/>
  </g>
  <ellipse style="fill: rgb(255, 255, 255);" cx="421.16" cy="88.548" rx="5.884" ry="5.884"/>
  <ellipse style="fill: rgb(255, 255, 255);" cx="433.463" cy="120.91" rx="5.884" ry="5.884"/>
  <ellipse style="fill: rgb(255, 255, 255);" cx="419.02" cy="180.419" rx="3.744" ry="3.878"/>
  <ellipse style="fill: rgb(255, 255, 255);" cx="-433.46" cy="301.553" rx="5.884" ry="5.884" transform="matrix(-1, 0, 0, 1, 0, 0)"/>
  <ellipse style="fill: rgb(255, 255, 255);" cx="-421.16" cy="333.915" rx="5.884" ry="5.884" transform="matrix(-1, 0, 0, 1, 0, 0)"/>
  <ellipse style="fill: rgb(255, 255, 255);" cx="-435.6" cy="393.424" rx="3.744" ry="3.878" transform="matrix(-1, 0, 0, 1, 0, 0)"/>
  <g transform="matrix(-1, 0, 0, -1, 503.951874, 493.136871)" style="">
    <path d="M 79.007 -7.897 L 79.007 5.836 L 56.73 5.836 L 47.911 -7.897 L 79.007 -7.897 Z" style="stroke-width: 3px; stroke: rgb(0, 0, 0); fill: rgb(172, 100, 35);"/>
    <path d="M 107.779 5.627 L 107.779 -8.106 L 85.502 -8.106 L 76.683 5.627 L 107.779 5.627 Z" style="stroke-width: 3px; stroke: rgb(0, 0, 0); fill: rgb(255, 177, 0); transform-box: fill-box; transform-origin: 50% 50%;" transform="matrix(-1, 0, 0, -1, 0.000002, 0)"/>
  </g>
  <g transform="matrix(-1, 0, 0, -1, 504.94043, 286.902985)" style="">
    <path d="M 79.007 -7.897 L 79.007 5.836 L 56.73 5.836 L 47.911 -7.897 L 79.007 -7.897 Z" style="stroke-width: 3px; stroke: rgb(0, 0, 0); fill: rgb(172, 100, 35);"/>
    <path d="M 107.779 5.627 L 107.779 -8.106 L 85.502 -8.106 L 76.683 5.627 L 107.779 5.627 Z" style="stroke-width: 3px; stroke: rgb(0, 0, 0); fill: rgb(255, 177, 0); transform-box: fill-box; transform-origin: 50% 50%;" transform="matrix(-1, 0, 0, -1, 0.000002, 0)"/>
  </g>
  <g transform="matrix(-1, 0, 0, 1, 506.662018, 115.403847)" style="">
    <path d="M 79.007 -7.897 L 79.007 5.836 L 56.73 5.836 L 47.911 -7.897 L 79.007 -7.897 Z" style="stroke-width: 3px; stroke: rgb(0, 0, 0); fill: rgb(172, 100, 35);"/>
    <path d="M 107.779 5.627 L 107.779 -8.106 L 85.502 -8.106 L 76.683 5.627 L 107.779 5.627 Z" style="stroke-width: 3px; stroke: rgb(0, 0, 0); fill: rgb(255, 177, 0); transform-box: fill-box; transform-origin: 50% 50%;" transform="matrix(-1, 0, 0, -1, 0.000002, 0)"/>
  </g>
</svg>