<?xml version="1.0" encoding="utf-8"?>
<svg xmlns="http://www.w3.org/2000/svg" viewBox="0 0 150 150">
  <defs>
    <linearGradient gradientUnits="userSpaceOnUse" x1="72.384" y1="-17.864" x2="72.384" y2="167.642" id="gradient-0">
      <stop offset="0" style="stop-color: rgb(100% 100% 100%)"/>
      <stop offset="1" style="stop-color: rgb(56.687% 56.687% 56.687%)"/>
    </linearGradient>
    <linearGradient gradientUnits="userSpaceOnUse" x1="77.881" y1="-21.798" x2="77.881" y2="171.253" id="gradient-1">
      <stop offset="0" style="stop-color: rgb(100% 100% 100%)"/>
      <stop offset="1" style="stop-color: rgb(56.687% 56.687% 56.687%)"/>
    </linearGradient>
    <linearGradient gradientUnits="userSpaceOnUse" x1="74.81" y1="1.216" x2="74.81" y2="148.239" id="gradient-2">
      <stop offset="0" style="stop-color: rgb(100% 100% 100%)"/>
      <stop offset="1" style="stop-color: rgb(56.687% 56.687% 56.687%)"/>
    </linearGradient>
    <linearGradient gradientUnits="userSpaceOnUse" x1="74.81" y1="1.216" x2="74.81" y2="148.239" id="gradient-3">
      <stop offset="0" style="stop-color: rgb(100% 100% 100%)"/>
      <stop offset="1" style="stop-color: rgb(56.687% 56.687% 56.687%)"/>
    </linearGradient>
    <linearGradient gradientUnits="userSpaceOnUse" x1="48.135" y1="-8.015" x2="48.135" y2="44.626" id="gradient-4">
      <stop offset="0" style="stop-color: rgb(100% 100% 100%)"/>
      <stop offset="1" style="stop-color: rgb(56.687% 56.687% 56.687%)"/>
    </linearGradient>
    <linearGradient gradientUnits="userSpaceOnUse" x1="101.162" y1="-7.371" x2="101.162" y2="45.27" id="gradient-5">
      <stop offset="0" style="stop-color: rgb(100% 100% 100%)"/>
      <stop offset="1" style="stop-color: rgb(56.687% 56.687% 56.687%)"/>
    </linearGradient>
    <linearGradient gradientUnits="userSpaceOnUse" x1="49.105" y1="107.412" x2="49.105" y2="160.053" id="gradient-6">
      <stop offset="0" style="stop-color: rgb(100% 100% 100%)"/>
      <stop offset="1" style="stop-color: rgb(56.687% 56.687% 56.687%)"/>
    </linearGradient>
    <linearGradient gradientUnits="userSpaceOnUse" x1="102.132" y1="106.768" x2="102.132" y2="159.409" id="gradient-7">
      <stop offset="0" style="stop-color: rgb(100% 100% 100%)"/>
      <stop offset="1" style="stop-color: rgb(56.687% 56.687% 56.687%)"/>
    </linearGradient>
    <linearGradient gradientUnits="userSpaceOnUse" x1="19.681" y1="24.641" x2="19.681" y2="77.282" id="gradient-8">
      <stop offset="0" style="stop-color: rgb(100% 100% 100%)"/>
      <stop offset="1" style="stop-color: rgb(56.687% 56.687% 56.687%)"/>
    </linearGradient>
    <linearGradient gradientUnits="userSpaceOnUse" x1="131.261" y1="23.668" x2="131.261" y2="76.309" id="gradient-9">
      <stop offset="0" style="stop-color: rgb(100% 100% 100%)"/>
      <stop offset="1" style="stop-color: rgb(56.687% 56.687% 56.687%)"/>
    </linearGradient>
    <linearGradient gradientUnits="userSpaceOnUse" x1="19.651" y1="75.109" x2="19.651" y2="127.75" id="gradient-10">
      <stop offset="0" style="stop-color: rgb(100% 100% 100%)"/>
      <stop offset="1" style="stop-color: rgb(56.687% 56.687% 56.687%)"/>
    </linearGradient>
    <linearGradient gradientUnits="userSpaceOnUse" x1="132.232" y1="74.083" x2="132.232" y2="126.724" id="gradient-11">
      <stop offset="0" style="stop-color: rgb(100% 100% 100%)"/>
      <stop offset="1" style="stop-color: rgb(56.687% 56.687% 56.687%)"/>
    </linearGradient>
    <linearGradient gradientUnits="userSpaceOnUse" x1="56.219" y1="16.081" x2="56.219" y2="51.568" id="gradient-12">
      <stop offset="0" style="stop-color: rgb(100% 100% 100%)"/>
      <stop offset="1" style="stop-color: rgb(56.687% 56.687% 56.687%)"/>
    </linearGradient>
    <linearGradient gradientUnits="userSpaceOnUse" x1="63.656" y1="40.68" x2="63.656" y2="61.241" id="gradient-13">
      <stop offset="0" style="stop-color: rgb(100% 100% 100%)"/>
      <stop offset="1" style="stop-color: rgb(56.687% 56.687% 56.687%)"/>
    </linearGradient>
    <linearGradient gradientUnits="userSpaceOnUse" x1="35.333" y1="36.689" x2="35.333" y2="75.579" id="gradient-14">
      <stop offset="0" style="stop-color: rgb(100% 100% 100%)"/>
      <stop offset="1" style="stop-color: rgb(56.687% 56.687% 56.687%)"/>
    </linearGradient>
    <linearGradient gradientUnits="userSpaceOnUse" x1="51.823" y1="53.431" x2="51.823" y2="75.65" id="gradient-15">
      <stop offset="0" style="stop-color: rgb(100% 100% 100%)"/>
      <stop offset="1" style="stop-color: rgb(56.687% 56.687% 56.687%)"/>
    </linearGradient>
    <linearGradient gradientUnits="userSpaceOnUse" x1="36.141" y1="74.218" x2="36.141" y2="111.827" id="gradient-16">
      <stop offset="0" style="stop-color: rgb(100% 100% 100%)"/>
      <stop offset="1" style="stop-color: rgb(56.687% 56.687% 56.687%)"/>
    </linearGradient>
    <linearGradient gradientUnits="userSpaceOnUse" x1="51.337" y1="73.058" x2="51.337" y2="97.143" id="gradient-17">
      <stop offset="0" style="stop-color: rgb(100% 100% 100%)"/>
      <stop offset="1" style="stop-color: rgb(56.687% 56.687% 56.687%)"/>
    </linearGradient>
    <linearGradient gradientUnits="userSpaceOnUse" x1="57.997" y1="98.64" x2="57.997" y2="134.552" id="gradient-18">
      <stop offset="0" style="stop-color: rgb(100% 100% 100%)"/>
      <stop offset="1" style="stop-color: rgb(56.687% 56.687% 56.687%)"/>
    </linearGradient>
    <linearGradient gradientUnits="userSpaceOnUse" x1="64.627" y1="88.438" x2="64.627" y2="108.218" id="gradient-19">
      <stop offset="0" style="stop-color: rgb(100% 100% 100%)"/>
      <stop offset="1" style="stop-color: rgb(56.687% 56.687% 56.687%)"/>
    </linearGradient>
    <linearGradient gradientUnits="userSpaceOnUse" x1="90.977" y1="98.155" x2="90.977" y2="133.424" id="gradient-20">
      <stop offset="0" style="stop-color: rgb(100% 100% 100%)"/>
      <stop offset="1" style="stop-color: rgb(56.687% 56.687% 56.687%)"/>
    </linearGradient>
    <linearGradient gradientUnits="userSpaceOnUse" x1="83.863" y1="88.571" x2="83.863" y2="107.765" id="gradient-21">
      <stop offset="0" style="stop-color: rgb(100% 100% 100%)"/>
      <stop offset="1" style="stop-color: rgb(56.687% 56.687% 56.687%)"/>
    </linearGradient>
    <linearGradient gradientUnits="userSpaceOnUse" x1="113.449" y1="70.768" x2="113.449" y2="112.577" id="gradient-22">
      <stop offset="0" style="stop-color: rgb(100% 100% 100%)"/>
      <stop offset="1" style="stop-color: rgb(56.687% 56.687% 56.687%)"/>
    </linearGradient>
    <linearGradient gradientUnits="userSpaceOnUse" x1="96.15" y1="72.571" x2="96.15" y2="96.545" id="gradient-23">
      <stop offset="0" style="stop-color: rgb(100% 100% 100%)"/>
      <stop offset="1" style="stop-color: rgb(56.687% 56.687% 56.687%)"/>
    </linearGradient>
    <linearGradient gradientUnits="userSpaceOnUse" x1="114.549" y1="41.438" x2="114.549" y2="73.149" id="gradient-24">
      <stop offset="0" style="stop-color: rgb(100% 100% 100%)"/>
      <stop offset="1" style="stop-color: rgb(56.687% 56.687% 56.687%)"/>
    </linearGradient>
    <linearGradient gradientUnits="userSpaceOnUse" x1="96.543" y1="54.224" x2="96.543" y2="74.233" id="gradient-25">
      <stop offset="0" style="stop-color: rgb(100% 100% 100%)"/>
      <stop offset="1" style="stop-color: rgb(56.687% 56.687% 56.687%)"/>
    </linearGradient>
    <linearGradient gradientUnits="userSpaceOnUse" x1="92.725" y1="15.575" x2="92.725" y2="53.749" id="gradient-26">
      <stop offset="0" style="stop-color: rgb(100% 100% 100%)"/>
      <stop offset="1" style="stop-color: rgb(56.687% 56.687% 56.687%)"/>
    </linearGradient>
    <linearGradient gradientUnits="userSpaceOnUse" x1="83.994" y1="41.391" x2="83.994" y2="61.883" id="gradient-27">
      <stop offset="0" style="stop-color: rgb(100% 100% 100%)"/>
      <stop offset="1" style="stop-color: rgb(56.687% 56.687% 56.687%)"/>
    </linearGradient>
  </defs>
  <path d="M 70.214 -8.34 C 69.263 -9.305 68.648 -10.843 68.648 -12.572 C 68.648 -15.495 70.403 -17.864 72.57 -17.864 C 74.736 -17.864 76.491 -15.495 76.491 -12.572 C 76.491 -10.712 75.78 -9.076 74.705 -8.133 L 74.705 158.278 C 75.57 159.248 76.121 160.712 76.121 162.35 C 76.121 165.273 74.366 167.642 72.2 167.642 C 70.034 167.642 68.278 165.273 68.278 162.35 C 68.278 160.404 69.056 158.704 70.214 157.785 L 70.214 -8.34 Z" style="stroke: rgb(0, 0, 0); transform-box: fill-box; transform-origin: 50% 50%; fill: url(&quot;#gradient-0&quot;);" transform="matrix(0.709104, -0.705104, 0.705104, 0.709104, -0.000003, -0.000002)"/>
  <path d="M 75.656 161.342 C 74.681 162.346 74.05 163.947 74.05 165.746 C 74.05 168.788 75.849 171.253 78.071 171.253 C 80.292 171.253 82.091 168.788 82.091 165.746 C 82.091 163.81 81.362 162.108 80.26 161.126 L 80.26 -12.054 C 81.147 -13.063 81.712 -14.587 81.712 -16.291 C 81.712 -19.333 79.912 -21.798 77.692 -21.798 C 75.471 -21.798 73.671 -19.333 73.671 -16.291 C 73.671 -14.266 74.468 -12.497 75.656 -11.54 L 75.656 161.342 Z" style="stroke: rgb(0, 0, 0); transform-origin: 77.881px 74.727px; fill: url(&quot;#gradient-1&quot;);" transform="matrix(-0.709104, -0.705104, 0.705104, -0.709104, -0.000012, 0.000006)"/>
  <path d="M 72.81 8.764 C 71.934 8 71.367 6.781 71.367 5.411 C 71.367 3.094 72.984 1.216 74.981 1.216 C 76.976 1.216 78.593 3.094 78.593 5.411 C 78.593 6.885 77.938 8.181 76.947 8.929 L 76.947 140.818 C 77.744 141.586 78.252 142.747 78.252 144.044 C 78.252 146.361 76.635 148.239 74.639 148.239 C 72.644 148.239 71.026 146.361 71.026 144.044 C 71.026 142.502 71.743 141.155 72.81 140.426 L 72.81 8.764 Z" style="stroke: rgb(0, 0, 0); transform-origin: 74.81px 74.728px; fill: url(&quot;#gradient-2&quot;);" transform="matrix(0.999965, -0.0084, 0.0084, 0.999965, 0, 0)"/>
  <path d="M 72.81 8.764 C 71.934 8 71.367 6.781 71.367 5.411 C 71.367 3.094 72.984 1.216 74.981 1.216 C 76.976 1.216 78.593 3.094 78.593 5.411 C 78.593 6.885 77.938 8.181 76.947 8.929 L 76.947 140.818 C 77.744 141.586 78.252 142.747 78.252 144.044 C 78.252 146.361 76.635 148.239 74.639 148.239 C 72.644 148.239 71.026 146.361 71.026 144.044 C 71.026 142.502 71.743 141.155 72.81 140.426 L 72.81 8.764 Z" style="stroke: rgb(0, 0, 0); transform-origin: 74.81px 74.728px; fill: url(&quot;#gradient-3&quot;);" transform="matrix(-0.0084, -0.999965, 0.999965, -0.0084, 0, 0.000008)"/>
  <path d="M 46.713 -5.311 C 46.09 -5.586 45.687 -6.022 45.687 -6.513 C 45.687 -7.343 46.837 -8.015 48.256 -8.015 C 49.676 -8.015 50.825 -7.343 50.825 -6.513 C 50.825 -5.985 50.36 -5.521 49.655 -5.253 L 49.655 41.968 C 50.221 42.244 50.583 42.66 50.583 43.124 C 50.583 43.954 49.433 44.626 48.014 44.626 C 46.595 44.626 45.445 43.954 45.445 43.124 C 45.445 42.572 45.955 42.089 46.713 41.829 L 46.713 -5.311 Z" style="stroke: rgb(0, 0, 0); transform-origin: 48.135px 18.304px; fill: url(&quot;#gradient-4&quot;);" transform="matrix(-0.284236, -0.958754, 0.958754, -0.284236, 0.000002, 0.000005)"/>
  <path d="M 99.74 42.566 C 99.117 42.841 98.714 43.277 98.714 43.768 C 98.714 44.598 99.864 45.27 101.283 45.27 C 102.703 45.27 103.852 44.598 103.852 43.768 C 103.852 43.24 103.387 42.776 102.682 42.508 L 102.682 -4.713 C 103.248 -4.989 103.61 -5.405 103.61 -5.869 C 103.61 -6.699 102.46 -7.371 101.041 -7.371 C 99.622 -7.371 98.472 -6.699 98.472 -5.869 C 98.472 -5.317 98.982 -4.834 99.74 -4.574 L 99.74 42.566 Z" style="stroke: rgb(0, 0, 0); transform-origin: 101.162px 18.951px; fill: url(&quot;#gradient-5&quot;);" transform="matrix(0.284236, -0.958754, 0.958754, 0.284236, -0.000012, -0.000012)"/>
  <path d="M 47.683 157.349 C 47.06 157.624 46.657 158.06 46.657 158.551 C 46.657 159.381 47.807 160.053 49.226 160.053 C 50.646 160.053 51.795 159.381 51.795 158.551 C 51.795 158.023 51.33 157.559 50.625 157.291 L 50.625 110.07 C 51.191 109.794 51.553 109.378 51.553 108.914 C 51.553 108.084 50.403 107.412 48.984 107.412 C 47.565 107.412 46.415 108.084 46.415 108.914 C 46.415 109.466 46.925 109.949 47.683 110.209 L 47.683 157.349 Z" style="stroke: rgb(0, 0, 0); transform-origin: 49.105px 133.734px; fill: url(&quot;#gradient-6&quot;);" transform="matrix(-0.284236, 0.958754, -0.958754, -0.284236, 0.000006, 0.000002)"/>
  <path d="M 100.71 109.472 C 100.087 109.197 99.684 108.761 99.684 108.27 C 99.684 107.44 100.834 106.768 102.253 106.768 C 103.673 106.768 104.822 107.44 104.822 108.27 C 104.822 108.798 104.357 109.262 103.652 109.53 L 103.652 156.751 C 104.218 157.027 104.58 157.443 104.58 157.907 C 104.58 158.737 103.43 159.409 102.011 159.409 C 100.592 159.409 99.442 158.737 99.442 157.907 C 99.442 157.355 99.952 156.872 100.71 156.612 L 100.71 109.472 Z" style="stroke: rgb(0, 0, 0); transform-origin: 102.132px 133.087px; fill: url(&quot;#gradient-7&quot;);" transform="matrix(0.284236, 0.958754, -0.958754, 0.284236, -0.000019, 0.000008)"/>
  <path d="M 18.259 27.345 C 17.636 27.07 17.233 26.634 17.233 26.143 C 17.233 25.313 18.383 24.641 19.802 24.641 C 21.222 24.641 22.371 25.313 22.371 26.143 C 22.371 26.671 21.906 27.135 21.201 27.403 L 21.201 74.624 C 21.767 74.9 22.129 75.316 22.129 75.78 C 22.129 76.61 20.979 77.282 19.56 77.282 C 18.141 77.282 16.991 76.61 16.991 75.78 C 16.991 75.228 17.501 74.745 18.259 74.485 L 18.259 27.345 Z" style="stroke: rgb(0, 0, 0); transform-origin: 19.681px 50.96px; fill: url(&quot;#gradient-8&quot;);" transform="matrix(-0.965181, -0.261582, 0.261582, -0.965181, -0.000022, -0.000012)"/>
  <path d="M 129.839 73.605 C 129.216 73.88 128.813 74.316 128.813 74.807 C 128.813 75.637 129.963 76.309 131.382 76.309 C 132.802 76.309 133.951 75.637 133.951 74.807 C 133.951 74.279 133.486 73.815 132.781 73.547 L 132.781 26.326 C 133.347 26.05 133.709 25.634 133.709 25.17 C 133.709 24.34 132.559 23.668 131.14 23.668 C 129.721 23.668 128.571 24.34 128.571 25.17 C 128.571 25.722 129.081 26.205 129.839 26.465 L 129.839 73.605 Z" style="stroke: rgb(0, 0, 0); transform-origin: 131.261px 49.99px; fill: url(&quot;#gradient-9&quot;);" transform="matrix(0.965181, -0.261582, 0.261582, 0.965181, 0.000002, -0.000004)"/>
  <path d="M 18.229 125.046 C 17.606 125.321 17.203 125.757 17.203 126.248 C 17.203 127.078 18.353 127.75 19.772 127.75 C 21.192 127.75 22.341 127.078 22.341 126.248 C 22.341 125.72 21.876 125.256 21.171 124.988 L 21.171 77.767 C 21.737 77.491 22.099 77.075 22.099 76.611 C 22.099 75.781 20.949 75.109 19.53 75.109 C 18.111 75.109 16.961 75.781 16.961 76.611 C 16.961 77.163 17.471 77.646 18.229 77.906 L 18.229 125.046 Z" style="stroke: rgb(0, 0, 0); transform-origin: 19.651px 101.431px; fill: url(&quot;#gradient-10&quot;);" transform="matrix(0.965181, -0.261582, 0.261582, 0.965181, 0, -0.000001)"/>
  <path d="M 130.81 76.787 C 130.187 76.512 129.784 76.076 129.784 75.585 C 129.784 74.755 130.934 74.083 132.353 74.083 C 133.773 74.083 134.922 74.755 134.922 75.585 C 134.922 76.113 134.457 76.577 133.752 76.845 L 133.752 124.066 C 134.318 124.342 134.68 124.758 134.68 125.222 C 134.68 126.052 133.53 126.724 132.111 126.724 C 130.692 126.724 129.542 126.052 129.542 125.222 C 129.542 124.67 130.052 124.187 130.81 123.927 L 130.81 76.787 Z" style="stroke: rgb(0, 0, 0); transform-origin: 132.232px 100.402px; fill: url(&quot;#gradient-11&quot;);" transform="matrix(-0.965181, -0.261582, 0.261582, -0.965181, 0.000009, -0.000008)"/>
  <path d="M 54.537 17.904 C 53.8 17.719 53.323 17.425 53.323 17.094 C 53.323 16.535 54.684 16.081 56.362 16.081 C 58.042 16.081 59.402 16.535 59.402 17.094 C 59.402 17.45 58.851 17.763 58.017 17.943 L 58.017 49.776 C 58.687 49.963 59.115 50.243 59.115 50.556 C 59.115 51.115 57.755 51.568 56.076 51.568 C 54.397 51.568 53.037 51.115 53.037 50.556 C 53.037 50.184 53.64 49.858 54.537 49.683 L 54.537 17.904 Z" style="stroke: rgb(0, 0, 0); transform-origin: 56.219px 33.824px; fill: url(&quot;#gradient-12&quot;);" transform="matrix(-0.284236, -0.958754, 0.958754, -0.284236, 0.000007, -0.000003)"/>
  <path d="M 61.896 41.737 C 61.124 41.629 60.625 41.459 60.625 41.267 C 60.625 40.943 62.049 40.68 63.806 40.68 C 65.564 40.68 66.987 40.943 66.987 41.267 C 66.987 41.474 66.41 41.655 65.538 41.759 L 65.538 60.203 C 66.239 60.311 66.687 60.473 66.687 60.654 C 66.687 60.978 65.263 61.241 63.506 61.241 C 61.749 61.241 60.326 60.978 60.326 60.654 C 60.326 60.439 60.957 60.25 61.896 60.149 L 61.896 41.737 Z" style="stroke: rgb(0, 0, 0); transform-origin: 63.656px 50.96px; fill: url(&quot;#gradient-13&quot;);" transform="matrix(-0.284236, -0.958754, 0.958754, -0.284236, -0.000001, -0.00001)"/>
  <path d="M 33.568 38.687 C 32.795 38.484 32.294 38.162 32.294 37.799 C 32.294 37.186 33.722 36.689 35.483 36.689 C 37.246 36.689 38.672 37.186 38.672 37.799 C 38.672 38.189 38.095 38.532 37.22 38.73 L 37.22 73.615 C 37.922 73.819 38.372 74.126 38.372 74.469 C 38.372 75.082 36.944 75.579 35.183 75.579 C 33.422 75.579 31.994 75.082 31.994 74.469 C 31.994 74.061 32.627 73.704 33.568 73.512 L 33.568 38.687 Z" style="stroke: rgb(0, 0, 0); transform-origin: 35.333px 56.133px; fill: url(&quot;#gradient-14&quot;);" transform="matrix(-0.965181, -0.261582, 0.261582, -0.965181, 0.000002, -0.000003)"/>
  <path d="M 50.634 54.572 C 50.114 54.456 49.777 54.272 49.777 54.065 C 49.777 53.715 50.738 53.431 51.924 53.431 C 53.111 53.431 54.071 53.715 54.071 54.065 C 54.071 54.288 53.682 54.484 53.093 54.597 L 53.093 74.527 C 53.566 74.644 53.869 74.819 53.869 75.015 C 53.869 75.366 52.907 75.65 51.722 75.65 C 50.536 75.65 49.575 75.366 49.575 75.015 C 49.575 74.782 50.001 74.578 50.634 74.469 L 50.634 54.572 Z" style="stroke: rgb(0, 0, 0); transform-origin: 51.823px 64.54px; fill: url(&quot;#gradient-15&quot;);" transform="matrix(-0.965181, -0.261582, 0.261582, -0.965181, 0.000015, 0.000003)"/>
  <path d="M 34.35 109.895 C 33.566 110.092 33.058 110.403 33.058 110.754 C 33.058 111.347 34.506 111.827 36.293 111.827 C 38.081 111.827 39.528 111.347 39.528 110.754 C 39.528 110.377 38.942 110.045 38.054 109.854 L 38.054 76.117 C 38.767 75.92 39.223 75.623 39.223 75.291 C 39.223 74.699 37.775 74.218 35.988 74.218 C 34.202 74.218 32.754 74.699 32.754 75.291 C 32.754 75.686 33.396 76.031 34.35 76.217 L 34.35 109.895 Z" style="stroke: rgb(0, 0, 0); transform-origin: 36.141px 93.024px; fill: url(&quot;#gradient-16&quot;);" transform="matrix(0.965181, -0.261582, 0.261582, 0.965181, 0.000002, 0.000001)"/>
  <path d="M 49.994 95.906 C 49.406 96.032 49.025 96.231 49.025 96.456 C 49.025 96.835 50.111 97.143 51.451 97.143 C 52.792 97.143 53.877 96.835 53.877 96.456 C 53.877 96.214 53.437 96.002 52.772 95.879 L 52.772 74.274 C 53.306 74.148 53.648 73.958 53.648 73.745 C 53.648 73.366 52.562 73.058 51.222 73.058 C 49.883 73.058 48.798 73.366 48.798 73.745 C 48.798 73.998 49.279 74.219 49.994 74.338 L 49.994 95.906 Z" style="stroke: rgb(0, 0, 0); transform-origin: 51.337px 85.101px; fill: url(&quot;#gradient-17&quot;);" transform="matrix(0.965181, -0.261582, 0.261582, 0.965181, 0.000001, 0.000002)"/>
  <path d="M 56.156 132.708 C 55.349 132.895 54.827 133.193 54.827 133.528 C 54.827 134.094 56.317 134.552 58.154 134.552 C 59.993 134.552 61.481 134.094 61.481 133.528 C 61.481 133.168 60.879 132.851 59.966 132.668 L 59.966 100.454 C 60.699 100.265 61.168 99.982 61.168 99.665 C 61.168 99.099 59.678 98.64 57.841 98.64 C 56.003 98.64 54.514 99.099 54.514 99.665 C 54.514 100.042 55.174 100.371 56.156 100.549 L 56.156 132.708 Z" style="stroke: rgb(0, 0, 0); transform-origin: 57.997px 116.597px; fill: url(&quot;#gradient-18&quot;);" transform="matrix(-0.284236, 0.958754, -0.958754, -0.284236, 0.000006, -0.000002)"/>
  <path d="M 63.036 107.203 C 62.339 107.306 61.889 107.47 61.889 107.654 C 61.889 107.966 63.175 108.218 64.762 108.218 C 66.35 108.218 67.635 107.966 67.635 107.654 C 67.635 107.456 67.115 107.281 66.326 107.18 L 66.326 89.438 C 66.959 89.333 67.364 89.178 67.364 89.003 C 67.364 88.691 66.078 88.438 64.491 88.438 C 62.904 88.438 61.618 88.691 61.618 89.003 C 61.618 89.211 62.188 89.392 63.036 89.49 L 63.036 107.203 Z" style="stroke: rgb(0, 0, 0); transform-origin: 64.626px 98.329px; fill: url(&quot;#gradient-19&quot;);" transform="matrix(-0.284236, 0.958754, -0.958754, -0.284236, -0.000004, 0.000007)"/>
  <path d="M 89.4 99.967 C 88.71 99.783 88.263 99.49 88.263 99.161 C 88.263 98.605 89.538 98.155 91.111 98.155 C 92.684 98.155 93.958 98.605 93.958 99.161 C 93.958 99.515 93.443 99.826 92.661 100.006 L 92.661 131.643 C 93.288 131.828 93.69 132.107 93.69 132.418 C 93.69 132.974 92.415 133.424 90.842 133.424 C 89.27 133.424 87.995 132.974 87.995 132.418 C 87.995 132.048 88.56 131.724 89.4 131.55 L 89.4 99.967 Z" style="stroke: rgb(0, 0, 0); transform-origin: 90.976px 115.788px; fill: url(&quot;#gradient-20&quot;);" transform="matrix(0.284236, 0.958754, -0.958754, 0.284236, 0.00001, -0.000013)"/>
  <path d="M 82.387 89.557 C 81.741 89.457 81.323 89.297 81.323 89.118 C 81.323 88.815 82.516 88.571 83.989 88.571 C 85.461 88.571 86.654 88.815 86.654 89.118 C 86.654 89.311 86.172 89.48 85.44 89.578 L 85.44 106.796 C 86.026 106.896 86.403 107.048 86.403 107.217 C 86.403 107.52 85.209 107.765 83.737 107.765 C 82.265 107.765 81.072 107.52 81.072 107.217 C 81.072 107.016 81.601 106.84 82.387 106.745 L 82.387 89.557 Z" style="stroke: rgb(0, 0, 0); transform-origin: 83.862px 98.167px; fill: url(&quot;#gradient-21&quot;);" transform="matrix(0.284236, 0.958754, -0.958754, 0.284236, 0.000012, -0.000005)"/>
  <path d="M 111.917 72.916 C 111.246 72.697 110.812 72.351 110.812 71.961 C 110.812 71.302 112.051 70.768 113.579 70.768 C 115.108 70.768 116.346 71.302 116.346 71.961 C 116.346 72.38 115.845 72.749 115.086 72.962 L 115.086 110.466 C 115.695 110.685 116.085 111.015 116.085 111.384 C 116.085 112.043 114.847 112.577 113.318 112.577 C 111.79 112.577 110.552 112.043 110.552 111.384 C 110.552 110.946 111.101 110.562 111.917 110.355 L 111.917 72.916 Z" style="stroke: rgb(0, 0, 0); transform-origin: 113.449px 91.671px; fill: url(&quot;#gradient-22&quot;);" transform="matrix(-0.965181, -0.261582, 0.261582, -0.965181, 0.000017, 0.00002)"/>
  <path d="M 95.023 73.803 C 94.53 73.677 94.21 73.479 94.21 73.255 C 94.21 72.877 95.122 72.571 96.246 72.571 C 97.371 72.571 98.282 72.877 98.282 73.255 C 98.282 73.495 97.913 73.707 97.355 73.829 L 97.355 95.334 C 97.803 95.46 98.09 95.649 98.09 95.861 C 98.09 96.239 97.179 96.545 96.054 96.545 C 94.93 96.545 94.019 96.239 94.019 95.861 C 94.019 95.61 94.423 95.39 95.023 95.271 L 95.023 73.803 Z" style="stroke: rgb(0, 0, 0); transform-origin: 96.15px 84.557px; fill: url(&quot;#gradient-23&quot;);" transform="matrix(-0.965181, -0.261582, 0.261582, -0.965181, 0.000021, 0.000012)"/>
  <path d="M 112.956 71.52 C 112.258 71.686 111.806 71.949 111.806 72.244 C 111.806 72.744 113.095 73.149 114.684 73.149 C 116.275 73.149 117.562 72.744 117.562 72.244 C 117.562 71.926 117.042 71.647 116.252 71.485 L 116.252 43.039 C 116.886 42.873 117.291 42.622 117.291 42.343 C 117.291 41.843 116.003 41.438 114.413 41.438 C 112.824 41.438 111.535 41.843 111.535 42.343 C 111.535 42.675 112.107 42.966 112.956 43.123 L 112.956 71.52 Z" style="stroke: rgb(0, 0, 0); transform-origin: 114.549px 57.294px; fill: url(&quot;#gradient-24&quot;);" transform="matrix(0.965181, -0.261582, 0.261582, 0.965181, 0.000001, -0.000003)"/>
  <path d="M 95.345 73.205 C 94.819 73.309 94.479 73.475 94.479 73.661 C 94.479 73.976 95.449 74.233 96.645 74.233 C 97.843 74.233 98.811 73.976 98.811 73.661 C 98.811 73.46 98.42 73.284 97.825 73.183 L 97.825 55.234 C 98.302 55.13 98.607 54.971 98.607 54.795 C 98.607 54.48 97.638 54.224 96.441 54.224 C 95.245 54.224 94.275 54.48 94.275 54.795 C 94.275 55.005 94.706 55.188 95.345 55.287 L 95.345 73.205 Z" style="stroke: rgb(0, 0, 0); transform-origin: 96.543px 64.229px; fill: url(&quot;#gradient-25&quot;);" transform="matrix(0.965181, -0.261582, 0.261582, 0.965181, -0.000002, -0.000001)"/>
  <path d="M 90.972 51.788 C 90.204 51.987 89.707 52.303 89.707 52.66 C 89.707 53.261 91.125 53.749 92.874 53.749 C 94.625 53.749 96.042 53.261 96.042 52.66 C 96.042 52.277 95.469 51.94 94.599 51.746 L 94.599 17.502 C 95.297 17.302 95.744 17.001 95.744 16.664 C 95.744 16.062 94.326 15.575 92.576 15.575 C 90.826 15.575 89.408 16.062 89.408 16.664 C 89.408 17.064 90.037 17.415 90.972 17.603 L 90.972 51.788 Z" style="stroke: rgb(0, 0, 0); transform-origin: 92.725px 34.663px; fill: url(&quot;#gradient-26&quot;);" transform="matrix(0.284236, -0.958754, 0.958754, 0.284236, 0.000005, 0.000004)"/>
  <path d="M 82.372 60.83 C 81.66 60.937 81.2 61.107 81.2 61.298 C 81.2 61.621 82.513 61.883 84.133 61.883 C 85.754 61.883 87.066 61.621 87.066 61.298 C 87.066 61.093 86.536 60.912 85.73 60.808 L 85.73 42.426 C 86.376 42.318 86.79 42.157 86.79 41.976 C 86.79 41.653 85.477 41.391 83.857 41.391 C 82.236 41.391 80.923 41.653 80.923 41.976 C 80.923 42.19 81.506 42.379 82.372 42.48 L 82.372 60.83 Z" style="stroke: rgb(0, 0, 0); transform-origin: 83.995px 51.638px; fill: url(&quot;#gradient-27&quot;);" transform="matrix(0.284236, -0.958754, 0.958754, 0.284236, -0.000001, -0.000004)"/>
</svg>