<?xml version="1.0" encoding="utf-8"?>
<svg xmlns="http://www.w3.org/2000/svg" viewBox="0 0 75 75" width="75px" height="75px">
  <defs>
    <linearGradient gradientUnits="userSpaceOnUse" x1="47.588" y1="1.979" x2="47.588" y2="86.429" id="gradient-2" gradientTransform="matrix(0.804071, 0, 0, 0.802008, -0.865098, -0.603417)">
      <stop offset="0" style="stop-color: rgb(39.608% 70.98% 4.3137%)"/>
      <stop offset="1" style="stop-color: rgb(9.2921% 42.895% 0%)"/>
    </linearGradient>
    <linearGradient gradientUnits="userSpaceOnUse" x1="24.804" y1="61.014" x2="24.804" y2="93.915" id="gradient-3" gradientTransform="matrix(0.811799, 0, 0, -0.802008, 121.717479, 98.936958)">
      <stop offset="0" style="stop-color: rgb(39.608% 70.98% 4.3137%)"/>
      <stop offset="1" style="stop-color: rgb(9.2921% 42.895% 0%)"/>
    </linearGradient>
    <linearGradient gradientUnits="userSpaceOnUse" x1="99.951" y1="5.903" x2="99.951" y2="68.356" id="gradient-4" gradientTransform="matrix(0.499892, 0, 0, 0.515147, -43.097464, 39.030259)">
      <stop offset="0" style="stop-color: rgb(22.353% 61.176% 0.39216%)"/>
      <stop offset="1" style="stop-color: rgb(0% 37.238% 0%)"/>
    </linearGradient>
    <linearGradient gradientUnits="userSpaceOnUse" x1="99.951" y1="5.903" x2="99.951" y2="68.356" id="gradient-5" gradientTransform="matrix(0.499892, 0, 0, 0.375978, -31.340456, 48.683449)">
      <stop offset="0" style="stop-color: rgb(22.353% 61.176% 0.39216%)"/>
      <stop offset="1" style="stop-color: rgb(0% 37.238% 0%)"/>
    </linearGradient>
    <linearGradient gradientUnits="userSpaceOnUse" x1="99.951" y1="5.903" x2="99.951" y2="68.356" id="gradient-6" gradientTransform="matrix(0.499892, 0, 0, -0.375978, 6.369706, 76.603602)">
      <stop offset="0" style="stop-color: rgb(22.353% 61.176% 0.39216%)"/>
      <stop offset="1" style="stop-color: rgb(0% 37.238% 0%)"/>
    </linearGradient>
    <linearGradient gradientUnits="userSpaceOnUse" x1="99.951" y1="5.903" x2="99.951" y2="68.356" id="gradient-7" gradientTransform="matrix(0.499892, 0, 0, -0.515147, 17.201612, 77.304249)">
      <stop offset="0" style="stop-color: rgb(22.353% 61.176% 0.39216%)"/>
      <stop offset="1" style="stop-color: rgb(0% 37.238% 0%)"/>
    </linearGradient>
    <linearGradient gradientUnits="userSpaceOnUse" x1="37.89" y1="18.687" x2="37.89" y2="27.492" id="gradient-0" gradientTransform="matrix(1.04171, 0, 0, 1.334347, -1.440201, -5.967568)">
      <stop offset="0" style="stop-color: rgb(52.549% 100% 0%)"/>
      <stop offset="1" style="stop-color: rgb(4.1261% 59.051% 0%)"/>
    </linearGradient>
    <linearGradient gradientUnits="userSpaceOnUse" x1="37.89" y1="18.687" x2="37.89" y2="27.492" id="gradient-1" gradientTransform="matrix(1.04171, 0, 0, 1.334347, -1.440201, -5.967568)">
      <stop offset="0" style="stop-color: rgb(52.549% 100% 0%)"/>
      <stop offset="1" style="stop-color: rgb(4.1261% 59.051% 0%)"/>
    </linearGradient>
    <linearGradient gradientUnits="userSpaceOnUse" x1="37.89" y1="18.687" x2="37.89" y2="27.492" id="gradient-8" gradientTransform="matrix(1.04171, 0, 0, 1.334347, -1.440201, -5.967568)">
      <stop offset="0" style="stop-color: rgb(52.549% 100% 0%)"/>
      <stop offset="1" style="stop-color: rgb(4.1261% 59.051% 0%)"/>
    </linearGradient>
    <linearGradient gradientUnits="userSpaceOnUse" x1="99.951" y1="5.903" x2="99.951" y2="68.356" id="gradient-9" gradientTransform="matrix(0.499892, 0, 0, -0.375978, 6.369706, 76.603602)">
      <stop offset="0" style="stop-color: rgb(22.353% 61.176% 0.39216%)"/>
      <stop offset="1" style="stop-color: rgb(0% 37.238% 0%)"/>
    </linearGradient>
  </defs>
  <path d="M 73.864 34.85 C 73.864 43.617 66.903 51.299 56.465 55.576 C 52.122 63.568 45.325 68.713 37.684 68.713 C 30.135 68.713 23.411 63.694 19.061 55.866 C 8.22 51.654 0.933 43.819 0.933 34.85 C 0.933 25.882 8.218 18.048 19.059 13.835 C 23.408 6.007 30.134 0.984 37.684 0.984 C 45.326 0.984 52.124 6.131 56.468 14.126 C 66.904 18.403 73.864 26.085 73.864 34.85 Z" style="fill: url(&quot;#gradient-2&quot;); stroke-width: 2px; stroke: rgb(21, 65, 10);"/>
  <g transform="matrix(0.595566, 0, 0, 0.659286, -1.019758, 10.527926)" style="">
    <ellipse style="stroke: rgb(0, 0, 0); fill: rgb(255, 255, 255);" cx="37.987" cy="34.744" rx="11.092" ry="13.436"/>
    <ellipse style="" cx="38.148" cy="36.196" rx="7.003" ry="8.536"/>
    <ellipse style="fill: rgb(255, 255, 255);" cx="37.545" cy="27.928" rx="4.782" ry="5.168"/>
    <path d="M 38.03 18.967 C 43.346 18.967 47.751 24.063 48.534 30.716 L 27.527 30.716 C 28.309 24.063 32.714 18.967 38.03 18.967 Z" style="stroke: rgb(21, 65, 10); fill: url(&quot;#gradient-1&quot;);"/>
  </g>
  <g transform="matrix(0.595566, 0, 0, 0.659286, 30.540991, 10.668114)" style="">
    <ellipse style="stroke: rgb(0, 0, 0); fill: rgb(255, 255, 255);" cx="37.987" cy="34.744" rx="11.092" ry="13.436"/>
    <ellipse style="" cx="38.148" cy="36.196" rx="7.003" ry="8.536"/>
    <ellipse style="fill: rgb(255, 255, 255);" cx="37.545" cy="27.928" rx="4.782" ry="5.168"/>
    <path d="M 38.03 18.967 C 43.346 18.967 47.751 24.063 48.534 30.716 L 27.527 30.716 C 28.309 24.063 32.714 18.967 38.03 18.967 Z" style="stroke: rgb(21, 65, 10); fill: url(&quot;#gradient-8&quot;);"/>
  </g>
  <g transform="matrix(1, 0, 0, 1, -0.140187, -0.140187)">
    <ellipse style="stroke: rgb(0, 0, 0); fill: rgb(255, 255, 255);" cx="37.987" cy="34.744" rx="11.092" ry="13.436"/>
    <ellipse style="" cx="38.148" cy="36.196" rx="7.003" ry="8.536"/>
    <ellipse style="fill: rgb(255, 255, 255);" cx="37.545" cy="27.928" rx="4.782" ry="5.168"/>
    <path d="M 38.03 18.967 C 43.346 18.967 47.751 24.063 48.534 30.716 L 27.527 30.716 C 28.309 24.063 32.714 18.967 38.03 18.967 Z" style="stroke: rgb(21, 65, 10); fill: url(&quot;#gradient-0&quot;);"/>
  </g>
  <path d="M 38.852 3.17 L 51.573 13.396 C 48.411 12.195 43.79 11.47 38.676 11.532 C 33.937 11.593 29.686 12.317 26.655 13.441 L 38.852 3.17 Z" style="fill: rgba(0, 0, 0, 0.318); transform-origin: 17.158px 4.94px;"/>
  <path d="M 144.07 42.963 C 144.07 40.613 143.646 38.531 142.994 37.253 C 143.693 35.951 144.307 33.835 144.617 31.407 C 145.146 27.265 144.592 23.778 143.38 23.621 C 142.167 23.463 140.755 26.693 140.226 30.835 C 139.93 33.16 139.973 35.278 140.284 36.718 C 139.455 37.891 138.889 40.248 138.889 42.963 C 138.889 46.851 140.049 50.003 141.479 50.003 C 142.91 50.003 144.07 46.851 144.07 42.963 Z" style="fill: url(&quot;#gradient-3&quot;); stroke: rgb(21, 65, 10); transform-box: fill-box; transform-origin: 50% 50%;" transform="matrix(-1, 0, 0, -1, 0.000011, 0.000005)"/>
  <path d="M 48.183 57.209 C 48.183 59.154 47.518 60.962 46.381 62.459 C 44.005 62 41.229 61.735 38.265 61.735 C 34.855 61.735 31.695 62.086 29.105 62.682 C 27.86 61.142 27.128 59.251 27.128 57.209 C 27.128 55.629 27.567 54.139 28.343 52.831 C 31.1 53.58 34.646 54.029 38.514 54.029 C 41.706 54.029 44.681 53.723 47.173 53.194 C 47.821 54.412 48.183 55.772 48.183 57.209 Z" style="fill: rgb(216, 216, 216); stroke: rgb(0, 0, 0);"/>
  <path style="fill: rgb(216, 216, 216); stroke: rgb(0, 0, 0); stroke-width: 2px;" d="M 27.486 57.287 L 47.643 57.643"/>
  <path d="M 9.952 46.152 C 9.952 47.575 9.339 48.827 8.41 49.557 L 8.41 62.015 C 9.104 63.151 9.73 64.697 10.152 66.454 C 11.091 70.364 10.665 73.837 9.2 74.211 C 7.735 74.585 5.786 71.718 4.847 67.808 C 4.285 65.47 4.211 63.29 4.556 61.833 L 4.556 49.501 C 3.666 48.764 3.084 47.539 3.084 46.152 C 3.084 43.898 4.621 42.071 6.518 42.071 C 8.414 42.071 9.952 43.898 9.952 46.152 Z" style="fill: url(&quot;#gradient-4&quot;); stroke: rgb(21, 65, 10);"/>
  <path d="M 21.709 53.881 C 21.709 54.92 21.096 55.833 20.167 56.366 L 20.167 65.459 C 20.861 66.288 21.487 67.416 21.909 68.698 C 22.848 71.552 22.422 74.087 20.957 74.36 C 19.492 74.633 17.543 72.54 16.604 69.687 C 16.042 67.98 15.968 66.389 16.313 65.326 L 16.313 56.325 C 15.423 55.787 14.841 54.893 14.841 53.881 C 14.841 52.236 16.378 50.903 18.275 50.903 C 20.171 50.903 21.709 52.236 21.709 53.881 Z" style="stroke: rgb(21, 65, 10); fill: url(&quot;#gradient-5&quot;);"/>
  <path d="M 59.419 71.406 C 59.419 70.367 58.806 69.454 57.877 68.921 L 57.877 59.828 C 58.571 58.999 59.197 57.871 59.619 56.589 C 60.558 53.735 60.132 51.2 58.667 50.927 C 57.202 50.654 55.253 52.747 54.314 55.6 C 53.752 57.307 53.678 58.898 54.023 59.961 L 54.023 68.962 C 53.133 69.5 52.551 70.394 52.551 71.406 C 52.551 73.051 54.088 74.384 55.985 74.384 C 57.881 74.384 59.419 73.051 59.419 71.406 Z" style="stroke: rgb(21, 65, 10); fill: url(&quot;#gradient-6&quot;); transform-box: fill-box; transform-origin: 50% 50%;" transform="matrix(-1, 0, 0, -1, -0.000004, -0.000012)"/>
  <path d="M 70.251 70.182 C 70.251 68.759 69.638 67.507 68.709 66.777 L 68.709 54.319 C 69.403 53.183 70.029 51.637 70.451 49.88 C 71.39 45.97 70.964 42.497 69.499 42.123 C 68.034 41.749 66.085 44.616 65.146 48.526 C 64.584 50.864 64.51 53.044 64.855 54.501 L 64.855 66.833 C 63.965 67.57 63.383 68.795 63.383 70.182 C 63.383 72.436 64.92 74.263 66.817 74.263 C 68.713 74.263 70.251 72.436 70.251 70.182 Z" style="stroke: rgb(21, 65, 10); fill: url(&quot;#gradient-7&quot;); transform-box: fill-box; transform-origin: 50% 50%;" transform="matrix(-1, 0, 0, -1, -0.000002, 0.000004)"/>
  <path d="M 59.419 71.406 C 59.419 70.367 58.806 69.454 57.877 68.921 L 57.877 59.828 C 58.571 58.999 59.197 57.871 59.619 56.589 C 60.558 53.735 60.132 51.2 58.667 50.927 C 57.202 50.654 55.253 52.747 54.314 55.6 C 53.752 57.307 53.678 58.898 54.023 59.961 L 54.023 68.962 C 53.133 69.5 52.551 70.394 52.551 71.406 C 52.551 73.051 54.088 74.384 55.985 74.384 C 57.881 74.384 59.419 73.051 59.419 71.406 Z" style="stroke: rgb(21, 65, 10); fill: url(&quot;#gradient-9&quot;); transform-origin: 56.334px 62.644px;" transform="matrix(-1, 0, 0, -1, 0, -0.000008)"/>
</svg>