<?xml version="1.0" encoding="utf-8"?>
<svg xmlns="http://www.w3.org/2000/svg" viewBox="0 0 15 50" width="15px" height="50px">
  <path d="M 14.231 40.481 L 0.745 40.481 L 0.745 10.078 C 1.639 11.697 2.861 12.766 3.831 12.649 C 5.107 12.494 5.469 10.347 4.638 7.853 C 4.261 6.721 3.706 5.714 3.091 4.964 L 11.075 4.964 C 10.549 5.675 10.082 6.572 9.751 7.563 C 8.921 10.06 9.282 12.207 10.558 12.361 C 11.765 12.508 13.36 10.815 14.231 8.516 L 14.231 40.481 Z" style="stroke: rgb(0, 0, 0); fill: rgb(161, 45, 45);"/>
  <path d="M 13.717 38.113 L 1.157 38.113 L 1.157 22.603 C 1.99 23.429 3.127 23.974 4.031 23.914 C 5.219 23.835 5.556 22.74 4.783 21.468 C 4.432 20.891 3.915 20.376 3.342 19.995 L 10.778 19.995 C 10.288 20.356 9.853 20.815 9.545 21.32 C 8.771 22.593 9.107 23.689 10.296 23.768 C 11.42 23.842 12.905 22.978 13.717 21.807 L 13.717 38.113 Z" style="fill: rgb(110, 29, 29);"/>
  <path d="M 13.717 38.113 L 1.157 38.113 L 1.157 28.155 C 1.99 28.686 3.127 29.035 4.031 28.997 C 5.219 28.946 5.556 28.243 4.783 27.426 C 4.432 27.056 3.915 26.725 3.342 26.481 L 10.778 26.481 C 10.288 26.713 9.853 27.007 9.545 27.331 C 8.771 28.149 9.107 28.852 10.296 28.903 C 11.42 28.951 12.905 28.396 13.717 27.644 L 13.717 38.113 Z" style="fill: rgb(60, 21, 21);"/>
  <path d="M 13.717 41.82 L 1.157 41.82 L 1.157 31.862 C 1.99 32.393 3.127 32.742 4.031 32.704 C 5.219 32.653 5.556 31.95 4.783 31.133 C 4.432 30.763 3.915 30.432 3.342 30.188 L 10.778 30.188 C 10.288 30.42 9.853 30.714 9.545 31.038 C 8.771 31.856 9.107 32.559 10.296 32.61 C 11.42 32.658 12.905 32.103 13.717 31.351 L 13.717 41.82 Z" style="fill: rgb(37, 13, 13);"/>
  <ellipse style="stroke: rgb(0, 0, 0); fill: rgb(255, 0, 0);" cx="7.436" cy="41.202" rx="7" ry="7.824"/>
  <ellipse style="fill: rgb(255, 42, 42);" cx="7.126" cy="43.365" rx="4.941" ry="5.148"/>
  <ellipse style="fill: rgb(255, 111, 111);" cx="6.456" cy="45.218" rx="3.036" ry="3.295"/>
  <ellipse style="stroke: rgb(0, 0, 0); fill: rgb(110, 29, 29);" cx="8.828" cy="12.097" rx="1.081" ry="3.088"/>
  <ellipse style="stroke: rgb(0, 0, 0); fill: rgb(161, 45, 45);" cx="12.07" cy="3.111" rx="1.029" ry="2.573"/>
  <ellipse style="stroke: rgb(0, 0, 0); fill: rgb(161, 45, 45);" cx="2.136" cy="4.832" rx="1.389" ry="1.956"/>
</svg>