<?xml version="1.0" encoding="utf-8"?>
<svg xmlns="http://www.w3.org/2000/svg" viewBox="0 0 400 150" width="400px" height="150px" xmlns:bx="https://boxy-svg.com">
  <defs>
    <linearGradient gradientUnits="userSpaceOnUse" x1="395.243" y1="15.498" x2="395.243" y2="69.992" id="gradient-31" gradientTransform="matrix(1, 0, 0, 1, -191.122709, 38.310837)">
      <stop offset="0" style="stop-color: rgb(0% 0% 0%)"/>
      <stop offset="1" style="stop-color: rgb(0% 0% 0%)"/>
    </linearGradient>
    <filter id="outline-filter-1" bx:preset="outline 1 1 #fff0" color-interpolation-filters="sRGB" x="-50%" y="-50%" width="200%" height="200%">
      <feMorphology in="SourceAlpha" result="dilated" operator="dilate" radius="1"/>
      <feFlood flood-color="#fff0" result="flood"/>
      <feComposite in="flood" in2="dilated" operator="in" result="outline"/>
      <feMerge>
        <feMergeNode in="outline"/>
        <feMergeNode in="SourceGraphic"/>
      </feMerge>
    </filter>
    <filter id="filter-1" bx:preset="outline 1 1 #fff0" color-interpolation-filters="sRGB" x="-50%" y="-50%" width="200%" height="200%">
      <feMorphology in="SourceAlpha" result="dilated" operator="dilate" radius="1"/>
      <feFlood flood-color="#fff0" result="flood"/>
      <feComposite in="flood" in2="dilated" operator="in" result="outline"/>
      <feMerge>
        <feMergeNode in="outline"/>
        <feMergeNode in="SourceGraphic"/>
      </feMerge>
    </filter>
    <filter id="filter-2" bx:preset="outline 1 1 #fff0" color-interpolation-filters="sRGB" x="-50%" y="-50%" width="200%" height="200%">
      <feMorphology in="SourceAlpha" result="dilated" operator="dilate" radius="1"/>
      <feFlood flood-color="#fff0" result="flood"/>
      <feComposite in="flood" in2="dilated" operator="in" result="outline"/>
      <feMerge>
        <feMergeNode in="outline"/>
        <feMergeNode in="SourceGraphic"/>
      </feMerge>
    </filter>
    <filter id="filter-3" bx:preset="outline 1 1 #fff0" color-interpolation-filters="sRGB" x="-50%" y="-50%" width="200%" height="200%">
      <feMorphology in="SourceAlpha" result="dilated" operator="dilate" radius="1"/>
      <feFlood flood-color="#fff0" result="flood"/>
      <feComposite in="flood" in2="dilated" operator="in" result="outline"/>
      <feMerge>
        <feMergeNode in="outline"/>
        <feMergeNode in="SourceGraphic"/>
      </feMerge>
    </filter>
    <filter id="filter-4" bx:preset="outline 1 1 #fff0" color-interpolation-filters="sRGB" x="-50%" y="-50%" width="200%" height="200%">
      <feMorphology in="SourceAlpha" result="dilated" operator="dilate" radius="1"/>
      <feFlood flood-color="#fff0" result="flood"/>
      <feComposite in="flood" in2="dilated" operator="in" result="outline"/>
      <feMerge>
        <feMergeNode in="outline"/>
        <feMergeNode in="SourceGraphic"/>
      </feMerge>
    </filter>
    <radialGradient gradientUnits="userSpaceOnUse" cx="345.813" cy="89.408" r="57.437" id="gradient-2" gradientTransform="matrix(0.974748, 0, 0, 1, -132.821666, -12.183587)">
      <stop offset="0" style="stop-color: rgb(20% 28.235% 24.706%)"/>
      <stop offset="1" style="stop-color: rgb(10.299% 18.168% 14.939%)"/>
    </radialGradient>
    <radialGradient gradientUnits="userSpaceOnUse" cx="200.06" cy="74.566" r="200.053" id="gradient-1" gradientTransform="matrix(1.00408, 0, 0, 1.008105, -0.585396, 0.980625)">
      <stop offset="0" style="stop-color: rgb(34.902% 34.902% 34.902%)"/>
      <stop offset="1" style="stop-color: rgb(21.245% 21.245% 21.245%)"/>
    </radialGradient>
  </defs>
  <rect x="-0.576" y="0.019" width="401.737" height="152.263" style="fill: url(&quot;#gradient-1&quot;);"/>
  <path d="M -2.199 -2.793 L 1.036 -2.793 L 1.036 22.547 L 8.486 22.547 L 8.486 -1.966 L 12.763 -1.966 L 12.763 10.338 L 26.42 10.703 L 26.539 -1.989 L 28.849 -1.927 L 28.727 10.765 L 28.784 10.767 L 28.733 16.212 L 12.763 15.785 L 12.763 39.473 L 17.368 39.473 L 17.368 39.329 L 19.877 39.329 L 19.877 83.103 L 19.717 83.103 L 19.717 112.923 L 17.208 112.923 L 17.208 112.779 L 12.603 112.779 L 12.603 136.467 L 28.573 136.04 L 28.624 141.485 L 28.567 141.487 L 28.689 154.179 L 26.379 154.241 L 26.26 141.549 L 12.603 141.914 L 12.603 154.218 L 8.326 154.218 L 8.326 129.705 L 0.876 129.705 L 0.876 155.045 L -2.359 155.045 L -2.359 125.723 L 0.876 125.723 L 0.876 125.818 L 8.326 125.818 L 8.326 113.174 L -1.641 113.174 L -1.641 106.878 L 8.326 106.878 L 8.326 106.727 L 12.603 106.727 L 12.603 106.978 L 17.208 106.978 L 17.208 69.149 L 17.368 69.149 L 17.368 45.274 L 12.763 45.274 L 12.763 45.525 L 8.486 45.525 L 8.486 45.374 L -1.481 45.374 L -1.481 39.078 L 8.486 39.078 L 8.486 26.434 L 1.036 26.434 L 1.036 26.529 L -2.199 26.529 L -2.199 -2.793 Z" style="stroke: rgb(0, 0, 0); fill: rgba(208, 34, 34, 0.55);"/>
  <path d="M 370.653 155.205 L 373.888 155.205 L 373.888 129.865 L 381.338 129.865 L 381.338 154.378 L 385.615 154.378 L 385.615 142.074 L 399.272 141.709 L 399.391 154.401 L 401.701 154.339 L 401.579 141.647 L 401.636 141.645 L 401.585 136.2 L 385.615 136.627 L 385.615 112.939 L 390.22 112.939 L 390.22 113.083 L 392.729 113.083 L 392.729 69.309 L 392.569 69.309 L 392.569 39.489 L 390.06 39.489 L 390.06 39.633 L 385.455 39.633 L 385.455 15.945 L 401.425 16.372 L 401.476 10.927 L 401.419 10.925 L 401.541 -1.767 L 399.231 -1.829 L 399.112 10.863 L 385.455 10.498 L 385.455 -1.806 L 381.178 -1.806 L 381.178 22.707 L 373.728 22.707 L 373.728 -2.633 L 370.493 -2.633 L 370.493 26.689 L 373.728 26.689 L 373.728 26.594 L 381.178 26.594 L 381.178 39.238 L 371.211 39.238 L 371.211 45.534 L 381.178 45.534 L 381.178 45.685 L 385.455 45.685 L 385.455 45.434 L 390.06 45.434 L 390.06 83.263 L 390.22 83.263 L 390.22 107.138 L 385.615 107.138 L 385.615 106.887 L 381.338 106.887 L 381.338 107.038 L 371.371 107.038 L 371.371 113.334 L 381.338 113.334 L 381.338 125.978 L 373.888 125.978 L 373.888 125.883 L 370.653 125.883 L 370.653 155.205 Z" style="transform-box: fill-box; transform-origin: 50% 50%; stroke: rgb(0, 0, 0); fill: rgba(33, 182, 205, 0.384);" transform="matrix(-1, 0, 0, -1, 0.000007, 0.000007)"/>
  <path d="M 99.536 126.163 L 103.345 126.163 L 103.345 95.831 L 112.117 95.831 L 112.117 125.174 L 117.153 125.174 L 117.153 110.447 L 133.233 110.009 L 133.374 125.201 L 136.092 125.127 L 135.95 109.935 L 136.016 109.933 L 135.956 103.416 L 117.153 103.927 L 117.153 75.573 L 122.574 75.573 L 122.574 75.744 L 125.529 75.744 L 125.529 23.348 L 122.574 23.348 L 122.574 68.628 L 117.153 68.628 L 117.153 68.328 L 112.117 68.328 L 112.117 68.511 L 100.382 68.511 L 100.382 76.045 L 112.117 76.045 L 112.117 91.179 L 103.345 91.179 L 103.345 91.066 L 99.536 91.066 L 99.536 126.163 Z" style="fill: rgb(39, 167, 150); transform-origin: 117.814px 74.756px; stroke: rgba(16, 18, 21, 0.384);" transform="matrix(0.114385, 0.993436, -0.993436, 0.114385, 0.000008, 0.000005)"/>
  <path d="M 284.771 24.509 L 288.58 24.509 L 288.58 54.841 L 297.352 54.841 L 297.352 25.498 L 302.388 25.498 L 302.388 40.225 L 318.468 40.663 L 318.609 25.471 L 321.327 25.545 L 321.185 40.737 L 321.251 40.739 L 321.191 47.256 L 302.388 46.745 L 302.388 75.099 L 307.809 75.099 L 307.809 74.928 L 310.764 74.928 L 310.764 127.324 L 307.809 127.324 L 307.809 82.044 L 302.388 82.044 L 302.388 82.344 L 297.352 82.344 L 297.352 82.161 L 285.617 82.161 L 285.617 74.627 L 297.352 74.627 L 297.352 59.493 L 288.58 59.493 L 288.58 59.606 L 284.771 59.606 L 284.771 24.509 Z" style="fill: rgb(39, 167, 150); stroke: rgba(16, 18, 21, 0.384); transform-origin: 303.049px 75.916px;" transform="matrix(-0.114385, 0.993436, -0.993436, -0.114385, -0.000024, 0.000003)"/>
  <path d="M 126.571 148.698 L 130.38 148.698 L 130.38 126.725 L 139.152 126.725 L 139.152 147.981 L 144.188 147.981 L 144.188 137.314 L 160.268 136.996 L 160.409 148.001 L 163.127 147.947 L 162.985 136.943 L 163.051 136.941 L 162.991 132.22 L 144.188 132.59 L 144.188 112.05 L 149.609 112.05 L 149.609 112.175 L 152.564 112.175 L 152.564 74.22 L 149.609 74.22 L 149.609 107.021 L 144.188 107.021 L 144.188 106.802 L 139.152 106.802 L 139.152 106.936 L 127.417 106.936 L 127.417 112.393 L 139.152 112.393 L 139.152 123.356 L 130.38 123.356 L 130.38 123.274 L 126.571 123.274 L 126.571 148.698 Z" style="fill: rgb(39, 167, 150); stroke: rgba(16, 18, 21, 0.384); transform-origin: 144.849px 111.458px;" transform="matrix(0.640185, 0.768221, -0.768221, 0.640185, -0.000001, 0.000006)"/>
  <path d="M 246.086 74.058 L 249.895 74.058 L 249.895 96.031 L 258.667 96.031 L 258.667 74.775 L 263.703 74.775 L 263.703 85.442 L 279.783 85.76 L 279.924 74.755 L 282.642 74.809 L 282.5 85.813 L 282.566 85.815 L 282.506 90.536 L 263.703 90.166 L 263.703 110.706 L 269.124 110.706 L 269.124 110.581 L 272.079 110.581 L 272.079 148.536 L 269.124 148.536 L 269.124 115.735 L 263.703 115.735 L 263.703 115.954 L 258.667 115.954 L 258.667 115.82 L 246.932 115.82 L 246.932 110.363 L 258.667 110.363 L 258.667 99.4 L 249.895 99.4 L 249.895 99.482 L 246.086 99.482 L 246.086 74.058 Z" style="fill: rgb(39, 167, 150); stroke: rgba(16, 18, 21, 0.384); transform-origin: 264.364px 111.298px;" transform="matrix(-0.640185, 0.768221, -0.768221, -0.640185, -0.00003, 0.000018)"/>
  <path d="M 134.694 0.537 L 138.503 0.537 L 138.503 22.51 L 147.275 22.51 L 147.275 1.254 L 152.311 1.254 L 152.311 11.921 L 168.391 12.239 L 168.532 1.234 L 171.25 1.288 L 171.108 12.292 L 171.174 12.294 L 171.114 17.015 L 152.311 16.645 L 152.311 37.185 L 157.732 37.185 L 157.732 37.06 L 160.687 37.06 L 160.687 75.015 L 157.732 75.015 L 157.732 42.214 L 152.311 42.214 L 152.311 42.433 L 147.275 42.433 L 147.275 42.299 L 135.54 42.299 L 135.54 36.842 L 147.275 36.842 L 147.275 25.879 L 138.503 25.879 L 138.503 25.961 L 134.694 25.961 L 134.694 0.537 Z" style="fill: rgb(39, 167, 150); stroke: rgba(16, 18, 21, 0.384); transform-origin: 152.972px 37.777px;" transform="matrix(0.640185, -0.768221, 0.768221, 0.640185, -0.000002, 0.000003)"/>
  <path d="M 238.544 75.598 L 242.353 75.598 L 242.353 53.625 L 251.125 53.625 L 251.125 74.881 L 256.161 74.881 L 256.161 64.214 L 272.241 63.896 L 272.382 74.901 L 275.1 74.847 L 274.958 63.843 L 275.024 63.841 L 274.964 59.12 L 256.161 59.49 L 256.161 38.95 L 261.582 38.95 L 261.582 39.075 L 264.537 39.075 L 264.537 1.12 L 261.582 1.12 L 261.582 33.921 L 256.161 33.921 L 256.161 33.702 L 251.125 33.702 L 251.125 33.836 L 239.39 33.836 L 239.39 39.293 L 251.125 39.293 L 251.125 50.256 L 242.353 50.256 L 242.353 50.174 L 238.544 50.174 L 238.544 75.598 Z" style="fill: rgb(39, 167, 150); stroke: rgba(16, 18, 21, 0.384); transform-origin: 256.822px 38.358px;" transform="matrix(-0.640185, -0.768221, 0.768221, -0.640185, -0.000004, -0.000009)"/>
  <g transform="matrix(0.865286, 0, 0, 0.682491, 31.577829, 16.012438)" style="">
    <ellipse style="stroke: rgb(0, 0, 0); fill: url(&quot;#gradient-2&quot;);" cx="204.26" cy="77.224" rx="55.987" ry="54.826"/>
    <ellipse style="paint-order: fill; filter: url(&quot;#outline-filter-1&quot;); fill: rgb(24, 24, 24); stroke: url(&quot;#gradient-31&quot;);" cx="204.12" cy="81.056" rx="27.597" ry="27.247"/>
    <ellipse style="stroke: rgb(0, 0, 0); paint-order: fill; filter: url(&quot;#filter-1&quot;); fill: rgb(12, 221, 255);" cx="204.023" cy="81.127" rx="23.03" ry="22.622"/>
    <ellipse style="paint-order: fill; filter: url(&quot;#filter-2&quot;); fill: rgb(70, 229, 255);" cx="202.21" cy="78.49" rx="18.909" ry="18.337"/>
    <ellipse style="paint-order: fill; filter: url(&quot;#filter-3&quot;); fill: rgb(119, 236, 255);" cx="198.254" cy="76.677" rx="14.953" ry="15.205"/>
    <ellipse style="paint-order: fill; filter: url(&quot;#filter-4&quot;); fill: rgb(213, 249, 255);" cx="194.791" cy="72.061" rx="8.853" ry="8.941"/>
  </g>
  <ellipse style="stroke: rgb(0, 0, 0); fill: rgb(17, 225, 179);" cx="63.752" cy="63.555" rx="4.932" ry="4.932"/>
  <ellipse style="stroke: rgb(0, 0, 0); fill: none;" cx="42.22" cy="86.418" rx="3.617" ry="4.932"/>
  <ellipse style="stroke: rgb(0, 0, 0); fill: rgb(17, 225, 179);" cx="141.174" cy="53.749" rx="4.932" ry="4.932"/>
  <ellipse style="stroke: rgb(0, 0, 0); fill: rgb(17, 225, 179);" cx="273.997" cy="97.417" rx="4.932" ry="4.932"/>
  <ellipse style="stroke: rgb(0, 0, 0); fill: rgb(17, 225, 179);" cx="293.648" cy="133.079" rx="4.932" ry="4.932"/>
  <ellipse style="stroke: rgb(0, 0, 0); fill: rgb(17, 225, 179);" cx="356.713" cy="64.306" rx="4.932" ry="4.932"/>
  <ellipse style="stroke: rgb(0, 0, 0); fill: rgb(17, 225, 179);" cx="302.209" cy="57.743" rx="4.932" ry="4.932"/>
  <ellipse style="stroke: rgb(0, 0, 0); fill: rgb(17, 225, 179);" cx="128.139" cy="146.482" rx="2.877" ry="2.483"/>
  <ellipse style="stroke: rgb(0, 0, 0); fill: rgb(17, 225, 179);" cx="273.37" cy="3.564" rx="3.701" ry="3.778"/>
  <g>
    <ellipse style="stroke: rgb(0, 0, 0); fill: none;" cx="87.697" cy="20.376" rx="3.617" ry="4.932"/>
    <ellipse style="stroke: rgb(0, 0, 0); fill: none;" cx="78.898" cy="29.538" rx="2.498" ry="2.725"/>
    <ellipse style="stroke: rgb(0, 0, 0); fill: none;" cx="83.434" cy="11.698" rx="2.498" ry="2.725"/>
  </g>
  <g transform="matrix(1, 0, 0, 1, 272.964233, 89.171616)">
    <ellipse style="stroke: rgb(0, 0, 0); fill: none;" cx="87.697" cy="20.376" rx="3.617" ry="4.932"/>
    <ellipse style="stroke: rgb(0, 0, 0); fill: none;" cx="78.898" cy="29.538" rx="2.498" ry="2.725"/>
    <ellipse style="stroke: rgb(0, 0, 0); fill: none;" cx="83.434" cy="11.698" rx="2.498" ry="2.725"/>
  </g>
  <g transform="matrix(-1, 0, 0, 1, 388.550781, 4.926744)" style="">
    <ellipse style="fill: none; stroke: rgb(0, 255, 213);" cx="87.697" cy="20.376" rx="3.617" ry="4.932"/>
    <ellipse style="fill: none; stroke: rgb(0, 255, 213);" cx="78.898" cy="29.538" rx="2.498" ry="2.725"/>
    <ellipse style="fill: none; stroke: rgb(0, 255, 213);" cx="83.434" cy="11.698" rx="2.498" ry="2.725"/>
  </g>
  <g transform="matrix(1, 0, 0, 1, 13.265057, 105.987915)" style="">
    <ellipse style="fill: none; stroke: rgb(0, 255, 213);" cx="87.697" cy="20.376" rx="3.617" ry="4.932"/>
    <ellipse style="fill: none; stroke: rgb(0, 255, 213);" cx="78.898" cy="29.538" rx="2.498" ry="2.725"/>
    <ellipse style="fill: none; stroke: rgb(0, 255, 213);" cx="83.434" cy="11.698" rx="2.498" ry="2.725"/>
  </g>
  <g transform="matrix(1, 0, 0, 1, 0.990642, 0.700336)">
    <g>
      <path d="M 94.116 24.139 L 95.704 24.139 L 95.704 32.889 L 99.36 32.889 L 99.36 24.425 L 101.458 24.425 L 101.458 28.672 L 108.16 28.799 L 108.22 24.417 L 109.352 24.438 L 109.292 28.82 L 109.32 28.821 L 109.296 30.701 L 101.458 30.554 L 101.458 38.732 L 103.718 38.732 L 103.718 38.682 L 104.949 38.682 L 104.949 53.795 L 103.718 53.795 L 103.718 40.734 L 101.458 40.734 L 101.458 40.822 L 99.36 40.822 L 99.36 40.768 L 94.469 40.768 L 94.469 38.596 L 99.36 38.596 L 99.36 34.23 L 95.704 34.23 L 95.704 34.263 L 94.116 34.263 L 94.116 24.139 Z" style="stroke: rgba(16, 18, 21, 0.384); fill: rgba(255, 255, 255, 0.098); transform-origin: 101.734px 38.968px;" transform="matrix(0.640185, -0.768221, 0.768221, 0.640185, -0.000003, 0.000002)"/>
      <path d="M 110.21 37.276 L 111.798 37.276 L 111.798 41.447 L 115.454 41.447 L 115.454 37.412 L 117.552 37.412 L 117.552 39.437 L 124.254 39.497 L 124.314 37.408 L 125.446 37.418 L 125.386 39.507 L 125.414 39.508 L 125.39 40.404 L 117.552 40.334 L 117.552 44.233 L 119.812 44.233 L 119.812 44.209 L 121.043 44.209 L 121.043 51.415 L 119.812 51.415 L 119.812 45.188 L 117.552 45.188 L 117.552 45.23 L 115.454 45.23 L 115.454 45.204 L 110.563 45.204 L 110.563 44.168 L 115.454 44.168 L 115.454 42.087 L 111.798 42.087 L 111.798 42.102 L 110.21 42.102 L 110.21 37.276 Z" style="stroke: rgba(16, 18, 21, 0.384); fill: rgba(255, 255, 255, 0.098); transform-origin: 117.828px 44.346px;" transform="matrix(-0.720152, -0.693817, 0.693817, -0.720152, 0.000003, -0.000003)"/>
    </g>
    <g transform="matrix(0.297949, -0.954582, 0.954582, 0.297949, 7.432436, 59.756721)" style="transform-origin: 106.842px 39.1727px;">
      <path d="M 94.116 24.139 L 95.704 24.139 L 95.704 32.889 L 99.36 32.889 L 99.36 24.425 L 101.458 24.425 L 101.458 28.672 L 108.16 28.799 L 108.22 24.417 L 109.352 24.438 L 109.292 28.82 L 109.32 28.821 L 109.296 30.701 L 101.458 30.554 L 101.458 38.732 L 103.718 38.732 L 103.718 38.682 L 104.949 38.682 L 104.949 53.795 L 103.718 53.795 L 103.718 40.734 L 101.458 40.734 L 101.458 40.822 L 99.36 40.822 L 99.36 40.768 L 94.469 40.768 L 94.469 38.596 L 99.36 38.596 L 99.36 34.23 L 95.704 34.23 L 95.704 34.263 L 94.116 34.263 L 94.116 24.139 Z" style="stroke: rgba(16, 18, 21, 0.384); fill: rgba(255, 255, 255, 0.098); transform-origin: 101.734px 38.968px;" transform="matrix(0.640185, -0.768221, 0.768221, 0.640185, -0.000003, 0.000002)"/>
      <path d="M 110.21 37.276 L 111.798 37.276 L 111.798 41.447 L 115.454 41.447 L 115.454 37.412 L 117.552 37.412 L 117.552 39.437 L 124.254 39.497 L 124.314 37.408 L 125.446 37.418 L 125.386 39.507 L 125.414 39.508 L 125.39 40.404 L 117.552 40.334 L 117.552 44.233 L 119.812 44.233 L 119.812 44.209 L 121.043 44.209 L 121.043 51.415 L 119.812 51.415 L 119.812 45.188 L 117.552 45.188 L 117.552 45.23 L 115.454 45.23 L 115.454 45.204 L 110.563 45.204 L 110.563 44.168 L 115.454 44.168 L 115.454 42.087 L 111.798 42.087 L 111.798 42.102 L 110.21 42.102 L 110.21 37.276 Z" style="stroke: rgba(16, 18, 21, 0.384); fill: rgba(255, 255, 255, 0.098); transform-origin: 117.828px 44.346px;" transform="matrix(-0.720152, -0.693817, 0.693817, -0.720152, 0.000003, -0.000003)"/>
    </g>
    <g transform="matrix(-0.568002, -0.823028, 0.823028, -0.568002, 69.696388, 83.57579)" style="transform-origin: 106.842px 39.173px;">
      <path d="M 94.116 24.139 L 95.704 24.139 L 95.704 32.889 L 99.36 32.889 L 99.36 24.425 L 101.458 24.425 L 101.458 28.672 L 108.16 28.799 L 108.22 24.417 L 109.352 24.438 L 109.292 28.82 L 109.32 28.821 L 109.296 30.701 L 101.458 30.554 L 101.458 38.732 L 103.718 38.732 L 103.718 38.682 L 104.949 38.682 L 104.949 53.795 L 103.718 53.795 L 103.718 40.734 L 101.458 40.734 L 101.458 40.822 L 99.36 40.822 L 99.36 40.768 L 94.469 40.768 L 94.469 38.596 L 99.36 38.596 L 99.36 34.23 L 95.704 34.23 L 95.704 34.263 L 94.116 34.263 L 94.116 24.139 Z" style="stroke: rgba(16, 18, 21, 0.384); fill: rgba(255, 255, 255, 0.098); transform-origin: 101.734px 38.968px;" transform="matrix(0.640185, -0.768221, 0.768221, 0.640185, -0.000003, 0.000002)"/>
      <path d="M 110.21 37.276 L 111.798 37.276 L 111.798 41.447 L 115.454 41.447 L 115.454 37.412 L 117.552 37.412 L 117.552 39.437 L 124.254 39.497 L 124.314 37.408 L 125.446 37.418 L 125.386 39.507 L 125.414 39.508 L 125.39 40.404 L 117.552 40.334 L 117.552 44.233 L 119.812 44.233 L 119.812 44.209 L 121.043 44.209 L 121.043 51.415 L 119.812 51.415 L 119.812 45.188 L 117.552 45.188 L 117.552 45.23 L 115.454 45.23 L 115.454 45.204 L 110.563 45.204 L 110.563 44.168 L 115.454 44.168 L 115.454 42.087 L 111.798 42.087 L 111.798 42.102 L 110.21 42.102 L 110.21 37.276 Z" style="stroke: rgba(16, 18, 21, 0.384); fill: rgba(255, 255, 255, 0.098); transform-origin: 117.828px 44.346px;" transform="matrix(-0.720152, -0.693817, 0.693817, -0.720152, 0.000003, -0.000003)"/>
    </g>
    <g transform="matrix(0.148963, -0.988844, -0.988844, -0.148963, 136.871017, 84.17244)" style="transform-origin: 106.842px 39.173px;">
      <path d="M 94.116 24.139 L 95.704 24.139 L 95.704 32.889 L 99.36 32.889 L 99.36 24.425 L 101.458 24.425 L 101.458 28.672 L 108.16 28.799 L 108.22 24.417 L 109.352 24.438 L 109.292 28.82 L 109.32 28.821 L 109.296 30.701 L 101.458 30.554 L 101.458 38.732 L 103.718 38.732 L 103.718 38.682 L 104.949 38.682 L 104.949 53.795 L 103.718 53.795 L 103.718 40.734 L 101.458 40.734 L 101.458 40.822 L 99.36 40.822 L 99.36 40.768 L 94.469 40.768 L 94.469 38.596 L 99.36 38.596 L 99.36 34.23 L 95.704 34.23 L 95.704 34.263 L 94.116 34.263 L 94.116 24.139 Z" style="stroke: rgba(16, 18, 21, 0.384); fill: rgba(255, 255, 255, 0.098); transform-origin: 101.734px 38.968px;" transform="matrix(0.640185, -0.768221, 0.768221, 0.640185, -0.000003, 0.000002)"/>
      <path d="M 110.21 37.276 L 111.798 37.276 L 111.798 41.447 L 115.454 41.447 L 115.454 37.412 L 117.552 37.412 L 117.552 39.437 L 124.254 39.497 L 124.314 37.408 L 125.446 37.418 L 125.386 39.507 L 125.414 39.508 L 125.39 40.404 L 117.552 40.334 L 117.552 44.233 L 119.812 44.233 L 119.812 44.209 L 121.043 44.209 L 121.043 51.415 L 119.812 51.415 L 119.812 45.188 L 117.552 45.188 L 117.552 45.23 L 115.454 45.23 L 115.454 45.204 L 110.563 45.204 L 110.563 44.168 L 115.454 44.168 L 115.454 42.087 L 111.798 42.087 L 111.798 42.102 L 110.21 42.102 L 110.21 37.276 Z" style="stroke: rgba(16, 18, 21, 0.384); fill: rgba(255, 255, 255, 0.098); transform-origin: 117.828px 44.346px;" transform="matrix(-0.720152, -0.693817, 0.693817, -0.720152, 0.000003, -0.000003)"/>
    </g>
    <g transform="matrix(-1, 0, 0, 1, 428.891876, -23.819118)" style="">
      <path d="M 94.116 24.139 L 95.704 24.139 L 95.704 32.889 L 99.36 32.889 L 99.36 24.425 L 101.458 24.425 L 101.458 28.672 L 108.16 28.799 L 108.22 24.417 L 109.352 24.438 L 109.292 28.82 L 109.32 28.821 L 109.296 30.701 L 101.458 30.554 L 101.458 38.732 L 103.718 38.732 L 103.718 38.682 L 104.949 38.682 L 104.949 53.795 L 103.718 53.795 L 103.718 40.734 L 101.458 40.734 L 101.458 40.822 L 99.36 40.822 L 99.36 40.768 L 94.469 40.768 L 94.469 38.596 L 99.36 38.596 L 99.36 34.23 L 95.704 34.23 L 95.704 34.263 L 94.116 34.263 L 94.116 24.139 Z" style="stroke: rgba(16, 18, 21, 0.384); fill: rgba(255, 255, 255, 0.098); transform-origin: 101.734px 38.968px;" transform="matrix(0.640185, -0.768221, 0.768221, 0.640185, -0.000003, 0.000002)"/>
      <path d="M 110.21 37.276 L 111.798 37.276 L 111.798 41.447 L 115.454 41.447 L 115.454 37.412 L 117.552 37.412 L 117.552 39.437 L 124.254 39.497 L 124.314 37.408 L 125.446 37.418 L 125.386 39.507 L 125.414 39.508 L 125.39 40.404 L 117.552 40.334 L 117.552 44.233 L 119.812 44.233 L 119.812 44.209 L 121.043 44.209 L 121.043 51.415 L 119.812 51.415 L 119.812 45.188 L 117.552 45.188 L 117.552 45.23 L 115.454 45.23 L 115.454 45.204 L 110.563 45.204 L 110.563 44.168 L 115.454 44.168 L 115.454 42.087 L 111.798 42.087 L 111.798 42.102 L 110.21 42.102 L 110.21 37.276 Z" style="stroke: rgba(16, 18, 21, 0.384); fill: rgba(255, 255, 255, 0.098); transform-origin: 117.828px 44.346px;" transform="matrix(-0.720152, -0.693817, 0.693817, -0.720152, 0.000003, -0.000003)"/>
    </g>
    <g transform="matrix(0.387747, 0.441554, -0.471417, 0.41397, 102.58934, -24.23702)" style="transform-origin: 106.842px 39.1727px;">
      <path d="M 94.116 24.139 L 95.704 24.139 L 95.704 32.889 L 99.36 32.889 L 99.36 24.425 L 101.458 24.425 L 101.458 28.672 L 108.16 28.799 L 108.22 24.417 L 109.352 24.438 L 109.292 28.82 L 109.32 28.821 L 109.296 30.701 L 101.458 30.554 L 101.458 38.732 L 103.718 38.732 L 103.718 38.682 L 104.949 38.682 L 104.949 53.795 L 103.718 53.795 L 103.718 40.734 L 101.458 40.734 L 101.458 40.822 L 99.36 40.822 L 99.36 40.768 L 94.469 40.768 L 94.469 38.596 L 99.36 38.596 L 99.36 34.23 L 95.704 34.23 L 95.704 34.263 L 94.116 34.263 L 94.116 24.139 Z" style="stroke: rgba(16, 18, 21, 0.384); fill: rgba(255, 255, 255, 0.098); transform-origin: 101.734px 38.968px;" transform="matrix(0.640185, -0.768221, 0.768221, 0.640185, -0.000003, 0.000002)"/>
      <path d="M 110.21 37.276 L 111.798 37.276 L 111.798 41.447 L 115.454 41.447 L 115.454 37.412 L 117.552 37.412 L 117.552 39.437 L 124.254 39.497 L 124.314 37.408 L 125.446 37.418 L 125.386 39.507 L 125.414 39.508 L 125.39 40.404 L 117.552 40.334 L 117.552 44.233 L 119.812 44.233 L 119.812 44.209 L 121.043 44.209 L 121.043 51.415 L 119.812 51.415 L 119.812 45.188 L 117.552 45.188 L 117.552 45.23 L 115.454 45.23 L 115.454 45.204 L 110.563 45.204 L 110.563 44.168 L 115.454 44.168 L 115.454 42.087 L 111.798 42.087 L 111.798 42.102 L 110.21 42.102 L 110.21 37.276 Z" style="stroke: rgba(16, 18, 21, 0.384); fill: rgba(255, 255, 255, 0.098); transform-origin: 117.828px 44.346px;" transform="matrix(-0.720152, -0.693817, 0.693817, -0.720152, 0.000003, -0.000003)"/>
    </g>
  </g>
</svg>