<?xml version="1.0" encoding="utf-8"?>
<svg xmlns="http://www.w3.org/2000/svg" viewBox="0 0 50 50" width="50px" height="50px">
  <path d="M 31.156 42.601 L 25.057 48.733 L 19.563 42.646 C 14.819 40.95 10.973 37.208 8.998 32.417 L 0.899 25.092 L 8.899 17.954 C 10.751 13.281 14.375 9.567 18.901 7.738 L 25.168 1.125 L 31.298 7.594 C 36.285 9.475 40.242 13.629 42.016 18.874 L 48.729 24.838 L 42.171 30.796 C 40.468 36.303 36.372 40.691 31.156 42.601 Z" style="stroke: rgb(0, 0, 0); fill: rgb(70, 89, 49);"/>
  <ellipse style="stroke: rgb(0, 0, 0); fill: rgb(240, 24, 24);" cx="24.87" cy="25.983" rx="6.215" ry="8.322"/>
  <ellipse style="fill: rgb(255, 60, 60);" cx="24.205" cy="24.596" rx="4.551" ry="6.047"/>
  <ellipse style="fill: rgb(255, 255, 255);" cx="23.317" cy="22.765" rx="3.108" ry="3.661"/>
  <ellipse style="stroke: rgb(0, 0, 0); fill: rgb(70, 89, 49);" cx="24.87" cy="19.381" rx="4.772" ry="2.718"/>
  <path d="M 2.954 25.132 L 11.57 19.717 C 10.541 21.09 9.89 23.115 9.889 25.373 C 9.89 27.465 10.448 29.356 11.349 30.715 L 2.954 25.132 Z" style="fill: rgb(24, 35, 21); stroke: rgb(11, 18, 8);"/>
  <path d="M 37.579 24.799 L 46.195 19.384 C 45.166 20.757 44.515 22.782 44.514 25.04 C 44.515 27.132 45.073 29.023 45.974 30.382 L 37.579 24.799 Z" style="fill: rgb(24, 35, 21); stroke: rgb(11, 18, 8); transform-box: fill-box; transform-origin: 50% 50%;" transform="matrix(-0.998821, 0.048547, -0.048547, -0.998821, -0.000006, 0.000004)"/>
  <path d="M 20.821 7.819 L 29.437 2.404 C 28.408 3.777 27.757 5.802 27.756 8.06 C 27.757 10.152 28.315 12.043 29.216 13.402 L 20.821 7.819 Z" style="stroke: rgb(18, 8, 8); transform-origin: 25.129px 7.903px; fill: rgb(205, 26, 26);" transform="matrix(0.02343, 0.999725, -0.999725, 0.02343, 0.000001, 0)"/>
  <path d="M 20.821 41.889 L 29.437 36.474 C 28.408 37.847 27.757 39.872 27.756 42.13 C 27.757 44.222 28.315 46.113 29.216 47.472 L 20.821 41.889 Z" style="stroke: rgb(18, 8, 8); transform-origin: 25.129px 41.973px; fill: rgb(222, 15, 15);" transform="matrix(-0.033171, -0.99945, 0.99945, -0.033171, 0, 0.000002)"/>
</svg>