<?xml version="1.0" encoding="utf-8"?>
<svg xmlns="http://www.w3.org/2000/svg" viewBox="100 80 100 80" width="100px" height="80px" xmlns:bx="https://boxy-svg.com">
  <defs>
    <linearGradient gradientUnits="userSpaceOnUse" x1="113.757" y1="124.278" x2="113.757" y2="151.044" id="gradient-0">
      <stop offset="0" style="stop-color: rgb(30.196% 9.0196% 4.7059%)"/>
      <stop offset="1" style="stop-color: rgb(22.873% 4.0196% 0%)"/>
    </linearGradient>
    <linearGradient gradientUnits="userSpaceOnUse" x1="113.757" y1="124.278" x2="113.757" y2="151.044" id="gradient-1" gradientTransform="matrix(1, 0, 0, -1, 73.971954, 275.573669)">
      <stop offset="0" style="stop-color: rgb(30.196% 9.0196% 4.7059%)"/>
      <stop offset="1" style="stop-color: rgb(22.873% 4.0196% 0%)"/>
    </linearGradient>
    <linearGradient gradientUnits="userSpaceOnUse" x1="113.757" y1="124.278" x2="113.757" y2="151.044" id="gradient-2" gradientTransform="matrix(1.066666, 0, 0, -0.525133, 66.837555, 178.876331)">
      <stop offset="0" style="stop-color: rgb(30.196% 9.0196% 4.7059%)"/>
      <stop offset="1" style="stop-color: rgb(22.873% 4.0196% 0%)"/>
    </linearGradient>
    <linearGradient gradientUnits="userSpaceOnUse" x1="113.757" y1="124.278" x2="113.757" y2="151.044" id="gradient-3" gradientTransform="matrix(1.066666, 0, 0, 0.525133, -8.134471, 34.744289)">
      <stop offset="0" style="stop-color: rgb(30.196% 9.0196% 4.7059%)"/>
      <stop offset="1" style="stop-color: rgb(22.873% 4.0196% 0%)"/>
    </linearGradient>
    <filter id="gaussian-blur-filter-0" bx:preset="gaussian-blur 1 5" color-interpolation-filters="sRGB" x="-50%" y="-50%" width="200%" height="200%">
      <feGaussianBlur stdDeviation="5 5" edgeMode="none"/>
    </filter>
  </defs>
  <rect x="101.175" y="111.888" width="97.749" height="46.897" style="fill: rgb(119, 43, 28); stroke: rgb(255, 255, 255);"/>
  <rect x="104.857" y="109.118" width="90.938" height="46.897" style="stroke: rgb(0, 0, 0); fill: rgb(77, 23, 12);"/>
  <rect x="109.091" y="107.087" width="82.838" height="46.528" style="stroke: rgb(0, 0, 0); fill: rgb(119, 43, 28);"/>
  <path d="M 100.99 122.069 L 100.99 101.027 C 103.228 92.26 107.797 85.273 113.533 81.793 L 186.609 81.793 C 192.345 85.288 196.914 92.3 199.153 101.103 L 199.153 122.228 L 149.1 122.228 L 149.1 122.069 L 100.99 122.069 Z" style="fill: rgb(119, 43, 28); stroke: rgb(255, 255, 255);"/>
  <rect x="147.766" y="125.207" width="7.715" height="31.037" style="stroke: rgb(0, 0, 0); fill: rgb(77, 23, 12);"/>
  <ellipse style="stroke: rgb(0, 0, 0); fill: rgb(77, 23, 12);" cx="151.035" cy="120.288" rx="13.071" ry="13.386"/>
  <ellipse style="stroke: rgb(0, 0, 0); fill: rgb(30, 8, 4);" cx="151.393" cy="122.213" rx="5.908" ry="8.551"/>
  <ellipse style="stroke: rgb(0, 0, 0); fill: rgb(37, 86, 75);" cx="151.617" cy="120.569" rx="3.889" ry="4.813"/>
  <path d="M 105.04 118.954 L 105.04 101.083 C 107.102 93.636 111.311 87.703 116.595 84.748 L 183.916 84.748 C 189.199 87.715 193.408 93.671 195.471 101.148 L 195.471 119.09 L 149.36 119.09 L 149.36 118.954 L 105.04 118.954 Z" style="stroke: rgb(0, 0, 0); fill: rgb(77, 23, 12);"/>
  <path d="M 109.09 115.654 L 109.09 100.955 C 110.98 94.828 114.838 89.948 119.679 87.517 L 181.382 87.517 C 186.225 89.958 190.082 94.858 191.973 101.009 L 191.973 115.767 L 149.711 115.767 L 149.711 115.654 L 109.09 115.654 Z" style="stroke: rgb(0, 0, 0); fill: rgb(119, 43, 28);"/>
  <g transform="matrix(1, 0, 0, 1, 25.834541, -36.957745)">
    <path d="M 124.766 150.503 C 118.45 150.503 113.331 145.557 113.331 139.456 C 113.331 134.282 117.012 129.939 121.98 128.739 C 120.817 130.468 120.14 132.534 120.14 134.752 C 120.14 140.854 125.259 145.799 131.575 145.799 C 132.535 145.799 133.469 145.684 134.36 145.468 C 132.321 148.499 128.785 150.503 124.766 150.503 Z" style="fill: rgb(77, 23, 12); transform-box: fill-box; transform-origin: 50% 50%;" transform="matrix(0.999145, -0.041333, 0.041333, 0.999145, 0, 0)"/>
    <path d="M 132.245 142.463 C 127.938 142.463 124.448 138.809 124.448 134.303 C 124.448 130.481 126.958 127.273 130.345 126.387 C 129.552 127.664 129.091 129.19 129.091 130.828 C 129.091 135.335 132.581 138.988 136.888 138.988 C 137.543 138.988 138.18 138.903 138.787 138.744 C 137.397 140.983 134.986 142.463 132.245 142.463 Z" style="fill: rgb(77, 23, 12); transform-box: fill-box; transform-origin: 50% 50%;" transform="matrix(-0.999793, 0.020351, -0.020351, -0.999793, 0.000012, -0.000003)"/>
    <path d="M 127.302 142.054 C 124.804 142.054 122.78 140.038 122.78 137.551 C 122.78 135.442 124.236 133.671 126.2 133.182 C 125.741 133.887 125.473 134.729 125.473 135.633 C 125.473 138.121 127.497 140.137 129.995 140.137 C 130.375 140.137 130.744 140.09 131.096 140.002 C 130.29 141.237 128.892 142.054 127.302 142.054 Z" style="fill: rgb(77, 23, 12);"/>
    <ellipse style="fill: rgb(77, 23, 12);" cx="129.472" cy="135.709" rx="1.784" ry="1.901"/>
  </g>
  <g transform="matrix(1, 0, 0, 1, 25.835, -36.958)">
    <path d="M 124.766 150.503 C 118.45 150.503 113.331 145.557 113.331 139.456 C 113.331 134.282 117.012 129.939 121.98 128.739 C 120.817 130.468 120.14 132.534 120.14 134.752 C 120.14 140.854 125.259 145.799 131.575 145.799 C 132.535 145.799 133.469 145.684 134.36 145.468 C 132.321 148.499 128.785 150.503 124.766 150.503 Z" style="fill: rgb(77, 23, 12); transform-box: fill-box; transform-origin: 50% 50%;" transform="matrix(0.999145, -0.041333, 0.041333, 0.999145, 0, 0)"/>
    <path d="M 132.245 142.463 C 127.938 142.463 124.448 138.809 124.448 134.303 C 124.448 130.481 126.958 127.273 130.345 126.387 C 129.552 127.664 129.091 129.19 129.091 130.828 C 129.091 135.335 132.581 138.988 136.888 138.988 C 137.543 138.988 138.18 138.903 138.787 138.744 C 137.397 140.983 134.986 142.463 132.245 142.463 Z" style="fill: rgb(77, 23, 12); transform-box: fill-box; transform-origin: 50% 50%;" transform="matrix(-0.999793, 0.020351, -0.020351, -0.999793, 0.000012, -0.000003)"/>
    <path d="M 127.302 142.054 C 124.804 142.054 122.78 140.038 122.78 137.551 C 122.78 135.442 124.236 133.671 126.2 133.182 C 125.741 133.887 125.473 134.729 125.473 135.633 C 125.473 138.121 127.497 140.137 129.995 140.137 C 130.375 140.137 130.744 140.09 131.096 140.002 C 130.29 141.237 128.892 142.054 127.302 142.054 Z" style="fill: rgb(77, 23, 12);"/>
    <ellipse style="fill: rgb(77, 23, 12);" cx="129.472" cy="135.709" rx="1.784" ry="1.901"/>
  </g>
  <path d="M 111.514 124.278 L 116 124.278 L 116 126.457 C 114.616 126.707 113.608 127.478 113.608 128.39 C 113.608 129.302 114.616 130.073 116 130.323 L 116 132.801 C 115.975 132.801 115.95 132.801 115.925 132.801 C 114.067 132.801 112.561 133.705 112.561 134.82 C 112.561 135.935 114.067 136.839 115.925 136.839 C 115.95 136.839 115.975 136.839 116 136.839 L 116 139.142 C 114.539 139.362 113.458 140.155 113.458 141.1 C 113.458 142.045 114.539 142.838 116 143.058 L 116 145.511 C 115.991 145.511 115.981 145.511 115.972 145.511 C 114.114 145.511 112.608 146.415 112.608 147.53 C 112.608 148.645 114.114 149.549 115.972 149.549 C 115.981 149.549 115.991 149.549 116 149.549 L 116 151.044 L 111.514 151.044 Z" style="fill: rgb(77, 23, 12);"/>
  <path d="M 111.514 124.278 L 116 124.278 L 116 126.457 C 114.616 126.707 113.608 127.478 113.608 128.39 C 113.608 129.302 114.616 130.073 116 130.323 L 116 132.801 C 115.975 132.801 115.95 132.801 115.925 132.801 C 114.067 132.801 112.561 133.705 112.561 134.82 C 112.561 135.935 114.067 136.839 115.925 136.839 C 115.95 136.839 115.975 136.839 116 136.839 L 116 139.142 C 114.539 139.362 113.458 140.155 113.458 141.1 C 113.458 142.045 114.539 142.838 116 143.058 L 116 145.511 C 115.991 145.511 115.981 145.511 115.972 145.511 C 114.114 145.511 112.608 146.415 112.608 147.53 C 112.608 148.645 114.114 149.549 115.972 149.549 C 115.981 149.549 115.991 149.549 116 149.549 L 116 151.044 L 111.514 151.044 Z" style="fill: url(&quot;#gradient-0&quot;);"/>
  <path d="M 185.486 151.296 L 189.972 151.296 L 189.972 149.117 C 188.588 148.867 187.58 148.096 187.58 147.184 C 187.58 146.272 188.588 145.501 189.972 145.251 L 189.972 142.773 C 189.947 142.773 189.922 142.773 189.897 142.773 C 188.039 142.773 186.533 141.869 186.533 140.754 C 186.533 139.639 188.039 138.735 189.897 138.735 C 189.922 138.735 189.947 138.735 189.972 138.735 L 189.972 136.432 C 188.511 136.212 187.43 135.419 187.43 134.474 C 187.43 133.529 188.511 132.736 189.972 132.516 L 189.972 130.063 C 189.963 130.063 189.953 130.063 189.944 130.063 C 188.086 130.063 186.58 129.159 186.58 128.044 C 186.58 126.929 188.086 126.025 189.944 126.025 C 189.953 126.025 189.963 126.025 189.972 126.025 L 189.972 124.53 L 185.486 124.53 L 185.486 151.296 Z" style="fill: url(&quot;#gradient-1&quot;); transform-box: fill-box; transform-origin: 50% 50%;" transform="matrix(-1, 0, 0, -1, -0.000009, 0.000019)"/>
  <path d="M 185.785 113.614 L 190.57 113.614 L 190.57 112.469 C 189.094 112.338 188.019 111.933 188.019 111.454 C 188.019 110.975 189.094 110.571 190.57 110.439 L 190.57 109.138 C 190.543 109.138 190.517 109.138 190.49 109.138 C 188.508 109.138 186.902 108.663 186.902 108.078 C 186.902 107.492 188.508 107.018 190.49 107.018 C 190.517 107.018 190.543 107.018 190.57 107.018 L 190.57 105.808 C 189.012 105.693 187.859 105.276 187.859 104.78 C 187.859 104.284 189.012 103.867 190.57 103.752 L 190.57 102.464 C 190.56 102.464 190.55 102.464 190.54 102.464 C 188.558 102.464 186.952 101.989 186.952 101.403 C 186.952 100.818 188.558 100.343 190.54 100.343 C 190.55 100.343 190.56 100.343 190.57 100.343 L 190.57 99.558 L 185.785 99.558 L 185.785 113.614 Z" style="fill: url(&quot;#gradient-2&quot;); transform-origin: 188.178px 106.586px;" transform="matrix(-1, 0, 0, -1, 0.000011, 0.000006)"/>
  <path d="M 110.813 100.007 L 115.598 100.007 L 115.598 101.152 C 114.122 101.283 113.047 101.688 113.047 102.167 C 113.047 102.646 114.122 103.05 115.598 103.182 L 115.598 104.483 C 115.571 104.483 115.545 104.483 115.518 104.483 C 113.536 104.483 111.93 104.958 111.93 105.543 C 111.93 106.129 113.536 106.603 115.518 106.603 C 115.545 106.603 115.571 106.603 115.598 106.603 L 115.598 107.813 C 114.04 107.928 112.887 108.345 112.887 108.841 C 112.887 109.337 114.04 109.754 115.598 109.869 L 115.598 111.157 C 115.588 111.157 115.578 111.157 115.568 111.157 C 113.586 111.157 111.98 111.632 111.98 112.218 C 111.98 112.803 113.586 113.278 115.568 113.278 C 115.578 113.278 115.588 113.278 115.598 113.278 L 115.598 114.063 L 110.813 114.063 L 110.813 100.007 Z" style="fill: url(&quot;#gradient-3&quot;); transform-origin: 113.206px 107.035px;"/>
  <path stroke="rgb(255,0,0)" stroke-width="0" d="M 124.014 82.752 C 124.913 82.57 125.527 82.727 126.249 82.883 C 126.954 83.037 127.52 83.126 128.298 83.666 C 129.351 84.395 131.078 86.044 131.977 87.386 C 132.743 88.531 133.19 89.599 133.56 91.04 C 133.979 92.67 134.195 95.82 134.212 96.783 C 134.219 97.203 133.956 97.263 134.119 97.5 C 134.514 98.077 137.318 98.468 138.729 99.198 C 140.05 99.881 141.233 100.803 142.362 101.677 C 143.429 102.505 144.411 103.268 145.342 104.288 C 146.291 105.328 147.275 106.747 147.996 107.877 C 148.611 108.838 149.014 109.504 149.487 110.618 C 150.049 111.944 150.635 113.618 151.07 115.448 C 151.561 117.517 152.002 120.55 152.187 122.496 C 152.331 123.999 152.408 124.83 152.282 126.281 C 152.123 128.079 151.643 130.322 151.07 132.546 C 150.419 135.068 149.558 138.262 148.462 140.638 C 147.414 142.912 146.012 144.939 144.69 146.578 C 143.472 148.086 142.294 149.205 140.871 150.231 C 139.363 151.32 138.113 152.325 135.842 152.841 C 132.538 153.592 125.476 153.844 122.15 152.841 C 119.787 152.129 118.657 150.695 116.935 149.187 C 115.099 147.58 113.019 145.476 111.488 143.379 C 110.062 141.43 108.878 139.104 107.947 137.116 C 107.14 135.387 106.57 133.821 106.085 132.153 C 105.618 130.557 105.243 128.894 105.06 127.325 C 104.888 125.852 104.92 124.599 104.967 123.018 C 105.02 121.208 105.1 118.848 105.432 117.013 C 105.744 115.302 106.25 113.714 106.83 112.315 C 107.379 110.989 108.282 110.406 108.785 108.791 C 109.445 106.676 109.26 102.902 109.997 100.177 C 110.743 97.415 112.225 94.328 113.256 92.346 C 114.05 90.82 114.603 90.057 115.538 88.886 C 116.633 87.518 118.11 85.736 119.542 84.71 C 120.94 83.71 122.804 82.998 124.014 82.752 Z" style="stroke: rgb(129, 151, 57); stroke-width: 2px; filter: url(&quot;#gaussian-blur-filter-0&quot;); fill: rgba(48, 209, 187, 0.224);"/>
</svg>