<?xml version="1.0" encoding="utf-8"?>
<svg xmlns="http://www.w3.org/2000/svg" viewBox="0 0 400 400" width="400px" height="400px" xmlns:bx="https://boxy-svg.com">
  <defs>
    <filter id="gaussian-blur-filter-0" bx:preset="gaussian-blur 1 5" color-interpolation-filters="sRGB" x="-50%" y="-50%" width="200%" height="200%">
      <feGaussianBlur stdDeviation="5 5" edgeMode="none"/>
    </filter>
    <filter id="filter-1" bx:preset="gaussian-blur 1 5" color-interpolation-filters="sRGB" x="-50%" y="-50%" width="200%" height="200%">
      <feGaussianBlur stdDeviation="5 5" edgeMode="none"/>
    </filter>
  </defs>
  <rect x="-5.713" y="-0.578" width="429.425" height="403.792" style="fill: rgb(123, 53, 36);"/>
  <path stroke-width="0" d="M 296.856 112.07 C 304.346 111.507 315.86 111.218 324.098 113.364 C 332.205 115.476 341.233 119.957 345.974 124.686 C 350.27 128.969 347.736 136.963 352.578 139.889 C 357.846 143.071 371.119 140.023 377.756 141.83 C 383.205 143.313 388.01 145.525 390.551 148.623 C 393.066 151.689 393.938 156.892 393.028 160.268 C 392.182 163.398 388.882 166.573 386.011 168.355 C 383.418 169.962 381.817 170.377 376.93 170.942 C 367.662 172.014 342.297 172.948 329.051 170.942 C 318.124 169.288 309.932 162.821 301.81 161.885 C 295.103 161.112 289.623 163.728 283.649 163.826 C 277.794 163.921 271.874 162.076 266.313 162.532 C 260.877 162.977 257.37 165.665 250.628 166.414 C 241.374 167.441 221.853 167.869 214.306 166.414 C 209.766 165.538 207.629 164.443 205.638 162.208 C 203.352 159.641 201.67 154.386 202.336 151.211 C 202.942 148.326 206.255 145.322 208.528 143.77 C 210.324 142.544 211.193 142.25 214.306 141.83 C 220.1 141.046 237.408 142.957 244.024 141.83 C 248.267 141.107 249.734 140.413 252.692 138.271 C 256.823 135.282 260.429 127.595 265.487 123.715 C 270.279 120.04 276.516 117.262 281.997 115.304 C 286.968 113.531 290.895 112.518 296.856 112.07 Z" style="stroke-width: 2px; fill: rgba(75, 128, 32, 0.41); filter: url(&quot;#filter-1&quot;);"/>
  <g transform="matrix(0.975253, 0, 0, 0.963438, 2.013141, 0.000329)" style="">
    <rect x="335.302" y="0.009" width="80" height="80" style="fill: none; stroke: rgb(92, 26, 10); stroke-width: 3px; stroke-dasharray: 20;"/>
    <rect x="251.353" y="1.058" width="80" height="80" style="fill: none; stroke: rgb(92, 26, 10); stroke-width: 3px; stroke-dasharray: 20;"/>
    <rect x="167.343" y="1.034" width="80" height="80" style="fill: none; stroke: rgb(92, 26, 10); stroke-width: 3px; stroke-dasharray: 20;"/>
    <rect x="84.443" y="0.034" width="80" height="80" style="fill: none; stroke: rgb(92, 26, 10); stroke-width: 3px; stroke-dasharray: 20;"/>
    <rect x="0.531" y="1.022" width="80" height="80" style="fill: none; stroke: rgb(92, 26, 10); stroke-width: 3px; stroke-dasharray: 20;"/>
  </g>
  <g transform="matrix(0.985319, 0, 0, 0.963438, 0.020017, 79.998253)" style="">
    <rect x="335.302" y="0.009" width="80" height="80" style="fill: none; stroke: rgb(92, 26, 10); stroke-width: 3px; stroke-dasharray: 20;"/>
    <rect x="251.353" y="1.058" width="80" height="80" style="fill: none; stroke: rgb(92, 26, 10); stroke-width: 3px; stroke-dasharray: 20;"/>
    <rect x="167.343" y="1.034" width="80" height="80" style="fill: none; stroke: rgb(92, 26, 10); stroke-width: 3px; stroke-dasharray: 20;"/>
    <rect x="84.443" y="0.034" width="80" height="80" style="fill: none; stroke: rgb(92, 26, 10); stroke-width: 3px; stroke-dasharray: 20;"/>
    <rect x="0.531" y="1.022" width="80" height="80" style="fill: none; stroke: rgb(92, 26, 10); stroke-width: 3px; stroke-dasharray: 20;"/>
  </g>
  <g transform="matrix(0.985319, 0, 0, 0.963438, 2.020015, 159.971741)" style="">
    <rect x="335.302" y="0.009" width="80" height="80" style="fill: none; stroke: rgb(92, 26, 10); stroke-width: 3px; stroke-dasharray: 20;"/>
    <rect x="251.353" y="1.058" width="80" height="80" style="fill: none; stroke: rgb(92, 26, 10); stroke-width: 3px; stroke-dasharray: 20;"/>
    <rect x="167.343" y="1.034" width="80" height="80" style="fill: none; stroke: rgb(92, 26, 10); stroke-width: 3px; stroke-dasharray: 20;"/>
    <rect x="84.443" y="0.034" width="80" height="80" style="fill: none; stroke: rgb(92, 26, 10); stroke-width: 3px; stroke-dasharray: 20;"/>
    <rect x="0.531" y="1.022" width="80" height="80" style="fill: none; stroke: rgb(92, 26, 10); stroke-width: 3px; stroke-dasharray: 20;"/>
  </g>
  <g transform="matrix(0.989345, 0, 0, 0.963438, 2.005657, 240.006317)" style="">
    <rect x="335.302" y="0.009" width="80" height="80" style="fill: none; stroke: rgb(92, 26, 10); stroke-width: 3px; stroke-dasharray: 20;"/>
    <rect x="251.353" y="1.058" width="80" height="80" style="fill: none; stroke: rgb(92, 26, 10); stroke-width: 3px; stroke-dasharray: 20;"/>
    <rect x="167.343" y="1.034" width="80" height="80" style="fill: none; stroke: rgb(92, 26, 10); stroke-width: 3px; stroke-dasharray: 20;"/>
    <rect x="84.443" y="0.034" width="80" height="80" style="fill: none; stroke: rgb(92, 26, 10); stroke-width: 3px; stroke-dasharray: 20;"/>
    <rect x="0.531" y="1.022" width="80" height="80" style="fill: none; stroke: rgb(92, 26, 10); stroke-width: 3px; stroke-dasharray: 20;"/>
  </g>
  <path stroke-width="0" d="M 149.323 335.628 C 156.813 335.065 168.327 334.776 176.565 336.922 C 184.672 339.034 193.7 343.515 198.441 348.244 C 202.737 352.527 200.203 360.521 205.045 363.447 C 210.313 366.629 223.586 363.581 230.223 365.388 C 235.672 366.871 240.477 369.083 243.018 372.181 C 245.533 375.247 246.405 380.45 245.495 383.826 C 244.649 386.956 241.349 390.131 238.478 391.913 C 235.885 393.52 234.284 393.935 229.397 394.5 C 220.129 395.572 194.764 396.506 181.518 394.5 C 170.591 392.846 162.399 386.379 154.277 385.443 C 147.57 384.67 142.09 387.286 136.116 387.384 C 130.261 387.479 124.341 385.634 118.78 386.09 C 113.344 386.535 109.837 389.223 103.095 389.972 C 93.841 390.999 74.32 391.427 66.773 389.972 C 62.233 389.096 60.096 388.001 58.105 385.766 C 55.819 383.199 54.137 377.944 54.803 374.769 C 55.409 371.884 58.722 368.88 60.995 367.328 C 62.791 366.102 63.66 365.808 66.773 365.388 C 72.567 364.604 89.875 366.515 96.491 365.388 C 100.734 364.665 102.201 363.971 105.159 361.829 C 109.29 358.84 112.896 351.153 117.954 347.273 C 122.746 343.598 128.983 340.82 134.464 338.862 C 139.435 337.089 143.362 336.076 149.323 335.628 Z" style="stroke-width: 2px; filter: url(&quot;#gaussian-blur-filter-0&quot;); fill: rgba(75, 128, 32, 0.41);"/>
  <g transform="matrix(0.997399, 0, 0, 0.984044, 0.013603, 320.028503)" style="">
    <rect x="335.302" y="0.009" width="80" height="80" style="fill: none; stroke: rgb(92, 26, 10); stroke-width: 3px; stroke-dasharray: 20;"/>
    <rect x="251.353" y="1.058" width="80" height="80" style="fill: none; stroke: rgb(92, 26, 10); stroke-width: 3px; stroke-dasharray: 20;"/>
    <rect x="167.343" y="1.034" width="80" height="80" style="fill: none; stroke: rgb(92, 26, 10); stroke-width: 3px; stroke-dasharray: 20;"/>
    <rect x="84.443" y="0.034" width="80" height="80" style="fill: none; stroke: rgb(92, 26, 10); stroke-width: 3px; stroke-dasharray: 20;"/>
    <rect x="0.531" y="1.022" width="80" height="80" style="fill: none; stroke: rgb(92, 26, 10); stroke-width: 3px; stroke-dasharray: 20;"/>
  </g>
  <g transform="matrix(0.006035, 0.608949, 2.612182, -0.025886, 280.123199, 132.278732)" style="transform-origin: 15.427px 8.12px;">
    <ellipse style="fill: rgb(176, 71, 45);" cx="15.427" cy="8.12" rx="7.066" ry="5.101"/>
    <ellipse style="fill: rgb(221, 93, 60);" cx="14.876" cy="7.058" rx="5.623" ry="3.387"/>
    <ellipse style="fill: rgb(176, 71, 45); transform-box: fill-box; transform-origin: 50% 50%;" cx="15.275" cy="8.188" rx="5.623" ry="3.387" transform="matrix(0.981654, -0.190669, -0.321641, 1.081162, -0.195166, 0.133142)"/>
  </g>
  <g transform="matrix(0.006035, 0.608949, 2.612182, -0.025886, 324.830353, 107.027466)" style="transform-origin: 15.427px 8.12px;">
    <ellipse style="fill: rgb(176, 71, 45);" cx="15.427" cy="8.12" rx="7.066" ry="5.101"/>
    <ellipse style="fill: rgb(221, 93, 60);" cx="14.876" cy="7.058" rx="5.623" ry="3.387"/>
    <ellipse style="fill: rgb(176, 71, 45); transform-box: fill-box; transform-origin: 50% 50%;" cx="15.275" cy="8.188" rx="5.623" ry="3.387" transform="matrix(0.981654, -0.190669, -0.321641, 1.081162, -0.195166, 0.133142)"/>
  </g>
  <g transform="matrix(0.006035, 0.608949, 2.612182, -0.025886, 286.497192, 139.866821)" style="transform-origin: 15.427px 8.12px;">
    <ellipse style="fill: rgb(176, 71, 45);" cx="15.427" cy="8.12" rx="7.066" ry="5.101"/>
    <ellipse style="fill: rgb(221, 93, 60);" cx="14.876" cy="7.058" rx="5.623" ry="3.387"/>
    <ellipse style="fill: rgb(176, 71, 45); transform-box: fill-box; transform-origin: 50% 50%;" cx="15.275" cy="8.188" rx="5.623" ry="3.387" transform="matrix(0.981654, -0.190669, -0.321641, 1.081162, -0.195166, 0.133142)"/>
  </g>
  <g transform="matrix(0.006035, 0.608949, 2.612182, -0.025886, 43.803471, 329.351013)" style="transform-origin: 15.427px 8.12px;">
    <ellipse style="fill: rgb(176, 71, 45);" cx="15.427" cy="8.12" rx="7.066" ry="5.101"/>
    <ellipse style="fill: rgb(221, 93, 60);" cx="14.876" cy="7.058" rx="5.623" ry="3.387"/>
    <ellipse style="fill: rgb(176, 71, 45); transform-box: fill-box; transform-origin: 50% 50%;" cx="15.275" cy="8.188" rx="5.623" ry="3.387" transform="matrix(0.981654, -0.190669, -0.321641, 1.081162, -0.195166, 0.133142)"/>
  </g>
  <g transform="matrix(0.006035, 0.608949, 2.612182, -0.025886, 88.510628, 304.099762)" style="transform-origin: 15.427px 8.12px;">
    <ellipse style="fill: rgb(176, 71, 45);" cx="15.427" cy="8.12" rx="7.066" ry="5.101"/>
    <ellipse style="fill: rgb(221, 93, 60);" cx="14.876" cy="7.058" rx="5.623" ry="3.387"/>
    <ellipse style="fill: rgb(176, 71, 45); transform-box: fill-box; transform-origin: 50% 50%;" cx="15.275" cy="8.188" rx="5.623" ry="3.387" transform="matrix(0.981654, -0.190669, -0.321641, 1.081162, -0.195166, 0.133142)"/>
  </g>
  <g transform="matrix(0.006035, 0.608949, 2.612182, -0.025886, 50.177464, 336.939117)" style="transform-origin: 15.427px 8.12px;">
    <ellipse style="fill: rgb(176, 71, 45);" cx="15.427" cy="8.12" rx="7.066" ry="5.101"/>
    <ellipse style="fill: rgb(221, 93, 60);" cx="14.876" cy="7.058" rx="5.623" ry="3.387"/>
    <ellipse style="fill: rgb(176, 71, 45); transform-box: fill-box; transform-origin: 50% 50%;" cx="15.275" cy="8.188" rx="5.623" ry="3.387" transform="matrix(0.981654, -0.190669, -0.321641, 1.081162, -0.195166, 0.133142)"/>
  </g>
  <g transform="matrix(0.006035, 0.608949, 2.612182, -0.025886, 32.947807, 70.484879)" style="transform-origin: 15.427px 8.12px;">
    <ellipse style="fill: rgb(176, 71, 45);" cx="15.427" cy="8.12" rx="7.066" ry="5.101"/>
    <ellipse style="fill: rgb(221, 93, 60);" cx="14.876" cy="7.058" rx="5.623" ry="3.387"/>
    <ellipse style="fill: rgb(176, 71, 45); transform-box: fill-box; transform-origin: 50% 50%;" cx="15.275" cy="8.188" rx="5.623" ry="3.387" transform="matrix(0.981654, -0.190669, -0.321641, 1.081162, -0.195166, 0.133142)"/>
  </g>
  <g transform="matrix(0.006035, 0.608949, 2.612182, -0.025886, 77.654961, 45.233627)" style="transform-origin: 15.427px 8.12px;">
    <ellipse style="fill: rgb(176, 71, 45);" cx="15.427" cy="8.12" rx="7.066" ry="5.101"/>
    <ellipse style="fill: rgb(221, 93, 60);" cx="14.876" cy="7.058" rx="5.623" ry="3.387"/>
    <ellipse style="fill: rgb(176, 71, 45); transform-box: fill-box; transform-origin: 50% 50%;" cx="15.275" cy="8.188" rx="5.623" ry="3.387" transform="matrix(0.981654, -0.190669, -0.321641, 1.081162, -0.195166, 0.133142)"/>
  </g>
  <g transform="matrix(0.006035, 0.608949, 2.612182, -0.025886, 39.3218, 78.072983)" style="transform-origin: 15.427px 8.12px;">
    <ellipse style="fill: rgb(176, 71, 45);" cx="15.427" cy="8.12" rx="7.066" ry="5.101"/>
    <ellipse style="fill: rgb(221, 93, 60);" cx="14.876" cy="7.058" rx="5.623" ry="3.387"/>
    <ellipse style="fill: rgb(176, 71, 45); transform-box: fill-box; transform-origin: 50% 50%;" cx="15.275" cy="8.188" rx="5.623" ry="3.387" transform="matrix(0.981654, -0.190669, -0.321641, 1.081162, -0.195166, 0.133142)"/>
  </g>
  <g transform="matrix(1, 0, 0, 1.221325, -87.287621, -58.462639)" style="">
    <ellipse style="fill: rgb(48, 88, 13);" cx="15.427" cy="8.12" rx="5.95" ry="28.637" transform="matrix(0.00991, 0.999951, 0.999951, -0.009909, 193.445954, 347.109041)"/>
    <ellipse style="fill: rgb(40, 140, 11);" cx="14.876" cy="7.058" rx="4.735" ry="19.015" transform="matrix(0.00991, 0.999951, 0.999951, -0.009909, 188.547013, 347.2446)"/>
    <ellipse style="fill: rgb(48, 88, 13); transform-box: fill-box; transform-origin: 50% 50%;" cx="15.275" cy="8.188" rx="7.605" ry="11.839" transform="matrix(-0.785368, 0.619029, 1.735564, -0.094688, 187.569719, 353.963311)"/>
  </g>
  <g transform="matrix(1, 0, 0, 1.268079, -48.777042, -83.381729)" style="">
    <ellipse style="fill: rgb(48, 88, 13);" cx="15.427" cy="8.12" rx="5.95" ry="28.637" transform="matrix(0.00991, 0.999951, 0.999951, -0.009909, 193.445954, 347.109041)"/>
    <ellipse style="fill: rgb(40, 140, 11);" cx="14.876" cy="7.058" rx="4.735" ry="19.015" transform="matrix(0.00991, 0.999951, 0.999951, -0.009909, 188.547013, 347.2446)"/>
    <ellipse style="fill: rgb(48, 88, 13); transform-box: fill-box; transform-origin: 50% 50%;" cx="15.275" cy="8.188" rx="7.605" ry="11.839" transform="matrix(-0.785368, 0.619029, 1.735564, -0.094688, 187.569719, 353.963311)"/>
  </g>
  <g transform="matrix(1.208033, 0, 0, 1.368323, 89.936401, -354.375793)" style="">
    <ellipse style="fill: rgb(48, 88, 13);" cx="15.427" cy="8.12" rx="5.95" ry="28.637" transform="matrix(0.00991, 0.999951, 0.999951, -0.009909, 193.445954, 347.109041)"/>
    <ellipse style="fill: rgb(40, 140, 11);" cx="14.876" cy="7.058" rx="4.735" ry="19.015" transform="matrix(0.00991, 0.999951, 0.999951, -0.009909, 188.547013, 347.2446)"/>
    <ellipse style="fill: rgb(48, 88, 13); transform-box: fill-box; transform-origin: 50% 50%;" cx="15.275" cy="8.188" rx="7.605" ry="11.839" transform="matrix(-0.785368, 0.619029, 1.735564, -0.094688, 187.569719, 353.963311)"/>
  </g>
  <g transform="matrix(0.471857, 0, 0, 0.847294, 50.764664, 80.499969)" style="">
    <ellipse style="fill: rgb(48, 88, 13);" cx="15.427" cy="8.12" rx="5.95" ry="28.637" transform="matrix(0.00991, 0.999951, 0.999951, -0.009909, 193.445954, 347.109041)"/>
    <ellipse style="fill: rgb(40, 140, 11);" cx="14.876" cy="7.058" rx="4.735" ry="19.015" transform="matrix(0.00991, 0.999951, 0.999951, -0.009909, 188.547013, 347.2446)"/>
    <ellipse style="fill: rgb(48, 88, 13); transform-box: fill-box; transform-origin: 50% 50%;" cx="15.275" cy="8.188" rx="7.605" ry="11.839" transform="matrix(-0.785368, 0.619029, 1.735564, -0.094688, 187.569719, 353.963311)"/>
  </g>
</svg>