<?xml version="1.0" encoding="utf-8"?>
<svg xmlns="http://www.w3.org/2000/svg" viewBox="0 0 70 70" width="70px" height="70px">
  <defs>
    <radialGradient gradientUnits="userSpaceOnUse" cx="23.464" cy="20.179" r="13.185" id="gradient-0" gradientTransform="matrix(0.852874, -0.96801, 0.974956, 0.891103, -20.562669, 27.212588)">
      <stop offset="0" style="stop-color: rgb(100% 13.725% 13.725%)"/>
      <stop offset="1" style="stop-color: rgb(65.896% 0% 6.7938%)"/>
    </radialGradient>
    <radialGradient gradientUnits="userSpaceOnUse" cx="24.358" cy="43.612" r="23.019" id="gradient-1">
      <stop offset="0" style="stop-color: rgb(20% 52.157% 47.451%)"/>
      <stop offset="1" style="stop-color: rgb(0% 32.314% 28.34%)"/>
    </radialGradient>
  </defs>
  <path d="M 53.634 32.203 C 53.634 37.938 48.335 42.896 40.648 45.242 L 35.057 66.226 L 29.74 46.676 C 29.714 46.675 29.687 46.675 29.661 46.674 L 25.421 65.409 L 20.655 45.263 C 20.412 45.19 20.172 45.114 19.934 45.036 L 15.588 64.239 L 9.307 37.693 C 8.204 36 7.596 34.146 7.596 32.203 C 7.596 24.204 17.902 17.72 30.615 17.72 C 43.328 17.72 53.634 24.204 53.634 32.203 Z" style="stroke: rgb(0, 0, 0); fill: rgb(20, 60, 54); transform-box: fill-box; transform-origin: 50% 50%;" transform="matrix(0.997212, -0.074625, 0.074625, 0.997212, 0, 0)"/>
  <path d="M 49.27 17.321 L 48.443 18.239 C 46.572 17.073 44.378 16.402 42.034 16.402 C 35.167 16.402 29.598 22.16 29.598 29.264 C 29.598 32.021 30.437 34.576 31.865 36.671 L 31.147 37.467 L 22.656 15.769 C 22.105 16.798 21.017 17.501 19.764 17.501 C 17.954 17.501 16.49 16.036 16.49 14.232 C 16.49 13.388 16.809 12.618 17.334 12.039 C 16.109 11.403 15.271 10.116 15.271 8.629 C 15.271 6.513 16.968 4.8 19.062 4.8 C 20.7 4.8 22.093 5.849 22.623 7.316 C 23.215 6.742 24.021 6.386 24.912 6.386 C 26.721 6.386 28.189 7.85 28.189 9.657 C 28.189 10.333 27.983 10.96 27.629 11.482 L 49.27 17.321 Z" style="stroke: rgb(0, 0, 0); transform-box: fill-box; transform-origin: 50% 50%; fill: rgb(66, 18, 18);" transform="matrix(0.911141, 0.412095, -0.412095, 0.911141, 0, 0)"/>
  <path d="M 47.377 33.842 C 47.377 39.577 42.078 44.535 34.391 46.881 L 28.8 67.865 L 23.483 48.315 C 23.457 48.314 23.43 48.314 23.404 48.313 L 19.164 67.048 L 14.398 46.902 C 14.155 46.829 13.915 46.753 13.677 46.675 L 9.331 65.878 L 3.05 39.332 C 1.947 37.639 1.339 35.785 1.339 33.842 C 1.339 25.843 11.645 19.359 24.358 19.359 C 37.071 19.359 47.377 25.843 47.377 33.842 Z" style="stroke: rgb(0, 0, 0); fill: url(&quot;#gradient-1&quot;);"/>
  <ellipse style="stroke: rgb(0, 0, 0); fill: rgb(0, 255, 220);" cx="30.871" cy="46.55" rx="2.309" ry="2.607"/>
  <ellipse style="stroke: rgb(0, 0, 0); fill: rgb(0, 255, 220);" cx="19.25" cy="45.464" rx="2.309" ry="2.607"/>
  <path d="M 42.79 21.071 L 41.763 22.234 C 39.442 20.757 36.719 19.906 33.81 19.906 C 25.287 19.906 18.376 27.202 18.376 36.202 C 18.376 39.695 19.417 42.932 21.189 45.586 L 20.298 46.595 L 9.761 19.104 C 9.077 20.408 7.726 21.299 6.171 21.299 C 3.925 21.299 2.108 19.443 2.108 17.157 C 2.108 16.088 2.504 15.113 3.156 14.379 C 1.636 13.573 0.595 11.942 0.595 10.059 C 0.595 7.378 2.701 5.207 5.3 5.207 C 7.333 5.207 9.062 6.537 9.72 8.395 C 10.454 7.668 11.455 7.217 12.561 7.217 C 14.806 7.217 16.628 9.072 16.628 11.361 C 16.628 12.217 16.372 13.012 15.933 13.673 L 42.79 21.071 Z" style="stroke: rgb(0, 0, 0); fill: url(&quot;#gradient-0&quot;);"/>
  <ellipse style="stroke: rgb(0, 0, 0); fill: rgb(51, 133, 121);" cx="47.823" cy="31.353" rx="21.007" ry="22.125"/>
  <ellipse style="fill: rgb(110, 208, 194);" cx="49.929" cy="28.928" rx="17.728" ry="18.598"/>
  <ellipse style="stroke: rgb(0, 0, 0);" cx="43.949" cy="25.393" rx="4.469" ry="8.12"/>
  <ellipse style="stroke: rgb(0, 0, 0);" cx="57.135" cy="25.393" rx="3.501" ry="8.12"/>
  <path d="M 62.424 34.323 C 62.424 43.619 56.119 51.157 48.343 51.157 C 40.57 51.157 34.266 43.619 34.266 34.323 C 34.266 31.953 34.677 29.697 35.416 27.649 C 36.882 35.076 42.461 40.604 49.118 40.604 C 54.911 40.604 59.885 36.422 62.047 30.442 C 62.293 31.69 62.424 32.988 62.424 34.323 Z" style="stroke: rgb(0, 0, 0); fill: rgb(255, 255, 255);"/>
  <ellipse style="stroke: rgb(0, 0, 0); fill: rgb(255, 0, 0);" cx="44.098" cy="22.637" rx="3.873" ry="5.066"/>
  <ellipse style="stroke: rgb(0, 0, 0); fill: rgb(0, 255, 156);" cx="56.879" cy="28.703" rx="3.203" ry="5.066"/>
  <path d="M 60.925 41.665 C 61.016 44.774 55.301 46.756 48.16 46.09 C 41.023 45.425 35.159 42.365 35.069 39.256 C 35.045 38.462 35.4 37.745 36.058 37.122 C 37.478 39.732 42.655 42.058 48.768 42.628 C 54.088 43.124 58.614 42.15 60.542 40.336 C 60.78 40.775 60.912 41.219 60.925 41.665 Z" style="stroke: rgb(0, 0, 0); transform-origin: 48.047px 42.16px; fill: rgb(54, 10, 10);"/>
  <ellipse style="stroke: rgb(0, 0, 0); fill: rgb(0, 255, 220);" cx="8.566" cy="43.123" rx="2.309" ry="2.607"/>
</svg>