<?xml version="1.0" encoding="utf-8"?>
<svg xmlns="http://www.w3.org/2000/svg" viewBox="0 0 50 50">
  <g style="" transform="matrix(0.421175, 0, 0, 0.44144, 2.641857, -0.954208)">
    <path d="M 3.56 9.91 L 25.814 36.195 L 21.925 39.545 L 10.558 26.118 C 5.859 19.731 2.715 14.238 2.039 11.22 L 3.56 9.91 Z" style="stroke-linejoin: round; stroke-linecap: round; transform-origin: 9.609px 10.868px; fill: rgb(9, 15, 38);"/>
    <g transform="matrix(1.398026, -0.118815, 0.132642, 1.560712, -6.524758, -0.667436)" style="transform-origin: 11.862px 17.639px;">
      <path d="M 13.052 20.964 L 13.052 26.317 L 10.434 26.317 L 10.434 23.583 C 10.71 22.354 11.297 21.388 12.028 20.964 L 13.052 20.964 Z" style="stroke-linejoin: round; stroke-linecap: round; transform-box: fill-box; transform-origin: 50% 50%; stroke-width: 0.641198px; fill: rgb(9, 15, 38);" transform="matrix(-0.570538, -0.821271, 0.821271, -0.570538, -0.000001, -0.000002)"/>
      <path d="M 8.896 12.98 L 8.896 18.333 L 6.278 18.333 L 6.278 15.599 C 6.554 14.37 7.141 13.404 7.872 12.98 L 8.896 12.98 Z" style="stroke-linejoin: round; stroke-linecap: round; transform-origin: 7.587px 15.657px; stroke-width: 0.641194px; fill: rgb(9, 15, 38);" transform="matrix(-0.142092, -0.989853, 0.989853, -0.142092, -0.000002, 0)"/>
      <path d="M 10.662 17.127 L 10.662 22.48 L 8.044 22.48 L 8.044 19.746 C 8.32 18.517 8.907 17.551 9.638 17.127 L 10.662 17.127 Z" style="stroke-linejoin: round; stroke-linecap: round; transform-origin: 9.353px 19.804px; stroke-width: 0.641197px; fill: rgb(9, 15, 38);" transform="matrix(-0.465849, -0.884864, 0.884864, -0.465849, 0.000001, 0)"/>
      <path d="M 17.44 17.691 L 17.44 12.338 L 14.822 12.338 L 14.822 15.072 C 15.098 16.301 15.685 17.267 16.416 17.691 L 17.44 17.691 Z" style="stroke-linejoin: round; stroke-linecap: round; transform-origin: 16.131px 15.014px; stroke-width: 0.641199px; fill: rgb(9, 15, 38);" transform="matrix(-0.689551, -0.724237, 0.724237, -0.689551, 0.000001, 0)"/>
      <path d="M 14.93 14.622 L 14.93 9.269 L 12.312 9.269 L 12.312 12.003 C 12.588 13.232 13.175 14.198 13.906 14.622 L 14.93 14.622 Z" style="stroke-linejoin: round; stroke-linecap: round; transform-origin: 13.621px 11.945px; stroke-width: 0.641199px; fill: rgb(9, 15, 38);" transform="matrix(-0.782727, -0.622365, 0.622365, -0.782727, -0.000002, -0.000002)"/>
    </g>
    <path d="M 16.536 12.705 L 10.516 18.486 L 13.319 21.456 L 16.394 18.503 C 17.481 16.863 17.939 15.154 17.633 13.866 L 16.536 12.705 Z" style="stroke-linejoin: round; stroke-linecap: round; transform-origin: 14.207px 16.906px; fill: rgb(9, 15, 38);" transform="matrix(0.999209, -0.039768, 0.039768, 0.999209, 0, 0)"/>
  </g>
  <g style="" transform="matrix(-0.378728, 0, 0, 0.385254, 47.924129, -0.802574)">
    <path d="M 3.56 9.91 L 25.814 36.195 L 21.925 39.545 L 10.558 26.118 C 5.859 19.731 2.715 14.238 2.039 11.22 L 3.56 9.91 Z" style="stroke-linejoin: round; stroke-linecap: round; transform-origin: 9.609px 10.868px; fill: rgb(9, 15, 38);"/>
    <g transform="matrix(1.398026, -0.118815, 0.132642, 1.560712, -6.524758, -0.667436)" style="transform-origin: 11.862px 17.639px;">
      <path d="M 13.052 20.964 L 13.052 26.317 L 10.434 26.317 L 10.434 23.583 C 10.71 22.354 11.297 21.388 12.028 20.964 L 13.052 20.964 Z" style="stroke-linejoin: round; stroke-linecap: round; transform-box: fill-box; transform-origin: 50% 50%; stroke-width: 0.641198px; fill: rgb(9, 15, 38);" transform="matrix(-0.570538, -0.821271, 0.821271, -0.570538, -0.000001, -0.000002)"/>
      <path d="M 8.896 12.98 L 8.896 18.333 L 6.278 18.333 L 6.278 15.599 C 6.554 14.37 7.141 13.404 7.872 12.98 L 8.896 12.98 Z" style="stroke-linejoin: round; stroke-linecap: round; transform-origin: 7.587px 15.657px; stroke-width: 0.641194px; fill: rgb(9, 15, 38);" transform="matrix(-0.142092, -0.989853, 0.989853, -0.142092, -0.000002, 0)"/>
      <path d="M 10.662 17.127 L 10.662 22.48 L 8.044 22.48 L 8.044 19.746 C 8.32 18.517 8.907 17.551 9.638 17.127 L 10.662 17.127 Z" style="stroke-linejoin: round; stroke-linecap: round; transform-origin: 9.353px 19.804px; stroke-width: 0.641197px; fill: rgb(9, 15, 38);" transform="matrix(-0.465849, -0.884864, 0.884864, -0.465849, 0.000001, 0)"/>
      <path d="M 17.44 17.691 L 17.44 12.338 L 14.822 12.338 L 14.822 15.072 C 15.098 16.301 15.685 17.267 16.416 17.691 L 17.44 17.691 Z" style="stroke-linejoin: round; stroke-linecap: round; transform-origin: 16.131px 15.014px; stroke-width: 0.641199px; fill: rgb(9, 15, 38);" transform="matrix(-0.689551, -0.724237, 0.724237, -0.689551, 0.000001, 0)"/>
      <path d="M 14.93 14.622 L 14.93 9.269 L 12.312 9.269 L 12.312 12.003 C 12.588 13.232 13.175 14.198 13.906 14.622 L 14.93 14.622 Z" style="stroke-linejoin: round; stroke-linecap: round; transform-origin: 13.621px 11.945px; stroke-width: 0.641199px; fill: rgb(9, 15, 38);" transform="matrix(-0.782727, -0.622365, 0.622365, -0.782727, -0.000002, -0.000002)"/>
    </g>
    <path d="M 16.536 12.705 L 10.516 18.486 L 13.319 21.456 L 16.394 18.503 C 17.481 16.863 17.939 15.154 17.633 13.866 L 16.536 12.705 Z" style="stroke-linejoin: round; stroke-linecap: round; transform-origin: 14.207px 16.906px; fill: rgb(9, 15, 38);" transform="matrix(0.999209, -0.039768, 0.039768, 0.999209, 0, 0)"/>
  </g>
  <path d="M 46.388 22.588 C 46.388 31.013 41.576 38.293 34.6 41.725 C 34.691 41.919 34.769 42.122 34.833 42.333 L 34.833 44.786 L 34.6 44.786 L 34.825 44.867 L 33.872 47.155 C 33.135 48.074 32.141 48.65 31.174 48.713 L 30.028 48.303 L 31.691 44.31 L 31.691 42.89 C 29.751 43.5 27.688 43.829 25.551 43.829 C 23.24 43.829 21.018 43.444 18.941 42.737 L 18.941 44.532 L 20.605 48.525 L 19.458 48.934 C 18.491 48.87 17.498 48.296 16.76 47.377 L 15.807 45.089 L 16.033 45.006 L 15.8 45.006 L 15.8 42.555 C 15.905 42.207 16.048 41.878 16.222 41.585 C 9.398 38.097 4.715 30.899 4.715 22.588 C 4.715 10.857 14.044 1.347 25.551 1.347 C 37.059 1.347 46.388 10.857 46.388 22.588 Z" style="fill: rgb(0, 255, 220); stroke-width: 2px; stroke: rgb(5, 13, 32);"/>
  <ellipse style="fill: rgba(255, 255, 255, 0.416);" cx="27.569" cy="21.939" rx="17.78" ry="19.302"/>
  <ellipse style="fill: rgb(5, 13, 32);" cx="17.646" cy="20.086" rx="6.201" ry="8.101"/>
  <ellipse style="fill: rgb(5, 13, 32);" cx="33.234" cy="20.355" rx="6.201" ry="8.101"/>
</svg>