<?xml version="1.0" encoding="utf-8"?>
<svg xmlns="http://www.w3.org/2000/svg" viewBox="0 0 500 400" xmlns:bx="https://boxy-svg.com">
  <defs>
    <filter id="gaussian-blur-filter-0" bx:preset="gaussian-blur 1 10" color-interpolation-filters="sRGB" x="-50%" y="-50%" width="200%" height="200%">
      <feGaussianBlur stdDeviation="10 10" edgeMode="none"/>
    </filter>
    <filter id="gaussian-blur-filter-1" bx:preset="gaussian-blur 1 7.6" color-interpolation-filters="sRGB" x="-50%" y="-50%" width="200%" height="200%">
      <feGaussianBlur stdDeviation="7.6 7.6" edgeMode="none"/>
    </filter>
    <filter id="gaussian-blur-filter-2" bx:preset="gaussian-blur 1 5" color-interpolation-filters="sRGB" x="-50%" y="-50%" width="200%" height="200%">
      <feGaussianBlur stdDeviation="5 5" edgeMode="none"/>
    </filter>
    <filter id="filter-1" bx:preset="gaussian-blur 1 5" color-interpolation-filters="sRGB" x="-50%" y="-50%" width="200%" height="200%">
      <feGaussianBlur stdDeviation="5 5" edgeMode="none"/>
    </filter>
    <filter id="gaussian-blur-filter-3" bx:preset="gaussian-blur 1 9.7" color-interpolation-filters="sRGB" x="-50%" y="-50%" width="200%" height="200%">
      <feGaussianBlur stdDeviation="9.7 9.7" edgeMode="none"/>
    </filter>
    <radialGradient gradientUnits="userSpaceOnUse" cx="139.197" cy="233.671" r="134.576" id="gradient-0">
      <stop offset="0" style="stop-color: rgb(43.529% 27.451% 27.451%)"/>
      <stop offset="1" style="stop-color: rgb(29.926% 15.175% 15.505%)"/>
    </radialGradient>
    <radialGradient gradientUnits="userSpaceOnUse" cx="275.303" cy="256.027" r="219.054" id="gradient-1">
      <stop offset="0" style="stop-color: rgb(40% 23.922% 23.922%)"/>
      <stop offset="1" style="stop-color: rgb(27.97% 13.135% 13.501%)"/>
    </radialGradient>
  </defs>
  <path d="M 494.357 305.551 C 494.357 309.373 494.179 313.162 493.83 316.912 C 493.091 313.333 492.152 309.801 491.02 306.323 C 490.75 307.864 490.411 309.407 490.001 310.949 C 482.604 338.728 454.795 355.438 427.886 348.273 C 426.625 347.937 425.388 347.555 424.177 347.129 C 445.897 349.037 467.379 332.383 474.098 307.151 C 475.215 302.955 475.86 298.762 476.068 294.645 C 479.001 294.639 481.376 293.125 481.376 291.257 C 481.376 289.386 478.992 287.869 476.052 287.869 C 476.04 287.869 476.029 287.869 476.017 287.869 C 475.656 282.439 474.53 277.222 472.726 272.4 C 450.272 243.53 413.091 221.462 368.558 211.535 C 377.435 218.54 384.845 227.479 390.08 238.14 C 394.79 247.732 397.321 257.866 397.866 268.038 C 397.716 268.031 397.563 268.027 397.409 268.027 C 394.87 268.027 392.811 269.002 392.811 270.205 C 392.811 271.408 394.87 272.383 397.409 272.383 C 397.602 272.383 397.792 272.377 397.978 272.366 C 397.931 304.084 378.841 335.484 346.56 351.337 C 344.493 352.352 342.408 353.285 340.31 354.139 C 371.715 332.11 382.714 288.566 364.488 251.452 C 364.431 251.335 364.373 251.218 364.315 251.102 C 365.185 250.383 365.71 249.448 365.71 248.427 C 365.71 246.317 363.467 244.577 360.577 244.34 C 348 223.801 327.944 210.291 306.2 205.935 C 280.988 206.848 257.14 211.507 235.695 219.158 C 249.722 218.664 263.07 222.416 273.964 230.872 C 285.285 239.659 292.344 252.272 295.142 266.657 C 292.297 266.915 290.212 267.756 290.212 268.753 C 290.212 269.83 292.643 270.724 295.837 270.9 C 298.91 293.86 291.599 320.647 273.909 343.44 C 272.497 345.259 271.044 347.021 269.554 348.724 C 278.385 333.646 282.173 316.991 281.072 301.325 C 283.842 301.052 285.856 300.223 285.856 299.243 C 285.856 298.214 283.638 297.352 280.656 297.124 C 278.484 280.148 270.439 264.641 256.724 253.997 C 246.332 245.931 234.043 241.712 221.31 241.058 C 222.722 242.47 224.079 243.889 225.382 245.311 C 223.549 243.826 221.669 242.387 219.746 240.996 C 204.544 240.564 188.796 245.17 174.951 254.342 C 152.425 274.517 138.029 299.645 135.37 327.115 C 134.111 320.077 133.459 312.876 133.459 305.551 C 133.459 272.556 146.687 242.089 169.04 217.506 C 145.067 211.436 120.943 211.711 102.823 219.763 C 71.202 233.814 68.746 266.713 95.148 296.454 C 93.183 294.855 91.257 293.213 89.377 291.528 C 49.27 255.583 44.981 213.907 79.793 198.438 C 104.583 187.423 142.513 192.666 176.781 209.575 C 194.689 192.462 217.298 178.741 242.973 169.751 C 242.992 170.656 243.187 171.509 243.519 172.265 L 240.083 179.409 L 246.222 175.053 C 246.735 175.269 247.288 175.387 247.864 175.387 C 249.207 175.387 250.423 174.748 251.307 173.713 L 256.934 176.302 L 252.694 170.537 C 252.735 170.233 252.757 169.922 252.757 169.604 C 252.757 168.58 252.532 167.618 252.137 166.784 C 263.394 163.428 275.175 160.963 287.352 159.494 C 287.624 163.312 289.125 166.234 290.938 166.234 C 292.867 166.234 294.445 162.924 294.561 158.745 C 300.296 158.244 306.111 157.964 311.994 157.914 C 312.09 159.582 313.786 160.911 315.862 160.911 C 317.911 160.911 319.588 159.617 319.725 157.981 C 326.785 158.164 333.742 158.679 340.575 159.507 C 340.554 159.962 340.543 160.432 340.543 160.911 C 340.543 165.187 341.41 168.654 342.479 168.654 C 343.548 168.654 344.415 165.187 344.415 160.911 C 344.415 160.605 344.411 160.302 344.402 160.005 C 354.908 161.468 365.104 163.674 374.907 166.555 C 374.97 169.613 375.919 172.042 377.082 172.042 C 378.074 172.042 378.91 170.276 379.174 167.859 C 388.32 170.763 397.104 174.26 405.457 178.291 C 405.416 178.54 405.394 178.797 405.394 179.059 C 405.394 181.331 407.019 183.173 409.024 183.173 C 410.2 183.173 411.246 182.539 411.909 181.556 C 430.667 191.502 447.026 204.22 460.118 219.001 C 460.094 219.234 460.081 219.471 460.081 219.712 C 460.081 222.786 462.14 225.278 464.679 225.278 C 464.903 225.278 465.122 225.259 465.337 225.221 C 483.694 248.341 494.357 275.927 494.357 305.551 Z" style="stroke: rgb(0, 0, 0); fill: url(&quot;#gradient-1&quot;);"/>
  <path d="M 494.049 303.781 C 494.049 307.603 493.869 311.392 493.519 315.142 C 492.779 311.563 491.839 308.031 490.709 304.553 C 490.439 306.094 490.099 307.637 489.689 309.179 C 482.289 336.958 454.489 353.668 427.579 346.503 C 426.309 346.167 425.079 345.785 423.869 345.359 C 445.589 347.267 467.069 330.613 473.789 305.381 C 474.899 301.185 475.549 296.992 475.759 292.875 C 478.689 292.869 481.069 291.355 481.069 289.487 C 481.069 287.616 478.679 286.099 475.739 286.099 C 475.729 286.099 475.719 286.099 475.709 286.099 C 475.349 280.669 474.219 275.452 472.419 270.63 C 460.811 255.709 445.271 242.605 426.817 232.055 L 471.361 232.055 C 485.81 253.292 494.049 277.75 494.049 303.781 Z M 389.769 236.37 C 394.479 245.962 397.009 256.096 397.559 266.268 C 397.409 266.261 397.249 266.257 397.099 266.257 C 394.559 266.257 392.499 267.232 392.499 268.435 C 392.499 269.638 394.559 270.613 397.099 270.613 C 397.289 270.613 397.479 270.607 397.669 270.596 C 397.619 302.314 378.529 333.714 346.249 349.567 C 344.179 350.582 342.099 351.515 339.999 352.369 C 371.399 330.34 382.399 286.796 364.179 249.682 C 364.119 249.565 364.059 249.448 363.999 249.332 C 364.869 248.613 365.399 247.678 365.399 246.657 C 365.399 244.547 363.159 242.807 360.269 242.57 C 357.977 238.827 355.436 235.318 352.682 232.055 L 387.477 232.055 C 388.281 233.46 389.046 234.899 389.769 236.37 Z M 294.829 264.887 C 291.989 265.145 289.899 265.986 289.899 266.983 C 289.899 268.06 292.329 268.954 295.529 269.13 C 298.599 292.09 291.289 318.877 273.599 341.67 C 272.189 343.489 270.729 345.251 269.239 346.954 C 278.069 331.876 281.859 315.221 280.759 299.555 C 283.529 299.282 285.549 298.453 285.549 297.473 C 285.549 296.444 283.329 295.582 280.349 295.354 C 278.169 278.378 270.129 262.871 256.409 252.227 C 246.019 244.161 233.729 239.942 220.999 239.288 C 222.409 240.7 223.769 242.119 225.069 243.541 C 223.239 242.056 221.359 240.617 219.439 239.226 C 204.229 238.794 188.489 243.4 174.639 252.572 C 152.109 272.747 137.719 297.875 135.059 325.345 C 133.799 318.307 133.149 311.106 133.149 303.781 C 133.149 277.749 141.384 253.291 155.836 232.055 L 277.143 232.055 C 286.441 240.612 292.329 252.043 294.829 264.887 Z M 94.839 294.684 C 92.869 293.085 90.949 291.443 89.069 289.758 C 67.618 270.534 56.412 249.672 55.953 232.055 L 84.004 232.055 C 71.516 248.618 75.171 272.527 94.839 294.684 Z" style="filter: url(&quot;#gaussian-blur-filter-1&quot;); fill: rgba(0, 255, 255, 0.235);"/>
  <path d="M 85.469 363.116 C 95.09 373.866 97.663 386.514 91.218 391.367 C 84.771 396.22 71.745 391.441 62.124 380.691 C 59.696 377.979 57.719 375.147 56.22 372.348 C 53.392 367.772 51.635 361.366 51.635 354.277 C 51.635 349.85 52.32 345.69 53.522 342.076 C 45.031 336.204 37.391 329.289 30.812 321.528 C 31.239 320.435 31.472 319.248 31.472 318.008 C 31.472 312.561 26.968 308.145 21.412 308.145 C 21.293 308.145 21.174 308.147 21.055 308.151 C 10.613 291.368 4.621 271.791 4.621 250.885 C 4.621 188.629 57.759 138.159 123.308 138.159 C 142.064 138.159 159.803 142.291 175.573 149.649 C 175.44 150.562 175.371 151.5 175.371 152.457 C 175.371 152.79 175.379 153.121 175.396 153.449 L 166.309 159 L 175.755 156.309 C 176.027 157.649 176.437 158.926 176.967 160.118 L 172.295 169.007 L 175.983 165.086 L 180.757 169.26 L 177.539 163.432 L 178.321 162.6 C 180.276 165.567 183.067 167.742 186.282 168.643 L 185.275 175.622 L 187.624 168.94 C 188.276 169.047 188.941 169.102 189.618 169.102 C 191.051 169.102 192.434 168.855 193.739 168.395 L 195.209 173.002 L 195.45 167.648 C 199.31 165.622 202.259 161.646 203.377 156.793 L 206.117 160.607 L 203.783 154.255 C 203.837 153.664 203.865 153.064 203.865 152.457 C 203.865 149.842 203.349 147.368 202.429 145.166 L 205.021 142.584 L 207.324 145.524 L 206.05 141.558 L 273.773 74.078 L 213.476 177.581 C 231.256 197.29 241.995 222.897 241.995 250.885 C 241.995 289.378 221.682 323.363 190.681 343.701 C 191.451 346.725 191.877 350.05 191.877 353.542 C 191.877 360.631 190.12 367.037 187.292 371.613 C 185.793 374.412 183.816 377.244 181.388 379.956 C 171.767 390.706 158.742 395.485 152.294 390.632 C 145.849 385.78 148.423 373.131 158.044 362.381 C 159.3 360.978 160.615 359.675 161.965 358.483 C 161.928 358.167 161.894 357.85 161.863 357.53 C 149.775 361.472 136.804 363.611 123.308 363.611 C 108.698 363.611 94.704 361.104 81.779 356.517 C 81.729 357.433 81.652 358.334 81.547 359.218 C 82.897 360.41 84.212 361.712 85.469 363.116 Z" style="stroke: rgb(0, 0, 0); filter: none; fill: url(&quot;#gradient-0&quot;);"/>
  <ellipse style="stroke: rgb(0, 0, 0); fill: rgb(36, 21, 21); transform-origin: 82.978px 171.468px;" cx="82.978" cy="171.468" rx="45.614" ry="37.534" transform="matrix(-0.03526, -0.999378, 0.999378, -0.03526, -8.223344, 88.122817)"/>
  <ellipse style="stroke: rgb(0, 0, 0);" cx="77.704" cy="256.983" rx="36.165" ry="42.57"/>
  <ellipse style="stroke: rgb(0, 0, 0); fill: rgb(36, 21, 21); transform-origin: 82.978px 171.468px;" cx="82.978" cy="171.468" rx="45.614" ry="37.534" transform="matrix(-0.03526, -0.999378, 0.999378, -0.03526, 81.199862, 87.998168)"/>
  <ellipse style="stroke: rgb(0, 0, 0);" cx="165.103" cy="256.983" rx="36.165" ry="42.57"/>
  <ellipse style="stroke: rgb(0, 0, 0); transform-origin: 82.978px 171.468px; fill: rgb(36, 21, 21);" cx="82.978" cy="171.468" rx="27.534" ry="10.093" transform="matrix(0.792711, -0.609597, 0.609597, 0.792711, -23.916295, 3.209614)"/>
  <ellipse style="stroke: rgb(0, 0, 0); transform-box: fill-box; transform-origin: 50% 50%;" cx="82.978" cy="171.468" rx="27.23" ry="8" transform="matrix(0.792711, -0.609597, 0.609597, 0.792711, -22.980098, 4.897226)"/>
  <path style="fill: none; stroke-dasharray: 30; stroke: rgba(0, 0, 0, 0.29);" d="M 53.287 333.356 C 48.1 325.022 41.024 316.576 34.72 308.84 C 32.73 306.397 30.709 303.693 29.069 301.058 C 28.45 300.063 27.532 299.259 27.052 298.333 C 26.798 297.841 25.524 296.708 25.842 297.166 C 29.127 301.917 33.782 306.302 37.547 310.786 C 43.867 318.315 49.032 326.99 54.901 334.913 C 57.819 338.851 62.798 343.541 64.588 348.144 C 65.497 350.479 66.825 359.786 65.799 361.765 C 64.288 364.678 62.78 367.635 63.781 371.493 C 64.137 372.868 65.55 374.516 66.203 375.774 C 66.239 375.844 66.749 377.581 67.011 377.331 C 68.151 376.228 67.011 374.217 67.011 372.66 C 67.011 369.158 67.278 365.646 67.011 362.154 C 66.417 354.435 63.219 347.371 61.36 339.973 C 59.334 331.921 57.896 323.486 56.114 315.456 C 54.542 308.389 50.883 301.932 49.655 294.83 C 49.227 292.36 48.769 290.789 47.636 288.603 C 47.232 287.826 46.674 285.433 46.425 286.268 C 44.536 292.648 49.5 296.207 53.691 302.225 C 69.385 324.754 93.792 342.884 118.269 355.926 C 131.894 363.188 146.084 368.28 161.053 372.271 C 163.036 372.801 165.066 373.182 167.106 373.439 C 168.73 373.643 171.951 374.238 171.951 372.66 C 171.951 371.052 170.33 370.262 169.529 369.158 C 166.958 365.615 165.25 362.13 163.07 358.262 C 153.645 341.523 141.375 326.745 130.781 310.786 C 125.287 302.51 119.711 294.853 113.023 287.436 C 112.947 287.353 107.469 281.675 106.161 285.102 C 103.982 290.803 103.915 298.565 103.74 304.17 C 103.356 316.377 102.681 329.504 105.353 341.528 C 106.622 347.235 111.381 363.261 120.69 361.765 C 126.859 360.773 127.554 352.196 127.554 347.755 C 127.554 332.442 122.527 322.495 111.812 310.786 C 109.349 308.094 103.74 302.697 100.107 300.667 C 99.91 300.559 96.264 299.71 95.667 300.667 C 93.404 304.305 94.052 310.767 94.052 314.678 C 94.052 332.291 107.103 342.574 124.726 345.809 C 133.756 347.467 143.549 348.172 149.348 339.973 C 152.933 334.901 152.173 327.775 152.173 322.071 C 152.173 319.866 152.173 317.66 152.173 315.456 C 152.173 308.903 152.774 313.368 150.559 307.672 C 149.884 305.934 148.745 300.852 148.137 302.614 C 144.958 311.808 147.331 324.483 147.331 334.135 C 147.331 335.906 146.256 344.124 148.944 345.42 C 156.487 349.056 167.897 333.768 171.144 329.464 C 174.292 325.291 174.655 325.111 177.199 320.514 C 177.598 319.791 178.767 317.812 178.005 318.179 C 175.618 319.33 173.677 326.745 173.161 328.297 C 170.045 337.684 167.511 344.708 167.511 354.371 C 167.511 355.954 166.594 360.439 167.511 361.765 C 168.849 363.7 172.681 360.847 173.565 360.208 C 178.965 356.302 185.141 351.434 188.096 345.42 C 189.025 343.527 189.774 341.552 190.517 339.583 C 190.986 338.34 192.466 334.958 191.324 335.691 C 188.489 337.514 187.858 341.943 186.884 344.641 C 183.817 353.149 182.032 362.169 177.199 369.936 C 175.434 372.768 168.826 373.974 165.896 375.385 C 165.284 375.68 162.264 375.27 162.264 376.551 C 162.264 377.718 164.685 376.551 165.896 376.551 C 169.694 376.551 173.414 374.732 176.391 372.271 C 182.691 367.064 180.831 355.518 180.831 348.533 C 180.831 338.095 185.675 328.197 189.307 318.568 C 191.856 311.81 193.377 303.713 196.572 297.555 C 199.011 292.848 207.942 288.797 212.314 286.268 C 216.18 284.032 219.178 279.652 222.402 278.096 C 228.906 274.961 232.089 266.592 232.089 260.197 C 232.089 259.139 232.776 254.964 232.089 253.969 C 231.818 253.578 230.288 249.793 230.878 250.077 C 233.74 251.458 234.51 259.295 234.51 262.141 C 234.51 272.728 228.147 281.93 222.807 290.938 C 221.473 293.186 218.39 294.985 217.156 297.166 C 214.387 302.059 211.052 308.612 205.855 311.954 C 199.58 315.986 188.659 318.579 186.884 327.129 C 185.184 335.326 187.739 344.957 188.903 352.815 C 189.258 355.206 190.18 359.625 189.307 362.154 C 188.145 365.509 183.203 370.738 180.022 372.271 C 175.959 374.231 172.977 378.745 169.125 381.221 C 165.939 383.27 159.659 382.389 155.805 382.389"/>
  <path style="fill: none; stroke-dasharray: 30; stroke: rgba(0, 0, 0, 0.29);" d="M 39.817 196.1 C 34.278 201.861 26.723 207.699 19.991 213.047 C 17.867 214.736 15.709 216.605 13.958 218.426 C 13.296 219.114 12.316 219.67 11.803 220.31 C 11.533 220.65 10.172 221.433 10.512 221.117 C 14.019 217.832 18.99 214.802 23.01 211.701 C 29.759 206.497 35.275 200.5 41.542 195.024 C 44.656 192.301 49.973 189.06 51.885 185.878 C 52.856 184.263 54.274 177.83 53.178 176.462 C 51.565 174.448 49.954 172.404 51.023 169.737 C 51.404 168.787 52.912 167.648 53.61 166.778 C 53.648 166.73 54.192 165.529 54.472 165.702 C 55.69 166.464 54.472 167.854 54.472 168.93 C 54.472 171.352 54.757 173.779 54.472 176.193 C 53.838 181.529 50.423 186.412 48.438 191.526 C 46.275 197.092 44.739 202.923 42.836 208.473 C 41.158 213.358 37.251 217.822 35.94 222.731 C 35.482 224.439 34.993 225.525 33.784 227.036 C 33.352 227.573 32.756 229.227 32.49 228.65 C 30.474 224.24 35.774 221.78 40.249 217.619 C 57.008 202.046 83.069 189.513 109.207 180.498 C 123.756 175.478 138.907 171.958 154.892 169.199 C 157.009 168.833 159.178 168.57 161.356 168.392 C 163.09 168.251 166.529 167.84 166.529 168.93 C 166.529 170.042 164.799 170.588 163.943 171.352 C 161.198 173.801 159.374 176.21 157.045 178.883 C 146.981 190.454 133.88 200.67 122.568 211.701 C 116.7 217.423 110.746 222.715 103.605 227.843 C 103.523 227.9 97.674 231.825 96.277 229.456 C 93.951 225.515 93.879 220.15 93.693 216.275 C 93.282 207.837 92.561 198.763 95.415 190.451 C 96.77 186.506 101.851 175.428 111.791 176.462 C 118.379 177.148 119.122 183.077 119.122 186.146 C 119.122 196.732 113.753 203.608 102.312 211.701 C 99.682 213.562 93.693 217.293 89.813 218.696 C 89.603 218.771 85.71 219.358 85.071 218.696 C 82.655 216.182 83.347 211.715 83.347 209.012 C 83.347 196.836 97.283 189.728 116.101 187.491 C 125.744 186.346 136.201 185.858 142.394 191.526 C 146.221 195.032 145.41 199.958 145.41 203.901 C 145.41 205.425 145.41 206.95 145.41 208.473 C 145.41 213.004 146.052 209.917 143.686 213.854 C 142.966 215.055 141.75 218.569 141.1 217.351 C 137.706 210.995 140.24 202.233 140.24 195.562 C 140.24 194.337 139.091 188.657 141.962 187.761 C 150.017 185.247 162.201 195.815 165.668 198.791 C 169.029 201.675 169.417 201.799 172.133 204.977 C 172.56 205.477 173.807 206.845 172.994 206.591 C 170.445 205.796 168.372 200.67 167.822 199.597 C 164.493 193.108 161.788 188.253 161.788 181.573 C 161.788 180.479 160.809 177.379 161.788 176.462 C 163.217 175.124 167.309 177.096 168.252 177.538 C 174.019 180.238 180.613 183.603 183.769 187.761 C 184.762 189.069 185.561 190.434 186.354 191.796 C 186.855 192.655 188.435 194.992 187.216 194.486 C 184.188 193.226 183.515 190.164 182.475 188.299 C 179.2 182.417 177.294 176.183 172.133 170.814 C 170.249 168.856 163.192 168.022 160.064 167.047 C 159.41 166.843 156.185 167.126 156.185 166.241 C 156.185 165.434 158.771 166.241 160.064 166.241 C 164.119 166.241 168.092 167.499 171.271 169.199 C 177.998 172.799 176.011 180.78 176.011 185.608 C 176.011 192.824 181.184 199.666 185.062 206.322 C 187.784 210.994 189.409 216.591 192.82 220.848 C 195.424 224.102 204.961 226.902 209.63 228.65 C 213.757 230.196 216.959 233.223 220.401 234.299 C 227.347 236.466 230.746 242.252 230.746 246.672 C 230.746 247.403 231.479 250.289 230.746 250.977 C 230.456 251.247 228.822 253.864 229.452 253.667 C 232.509 252.712 233.331 247.295 233.331 245.328 C 233.331 238.009 226.536 231.649 220.834 225.422 C 219.41 223.868 216.118 222.625 214.8 221.117 C 211.843 217.734 208.282 213.205 202.732 210.894 C 196.032 208.107 184.37 206.314 182.475 200.404 C 180.659 194.738 183.387 188.08 184.631 182.649 C 185.009 180.996 185.994 177.941 185.062 176.193 C 183.822 173.874 178.544 170.259 175.147 169.199 C 170.809 167.845 167.625 164.724 163.512 163.013 C 160.11 161.597 153.403 162.205 149.288 162.205"/>
  <path style="fill: none; stroke-dasharray: 30; stroke: rgba(0, 0, 0, 0.29);" d="M 30.96 229.417 C 27.092 239.295 21.816 249.305 17.115 258.475 C 15.632 261.371 14.125 264.576 12.902 267.699 C 12.44 268.878 11.755 269.832 11.397 270.929 C 11.209 271.512 10.258 272.855 10.496 272.313 C 12.945 266.68 16.416 261.485 19.223 256.167 C 23.936 247.244 27.788 236.961 32.165 227.572 C 34.339 222.903 38.052 217.345 39.387 211.889 C 40.065 209.12 41.056 198.09 40.29 195.744 C 39.164 192.291 38.039 188.786 38.785 184.213 C 39.052 182.584 40.105 180.631 40.592 179.139 C 40.619 179.057 40.998 176.997 41.194 177.294 C 42.045 178.601 41.194 180.984 41.194 182.829 C 41.194 186.982 41.393 191.143 41.194 195.283 C 40.751 204.432 38.366 212.805 36.98 221.574 C 35.47 231.118 34.397 241.116 33.068 250.632 C 31.896 259.009 29.168 266.663 28.253 275.08 C 27.933 278.009 27.591 279.871 26.747 282.462 C 26.445 283.383 26.029 286.219 25.843 285.229 C 24.436 277.668 28.137 273.45 31.262 266.315 C 42.965 239.612 61.164 218.122 79.417 202.664 C 89.577 194.057 100.157 188.021 111.32 183.29 C 112.798 182.663 114.313 182.212 115.834 181.906 C 117.045 181.665 119.446 180.96 119.446 182.829 C 119.446 184.736 118.238 185.672 117.64 186.982 C 115.723 191.181 114.45 195.312 112.823 199.895 C 105.795 219.736 96.646 237.253 88.747 256.167 C 84.649 265.979 80.491 275.053 75.505 283.846 C 75.447 283.943 71.363 290.674 70.387 286.612 C 68.763 279.854 68.713 270.655 68.583 264.01 C 68.296 249.542 67.792 233.983 69.785 219.731 C 70.732 212.966 74.28 193.971 81.221 195.744 C 85.822 196.92 86.341 207.086 86.341 212.349 C 86.341 230.5 82.591 242.291 74.602 256.167 C 72.765 259.358 68.583 265.756 65.873 268.162 C 65.727 268.29 63.008 269.297 62.562 268.162 C 60.875 263.851 61.358 256.191 61.358 251.557 C 61.358 230.679 71.09 218.491 84.231 214.655 C 90.965 212.692 98.267 211.855 102.592 221.574 C 105.264 227.585 104.698 236.032 104.698 242.793 C 104.698 245.406 104.698 248.021 104.698 250.632 C 104.698 258.402 105.146 253.108 103.494 259.859 C 102.991 261.918 102.142 267.944 101.688 265.855 C 99.318 254.957 101.088 239.933 101.088 228.494 C 101.088 226.394 100.285 216.654 102.29 215.118 C 107.915 210.807 116.424 228.928 118.845 234.031 C 121.192 238.976 121.463 239.189 123.359 244.638 C 123.658 245.495 124.528 247.841 123.961 247.405 C 122.181 246.042 120.733 237.253 120.349 235.413 C 118.024 224.286 116.135 215.962 116.135 204.508 C 116.135 202.632 115.452 197.316 116.135 195.744 C 117.133 193.45 119.991 196.831 120.649 197.589 C 124.676 202.219 129.281 207.988 131.485 215.118 C 132.179 217.361 132.737 219.701 133.29 222.037 C 133.64 223.51 134.744 227.517 133.892 226.649 C 131.778 224.489 131.308 219.238 130.582 216.041 C 128.295 205.955 126.964 195.265 123.359 186.059 C 122.044 182.702 117.116 181.272 114.931 179.6 C 114.475 179.25 112.223 179.736 112.223 178.218 C 112.223 176.834 114.028 178.218 114.931 178.218 C 117.763 178.218 120.538 180.375 122.758 183.29 C 127.455 189.463 126.068 203.148 126.068 211.426 C 126.068 223.799 129.68 235.531 132.388 246.944 C 134.289 254.955 135.424 264.552 137.806 271.852 C 139.624 277.431 146.284 282.232 149.545 285.229 C 152.426 287.88 154.663 293.071 157.066 294.916 C 161.917 298.631 164.29 308.553 164.29 316.131 C 164.29 317.385 164.802 322.333 164.29 323.513 C 164.088 323.976 162.947 328.463 163.387 328.126 C 165.521 326.488 166.095 317.2 166.095 313.827 C 166.095 301.277 161.35 290.372 157.369 279.695 C 156.374 277.03 154.075 274.899 153.155 272.313 C 151.09 266.512 148.603 258.746 144.727 254.784 C 140.049 250.005 131.905 246.93 130.582 236.797 C 129.313 227.081 131.218 215.665 132.087 206.353 C 132.351 203.518 133.039 198.28 132.388 195.283 C 131.522 191.306 127.836 185.108 125.464 183.29 C 122.435 180.969 120.211 175.617 117.339 172.683 C 114.964 170.255 110.28 171.298 107.406 171.298"/>
  <path d="M 85.313 363.432 C 94.933 374.182 97.503 386.83 91.063 391.683 C 84.613 396.536 71.593 391.757 61.963 381.007 C 59.543 378.295 57.563 375.463 56.063 372.664 C 53.233 368.088 51.473 361.682 51.473 354.593 C 51.473 350.166 52.163 346.006 53.363 342.392 C 44.873 336.52 37.233 329.605 30.653 321.844 C 31.083 320.751 31.313 319.564 31.313 318.324 C 31.313 312.877 26.813 308.461 21.253 308.461 C 21.133 308.461 21.013 308.463 20.903 308.467 C 14.117 297.569 9.212 285.493 6.606 272.639 C 20.554 311.217 67.391 339.581 123.023 339.581 C 179.449 339.581 226.829 310.4 240.018 270.978 C 234.389 301.189 216.091 327.244 190.524 344.017 C 191.294 347.041 191.72 350.366 191.72 353.858 C 191.72 360.947 189.963 367.353 187.135 371.929 C 185.636 374.728 183.659 377.56 181.231 380.272 C 171.613 391.022 158.583 395.801 152.133 390.948 C 145.693 386.096 148.263 373.447 157.883 362.697 C 159.143 361.294 160.463 359.991 161.803 358.799 C 161.773 358.483 161.733 358.166 161.703 357.846 C 149.623 361.788 136.643 363.927 123.153 363.927 C 108.543 363.927 94.543 361.42 81.623 356.833 C 81.573 357.749 81.493 358.65 81.393 359.534 C 82.743 360.726 84.053 362.028 85.313 363.432 Z" style="filter: url(&quot;#gaussian-blur-filter-0&quot;); fill: rgba(49, 249, 255, 0.467);"/>
  <ellipse style="stroke: rgb(0, 0, 0); filter: url(&quot;#gaussian-blur-filter-2&quot;); fill: rgba(238, 255, 253, 0.094);" cx="86.208" cy="249.051" rx="22.21" ry="29.612"/>
  <ellipse style="stroke: rgb(0, 0, 0); filter: url(&quot;#filter-1&quot;); fill: rgba(208, 255, 254, 0.12);" cx="171.473" cy="247.519" rx="22.21" ry="29.612"/>
  <path d="M 123.893 138.749 C 142.652 138.749 160.391 142.881 176.161 150.239 C 176.028 151.152 175.959 152.09 175.959 153.047 C 175.959 153.38 175.967 153.711 175.984 154.039 L 166.897 159.59 L 176.343 156.899 C 176.615 158.239 177.025 159.516 177.555 160.708 L 172.883 169.597 L 176.571 165.676 L 181.345 169.85 L 178.127 164.022 L 178.909 163.19 C 180.864 166.157 183.655 168.332 186.87 169.233 L 185.863 176.212 L 188.212 169.53 C 188.864 169.637 189.529 169.692 190.206 169.692 C 191.639 169.692 193.022 169.445 194.327 168.985 L 195.797 173.592 L 196.038 168.238 C 199.898 166.212 202.847 162.236 203.965 157.383 L 206.705 161.197 L 204.371 154.845 C 204.425 154.254 204.453 153.654 204.453 153.047 C 204.453 150.432 203.937 147.958 203.017 145.756 L 205.609 143.174 L 207.912 146.114 L 206.638 142.148 L 274.361 74.668 L 214.064 178.171 C 218.966 183.605 223.333 189.488 227.088 195.745 L 20.707 195.745 C 41.13 161.703 79.687 138.749 123.893 138.749 Z" style="filter: url(&quot;#gaussian-blur-filter-3&quot;); fill: rgba(137, 51, 205, 0.247);"/>
</svg>