<?xml version="1.0" encoding="utf-8"?>
<svg xmlns="http://www.w3.org/2000/svg" viewBox="0 0 90 110" width="90px" height="110px">
  <g transform="matrix(1, 0, 0, 1, -96.619202, 1.730493)">
    <g transform="matrix(-0.64446, -0.764637, -0.764637, 0.64446, 52.086063, 34.762486)" style="transform-origin: 19.511px 42.718px;">
      <g transform="matrix(-0.406552, 0.913628, -0.913628, -0.406552, 13.990096, -23.154564)" style="transform-origin: 10.913px 69.1165px;">
        <rect x="8" y="56.022" width="5.826" height="13.838" style="stroke: rgb(0, 0, 0); fill: rgb(75, 44, 44);"/>
        <rect x="9.049" y="69.83" width="3.398" height="12.381" style="stroke: rgb(0, 0, 0); fill: rgb(75, 44, 44);"/>
      </g>
      <ellipse style="stroke: rgb(0, 0, 0); fill: rgb(251, 0, 0);" cx="16.095" cy="45.604" rx="3.364" ry="3.291" transform="matrix(0.39873, -0.917069, 0.917069, 0.39873, -32.589599, 38.174411)"/>
      <g transform="matrix(0.467976, -1.076333, 1.14567, 0.498122, -41.176537, 13.610889)" style="">
        <path d="M -2.243 39.665 L 1.747 49.483 C 1.218 49.421 0.676 49.386 0.128 49.386 C -2.531 49.386 -4.996 50.158 -7.042 51.474 L -2.243 39.665 Z" style="stroke: rgb(0, 0, 0); fill: rgb(167, 58, 58);"/>
        <path d="M -2.037 39.665 L 1.112 47.127 C 0.694 47.079 0.267 47.053 -0.166 47.053 C -2.264 47.053 -4.21 47.639 -5.824 48.64 L -2.037 39.665 Z" style="stroke: rgb(0, 0, 0); fill: rgb(167, 58, 58);"/>
        <path d="M -2.197 39.902 L -0.088 45.188 C -0.368 45.154 -0.654 45.136 -0.944 45.136 C -2.349 45.136 -3.653 45.551 -4.734 46.26 Z" style="stroke: rgb(0, 0, 0); fill: rgb(167, 58, 58);"/>
      </g>
    </g>
    <g transform="matrix(-0.922423, -0.38618, -0.38618, 0.922423, 50.644032, 18.323284)" style="transform-origin: 19.511px 42.718px;">
      <g transform="matrix(-0.406552, 0.913628, -0.913628, -0.406552, 13.990096, -23.154564)" style="transform-origin: 10.913px 69.1165px;">
        <rect x="8" y="56.022" width="5.826" height="13.838" style="stroke: rgb(0, 0, 0); fill: rgb(75, 44, 44);"/>
        <rect x="9.049" y="69.83" width="3.398" height="12.381" style="stroke: rgb(0, 0, 0); fill: rgb(75, 44, 44);"/>
      </g>
      <ellipse style="stroke: rgb(0, 0, 0); fill: rgb(251, 0, 0);" cx="16.095" cy="45.604" rx="3.364" ry="3.291" transform="matrix(0.39873, -0.917069, 0.917069, 0.39873, -32.589599, 38.174411)"/>
      <g transform="matrix(0.467976, -1.076333, 1.14567, 0.498122, -41.176537, 13.610889)" style="">
        <path d="M -2.243 39.665 L 1.747 49.483 C 1.218 49.421 0.676 49.386 0.128 49.386 C -2.531 49.386 -4.996 50.158 -7.042 51.474 L -2.243 39.665 Z" style="stroke: rgb(0, 0, 0); fill: rgb(167, 58, 58);"/>
        <path d="M -2.037 39.665 L 1.112 47.127 C 0.694 47.079 0.267 47.053 -0.166 47.053 C -2.264 47.053 -4.21 47.639 -5.824 48.64 L -2.037 39.665 Z" style="stroke: rgb(0, 0, 0); fill: rgb(167, 58, 58);"/>
        <path d="M -2.197 39.902 L -0.088 45.188 C -0.368 45.154 -0.654 45.136 -0.944 45.136 C -2.349 45.136 -3.653 45.551 -4.734 46.26 Z" style="stroke: rgb(0, 0, 0); fill: rgb(167, 58, 58);"/>
      </g>
    </g>
    <g transform="matrix(-1, 0, 0, 1, 91.108047, 0.153628)" style="">
      <g transform="matrix(-0.406552, 0.913628, -0.913628, -0.406552, 13.990096, -23.154564)" style="transform-origin: 10.913px 69.1165px;">
        <rect x="8" y="56.022" width="5.826" height="13.838" style="stroke: rgb(0, 0, 0); fill: rgb(75, 44, 44);"/>
        <rect x="9.049" y="69.83" width="3.398" height="12.381" style="stroke: rgb(0, 0, 0); fill: rgb(75, 44, 44);"/>
      </g>
      <ellipse style="stroke: rgb(0, 0, 0); fill: rgb(251, 0, 0);" cx="16.095" cy="45.604" rx="3.364" ry="3.291" transform="matrix(0.39873, -0.917069, 0.917069, 0.39873, -32.589599, 38.174411)"/>
      <g transform="matrix(0.467976, -1.076333, 1.14567, 0.498122, -41.176537, 13.610889)" style="">
        <path d="M -2.243 39.665 L 1.747 49.483 C 1.218 49.421 0.676 49.386 0.128 49.386 C -2.531 49.386 -4.996 50.158 -7.042 51.474 L -2.243 39.665 Z" style="stroke: rgb(0, 0, 0); fill: rgb(167, 58, 58);"/>
        <path d="M -2.037 39.665 L 1.112 47.127 C 0.694 47.079 0.267 47.053 -0.166 47.053 C -2.264 47.053 -4.21 47.639 -5.824 48.64 L -2.037 39.665 Z" style="stroke: rgb(0, 0, 0); fill: rgb(167, 58, 58);"/>
        <path d="M -2.197 39.902 L -0.088 45.188 C -0.368 45.154 -0.654 45.136 -0.944 45.136 C -2.349 45.136 -3.653 45.551 -4.734 46.26 Z" style="stroke: rgb(0, 0, 0); fill: rgb(167, 58, 58);"/>
      </g>
    </g>
    <g transform="matrix(0.64446, -0.764637, 0.764637, 0.64446, -0.00001, 34.608868)" style="transform-origin: 19.511px 42.718px;">
      <g transform="matrix(-0.406552, 0.913628, -0.913628, -0.406552, 13.990096, -23.154564)" style="transform-origin: 10.913px 69.1165px;">
        <rect x="8" y="56.022" width="5.826" height="13.838" style="stroke: rgb(0, 0, 0); fill: rgb(75, 44, 44);"/>
        <rect x="9.049" y="69.83" width="3.398" height="12.381" style="stroke: rgb(0, 0, 0); fill: rgb(75, 44, 44);"/>
      </g>
      <ellipse style="stroke: rgb(0, 0, 0); fill: rgb(251, 0, 0);" cx="16.095" cy="45.604" rx="3.364" ry="3.291" transform="matrix(0.39873, -0.917069, 0.917069, 0.39873, -32.589599, 38.174411)"/>
      <g transform="matrix(0.467976, -1.076333, 1.14567, 0.498122, -41.176537, 13.610889)" style="">
        <path d="M -2.243 39.665 L 1.747 49.483 C 1.218 49.421 0.676 49.386 0.128 49.386 C -2.531 49.386 -4.996 50.158 -7.042 51.474 L -2.243 39.665 Z" style="stroke: rgb(0, 0, 0); fill: rgb(167, 58, 58);"/>
        <path d="M -2.037 39.665 L 1.112 47.127 C 0.694 47.079 0.267 47.053 -0.166 47.053 C -2.264 47.053 -4.21 47.639 -5.824 48.64 L -2.037 39.665 Z" style="stroke: rgb(0, 0, 0); fill: rgb(167, 58, 58);"/>
        <path d="M -2.197 39.902 L -0.088 45.188 C -0.368 45.154 -0.654 45.136 -0.944 45.136 C -2.349 45.136 -3.653 45.551 -4.734 46.26 Z" style="stroke: rgb(0, 0, 0); fill: rgb(167, 58, 58);"/>
      </g>
    </g>
    <g transform="matrix(0.922423, -0.38618, 0.38618, 0.922423, 1.442034, 18.169643)" style="transform-origin: 19.5109px 42.7177px;">
      <g transform="matrix(-0.406552, 0.913628, -0.913628, -0.406552, 13.990096, -23.154564)" style="transform-origin: 10.913px 69.1165px;">
        <rect x="8" y="56.022" width="5.826" height="13.838" style="stroke: rgb(0, 0, 0); fill: rgb(75, 44, 44);"/>
        <rect x="9.049" y="69.83" width="3.398" height="12.381" style="stroke: rgb(0, 0, 0); fill: rgb(75, 44, 44);"/>
      </g>
      <ellipse style="stroke: rgb(0, 0, 0); fill: rgb(251, 0, 0);" cx="16.095" cy="45.604" rx="3.364" ry="3.291" transform="matrix(0.39873, -0.917069, 0.917069, 0.39873, -32.589599, 38.174411)"/>
      <g transform="matrix(0.467976, -1.076333, 1.14567, 0.498122, -41.176537, 13.610889)" style="">
        <path d="M -2.243 39.665 L 1.747 49.483 C 1.218 49.421 0.676 49.386 0.128 49.386 C -2.531 49.386 -4.996 50.158 -7.042 51.474 L -2.243 39.665 Z" style="stroke: rgb(0, 0, 0); fill: rgb(167, 58, 58);"/>
        <path d="M -2.037 39.665 L 1.112 47.127 C 0.694 47.079 0.267 47.053 -0.166 47.053 C -2.264 47.053 -4.21 47.639 -5.824 48.64 L -2.037 39.665 Z" style="stroke: rgb(0, 0, 0); fill: rgb(167, 58, 58);"/>
        <path d="M -2.197 39.902 L -0.088 45.188 C -0.368 45.154 -0.654 45.136 -0.944 45.136 C -2.349 45.136 -3.653 45.551 -4.734 46.26 Z" style="stroke: rgb(0, 0, 0); fill: rgb(167, 58, 58);"/>
      </g>
    </g>
    <g>
      <g transform="matrix(-0.406552, 0.913628, -0.913628, -0.406552, 13.990096, -23.154564)" style="transform-origin: 10.913px 69.1165px;">
        <rect x="8" y="56.022" width="5.826" height="13.838" style="stroke: rgb(0, 0, 0); fill: rgb(75, 44, 44);"/>
        <rect x="9.049" y="69.83" width="3.398" height="12.381" style="stroke: rgb(0, 0, 0); fill: rgb(75, 44, 44);"/>
      </g>
      <ellipse style="stroke: rgb(0, 0, 0); fill: rgb(251, 0, 0);" cx="16.095" cy="45.604" rx="3.364" ry="3.291" transform="matrix(0.39873, -0.917069, 0.917069, 0.39873, -32.589599, 38.174411)"/>
      <g transform="matrix(0.467976, -1.076333, 1.14567, 0.498122, -41.176537, 13.610889)" style="">
        <path d="M -2.243 39.665 L 1.747 49.483 C 1.218 49.421 0.676 49.386 0.128 49.386 C -2.531 49.386 -4.996 50.158 -7.042 51.474 L -2.243 39.665 Z" style="stroke: rgb(0, 0, 0); fill: rgb(167, 58, 58);"/>
        <path d="M -2.037 39.665 L 1.112 47.127 C 0.694 47.079 0.267 47.053 -0.166 47.053 C -2.264 47.053 -4.21 47.639 -5.824 48.64 L -2.037 39.665 Z" style="stroke: rgb(0, 0, 0); fill: rgb(167, 58, 58);"/>
        <path d="M -2.197 39.902 L -0.088 45.188 C -0.368 45.154 -0.654 45.136 -0.944 45.136 C -2.349 45.136 -3.653 45.551 -4.734 46.26 Z" style="stroke: rgb(0, 0, 0); fill: rgb(167, 58, 58);"/>
      </g>
    </g>
    <g transform="matrix(1, 0, 0, 1, 26.468504, 26.36574)">
      <rect x="8" y="56.022" width="5.826" height="13.838" style="stroke: rgb(0, 0, 0); fill: rgb(45, 34, 34);"/>
      <rect x="9.049" y="69.83" width="3.398" height="12.381" style="stroke: rgb(0, 0, 0); fill: rgb(45, 34, 34);"/>
    </g>
    <g transform="matrix(1, 0, 0, 1, 41.055363, 23.481354)">
      <rect x="8" y="56.022" width="5.826" height="13.838" style="stroke: rgb(0, 0, 0); fill: rgb(49, 36, 36);"/>
      <rect x="9.049" y="69.83" width="3.398" height="12.381" style="stroke: rgb(0, 0, 0); fill: rgb(49, 36, 36);"/>
    </g>
    <g transform="matrix(1, 0, 0, 1, 38.841339, -5.883731)">
      <rect x="15.525" y="11.568" width="4.127" height="13.352" style="stroke: rgb(0, 0, 0); fill: rgb(56, 42, 42);"/>
      <ellipse style="stroke: rgb(0, 0, 0); fill: rgb(56, 42, 42);" cx="17.104" cy="10.315" rx="4.006" ry="4.006"/>
    </g>
    <g transform="matrix(1, 0, 0, 1, 16.264673, -5.61237)">
      <rect x="15.525" y="11.568" width="4.127" height="13.352" style="stroke: rgb(0, 0, 0); fill: rgb(114, 92, 92);"/>
      <ellipse style="stroke: rgb(0, 0, 0); fill: rgb(114, 92, 92);" cx="17.104" cy="10.315" rx="4.006" ry="4.006"/>
    </g>
    <ellipse style="stroke: rgb(0, 0, 0); fill: rgb(114, 92, 92);" cx="44.661" cy="74.912" rx="15.412" ry="17.555"/>
    <g style="transform-origin: 44.262px 61.857px;" transform="matrix(0.760662, 0, 0, 0.720276, 0.085234, 20.967209)">
      <path d="M 53.165 55.153 L 53.165 55.213 C 51.916 56.361 51.053 58.823 51.053 61.676 C 51.053 64.529 51.916 66.991 53.165 68.139 L 53.165 68.56 L 35.359 68.56 L 35.359 68.328 C 36.695 67.25 37.635 64.698 37.635 61.721 C 37.635 58.779 36.718 56.251 35.405 55.153 L 53.165 55.153 Z" style="stroke: rgb(0, 0, 0); fill: rgb(15, 39, 156);"/>
      <rect x="39.731" y="57.718" width="1.004" height="7.74" style="stroke: rgb(0, 0, 0); stroke-width: 0.2px; fill: rgb(255, 42, 0);"/>
      <ellipse style="stroke: rgb(0, 0, 0); fill: rgb(255, 0, 0);" cx="40.174" cy="58.102" rx="0.975" ry="1.506"/>
      <rect x="48.358" y="57.6" width="1.004" height="7.74" style="stroke: rgb(0, 0, 0); stroke-width: 0.2px; fill: rgb(255, 42, 0);"/>
      <ellipse style="stroke: rgb(0, 0, 0); fill: rgb(255, 0, 0);" cx="48.919" cy="65.37" rx="0.975" ry="1.506"/>
      <ellipse style="stroke: rgb(0, 0, 0); fill: rgb(0, 234, 255);" cx="48.801" cy="59.241" rx="0.975" ry="1.506"/>
      <ellipse style="stroke: rgb(0, 0, 0); fill: rgb(0, 234, 255);" cx="40.226" cy="63.912" rx="0.975" ry="1.506"/>
      <rect x="43.649" y="57.777" width="1.804" height="7.525" style="stroke: rgb(0, 0, 0); stroke-width: 0.2px; fill: rgb(255, 156, 0);"/>
      <ellipse style="stroke: rgb(0, 0, 0); fill: rgb(255, 156, 0);" cx="44.428" cy="58.161" rx="0.975" ry="1.506"/>
      <ellipse style="stroke: rgb(0, 0, 0); fill: rgb(255, 156, 0);" cx="44.546" cy="65.429" rx="0.975" ry="1.506"/>
    </g>
    <ellipse style="fill: rgba(0, 0, 0, 0.557);" cx="44.617" cy="71.878" rx="14.753" ry="11.545"/>
    <ellipse style="stroke: rgb(0, 0, 0); fill: rgb(114, 92, 92);" cx="44.268" cy="58.138" rx="13.959" ry="18.401"/>
    <g style="transform-origin: 44.262px 61.8565px;" transform="matrix(0, 1, -1, 0, 0.340935, 1.185438)">
      <path d="M 53.165 55.153 L 53.165 55.213 C 51.916 56.361 51.053 58.823 51.053 61.676 C 51.053 64.529 51.916 66.991 53.165 68.139 L 53.165 68.56 L 35.359 68.56 L 35.359 68.328 C 36.695 67.25 37.635 64.698 37.635 61.721 C 37.635 58.779 36.718 56.251 35.405 55.153 L 53.165 55.153 Z" style="stroke: rgb(0, 0, 0); fill: rgb(15, 39, 156);"/>
      <rect x="39.731" y="57.718" width="1.004" height="7.74" style="stroke: rgb(0, 0, 0); stroke-width: 0.2px; fill: rgb(255, 42, 0);"/>
      <ellipse style="stroke: rgb(0, 0, 0); fill: rgb(255, 0, 0);" cx="40.174" cy="58.102" rx="0.975" ry="1.506"/>
      <rect x="48.358" y="57.6" width="1.004" height="7.74" style="stroke: rgb(0, 0, 0); stroke-width: 0.2px; fill: rgb(255, 42, 0);"/>
      <ellipse style="stroke: rgb(0, 0, 0); fill: rgb(255, 0, 0);" cx="48.919" cy="65.37" rx="0.975" ry="1.506"/>
      <ellipse style="stroke: rgb(0, 0, 0); fill: rgb(0, 234, 255);" cx="48.801" cy="59.241" rx="0.975" ry="1.506"/>
      <ellipse style="stroke: rgb(0, 0, 0); fill: rgb(0, 234, 255);" cx="40.226" cy="63.912" rx="0.975" ry="1.506"/>
      <rect x="43.649" y="57.777" width="1.804" height="7.525" style="stroke: rgb(0, 0, 0); stroke-width: 0.2px; fill: rgb(255, 156, 0);"/>
      <ellipse style="stroke: rgb(0, 0, 0); fill: rgb(255, 156, 0);" cx="44.428" cy="58.161" rx="0.975" ry="1.506"/>
      <ellipse style="stroke: rgb(0, 0, 0); fill: rgb(255, 156, 0);" cx="44.546" cy="65.429" rx="0.975" ry="1.506"/>
    </g>
    <ellipse style="fill: rgba(0, 0, 0, 0.557);" cx="44.395" cy="49.814" rx="11.767" ry="10.252"/>
    <path d="M 64.321 29.614 C 64.321 37.34 59.972 44.051 53.589 47.432 C 53.279 50.814 51.941 53.359 50.338 53.359 C 49.083 53.359 47.991 51.801 47.427 49.501 C 46.368 49.674 45.28 49.763 44.172 49.763 C 43.471 49.763 42.779 49.727 42.096 49.657 C 41.539 52.012 40.434 53.616 39.161 53.616 C 37.609 53.616 36.306 51.232 35.943 48.011 C 28.917 44.864 24.023 37.811 24.023 29.614 C 24.023 18.486 33.044 9.465 44.172 9.465 C 55.3 9.465 64.321 18.486 64.321 29.614 Z" style="stroke: rgb(0, 0, 0); fill: rgb(74, 54, 54);"/>
    <ellipse style="fill: rgb(114, 92, 92);" cx="46.116" cy="29.564" rx="17.754" ry="18.541"/>
    <ellipse style="stroke: rgb(0, 0, 0);" cx="38.952" cy="27.012" rx="4.005" ry="7.647"/>
    <ellipse style="fill: rgb(255, 0, 0); stroke: rgb(69, 50, 50);" cx="51.686" cy="27.622" rx="5.835" ry="9.248"/>
    <ellipse style="stroke: rgb(0, 0, 0); fill: rgb(255, 0, 0);" cx="36.913" cy="106.49" rx="4.292" ry="3.25"/>
    <ellipse style="stroke: rgb(0, 0, 0); fill: rgb(255, 0, 0);" cx="51.663" cy="104.032" rx="3.792" ry="2.542"/>
    <ellipse style="fill: rgb(255, 63, 63);" cx="51.444" cy="25.646" rx="4.414" ry="6.648"/>
    <ellipse style="fill: rgb(255, 113, 113);" cx="50.681" cy="23.427" rx="3.096" ry="3.944"/>
  </g>
  <g transform="matrix(-0.710445, 0.703753, 1.054217, 1.064241, 55.017124, 16.394777)" style="transform-origin: 10.913px 69.1165px;">
    <rect x="8" y="56.022" width="5.826" height="13.838" style="stroke: rgb(0, 0, 0); fill: rgb(75, 44, 44);"/>
    <rect x="9.049" y="69.83" width="3.398" height="12.381" style="stroke: rgb(0, 0, 0); fill: rgb(75, 44, 44);"/>
  </g>
  <ellipse style="stroke: rgb(0, 0, 0); fill: rgb(251, 0, 0);" cx="16.095" cy="45.604" rx="3.364" ry="3.291" transform="matrix(0.716433, -0.697656, -0.697656, -0.716433, 98.16228, 141.153033)"/>
  <g transform="matrix(0.840854, -0.818816, -0.871563, -0.895021, 124.174889, 140.484711)" style="">
    <path d="M -2.243 39.665 L 1.747 49.483 C 1.218 49.421 0.676 49.386 0.128 49.386 C -2.531 49.386 -4.996 50.158 -7.042 51.474 L -2.243 39.665 Z" style="stroke: rgb(0, 0, 0); fill: rgb(167, 58, 58);"/>
    <path d="M -2.037 39.665 L 1.112 47.127 C 0.694 47.079 0.267 47.053 -0.166 47.053 C -2.264 47.053 -4.21 47.639 -5.824 48.64 L -2.037 39.665 Z" style="stroke: rgb(0, 0, 0); fill: rgb(167, 58, 58);"/>
    <path d="M -2.197 39.902 L -0.088 45.188 C -0.368 45.154 -0.654 45.136 -0.944 45.136 C -2.349 45.136 -3.653 45.551 -4.734 46.26 Z" style="stroke: rgb(0, 0, 0); fill: rgb(167, 58, 58);"/>
  </g>
  <g transform="matrix(-0.751156, -0.660124, -0.660124, 0.751156, 51.201546, 23.802441)" style="transform-origin: 19.511px 42.718px;">
    <g transform="matrix(-0.406552, 0.913628, -0.913628, -0.406552, 13.990096, -23.154564)" style="transform-origin: 10.913px 69.1165px;">
      <rect x="8" y="56.022" width="5.826" height="13.838" style="stroke: rgb(0, 0, 0); fill: rgb(75, 44, 44);"/>
      <rect x="9.049" y="69.83" width="3.398" height="12.381" style="stroke: rgb(0, 0, 0); fill: rgb(75, 44, 44);"/>
    </g>
    <ellipse style="stroke: rgb(0, 0, 0); fill: rgb(251, 0, 0);" cx="16.095" cy="45.604" rx="3.364" ry="3.291" transform="matrix(0.39873, -0.917069, 0.917069, 0.39873, -32.589599, 38.174411)"/>
    <g transform="matrix(0.467976, -1.076333, 1.14567, 0.498122, -41.176537, 13.610889)" style="">
      <path d="M -2.243 39.665 L 1.747 49.483 C 1.218 49.421 0.676 49.386 0.128 49.386 C -2.531 49.386 -4.996 50.158 -7.042 51.474 L -2.243 39.665 Z" style="stroke: rgb(0, 0, 0); fill: rgb(167, 58, 58);"/>
      <path d="M -2.037 39.665 L 1.112 47.127 C 0.694 47.079 0.267 47.053 -0.166 47.053 C -2.264 47.053 -4.21 47.639 -5.824 48.64 L -2.037 39.665 Z" style="stroke: rgb(0, 0, 0); fill: rgb(167, 58, 58);"/>
      <path d="M -2.197 39.902 L -0.088 45.188 C -0.368 45.154 -0.654 45.136 -0.944 45.136 C -2.349 45.136 -3.653 45.551 -4.734 46.26 Z" style="stroke: rgb(0, 0, 0); fill: rgb(167, 58, 58);"/>
    </g>
  </g>
  <g transform="matrix(0.730754, 0.682641, 1.141928, -1.222412, 55.680519, -28.461767)" style="transform-origin: 10.913px 69.1165px;">
    <rect x="8" y="56.022" width="5.826" height="13.838" style="stroke: rgb(0, 0, 0); fill: rgb(75, 44, 44);"/>
    <rect x="9.049" y="69.83" width="3.398" height="12.381" style="stroke: rgb(0, 0, 0); fill: rgb(75, 44, 44);"/>
  </g>
  <ellipse style="stroke: rgb(0, 0, 0); fill: rgb(251, 0, 0);" cx="16.095" cy="45.604" rx="3.364" ry="3.291" transform="matrix(-0.724894, -0.688861, -0.688861, 0.724894, 122.507148, 4.617867)"/>
  <g transform="matrix(-0.850784, -0.808493, -0.860576, 0.90559, 120.831337, -21.349314)" style="">
    <path d="M -2.243 39.665 L 1.747 49.483 C 1.218 49.421 0.676 49.386 0.128 49.386 C -2.531 49.386 -4.996 50.158 -7.042 51.474 L -2.243 39.665 Z" style="stroke: rgb(0, 0, 0); fill: rgb(167, 58, 58);"/>
    <path d="M -2.037 39.665 L 1.112 47.127 C 0.694 47.079 0.267 47.053 -0.166 47.053 C -2.264 47.053 -4.21 47.639 -5.824 48.64 L -2.037 39.665 Z" style="stroke: rgb(0, 0, 0); fill: rgb(167, 58, 58);"/>
    <path d="M -2.197 39.902 L -0.088 45.188 C -0.368 45.154 -0.654 45.136 -0.944 45.136 C -2.349 45.136 -3.653 45.551 -4.734 46.26 Z" style="stroke: rgb(0, 0, 0); fill: rgb(167, 58, 58);"/>
  </g>
  <g transform="matrix(0.714865, 0.699263, -1.234136, 1.261672, 16.002844, 13.600296)" style="transform-origin: 10.913px 69.1165px;">
    <rect x="8" y="56.022" width="5.826" height="13.838" style="stroke: rgb(0, 0, 0); fill: rgb(75, 44, 44);"/>
    <rect x="9.049" y="69.83" width="3.398" height="12.381" style="stroke: rgb(0, 0, 0); fill: rgb(75, 44, 44);"/>
  </g>
  <ellipse style="stroke: rgb(0, 0, 0); fill: rgb(251, 0, 0);" cx="16.095" cy="45.604" rx="3.364" ry="3.291" transform="matrix(-0.720814, -0.693129, 0.693129, -0.720814, -7.409145, 141.059058)"/>
  <g transform="matrix(-0.845995, -0.813502, 0.865906, -0.900494, -33.42543, 140.554626)" style="">
    <path d="M -2.243 39.665 L 1.747 49.483 C 1.218 49.421 0.676 49.386 0.128 49.386 C -2.531 49.386 -4.996 50.158 -7.042 51.474 L -2.243 39.665 Z" style="stroke: rgb(0, 0, 0); fill: rgb(167, 58, 58);"/>
    <path d="M -2.037 39.665 L 1.112 47.127 C 0.694 47.079 0.267 47.053 -0.166 47.053 C -2.264 47.053 -4.21 47.639 -5.824 48.64 L -2.037 39.665 Z" style="stroke: rgb(0, 0, 0); fill: rgb(167, 58, 58);"/>
    <path d="M -2.197 39.902 L -0.088 45.188 C -0.368 45.154 -0.654 45.136 -0.944 45.136 C -2.349 45.136 -3.653 45.551 -4.734 46.26 Z" style="stroke: rgb(0, 0, 0); fill: rgb(167, 58, 58);"/>
  </g>
  <g transform="matrix(0.992583, -0.121568, 0.121568, 0.992583, -0.307347, 9.49845)" style="transform-origin: 19.5109px 42.7177px;">
    <g transform="matrix(-0.406552, 0.913628, -0.913628, -0.406552, 13.990096, -23.154564)" style="transform-origin: 10.913px 69.1165px;">
      <rect x="8" y="56.022" width="5.826" height="13.838" style="stroke: rgb(0, 0, 0); fill: rgb(75, 44, 44);"/>
      <rect x="9.049" y="69.83" width="3.398" height="12.381" style="stroke: rgb(0, 0, 0); fill: rgb(75, 44, 44);"/>
    </g>
    <ellipse style="stroke: rgb(0, 0, 0); fill: rgb(251, 0, 0);" cx="16.095" cy="45.604" rx="3.364" ry="3.291" transform="matrix(0.39873, -0.917069, 0.917069, 0.39873, -32.589599, 38.174411)"/>
    <g transform="matrix(0.467976, -1.076333, 1.14567, 0.498122, -41.176537, 13.610889)" style="">
      <path d="M -2.243 39.665 L 1.747 49.483 C 1.218 49.421 0.676 49.386 0.128 49.386 C -2.531 49.386 -4.996 50.158 -7.042 51.474 L -2.243 39.665 Z" style="stroke: rgb(0, 0, 0); fill: rgb(167, 58, 58);"/>
      <path d="M -2.037 39.665 L 1.112 47.127 C 0.694 47.079 0.267 47.053 -0.166 47.053 C -2.264 47.053 -4.21 47.639 -5.824 48.64 L -2.037 39.665 Z" style="stroke: rgb(0, 0, 0); fill: rgb(167, 58, 58);"/>
      <path d="M -2.197 39.902 L -0.088 45.188 C -0.368 45.154 -0.654 45.136 -0.944 45.136 C -2.349 45.136 -3.653 45.551 -4.734 46.26 Z" style="stroke: rgb(0, 0, 0); fill: rgb(167, 58, 58);"/>
    </g>
  </g>
  <g transform="matrix(-0.925212, 0.718942, -0.906924, -1.097973, 14.111294, -30.722328)" style="transform-origin: 10.913px 69.1165px;">
    <rect x="8" y="56.022" width="5.826" height="13.838" style="stroke: rgb(0, 0, 0); fill: rgb(75, 44, 44);"/>
    <rect x="9.049" y="69.83" width="3.398" height="12.381" style="stroke: rgb(0, 0, 0); fill: rgb(75, 44, 44);"/>
  </g>
  <ellipse style="stroke: rgb(0, 0, 0); fill: rgb(251, 0, 0);" cx="16.095" cy="45.604" rx="3.941" ry="3.96" transform="matrix(0.784212, -0.620492, 0.643505, 0.766004, -26.414244, 1.568687)"/>
  <g transform="matrix(1.078163, -0.853075, 0.967404, 1.15156, -30.680038, -33.995396)" style="">
    <path d="M -2.243 39.665 L 1.747 49.483 C 1.218 49.421 0.676 49.386 0.128 49.386 C -2.531 49.386 -4.996 50.158 -7.042 51.474 L -2.243 39.665 Z" style="stroke: rgb(0, 0, 0); fill: rgb(167, 58, 58);"/>
    <path d="M -2.037 39.665 L 1.112 47.127 C 0.694 47.079 0.267 47.053 -0.166 47.053 C -2.264 47.053 -4.21 47.639 -5.824 48.64 L -2.037 39.665 Z" style="stroke: rgb(0, 0, 0); fill: rgb(167, 58, 58);"/>
    <path d="M -2.197 39.902 L -0.088 45.188 C -0.368 45.154 -0.654 45.136 -0.944 45.136 C -2.349 45.136 -3.653 45.551 -4.734 46.26 Z" style="stroke: rgb(0, 0, 0); fill: rgb(167, 58, 58);"/>
  </g>
  <g transform="matrix(1, 0, 0, 1, 26.333952, 14.836202)">
    <rect x="8" y="56.022" width="5.826" height="13.838" style="stroke: rgb(0, 0, 0); fill: rgb(45, 34, 34);"/>
    <rect x="9.049" y="69.83" width="3.398" height="12.381" style="stroke: rgb(0, 0, 0); fill: rgb(45, 34, 34);"/>
  </g>
  <g transform="matrix(1, 0, 0, 1, 40.616096, 26.273348)">
    <rect x="8" y="56.022" width="5.826" height="13.838" style="stroke: rgb(0, 0, 0); fill: rgb(49, 36, 36);"/>
    <rect x="9.049" y="69.83" width="3.398" height="12.381" style="stroke: rgb(0, 0, 0); fill: rgb(49, 36, 36);"/>
  </g>
  <g transform="matrix(1, 0, 0, 1, 38.706787, -5.326302)">
    <rect x="15.525" y="11.568" width="4.127" height="13.352" style="stroke: rgb(0, 0, 0); fill: rgb(56, 42, 42);"/>
    <ellipse style="stroke: rgb(0, 0, 0); fill: rgb(144, 52, 52);" cx="17.104" cy="10.315" rx="4.006" ry="4.006"/>
  </g>
  <g transform="matrix(1, 0, 0, 1, 16.130121, -1.054941)">
    <rect x="15.525" y="11.568" width="4.127" height="13.352" style="stroke: rgb(0, 0, 0); fill: rgb(114, 92, 92);"/>
    <ellipse style="stroke: rgb(0, 0, 0); fill: rgb(114, 92, 92);" cx="17.104" cy="10.315" rx="4.006" ry="4.006"/>
  </g>
  <ellipse style="stroke: rgb(0, 0, 0); fill: rgb(114, 92, 92);" cx="44.526" cy="75.469" rx="15.412" ry="17.555"/>
  <g style="transform-origin: 44.262px 61.857px;" transform="matrix(0.760662, 0, 0, 0.720276, -0.049318, 21.524628)">
    <path d="M 53.165 55.153 L 53.165 55.213 C 51.916 56.361 51.053 58.823 51.053 61.676 C 51.053 64.529 51.916 66.991 53.165 68.139 L 53.165 68.56 L 35.359 68.56 L 35.359 68.328 C 36.695 67.25 37.635 64.698 37.635 61.721 C 37.635 58.779 36.718 56.251 35.405 55.153 L 53.165 55.153 Z" style="stroke: rgb(0, 0, 0); fill: rgb(15, 39, 156);"/>
    <rect x="39.731" y="57.718" width="1.004" height="7.74" style="stroke: rgb(0, 0, 0); stroke-width: 0.2px; fill: rgb(255, 42, 0);"/>
    <ellipse style="stroke: rgb(0, 0, 0); fill: rgb(255, 0, 0);" cx="40.174" cy="58.102" rx="0.975" ry="1.506"/>
    <rect x="48.358" y="57.6" width="1.004" height="7.74" style="stroke: rgb(0, 0, 0); stroke-width: 0.2px; fill: rgb(255, 42, 0);"/>
    <ellipse style="stroke: rgb(0, 0, 0); fill: rgb(255, 0, 0);" cx="48.919" cy="65.37" rx="0.975" ry="1.506"/>
    <ellipse style="stroke: rgb(0, 0, 0); fill: rgb(0, 234, 255);" cx="48.801" cy="59.241" rx="0.975" ry="1.506"/>
    <ellipse style="stroke: rgb(0, 0, 0); fill: rgb(0, 234, 255);" cx="40.226" cy="63.912" rx="0.975" ry="1.506"/>
    <rect x="43.649" y="57.777" width="1.804" height="7.525" style="stroke: rgb(0, 0, 0); stroke-width: 0.2px; fill: rgb(255, 156, 0);"/>
    <ellipse style="stroke: rgb(0, 0, 0); fill: rgb(255, 156, 0);" cx="44.428" cy="58.161" rx="0.975" ry="1.506"/>
    <ellipse style="stroke: rgb(0, 0, 0); fill: rgb(255, 156, 0);" cx="44.546" cy="65.429" rx="0.975" ry="1.506"/>
  </g>
  <ellipse style="fill: rgba(0, 0, 0, 0.557);" cx="44.482" cy="72.435" rx="14.753" ry="11.545"/>
  <ellipse style="stroke: rgb(0, 0, 0); fill: rgb(114, 92, 92);" cx="44.133" cy="58.695" rx="13.959" ry="18.401"/>
  <g style="transform-origin: 44.262px 61.8565px;" transform="matrix(0, 1, -1, 0, 0.206383, 1.742867)">
    <path d="M 53.165 55.153 L 53.165 55.213 C 51.916 56.361 51.053 58.823 51.053 61.676 C 51.053 64.529 51.916 66.991 53.165 68.139 L 53.165 68.56 L 35.359 68.56 L 35.359 68.328 C 36.695 67.25 37.635 64.698 37.635 61.721 C 37.635 58.779 36.718 56.251 35.405 55.153 L 53.165 55.153 Z" style="stroke: rgb(0, 0, 0); fill: rgb(15, 39, 156);"/>
    <rect x="39.731" y="57.718" width="1.004" height="7.74" style="stroke: rgb(0, 0, 0); stroke-width: 0.2px; fill: rgb(255, 42, 0);"/>
    <ellipse style="stroke: rgb(0, 0, 0); fill: rgb(255, 0, 0);" cx="40.174" cy="58.102" rx="0.975" ry="1.506"/>
    <rect x="48.358" y="57.6" width="1.004" height="7.74" style="stroke: rgb(0, 0, 0); stroke-width: 0.2px; fill: rgb(255, 42, 0);"/>
    <ellipse style="stroke: rgb(0, 0, 0); fill: rgb(255, 0, 0);" cx="48.919" cy="65.37" rx="0.975" ry="1.506"/>
    <ellipse style="stroke: rgb(0, 0, 0); fill: rgb(0, 234, 255);" cx="48.801" cy="59.241" rx="0.975" ry="1.506"/>
    <ellipse style="stroke: rgb(0, 0, 0); fill: rgb(0, 234, 255);" cx="40.226" cy="63.912" rx="0.975" ry="1.506"/>
    <rect x="43.649" y="57.777" width="1.804" height="7.525" style="stroke: rgb(0, 0, 0); stroke-width: 0.2px; fill: rgb(255, 156, 0);"/>
    <ellipse style="stroke: rgb(0, 0, 0); fill: rgb(255, 156, 0);" cx="44.428" cy="58.161" rx="0.975" ry="1.506"/>
    <ellipse style="stroke: rgb(0, 0, 0); fill: rgb(255, 156, 0);" cx="44.546" cy="65.429" rx="0.975" ry="1.506"/>
  </g>
  <ellipse style="fill: rgba(0, 0, 0, 0.557);" cx="44.26" cy="50.371" rx="11.767" ry="10.252"/>
  <path d="M 64.186 30.171 C 64.186 37.897 59.837 44.608 53.454 47.989 C 53.144 51.371 51.806 53.916 50.203 53.916 C 48.948 53.916 47.856 52.358 47.292 50.058 C 46.233 50.231 45.145 50.32 44.037 50.32 C 43.336 50.32 42.644 50.284 41.961 50.214 C 41.404 52.569 40.299 54.173 39.026 54.173 C 37.474 54.173 36.171 51.789 35.808 48.568 C 28.782 45.421 23.888 38.368 23.888 30.171 C 23.888 19.043 32.909 10.022 44.037 10.022 C 55.165 10.022 64.186 19.043 64.186 30.171 Z" style="stroke: rgb(0, 0, 0); fill: rgb(74, 54, 54); transform-box: fill-box; transform-origin: 50% 50%;" transform="matrix(0.994012, 0.109268, -0.109268, 0.994012, 0, 0.000001)"/>
  <ellipse style="fill: rgb(114, 92, 92);" cx="45.981" cy="30.121" rx="17.754" ry="18.541"/>
  <ellipse style="stroke: rgb(0, 0, 0);" cx="38.817" cy="27.569" rx="4.005" ry="7.647"/>
  <ellipse style="fill: rgb(255, 0, 0); stroke: rgb(69, 50, 50);" cx="51.551" cy="28.179" rx="5.835" ry="9.248"/>
  <ellipse style="stroke: rgb(0, 0, 0); fill: rgb(255, 0, 0);" cx="36.676" cy="98.617" rx="4.292" ry="3.25"/>
  <ellipse style="stroke: rgb(0, 0, 0); fill: rgb(255, 0, 0);" cx="51.223" cy="106.519" rx="3.792" ry="2.542"/>
  <ellipse style="fill: rgb(255, 63, 63);" cx="51.309" cy="26.203" rx="4.414" ry="6.648"/>
  <ellipse style="fill: rgb(255, 113, 113);" cx="50.546" cy="23.984" rx="3.096" ry="3.944"/>
  <ellipse style="fill: rgb(255, 0, 0); stroke: rgb(255, 255, 255);" cx="66.709" cy="4.999" rx="3.691" ry="1.384"/>
  <ellipse style="fill: rgb(255, 0, 0); stroke: rgb(255, 255, 255);" cx="44.709" cy="3.999" rx="3.691" ry="1.384"/>
</svg>