<?xml version="1.0" encoding="utf-8"?>
<svg xmlns="http://www.w3.org/2000/svg" viewBox="0 0 110 180" width="110px" height="180px" xmlns:bx="https://boxy-svg.com">
  <defs>
    <linearGradient gradientUnits="userSpaceOnUse" x1="33.017" y1="87.365" x2="33.017" y2="109.039" id="gradient-3" gradientTransform="matrix(1.395969, 0, 0, 1.566338, -2.707745, 4.691248)">
      <stop offset="0" style="stop-color: rgb(26.667% 64.706% 38.431%)"/>
      <stop offset="1" style="stop-color: rgb(0% 39.662% 15.739%)"/>
    </linearGradient>
    <linearGradient gradientUnits="userSpaceOnUse" x1="43.08" y1="89.367" x2="43.08" y2="109.039" id="gradient-0" gradientTransform="matrix(1.291839, 0, 0, 1.412954, 6.671949, 21.398651)">
      <stop offset="0" style="stop-color: rgb(8.6275% 32.549% 16.078%)"/>
      <stop offset="1" style="stop-color: rgb(0% 21.246% 5.8187%)"/>
    </linearGradient>
    <linearGradient gradientUnits="userSpaceOnUse" x1="23.073" y1="55.781" x2="23.073" y2="85.193" id="gradient-1" gradientTransform="matrix(1.881362, -0.012524, -0.012633, -1.865076, -20.973262, 220.691089)">
      <stop offset="0" style="stop-color: rgb(26.667% 64.706% 38.431%)"/>
      <stop offset="1" style="stop-color: rgb(0% 39.662% 15.739%)"/>
    </linearGradient>
    <linearGradient gradientUnits="userSpaceOnUse" x1="53.075" y1="55.911" x2="53.075" y2="84.96" id="gradient-2" gradientTransform="matrix(-1.552845, -0.003078, 0.003051, -1.566334, 157.601425, 225.507523)">
      <stop offset="0" style="stop-color: rgb(26.667% 64.706% 38.431%)"/>
      <stop offset="1" style="stop-color: rgb(0% 39.662% 15.739%)"/>
    </linearGradient>
    <linearGradient gradientUnits="userSpaceOnUse" x1="61.751" y1="4.64" x2="61.751" y2="26.708" id="gradient-4" gradientTransform="matrix(-1.180857, -1.017182, 1.008421, -1.191115, 145.01983, 107.198724)">
      <stop offset="0" style="stop-color: rgb(26.667% 64.706% 38.431%)"/>
      <stop offset="1" style="stop-color: rgb(0% 39.662% 15.739%)"/>
    </linearGradient>
    <linearGradient gradientUnits="userSpaceOnUse" x1="53.075" y1="55.911" x2="53.075" y2="84.96" id="gradient-7" gradientTransform="matrix(-1.552845, -0.003078, 0.003051, -1.566334, 158.601423, 225.507524)">
      <stop offset="0" style="stop-color: rgb(26.667% 64.706% 38.431%)"/>
      <stop offset="1" style="stop-color: rgb(0% 39.662% 15.739%)"/>
    </linearGradient>
    <linearGradient gradientUnits="userSpaceOnUse" x1="16.555" y1="5.154" x2="16.555" y2="27.222" id="gradient-8" gradientTransform="matrix(1.180857, -1.017182, 1.008421, 1.191115, -13.72669, 24.570521)">
      <stop offset="0" style="stop-color: rgb(26.667% 64.706% 38.431%)"/>
      <stop offset="1" style="stop-color: rgb(0% 39.662% 15.739%)"/>
    </linearGradient>
    <linearGradient gradientUnits="userSpaceOnUse" x1="43.08" y1="89.367" x2="43.08" y2="109.039" id="gradient-9" gradientTransform="matrix(1.552848, 0, 0, 1.412954, -6.018291, 21.398652)">
      <stop offset="0" style="stop-color: rgb(8.6275% 32.549% 16.078%)"/>
      <stop offset="1" style="stop-color: rgb(0% 21.246% 5.8187%)"/>
    </linearGradient>
    <linearGradient gradientUnits="userSpaceOnUse" x1="33.017" y1="87.365" x2="33.017" y2="109.039" id="gradient-10" gradientTransform="matrix(1.668197, 0, 0, 1.566338, -9.187714, 7.691248)">
      <stop offset="0" style="stop-color: rgb(26.667% 64.706% 38.431%)"/>
      <stop offset="1" style="stop-color: rgb(0% 39.662% 15.739%)"/>
    </linearGradient>
    <linearGradient gradientUnits="userSpaceOnUse" x1="23.073" y1="55.781" x2="23.073" y2="85.193" id="gradient-11" gradientTransform="matrix(1.552812, 0.010518, -0.010427, 1.566302, -5.28247, 4.451119)">
      <stop offset="0" style="stop-color: rgb(26.667% 64.706% 38.431%)"/>
      <stop offset="1" style="stop-color: rgb(0% 39.662% 15.739%)"/>
    </linearGradient>
    <linearGradient gradientUnits="userSpaceOnUse" x1="16.555" y1="5.154" x2="16.555" y2="27.222" id="gradient-12" gradientTransform="matrix(1.180857, -1.017182, 1.008421, 1.191115, -13.72669, 24.570521)">
      <stop offset="0" style="stop-color: rgb(26.667% 64.706% 38.431%)"/>
      <stop offset="1" style="stop-color: rgb(0% 39.662% 15.739%)"/>
    </linearGradient>
    <linearGradient gradientUnits="userSpaceOnUse" x1="53.075" y1="55.911" x2="53.075" y2="84.96" id="gradient-13" gradientTransform="matrix(-1.552845, -0.003078, 0.003051, -1.566334, 1.783813, 231.996528)">
      <stop offset="0" style="stop-color: rgb(26.667% 64.706% 38.431%)"/>
      <stop offset="1" style="stop-color: rgb(0% 39.662% 15.739%)"/>
    </linearGradient>
    <linearGradient gradientUnits="userSpaceOnUse" x1="16.555" y1="5.154" x2="16.555" y2="27.222" id="gradient-14" gradientTransform="matrix(1.180857, -1.017182, 1.008421, 1.191115, -13.72669, 24.570521)">
      <stop offset="0" style="stop-color: rgb(26.667% 64.706% 38.431%)"/>
      <stop offset="1" style="stop-color: rgb(0% 39.662% 15.739%)"/>
    </linearGradient>
    <linearGradient gradientUnits="userSpaceOnUse" x1="43.08" y1="89.367" x2="43.08" y2="109.039" id="gradient-15" gradientTransform="matrix(1.291839, 0, 0, 1.412954, -150.145663, 31.887656)">
      <stop offset="0" style="stop-color: rgb(8.6275% 32.549% 16.078%)"/>
      <stop offset="1" style="stop-color: rgb(0% 21.246% 5.8187%)"/>
    </linearGradient>
    <linearGradient gradientUnits="userSpaceOnUse" x1="33.017" y1="87.365" x2="33.017" y2="109.039" id="gradient-16" gradientTransform="matrix(1.668197, 0, 0, 1.566338, -166.005325, 11.180253)">
      <stop offset="0" style="stop-color: rgb(26.667% 64.706% 38.431%)"/>
      <stop offset="1" style="stop-color: rgb(0% 39.662% 15.739%)"/>
    </linearGradient>
    <linearGradient gradientUnits="userSpaceOnUse" x1="23.073" y1="55.781" x2="23.073" y2="85.193" id="gradient-17" gradientTransform="matrix(1.552812, 0.012261, -0.010426, 1.8259, -160.853399, -6.327778)">
      <stop offset="0" style="stop-color: rgb(26.667% 64.706% 38.431%)"/>
      <stop offset="1" style="stop-color: rgb(0% 39.662% 15.739%)"/>
    </linearGradient>
    <filter id="gaussian-blur-filter-0" bx:preset="gaussian-blur 1 5" color-interpolation-filters="sRGB" x="-50%" y="-50%" width="200%" height="200%">
      <feGaussianBlur stdDeviation="5 5" edgeMode="none"/>
    </filter>
    <filter id="filter-1" bx:preset="gaussian-blur 1 5" color-interpolation-filters="sRGB" x="-50%" y="-50%" width="200%" height="200%">
      <feGaussianBlur stdDeviation="5 5" edgeMode="none"/>
    </filter>
    <linearGradient gradientUnits="userSpaceOnUse" x1="23.33" y1="12.196" x2="23.33" y2="41.831" id="gradient-5">
      <stop offset="0" style="stop-color: rgb(0% 94.51% 100%)"/>
      <stop offset="1" style="stop-color: rgb(0% 54.823% 58.91%)"/>
    </linearGradient>
    <linearGradient gradientUnits="userSpaceOnUse" x1="11.743" y1="20.964" x2="11.743" y2="26.317" id="gradient-18">
      <stop offset="0" style="stop-color: rgb(0% 94.51% 100%)"/>
      <stop offset="1" style="stop-color: rgb(0% 54.823% 58.91%)"/>
    </linearGradient>
    <linearGradient gradientUnits="userSpaceOnUse" x1="7.587" y1="12.98" x2="7.587" y2="18.333" id="gradient-19">
      <stop offset="0" style="stop-color: rgb(0% 94.51% 100%)"/>
      <stop offset="1" style="stop-color: rgb(0% 54.823% 58.91%)"/>
    </linearGradient>
    <linearGradient gradientUnits="userSpaceOnUse" x1="9.353" y1="17.127" x2="9.353" y2="22.48" id="gradient-20">
      <stop offset="0" style="stop-color: rgb(0% 94.51% 100%)"/>
      <stop offset="1" style="stop-color: rgb(0% 54.823% 58.91%)"/>
    </linearGradient>
    <linearGradient gradientUnits="userSpaceOnUse" x1="16.131" y1="12.338" x2="16.131" y2="17.691" id="gradient-21">
      <stop offset="0" style="stop-color: rgb(0% 94.51% 100%)"/>
      <stop offset="1" style="stop-color: rgb(0% 54.823% 58.91%)"/>
    </linearGradient>
    <linearGradient gradientUnits="userSpaceOnUse" x1="13.621" y1="9.269" x2="13.621" y2="14.622" id="gradient-22">
      <stop offset="0" style="stop-color: rgb(0% 94.51% 100%)"/>
      <stop offset="1" style="stop-color: rgb(0% 54.823% 58.91%)"/>
    </linearGradient>
    <linearGradient gradientUnits="userSpaceOnUse" x1="23.525" y1="14.991" x2="23.525" y2="23.742" id="gradient-23">
      <stop offset="0" style="stop-color: rgb(0% 94.51% 100%)"/>
      <stop offset="1" style="stop-color: rgb(0% 54.823% 58.91%)"/>
    </linearGradient>
    <linearGradient gradientUnits="userSpaceOnUse" x1="23.33" y1="12.196" x2="23.33" y2="41.831" id="gradient-6">
      <stop offset="0" style="stop-color: rgb(0% 100% 89.02%)"/>
      <stop offset="1" style="stop-color: rgb(0% 57.871% 50.442%)"/>
    </linearGradient>
    <linearGradient gradientUnits="userSpaceOnUse" x1="11.743" y1="20.964" x2="11.743" y2="26.317" id="gradient-24">
      <stop offset="0" style="stop-color: rgb(0% 100% 89.02%)"/>
      <stop offset="1" style="stop-color: rgb(0% 57.871% 50.442%)"/>
    </linearGradient>
    <linearGradient gradientUnits="userSpaceOnUse" x1="7.587" y1="12.98" x2="7.587" y2="18.333" id="gradient-25">
      <stop offset="0" style="stop-color: rgb(0% 100% 89.02%)"/>
      <stop offset="1" style="stop-color: rgb(0% 57.871% 50.442%)"/>
    </linearGradient>
    <linearGradient gradientUnits="userSpaceOnUse" x1="9.353" y1="17.127" x2="9.353" y2="22.48" id="gradient-26">
      <stop offset="0" style="stop-color: rgb(0% 100% 89.02%)"/>
      <stop offset="1" style="stop-color: rgb(0% 57.871% 50.442%)"/>
    </linearGradient>
    <linearGradient gradientUnits="userSpaceOnUse" x1="16.131" y1="12.338" x2="16.131" y2="17.691" id="gradient-27">
      <stop offset="0" style="stop-color: rgb(0% 100% 89.02%)"/>
      <stop offset="1" style="stop-color: rgb(0% 57.871% 50.442%)"/>
    </linearGradient>
    <linearGradient gradientUnits="userSpaceOnUse" x1="13.621" y1="9.269" x2="13.621" y2="14.622" id="gradient-28">
      <stop offset="0" style="stop-color: rgb(0% 100% 89.02%)"/>
      <stop offset="1" style="stop-color: rgb(0% 57.871% 50.442%)"/>
    </linearGradient>
    <linearGradient gradientUnits="userSpaceOnUse" x1="23.525" y1="14.991" x2="23.525" y2="23.742" id="gradient-29">
      <stop offset="0" style="stop-color: rgb(0% 100% 89.02%)"/>
      <stop offset="1" style="stop-color: rgb(0% 57.871% 50.442%)"/>
    </linearGradient>
  </defs>
  <path stroke="rgb(255,0,0)" stroke-width="0" d="M 54.615 13.451 C 57.415 13.07 64.117 13.17 67.879 15.051 C 71.333 16.78 74.677 20.505 76.574 23.65 C 78.146 26.259 78.816 29.432 79.226 32.05 C 79.583 34.32 78.814 35.849 79.226 38.449 C 79.801 42.075 82.668 47.36 83.353 52.047 C 84.031 56.695 83.51 61.818 83.353 66.446 C 83.202 70.868 83.533 74.593 82.469 79.244 C 81.165 84.934 75.686 92.615 75.1 98.042 C 74.642 102.289 75.652 104.529 77.164 109.24 C 79.47 116.428 87.771 129.185 89.837 137.636 C 91.456 144.258 91.191 150.379 90.722 155.634 C 90.314 160.194 89.057 164.61 87.774 167.633 C 86.741 170.067 85.589 171.614 84.09 173.032 C 82.52 174.517 80.501 175.686 78.49 176.232 C 76.387 176.801 74.882 176.693 71.711 176.232 C 66.504 175.475 54.779 172.849 48.721 170.232 C 44.022 168.203 40.635 165.919 37.52 163.033 C 34.708 160.429 32.828 157.701 30.594 154.035 C 28.04 149.841 24.613 143.861 23.226 138.837 C 22.001 134.405 21.664 129.582 22.047 125.638 C 22.393 122.063 23.719 118.74 24.994 116.04 C 26.169 113.548 27.945 111.52 29.268 109.84 C 30.371 108.438 32.616 107.786 32.362 106.44 C 31.969 104.353 24.919 101.636 21.899 98.642 C 19.085 95.851 16.444 92.637 14.678 89.243 C 13.058 86.13 12.014 83.123 11.435 79.244 C 10.768 74.77 10.884 69.134 11.435 63.645 C 12.043 57.597 13.834 49.403 15.267 44.448 C 16.355 40.681 17.3 38.371 18.804 35.65 C 20.368 32.821 22.553 30.292 24.552 27.85 C 26.534 25.428 28.577 22.872 30.742 21.051 C 32.811 19.31 35.071 18.129 37.226 17.051 C 39.295 16.016 41.336 15.049 43.415 14.652 C 45.463 14.261 48.222 14.516 49.605 14.652 C 50.447 14.735 50.678 15.155 51.373 15.051 C 52.276 14.918 52.984 13.675 54.615 13.451 Z M 55.057 129.837 C 54.476 129.578 53.69 130.907 53.288 131.437 C 52.985 131.839 52.553 132.194 52.699 132.637 C 52.964 133.433 56.095 135.152 56.826 135.436 C 57.147 135.561 57.381 135.681 57.416 135.436 C 57.493 134.872 55.859 130.195 55.057 129.837 Z" style="stroke: rgb(129, 151, 57); stroke-width: 2px; fill: rgba(0, 213, 255, 0.514); filter: url(&quot;#filter-1&quot;);"/>
  <ellipse style="fill: rgba(0, 0, 0, 0.33);" cx="40.162" cy="170.243" rx="10.773" ry="2.435"/>
  <g style="transform-origin: 19.439px 23.408px;" transform="matrix(-0.979459, 0.201643, 0.201643, 0.979459, 65.528969, -4.510436)">
    <path d="M 12.964 12.196 L 35.218 38.481 L 31.329 41.831 L 19.962 28.404 C 15.263 22.017 12.119 16.524 11.443 13.506 L 12.964 12.196 Z" style="stroke-linejoin: round; stroke-linecap: round; transform-origin: 19.013px 13.154px; fill: url(&quot;#gradient-6&quot;); stroke: rgb(255, 255, 255);"/>
    <g transform="matrix(1.398026, -0.118815, 0.132642, 1.560712, 2.879616, 1.618607)" style="transform-origin: 11.8618px 17.6388px;">
      <path d="M 13.052 20.964 L 13.052 26.317 L 10.434 26.317 L 10.434 23.583 C 10.71 22.354 11.297 21.388 12.028 20.964 L 13.052 20.964 Z" style="stroke-linejoin: round; stroke-linecap: round; transform-box: fill-box; transform-origin: 50% 50%; stroke-width: 0.641198px; fill: url(&quot;#gradient-24&quot;); stroke: rgb(255, 255, 255);" transform="matrix(-0.570538, -0.821271, 0.821271, -0.570538, -0.000001, -0.000002)"/>
      <path d="M 8.896 12.98 L 8.896 18.333 L 6.278 18.333 L 6.278 15.599 C 6.554 14.37 7.141 13.404 7.872 12.98 L 8.896 12.98 Z" style="stroke-linejoin: round; stroke-linecap: round; transform-origin: 7.587px 15.657px; stroke-width: 0.641194px; fill: url(&quot;#gradient-25&quot;); stroke: rgb(255, 255, 255);" transform="matrix(-0.142092, -0.989853, 0.989853, -0.142092, -0.000002, 0)"/>
      <path d="M 10.662 17.127 L 10.662 22.48 L 8.044 22.48 L 8.044 19.746 C 8.32 18.517 8.907 17.551 9.638 17.127 L 10.662 17.127 Z" style="stroke-linejoin: round; stroke-linecap: round; transform-origin: 9.353px 19.804px; stroke-width: 0.641197px; fill: url(&quot;#gradient-26&quot;); stroke: rgb(255, 255, 255);" transform="matrix(-0.465849, -0.884864, 0.884864, -0.465849, 0.000001, 0)"/>
      <path d="M 17.44 17.691 L 17.44 12.338 L 14.822 12.338 L 14.822 15.072 C 15.098 16.301 15.685 17.267 16.416 17.691 L 17.44 17.691 Z" style="stroke-linejoin: round; stroke-linecap: round; transform-origin: 16.131px 15.014px; stroke-width: 0.641199px; fill: url(&quot;#gradient-27&quot;); stroke: rgb(255, 255, 255);" transform="matrix(-0.689551, -0.724237, 0.724237, -0.689551, 0.000001, 0)"/>
      <path d="M 14.93 14.622 L 14.93 9.269 L 12.312 9.269 L 12.312 12.003 C 12.588 13.232 13.175 14.198 13.906 14.622 L 14.93 14.622 Z" style="stroke-linejoin: round; stroke-linecap: round; transform-origin: 13.621px 11.945px; stroke-width: 0.641199px; fill: url(&quot;#gradient-28&quot;); stroke: rgb(255, 255, 255);" transform="matrix(-0.782727, -0.622365, 0.622365, -0.782727, -0.000002, -0.000002)"/>
    </g>
    <path d="M 25.94 14.991 L 19.92 20.772 L 22.723 23.742 L 25.798 20.789 C 26.885 19.149 27.343 17.44 27.037 16.152 L 25.94 14.991 Z" style="stroke-linejoin: round; stroke-linecap: round; transform-box: fill-box; transform-origin: 51.1931% 48.0057%; fill: url(&quot;#gradient-29&quot;); stroke: rgb(255, 255, 255);" transform="matrix(0.999209, -0.039768, 0.039768, 0.999209, 0, 0)"/>
  </g>
  <g style="transform-origin: 19.4387px 23.4077px;" transform="matrix(0.979459, 0.201643, -0.201643, 0.979459, 3.920627, -4.17384)">
    <path d="M 12.964 12.196 L 35.218 38.481 L 31.329 41.831 L 19.962 28.404 C 15.263 22.017 12.119 16.524 11.443 13.506 L 12.964 12.196 Z" style="stroke-linejoin: round; stroke-linecap: round; transform-origin: 19.013px 13.154px; fill: url(&quot;#gradient-5&quot;); stroke: rgb(255, 255, 255);"/>
    <g transform="matrix(1.398026, -0.118815, 0.132642, 1.560712, 2.879616, 1.618607)" style="transform-origin: 11.8618px 17.6388px;">
      <path d="M 13.052 20.964 L 13.052 26.317 L 10.434 26.317 L 10.434 23.583 C 10.71 22.354 11.297 21.388 12.028 20.964 L 13.052 20.964 Z" style="stroke-linejoin: round; stroke-linecap: round; transform-box: fill-box; transform-origin: 50% 50%; stroke-width: 0.641198px; fill: url(&quot;#gradient-18&quot;); stroke: rgb(255, 255, 255);" transform="matrix(-0.570538, -0.821271, 0.821271, -0.570538, -0.000001, -0.000002)"/>
      <path d="M 8.896 12.98 L 8.896 18.333 L 6.278 18.333 L 6.278 15.599 C 6.554 14.37 7.141 13.404 7.872 12.98 L 8.896 12.98 Z" style="stroke-linejoin: round; stroke-linecap: round; transform-origin: 7.587px 15.657px; stroke-width: 0.641194px; fill: url(&quot;#gradient-19&quot;); stroke: rgb(255, 255, 255);" transform="matrix(-0.142092, -0.989853, 0.989853, -0.142092, -0.000002, 0)"/>
      <path d="M 10.662 17.127 L 10.662 22.48 L 8.044 22.48 L 8.044 19.746 C 8.32 18.517 8.907 17.551 9.638 17.127 L 10.662 17.127 Z" style="stroke-linejoin: round; stroke-linecap: round; transform-origin: 9.353px 19.804px; stroke-width: 0.641197px; fill: url(&quot;#gradient-20&quot;); stroke: rgb(255, 255, 255);" transform="matrix(-0.465849, -0.884864, 0.884864, -0.465849, 0.000001, 0)"/>
      <path d="M 17.44 17.691 L 17.44 12.338 L 14.822 12.338 L 14.822 15.072 C 15.098 16.301 15.685 17.267 16.416 17.691 L 17.44 17.691 Z" style="stroke-linejoin: round; stroke-linecap: round; transform-origin: 16.131px 15.014px; stroke-width: 0.641199px; fill: url(&quot;#gradient-21&quot;); stroke: rgb(255, 255, 255);" transform="matrix(-0.689551, -0.724237, 0.724237, -0.689551, 0.000001, 0)"/>
      <path d="M 14.93 14.622 L 14.93 9.269 L 12.312 9.269 L 12.312 12.003 C 12.588 13.232 13.175 14.198 13.906 14.622 L 14.93 14.622 Z" style="stroke-linejoin: round; stroke-linecap: round; transform-origin: 13.621px 11.945px; stroke-width: 0.641199px; fill: url(&quot;#gradient-22&quot;); stroke: rgb(255, 255, 255);" transform="matrix(-0.782727, -0.622365, 0.622365, -0.782727, -0.000002, -0.000002)"/>
    </g>
    <path d="M 25.94 14.991 L 19.92 20.772 L 22.723 23.742 L 25.798 20.789 C 26.885 19.149 27.343 17.44 27.037 16.152 L 25.94 14.991 Z" style="stroke-linejoin: round; stroke-linecap: round; transform-box: fill-box; transform-origin: 51.1931% 48.0057%; fill: url(&quot;#gradient-23&quot;); stroke: rgb(255, 255, 255);" transform="matrix(0.999209, -0.039768, 0.039768, 0.999209, 0, 0)"/>
  </g>
  <rect x="55.166" y="147.67" width="14.315" height="27.796" style="stroke: rgb(0, 0, 0); fill: url(&quot;#gradient-0&quot;);"/>
  <rect x="35.649" y="141.534" width="15.469" height="33.949" style="stroke: rgb(0, 0, 0); fill: url(&quot;#gradient-3&quot;);"/>
  <path d="M 34.655 91.022 L 70.39 91.022 L 70.39 169.204 L 58.372 169.204 L 53.108 151.22 L 46.673 169.204 L 34.655 169.204 L 34.655 91.022 Z" style="stroke: rgb(0, 0, 0); fill: rgb(27, 66, 228);"/>
  <ellipse style="fill: rgb(21, 41, 124); transform-origin: 31.431px 66.892px;" cx="31.431" cy="66.892" rx="5.787" ry="8.414" transform="matrix(0.847741, 0.530411, -0.523842, 0.851851, 31.144848, 41.667129)"/>
  <ellipse style="fill: rgb(21, 41, 124);" cx="52.588" cy="102.887" rx="17.022" ry="9.841"/>
  <ellipse style="fill: rgb(21, 41, 124); transform-box: fill-box; transform-origin: 50% 50%;" cx="31.431" cy="66.892" rx="5.779" ry="8.426" transform="matrix(0.941432, -0.337203, 0.332067, 0.943272, 10.988193, 42.847125)"/>
  <path d="M 84.111 70.355 C 84.111 83.393 76.853 94.66 66.33 99.973 C 66.467 100.272 66.584 100.587 66.68 100.914 L 66.68 104.709 L 66.329 104.709 L 66.669 104.835 L 65.231 108.376 C 64.118 109.798 62.621 110.688 61.161 110.787 L 59.431 110.155 L 61.942 103.975 L 61.942 101.777 C 59.013 102.72 55.903 103.228 52.679 103.228 C 49.193 103.228 45.841 102.634 42.707 101.539 L 42.707 104.318 L 45.218 110.498 L 43.488 111.13 C 42.028 111.031 40.531 110.141 39.418 108.719 L 37.98 105.178 L 38.32 105.052 L 37.969 105.052 L 37.969 101.257 C 38.128 100.717 38.344 100.211 38.606 99.757 C 28.312 94.356 21.248 83.219 21.248 70.355 C 21.248 52.199 35.32 37.482 52.679 37.482 C 70.039 37.482 84.111 52.199 84.111 70.355 Z" style="stroke: rgb(0, 0, 0); fill: rgb(68, 165, 98);"/>
  <path d="M 27.244 21.011 C 30.113 16.584 36.197 13.104 43.808 11.576 L 53.563 11.576 L 53.563 11.56 L 64.192 11.56 C 71.8 13.089 77.885 16.569 80.756 20.996 L 80.756 23.552 L 80.801 23.552 L 80.801 49.869 L 27.188 49.869 L 27.188 23.552 L 27.244 23.552 L 27.244 21.011 Z" style="stroke: rgb(0, 0, 0); stroke-linejoin: round; stroke-linecap: round; fill: rgb(27, 66, 228);"/>
  <ellipse style="fill: rgb(85, 255, 136);" cx="59.217" cy="70.979" rx="24.277" ry="26.106"/>
  <ellipse style="" cx="66.428" cy="60.593" rx="10.646" ry="12.546"/>
  <ellipse style="" cx="41.139" cy="62.033" rx="10.646" ry="12.546"/>
  <path d="M 10.857 49.728 C 12.122 48.097 15.006 46.793 18.674 46.178 L 26.838 46.178 L 26.838 46.273 L 86.802 46.273 L 86.802 46.283 L 88.907 46.283 C 92.575 46.898 95.459 48.201 96.724 49.832 L 96.724 53.693 C 95.459 55.324 92.575 56.627 88.907 57.242 L 86.802 57.242 L 86.802 57.315 L 26.837 57.315 L 26.837 57.347 L 18.674 57.346 C 15.004 56.731 12.121 55.427 10.855 53.797 L 10.857 51.517 L 10.857 49.728 Z" style="stroke: rgb(0, 0, 0); stroke-linejoin: round; stroke-linecap: round; fill: rgb(27, 66, 228);"/>
  <ellipse style="fill: rgb(21, 41, 124);" cx="42.603" cy="47.427" rx="13.058" ry="7.669"/>
  <path d="M 78.916 25.783 L 78.916 27.987 L 78.947 27.987 L 78.947 50.67 L 70.596 50.67 L 70.596 18.675 C 74.377 20.242 77.345 22.755 78.916 25.783 Z" style="stroke-linejoin: round; stroke-linecap: round; fill: rgb(21, 41, 124);"/>
  <path d="M 27.189 43.088 L 38.013 43.29 L 38.013 43.376 L 69.675 43.376 L 69.675 43.278 L 80.499 43.075 L 80.522 45.477 C 79.679 47.215 77.739 48.627 75.262 49.322 L 69.733 49.425 L 69.73 49.167 L 37.957 49.167 L 37.957 49.173 L 37.663 49.167 L 34.791 49.167 L 34.791 49.114 L 32.429 49.068 C 29.95 48.401 28.011 47.049 27.168 45.386 L 27.189 43.088 Z" style="stroke: rgb(0, 0, 0); stroke-linejoin: round; stroke-linecap: round; fill: rgb(255, 156, 0);"/>
  <path style="stroke-miterlimit: 4.63; stroke-width: 7.48475px; fill: rgb(21, 41, 124);" transform="matrix(0.100277, 0, 0, 0.106717, 6.56373, -5.304344)" d="M 464.356 181 L 485.644 181 L 490.136 213.513 A 56.55 56.55 0 0 1 502.825 218.769 L 528.992 198.955 L 544.045 214.008 L 524.231 240.175 A 56.55 56.55 0 0 1 529.487 252.864 L 562 257.356 L 562 278.644 L 529.487 283.136 A 56.55 56.55 0 0 1 524.231 295.825 L 544.045 321.992 L 528.992 337.045 L 502.825 317.231 A 56.55 56.55 0 0 1 490.136 322.487 L 485.644 355 L 464.356 355 L 459.864 322.487 A 56.55 56.55 0 0 1 447.175 317.231 L 421.008 337.045 L 405.955 321.992 L 425.769 295.825 A 56.55 56.55 0 0 1 420.513 283.136 L 388 278.644 L 388 257.356 L 420.513 252.864 A 56.55 56.55 0 0 1 425.769 240.175 L 405.955 214.008 L 421.008 198.955 L 447.175 218.769 A 56.55 56.55 0 0 1 459.864 213.513 Z M 475 241.9 A 26.1 26.1 0 0 0 475 294.1 A 26.1 26.1 0 0 0 475 241.9" bx:shape="cog 475 268 26.1 56.55 87 0.38 8 1@36eb139e"/>
  <ellipse style="stroke: rgb(0, 0, 0); fill: rgb(255, 156, 0);" cx="42.581" cy="43.652" rx="11.069" ry="9.299"/>
  <ellipse style="stroke: rgb(0, 0, 0); fill: rgb(149, 149, 149);" cx="42.432" cy="43.246" rx="7.479" ry="5.501"/>
  <path style="stroke: rgb(0, 0, 0); stroke-miterlimit: 4.63; stroke-width: 7.48475px; fill: rgb(255, 156, 0);" transform="matrix(0.100277, 0, 0, 0.082037, 6.56373, 0.162735)" d="M 464.356 181 L 485.644 181 L 490.136 213.513 A 56.55 56.55 0 0 1 502.825 218.769 L 528.992 198.955 L 544.045 214.008 L 524.231 240.175 A 56.55 56.55 0 0 1 529.487 252.864 L 562 257.356 L 562 278.644 L 529.487 283.136 A 56.55 56.55 0 0 1 524.231 295.825 L 544.045 321.992 L 528.992 337.045 L 502.825 317.231 A 56.55 56.55 0 0 1 490.136 322.487 L 485.644 355 L 464.356 355 L 459.864 322.487 A 56.55 56.55 0 0 1 447.175 317.231 L 421.008 337.045 L 405.955 321.992 L 425.769 295.825 A 56.55 56.55 0 0 1 420.513 283.136 L 388 278.644 L 388 257.356 L 420.513 252.864 A 56.55 56.55 0 0 1 425.769 240.175 L 405.955 214.008 L 421.008 198.955 L 447.175 218.769 A 56.55 56.55 0 0 1 459.864 213.513 Z M 475 241.9 A 26.1 26.1 0 0 0 475 294.1 A 26.1 26.1 0 0 0 475 241.9" bx:shape="cog 475 268 26.1 56.55 87 0.38 8 1@36eb139e"/>
  <rect x="35.326" y="139.435" width="35.031" height="5.42" style="fill: rgb(21, 41, 124);"/>
  <rect x="34.626" y="136.018" width="35.624" height="4.61" style="stroke: rgb(0, 0, 0); fill: rgb(255, 156, 0);"/>
  <path d="M 28.301 105.015 L 28.108 76.271 L 28.154 76.271 L 28.054 61.466 L 22.876 61.501 C 19.179 62.695 16.23 65.388 14.855 68.793 L 14.907 76.359 L 14.95 76.359 L 15.114 100.725 L 14.927 100.725 L 15.033 116.411 L 23.673 105.046 L 28.301 105.015 Z" style="stroke: rgb(0, 0, 0); fill: url(&quot;#gradient-1&quot;); transform-box: fill-box; transform-origin: 55.445% 50.0644%;" transform="matrix(0.739665, -0.672975, 0.672975, 0.739665, -0.000004, -0.000005)"/>
  <path d="M 53.108 -144.269 L 60.073 -139.903 L 57.412 -132.838 L 48.804 -132.838 L 46.143 -139.903 Z" bx:shape="n-gon 53.108 -137.95 7.323 6.319 5 0 1@2da60bbc" style="stroke: rgb(0, 0, 0); fill: rgb(119, 77, 10);" transform="matrix(1, 0, 0, -1, 0, 0)"/>
  <path d="M 53.378 -142.696 L 55.673 -139.216 L 54.796 -133.586 L 51.96 -133.586 L 51.083 -139.216 Z" bx:shape="n-gon 53.378 -137.66 2.413 5.036 5 0 1@eee71780" style="stroke: rgb(0, 0, 0); fill: rgb(0, 234, 255);" transform="matrix(1, 0, 0, -1, 0, 0)"/>
  <ellipse style="fill: rgb(96, 96, 96);" cx="44.409" cy="42.97" rx="4.78" ry="4.472"/>
  <path d="M -50.556 74.695 L -50.556 62.409 L -57.981 62.409 L -57.981 68.685 C -57.198 71.505 -55.536 73.722 -53.459 74.695 L -50.556 74.695 Z" style="fill: rgb(216, 216, 216); stroke: rgb(0, 0, 0); stroke-linejoin: round; stroke-linecap: round; transform-origin: -54.269px 68.552px;"/>
  <g transform="matrix(1, 0, 0, 1, 117.450592, 0.424009)">
    <path d="M 97.089 10.899 L 74.835 37.185 L 78.724 40.535 L 90.091 27.108 C 94.79 20.721 97.934 15.227 98.61 12.21 L 97.089 10.899 Z" style="stroke: rgb(0, 0, 0); stroke-linejoin: round; stroke-linecap: round; transform-origin: 59.785px 12.149px; fill: url(&quot;#gradient-4&quot;);"/>
    <path d="M 99.169 29.708 L 92.342 24.924 L 90.023 28.292 L 93.509 30.735 C 95.321 31.478 97.073 31.586 98.261 31.025 L 99.169 29.708 Z" style="stroke: rgb(0, 0, 0); stroke-linejoin: round; stroke-linecap: round; fill: rgb(0, 255, 198); stroke-width: 0.641198px; transform-origin: 11.743px 23.641px;"/>
    <path d="M 105.765 15.234 L 97.537 14.043 L 96.959 18.102 L 101.162 18.71 C 103.112 18.556 104.726 17.861 105.539 16.822 L 105.765 15.234 Z" style="stroke: rgb(0, 0, 0); stroke-linejoin: round; stroke-linecap: round; fill: rgb(0, 255, 198); stroke-width: 0.641194px; transform-box: fill-box; transform-origin: 52.9501% 48.6225%;" transform="matrix(0.990302, 0.138934, -0.138934, 0.990302, 0, -0.000001)"/>
    <path d="M 102.932 22.13 L 95.577 18.224 L 93.683 21.852 L 97.44 23.847 C 99.328 24.361 101.08 24.253 102.191 23.549 L 102.932 22.13 Z" style="stroke: rgb(0, 0, 0); stroke-linejoin: round; stroke-linecap: round; fill: rgb(0, 255, 198); stroke-width: 0.641197px; transform-origin: 9.353px 18.804px;"/>
    <path d="M 86.173 11.112 L 92.193 16.893 L 89.39 19.863 L 86.315 16.91 C 85.228 15.27 84.77 13.56 85.076 12.273 L 86.173 11.112 Z" style="stroke: rgb(0, 0, 0); stroke-linejoin: round; stroke-linecap: round; fill: rgb(0, 255, 198); stroke-width: 0.641199px; transform-origin: 16.131px 15.014px;"/>
    <path d="M 90.683 6.123 L 95.857 12.685 L 92.675 15.238 L 90.032 11.886 C 89.18 10.11 88.96 8.353 89.439 7.121 L 90.683 6.123 Z" style="stroke: rgb(0, 0, 0); stroke-linejoin: round; stroke-linecap: round; fill: rgb(0, 255, 198); stroke-width: 0.641199px; transform-origin: 13.621px 11.945px;"/>
    <path d="M 82.318 15.849 L 88.338 21.63 L 85.534 24.6 L 82.46 21.647 C 81.373 20.007 80.915 18.297 81.221 17.01 L 82.318 15.849 Z" style="stroke: rgb(0, 0, 0); stroke-linejoin: round; stroke-linecap: round; fill: rgb(0, 255, 198); transform-box: fill-box; transform-origin: 42.4502% 51.0687%;" transform="matrix(0.998276, -0.058696, 0.058696, 0.998276, 0, 0)"/>
    <path d="M 71.439 101.636 L 71.393 125.477 L 71.357 125.477 L 71.333 137.759 L 75.215 137.767 C 77.996 136.801 80.226 134.589 81.28 131.772 L 81.292 125.497 L 81.259 125.497 L 81.299 105.288 L 81.438 105.288 L 81.464 92.278 L 74.91 101.643 L 71.439 101.636 Z" style="stroke: rgb(0, 0, 0); transform-origin: 53.075px 70.436px; fill: url(&quot;#gradient-7&quot;);"/>
    <path d="M 12.964 12.196 L 35.218 38.481 L 31.329 41.831 L 19.962 28.404 C 15.263 22.017 12.119 16.524 11.443 13.506 L 12.964 12.196 Z" style="stroke: rgb(0, 0, 0); stroke-linejoin: round; stroke-linecap: round; transform-origin: 19.013px 13.154px; fill: url(&quot;#gradient-8&quot;);"/>
    <g transform="matrix(1.398026, -0.118815, 0.132642, 1.560712, 2.879618, 1.618607)" style="transform-origin: 11.8618px 17.6388px;">
      <path d="M 13.052 20.964 L 13.052 26.317 L 10.434 26.317 L 10.434 23.583 C 10.71 22.354 11.297 21.388 12.028 20.964 L 13.052 20.964 Z" style="stroke: rgb(0, 0, 0); stroke-linejoin: round; stroke-linecap: round; fill: rgb(0, 255, 198); transform-box: fill-box; transform-origin: 50% 50%; stroke-width: 0.641198px;" transform="matrix(-0.570538, -0.821271, 0.821271, -0.570538, -0.000001, -0.000002)"/>
      <path d="M 8.896 12.98 L 8.896 18.333 L 6.278 18.333 L 6.278 15.599 C 6.554 14.37 7.141 13.404 7.872 12.98 L 8.896 12.98 Z" style="stroke: rgb(0, 0, 0); stroke-linejoin: round; stroke-linecap: round; fill: rgb(0, 255, 198); transform-origin: 7.587px 15.657px; stroke-width: 0.641194px;" transform="matrix(-0.142092, -0.989853, 0.989853, -0.142092, -0.000002, 0)"/>
      <path d="M 10.662 17.127 L 10.662 22.48 L 8.044 22.48 L 8.044 19.746 C 8.32 18.517 8.907 17.551 9.638 17.127 L 10.662 17.127 Z" style="stroke: rgb(0, 0, 0); stroke-linejoin: round; stroke-linecap: round; fill: rgb(0, 255, 198); transform-origin: 9.353px 19.804px; stroke-width: 0.641197px;" transform="matrix(-0.465849, -0.884864, 0.884864, -0.465849, 0.000001, 0)"/>
      <path d="M 17.44 17.691 L 17.44 12.338 L 14.822 12.338 L 14.822 15.072 C 15.098 16.301 15.685 17.267 16.416 17.691 L 17.44 17.691 Z" style="stroke: rgb(0, 0, 0); stroke-linejoin: round; stroke-linecap: round; fill: rgb(0, 255, 198); transform-origin: 16.131px 15.014px; stroke-width: 0.641199px;" transform="matrix(-0.689551, -0.724237, 0.724237, -0.689551, 0.000001, 0)"/>
      <path d="M 14.93 14.622 L 14.93 9.269 L 12.312 9.269 L 12.312 12.003 C 12.588 13.232 13.175 14.198 13.906 14.622 L 14.93 14.622 Z" style="stroke: rgb(0, 0, 0); stroke-linejoin: round; stroke-linecap: round; fill: rgb(0, 255, 198); transform-origin: 13.621px 11.945px; stroke-width: 0.641199px;" transform="matrix(-0.782727, -0.622365, 0.622365, -0.782727, -0.000002, -0.000002)"/>
    </g>
    <path d="M 25.94 14.991 L 19.92 20.772 L 22.723 23.742 L 25.798 20.789 C 26.885 19.149 27.343 17.44 27.037 16.152 L 25.94 14.991 Z" style="stroke: rgb(0, 0, 0); stroke-linejoin: round; stroke-linecap: round; fill: rgb(0, 255, 198); transform-box: fill-box; transform-origin: 51.1931% 48.0057%;" transform="matrix(0.999209, -0.039768, 0.039768, 0.999209, 0, 0)"/>
    <rect x="52.274" y="147.67" width="17.207" height="27.796" style="stroke: rgb(0, 0, 0); fill: url(&quot;#gradient-9&quot;);"/>
    <rect x="36.649" y="144.534" width="18.485" height="33.949" style="stroke: rgb(0, 0, 0); fill: url(&quot;#gradient-10&quot;);"/>
    <path d="M 35.388 101.597 L 35.228 125.736 L 35.266 125.736 L 35.184 138.169 L 30.91 138.14 C 27.858 137.137 25.424 134.876 24.289 132.015 L 24.332 125.662 L 24.367 125.662 L 24.503 105.2 L 24.348 105.199 L 24.436 92.026 L 31.568 101.571 L 35.388 101.597 Z" style="stroke: rgb(0, 0, 0); transform-origin: 23.073px 70.487px; fill: url(&quot;#gradient-11&quot;);"/>
    <path d="M 35.655 91.022 L 71.39 91.022 L 71.39 169.204 L 59.372 169.204 L 54.108 151.22 L 47.673 169.204 L 35.655 169.204 L 35.655 91.022 Z" style="stroke: rgb(0, 0, 0); fill: rgb(27, 66, 228);"/>
    <ellipse style="fill: rgb(21, 41, 124); transform-origin: 31.431px 66.892px;" cx="31.431" cy="66.892" rx="5.787" ry="8.414" transform="matrix(0.847741, 0.530411, -0.523842, 0.851851, 32.144806, 41.667008)"/>
    <ellipse style="fill: rgb(21, 41, 124);" cx="53.588" cy="102.887" rx="17.022" ry="9.841"/>
    <ellipse style="fill: rgb(21, 41, 124); transform-box: fill-box; transform-origin: 50% 50%;" cx="31.431" cy="66.892" rx="5.779" ry="8.426" transform="matrix(0.941432, -0.337203, 0.332067, 0.943272, 11.988114, 42.846988)"/>
    <path d="M 85.111 70.355 C 85.111 83.393 77.853 94.66 67.33 99.973 C 67.467 100.272 67.584 100.587 67.68 100.914 L 67.68 104.709 L 67.329 104.709 L 67.669 104.835 L 66.231 108.376 C 65.118 109.798 63.621 110.688 62.161 110.787 L 60.431 110.155 L 62.942 103.975 L 62.942 101.777 C 60.013 102.72 56.903 103.228 53.679 103.228 C 50.193 103.228 46.841 102.634 43.707 101.539 L 43.707 104.318 L 46.218 110.498 L 44.488 111.13 C 43.028 111.031 41.531 110.141 40.418 108.719 L 38.98 105.178 L 39.32 105.052 L 38.969 105.052 L 38.969 101.257 C 39.128 100.717 39.344 100.211 39.606 99.757 C 29.312 94.356 22.248 83.219 22.248 70.355 C 22.248 52.199 36.32 37.482 53.679 37.482 C 71.039 37.482 85.111 52.199 85.111 70.355 Z" style="stroke: rgb(0, 0, 0); fill: rgb(68, 165, 98);"/>
    <path d="M 28.244 14.197 C 31.113 9.185 37.197 5.245 44.808 3.515 L 54.563 3.515 L 54.563 3.497 L 65.192 3.497 C 72.8 5.228 78.885 9.168 81.756 14.18 L 81.756 17.074 L 81.801 17.074 L 81.801 46.869 L 28.188 46.869 L 28.188 17.074 L 28.244 17.074 L 28.244 14.197 Z" style="stroke: rgb(0, 0, 0); stroke-linejoin: round; stroke-linecap: round; fill: rgb(27, 66, 228);"/>
    <ellipse style="fill: rgb(36, 79, 49);" cx="60.217" cy="69.146" rx="24.277" ry="27.939"/>
    <ellipse style="" cx="67.428" cy="65.593" rx="10.646" ry="12.546"/>
    <ellipse style="" cx="41.134" cy="66.687" rx="10.646" ry="12.546"/>
    <path d="M 11.857 49.006 C 13.122 46.788 16.006 45.015 19.674 44.178 L 27.838 44.178 L 27.838 44.307 L 87.802 44.307 L 87.802 44.321 L 89.907 44.321 C 93.575 45.157 96.459 46.93 97.724 49.148 L 97.724 54.399 C 96.459 56.617 93.575 58.39 89.907 59.226 L 87.802 59.226 L 87.802 59.325 L 27.837 59.325 L 27.837 59.369 L 19.674 59.367 C 16.004 58.531 13.121 56.758 11.855 54.54 L 11.857 51.44 L 11.857 49.006 Z" style="stroke: rgb(0, 0, 0); stroke-linejoin: round; stroke-linecap: round; fill: rgb(27, 66, 228);"/>
    <ellipse style="fill: rgb(21, 41, 124);" cx="43.603" cy="49.173" rx="13.058" ry="9.415"/>
    <ellipse style="fill: rgb(21, 41, 124);" cx="68.445" cy="49.197" rx="14.932" ry="9.108"/>
    <path d="M 79.916 16.944 L 79.916 19.665 L 79.947 19.665 L 79.947 47.67 L 71.596 47.67 L 71.596 8.168 C 75.377 10.103 78.345 13.206 79.916 16.944 Z" style="stroke-linejoin: round; stroke-linecap: round; fill: rgb(21, 41, 124);"/>
    <path d="M 28.189 41.088 L 39.013 41.29 L 39.013 41.376 L 70.675 41.376 L 70.675 41.278 L 81.499 41.075 L 81.522 43.477 C 80.679 45.215 78.739 46.627 76.262 47.322 L 70.733 47.425 L 70.73 47.167 L 38.957 47.167 L 38.957 47.173 L 38.663 47.167 L 35.791 47.167 L 35.791 47.114 L 33.429 47.068 C 30.95 46.401 29.011 45.049 28.168 43.386 L 28.189 41.088 Z" style="stroke: rgb(0, 0, 0); stroke-linejoin: round; stroke-linecap: round; fill: rgb(255, 156, 0);"/>
    <path style="stroke-miterlimit: 4.63; stroke-width: 7.48475px; fill: rgb(21, 41, 124);" transform="matrix(0.100277, 0, 0, 0.140829, 7.56373, -12.478621)" d="M 464.356 181 L 485.644 181 L 490.136 213.513 A 56.55 56.55 0 0 1 502.825 218.769 L 528.992 198.955 L 544.045 214.008 L 524.231 240.175 A 56.55 56.55 0 0 1 529.487 252.864 L 562 257.356 L 562 278.644 L 529.487 283.136 A 56.55 56.55 0 0 1 524.231 295.825 L 544.045 321.992 L 528.992 337.045 L 502.825 317.231 A 56.55 56.55 0 0 1 490.136 322.487 L 485.644 355 L 464.356 355 L 459.864 322.487 A 56.55 56.55 0 0 1 447.175 317.231 L 421.008 337.045 L 405.955 321.992 L 425.769 295.825 A 56.55 56.55 0 0 1 420.513 283.136 L 388 278.644 L 388 257.356 L 420.513 252.864 A 56.55 56.55 0 0 1 425.769 240.175 L 405.955 214.008 L 421.008 198.955 L 447.175 218.769 A 56.55 56.55 0 0 1 459.864 213.513 Z M 475 241.9 A 26.1 26.1 0 0 0 475 294.1 A 26.1 26.1 0 0 0 475 241.9" bx:shape="cog 475 268 26.1 56.55 87 0.38 8 1@36eb139e"/>
    <ellipse style="stroke: rgb(0, 0, 0); fill: rgb(255, 156, 0);" cx="43.581" cy="46.008" rx="11.069" ry="11.655"/>
    <ellipse style="stroke: rgb(0, 0, 0); fill: rgb(149, 149, 149);" cx="43.432" cy="46.039" rx="7.479" ry="8.294"/>
    <path style="stroke: rgb(0, 0, 0); stroke-miterlimit: 4.63; stroke-width: 7.48475px; fill: rgb(255, 156, 0);" transform="matrix(0.100277, 0, 0, 0.108123, 7.56373, -8.558771)" d="M 464.356 181 L 485.644 181 L 490.136 213.513 A 56.55 56.55 0 0 1 502.825 218.769 L 528.992 198.955 L 544.045 214.008 L 524.231 240.175 A 56.55 56.55 0 0 1 529.487 252.864 L 562 257.356 L 562 278.644 L 529.487 283.136 A 56.55 56.55 0 0 1 524.231 295.825 L 544.045 321.992 L 528.992 337.045 L 502.825 317.231 A 56.55 56.55 0 0 1 490.136 322.487 L 485.644 355 L 464.356 355 L 459.864 322.487 A 56.55 56.55 0 0 1 447.175 317.231 L 421.008 337.045 L 405.955 321.992 L 425.769 295.825 A 56.55 56.55 0 0 1 420.513 283.136 L 388 278.644 L 388 257.356 L 420.513 252.864 A 56.55 56.55 0 0 1 425.769 240.175 L 405.955 214.008 L 421.008 198.955 L 447.175 218.769 A 56.55 56.55 0 0 1 459.864 213.513 Z M 475 241.9 A 26.1 26.1 0 0 0 475 294.1 A 26.1 26.1 0 0 0 475 241.9" bx:shape="cog 475 268 26.1 56.55 87 0.38 8 1@36eb139e"/>
    <ellipse style="stroke: rgb(0, 0, 0); fill: rgb(255, 156, 0);" cx="65.63" cy="46.008" rx="11.069" ry="11.655"/>
    <rect x="36.326" y="139.435" width="35.031" height="5.42" style="fill: rgb(21, 41, 124);"/>
    <rect x="35.626" y="136.018" width="35.624" height="4.61" style="stroke: rgb(0, 0, 0); fill: rgb(255, 156, 0);"/>
    <path d="M 54.108 -144.269 L 61.073 -139.903 L 58.412 -132.838 L 49.804 -132.838 L 47.143 -139.903 Z" bx:shape="n-gon 54.108 -137.95 7.323 6.319 5 0 1@d67224aa" style="stroke: rgb(0, 0, 0); fill: rgb(119, 77, 10);" transform="matrix(1, 0, 0, -1, 0, 0)"/>
    <path d="M 54.378 -142.696 L 56.673 -139.216 L 55.796 -133.586 L 52.96 -133.586 L 52.083 -139.216 Z" bx:shape="n-gon 54.378 -137.66 2.413 5.036 5 0 1@44ef1282" style="stroke: rgb(0, 0, 0); fill: rgb(0, 234, 255);" transform="matrix(1, 0, 0, -1, 0, 0)"/>
    <rect x="71.416" y="120.542" width="11.233" height="5.665" style="stroke: rgb(0, 0, 0); fill: rgb(14, 29, 91);"/>
    <rect x="70.494" y="124.577" width="13.139" height="25.848" style="stroke: rgb(0, 0, 0); fill: rgb(21, 41, 124);"/>
    <path d="M 77.284 129.857 L 84.643 136.943 L 81.832 148.408 L 72.736 148.408 L 69.925 136.943 Z" bx:shape="n-gon 77.284 140.112 7.738 10.255 5 0 1@1048eaaa" style="stroke: rgb(0, 0, 0); fill: rgb(125, 84, 19);"/>
    <path d="M 76.778 135.469 L 84.137 142.555 L 81.326 154.02 L 72.23 154.02 L 69.419 142.555 Z" bx:shape="n-gon 76.778 145.724 7.738 10.255 5 0 1@0bcb7553" style="stroke: rgb(0, 0, 0); fill: rgb(75, 50, 9);"/>
    <path d="M 76.626 141.206 L 84.924 147.377 L 81.754 157.362 L 71.498 157.362 L 68.328 147.377 Z" bx:shape="n-gon 76.626 150.137 8.725 8.931 5 0 1@b2d1092a" style="stroke: rgb(0, 0, 0); fill: rgb(255, 156, 0);"/>
    <ellipse style="stroke: rgb(0, 0, 0); fill: rgb(0, 255, 255);" cx="76.792" cy="153.699" rx="4.155" ry="2.35"/>
    <ellipse style="fill: rgb(96, 96, 96);" cx="45.409" cy="45.89" rx="4.78" ry="6.392"/>
    <ellipse style="stroke: rgb(0, 0, 0); fill: rgb(149, 149, 149);" cx="65.692" cy="45.717" rx="7.479" ry="8.294"/>
    <ellipse style="fill: rgb(96, 96, 96);" cx="67.669" cy="45.568" rx="4.78" ry="6.392"/>
  </g>
  <ellipse style="fill: rgba(0, 0, 0, 0.33);" cx="-115.66" cy="176.732" rx="10.773" ry="2.435"/>
  <g style="transform-origin: 19.439px 23.408px;" transform="matrix(-0.979459, 0.201643, 0.201643, 0.979459, -89.288651, 1.978568)">
    <path d="M 12.964 12.196 L 35.218 38.481 L 31.329 41.831 L 19.962 28.404 C 15.263 22.017 12.119 16.524 11.443 13.506 L 12.964 12.196 Z" style="stroke: rgb(0, 0, 0); stroke-linejoin: round; stroke-linecap: round; transform-origin: 19.013px 13.154px; fill: url(&quot;#gradient-12&quot;);"/>
    <g transform="matrix(1.398026, -0.118815, 0.132642, 1.560712, 2.879616, 1.618607)" style="transform-origin: 11.8618px 17.6388px;">
      <path d="M 13.052 20.964 L 13.052 26.317 L 10.434 26.317 L 10.434 23.583 C 10.71 22.354 11.297 21.388 12.028 20.964 L 13.052 20.964 Z" style="stroke: rgb(0, 0, 0); stroke-linejoin: round; stroke-linecap: round; fill: rgb(0, 255, 198); transform-box: fill-box; transform-origin: 50% 50%; stroke-width: 0.641198px;" transform="matrix(-0.570538, -0.821271, 0.821271, -0.570538, -0.000001, -0.000002)"/>
      <path d="M 8.896 12.98 L 8.896 18.333 L 6.278 18.333 L 6.278 15.599 C 6.554 14.37 7.141 13.404 7.872 12.98 L 8.896 12.98 Z" style="stroke: rgb(0, 0, 0); stroke-linejoin: round; stroke-linecap: round; fill: rgb(0, 255, 198); transform-origin: 7.587px 15.657px; stroke-width: 0.641194px;" transform="matrix(-0.142092, -0.989853, 0.989853, -0.142092, -0.000002, 0)"/>
      <path d="M 10.662 17.127 L 10.662 22.48 L 8.044 22.48 L 8.044 19.746 C 8.32 18.517 8.907 17.551 9.638 17.127 L 10.662 17.127 Z" style="stroke: rgb(0, 0, 0); stroke-linejoin: round; stroke-linecap: round; fill: rgb(0, 255, 198); transform-origin: 9.353px 19.804px; stroke-width: 0.641197px;" transform="matrix(-0.465849, -0.884864, 0.884864, -0.465849, 0.000001, 0)"/>
      <path d="M 17.44 17.691 L 17.44 12.338 L 14.822 12.338 L 14.822 15.072 C 15.098 16.301 15.685 17.267 16.416 17.691 L 17.44 17.691 Z" style="stroke: rgb(0, 0, 0); stroke-linejoin: round; stroke-linecap: round; fill: rgb(0, 255, 198); transform-origin: 16.131px 15.014px; stroke-width: 0.641199px;" transform="matrix(-0.689551, -0.724237, 0.724237, -0.689551, 0.000001, 0)"/>
      <path d="M 14.93 14.622 L 14.93 9.269 L 12.312 9.269 L 12.312 12.003 C 12.588 13.232 13.175 14.198 13.906 14.622 L 14.93 14.622 Z" style="stroke: rgb(0, 0, 0); stroke-linejoin: round; stroke-linecap: round; fill: rgb(0, 255, 198); transform-origin: 13.621px 11.945px; stroke-width: 0.641199px;" transform="matrix(-0.782727, -0.622365, 0.622365, -0.782727, -0.000002, -0.000002)"/>
    </g>
    <path d="M 25.94 14.991 L 19.92 20.772 L 22.723 23.742 L 25.798 20.789 C 26.885 19.149 27.343 17.44 27.037 16.152 L 25.94 14.991 Z" style="stroke: rgb(0, 0, 0); stroke-linejoin: round; stroke-linecap: round; fill: rgb(0, 255, 198); transform-box: fill-box; transform-origin: 51.1931% 48.0057%;" transform="matrix(0.999209, -0.039768, 0.039768, 0.999209, 0, 0)"/>
  </g>
  <path d="M -85.379 108.125 L -85.425 131.966 L -85.461 131.966 L -85.485 144.248 L -81.603 144.256 C -78.822 143.29 -76.592 141.078 -75.538 138.261 L -75.526 131.986 L -75.559 131.986 L -75.519 111.777 L -75.38 111.777 L -75.354 98.767 L -81.908 108.132 L -85.379 108.125 Z" style="stroke: rgb(0, 0, 0); fill: url(&quot;#gradient-13&quot;); transform-origin: -103.743px 76.925px;"/>
  <g style="transform-origin: 19.439px 23.408px;" transform="matrix(0.979459, 0.201643, -0.201643, 0.979459, -152.896988, 3.315171)">
    <path d="M 12.964 12.196 L 35.218 38.481 L 31.329 41.831 L 19.962 28.404 C 15.263 22.017 12.119 16.524 11.443 13.506 L 12.964 12.196 Z" style="stroke: rgb(0, 0, 0); stroke-linejoin: round; stroke-linecap: round; transform-origin: 19.013px 13.154px; fill: url(&quot;#gradient-14&quot;);"/>
    <g transform="matrix(1.398026, -0.118815, 0.132642, 1.560712, 2.879616, 1.618607)" style="transform-origin: 11.8618px 17.6388px;">
      <path d="M 13.052 20.964 L 13.052 26.317 L 10.434 26.317 L 10.434 23.583 C 10.71 22.354 11.297 21.388 12.028 20.964 L 13.052 20.964 Z" style="stroke: rgb(0, 0, 0); stroke-linejoin: round; stroke-linecap: round; fill: rgb(0, 255, 198); transform-box: fill-box; transform-origin: 50% 50%; stroke-width: 0.641198px;" transform="matrix(-0.570538, -0.821271, 0.821271, -0.570538, -0.000001, -0.000002)"/>
      <path d="M 8.896 12.98 L 8.896 18.333 L 6.278 18.333 L 6.278 15.599 C 6.554 14.37 7.141 13.404 7.872 12.98 L 8.896 12.98 Z" style="stroke: rgb(0, 0, 0); stroke-linejoin: round; stroke-linecap: round; fill: rgb(0, 255, 198); transform-origin: 7.587px 15.657px; stroke-width: 0.641194px;" transform="matrix(-0.142092, -0.989853, 0.989853, -0.142092, -0.000002, 0)"/>
      <path d="M 10.662 17.127 L 10.662 22.48 L 8.044 22.48 L 8.044 19.746 C 8.32 18.517 8.907 17.551 9.638 17.127 L 10.662 17.127 Z" style="stroke: rgb(0, 0, 0); stroke-linejoin: round; stroke-linecap: round; fill: rgb(0, 255, 198); transform-origin: 9.353px 19.804px; stroke-width: 0.641197px;" transform="matrix(-0.465849, -0.884864, 0.884864, -0.465849, 0.000001, 0)"/>
      <path d="M 17.44 17.691 L 17.44 12.338 L 14.822 12.338 L 14.822 15.072 C 15.098 16.301 15.685 17.267 16.416 17.691 L 17.44 17.691 Z" style="stroke: rgb(0, 0, 0); stroke-linejoin: round; stroke-linecap: round; fill: rgb(0, 255, 198); transform-origin: 16.131px 15.014px; stroke-width: 0.641199px;" transform="matrix(-0.689551, -0.724237, 0.724237, -0.689551, 0.000001, 0)"/>
      <path d="M 14.93 14.622 L 14.93 9.269 L 12.312 9.269 L 12.312 12.003 C 12.588 13.232 13.175 14.198 13.906 14.622 L 14.93 14.622 Z" style="stroke: rgb(0, 0, 0); stroke-linejoin: round; stroke-linecap: round; fill: rgb(0, 255, 198); transform-origin: 13.621px 11.945px; stroke-width: 0.641199px;" transform="matrix(-0.782727, -0.622365, 0.622365, -0.782727, -0.000002, -0.000002)"/>
    </g>
    <path d="M 25.94 14.991 L 19.92 20.772 L 22.723 23.742 L 25.798 20.789 C 26.885 19.149 27.343 17.44 27.037 16.152 L 25.94 14.991 Z" style="stroke: rgb(0, 0, 0); stroke-linejoin: round; stroke-linecap: round; fill: rgb(0, 255, 198); transform-box: fill-box; transform-origin: 51.1931% 48.0057%;" transform="matrix(0.999209, -0.039768, 0.039768, 0.999209, 0, 0)"/>
  </g>
  <rect x="-101.65" y="158.159" width="14.315" height="27.796" style="stroke: rgb(0, 0, 0); fill: url(&quot;#gradient-15&quot;);"/>
  <rect x="-120.17" y="148.023" width="18.485" height="33.949" style="stroke: rgb(0, 0, 0); fill: url(&quot;#gradient-16&quot;);"/>
  <path d="M -121.16 97.511 L -85.428 97.511 L -85.428 175.693 L -97.446 175.693 L -102.71 157.709 L -109.14 175.693 L -121.16 175.693 L -121.16 97.511 Z" style="stroke: rgb(0, 0, 0); fill: rgb(27, 66, 228);"/>
  <ellipse style="fill: rgb(21, 41, 124); transform-origin: 31.431px 66.892px;" cx="31.431" cy="66.892" rx="5.787" ry="8.414" transform="matrix(0.847741, 0.530411, -0.523842, 0.851851, -124.672794, 48.156074)"/>
  <ellipse style="fill: rgb(21, 41, 124);" cx="-103.23" cy="109.376" rx="17.022" ry="9.841"/>
  <ellipse style="fill: rgb(21, 41, 124); transform-origin: 31.431px 66.892px;" cx="31.431" cy="66.892" rx="5.779" ry="8.426" transform="matrix(0.941432, -0.337203, 0.332067, 0.943272, -144.829481, 49.33606)"/>
  <path d="M -71.707 76.844 C -71.707 89.882 -78.965 101.149 -89.488 106.462 C -89.351 106.761 -89.234 107.076 -89.138 107.403 L -89.138 111.198 L -89.489 111.198 L -89.149 111.324 L -90.587 114.865 C -91.7 116.287 -93.197 117.177 -94.657 117.276 L -96.387 116.644 L -93.876 110.464 L -93.876 108.266 C -96.805 109.209 -99.92 109.717 -103.14 109.717 C -106.63 109.717 -109.98 109.123 -113.11 108.028 L -113.11 110.807 L -110.6 116.987 L -112.33 117.619 C -113.79 117.52 -115.29 116.63 -116.4 115.208 L -117.84 111.667 L -117.5 111.541 L -117.85 111.541 L -117.85 107.746 C -117.69 107.206 -117.47 106.7 -117.21 106.246 C -127.51 100.845 -134.57 89.708 -134.57 76.844 C -134.57 58.688 -120.5 43.971 -103.14 43.971 C -85.779 43.971 -71.707 58.688 -71.707 76.844 Z" style="stroke: rgb(0, 0, 0); fill: rgb(68, 165, 98);"/>
  <path d="M -128.57 23.686 C -125.7 18.674 -119.62 14.734 -112.01 13.004 L -102.25 13.004 L -102.25 12.986 L -91.626 12.986 C -84.018 14.717 -77.933 18.657 -75.062 23.669 L -75.062 26.563 L -75.017 26.563 L -75.017 56.358 L -128.63 56.358 L -128.63 26.563 L -128.57 26.563 L -128.57 23.686 Z" style="stroke: rgb(0, 0, 0); stroke-linejoin: round; stroke-linecap: round; fill: rgb(27, 66, 228);"/>
  <ellipse style="fill: rgb(36, 79, 49);" cx="-96.601" cy="75.635" rx="24.277" ry="27.939"/>
  <ellipse style="" cx="-89.39" cy="72.082" rx="10.646" ry="12.546"/>
  <ellipse style="" cx="-115.68" cy="73.176" rx="10.646" ry="12.546"/>
  <path d="M -144.96 57.495 C -143.7 55.277 -140.81 53.504 -137.14 52.667 L -128.98 52.667 L -128.98 52.796 L -69.016 52.796 L -69.016 52.81 L -66.911 52.81 C -63.243 53.646 -60.359 55.419 -59.094 57.637 L -59.094 62.888 C -60.359 65.106 -63.243 66.879 -66.911 67.715 L -69.016 67.715 L -69.016 67.814 L -128.98 67.814 L -128.98 67.858 L -137.14 67.856 C -140.81 67.02 -143.7 65.247 -144.96 63.029 L -144.96 59.929 L -144.96 57.495 Z" style="stroke: rgb(0, 0, 0); stroke-linejoin: round; stroke-linecap: round; fill: rgb(27, 66, 228);"/>
  <ellipse style="fill: rgb(21, 41, 124);" cx="-113.22" cy="55.662" rx="13.058" ry="9.415"/>
  <ellipse style="fill: rgb(21, 41, 124);" cx="-88.373" cy="55.686" rx="14.932" ry="9.108"/>
  <path d="M -76.902 26.433 L -76.902 29.154 L -76.871 29.154 L -76.871 57.159 L -85.222 57.159 L -85.222 17.657 C -81.441 19.592 -78.473 22.695 -76.902 26.433 Z" style="stroke-linejoin: round; stroke-linecap: round; fill: rgb(21, 41, 124);"/>
  <path d="M -128.63 49.577 L -117.81 49.779 L -117.81 49.865 L -86.143 49.865 L -86.143 49.767 L -75.319 49.564 L -75.296 51.966 C -76.139 53.704 -78.079 55.116 -80.556 55.811 L -86.085 55.914 L -86.088 55.656 L -117.86 55.656 L -117.86 55.662 L -118.16 55.656 L -121.03 55.656 L -121.03 55.603 L -123.39 55.557 C -125.87 54.89 -127.81 53.538 -128.65 51.875 L -128.63 49.577 Z" style="stroke: rgb(0, 0, 0); stroke-linejoin: round; stroke-linecap: round; fill: rgb(255, 156, 0);"/>
  <path style="stroke-miterlimit: 4.63; stroke-width: 7.48475px; fill: rgb(21, 41, 124);" transform="matrix(0.100277, 0, 0, 0.140829, -149.253891, -4.989617)" d="M 464.356 181 L 485.644 181 L 490.136 213.513 A 56.55 56.55 0 0 1 502.825 218.769 L 528.992 198.955 L 544.045 214.008 L 524.231 240.175 A 56.55 56.55 0 0 1 529.487 252.864 L 562 257.356 L 562 278.644 L 529.487 283.136 A 56.55 56.55 0 0 1 524.231 295.825 L 544.045 321.992 L 528.992 337.045 L 502.825 317.231 A 56.55 56.55 0 0 1 490.136 322.487 L 485.644 355 L 464.356 355 L 459.864 322.487 A 56.55 56.55 0 0 1 447.175 317.231 L 421.008 337.045 L 405.955 321.992 L 425.769 295.825 A 56.55 56.55 0 0 1 420.513 283.136 L 388 278.644 L 388 257.356 L 420.513 252.864 A 56.55 56.55 0 0 1 425.769 240.175 L 405.955 214.008 L 421.008 198.955 L 447.175 218.769 A 56.55 56.55 0 0 1 459.864 213.513 Z M 475 241.9 A 26.1 26.1 0 0 0 475 294.1 A 26.1 26.1 0 0 0 475 241.9" bx:shape="cog 475 268 26.1 56.55 87 0.38 8 1@36eb139e"/>
  <ellipse style="stroke: rgb(0, 0, 0); fill: rgb(255, 156, 0);" cx="-113.24" cy="52.497" rx="11.069" ry="11.655"/>
  <ellipse style="stroke: rgb(0, 0, 0); fill: rgb(149, 149, 149);" cx="-113.39" cy="52.528" rx="7.479" ry="8.294"/>
  <path style="stroke: rgb(0, 0, 0); stroke-miterlimit: 4.63; stroke-width: 7.48475px; fill: rgb(255, 156, 0);" transform="matrix(0.100277, 0, 0, 0.108123, -149.253891, 1.930234)" d="M 464.356 181 L 485.644 181 L 490.136 213.513 A 56.55 56.55 0 0 1 502.825 218.769 L 528.992 198.955 L 544.045 214.008 L 524.231 240.175 A 56.55 56.55 0 0 1 529.487 252.864 L 562 257.356 L 562 278.644 L 529.487 283.136 A 56.55 56.55 0 0 1 524.231 295.825 L 544.045 321.992 L 528.992 337.045 L 502.825 317.231 A 56.55 56.55 0 0 1 490.136 322.487 L 485.644 355 L 464.356 355 L 459.864 322.487 A 56.55 56.55 0 0 1 447.175 317.231 L 421.008 337.045 L 405.955 321.992 L 425.769 295.825 A 56.55 56.55 0 0 1 420.513 283.136 L 388 278.644 L 388 257.356 L 420.513 252.864 A 56.55 56.55 0 0 1 425.769 240.175 L 405.955 214.008 L 421.008 198.955 L 447.175 218.769 A 56.55 56.55 0 0 1 459.864 213.513 Z M 475 241.9 A 26.1 26.1 0 0 0 475 294.1 A 26.1 26.1 0 0 0 475 241.9" bx:shape="cog 475 268 26.1 56.55 87 0.38 8 1@36eb139e"/>
  <ellipse style="stroke: rgb(0, 0, 0); fill: rgb(255, 156, 0);" cx="-91.188" cy="52.497" rx="11.069" ry="11.655"/>
  <rect x="-120.49" y="145.924" width="35.031" height="5.42" style="fill: rgb(21, 41, 124);"/>
  <rect x="-121.19" y="142.507" width="35.624" height="4.61" style="stroke: rgb(0, 0, 0); fill: rgb(255, 156, 0);"/>
  <path d="M -120.18 106.919 L -120.34 135.059 L -120.31 135.059 L -120.39 149.553 L -124.66 149.519 C -127.71 148.35 -130.15 145.714 -131.28 142.379 L -131.24 134.973 L -131.2 134.973 L -131.07 111.119 L -131.22 111.118 L -131.13 95.762 L -124 106.889 L -120.18 106.919 Z" style="stroke: rgb(0, 0, 0); fill: url(&quot;#gradient-17&quot;); transform-origin: -132.498px 70.653px;" transform="matrix(0.999811, -0.019449, 0.019449, 0.999811, 0, 0)"/>
  <path d="M -102.71 -150.759 L -95.745 -146.393 L -98.406 -139.328 L -107.014 -139.328 L -109.675 -146.393 Z" bx:shape="n-gon -102.71 -144.44 7.323 6.319 5 0 1@9d002532" style="stroke: rgb(0, 0, 0); fill: rgb(119, 77, 10);" transform="matrix(1, 0, 0, -1, 0, 0)"/>
  <path d="M -102.44 -149.186 L -100.145 -145.706 L -101.022 -140.076 L -103.858 -140.076 L -104.735 -145.706 Z" bx:shape="n-gon -102.44 -144.15 2.413 5.036 5 0 1@8dba548a" style="stroke: rgb(0, 0, 0); fill: rgb(0, 234, 255);" transform="matrix(1, 0, 0, -1, 0, 0)"/>
  <rect x="-85.402" y="123.031" width="11.233" height="5.665" style="stroke: rgb(0, 0, 0); fill: rgb(14, 29, 91);"/>
  <rect x="-86.324" y="127.066" width="13.139" height="25.848" style="stroke: rgb(0, 0, 0); fill: rgb(21, 41, 124);"/>
  <path d="M -79.534 131.346 L -72.175 138.432 L -74.986 149.897 L -84.082 149.897 L -86.893 138.432 Z" bx:shape="n-gon -79.534 141.601 7.738 10.255 5 0 1@7ea78c9b" style="stroke: rgb(0, 0, 0); fill: rgb(125, 84, 19);"/>
  <path d="M -80.04 136.958 L -72.681 144.044 L -75.492 155.509 L -84.588 155.509 L -87.399 144.044 Z" bx:shape="n-gon -80.04 147.213 7.738 10.255 5 0 1@9eade8a8" style="stroke: rgb(0, 0, 0); fill: rgb(75, 50, 9);"/>
  <path d="M -79.937 141.695 L -71.384 147.866 L -74.651 157.851 L -85.223 157.851 L -88.49 147.866 Z" bx:shape="n-gon -79.937 150.626 8.993 8.931 5 0 1@0246187b" style="stroke: rgb(0, 0, 0); fill: rgb(255, 156, 0);"/>
  <ellipse style="stroke: rgb(0, 0, 0); fill: rgb(0, 255, 255);" cx="-80.026" cy="156.294" rx="4.155" ry="1.244"/>
  <ellipse style="fill: rgb(96, 96, 96);" cx="-111.41" cy="52.379" rx="4.78" ry="6.392"/>
  <ellipse style="stroke: rgb(0, 0, 0); fill: rgb(149, 149, 149);" cx="-91.126" cy="52.206" rx="7.479" ry="8.294"/>
  <ellipse style="fill: rgb(96, 96, 96);" cx="-89.149" cy="52.057" rx="4.78" ry="6.392"/>
  <g transform="matrix(0.838451, 0.704044, 0.667409, -0.794823, 8.390097, -35.186779)" style="transform-origin: 75.881px 121.82px;">
    <path d="M 70.439 101.636 L 70.393 125.477 L 70.357 125.477 L 70.333 137.759 L 74.215 137.767 C 76.996 136.801 79.226 134.589 80.28 131.772 L 80.292 125.497 L 80.259 125.497 L 80.299 105.288 L 80.438 105.288 L 80.464 92.278 L 73.91 101.643 L 70.439 101.636 Z" style="stroke: rgb(0, 0, 0); fill: url(&quot;#gradient-2&quot;); transform-origin: 52.075px 70.436px;"/>
    <rect x="70.416" y="116.542" width="11.233" height="5.665" style="stroke: rgb(0, 0, 0); fill: rgb(14, 29, 91);"/>
    <rect x="69.494" y="120.577" width="13.139" height="25.848" style="stroke: rgb(0, 0, 0); fill: rgb(21, 41, 124);"/>
    <path d="M 76.284 124.857 L 83.643 131.943 L 80.832 143.408 L 71.736 143.408 L 68.925 131.943 Z" bx:shape="n-gon 76.284 135.112 7.738 10.255 5 0 1@2ba18d23" style="stroke: rgb(0, 0, 0); fill: rgb(125, 84, 19);"/>
    <path d="M 75.778 130.469 L 83.137 137.555 L 80.326 149.02 L 71.23 149.02 L 68.419 137.555 Z" bx:shape="n-gon 75.778 140.724 7.738 10.255 5 0 1@6afbf833" style="stroke: rgb(0, 0, 0); fill: rgb(75, 50, 9);"/>
    <path d="M 75.881 135.206 L 84.434 141.377 L 81.167 151.362 L 70.595 151.362 L 67.328 141.377 Z" bx:shape="n-gon 75.881 144.137 8.993 8.931 5 0 1@b39f6ea7" style="stroke: rgb(0, 0, 0); fill: rgb(255, 156, 0);"/>
    <ellipse style="stroke: rgb(0, 0, 0); fill: rgb(0, 255, 255);" cx="75.792" cy="149.805" rx="4.155" ry="1.244"/>
  </g>
  <ellipse style="stroke: rgb(0, 0, 0); fill: rgb(255, 156, 0);" cx="65.799" cy="43.128" rx="11.069" ry="9.299"/>
  <ellipse style="stroke: rgb(0, 0, 0); fill: rgb(149, 149, 149);" cx="65.65" cy="42.722" rx="7.479" ry="5.501"/>
  <ellipse style="fill: rgb(96, 96, 96);" cx="67.627" cy="42.446" rx="4.78" ry="4.472"/>
  <ellipse style="stroke: rgb(0, 0, 0); fill: rgb(0, 227, 255);" cx="39.612" cy="61.178" rx="3.899" ry="3.956"/>
  <ellipse style="stroke: rgb(0, 0, 0); fill: rgb(0, 227, 255);" cx="36.9" cy="68.241" rx="1.865" ry="2.995"/>
  <ellipse style="stroke: rgb(0, 0, 0); fill: rgb(0, 227, 255);" cx="40.686" cy="66.998" rx="1.243" ry="1.526"/>
  <ellipse style="stroke: rgb(0, 0, 0); fill: rgb(0, 227, 255);" cx="39.612" cy="61.178" rx="3.899" ry="3.956"/>
  <ellipse style="stroke: rgb(0, 0, 0); fill: rgb(0, 227, 255);" cx="36.9" cy="68.241" rx="1.865" ry="2.995"/>
  <ellipse style="stroke: rgb(0, 0, 0); fill: rgb(0, 227, 255);" cx="40.686" cy="66.998" rx="1.243" ry="1.526"/>
  <ellipse style="stroke: rgb(0, 0, 0); fill: rgb(0, 227, 255);" cx="64.814" cy="61.082" rx="3.899" ry="3.956"/>
  <ellipse style="stroke: rgb(0, 0, 0); fill: rgb(0, 227, 255);" cx="62.102" cy="68.145" rx="1.865" ry="2.995"/>
  <ellipse style="stroke: rgb(0, 0, 0); fill: rgb(0, 227, 255);" cx="65.888" cy="66.902" rx="1.243" ry="1.526"/>
  <path stroke="rgb(255,0,0)" stroke-width="0" d="M 58.171 148.674 C 60.834 148.934 67.209 148.866 70.787 147.585 C 74.073 146.408 77.253 143.873 79.057 141.732 C 80.553 139.956 81.19 137.796 81.581 136.015 C 81.92 134.469 81.189 133.428 81.581 131.659 C 82.127 129.191 84.854 125.593 85.506 122.403 C 86.151 119.239 85.656 115.752 85.506 112.602 C 85.362 109.591 85.677 107.056 84.665 103.89 C 83.425 100.017 78.213 94.789 77.656 91.095 C 77.22 88.203 78.181 86.679 79.619 83.472 C 81.812 78.579 89.708 69.896 91.673 64.143 C 93.214 59.636 92.961 55.47 92.515 51.892 C 92.127 48.789 90.932 45.782 89.711 43.725 C 88.728 42.068 87.633 41.015 86.206 40.05 C 84.714 39.039 82.793 38.243 80.88 37.872 C 78.881 37.484 77.448 37.558 74.432 37.872 C 69.479 38.387 58.327 40.174 52.564 41.956 C 48.095 43.337 44.874 44.892 41.91 46.856 C 39.236 48.628 37.447 50.485 35.322 52.981 C 32.892 55.835 29.633 59.906 28.314 63.326 C 27.149 66.343 26.829 69.626 27.192 72.31 C 27.521 74.744 28.783 77.006 29.996 78.844 C 31.114 80.539 32.803 81.92 34.06 83.064 C 35.11 84.018 37.246 84.462 37.004 85.378 C 36.63 86.799 29.924 88.648 27.051 90.686 C 24.375 92.586 21.863 94.773 20.183 97.084 C 18.643 99.203 17.649 101.249 17.099 103.89 C 16.464 106.935 16.575 110.772 17.099 114.508 C 17.677 118.625 19.381 124.202 20.744 127.575 C 21.779 130.14 22.677 131.711 24.108 133.564 C 25.595 135.49 27.674 137.211 29.575 138.873 C 31.46 140.522 33.404 142.262 35.463 143.501 C 37.431 144.687 39.581 145.49 41.63 146.224 C 43.598 146.928 45.539 147.587 47.517 147.857 C 49.465 148.123 52.09 147.949 53.405 147.857 C 54.206 147.8 54.426 147.515 55.087 147.585 C 55.946 147.676 56.619 148.522 58.171 148.674 Z M 58.591 69.452 C 58.039 69.628 57.292 68.724 56.909 68.363 C 56.62 68.089 56.209 67.848 56.348 67.546 C 56.6 67.005 59.579 65.834 60.273 65.64 C 60.579 65.556 60.802 65.474 60.835 65.64 C 60.908 66.025 59.354 69.208 58.591 69.452 Z" style="stroke: rgb(129, 151, 57); stroke-width: 2px; filter: url(&quot;#gaussian-blur-filter-0&quot;); fill: rgba(0, 213, 255, 0.514); transform-box: fill-box; transform-origin: 50% 50%;" transform="matrix(-1, 0, 0, -1, -0.000015, 0.000012)"/>
  <ellipse style="fill: rgb(0, 241, 255); stroke: rgba(0, 0, 0, 0.584);" cx="9.348" cy="62.81" rx="4.724" ry="8.949"/>
  <ellipse style="fill: rgb(0, 241, 255); stroke: rgba(0, 0, 0, 0.584);" cx="89.123" cy="131.707" rx="4.542" ry="10.4"/>
  <ellipse style="fill: rgb(0, 241, 255); stroke: rgba(0, 0, 0, 0.584);" cx="93.942" cy="25.776" rx="4.18" ry="10.038"/>
  <ellipse style="fill: rgb(0, 241, 255); stroke: rgba(0, 0, 0, 0.584);" cx="20.392" cy="105.507" rx="4.542" ry="9.675"/>
  <ellipse style="fill: rgb(0, 241, 255); stroke: rgb(0, 129, 104);" cx="54.008" cy="37.535" rx="14.133" ry="13.965"/>
  <path d="M 54.411 48.619 C 48.42 48.619 43.563 43.631 43.563 37.478 C 43.563 33.666 45.428 30.3 48.271 28.292 C 47.69 29.658 47.367 31.166 47.367 32.752 C 47.367 38.905 52.224 43.893 58.215 43.893 C 60.494 43.893 62.609 43.171 64.355 41.938 C 62.68 45.871 58.858 48.619 54.411 48.619 Z" style="stroke: rgb(0, 129, 104); fill: rgb(255, 255, 255);"/>
  <ellipse style="fill: rgb(255, 255, 255); stroke: rgb(0, 143, 111);" cx="56.144" cy="34.262" rx="5.648" ry="5.706"/>
</svg>