<?xml version="1.0" encoding="utf-8"?>
<svg xmlns="http://www.w3.org/2000/svg" viewBox="0 0 110 180" width="110px" height="180px" xmlns:bx="https://boxy-svg.com">
  <defs>
    <linearGradient gradientUnits="userSpaceOnUse" x1="61.751" y1="4.64" x2="61.751" y2="26.708" id="gradient-6" gradientTransform="matrix(-1.180857, -1.017182, 1.008421, -1.191115, 147.333424, 105.838909)">
      <stop offset="0" style="stop-color: rgb(26.667% 64.706% 38.431%)"/>
      <stop offset="1" style="stop-color: rgb(0% 39.662% 15.739%)"/>
    </linearGradient>
    <linearGradient gradientUnits="userSpaceOnUse" x1="16.555" y1="5.154" x2="16.555" y2="27.222" id="gradient-5" gradientTransform="matrix(1.180857, -1.017182, 1.008421, 1.191115, -15.837139, 22.719149)">
      <stop offset="0" style="stop-color: rgb(26.667% 64.706% 38.431%)"/>
      <stop offset="1" style="stop-color: rgb(0% 39.662% 15.739%)"/>
    </linearGradient>
    <linearGradient gradientUnits="userSpaceOnUse" x1="43.08" y1="89.367" x2="43.08" y2="109.039" id="gradient-0" gradientTransform="matrix(1.634354, 0, 0, 1.566338, -9.633743, 7.806114)">
      <stop offset="0" style="stop-color: rgb(8.6275% 32.549% 16.078%)"/>
      <stop offset="1" style="stop-color: rgb(0% 21.246% 5.8187%)"/>
    </linearGradient>
    <linearGradient gradientUnits="userSpaceOnUse" x1="33.017" y1="87.365" x2="33.017" y2="109.039" id="gradient-3" gradientTransform="matrix(1.668197, 0, 0, 1.40709, -8.840364, 21.718772)">
      <stop offset="0" style="stop-color: rgb(26.667% 64.706% 38.431%)"/>
      <stop offset="1" style="stop-color: rgb(0% 39.662% 15.739%)"/>
    </linearGradient>
    <linearGradient gradientUnits="userSpaceOnUse" x1="28.646" y1="90.587" x2="28.646" y2="141.378" id="gradient-1">
      <stop offset="0" style="stop-color: rgb(14.118% 30.98% 19.216%)"/>
      <stop offset="1" style="stop-color: rgb(2.1561% 20.161% 9.3135%)"/>
    </linearGradient>
    <linearGradient gradientUnits="userSpaceOnUse" x1="78.828" y1="91.139" x2="78.828" y2="137.871" id="gradient-2">
      <stop offset="0" style="stop-color: rgb(14.118% 30.98% 19.216%)"/>
      <stop offset="1" style="stop-color: rgb(2.1561% 20.161% 9.3135%)"/>
    </linearGradient>
  </defs>
  <path d="M 99.402 9.539 L 77.148 35.825 L 81.037 39.175 L 92.404 25.748 C 97.103 19.361 100.247 13.867 100.923 10.85 L 99.402 9.539 Z" style="stroke: rgb(0, 0, 0); stroke-linejoin: round; stroke-linecap: round; fill: url(&quot;#gradient-6&quot;); transform-origin: 62.098px 10.789px;"/>
  <g transform="matrix(-1.552848, 0, 0, 1.566338, 116.127426, -10.863686)">
    <path d="M 13.052 20.964 L 13.052 26.317 L 10.434 26.317 L 10.434 23.583 C 10.71 22.354 11.297 21.388 12.028 20.964 L 13.052 20.964 Z" style="stroke: rgb(0, 0, 0); stroke-linejoin: round; stroke-linecap: round; fill: rgb(0, 255, 198); transform-box: fill-box; transform-origin: 50% 50%;" transform="matrix(-0.570538, -0.821271, 0.821271, -0.570538, -0.000001, -0.000002)"/>
    <path d="M 8.896 12.98 L 8.896 18.333 L 6.278 18.333 L 6.278 15.599 C 6.554 14.37 7.141 13.404 7.872 12.98 L 8.896 12.98 Z" style="stroke: rgb(0, 0, 0); stroke-linejoin: round; stroke-linecap: round; fill: rgb(0, 255, 198); transform-origin: 7.587px 15.657px;" transform="matrix(-0.142092, -0.989853, 0.989853, -0.142092, -0.000002, 0)"/>
    <path d="M 10.662 17.127 L 10.662 22.48 L 8.044 22.48 L 8.044 19.746 C 8.32 18.517 8.907 17.551 9.638 17.127 L 10.662 17.127 Z" style="stroke: rgb(0, 0, 0); stroke-linejoin: round; stroke-linecap: round; fill: rgb(0, 255, 198); transform-origin: 9.353px 19.804px;" transform="matrix(-0.465849, -0.884864, 0.884864, -0.465849, 0.000001, 0)"/>
    <path d="M 17.44 17.691 L 17.44 12.338 L 14.822 12.338 L 14.822 15.072 C 15.098 16.301 15.685 17.267 16.416 17.691 L 17.44 17.691 Z" style="stroke: rgb(0, 0, 0); stroke-linejoin: round; stroke-linecap: round; fill: rgb(0, 255, 198); transform-origin: 16.131px 15.014px;" transform="matrix(-0.689551, -0.724237, 0.724237, -0.689551, 0.000001, 0)"/>
    <path d="M 14.93 14.622 L 14.93 9.269 L 12.312 9.269 L 12.312 12.003 C 12.588 13.232 13.175 14.198 13.906 14.622 L 14.93 14.622 Z" style="stroke: rgb(0, 0, 0); stroke-linejoin: round; stroke-linecap: round; fill: rgb(0, 255, 198); transform-origin: 13.621px 11.945px;" transform="matrix(-0.782727, -0.622365, 0.622365, -0.782727, -0.000002, -0.000002)"/>
  </g>
  <path d="M 85.287 13.014 L 91.307 18.795 L 88.503 21.765 L 85.429 18.812 C 84.342 17.172 83.884 15.462 84.19 14.175 L 85.287 13.014 Z" style="stroke: rgb(0, 0, 0); stroke-linejoin: round; stroke-linecap: round; fill: rgb(0, 255, 198); transform-origin: 59.958px 6.341px;"/>
  <path d="M 72.993 100.753 L 72.939 125.245 L 72.896 125.245 L 72.869 137.863 L 77.436 137.871 C 80.707 136.878 83.33 134.606 84.57 131.712 L 84.584 125.266 L 84.545 125.266 L 84.593 104.505 L 84.756 104.505 L 84.787 91.139 L 77.077 100.76 L 72.993 100.753 Z" style="stroke: rgb(0, 0, 0); transform-box: fill-box; transform-origin: 52.8262% 50.7129%; fill: url(&quot;#gradient-2&quot;);" transform="matrix(0.984493, -0.175425, 0.175425, 0.984493, -0.000001, 0)"/>
  <path d="M 10.853 10.345 L 33.107 36.63 L 29.218 39.98 L 17.851 26.553 C 13.152 20.166 10.008 14.673 9.332 11.655 L 10.853 10.345 Z" style="stroke: rgb(0, 0, 0); stroke-linejoin: round; stroke-linecap: round; fill: url(&quot;#gradient-5&quot;); transform-origin: 16.902px 11.303px;"/>
  <g transform="matrix(1.552848, 0, 0, 1.566338, -5.870526, -10.058418)">
    <path d="M 13.052 20.964 L 13.052 26.317 L 10.434 26.317 L 10.434 23.583 C 10.71 22.354 11.297 21.388 12.028 20.964 L 13.052 20.964 Z" style="stroke: rgb(0, 0, 0); stroke-linejoin: round; stroke-linecap: round; fill: rgb(0, 255, 198); transform-box: fill-box; transform-origin: 50% 50%;" transform="matrix(-0.570538, -0.821271, 0.821271, -0.570538, -0.000001, -0.000002)"/>
    <path d="M 8.896 12.98 L 8.896 18.333 L 6.278 18.333 L 6.278 15.599 C 6.554 14.37 7.141 13.404 7.872 12.98 L 8.896 12.98 Z" style="stroke: rgb(0, 0, 0); stroke-linejoin: round; stroke-linecap: round; fill: rgb(0, 255, 198); transform-origin: 7.587px 15.657px;" transform="matrix(-0.142092, -0.989853, 0.989853, -0.142092, -0.000002, 0)"/>
    <path d="M 10.662 17.127 L 10.662 22.48 L 8.044 22.48 L 8.044 19.746 C 8.32 18.517 8.907 17.551 9.638 17.127 L 10.662 17.127 Z" style="stroke: rgb(0, 0, 0); stroke-linejoin: round; stroke-linecap: round; fill: rgb(0, 255, 198); transform-origin: 9.353px 19.804px;" transform="matrix(-0.465849, -0.884864, 0.884864, -0.465849, 0.000001, 0)"/>
    <path d="M 17.44 17.691 L 17.44 12.338 L 14.822 12.338 L 14.822 15.072 C 15.098 16.301 15.685 17.267 16.416 17.691 L 17.44 17.691 Z" style="stroke: rgb(0, 0, 0); stroke-linejoin: round; stroke-linecap: round; fill: rgb(0, 255, 198); transform-origin: 16.131px 15.014px;" transform="matrix(-0.689551, -0.724237, 0.724237, -0.689551, 0.000001, 0)"/>
    <path d="M 14.93 14.622 L 14.93 9.269 L 12.312 9.269 L 12.312 12.003 C 12.588 13.232 13.175 14.198 13.906 14.622 L 14.93 14.622 Z" style="stroke: rgb(0, 0, 0); stroke-linejoin: round; stroke-linecap: round; fill: rgb(0, 255, 198); transform-origin: 13.621px 11.945px;" transform="matrix(-0.782727, -0.622365, 0.622365, -0.782727, -0.000002, -0.000002)"/>
  </g>
  <path d="M 24.968 13.819 L 18.948 19.6 L 21.751 22.57 L 24.826 19.617 C 25.913 17.977 26.371 16.268 26.065 14.98 L 24.968 13.819 Z" style="stroke: rgb(0, 0, 0); stroke-linejoin: round; stroke-linecap: round; fill: rgb(0, 255, 198); transform-origin: 19.042px 6.855px;"/>
  <rect x="36.996" y="144.649" width="18.485" height="30.497" style="stroke: rgb(0, 0, 0); fill: url(&quot;#gradient-3&quot;);"/>
  <rect x="51.718" y="147.785" width="18.11" height="30.813" style="stroke: rgb(0, 0, 0); fill: url(&quot;#gradient-0&quot;);"/>
  <path d="M 34.349 101.122 L 34.184 127.693 L 34.223 127.693 L 34.139 141.378 L 29.747 141.346 C 26.611 140.242 24.11 137.753 22.943 134.604 L 22.987 127.611 L 23.023 127.611 L 23.163 105.088 L 23.004 105.087 L 23.094 90.587 L 30.423 101.094 L 34.349 101.122 Z" style="stroke: rgb(0, 0, 0); transform-box: fill-box; transform-origin: 46.7329% 50.9329%; fill: url(&quot;#gradient-1&quot;);" transform="matrix(0.987106, 0.160069, -0.160069, 0.987106, 0, 0)"/>
  <path d="M 35.781 101.836 L 71.295 101.836 L 71.295 169.319 L 59.351 169.319 L 54.12 153.796 L 47.725 169.319 L 35.781 169.319 L 35.781 101.836 Z" style="stroke: rgb(0, 0, 0); fill: rgb(27, 66, 228);"/>
  <path d="M 84.663 68.003 C 84.663 81.041 77.405 92.308 66.882 97.621 C 67.019 97.92 67.136 98.235 67.232 98.562 L 67.232 102.357 L 66.881 102.357 L 67.221 102.483 L 65.783 106.024 C 64.67 107.446 63.173 108.336 61.713 108.435 L 59.983 107.803 L 61.72 103.528 L 44.568 103.528 L 44.568 99.611 C 44.128 99.48 43.691 99.338 43.259 99.187 L 43.259 101.966 L 45.77 108.146 L 44.04 108.778 C 42.58 108.679 41.083 107.789 39.97 106.367 L 38.532 102.826 L 38.872 102.7 L 38.521 102.7 L 38.521 98.905 C 38.68 98.365 38.896 97.859 39.158 97.405 C 28.864 92.004 21.8 80.867 21.8 68.003 C 21.8 49.847 35.872 35.13 53.231 35.13 C 70.591 35.13 84.663 49.847 84.663 68.003 Z" style="stroke: rgb(0, 0, 0); fill: rgb(36, 79, 49);"/>
  <path d="M 28.591 14.312 C 31.46 9.3 37.544 5.36 45.155 3.63 L 54.91 3.63 L 54.91 3.612 L 65.539 3.612 C 73.147 5.343 79.232 9.283 82.103 14.295 L 82.103 17.189 L 82.148 17.189 L 82.148 46.984 L 28.535 46.984 L 28.535 17.189 L 28.591 17.189 L 28.591 14.312 Z" style="stroke: rgb(0, 0, 0); stroke-linejoin: round; stroke-linecap: round; fill: rgb(21, 41, 124);"/>
  <ellipse style="fill: rgb(25, 56, 34);" cx="53.037" cy="66.967" rx="30.144" ry="28.629"/>
  <path d="M 12.204 49.121 C 13.469 46.903 16.353 45.13 20.021 44.293 L 28.185 44.293 L 28.185 44.422 L 88.149 44.422 L 88.149 44.436 L 90.254 44.436 C 93.922 45.272 96.806 47.045 98.071 49.263 L 98.071 54.514 C 96.806 56.732 93.922 58.505 90.254 59.341 L 88.149 59.341 L 88.149 59.44 L 28.184 59.44 L 28.184 59.484 L 20.021 59.482 C 16.351 58.646 13.468 56.873 12.202 54.655 L 12.204 51.555 L 12.204 49.121 Z" style="stroke: rgb(0, 0, 0); stroke-linejoin: round; stroke-linecap: round; fill: rgb(21, 41, 124);"/>
  <ellipse style="fill: rgb(9, 16, 49);" cx="55.42" cy="47.138" rx="28.829" ry="6.548"/>
  <path d="M 80.713 13.82 L 80.713 16.426 L 80.772 16.426 L 80.772 43.245 L 64.775 43.245 L 64.775 5.415 C 72.018 7.268 77.703 10.24 80.713 13.82 Z" style="stroke-linejoin: round; stroke-linecap: round; fill: rgb(27, 66, 228);"/>
  <path d="M 28.536 41.203 L 39.36 41.405 L 39.36 41.491 L 71.022 41.491 L 71.022 41.393 L 81.846 41.19 L 81.869 43.592 C 81.026 45.33 79.086 46.742 76.609 47.437 L 71.08 47.54 L 71.077 47.282 L 39.304 47.282 L 39.304 47.288 L 39.01 47.282 L 36.138 47.282 L 36.138 47.229 L 33.776 47.183 C 31.297 46.516 29.358 45.164 28.515 43.501 L 28.536 41.203 Z" style="stroke: rgb(0, 0, 0); stroke-linejoin: round; stroke-linecap: round; fill: rgb(255, 156, 0);"/>
  <path style="stroke: rgb(0, 0, 0); stroke-miterlimit: 4.63; stroke-width: 7.48475px; fill: rgb(255, 156, 0);" transform="matrix(0.10165, 0, 0, 0.104003, 8.33406, 16.197508)" d="M 464.356 181 L 485.644 181 L 490.136 213.513 A 56.55 56.55 0 0 1 502.825 218.769 L 528.992 198.955 L 544.045 214.008 L 524.231 240.175 A 56.55 56.55 0 0 1 529.487 252.864 L 562 257.356 L 562 278.644 L 529.487 283.136 A 56.55 56.55 0 0 1 524.231 295.825 L 544.045 321.992 L 528.992 337.045 L 502.825 317.231 A 56.55 56.55 0 0 1 490.136 322.487 L 485.644 355 L 464.356 355 L 459.864 322.487 A 56.55 56.55 0 0 1 447.175 317.231 L 421.008 337.045 L 405.955 321.992 L 425.769 295.825 A 56.55 56.55 0 0 1 420.513 283.136 L 388 278.644 L 388 257.356 L 420.513 252.864 A 56.55 56.55 0 0 1 425.769 240.175 L 405.955 214.008 L 421.008 198.955 L 447.175 218.769 A 56.55 56.55 0 0 1 459.864 213.513 Z M 475 241.9 A 26.1 26.1 0 0 0 475 294.1 A 26.1 26.1 0 0 0 475 241.9" bx:shape="cog 475 268 26.1 56.55 87 0.38 8 1@36eb139e"/>
  <rect x="36.673" y="139.55" width="34.433" height="5.42" style="fill: rgb(21, 41, 124);"/>
  <rect x="35.973" y="136.133" width="35.624" height="4.61" style="stroke: rgb(0, 0, 0); fill: rgb(255, 156, 0);"/>
  <rect x="71.763" y="120.657" width="11.233" height="5.665" style="stroke: rgb(0, 0, 0); fill: rgb(14, 29, 91);" transform="matrix(0.976687, -0.214666, 0.214666, 0.976687, -21.444481, 18.485434)"/>
  <rect x="70.841" y="124.692" width="13.139" height="25.848" style="stroke: rgb(0, 0, 0); fill: rgb(21, 41, 124);" transform="matrix(0.976687, -0.214666, 0.214666, 0.976687, -21.444481, 18.485434)"/>
  <path d="M 77.631 129.972 L 84.99 137.058 L 82.179 148.523 L 73.083 148.523 L 70.272 137.058 Z" bx:shape="n-gon 77.631 140.227 7.738 10.255 5 0 1@070a14ce" style="stroke: rgb(0, 0, 0); fill: rgb(125, 84, 19);" transform="matrix(0.976687487339, -0.214666140963, 0.214666140963, 0.976687487339, -21.444538683326, 18.485367951487)"/>
  <path d="M 77.125 135.584 L 84.484 142.67 L 81.673 154.135 L 72.577 154.135 L 69.766 142.67 Z" bx:shape="n-gon 77.125 145.839 7.738 10.255 5 0 1@b2fae5cb" style="stroke: rgb(0, 0, 0); fill: rgb(75, 50, 9);" transform="matrix(0.976687487339, -0.214666140963, 0.214666140963, 0.976687487339, -21.444539070949, 18.485364901925)"/>
  <path d="M 76.973 141.321 L 85.271 147.492 L 82.101 157.477 L 71.845 157.477 L 68.675 147.492 Z" bx:shape="n-gon 76.973 150.252 8.725 8.931 5 0 1@963bd1f4" style="stroke: rgb(0, 0, 0); fill: rgb(255, 156, 0);" transform="matrix(0.976687487339, -0.214666140963, 0.214666140963, 0.976687487339, -21.444539506777, 18.485362532701)"/>
  <ellipse style="stroke: rgb(0, 0, 0); fill: rgb(0, 255, 255);" cx="77.139" cy="150.673" rx="4.155" ry="1.41" transform="matrix(0.976687, -0.214666, 0.214666, 0.976687, -20.334514, 23.738155)"/>
</svg>