<?xml version="1.0" encoding="utf-8"?>
<svg xmlns="http://www.w3.org/2000/svg" viewBox="0 0 110 180" width="110px" height="180px" xmlns:bx="https://boxy-svg.com">
  <defs>
    <linearGradient gradientUnits="userSpaceOnUse" x1="33.017" y1="87.365" x2="33.017" y2="109.039" id="gradient-3" gradientTransform="matrix(1.668197, 0, 0, 1.566338, -9.187714, 7.691248)">
      <stop offset="0" style="stop-color: rgb(26.667% 64.706% 38.431%)"/>
      <stop offset="1" style="stop-color: rgb(0% 39.662% 15.739%)"/>
    </linearGradient>
    <linearGradient gradientUnits="userSpaceOnUse" x1="16.555" y1="5.154" x2="16.555" y2="27.222" id="gradient-5" gradientTransform="matrix(1.180857, -1.017182, 1.008421, 1.191115, -13.72669, 24.570521)">
      <stop offset="0" style="stop-color: rgb(26.667% 64.706% 38.431%)"/>
      <stop offset="1" style="stop-color: rgb(0% 39.662% 15.739%)"/>
    </linearGradient>
    <linearGradient gradientUnits="userSpaceOnUse" x1="61.751" y1="4.64" x2="61.751" y2="26.708" id="gradient-6" gradientTransform="matrix(-1.180857, -1.017182, 1.008421, -1.191115, 145.01983, 107.198724)">
      <stop offset="0" style="stop-color: rgb(26.667% 64.706% 38.431%)"/>
      <stop offset="1" style="stop-color: rgb(0% 39.662% 15.739%)"/>
    </linearGradient>
    <linearGradient gradientUnits="userSpaceOnUse" x1="43.08" y1="89.367" x2="43.08" y2="109.039" id="gradient-0" gradientTransform="matrix(1.552848, 0, 0, 1.412954, -6.018291, 21.398652)">
      <stop offset="0" style="stop-color: rgb(8.6275% 32.549% 16.078%)"/>
      <stop offset="1" style="stop-color: rgb(0% 21.246% 5.8187%)"/>
    </linearGradient>
    <linearGradient gradientUnits="userSpaceOnUse" x1="23.073" y1="55.781" x2="23.073" y2="85.193" id="gradient-1" gradientTransform="matrix(1.552812, 0.010518, -0.010427, 1.566302, -5.28247, 4.451119)">
      <stop offset="0" style="stop-color: rgb(26.667% 64.706% 38.431%)"/>
      <stop offset="1" style="stop-color: rgb(0% 39.662% 15.739%)"/>
    </linearGradient>
    <linearGradient gradientUnits="userSpaceOnUse" x1="53.075" y1="55.911" x2="53.075" y2="84.96" id="gradient-2" gradientTransform="matrix(-1.552845, -0.003078, 0.003051, -1.566334, 158.601423, 225.507524)">
      <stop offset="0" style="stop-color: rgb(26.667% 64.706% 38.431%)"/>
      <stop offset="1" style="stop-color: rgb(0% 39.662% 15.739%)"/>
    </linearGradient>
  </defs>
  <path d="M 97.089 10.899 L 74.835 37.185 L 78.724 40.535 L 90.091 27.108 C 94.79 20.721 97.934 15.227 98.61 12.21 L 97.089 10.899 Z" style="stroke: rgb(0, 0, 0); stroke-linejoin: round; stroke-linecap: round; fill: url(&quot;#gradient-6&quot;); transform-origin: 59.785px 12.149px;"/>
  <path d="M 99.169 29.708 L 92.342 24.924 L 90.023 28.292 L 93.509 30.735 C 95.321 31.478 97.073 31.586 98.261 31.025 L 99.169 29.708 Z" style="stroke: rgb(0, 0, 0); stroke-linejoin: round; stroke-linecap: round; fill: rgb(0, 255, 198); stroke-width: 0.641198px; transform-origin: 11.743px 23.641px;"/>
  <path d="M 105.765 15.234 L 97.537 14.043 L 96.959 18.102 L 101.162 18.71 C 103.112 18.556 104.726 17.861 105.539 16.822 L 105.765 15.234 Z" style="stroke: rgb(0, 0, 0); stroke-linejoin: round; stroke-linecap: round; fill: rgb(0, 255, 198); stroke-width: 0.641194px; transform-box: fill-box; transform-origin: 52.9501% 48.6225%;" transform="matrix(0.990302, 0.138934, -0.138934, 0.990302, 0, 0)"/>
  <path d="M 102.932 22.13 L 95.577 18.224 L 93.683 21.852 L 97.44 23.847 C 99.328 24.361 101.08 24.253 102.191 23.549 L 102.932 22.13 Z" style="stroke: rgb(0, 0, 0); stroke-linejoin: round; stroke-linecap: round; fill: rgb(0, 255, 198); stroke-width: 0.641197px; transform-origin: 9.353px 18.804px;"/>
  <path d="M 86.173 11.112 L 92.193 16.893 L 89.39 19.863 L 86.315 16.91 C 85.228 15.27 84.77 13.56 85.076 12.273 L 86.173 11.112 Z" style="stroke: rgb(0, 0, 0); stroke-linejoin: round; stroke-linecap: round; fill: rgb(0, 255, 198); stroke-width: 0.641199px; transform-origin: 16.131px 15.014px;"/>
  <path d="M 90.683 6.123 L 95.857 12.685 L 92.675 15.238 L 90.032 11.886 C 89.18 10.11 88.96 8.353 89.439 7.121 L 90.683 6.123 Z" style="stroke: rgb(0, 0, 0); stroke-linejoin: round; stroke-linecap: round; fill: rgb(0, 255, 198); stroke-width: 0.641199px; transform-origin: 13.621px 11.945px;"/>
  <path d="M 82.318 15.849 L 88.338 21.63 L 85.534 24.6 L 82.46 21.647 C 81.373 20.007 80.915 18.297 81.221 17.01 L 82.318 15.849 Z" style="stroke: rgb(0, 0, 0); stroke-linejoin: round; stroke-linecap: round; fill: rgb(0, 255, 198); transform-box: fill-box; transform-origin: 42.4502% 51.0687%;" transform="matrix(0.998276, -0.058696, 0.058696, 0.998276, 0, 0)"/>
  <path d="M 71.439 101.636 L 71.393 125.477 L 71.357 125.477 L 71.333 137.759 L 75.215 137.767 C 77.996 136.801 80.226 134.589 81.28 131.772 L 81.292 125.497 L 81.259 125.497 L 81.299 105.288 L 81.438 105.288 L 81.464 92.278 L 74.91 101.643 L 71.439 101.636 Z" style="stroke: rgb(0, 0, 0); fill: url(&quot;#gradient-2&quot;); transform-origin: 53.075px 70.436px;"/>
  <path d="M 12.964 12.196 L 35.218 38.481 L 31.329 41.831 L 19.962 28.404 C 15.263 22.017 12.119 16.524 11.443 13.506 L 12.964 12.196 Z" style="stroke: rgb(0, 0, 0); stroke-linejoin: round; stroke-linecap: round; fill: url(&quot;#gradient-5&quot;); transform-origin: 19.013px 13.154px;"/>
  <g transform="matrix(1.398026, -0.118815, 0.132642, 1.560712, 2.879619, 1.618607)" style="transform-origin: 11.8618px 17.6388px;">
    <path d="M 13.052 20.964 L 13.052 26.317 L 10.434 26.317 L 10.434 23.583 C 10.71 22.354 11.297 21.388 12.028 20.964 L 13.052 20.964 Z" style="stroke: rgb(0, 0, 0); stroke-linejoin: round; stroke-linecap: round; fill: rgb(0, 255, 198); transform-box: fill-box; transform-origin: 50% 50%; stroke-width: 0.641198px;" transform="matrix(-0.570538, -0.821271, 0.821271, -0.570538, -0.000001, -0.000002)"/>
    <path d="M 8.896 12.98 L 8.896 18.333 L 6.278 18.333 L 6.278 15.599 C 6.554 14.37 7.141 13.404 7.872 12.98 L 8.896 12.98 Z" style="stroke: rgb(0, 0, 0); stroke-linejoin: round; stroke-linecap: round; fill: rgb(0, 255, 198); transform-origin: 7.587px 15.657px; stroke-width: 0.641194px;" transform="matrix(-0.142092, -0.989853, 0.989853, -0.142092, -0.000002, 0)"/>
    <path d="M 10.662 17.127 L 10.662 22.48 L 8.044 22.48 L 8.044 19.746 C 8.32 18.517 8.907 17.551 9.638 17.127 L 10.662 17.127 Z" style="stroke: rgb(0, 0, 0); stroke-linejoin: round; stroke-linecap: round; fill: rgb(0, 255, 198); transform-origin: 9.353px 19.804px; stroke-width: 0.641197px;" transform="matrix(-0.465849, -0.884864, 0.884864, -0.465849, 0.000001, 0)"/>
    <path d="M 17.44 17.691 L 17.44 12.338 L 14.822 12.338 L 14.822 15.072 C 15.098 16.301 15.685 17.267 16.416 17.691 L 17.44 17.691 Z" style="stroke: rgb(0, 0, 0); stroke-linejoin: round; stroke-linecap: round; fill: rgb(0, 255, 198); transform-origin: 16.131px 15.014px; stroke-width: 0.641199px;" transform="matrix(-0.689551, -0.724237, 0.724237, -0.689551, 0.000001, 0)"/>
    <path d="M 14.93 14.622 L 14.93 9.269 L 12.312 9.269 L 12.312 12.003 C 12.588 13.232 13.175 14.198 13.906 14.622 L 14.93 14.622 Z" style="stroke: rgb(0, 0, 0); stroke-linejoin: round; stroke-linecap: round; fill: rgb(0, 255, 198); transform-origin: 13.621px 11.945px; stroke-width: 0.641199px;" transform="matrix(-0.782727, -0.622365, 0.622365, -0.782727, -0.000002, -0.000002)"/>
  </g>
  <path d="M 25.94 14.991 L 19.92 20.772 L 22.723 23.742 L 25.798 20.789 C 26.885 19.149 27.343 17.44 27.037 16.152 L 25.94 14.991 Z" style="stroke: rgb(0, 0, 0); stroke-linejoin: round; stroke-linecap: round; fill: rgb(0, 255, 198); transform-box: fill-box; transform-origin: 51.1931% 48.0057%;" transform="matrix(0.999209, -0.039768, 0.039768, 0.999209, 0, 0)"/>
  <rect x="52.274" y="147.67" width="17.207" height="27.796" style="stroke: rgb(0, 0, 0); fill: url(&quot;#gradient-0&quot;);"/>
  <rect x="36.649" y="144.534" width="18.485" height="33.949" style="stroke: rgb(0, 0, 0); fill: url(&quot;#gradient-3&quot;);"/>
  <path d="M 35.388 101.597 L 35.228 125.736 L 35.266 125.736 L 35.184 138.169 L 30.91 138.14 C 27.858 137.137 25.424 134.876 24.289 132.015 L 24.332 125.662 L 24.367 125.662 L 24.503 105.2 L 24.348 105.199 L 24.436 92.026 L 31.568 101.571 L 35.388 101.597 Z" style="stroke: rgb(0, 0, 0); fill: url(&quot;#gradient-1&quot;); transform-origin: 23.073px 70.487px;"/>
  <path d="M 35.655 91.022 L 71.39 91.022 L 71.39 169.204 L 59.372 169.204 L 54.108 151.22 L 47.673 169.204 L 35.655 169.204 L 35.655 91.022 Z" style="stroke: rgb(0, 0, 0); fill: rgb(27, 66, 228);"/>
  <ellipse style="fill: rgb(21, 41, 124); transform-origin: 31.431px 66.892px;" cx="31.431" cy="66.892" rx="5.787" ry="8.414" transform="matrix(0.847741, 0.530411, -0.523842, 0.851851, 32.144797, 41.666975)"/>
  <ellipse style="fill: rgb(21, 41, 124);" cx="53.588" cy="102.887" rx="17.022" ry="9.841"/>
  <ellipse style="fill: rgb(21, 41, 124); transform-box: fill-box; transform-origin: 50% 50%;" cx="31.431" cy="66.892" rx="5.779" ry="8.426" transform="matrix(0.941432, -0.337203, 0.332067, 0.943272, 11.988089, 42.846954)"/>
  <path d="M 85.111 70.355 C 85.111 83.393 77.853 94.66 67.33 99.973 C 67.467 100.272 67.584 100.587 67.68 100.914 L 67.68 104.709 L 67.329 104.709 L 67.669 104.835 L 66.231 108.376 C 65.118 109.798 63.621 110.688 62.161 110.787 L 60.431 110.155 L 62.942 103.975 L 62.942 101.777 C 60.013 102.72 56.903 103.228 53.679 103.228 C 50.193 103.228 46.841 102.634 43.707 101.539 L 43.707 104.318 L 46.218 110.498 L 44.488 111.13 C 43.028 111.031 41.531 110.141 40.418 108.719 L 38.98 105.178 L 39.32 105.052 L 38.969 105.052 L 38.969 101.257 C 39.128 100.717 39.344 100.211 39.606 99.757 C 29.312 94.356 22.248 83.219 22.248 70.355 C 22.248 52.199 36.32 37.482 53.679 37.482 C 71.039 37.482 85.111 52.199 85.111 70.355 Z" style="stroke: rgb(0, 0, 0); fill: rgb(68, 165, 98);"/>
  <path d="M 28.244 14.197 C 31.113 9.185 37.197 5.245 44.808 3.515 L 54.563 3.515 L 54.563 3.497 L 65.192 3.497 C 72.8 5.228 78.885 9.168 81.756 14.18 L 81.756 17.074 L 81.801 17.074 L 81.801 46.869 L 28.188 46.869 L 28.188 17.074 L 28.244 17.074 L 28.244 14.197 Z" style="stroke: rgb(0, 0, 0); stroke-linejoin: round; stroke-linecap: round; fill: rgb(27, 66, 228);"/>
  <ellipse style="fill: rgb(36, 79, 49);" cx="60.217" cy="69.146" rx="24.277" ry="27.939"/>
  <ellipse style="" cx="67.428" cy="65.593" rx="10.646" ry="12.546"/>
  <ellipse style="" cx="41.134" cy="66.687" rx="10.646" ry="12.546"/>
  <path d="M 11.857 49.006 C 13.122 46.788 16.006 45.015 19.674 44.178 L 27.838 44.178 L 27.838 44.307 L 87.802 44.307 L 87.802 44.321 L 89.907 44.321 C 93.575 45.157 96.459 46.93 97.724 49.148 L 97.724 54.399 C 96.459 56.617 93.575 58.39 89.907 59.226 L 87.802 59.226 L 87.802 59.325 L 27.837 59.325 L 27.837 59.369 L 19.674 59.367 C 16.004 58.531 13.121 56.758 11.855 54.54 L 11.857 51.44 L 11.857 49.006 Z" style="stroke: rgb(0, 0, 0); stroke-linejoin: round; stroke-linecap: round; fill: rgb(27, 66, 228);"/>
  <ellipse style="fill: rgb(21, 41, 124);" cx="43.603" cy="49.173" rx="13.058" ry="9.415"/>
  <ellipse style="fill: rgb(21, 41, 124);" cx="68.445" cy="49.197" rx="14.932" ry="9.108"/>
  <path d="M 79.916 16.944 L 79.916 19.665 L 79.947 19.665 L 79.947 47.67 L 71.596 47.67 L 71.596 8.168 C 75.377 10.103 78.345 13.206 79.916 16.944 Z" style="stroke-linejoin: round; stroke-linecap: round; fill: rgb(21, 41, 124);"/>
  <path d="M 28.189 41.088 L 39.013 41.29 L 39.013 41.376 L 70.675 41.376 L 70.675 41.278 L 81.499 41.075 L 81.522 43.477 C 80.679 45.215 78.739 46.627 76.262 47.322 L 70.733 47.425 L 70.73 47.167 L 38.957 47.167 L 38.957 47.173 L 38.663 47.167 L 35.791 47.167 L 35.791 47.114 L 33.429 47.068 C 30.95 46.401 29.011 45.049 28.168 43.386 L 28.189 41.088 Z" style="stroke: rgb(0, 0, 0); stroke-linejoin: round; stroke-linecap: round; fill: rgb(255, 156, 0);"/>
  <path style="stroke-miterlimit: 4.63; stroke-width: 7.48475px; fill: rgb(21, 41, 124);" transform="matrix(0.100277, 0, 0, 0.140829, 7.56373, -12.478621)" d="M 464.356 181 L 485.644 181 L 490.136 213.513 A 56.55 56.55 0 0 1 502.825 218.769 L 528.992 198.955 L 544.045 214.008 L 524.231 240.175 A 56.55 56.55 0 0 1 529.487 252.864 L 562 257.356 L 562 278.644 L 529.487 283.136 A 56.55 56.55 0 0 1 524.231 295.825 L 544.045 321.992 L 528.992 337.045 L 502.825 317.231 A 56.55 56.55 0 0 1 490.136 322.487 L 485.644 355 L 464.356 355 L 459.864 322.487 A 56.55 56.55 0 0 1 447.175 317.231 L 421.008 337.045 L 405.955 321.992 L 425.769 295.825 A 56.55 56.55 0 0 1 420.513 283.136 L 388 278.644 L 388 257.356 L 420.513 252.864 A 56.55 56.55 0 0 1 425.769 240.175 L 405.955 214.008 L 421.008 198.955 L 447.175 218.769 A 56.55 56.55 0 0 1 459.864 213.513 Z M 475 241.9 A 26.1 26.1 0 0 0 475 294.1 A 26.1 26.1 0 0 0 475 241.9" bx:shape="cog 475 268 26.1 56.55 87 0.38 8 1@36eb139e"/>
  <ellipse style="stroke: rgb(0, 0, 0); fill: rgb(255, 156, 0);" cx="43.581" cy="46.008" rx="11.069" ry="11.655"/>
  <ellipse style="stroke: rgb(0, 0, 0); fill: rgb(149, 149, 149);" cx="43.432" cy="46.039" rx="7.479" ry="8.294"/>
  <path style="stroke: rgb(0, 0, 0); stroke-miterlimit: 4.63; stroke-width: 7.48475px; fill: rgb(255, 156, 0);" transform="matrix(0.100277, 0, 0, 0.108123, 7.56373, -8.558771)" d="M 464.356 181 L 485.644 181 L 490.136 213.513 A 56.55 56.55 0 0 1 502.825 218.769 L 528.992 198.955 L 544.045 214.008 L 524.231 240.175 A 56.55 56.55 0 0 1 529.487 252.864 L 562 257.356 L 562 278.644 L 529.487 283.136 A 56.55 56.55 0 0 1 524.231 295.825 L 544.045 321.992 L 528.992 337.045 L 502.825 317.231 A 56.55 56.55 0 0 1 490.136 322.487 L 485.644 355 L 464.356 355 L 459.864 322.487 A 56.55 56.55 0 0 1 447.175 317.231 L 421.008 337.045 L 405.955 321.992 L 425.769 295.825 A 56.55 56.55 0 0 1 420.513 283.136 L 388 278.644 L 388 257.356 L 420.513 252.864 A 56.55 56.55 0 0 1 425.769 240.175 L 405.955 214.008 L 421.008 198.955 L 447.175 218.769 A 56.55 56.55 0 0 1 459.864 213.513 Z M 475 241.9 A 26.1 26.1 0 0 0 475 294.1 A 26.1 26.1 0 0 0 475 241.9" bx:shape="cog 475 268 26.1 56.55 87 0.38 8 1@36eb139e"/>
  <ellipse style="stroke: rgb(0, 0, 0); fill: rgb(255, 156, 0);" cx="65.63" cy="46.008" rx="11.069" ry="11.655"/>
  <rect x="36.326" y="139.435" width="35.031" height="5.42" style="fill: rgb(21, 41, 124);"/>
  <rect x="35.626" y="136.018" width="35.624" height="4.61" style="stroke: rgb(0, 0, 0); fill: rgb(255, 156, 0);"/>
  <path d="M 54.108 -144.269 L 61.073 -139.903 L 58.412 -132.838 L 49.804 -132.838 L 47.143 -139.903 Z" bx:shape="n-gon 54.108 -137.95 7.323 6.319 5 0 1@d67224aa" style="stroke: rgb(0, 0, 0); fill: rgb(119, 77, 10);" transform="matrix(1, 0, 0, -1, 0, 0)"/>
  <path d="M 54.378 -142.696 L 56.673 -139.216 L 55.796 -133.586 L 52.96 -133.586 L 52.083 -139.216 Z" bx:shape="n-gon 54.378 -137.66 2.413 5.036 5 0 1@44ef1282" style="stroke: rgb(0, 0, 0); fill: rgb(0, 234, 255);" transform="matrix(1, 0, 0, -1, 0, 0)"/>
  <rect x="71.416" y="120.542" width="11.233" height="5.665" style="stroke: rgb(0, 0, 0); fill: rgb(14, 29, 91);"/>
  <rect x="70.494" y="124.577" width="13.139" height="25.848" style="stroke: rgb(0, 0, 0); fill: rgb(21, 41, 124);"/>
  <path d="M 77.284 129.857 L 84.643 136.943 L 81.832 148.408 L 72.736 148.408 L 69.925 136.943 Z" bx:shape="n-gon 77.284 140.112 7.738 10.255 5 0 1@1048eaaa" style="stroke: rgb(0, 0, 0); fill: rgb(125, 84, 19);"/>
  <path d="M 76.778 135.469 L 84.137 142.555 L 81.326 154.02 L 72.23 154.02 L 69.419 142.555 Z" bx:shape="n-gon 76.778 145.724 7.738 10.255 5 0 1@0bcb7553" style="stroke: rgb(0, 0, 0); fill: rgb(75, 50, 9);"/>
  <path d="M 76.626 141.206 L 84.924 147.377 L 81.754 157.362 L 71.498 157.362 L 68.328 147.377 Z" bx:shape="n-gon 76.626 150.137 8.725 8.931 5 0 1@b2d1092a" style="stroke: rgb(0, 0, 0); fill: rgb(255, 156, 0);"/>
  <ellipse style="stroke: rgb(0, 0, 0); fill: rgb(0, 255, 255);" cx="76.792" cy="153.699" rx="4.155" ry="2.35"/>
  <ellipse style="fill: rgb(96, 96, 96);" cx="45.409" cy="45.89" rx="4.78" ry="6.392"/>
  <ellipse style="stroke: rgb(0, 0, 0); fill: rgb(149, 149, 149);" cx="65.692" cy="45.717" rx="7.479" ry="8.294"/>
  <ellipse style="fill: rgb(96, 96, 96);" cx="67.669" cy="45.568" rx="4.78" ry="6.392"/>
  <path d="M -5.133 71.991 L -5.133 59.705 L -12.558 59.705 L -12.558 65.981 C -11.775 68.801 -10.113 71.018 -8.036 71.991 L -5.133 71.991 Z" style="fill: rgb(216, 216, 216); stroke: rgb(0, 0, 0); stroke-linejoin: round; stroke-linecap: round; transform-origin: -8.846px 65.848px;"/>
</svg>