<?xml version="1.0" encoding="utf-8"?>
<svg xmlns="http://www.w3.org/2000/svg" viewBox="0 0 110 180" width="110px" height="180px" xmlns:bx="https://boxy-svg.com">
  <defs>
    <linearGradient gradientUnits="userSpaceOnUse" x1="16.555" y1="5.154" x2="16.555" y2="27.222" id="gradient-5" gradientTransform="matrix(0.92075, -1.257498, 1.251279, 0.932721, -12.065499, 28.621002)">
      <stop offset="0" style="stop-color: rgb(26.667% 64.706% 38.431%)"/>
      <stop offset="1" style="stop-color: rgb(0% 39.662% 15.739%)"/>
    </linearGradient>
    <linearGradient gradientUnits="userSpaceOnUse" x1="43.08" y1="89.367" x2="43.08" y2="109.039" id="gradient-0" gradientTransform="matrix(1.552848, 0, 0, 1.412954, -328.992119, 25.922069)">
      <stop offset="0" style="stop-color: rgb(8.6275% 32.549% 16.078%)"/>
      <stop offset="1" style="stop-color: rgb(0% 21.246% 5.8187%)"/>
    </linearGradient>
    <linearGradient gradientUnits="userSpaceOnUse" x1="33.017" y1="87.365" x2="33.017" y2="109.039" id="gradient-3" gradientTransform="matrix(1.668197, 0, 0, 1.566338, -331.032539, 15.762767)">
      <stop offset="0" style="stop-color: rgb(26.667% 64.706% 38.431%)"/>
      <stop offset="1" style="stop-color: rgb(0% 39.662% 15.739%)"/>
    </linearGradient>
    <linearGradient gradientUnits="userSpaceOnUse" x1="23.073" y1="55.781" x2="23.073" y2="85.193" id="gradient-1" gradientTransform="matrix(1.528655, 0.010863, -0.010265, 1.617692, -324.690116, 1.784496)">
      <stop offset="0" style="stop-color: rgb(26.667% 64.706% 38.431%)"/>
      <stop offset="1" style="stop-color: rgb(0% 39.662% 15.739%)"/>
    </linearGradient>
    <linearGradient gradientUnits="userSpaceOnUse" x1="69.493" y1="79.943" x2="69.493" y2="125.432" id="gradient-2" gradientTransform="matrix(1, 0, 0, 1, -313.653779, 3.859416)">
      <stop offset="0" style="stop-color: rgb(15.686% 40.392% 23.529%)"/>
      <stop offset="1" style="stop-color: rgb(0% 25.703% 10.208%)"/>
    </linearGradient>
    <linearGradient gradientUnits="userSpaceOnUse" x1="16.555" y1="5.154" x2="16.555" y2="27.222" id="gradient-4" gradientTransform="matrix(0.92075, -1.257498, 1.251279, 0.932721, -12.065499, 28.621002)">
      <stop offset="0" style="stop-color: rgb(26.667% 64.706% 38.431%)"/>
      <stop offset="1" style="stop-color: rgb(0% 39.662% 15.739%)"/>
    </linearGradient>
    <linearGradient gradientUnits="userSpaceOnUse" x1="16.555" y1="5.154" x2="16.555" y2="27.222" id="gradient-6" gradientTransform="matrix(0.92075, -1.257498, 1.251279, 0.932721, -12.065499, 28.621002)">
      <stop offset="0" style="stop-color: rgb(26.667% 64.706% 38.431%)"/>
      <stop offset="1" style="stop-color: rgb(0% 39.662% 15.739%)"/>
    </linearGradient>
    <linearGradient gradientUnits="userSpaceOnUse" x1="69.493" y1="79.943" x2="69.493" y2="125.432" id="gradient-7" gradientTransform="matrix(1, 0, 0, 1, 0.498627, -0.852089)">
      <stop offset="0" style="stop-color: rgb(15.686% 40.392% 23.529%)"/>
      <stop offset="1" style="stop-color: rgb(0% 25.703% 10.208%)"/>
    </linearGradient>
    <linearGradient gradientUnits="userSpaceOnUse" x1="43.08" y1="89.367" x2="43.08" y2="109.039" id="gradient-8" gradientTransform="matrix(1.552848, 0, 0, 1.412954, -14.44317, 21.91728)">
      <stop offset="0" style="stop-color: rgb(8.6275% 32.549% 16.078%)"/>
      <stop offset="1" style="stop-color: rgb(0% 21.246% 5.8187%)"/>
    </linearGradient>
    <linearGradient gradientUnits="userSpaceOnUse" x1="33.017" y1="87.365" x2="33.017" y2="109.039" id="gradient-9" gradientTransform="matrix(1.668197, 0, 0, 1.566338, -17.011078, 5.23049)">
      <stop offset="0" style="stop-color: rgb(26.667% 64.706% 38.431%)"/>
      <stop offset="1" style="stop-color: rgb(0% 39.662% 15.739%)"/>
    </linearGradient>
    <linearGradient gradientUnits="userSpaceOnUse" x1="23.073" y1="55.781" x2="23.073" y2="85.193" id="gradient-10" gradientTransform="matrix(1.528655, 0.010862, -0.010264, 1.617692, -10.668737, -4.747674)">
      <stop offset="0" style="stop-color: rgb(26.667% 64.706% 38.431%)"/>
      <stop offset="1" style="stop-color: rgb(0% 39.662% 15.739%)"/>
    </linearGradient>
    <linearGradient gradientUnits="userSpaceOnUse" x1="16.555" y1="5.154" x2="16.555" y2="27.222" id="gradient-11" gradientTransform="matrix(0.92075, -1.257498, 1.251279, 0.932721, -12.065499, 28.621002)">
      <stop offset="0" style="stop-color: rgb(26.667% 64.706% 38.431%)"/>
      <stop offset="1" style="stop-color: rgb(0% 39.662% 15.739%)"/>
    </linearGradient>
    <linearGradient gradientUnits="userSpaceOnUse" x1="16.555" y1="5.154" x2="16.555" y2="27.222" id="gradient-12" gradientTransform="matrix(0.882903, -1.048887, 0.962207, 0.940419, 18.818217, 23.323229)">
      <stop offset="0" style="stop-color: rgb(26.667% 64.706% 38.431%)"/>
      <stop offset="1" style="stop-color: rgb(0% 39.662% 15.739%)"/>
    </linearGradient>
    <linearGradient gradientUnits="userSpaceOnUse" x1="69.493" y1="79.943" x2="69.493" y2="125.432" id="gradient-13" gradientTransform="matrix(1, 0, 0, 1, -0.025293, 1.050595)">
      <stop offset="0" style="stop-color: rgb(15.686% 40.392% 23.529%)"/>
      <stop offset="1" style="stop-color: rgb(0% 25.703% 10.208%)"/>
    </linearGradient>
    <linearGradient gradientUnits="userSpaceOnUse" x1="43.08" y1="89.367" x2="43.08" y2="109.039" id="gradient-14" gradientTransform="matrix(1.139289, 0, 0, 1.412954, 5.139796, 24.820137)">
      <stop offset="0" style="stop-color: rgb(8.6275% 32.549% 16.078%)"/>
      <stop offset="1" style="stop-color: rgb(0% 21.246% 5.8187%)"/>
    </linearGradient>
    <linearGradient gradientUnits="userSpaceOnUse" x1="33.017" y1="87.365" x2="33.017" y2="109.039" id="gradient-15" gradientTransform="matrix(1.668197, 0, 0, 1.566338, -16.72666, 4.97682)">
      <stop offset="0" style="stop-color: rgb(26.667% 64.706% 38.431%)"/>
      <stop offset="1" style="stop-color: rgb(0% 39.662% 15.739%)"/>
    </linearGradient>
    <linearGradient gradientUnits="userSpaceOnUse" x1="23.073" y1="55.781" x2="23.073" y2="85.193" id="gradient-16" gradientTransform="matrix(1.528655, 0.010862, -0.010264, 1.617691, -3.94884, -4.409385)">
      <stop offset="0" style="stop-color: rgb(26.667% 64.706% 38.431%)"/>
      <stop offset="1" style="stop-color: rgb(0% 39.662% 15.739%)"/>
    </linearGradient>
    <linearGradient gradientUnits="userSpaceOnUse" x1="16.555" y1="5.154" x2="16.555" y2="27.222" id="gradient-17" gradientTransform="matrix(0.912469, -1.023272, 0.934986, 0.967489, -10.735683, 23.937469)">
      <stop offset="0" style="stop-color: rgb(26.667% 64.706% 38.431%)"/>
      <stop offset="1" style="stop-color: rgb(0% 39.662% 15.739%)"/>
    </linearGradient>
    <linearGradient gradientUnits="userSpaceOnUse" x1="16.555" y1="5.154" x2="16.555" y2="27.222" id="gradient-18" gradientTransform="matrix(0.92075, -1.257498, 1.251279, 0.932721, -12.065499, 28.621002)">
      <stop offset="0" style="stop-color: rgb(26.667% 64.706% 38.431%)"/>
      <stop offset="1" style="stop-color: rgb(0% 39.662% 15.739%)"/>
    </linearGradient>
    <linearGradient gradientUnits="userSpaceOnUse" x1="69.493" y1="79.943" x2="69.493" y2="125.432" id="gradient-19" gradientTransform="matrix(0.999999, 0, 0, 0.999999, -0.224094, -1.163135)">
      <stop offset="0" style="stop-color: rgb(15.686% 40.392% 23.529%)"/>
      <stop offset="1" style="stop-color: rgb(0% 25.703% 10.208%)"/>
    </linearGradient>
    <linearGradient gradientUnits="userSpaceOnUse" x1="43.08" y1="89.367" x2="43.08" y2="109.039" id="gradient-20" gradientTransform="matrix(1.281552, 0, 0, 1.412954, -1.975899, 23.605968)">
      <stop offset="0" style="stop-color: rgb(8.6275% 32.549% 16.078%)"/>
      <stop offset="1" style="stop-color: rgb(0% 21.246% 5.8187%)"/>
    </linearGradient>
    <linearGradient gradientUnits="userSpaceOnUse" x1="33.017" y1="87.365" x2="33.017" y2="109.039" id="gradient-21" gradientTransform="matrix(1.668197, 0, 0, 1.566338, -17.734169, 5.919179)">
      <stop offset="0" style="stop-color: rgb(26.667% 64.706% 38.431%)"/>
      <stop offset="1" style="stop-color: rgb(0% 39.662% 15.739%)"/>
    </linearGradient>
    <linearGradient gradientUnits="userSpaceOnUse" x1="23.073" y1="55.781" x2="23.073" y2="85.193" id="gradient-22" gradientTransform="matrix(1.528655, 0.010862, -0.010264, 1.617692, -11.391827, -3.058986)">
      <stop offset="0" style="stop-color: rgb(26.667% 64.706% 38.431%)"/>
      <stop offset="1" style="stop-color: rgb(0% 39.662% 15.739%)"/>
    </linearGradient>
    <linearGradient gradientUnits="userSpaceOnUse" x1="16.555" y1="5.154" x2="16.555" y2="27.222" id="gradient-23" gradientTransform="matrix(0.92075, -1.257498, 1.251279, 0.932721, -12.065499, 28.621002)">
      <stop offset="0" style="stop-color: rgb(26.667% 64.706% 38.431%)"/>
      <stop offset="1" style="stop-color: rgb(0% 39.662% 15.739%)"/>
    </linearGradient>
    <linearGradient gradientUnits="userSpaceOnUse" x1="16.555" y1="5.154" x2="16.555" y2="27.222" id="gradient-24" gradientTransform="matrix(0.92075, -1.257498, 1.251279, 0.932721, -12.065499, 28.621002)">
      <stop offset="0" style="stop-color: rgb(26.667% 64.706% 38.431%)"/>
      <stop offset="1" style="stop-color: rgb(0% 39.662% 15.739%)"/>
    </linearGradient>
    <linearGradient gradientUnits="userSpaceOnUse" x1="69.493" y1="79.943" x2="69.493" y2="125.432" id="gradient-25" gradientTransform="matrix(1, 0, 0, 1, -2.765794, 6.852978)">
      <stop offset="0" style="stop-color: rgb(15.686% 40.392% 23.529%)"/>
      <stop offset="1" style="stop-color: rgb(0% 25.703% 10.208%)"/>
    </linearGradient>
    <linearGradient gradientUnits="userSpaceOnUse" x1="43.08" y1="89.367" x2="43.08" y2="109.039" id="gradient-26" gradientTransform="matrix(1.552848, 0, 0, 1.412954, -16.564636, 21.404886)">
      <stop offset="0" style="stop-color: rgb(8.6275% 32.549% 16.078%)"/>
      <stop offset="1" style="stop-color: rgb(0% 21.246% 5.8187%)"/>
    </linearGradient>
    <linearGradient gradientUnits="userSpaceOnUse" x1="33.017" y1="87.365" x2="33.017" y2="109.039" id="gradient-27" gradientTransform="matrix(1.668197, 0, 0, 1.566338, -18.605042, 6.245584)">
      <stop offset="0" style="stop-color: rgb(26.667% 64.706% 38.431%)"/>
      <stop offset="1" style="stop-color: rgb(0% 39.662% 15.739%)"/>
    </linearGradient>
    <linearGradient gradientUnits="userSpaceOnUse" x1="23.073" y1="55.781" x2="23.073" y2="85.193" id="gradient-28" gradientTransform="matrix(1.528656, 0.010863, -0.010265, 1.617693, -12.262635, -5.732694)">
      <stop offset="0" style="stop-color: rgb(26.667% 64.706% 38.431%)"/>
      <stop offset="1" style="stop-color: rgb(0% 39.662% 15.739%)"/>
    </linearGradient>
    <linearGradient gradientUnits="userSpaceOnUse" x1="16.555" y1="5.154" x2="16.555" y2="27.222" id="gradient-29" gradientTransform="matrix(0.92075, -1.257498, 1.251279, 0.932721, -12.065499, 28.621002)">
      <stop offset="0" style="stop-color: rgb(26.667% 64.706% 38.431%)"/>
      <stop offset="1" style="stop-color: rgb(0% 39.662% 15.739%)"/>
    </linearGradient>
  </defs>
  <g>
    <ellipse style="fill: rgba(0, 0, 0, 0.518);" cx="-286.62" cy="175.524" rx="10.466" ry="1.777"/>
    <g style="transform-origin: 22.829px 19.796px;" transform="matrix(0.836036, 0.083977, -0.089959, 0.895595, -287.541016, 3.183356)">
      <path d="M 11.143 10.54 L 34.442 27.907 C 35.424 27.503 36.541 27.275 37.726 27.274 C 41.647 27.274 44.826 29.779 44.826 32.869 C 44.825 35.959 41.647 38.464 37.726 38.464 C 33.805 38.464 30.626 35.959 30.627 32.869 C 30.626 32.433 30.69 32.009 30.809 31.601 L 21.619 24.75 C 15.6 19.589 11.297 14.947 9.957 12.16 L 11.143 10.54 Z" style="stroke: rgb(0, 0, 0); stroke-linejoin: round; stroke-linecap: round; fill: url(&quot;#gradient-4&quot;);"/>
      <g transform="matrix(1.335116, -0.431347, 0.481542, 1.490481, 2.60658, -0.620358)" style="transform-origin: 11.862px 17.639px;">
        <path d="M 13.052 20.964 L 13.052 26.317 L 10.434 26.317 L 10.434 23.583 C 10.71 22.354 11.297 21.388 12.028 20.964 L 13.052 20.964 Z" style="stroke: rgb(0, 0, 0); stroke-linejoin: round; stroke-linecap: round; fill: rgb(0, 255, 198); transform-box: fill-box; transform-origin: 50% 50%; stroke-width: 0.641198px;" transform="matrix(-0.570538, -0.821271, 0.821271, -0.570538, -0.000001, -0.000002)"/>
        <path d="M 8.896 12.98 L 8.896 18.333 L 6.278 18.333 L 6.278 15.599 C 6.554 14.37 7.141 13.404 7.872 12.98 L 8.896 12.98 Z" style="stroke: rgb(0, 0, 0); stroke-linejoin: round; stroke-linecap: round; fill: rgb(0, 255, 198); transform-origin: 7.587px 15.657px; stroke-width: 0.641194px;" transform="matrix(-0.142092, -0.989853, 0.989853, -0.142092, -0.000002, 0)"/>
        <path d="M 10.662 17.127 L 10.662 22.48 L 8.044 22.48 L 8.044 19.746 C 8.32 18.517 8.907 17.551 9.638 17.127 L 10.662 17.127 Z" style="stroke: rgb(0, 0, 0); stroke-linejoin: round; stroke-linecap: round; fill: rgb(0, 255, 198); transform-origin: 9.353px 19.804px; stroke-width: 0.641197px;" transform="matrix(-0.465849, -0.884864, 0.884864, -0.465849, 0.000001, 0)"/>
        <path d="M 17.44 17.691 L 17.44 12.338 L 14.822 12.338 L 14.822 15.072 C 15.098 16.301 15.685 17.267 16.416 17.691 L 17.44 17.691 Z" style="stroke: rgb(0, 0, 0); stroke-linejoin: round; stroke-linecap: round; fill: rgb(0, 255, 198); transform-origin: 16.131px 15.014px; stroke-width: 0.641199px;" transform="matrix(-0.689551, -0.724237, 0.724237, -0.689551, 0.000001, 0)"/>
        <path d="M 14.93 14.622 L 14.93 9.269 L 12.312 9.269 L 12.312 12.003 C 12.588 13.232 13.175 14.198 13.906 14.622 L 14.93 14.622 Z" style="stroke: rgb(0, 0, 0); stroke-linejoin: round; stroke-linecap: round; fill: rgb(0, 255, 198); transform-origin: 13.621px 11.945px; stroke-width: 0.641199px;" transform="matrix(-0.782727, -0.622365, 0.622365, -0.782727, -0.000002, -0.000002)"/>
      </g>
      <path d="M 25.423 10.751 L 19.403 16.532 L 22.206 19.502 L 25.281 16.549 C 26.368 14.909 26.826 13.2 26.52 11.912 L 25.423 10.751 Z" style="stroke: rgb(0, 0, 0); stroke-linejoin: round; stroke-linecap: round; fill: rgb(0, 255, 198); transform-origin: 23.094px 14.952px;" transform="matrix(0.964438, -0.264309, 0.264309, 0.964438, 0, 0.000001)"/>
    </g>
    <path d="M -250.26 93.162 L -250.32 117.003 L -250.36 117.003 L -250.39 129.285 L -245.62 129.293 C -242.2 128.327 -239.45 126.115 -238.16 123.298 L -238.14 117.023 L -238.18 117.023 L -238.13 96.814 L -237.96 96.814 L -237.93 83.804 L -245.99 93.169 L -250.26 93.162 Z" style="stroke: rgb(0, 0, 0); fill: url(&quot;#gradient-2&quot;); transform-box: fill-box; transform-origin: 47.7589% 50.8357%;" transform="matrix(0.005052, -0.999987, 0.999987, 0.005052, 0.000002, 0.000007)"/>
    <rect x="-270.7" y="152.192" width="17.207" height="27.796" style="stroke: rgb(0, 0, 0); fill: url(&quot;#gradient-0&quot;);"/>
    <rect x="-285.2" y="152.604" width="18.485" height="33.949" style="stroke: rgb(0, 0, 0); fill: url(&quot;#gradient-3&quot;);"/>
    <path d="M -252.01 99.829 L -252.01 178.011 L -257.23 178.011 L -259.51 160.027 L -262.31 178.011 L -267.52 178.011 L -267.52 177.936 L -285.49 177.936 L -285.49 99.697 L -264.77 99.697 L -264.77 99.829 L -252.01 99.829 Z" style="stroke: rgb(0, 0, 0); fill: rgb(27, 66, 228);"/>
    <ellipse style="fill: rgb(21, 41, 124); transform-origin: 31.431px 66.892px;" cx="31.431" cy="66.892" rx="4.248" ry="6.831" transform="matrix(0.860305, -0.509779, 0.516445, 0.856355, -291.970556, 40.61936)"/>
    <ellipse style="fill: rgb(21, 41, 124);" cx="-269.39" cy="102.409" rx="17.022" ry="9.841"/>
    <path d="M -284.66 102.116 L -284.81 127.047 L -284.78 127.047 L -284.85 139.888 L -289.06 139.858 C -292.07 138.822 -294.46 136.487 -295.58 133.532 L -295.54 126.97 L -295.5 126.97 L -295.37 105.837 L -295.52 105.836 L -295.44 92.231 L -288.41 102.089 L -284.66 102.116 Z" style="stroke: rgb(0, 0, 0); fill: url(&quot;#gradient-1&quot;); transform-box: fill-box; transform-origin: 50.977% 51.4663%;" transform="matrix(0.996488, 0.083737, -0.083737, 0.996488, 0.000001, 0)"/>
    <path d="M -238.37 74.862 C -238.37 79.571 -239.4 84.028 -241.24 88.001 C -242.26 91.773 -243.92 94.97 -246.08 97.261 C -245.96 97.487 -245.86 97.729 -245.77 97.981 L -245.28 101.009 L -245.46 101.037 L -245.27 101.111 L -245.56 104.051 C -245.96 105.276 -246.62 106.108 -247.37 106.305 L -248.35 105.94 L -247.84 100.807 L -248.13 99.054 C -249.51 100.028 -251.04 100.679 -252.69 100.948 C -254.21 101.885 -255.83 102.681 -257.51 103.318 L -255.71 107.364 L -256.53 108.009 C -257.31 108.047 -258.2 107.458 -258.96 106.414 L -259.98 104.124 C -262.37 104.783 -264.87 105.133 -267.46 105.133 C -283.52 105.133 -296.55 91.58 -296.55 74.862 C -296.55 58.144 -283.52 44.592 -267.46 44.592 C -251.39 44.592 -238.37 58.144 -238.37 74.862 Z" style="stroke: rgb(0, 0, 0); fill: rgb(38, 123, 67);"/>
    <ellipse style="fill: rgb(56, 154, 89);" cx="-265.28" cy="74.127" rx="26.776" ry="25.876"/>
    <ellipse style="" cx="-242.18" cy="71.216" rx="3.508" ry="12.546"/>
    <ellipse style="" cx="-259.2" cy="73.114" rx="9.419" ry="12.546"/>
    <path d="M -294.73 20.719 C -291.86 15.707 -285.78 11.767 -278.17 10.037 L -268.41 10.037 L -268.41 10.019 L -257.78 10.019 C -250.17 11.75 -244.09 15.69 -241.22 20.702 L -241.22 23.596 L -241.17 23.596 L -241.17 53.391 L -294.79 53.391 L -294.79 23.596 L -294.73 23.596 L -294.73 20.719 Z" style="stroke: rgb(0, 0, 0); stroke-linejoin: round; stroke-linecap: round; fill: rgb(27, 66, 228);"/>
    <path d="M -242.52 26.458 L -242.52 28.914 L -242.5 28.914 L -242.5 54.192 L -246.48 54.192 L -246.48 18.537 C -244.68 20.284 -243.27 23.084 -242.52 26.458 Z" style="stroke-linejoin: round; stroke-linecap: round; fill: rgb(21, 41, 124);"/>
    <path d="M -306.92 55.528 C -305.78 53.31 -303.18 51.537 -299.87 50.7 L -292.5 50.7 L -292.5 50.829 L -238.38 50.829 L -238.38 50.843 L -236.48 50.843 C -233.17 51.679 -230.56 53.452 -229.42 55.67 L -229.42 60.921 C -230.56 63.139 -233.17 64.912 -236.48 65.748 L -238.38 65.748 L -238.38 65.847 L -292.5 65.847 L -292.5 65.891 L -299.87 65.889 C -303.18 65.053 -305.78 63.28 -306.92 61.062 L -306.92 57.962 L -306.92 55.528 Z" style="stroke: rgb(0, 0, 0); stroke-linejoin: round; stroke-linecap: round; fill: rgb(27, 66, 228);"/>
    <path d="M -297.07 47.119 L -285.73 47.326 L -285.73 47.414 L -252.53 47.414 L -252.53 47.314 L -241.19 47.106 L -241.16 49.566 C -242.05 51.345 -244.08 52.79 -246.68 53.503 L -252.47 53.608 L -252.47 53.344 L -285.78 53.344 L -285.78 53.35 L -286.09 53.344 L -289.11 53.344 L -289.11 53.29 L -291.58 53.242 C -294.18 52.56 -296.21 51.175 -297.09 49.472 L -297.07 47.119 Z" style="stroke: rgb(0, 0, 0); stroke-linejoin: round; stroke-linecap: round; fill: rgb(255, 156, 0);"/>
    <g style="transform-origin: 22.8288px 19.7957px;" transform="matrix(0.836036, 0.083977, -0.089959, 0.895595, -316.96521, 4.654562)">
      <path d="M 11.143 10.54 L 34.442 27.907 C 35.424 27.503 36.541 27.275 37.726 27.274 C 41.647 27.274 44.826 29.779 44.826 32.869 C 44.825 35.959 41.647 38.464 37.726 38.464 C 33.805 38.464 30.626 35.959 30.627 32.869 C 30.626 32.433 30.69 32.009 30.809 31.601 L 21.619 24.75 C 15.6 19.589 11.297 14.947 9.957 12.16 L 11.143 10.54 Z" style="stroke: rgb(0, 0, 0); stroke-linejoin: round; stroke-linecap: round; fill: url(&quot;#gradient-5&quot;);"/>
      <g transform="matrix(1.335116, -0.431347, 0.481542, 1.490481, 2.60658, -0.620358)" style="transform-origin: 11.862px 17.639px;">
        <path d="M 13.052 20.964 L 13.052 26.317 L 10.434 26.317 L 10.434 23.583 C 10.71 22.354 11.297 21.388 12.028 20.964 L 13.052 20.964 Z" style="stroke: rgb(0, 0, 0); stroke-linejoin: round; stroke-linecap: round; fill: rgb(0, 255, 198); transform-box: fill-box; transform-origin: 50% 50%; stroke-width: 0.641198px;" transform="matrix(-0.570538, -0.821271, 0.821271, -0.570538, -0.000001, -0.000002)"/>
        <path d="M 8.896 12.98 L 8.896 18.333 L 6.278 18.333 L 6.278 15.599 C 6.554 14.37 7.141 13.404 7.872 12.98 L 8.896 12.98 Z" style="stroke: rgb(0, 0, 0); stroke-linejoin: round; stroke-linecap: round; fill: rgb(0, 255, 198); transform-origin: 7.587px 15.657px; stroke-width: 0.641194px;" transform="matrix(-0.142092, -0.989853, 0.989853, -0.142092, -0.000002, 0)"/>
        <path d="M 10.662 17.127 L 10.662 22.48 L 8.044 22.48 L 8.044 19.746 C 8.32 18.517 8.907 17.551 9.638 17.127 L 10.662 17.127 Z" style="stroke: rgb(0, 0, 0); stroke-linejoin: round; stroke-linecap: round; fill: rgb(0, 255, 198); transform-origin: 9.353px 19.804px; stroke-width: 0.641197px;" transform="matrix(-0.465849, -0.884864, 0.884864, -0.465849, 0.000001, 0)"/>
        <path d="M 17.44 17.691 L 17.44 12.338 L 14.822 12.338 L 14.822 15.072 C 15.098 16.301 15.685 17.267 16.416 17.691 L 17.44 17.691 Z" style="stroke: rgb(0, 0, 0); stroke-linejoin: round; stroke-linecap: round; fill: rgb(0, 255, 198); transform-origin: 16.131px 15.014px; stroke-width: 0.641199px;" transform="matrix(-0.689551, -0.724237, 0.724237, -0.689551, 0.000001, 0)"/>
        <path d="M 14.93 14.622 L 14.93 9.269 L 12.312 9.269 L 12.312 12.003 C 12.588 13.232 13.175 14.198 13.906 14.622 L 14.93 14.622 Z" style="stroke: rgb(0, 0, 0); stroke-linejoin: round; stroke-linecap: round; fill: rgb(0, 255, 198); transform-origin: 13.621px 11.945px; stroke-width: 0.641199px;" transform="matrix(-0.782727, -0.622365, 0.622365, -0.782727, -0.000002, -0.000002)"/>
      </g>
      <path d="M 25.423 10.751 L 19.403 16.532 L 22.206 19.502 L 25.281 16.549 C 26.368 14.909 26.826 13.2 26.52 11.912 L 25.423 10.751 Z" style="stroke: rgb(0, 0, 0); stroke-linejoin: round; stroke-linecap: round; fill: rgb(0, 255, 198); transform-origin: 23.094px 14.952px;" transform="matrix(0.964438, -0.264309, 0.264309, 0.964438, 0, 0.000001)"/>
    </g>
    <ellipse style="stroke: rgb(0, 0, 0); fill: rgb(255, 156, 0);" cx="-253.79" cy="51.387" rx="6.785" ry="11.655"/>
    <ellipse style="stroke: rgb(0, 0, 0); fill: rgb(255, 156, 0);" cx="-243.11" cy="50.607" rx="3.112" ry="9.776"/>
    <g transform="matrix(0.684348, 0, 0, 1.042168, -231.79567, -13.502951)" style="">
      <ellipse style="stroke: rgb(0, 0, 0); fill: rgb(149, 149, 149);" cx="-30.569" cy="62.295" rx="7.479" ry="8.294"/>
      <ellipse style="fill: rgb(96, 96, 96);" cx="-28.592" cy="62.146" rx="4.78" ry="6.392"/>
    </g>
    <ellipse style="stroke: rgb(0, 0, 0); fill: rgb(96, 96, 96);" cx="-242" cy="50.222" rx="1.795" ry="7.944"/>
    <path style="stroke: rgb(0, 0, 0); stroke-miterlimit: 4.63; stroke-width: 7.48475px; fill: rgb(255, 156, 0);" transform="matrix(0.033947, 0, 0, 0.108123, -261.870026, 2.686116)" d="M 464.356 181 L 485.644 181 L 490.136 213.513 A 56.55 56.55 0 0 1 502.825 218.769 L 528.992 198.955 L 544.045 214.008 L 524.231 240.175 A 56.55 56.55 0 0 1 529.487 252.864 L 562 257.356 L 562 278.644 L 529.487 283.136 A 56.55 56.55 0 0 1 524.231 295.825 L 544.045 321.992 L 528.992 337.045 L 502.825 317.231 A 56.55 56.55 0 0 1 490.136 322.487 L 485.644 355 L 464.356 355 L 459.864 322.487 A 56.55 56.55 0 0 1 447.175 317.231 L 421.008 337.045 L 405.955 321.992 L 425.769 295.825 A 56.55 56.55 0 0 1 420.513 283.136 L 388 278.644 L 388 257.356 L 420.513 252.864 A 56.55 56.55 0 0 1 425.769 240.175 L 405.955 214.008 L 421.008 198.955 L 447.175 218.769 A 56.55 56.55 0 0 1 459.864 213.513 Z M 475 241.9 A 26.1 26.1 0 0 0 475 294.1 A 26.1 26.1 0 0 0 475 241.9" bx:shape="cog 475 268 26.1 56.55 87 0.38 8 1@36eb139e"/>
    <rect x="-285.01" y="145.957" width="32.233" height="5.42" style="fill: rgb(21, 41, 124);"/>
    <rect x="-286.62" y="142.54" width="33.409" height="4.61" style="stroke: rgb(0, 0, 0); fill: rgb(255, 156, 0);"/>
    <path d="M -255.79 -150.699 L -251.391 -146.333 L -253.071 -139.268 L -258.509 -139.268 L -260.189 -146.333 Z" bx:shape="n-gon -255.79 -144.38 4.625 6.319 5 0 1@53c31678" style="stroke: rgb(0, 0, 0); fill: rgb(119, 77, 10);" transform="matrix(1, 0, 0, -1, 0, 0)"/>
    <path d="M -255.63 -149.226 L -254.463 -145.746 L -254.909 -140.116 L -256.351 -140.116 L -256.797 -145.746 Z" bx:shape="n-gon -255.63 -144.19 1.227 5.036 5 0 1@22564450" style="stroke: rgb(0, 0, 0); fill: rgb(0, 234, 255);" transform="matrix(1, 0, 0, -1, 0, 0)"/>
    <rect x="121.34" y="120.203" width="16.782" height="5.665" style="stroke: rgb(0, 0, 0); fill: rgb(14, 29, 91);" transform="matrix(-0.001597, -0.999999, 0.999996, -0.003565, -359.456848, 236.970474)"/>
    <rect x="119.962" y="124.238" width="19.63" height="25.848" style="stroke: rgb(0, 0, 0); fill: rgb(21, 41, 124);" transform="matrix(-0.001597, -0.999999, 0.999996, -0.003565, -359.992004, 237.236984)"/>
    <path d="M 87.085 130.633 L 101.811 136.949 L 96.186 147.167 L 77.984 147.167 L 72.359 136.949 Z" bx:shape="n-gon 87.085 139.773 15.484 9.14 5 0 1@efafd5d1" style="stroke: rgb(0, 0, 0); fill: rgb(125, 84, 19);" transform="matrix(-0.001597039861, -0.999998724731, 0.999995582241, -0.003564733713, -360.974319851097, 194.374194791255)"/>
    <path d="M 86.579 134.965 L 99.576 142.165 L 94.612 153.815 L 78.546 153.815 L 73.582 142.165 Z" bx:shape="n-gon 86.579 145.385 13.666 10.42 5 0 1@b6835344" style="stroke: rgb(0, 0, 0); fill: rgb(75, 50, 9);" transform="matrix(-0.001597039745, -0.999998724731, 0.999995582242, -0.003564733248, -360.014512131439, 193.232150617422)"/>
    <path d="M 86.427 142.148 L 99.21 147.434 L 94.327 155.987 L 78.527 155.987 L 73.644 147.434 Z" bx:shape="n-gon 86.427 149.798 13.441 7.65 5 0 1@d2cd822c" style="stroke: rgb(0, 0, 0); fill: rgb(255, 156, 0);" transform="matrix(-0.001597039745, -0.999998724731, 0.999995582242, -0.003564733713, -360.844682304233, 193.284701856061)"/>
    <ellipse style="stroke: rgb(0, 0, 0); fill: rgb(0, 255, 255);" cx="86.593" cy="150.219" rx="7.676" ry="4.121" transform="matrix(-0.001597, -0.999999, 0.999996, -0.003565, -359.471555, 193.479271)"/>
    <ellipse style="fill: rgb(95, 255, 255);" cx="86.593" cy="150.219" rx="5.774" ry="3.176" transform="matrix(-0.001597, -0.999999, 0.999996, -0.003565, -359.155362, 192.468941)"/>
    <ellipse style="fill: rgb(165, 255, 255);" cx="86.593" cy="150.219" rx="3.542" ry="1.829" transform="matrix(-0.001597, -0.999999, 0.999996, -0.003565, -358.146085, 190.837807)"/>
    <ellipse style="fill: rgba(0, 0, 0, 0.518);" cx="-301.87" cy="182.061" rx="10.466" ry="1.777"/>
  </g>
  <g transform="matrix(1, 0, 0, 1, -210.791809, 7.722427)">
    <ellipse style="fill: rgba(0, 0, 0, 0.518);" cx="34.402" cy="168.992" rx="10.466" ry="1.777"/>
    <g style="transform-origin: 22.829px 19.796px;" transform="matrix(0.836036, 0.083977, -0.089959, 0.895595, 26.480444, -3.348921)">
      <path d="M 11.143 10.54 L 34.442 27.907 C 35.424 27.503 36.541 27.275 37.726 27.274 C 41.647 27.274 44.826 29.779 44.826 32.869 C 44.825 35.959 41.647 38.464 37.726 38.464 C 33.805 38.464 30.626 35.959 30.627 32.869 C 30.626 32.433 30.69 32.009 30.809 31.601 L 21.619 24.75 C 15.6 19.589 11.297 14.947 9.957 12.16 L 11.143 10.54 Z" style="stroke: rgb(0, 0, 0); stroke-linejoin: round; stroke-linecap: round; fill: url(&quot;#gradient-6&quot;);"/>
      <g transform="matrix(1.335116, -0.431347, 0.481542, 1.490481, 2.60658, -0.620358)" style="transform-origin: 11.862px 17.639px;">
        <path d="M 13.052 20.964 L 13.052 26.317 L 10.434 26.317 L 10.434 23.583 C 10.71 22.354 11.297 21.388 12.028 20.964 L 13.052 20.964 Z" style="stroke: rgb(0, 0, 0); stroke-linejoin: round; stroke-linecap: round; fill: rgb(0, 255, 198); transform-box: fill-box; transform-origin: 50% 50%; stroke-width: 0.641198px;" transform="matrix(-0.570538, -0.821271, 0.821271, -0.570538, -0.000001, -0.000002)"/>
        <path d="M 8.896 12.98 L 8.896 18.333 L 6.278 18.333 L 6.278 15.599 C 6.554 14.37 7.141 13.404 7.872 12.98 L 8.896 12.98 Z" style="stroke: rgb(0, 0, 0); stroke-linejoin: round; stroke-linecap: round; fill: rgb(0, 255, 198); transform-origin: 7.587px 15.657px; stroke-width: 0.641194px;" transform="matrix(-0.142092, -0.989853, 0.989853, -0.142092, -0.000002, 0)"/>
        <path d="M 10.662 17.127 L 10.662 22.48 L 8.044 22.48 L 8.044 19.746 C 8.32 18.517 8.907 17.551 9.638 17.127 L 10.662 17.127 Z" style="stroke: rgb(0, 0, 0); stroke-linejoin: round; stroke-linecap: round; fill: rgb(0, 255, 198); transform-origin: 9.353px 19.804px; stroke-width: 0.641197px;" transform="matrix(-0.465849, -0.884864, 0.884864, -0.465849, 0.000001, 0)"/>
        <path d="M 17.44 17.691 L 17.44 12.338 L 14.822 12.338 L 14.822 15.072 C 15.098 16.301 15.685 17.267 16.416 17.691 L 17.44 17.691 Z" style="stroke: rgb(0, 0, 0); stroke-linejoin: round; stroke-linecap: round; fill: rgb(0, 255, 198); transform-origin: 16.131px 15.014px; stroke-width: 0.641199px;" transform="matrix(-0.689551, -0.724237, 0.724237, -0.689551, 0.000001, 0)"/>
        <path d="M 14.93 14.622 L 14.93 9.269 L 12.312 9.269 L 12.312 12.003 C 12.588 13.232 13.175 14.198 13.906 14.622 L 14.93 14.622 Z" style="stroke: rgb(0, 0, 0); stroke-linejoin: round; stroke-linecap: round; fill: rgb(0, 255, 198); transform-origin: 13.621px 11.945px; stroke-width: 0.641199px;" transform="matrix(-0.782727, -0.622365, 0.622365, -0.782727, -0.000002, -0.000002)"/>
      </g>
      <path d="M 25.423 10.751 L 19.403 16.532 L 22.206 19.502 L 25.281 16.549 C 26.368 14.909 26.826 13.2 26.52 11.912 L 25.423 10.751 Z" style="stroke: rgb(0, 0, 0); stroke-linejoin: round; stroke-linecap: round; fill: rgb(0, 255, 198); transform-origin: 23.094px 14.952px;" transform="matrix(0.964438, -0.264309, 0.264309, 0.964438, 0, 0.000001)"/>
    </g>
    <path d="M 63.892 88.451 L 63.832 112.292 L 63.792 112.292 L 63.762 124.574 L 68.532 124.582 C 71.952 123.616 74.702 121.404 75.992 118.587 L 76.012 112.312 L 75.972 112.312 L 76.022 92.103 L 76.192 92.103 L 76.222 79.093 L 68.162 88.458 L 63.892 88.451 Z" style="stroke: rgb(0, 0, 0); fill: url(&quot;#gradient-7&quot;); transform-origin: 69.713px 102.218px;" transform="matrix(0.09792, -0.995194, 0.995194, 0.09792, 0.000011, 0.00001)"/>
    <rect x="43.849" y="148.187" width="17.207" height="27.796" style="stroke: rgb(0, 0, 0); fill: url(&quot;#gradient-8&quot;);"/>
    <rect x="28.822" y="142.072" width="18.485" height="33.949" style="stroke: rgb(0, 0, 0); fill: url(&quot;#gradient-9&quot;);"/>
    <path d="M 62.012 93.297 L 62.012 171.479 L 56.792 171.479 L 54.512 153.495 L 51.712 171.479 L 46.502 171.479 L 46.502 171.404 L 28.532 171.404 L 28.532 93.165 L 49.252 93.165 L 49.252 93.297 L 62.012 93.297 Z" style="stroke: rgb(0, 0, 0); fill: rgb(27, 66, 228);"/>
    <ellipse style="fill: rgb(21, 41, 124); transform-origin: 31.431px 66.892px;" cx="31.431" cy="66.892" rx="4.248" ry="6.831" transform="matrix(0.860305, -0.509779, 0.516445, 0.856355, 22.050843, 34.086808)"/>
    <ellipse style="fill: rgb(21, 41, 124);" cx="44.632" cy="95.877" rx="17.022" ry="9.841"/>
    <path d="M 29.362 95.584 L 29.212 120.515 L 29.242 120.515 L 29.172 133.356 L 24.962 133.326 C 21.952 132.29 19.562 129.955 18.442 127 L 18.482 120.438 L 18.522 120.438 L 18.652 99.305 L 18.502 99.304 L 18.582 85.699 L 25.612 95.557 L 29.362 95.584 Z" style="stroke: rgb(0, 0, 0); fill: url(&quot;#gradient-10&quot;); transform-origin: 24.009px 110.226px;" transform="matrix(0.999982, -0.005989, 0.005989, 0.999982, 0, 0)"/>
    <path d="M 75.652 68.33 C 75.652 73.039 74.622 77.496 72.782 81.469 C 71.762 85.241 70.102 88.438 67.942 90.729 C 68.062 90.955 68.162 91.197 68.252 91.449 L 68.742 94.477 L 68.562 94.505 L 68.752 94.579 L 68.462 97.519 C 68.062 98.744 67.402 99.576 66.652 99.773 L 65.672 99.408 L 66.182 94.275 L 65.892 92.522 C 64.512 93.496 62.982 94.147 61.332 94.416 C 59.812 95.353 58.192 96.149 56.512 96.786 L 58.312 100.832 L 57.492 101.477 C 56.712 101.515 55.822 100.926 55.062 99.882 L 54.042 97.592 C 51.652 98.251 49.152 98.601 46.562 98.601 C 30.502 98.601 17.472 85.048 17.472 68.33 C 17.472 51.612 30.502 38.06 46.562 38.06 C 62.632 38.06 75.652 51.612 75.652 68.33 Z" style="stroke: rgb(0, 0, 0); fill: rgb(38, 123, 67);"/>
    <ellipse style="fill: rgb(56, 154, 89);" cx="48.742" cy="67.595" rx="26.776" ry="25.876"/>
    <ellipse style="" cx="71.842" cy="63.684" rx="3.508" ry="12.546"/>
    <ellipse style="" cx="53.822" cy="66.582" rx="9.419" ry="12.546"/>
    <path d="M 19.292 14.187 C 22.162 9.175 28.242 5.235 35.852 3.505 L 45.612 3.505 L 45.612 3.487 L 56.242 3.487 C 63.852 5.218 69.932 9.158 72.802 14.17 L 72.802 17.064 L 72.852 17.064 L 72.852 46.859 L 19.232 46.859 L 19.232 17.064 L 19.292 17.064 L 19.292 14.187 Z" style="stroke: rgb(0, 0, 0); stroke-linejoin: round; stroke-linecap: round; fill: rgb(27, 66, 228);"/>
    <path d="M 71.502 19.926 L 71.502 22.382 L 71.522 22.382 L 71.522 47.66 L 67.542 47.66 L 67.542 12.005 C 69.342 13.752 70.752 16.552 71.502 19.926 Z" style="stroke-linejoin: round; stroke-linecap: round; fill: rgb(21, 41, 124);"/>
    <path d="M 7.102 48.996 C 8.242 46.778 10.842 45.005 14.152 44.168 L 21.522 44.168 L 21.522 44.297 L 75.642 44.297 L 75.642 44.311 L 77.542 44.311 C 80.852 45.147 83.462 46.92 84.602 49.138 L 84.602 54.389 C 83.462 56.607 80.852 58.38 77.542 59.216 L 75.642 59.216 L 75.642 59.315 L 21.522 59.315 L 21.522 59.359 L 14.152 59.357 C 10.842 58.521 8.242 56.748 7.102 54.53 L 7.102 51.43 L 7.102 48.996 Z" style="stroke: rgb(0, 0, 0); stroke-linejoin: round; stroke-linecap: round; fill: rgb(27, 66, 228);"/>
    <path d="M 16.952 40.587 L 28.292 40.794 L 28.292 40.882 L 61.492 40.882 L 61.492 40.782 L 72.832 40.574 L 72.862 43.034 C 71.972 44.813 69.942 46.258 67.342 46.971 L 61.552 47.076 L 61.552 46.812 L 28.242 46.812 L 28.242 46.818 L 27.932 46.812 L 24.912 46.812 L 24.912 46.758 L 22.442 46.71 C 19.842 46.028 17.812 44.643 16.932 42.94 L 16.952 40.587 Z" style="stroke: rgb(0, 0, 0); stroke-linejoin: round; stroke-linecap: round; fill: rgb(255, 156, 0);"/>
    <g style="transform-origin: 22.829px 19.796px;" transform="matrix(0.78389, 0.302531, -0.324083, 0.839735, -2.943754, -1.877707)">
      <path d="M 11.143 10.54 L 34.442 27.907 C 35.424 27.503 36.541 27.275 37.726 27.274 C 41.647 27.274 44.826 29.779 44.826 32.869 C 44.825 35.959 41.647 38.464 37.726 38.464 C 33.805 38.464 30.626 35.959 30.627 32.869 C 30.626 32.433 30.69 32.009 30.809 31.601 L 21.619 24.75 C 15.6 19.589 11.297 14.947 9.957 12.16 L 11.143 10.54 Z" style="stroke: rgb(0, 0, 0); stroke-linejoin: round; stroke-linecap: round; fill: url(&quot;#gradient-11&quot;);"/>
      <g transform="matrix(1.335116, -0.431347, 0.481542, 1.490481, 2.60658, -0.620358)" style="transform-origin: 11.862px 17.639px;">
        <path d="M 13.052 20.964 L 13.052 26.317 L 10.434 26.317 L 10.434 23.583 C 10.71 22.354 11.297 21.388 12.028 20.964 L 13.052 20.964 Z" style="stroke: rgb(0, 0, 0); stroke-linejoin: round; stroke-linecap: round; fill: rgb(0, 255, 198); transform-box: fill-box; transform-origin: 50% 50%; stroke-width: 0.641198px;" transform="matrix(-0.570538, -0.821271, 0.821271, -0.570538, -0.000001, -0.000002)"/>
        <path d="M 8.896 12.98 L 8.896 18.333 L 6.278 18.333 L 6.278 15.599 C 6.554 14.37 7.141 13.404 7.872 12.98 L 8.896 12.98 Z" style="stroke: rgb(0, 0, 0); stroke-linejoin: round; stroke-linecap: round; fill: rgb(0, 255, 198); transform-origin: 7.587px 15.657px; stroke-width: 0.641194px;" transform="matrix(-0.142092, -0.989853, 0.989853, -0.142092, -0.000002, 0)"/>
        <path d="M 10.662 17.127 L 10.662 22.48 L 8.044 22.48 L 8.044 19.746 C 8.32 18.517 8.907 17.551 9.638 17.127 L 10.662 17.127 Z" style="stroke: rgb(0, 0, 0); stroke-linejoin: round; stroke-linecap: round; fill: rgb(0, 255, 198); transform-origin: 9.353px 19.804px; stroke-width: 0.641197px;" transform="matrix(-0.465849, -0.884864, 0.884864, -0.465849, 0.000001, 0)"/>
        <path d="M 17.44 17.691 L 17.44 12.338 L 14.822 12.338 L 14.822 15.072 C 15.098 16.301 15.685 17.267 16.416 17.691 L 17.44 17.691 Z" style="stroke: rgb(0, 0, 0); stroke-linejoin: round; stroke-linecap: round; fill: rgb(0, 255, 198); transform-origin: 16.131px 15.014px; stroke-width: 0.641199px;" transform="matrix(-0.689551, -0.724237, 0.724237, -0.689551, 0.000001, 0)"/>
        <path d="M 14.93 14.622 L 14.93 9.269 L 12.312 9.269 L 12.312 12.003 C 12.588 13.232 13.175 14.198 13.906 14.622 L 14.93 14.622 Z" style="stroke: rgb(0, 0, 0); stroke-linejoin: round; stroke-linecap: round; fill: rgb(0, 255, 198); transform-origin: 13.621px 11.945px; stroke-width: 0.641199px;" transform="matrix(-0.782727, -0.622365, 0.622365, -0.782727, -0.000002, -0.000002)"/>
      </g>
      <path d="M 25.423 10.751 L 19.403 16.532 L 22.206 19.502 L 25.281 16.549 C 26.368 14.909 26.826 13.2 26.52 11.912 L 25.423 10.751 Z" style="stroke: rgb(0, 0, 0); stroke-linejoin: round; stroke-linecap: round; fill: rgb(0, 255, 198); transform-origin: 23.094px 14.952px;" transform="matrix(0.964438, -0.264309, 0.264309, 0.964438, 0, 0.000001)"/>
    </g>
    <ellipse style="stroke: rgb(0, 0, 0); fill: rgb(255, 156, 0);" cx="60.232" cy="44.855" rx="6.785" ry="11.655"/>
    <ellipse style="stroke: rgb(0, 0, 0); fill: rgb(255, 156, 0);" cx="70.912" cy="44.075" rx="3.112" ry="9.776"/>
    <g transform="matrix(0.684348, 0, 0, 1.042168, 82.225784, -20.035227)" style="">
      <ellipse style="stroke: rgb(0, 0, 0); fill: rgb(149, 149, 149);" cx="-30.569" cy="62.295" rx="7.479" ry="8.294"/>
      <ellipse style="fill: rgb(96, 96, 96);" cx="-28.592" cy="62.146" rx="4.78" ry="6.392"/>
    </g>
    <ellipse style="stroke: rgb(0, 0, 0); fill: rgb(96, 96, 96);" cx="72.022" cy="43.69" rx="1.795" ry="7.944"/>
    <path style="stroke: rgb(0, 0, 0); stroke-miterlimit: 4.63; stroke-width: 7.48475px; fill: rgb(255, 156, 0);" transform="matrix(0.033947, 0, 0, 0.108123, 52.151447, -3.846161)" d="M 464.356 181 L 485.644 181 L 490.136 213.513 A 56.55 56.55 0 0 1 502.825 218.769 L 528.992 198.955 L 544.045 214.008 L 524.231 240.175 A 56.55 56.55 0 0 1 529.487 252.864 L 562 257.356 L 562 278.644 L 529.487 283.136 A 56.55 56.55 0 0 1 524.231 295.825 L 544.045 321.992 L 528.992 337.045 L 502.825 317.231 A 56.55 56.55 0 0 1 490.136 322.487 L 485.644 355 L 464.356 355 L 459.864 322.487 A 56.55 56.55 0 0 1 447.175 317.231 L 421.008 337.045 L 405.955 321.992 L 425.769 295.825 A 56.55 56.55 0 0 1 420.513 283.136 L 388 278.644 L 388 257.356 L 420.513 252.864 A 56.55 56.55 0 0 1 425.769 240.175 L 405.955 214.008 L 421.008 198.955 L 447.175 218.769 A 56.55 56.55 0 0 1 459.864 213.513 Z M 475 241.9 A 26.1 26.1 0 0 0 475 294.1 A 26.1 26.1 0 0 0 475 241.9" bx:shape="cog 475 268 26.1 56.55 87 0.38 8 1@36eb139e"/>
    <rect x="29.012" y="139.425" width="32.233" height="5.42" style="fill: rgb(21, 41, 124);"/>
    <rect x="27.402" y="136.008" width="33.409" height="4.61" style="stroke: rgb(0, 0, 0); fill: rgb(255, 156, 0);"/>
    <path d="M 58.232 -144.159 L 62.631 -139.793 L 60.951 -132.728 L 55.513 -132.728 L 53.833 -139.793 Z" bx:shape="n-gon 58.232 -137.84 4.625 6.319 5 0 1@7dd0e3f9" style="stroke: rgb(0, 0, 0); fill: rgb(119, 77, 10);" transform="matrix(1, 0, 0, -1, 0, 0)"/>
    <path d="M 58.392 -142.686 L 59.559 -139.206 L 59.113 -133.576 L 57.671 -133.576 L 57.225 -139.206 Z" bx:shape="n-gon 58.392 -137.65 1.227 5.036 5 0 1@c9dc196a" style="stroke: rgb(0, 0, 0); fill: rgb(0, 234, 255);" transform="matrix(1, 0, 0, -1, 0, 0)"/>
    <g transform="matrix(0.987956, 0.154733, -0.154733, 0.987956, -1.040501, 5.332662)" style="transform-origin: 91.7959px 100.262px;">
      <rect x="121.34" y="120.203" width="16.782" height="5.665" style="stroke: rgb(0, 0, 0); fill: rgb(14, 29, 91);" transform="matrix(-0.001597, -0.999999, 0.999996, -0.003565, -45.43539, 230.438202)"/>
      <rect x="119.962" y="124.238" width="19.63" height="25.848" style="stroke: rgb(0, 0, 0); fill: rgb(21, 41, 124);" transform="matrix(-0.001597, -0.999999, 0.999996, -0.003565, -45.970547, 230.704712)"/>
      <path d="M 87.085 130.633 L 101.811 136.949 L 96.186 147.167 L 77.984 147.167 L 72.359 136.949 Z" bx:shape="n-gon 87.085 139.773 15.484 9.14 5 0 1@efafd5d1" style="stroke: rgb(0, 0, 0); fill: rgb(125, 84, 19);" transform="matrix(-0.001597002375, -0.999998724791, 0.999995581878, -0.003565007288, -46.953037604291, 187.84202926895)"/>
      <path d="M 86.579 134.965 L 99.576 142.165 L 94.612 153.815 L 78.546 153.815 L 73.582 142.165 Z" bx:shape="n-gon 86.579 145.385 13.666 10.42 5 0 1@b6835344" style="stroke: rgb(0, 0, 0); fill: rgb(75, 50, 9);" transform="matrix(-0.001597002375, -0.999998724791, 0.999995581878, -0.003565007288, -45.993229882453, 186.699985095062)"/>
      <path d="M 86.427 142.148 L 99.21 147.434 L 94.327 155.987 L 78.527 155.987 L 73.644 147.434 Z" bx:shape="n-gon 86.427 149.798 13.441 7.65 5 0 1@d2cd822c" style="stroke: rgb(0, 0, 0); fill: rgb(255, 156, 0);" transform="matrix(-0.001597002375, -0.999998724791, 0.999995581878, -0.003565007288, -46.823403868448, 186.752536333687)"/>
      <ellipse style="stroke: rgb(0, 0, 0); fill: rgb(0, 255, 255);" cx="86.593" cy="150.219" rx="7.676" ry="4.121" transform="matrix(-0.001597, -0.999999, 0.999996, -0.003565, -45.44951, 186.946861)"/>
      <ellipse style="fill: rgb(95, 255, 255);" cx="86.593" cy="150.219" rx="5.774" ry="3.176" transform="matrix(-0.001597, -0.999999, 0.999996, -0.003565, -45.133317, 185.936531)"/>
      <ellipse style="fill: rgb(165, 255, 255);" cx="86.593" cy="150.219" rx="3.542" ry="1.829" transform="matrix(-0.001597, -0.999999, 0.999996, -0.003565, -44.124025, 184.305397)"/>
    </g>
    <ellipse style="fill: rgba(0, 0, 0, 0.518);" cx="18.593" cy="176.049" rx="10.466" ry="1.777"/>
  </g>
  <g transform="matrix(1, 0, 0, 1, -111.696564, 8.227242)">
    <ellipse style="fill: rgba(0, 0, 0, 0.518);" cx="30.556" cy="172.477" rx="10.466" ry="1.777"/>
    <path d="M 39.848 9.082 L 57.765 26.592 C 58.622 26.313 59.576 26.202 60.567 26.301 C 63.845 26.63 66.277 29.14 66 31.908 C 65.721 34.676 62.838 36.652 59.56 36.323 C 56.282 35.993 53.849 33.483 54.128 30.715 C 54.167 30.325 54.259 29.951 54.395 29.595 L 47.328 22.688 C 42.76 17.56 39.58 13.042 38.71 10.433 L 39.848 9.082 Z" style="stroke: rgb(0, 0, 0); stroke-linejoin: round; stroke-linecap: round; fill: url(&quot;#gradient-12&quot;); transform-origin: 52.15px 22.948px;"/>
    <g transform="matrix(1.155009, -0.274193, 0.268504, 1.375306, 30.183397, -2.478533)" style="transform-origin: 11.862px 17.639px;">
      <path d="M 13.052 20.964 L 13.052 26.317 L 10.434 26.317 L 10.434 23.583 C 10.71 22.354 11.297 21.388 12.028 20.964 L 13.052 20.964 Z" style="stroke: rgb(0, 0, 0); stroke-linejoin: round; stroke-linecap: round; fill: rgb(0, 255, 198); transform-box: fill-box; transform-origin: 50% 50%; stroke-width: 0.641198px;" transform="matrix(-0.570538, -0.821271, 0.821271, -0.570538, -0.000001, -0.000002)"/>
      <path d="M 8.896 12.98 L 8.896 18.333 L 6.278 18.333 L 6.278 15.599 C 6.554 14.37 7.141 13.404 7.872 12.98 L 8.896 12.98 Z" style="stroke: rgb(0, 0, 0); stroke-linejoin: round; stroke-linecap: round; fill: rgb(0, 255, 198); transform-origin: 7.587px 15.657px; stroke-width: 0.641194px;" transform="matrix(-0.142092, -0.989853, 0.989853, -0.142092, -0.000002, 0)"/>
      <path d="M 10.662 17.127 L 10.662 22.48 L 8.044 22.48 L 8.044 19.746 C 8.32 18.517 8.907 17.551 9.638 17.127 L 10.662 17.127 Z" style="stroke: rgb(0, 0, 0); stroke-linejoin: round; stroke-linecap: round; fill: rgb(0, 255, 198); transform-origin: 9.353px 19.804px; stroke-width: 0.641197px;" transform="matrix(-0.465849, -0.884864, 0.884864, -0.465849, 0.000001, 0)"/>
      <path d="M 17.44 17.691 L 17.44 12.338 L 14.822 12.338 L 14.822 15.072 C 15.098 16.301 15.685 17.267 16.416 17.691 L 17.44 17.691 Z" style="stroke: rgb(0, 0, 0); stroke-linejoin: round; stroke-linecap: round; fill: rgb(0, 255, 198); transform-origin: 16.131px 15.014px; stroke-width: 0.641199px;" transform="matrix(-0.689551, -0.724237, 0.724237, -0.689551, 0.000001, 0)"/>
      <path d="M 14.93 14.622 L 14.93 9.269 L 12.312 9.269 L 12.312 12.003 C 12.588 13.232 13.175 14.198 13.906 14.622 L 14.93 14.622 Z" style="stroke: rgb(0, 0, 0); stroke-linejoin: round; stroke-linecap: round; fill: rgb(0, 255, 198); transform-origin: 13.621px 11.945px; stroke-width: 0.641199px;" transform="matrix(-0.782727, -0.622365, 0.622365, -0.782727, -0.000002, -0.000002)"/>
    </g>
    <path d="M 50.812 9.949 L 46.591 16.008 L 49.316 18.203 L 51.472 15.108 C 52.154 13.486 52.305 11.901 51.878 10.807 L 50.812 9.949 Z" style="stroke: rgb(0, 0, 0); stroke-linejoin: round; stroke-linecap: round; fill: rgb(0, 255, 198); transform-origin: 23.094px 14.952px;"/>
    <path d="M 63.368 90.354 L 63.308 114.195 L 63.268 114.195 L 63.238 126.477 L 68.008 126.485 C 71.428 125.519 74.178 123.307 75.468 120.49 L 75.488 114.215 L 75.448 114.215 L 75.498 94.006 L 75.668 94.006 L 75.698 80.996 L 67.638 90.361 L 63.368 90.354 Z" style="stroke: rgb(0, 0, 0); fill: url(&quot;#gradient-13&quot;); transform-origin: 69.189px 104.121px;" transform="matrix(0.02326, -0.999729, 0.999729, 0.02326, 0.000015, 0.000001)"/>
    <rect x="47.908" y="151.09" width="12.624" height="27.796" style="stroke: rgb(0, 0, 0); fill: url(&quot;#gradient-14&quot;);"/>
    <rect x="29.107" y="141.818" width="18.485" height="33.949" style="stroke: rgb(0, 0, 0); fill: url(&quot;#gradient-15&quot;);"/>
    <path d="M 61.488 95.2 L 61.488 173.382 L 56.268 173.382 L 53.988 155.398 L 51.188 173.382 L 45.978 173.382 L 45.978 173.307 L 28.008 173.307 L 28.008 95.068 L 48.728 95.068 L 48.728 95.2 L 61.488 95.2 Z" style="stroke: rgb(0, 0, 0); fill: rgb(27, 66, 228);"/>
    <ellipse style="fill: rgb(21, 41, 124); transform-origin: 31.431px 66.892px;" cx="31.431" cy="66.892" rx="4.248" ry="6.831" transform="matrix(0.860305, -0.509779, 0.516445, 0.856355, 21.526545, 35.98961)"/>
    <ellipse style="fill: rgb(21, 41, 124);" cx="44.108" cy="97.78" rx="17.022" ry="9.841"/>
    <path d="M 36.082 95.923 L 35.932 120.854 L 35.962 120.854 L 35.892 133.695 L 31.682 133.665 C 28.672 132.629 26.282 130.294 25.162 127.339 L 25.202 120.777 L 25.242 120.777 L 25.372 99.644 L 25.222 99.643 L 25.302 86.038 L 32.332 95.896 L 36.082 95.923 Z" style="stroke: rgb(0, 0, 0); fill: url(&quot;#gradient-16&quot;); transform-origin: 30.729px 110.565px;" transform="matrix(0.879953, -0.475061, 0.475061, 0.879953, 0.000001, -0.000002)"/>
    <path d="M 75.128 70.233 C 75.128 74.942 74.098 79.399 72.258 83.372 C 71.238 87.144 69.578 90.341 67.418 92.632 C 67.538 92.858 67.638 93.1 67.728 93.352 L 68.218 96.38 L 68.038 96.408 L 68.228 96.482 L 67.938 99.422 C 67.538 100.647 66.878 101.479 66.128 101.676 L 65.148 101.311 L 65.658 96.178 L 65.368 94.425 C 63.988 95.399 62.458 96.05 60.808 96.319 C 59.288 97.256 57.668 98.052 55.988 98.689 L 57.788 102.735 L 56.968 103.38 C 56.188 103.418 55.298 102.829 54.538 101.785 L 53.518 99.495 C 51.128 100.154 48.628 100.504 46.038 100.504 C 29.978 100.504 16.948 86.951 16.948 70.233 C 16.948 53.515 29.978 39.963 46.038 39.963 C 62.108 39.963 75.128 53.515 75.128 70.233 Z" style="stroke: rgb(0, 0, 0); fill: rgb(38, 123, 67);"/>
    <ellipse style="fill: rgb(56, 154, 89);" cx="48.218" cy="69.498" rx="26.776" ry="25.876"/>
    <ellipse style="" cx="71.318" cy="65.587" rx="3.508" ry="12.546"/>
    <ellipse style="" cx="53.298" cy="68.485" rx="9.419" ry="12.546"/>
    <path d="M 18.768 16.09 C 21.638 11.078 27.718 7.138 35.328 5.408 L 45.088 5.408 L 45.088 5.39 L 55.718 5.39 C 63.328 7.121 69.408 11.061 72.278 16.073 L 72.278 18.967 L 72.328 18.967 L 72.328 48.762 L 18.708 48.762 L 18.708 18.967 L 18.768 18.967 L 18.768 16.09 Z" style="stroke: rgb(0, 0, 0); stroke-linejoin: round; stroke-linecap: round; fill: rgb(27, 66, 228);"/>
    <path d="M 70.978 21.829 L 70.978 24.285 L 70.998 24.285 L 70.998 49.563 L 67.018 49.563 L 67.018 13.908 C 68.818 15.655 70.228 18.455 70.978 21.829 Z" style="stroke-linejoin: round; stroke-linecap: round; fill: rgb(21, 41, 124);"/>
    <path d="M 6.578 50.899 C 7.718 48.681 10.318 46.908 13.628 46.071 L 20.998 46.071 L 20.998 46.2 L 75.118 46.2 L 75.118 46.214 L 77.018 46.214 C 80.328 47.05 82.938 48.823 84.078 51.041 L 84.078 56.292 C 82.938 58.51 80.328 60.283 77.018 61.119 L 75.118 61.119 L 75.118 61.218 L 20.998 61.218 L 20.998 61.262 L 13.628 61.26 C 10.318 60.424 7.718 58.651 6.578 56.433 L 6.578 53.333 L 6.578 50.899 Z" style="stroke: rgb(0, 0, 0); stroke-linejoin: round; stroke-linecap: round; fill: rgb(27, 66, 228);"/>
    <path d="M 16.428 42.49 L 27.768 42.697 L 27.768 42.785 L 60.968 42.785 L 60.968 42.685 L 72.308 42.477 L 72.338 44.937 C 71.448 46.716 69.418 48.161 66.818 48.874 L 61.028 48.979 L 61.028 48.715 L 27.718 48.715 L 27.718 48.721 L 27.408 48.715 L 24.388 48.715 L 24.388 48.661 L 21.918 48.613 C 19.318 47.931 17.288 46.546 16.408 44.843 L 16.428 42.49 Z" style="stroke: rgb(0, 0, 0); stroke-linejoin: round; stroke-linecap: round; fill: rgb(255, 156, 0);"/>
    <path d="M 10.692 10.303 L 28.101 28.318 C 28.967 28.063 29.923 27.98 30.911 28.107 C 34.178 28.529 36.538 31.108 36.181 33.867 C 35.824 36.625 32.886 38.518 29.619 38.096 C 26.352 37.673 23.992 35.094 24.35 32.336 C 24.398 31.947 24.501 31.575 24.647 31.224 L 17.78 24.117 C 13.361 18.861 10.311 14.254 9.516 11.621 L 10.692 10.303 Z" style="stroke: rgb(0, 0, 0); stroke-linejoin: round; stroke-linecap: round; fill: url(&quot;#gradient-17&quot;); transform-origin: 22.586px 24.514px;"/>
    <g transform="matrix(1.162362, -0.241129, 0.229157, 1.382408, 0.852939, -1.198307)" style="transform-origin: 11.862px 17.639px;">
      <path d="M 13.052 20.964 L 13.052 26.317 L 10.434 26.317 L 10.434 23.583 C 10.71 22.354 11.297 21.388 12.028 20.964 L 13.052 20.964 Z" style="stroke: rgb(0, 0, 0); stroke-linejoin: round; stroke-linecap: round; fill: rgb(0, 255, 198); transform-box: fill-box; transform-origin: 50% 50%; stroke-width: 0.641198px;" transform="matrix(-0.570538, -0.821271, 0.821271, -0.570538, -0.000001, -0.000002)"/>
      <path d="M 8.896 12.98 L 8.896 18.333 L 6.278 18.333 L 6.278 15.599 C 6.554 14.37 7.141 13.404 7.872 12.98 L 8.896 12.98 Z" style="stroke: rgb(0, 0, 0); stroke-linejoin: round; stroke-linecap: round; fill: rgb(0, 255, 198); transform-origin: 7.587px 15.657px; stroke-width: 0.641194px;" transform="matrix(-0.142092, -0.989853, 0.989853, -0.142092, -0.000002, 0)"/>
      <path d="M 10.662 17.127 L 10.662 22.48 L 8.044 22.48 L 8.044 19.746 C 8.32 18.517 8.907 17.551 9.638 17.127 L 10.662 17.127 Z" style="stroke: rgb(0, 0, 0); stroke-linejoin: round; stroke-linecap: round; fill: rgb(0, 255, 198); transform-origin: 9.353px 19.804px; stroke-width: 0.641197px;" transform="matrix(-0.465849, -0.884864, 0.884864, -0.465849, 0.000001, 0)"/>
      <path d="M 17.44 17.691 L 17.44 12.338 L 14.822 12.338 L 14.822 15.072 C 15.098 16.301 15.685 17.267 16.416 17.691 L 17.44 17.691 Z" style="stroke: rgb(0, 0, 0); stroke-linejoin: round; stroke-linecap: round; fill: rgb(0, 255, 198); transform-origin: 16.131px 15.014px; stroke-width: 0.641199px;" transform="matrix(-0.689551, -0.724237, 0.724237, -0.689551, 0.000001, 0)"/>
      <path d="M 14.93 14.622 L 14.93 9.269 L 12.312 9.269 L 12.312 12.003 C 12.588 13.232 13.175 14.198 13.906 14.622 L 14.93 14.622 Z" style="stroke: rgb(0, 0, 0); stroke-linejoin: round; stroke-linecap: round; fill: rgb(0, 255, 198); transform-origin: 13.621px 11.945px; stroke-width: 0.641199px;" transform="matrix(-0.782727, -0.622365, 0.622365, -0.782727, -0.000002, -0.000002)"/>
    </g>
    <path d="M 21.627 11.482 L 17.234 17.418 L 19.896 19.69 L 22.139 16.657 C 22.868 15.055 23.064 13.475 22.668 12.37 L 21.627 11.482 Z" style="stroke: rgb(0, 0, 0); stroke-linejoin: round; stroke-linecap: round; fill: rgb(0, 255, 198); transform-origin: 23.094px 14.952px;"/>
    <ellipse style="stroke: rgb(0, 0, 0); fill: rgb(255, 156, 0);" cx="59.708" cy="46.758" rx="6.785" ry="11.655"/>
    <ellipse style="stroke: rgb(0, 0, 0); fill: rgb(255, 156, 0);" cx="70.388" cy="45.978" rx="3.112" ry="9.776"/>
    <ellipse style="stroke: rgb(0, 0, 0); fill: rgb(149, 149, 149);" cx="60.782" cy="46.789" rx="5.118" ry="8.644"/>
    <ellipse style="fill: rgb(96, 96, 96);" cx="62.135" cy="46.634" rx="3.271" ry="6.662"/>
    <ellipse style="stroke: rgb(0, 0, 0); fill: rgb(96, 96, 96);" cx="71.498" cy="45.593" rx="1.795" ry="7.944"/>
    <path style="stroke: rgb(0, 0, 0); stroke-miterlimit: 4.63; stroke-width: 7.48475px; fill: rgb(255, 156, 0);" transform="matrix(0.033947, 0, 0, 0.108123, 51.627167, -1.943303)" d="M 464.356 181 L 485.644 181 L 490.136 213.513 A 56.55 56.55 0 0 1 502.825 218.769 L 528.992 198.955 L 544.045 214.008 L 524.231 240.175 A 56.55 56.55 0 0 1 529.487 252.864 L 562 257.356 L 562 278.644 L 529.487 283.136 A 56.55 56.55 0 0 1 524.231 295.825 L 544.045 321.992 L 528.992 337.045 L 502.825 317.231 A 56.55 56.55 0 0 1 490.136 322.487 L 485.644 355 L 464.356 355 L 459.864 322.487 A 56.55 56.55 0 0 1 447.175 317.231 L 421.008 337.045 L 405.955 321.992 L 425.769 295.825 A 56.55 56.55 0 0 1 420.513 283.136 L 388 278.644 L 388 257.356 L 420.513 252.864 A 56.55 56.55 0 0 1 425.769 240.175 L 405.955 214.008 L 421.008 198.955 L 447.175 218.769 A 56.55 56.55 0 0 1 459.864 213.513 Z M 475 241.9 A 26.1 26.1 0 0 0 475 294.1 A 26.1 26.1 0 0 0 475 241.9" bx:shape="cog 475 268 26.1 56.55 87 0.38 8 1@36eb139e"/>
    <rect x="28.488" y="141.328" width="32.233" height="5.42" style="fill: rgb(21, 41, 124);"/>
    <rect x="26.878" y="137.911" width="33.409" height="4.61" style="stroke: rgb(0, 0, 0); fill: rgb(255, 156, 0);"/>
    <path d="M 57.708 -146.059 L 62.107 -141.693 L 60.427 -134.628 L 54.989 -134.628 L 53.309 -141.693 Z" bx:shape="n-gon 57.708 -139.74 4.625 6.319 5 0 1@33351b29" style="stroke: rgb(0, 0, 0); fill: rgb(119, 77, 10);" transform="matrix(1, 0, 0, -1, 0, 0)"/>
    <path d="M 57.868 -144.586 L 59.035 -141.106 L 58.589 -135.476 L 57.147 -135.476 L 56.701 -141.106 Z" bx:shape="n-gon 57.868 -139.55 1.227 5.036 5 0 1@98d534b9" style="stroke: rgb(0, 0, 0); fill: rgb(0, 234, 255);" transform="matrix(1, 0, 0, -1, 0, 0)"/>
    <g style="transform-origin: 91.7959px 100.262px;" transform="matrix(0.999046, 0.043675, -0.043675, 0.999046, -0.694058, 4.623436)">
      <rect x="121.34" y="120.203" width="16.782" height="5.665" style="stroke: rgb(0, 0, 0); fill: rgb(14, 29, 91);" transform="matrix(-0.001597, -0.999999, 0.999996, -0.003565, -45.43539, 230.438202)"/>
      <rect x="119.962" y="124.238" width="19.63" height="25.848" style="stroke: rgb(0, 0, 0); fill: rgb(21, 41, 124);" transform="matrix(-0.001597, -0.999999, 0.999996, -0.003565, -45.970547, 230.704712)"/>
      <path d="M 87.085 130.633 L 101.811 136.949 L 96.186 147.167 L 77.984 147.167 L 72.359 136.949 Z" bx:shape="n-gon 87.085 139.773 15.484 9.14 5 0 1@efafd5d1" style="stroke: rgb(0, 0, 0); fill: rgb(125, 84, 19);" transform="matrix(-0.001597002841, -0.99999872479, 0.999995581877, -0.003565007754, -46.953052862849, 187.842044527673)"/>
      <path d="M 86.579 134.965 L 99.576 142.165 L 94.612 153.815 L 78.546 153.815 L 73.582 142.165 Z" bx:shape="n-gon 86.579 145.385 13.666 10.42 5 0 1@b6835344" style="stroke: rgb(0, 0, 0); fill: rgb(75, 50, 9);" transform="matrix(-0.001597002841, -0.99999872479, 0.999995581877, -0.003565007754, -45.993245141002, 186.700000353783)"/>
      <path d="M 86.427 142.148 L 99.21 147.434 L 94.327 155.987 L 78.527 155.987 L 73.644 147.434 Z" bx:shape="n-gon 86.427 149.798 13.441 7.65 5 0 1@d2cd822c" style="stroke: rgb(0, 0, 0); fill: rgb(255, 156, 0);" transform="matrix(-0.001597002841, -0.99999872479, 0.999995581877, -0.003565007754, -46.823419126994, 186.752551592409)"/>
      <ellipse style="stroke: rgb(0, 0, 0); fill: rgb(0, 255, 255);" cx="86.593" cy="150.219" rx="7.676" ry="4.121" transform="matrix(-0.001597, -0.999999, 0.999996, -0.003565, -45.449445, 186.946846)"/>
      <ellipse style="fill: rgb(95, 255, 255);" cx="86.593" cy="150.219" rx="5.774" ry="3.176" transform="matrix(-0.001597, -0.999999, 0.999996, -0.003565, -45.133252, 185.936516)"/>
      <ellipse style="fill: rgb(165, 255, 255);" cx="86.593" cy="150.219" rx="3.542" ry="1.829" transform="matrix(-0.001597, -0.999999, 0.999996, -0.003565, -44.12396, 184.305382)"/>
    </g>
    <ellipse style="fill: rgba(0, 0, 0, 0.518);" cx="36.261" cy="178.19" rx="10.466" ry="0.907"/>
  </g>
  <g transform="matrix(1, 0, 0, 1, -312.794067, 191.307083)">
    <ellipse style="fill: rgba(0, 0, 0, 0.25);" cx="12.226" cy="170.681" rx="10.466" ry="1.777"/>
    <g style="transform-origin: 22.829px 19.796px;" transform="matrix(0.836036, 0.083977, -0.089959, 0.895595, 25.757353, -1.660232)">
      <path d="M 11.143 10.54 L 34.442 27.907 C 35.424 27.503 36.541 27.275 37.726 27.274 C 41.647 27.274 44.826 29.779 44.826 32.869 C 44.825 35.959 41.647 38.464 37.726 38.464 C 33.805 38.464 30.626 35.959 30.627 32.869 C 30.626 32.433 30.69 32.009 30.809 31.601 L 21.619 24.75 C 15.6 19.589 11.297 14.947 9.957 12.16 L 11.143 10.54 Z" style="stroke: rgb(0, 0, 0); stroke-linejoin: round; stroke-linecap: round; fill: url(&quot;#gradient-18&quot;);"/>
      <g transform="matrix(1.335116, -0.431347, 0.481542, 1.490481, 2.60658, -0.620358)" style="transform-origin: 11.862px 17.639px;">
        <path d="M 13.052 20.964 L 13.052 26.317 L 10.434 26.317 L 10.434 23.583 C 10.71 22.354 11.297 21.388 12.028 20.964 L 13.052 20.964 Z" style="stroke: rgb(0, 0, 0); stroke-linejoin: round; stroke-linecap: round; fill: rgb(0, 255, 198); transform-box: fill-box; transform-origin: 50% 50%; stroke-width: 0.641198px;" transform="matrix(-0.570538, -0.821271, 0.821271, -0.570538, -0.000001, -0.000002)"/>
        <path d="M 8.896 12.98 L 8.896 18.333 L 6.278 18.333 L 6.278 15.599 C 6.554 14.37 7.141 13.404 7.872 12.98 L 8.896 12.98 Z" style="stroke: rgb(0, 0, 0); stroke-linejoin: round; stroke-linecap: round; fill: rgb(0, 255, 198); transform-origin: 7.587px 15.657px; stroke-width: 0.641194px;" transform="matrix(-0.142092, -0.989853, 0.989853, -0.142092, -0.000002, 0)"/>
        <path d="M 10.662 17.127 L 10.662 22.48 L 8.044 22.48 L 8.044 19.746 C 8.32 18.517 8.907 17.551 9.638 17.127 L 10.662 17.127 Z" style="stroke: rgb(0, 0, 0); stroke-linejoin: round; stroke-linecap: round; fill: rgb(0, 255, 198); transform-origin: 9.353px 19.804px; stroke-width: 0.641197px;" transform="matrix(-0.465849, -0.884864, 0.884864, -0.465849, 0.000001, 0)"/>
        <path d="M 17.44 17.691 L 17.44 12.338 L 14.822 12.338 L 14.822 15.072 C 15.098 16.301 15.685 17.267 16.416 17.691 L 17.44 17.691 Z" style="stroke: rgb(0, 0, 0); stroke-linejoin: round; stroke-linecap: round; fill: rgb(0, 255, 198); transform-origin: 16.131px 15.014px; stroke-width: 0.641199px;" transform="matrix(-0.689551, -0.724237, 0.724237, -0.689551, 0.000001, 0)"/>
        <path d="M 14.93 14.622 L 14.93 9.269 L 12.312 9.269 L 12.312 12.003 C 12.588 13.232 13.175 14.198 13.906 14.622 L 14.93 14.622 Z" style="stroke: rgb(0, 0, 0); stroke-linejoin: round; stroke-linecap: round; fill: rgb(0, 255, 198); transform-origin: 13.621px 11.945px; stroke-width: 0.641199px;" transform="matrix(-0.782727, -0.622365, 0.622365, -0.782727, -0.000002, -0.000002)"/>
      </g>
      <path d="M 25.423 10.751 L 19.403 16.532 L 22.206 19.502 L 25.281 16.549 C 26.368 14.909 26.826 13.2 26.52 11.912 L 25.423 10.751 Z" style="stroke: rgb(0, 0, 0); stroke-linejoin: round; stroke-linecap: round; fill: rgb(0, 255, 198); transform-origin: 23.094px 14.952px;" transform="matrix(0.964438, -0.264309, 0.264309, 0.964438, 0, 0.000001)"/>
    </g>
    <path d="M 63.169 88.14 L 63.109 111.981 L 63.069 111.981 L 63.039 124.263 L 67.809 124.271 C 71.229 123.305 73.979 121.093 75.269 118.276 L 75.289 112.001 L 75.249 112.001 L 75.299 91.792 L 75.469 91.792 L 75.499 78.782 L 67.439 88.147 L 63.169 88.14 Z" style="stroke: rgb(0, 0, 0); fill: url(&quot;#gradient-19&quot;); transform-origin: 68.99px 101.907px;" transform="matrix(-0.047699, -0.998862, 0.998862, -0.047699, -0.000008, 0.000003)"/>
    <rect x="46.132" y="149.876" width="14.201" height="27.796" style="stroke: rgb(0, 0, 0); fill: url(&quot;#gradient-20&quot;);"/>
    <ellipse style="fill: rgba(0, 0, 0, 0.518);" cx="24.057" cy="176.441" rx="10.466" ry="1.777"/>
    <rect x="28.099" y="142.761" width="18.485" height="33.949" style="stroke: rgb(0, 0, 0); fill: url(&quot;#gradient-21&quot;);"/>
    <path d="M 61.289 94.986 L 61.289 173.168 L 56.069 173.168 L 53.789 155.184 L 50.989 173.168 L 45.779 173.168 L 45.779 173.093 L 27.809 173.093 L 27.809 94.854 L 48.529 94.854 L 48.529 94.986 L 61.289 94.986 Z" style="stroke: rgb(0, 0, 0); fill: rgb(27, 66, 228);"/>
    <ellipse style="fill: rgb(21, 41, 124); transform-origin: 31.431px 66.892px;" cx="31.431" cy="66.892" rx="4.248" ry="6.831" transform="matrix(0.860305, -0.509779, 0.516445, 0.856355, 21.327735, 35.775441)"/>
    <ellipse style="fill: rgb(21, 41, 124);" cx="43.909" cy="97.566" rx="17.022" ry="9.841"/>
    <path d="M 28.639 97.273 L 28.489 122.204 L 28.519 122.204 L 28.449 135.045 L 24.239 135.015 C 21.229 133.979 18.839 131.644 17.719 128.689 L 17.759 122.127 L 17.799 122.127 L 17.929 100.994 L 17.779 100.993 L 17.859 87.388 L 24.889 97.246 L 28.639 97.273 Z" style="stroke: rgb(0, 0, 0); fill: url(&quot;#gradient-22&quot;); transform-origin: 23.286px 111.915px;" transform="matrix(0.999982, -0.005989, 0.005989, 0.999982, 0, 0)"/>
    <path d="M 74.929 70.019 C 74.929 74.728 73.899 79.185 72.059 83.158 C 71.039 86.93 69.379 90.127 67.219 92.418 C 67.339 92.644 67.439 92.886 67.529 93.138 L 68.019 96.166 L 67.839 96.194 L 68.029 96.268 L 67.739 99.208 C 67.339 100.433 66.679 101.265 65.929 101.462 L 64.949 101.097 L 65.459 95.964 L 65.169 94.211 C 63.789 95.185 62.259 95.836 60.609 96.105 C 59.089 97.042 57.469 97.838 55.789 98.475 L 57.589 102.521 L 56.769 103.166 C 55.989 103.204 55.099 102.615 54.339 101.571 L 53.319 99.281 C 50.929 99.94 48.429 100.29 45.839 100.29 C 29.779 100.29 16.749 86.737 16.749 70.019 C 16.749 53.301 29.779 39.749 45.839 39.749 C 61.909 39.749 74.929 53.301 74.929 70.019 Z" style="stroke: rgb(0, 0, 0); fill: rgb(38, 123, 67);"/>
    <ellipse style="fill: rgb(56, 154, 89);" cx="48.019" cy="69.284" rx="26.776" ry="25.876"/>
    <ellipse style="" cx="71.119" cy="65.373" rx="3.508" ry="12.546"/>
    <ellipse style="" cx="53.099" cy="68.271" rx="9.419" ry="12.546"/>
    <path d="M 18.569 15.876 C 21.439 10.864 27.519 6.924 35.129 5.194 L 44.889 5.194 L 44.889 5.176 L 55.519 5.176 C 63.129 6.907 69.209 10.847 72.079 15.859 L 72.079 18.753 L 72.129 18.753 L 72.129 48.548 L 18.509 48.548 L 18.509 18.753 L 18.569 18.753 L 18.569 15.876 Z" style="stroke: rgb(0, 0, 0); stroke-linejoin: round; stroke-linecap: round; fill: rgb(27, 66, 228);"/>
    <path d="M 70.779 21.615 L 70.779 24.071 L 70.799 24.071 L 70.799 49.349 L 66.819 49.349 L 66.819 13.694 C 68.619 15.441 70.029 18.241 70.779 21.615 Z" style="stroke-linejoin: round; stroke-linecap: round; fill: rgb(21, 41, 124);"/>
    <path d="M 6.379 50.685 C 7.519 48.467 10.119 46.694 13.429 45.857 L 20.799 45.857 L 20.799 45.986 L 74.919 45.986 L 74.919 46 L 76.819 46 C 80.129 46.836 82.739 48.609 83.879 50.827 L 83.879 56.078 C 82.739 58.296 80.129 60.069 76.819 60.905 L 74.919 60.905 L 74.919 61.004 L 20.799 61.004 L 20.799 61.048 L 13.429 61.046 C 10.119 60.21 7.519 58.437 6.379 56.219 L 6.379 53.119 L 6.379 50.685 Z" style="stroke: rgb(0, 0, 0); stroke-linejoin: round; stroke-linecap: round; fill: rgb(27, 66, 228);"/>
    <path d="M 16.229 42.276 L 27.569 42.483 L 27.569 42.571 L 60.769 42.571 L 60.769 42.471 L 72.109 42.263 L 72.139 44.723 C 71.249 46.502 69.219 47.947 66.619 48.66 L 60.829 48.765 L 60.829 48.501 L 27.519 48.501 L 27.519 48.507 L 27.209 48.501 L 24.189 48.501 L 24.189 48.447 L 21.719 48.399 C 19.119 47.717 17.089 46.332 16.209 44.629 L 16.229 42.276 Z" style="stroke: rgb(0, 0, 0); stroke-linejoin: round; stroke-linecap: round; fill: rgb(255, 156, 0);"/>
    <g style="transform-origin: 22.829px 19.796px;" transform="matrix(0.794436, 0.273642, -0.293136, 0.851032, -3.666849, -0.189014)">
      <path d="M 11.143 10.54 L 34.442 27.907 C 35.424 27.503 36.541 27.275 37.726 27.274 C 41.647 27.274 44.826 29.779 44.826 32.869 C 44.825 35.959 41.647 38.464 37.726 38.464 C 33.805 38.464 30.626 35.959 30.627 32.869 C 30.626 32.433 30.69 32.009 30.809 31.601 L 21.619 24.75 C 15.6 19.589 11.297 14.947 9.957 12.16 L 11.143 10.54 Z" style="stroke: rgb(0, 0, 0); stroke-linejoin: round; stroke-linecap: round; fill: url(&quot;#gradient-23&quot;);"/>
      <g transform="matrix(1.335116, -0.431347, 0.481542, 1.490481, 2.60658, -0.620358)" style="transform-origin: 11.862px 17.639px;">
        <path d="M 13.052 20.964 L 13.052 26.317 L 10.434 26.317 L 10.434 23.583 C 10.71 22.354 11.297 21.388 12.028 20.964 L 13.052 20.964 Z" style="stroke: rgb(0, 0, 0); stroke-linejoin: round; stroke-linecap: round; fill: rgb(0, 255, 198); transform-box: fill-box; transform-origin: 50% 50%; stroke-width: 0.641198px;" transform="matrix(-0.570538, -0.821271, 0.821271, -0.570538, -0.000001, -0.000002)"/>
        <path d="M 8.896 12.98 L 8.896 18.333 L 6.278 18.333 L 6.278 15.599 C 6.554 14.37 7.141 13.404 7.872 12.98 L 8.896 12.98 Z" style="stroke: rgb(0, 0, 0); stroke-linejoin: round; stroke-linecap: round; fill: rgb(0, 255, 198); transform-origin: 7.587px 15.657px; stroke-width: 0.641194px;" transform="matrix(-0.142092, -0.989853, 0.989853, -0.142092, -0.000002, 0)"/>
        <path d="M 10.662 17.127 L 10.662 22.48 L 8.044 22.48 L 8.044 19.746 C 8.32 18.517 8.907 17.551 9.638 17.127 L 10.662 17.127 Z" style="stroke: rgb(0, 0, 0); stroke-linejoin: round; stroke-linecap: round; fill: rgb(0, 255, 198); transform-origin: 9.353px 19.804px; stroke-width: 0.641197px;" transform="matrix(-0.465849, -0.884864, 0.884864, -0.465849, 0.000001, 0)"/>
        <path d="M 17.44 17.691 L 17.44 12.338 L 14.822 12.338 L 14.822 15.072 C 15.098 16.301 15.685 17.267 16.416 17.691 L 17.44 17.691 Z" style="stroke: rgb(0, 0, 0); stroke-linejoin: round; stroke-linecap: round; fill: rgb(0, 255, 198); transform-origin: 16.131px 15.014px; stroke-width: 0.641199px;" transform="matrix(-0.689551, -0.724237, 0.724237, -0.689551, 0.000001, 0)"/>
        <path d="M 14.93 14.622 L 14.93 9.269 L 12.312 9.269 L 12.312 12.003 C 12.588 13.232 13.175 14.198 13.906 14.622 L 14.93 14.622 Z" style="stroke: rgb(0, 0, 0); stroke-linejoin: round; stroke-linecap: round; fill: rgb(0, 255, 198); transform-origin: 13.621px 11.945px; stroke-width: 0.641199px;" transform="matrix(-0.782727, -0.622365, 0.622365, -0.782727, -0.000002, -0.000002)"/>
      </g>
      <path d="M 25.423 10.751 L 19.403 16.532 L 22.206 19.502 L 25.281 16.549 C 26.368 14.909 26.826 13.2 26.52 11.912 L 25.423 10.751 Z" style="stroke: rgb(0, 0, 0); stroke-linejoin: round; stroke-linecap: round; fill: rgb(0, 255, 198); transform-origin: 23.094px 14.952px;" transform="matrix(0.964438, -0.264309, 0.264309, 0.964438, 0, 0.000001)"/>
    </g>
    <ellipse style="stroke: rgb(0, 0, 0); fill: rgb(255, 156, 0);" cx="59.509" cy="46.544" rx="6.785" ry="11.655"/>
    <ellipse style="stroke: rgb(0, 0, 0); fill: rgb(255, 156, 0);" cx="70.189" cy="45.764" rx="3.112" ry="9.776"/>
    <g transform="matrix(0.684348, 0, 0, 1.042168, 81.502693, -18.346539)" style="">
      <ellipse style="stroke: rgb(0, 0, 0); fill: rgb(149, 149, 149);" cx="-30.569" cy="62.295" rx="7.479" ry="8.294"/>
      <ellipse style="fill: rgb(96, 96, 96);" cx="-28.592" cy="62.146" rx="4.78" ry="6.392"/>
    </g>
    <ellipse style="stroke: rgb(0, 0, 0); fill: rgb(96, 96, 96);" cx="71.299" cy="45.379" rx="1.795" ry="7.944"/>
    <path style="stroke: rgb(0, 0, 0); stroke-miterlimit: 4.63; stroke-width: 7.48475px; fill: rgb(255, 156, 0);" transform="matrix(0.033947, 0, 0, 0.108123, 51.428356, -2.157472)" d="M 464.356 181 L 485.644 181 L 490.136 213.513 A 56.55 56.55 0 0 1 502.825 218.769 L 528.992 198.955 L 544.045 214.008 L 524.231 240.175 A 56.55 56.55 0 0 1 529.487 252.864 L 562 257.356 L 562 278.644 L 529.487 283.136 A 56.55 56.55 0 0 1 524.231 295.825 L 544.045 321.992 L 528.992 337.045 L 502.825 317.231 A 56.55 56.55 0 0 1 490.136 322.487 L 485.644 355 L 464.356 355 L 459.864 322.487 A 56.55 56.55 0 0 1 447.175 317.231 L 421.008 337.045 L 405.955 321.992 L 425.769 295.825 A 56.55 56.55 0 0 1 420.513 283.136 L 388 278.644 L 388 257.356 L 420.513 252.864 A 56.55 56.55 0 0 1 425.769 240.175 L 405.955 214.008 L 421.008 198.955 L 447.175 218.769 A 56.55 56.55 0 0 1 459.864 213.513 Z M 475 241.9 A 26.1 26.1 0 0 0 475 294.1 A 26.1 26.1 0 0 0 475 241.9" bx:shape="cog 475 268 26.1 56.55 87 0.38 8 1@36eb139e"/>
    <rect x="28.289" y="141.114" width="32.233" height="5.42" style="fill: rgb(21, 41, 124);"/>
    <rect x="26.679" y="137.697" width="33.409" height="4.61" style="stroke: rgb(0, 0, 0); fill: rgb(255, 156, 0);"/>
    <path d="M 57.509 -145.849 L 61.908 -141.483 L 60.228 -134.418 L 54.79 -134.418 L 53.11 -141.483 Z" bx:shape="n-gon 57.509 -139.53 4.625 6.319 5 0 1@dd668add" style="stroke: rgb(0, 0, 0); fill: rgb(119, 77, 10);" transform="matrix(1, 0, 0, -1, 0, 0)"/>
    <path d="M 57.669 -144.376 L 58.836 -140.896 L 58.39 -135.266 L 56.948 -135.266 L 56.502 -140.896 Z" bx:shape="n-gon 57.669 -139.34 1.227 5.036 5 0 1@68757366" style="stroke: rgb(0, 0, 0); fill: rgb(0, 234, 255);" transform="matrix(1, 0, 0, -1, 0, 0)"/>
    <g transform="matrix(0.999295, -0.037541, 0.037541, 0.999295, -0.443445, 0.060973)" style="transform-origin: 91.7959px 100.262px;">
      <rect x="121.34" y="120.203" width="16.782" height="5.665" style="stroke: rgb(0, 0, 0); fill: rgb(14, 29, 91);" transform="matrix(-0.001597, -0.999999, 0.999996, -0.003565, -45.43539, 230.438202)"/>
      <rect x="119.962" y="124.238" width="19.63" height="25.848" style="stroke: rgb(0, 0, 0); fill: rgb(21, 41, 124);" transform="matrix(-0.001597, -0.999999, 0.999996, -0.003565, -45.970547, 230.704712)"/>
      <path d="M 87.085 130.633 L 101.811 136.949 L 96.186 147.167 L 77.984 147.167 L 72.359 136.949 Z" bx:shape="n-gon 87.085 139.773 15.484 9.14 5 0 1@efafd5d1" style="stroke: rgb(0, 0, 0); fill: rgb(125, 84, 19);" transform="matrix(-0.001597002375, -0.999998724791, 0.999995581878, -0.003565007288, -46.953037604291, 187.84202926895)"/>
      <path d="M 86.579 134.965 L 99.576 142.165 L 94.612 153.815 L 78.546 153.815 L 73.582 142.165 Z" bx:shape="n-gon 86.579 145.385 13.666 10.42 5 0 1@b6835344" style="stroke: rgb(0, 0, 0); fill: rgb(75, 50, 9);" transform="matrix(-0.001597002375, -0.999998724791, 0.999995581878, -0.003565007288, -45.993229882453, 186.699985095062)"/>
      <path d="M 86.427 142.148 L 99.21 147.434 L 94.327 155.987 L 78.527 155.987 L 73.644 147.434 Z" bx:shape="n-gon 86.427 149.798 13.441 7.65 5 0 1@d2cd822c" style="stroke: rgb(0, 0, 0); fill: rgb(255, 156, 0);" transform="matrix(-0.001597002375, -0.999998724791, 0.999995581878, -0.003565007288, -46.823403868448, 186.752536333687)"/>
      <ellipse style="stroke: rgb(0, 0, 0); fill: rgb(0, 255, 255);" cx="86.593" cy="150.219" rx="7.676" ry="4.121" transform="matrix(-0.001597, -0.999999, 0.999996, -0.003565, -45.44951, 186.946861)"/>
      <ellipse style="fill: rgb(95, 255, 255);" cx="86.593" cy="150.219" rx="5.774" ry="3.176" transform="matrix(-0.001597, -0.999999, 0.999996, -0.003565, -45.133317, 185.936531)"/>
      <ellipse style="fill: rgb(165, 255, 255);" cx="86.593" cy="150.219" rx="3.542" ry="1.829" transform="matrix(-0.001597, -0.999999, 0.999996, -0.003565, -44.124025, 184.305397)"/>
    </g>
  </g>
  <ellipse style="fill: rgba(0, 0, 0, 0.518);" cx="26.807" cy="168.007" rx="10.466" ry="1.777"/>
  <g style="transform-origin: 22.829px 19.796px;" transform="matrix(0.836036, 0.083977, -0.089959, 0.895595, 24.886469, -4.333827)">
    <path d="M 11.143 10.54 L 34.442 27.907 C 35.424 27.503 36.541 27.275 37.726 27.274 C 41.647 27.274 44.826 29.779 44.826 32.869 C 44.825 35.959 41.647 38.464 37.726 38.464 C 33.805 38.464 30.626 35.959 30.627 32.869 C 30.626 32.433 30.69 32.009 30.809 31.601 L 21.619 24.75 C 15.6 19.589 11.297 14.947 9.957 12.16 L 11.143 10.54 Z" style="stroke: rgb(0, 0, 0); stroke-linejoin: round; stroke-linecap: round; fill: url(&quot;#gradient-24&quot;);"/>
    <g transform="matrix(1.335116, -0.431347, 0.481542, 1.490481, 2.60658, -0.620358)" style="transform-origin: 11.862px 17.639px;">
      <path d="M 13.052 20.964 L 13.052 26.317 L 10.434 26.317 L 10.434 23.583 C 10.71 22.354 11.297 21.388 12.028 20.964 L 13.052 20.964 Z" style="stroke: rgb(0, 0, 0); stroke-linejoin: round; stroke-linecap: round; fill: rgb(0, 255, 198); transform-box: fill-box; transform-origin: 50% 50%; stroke-width: 0.641198px;" transform="matrix(-0.570538, -0.821271, 0.821271, -0.570538, -0.000001, -0.000002)"/>
      <path d="M 8.896 12.98 L 8.896 18.333 L 6.278 18.333 L 6.278 15.599 C 6.554 14.37 7.141 13.404 7.872 12.98 L 8.896 12.98 Z" style="stroke: rgb(0, 0, 0); stroke-linejoin: round; stroke-linecap: round; fill: rgb(0, 255, 198); transform-origin: 7.587px 15.657px; stroke-width: 0.641194px;" transform="matrix(-0.142092, -0.989853, 0.989853, -0.142092, -0.000002, 0)"/>
      <path d="M 10.662 17.127 L 10.662 22.48 L 8.044 22.48 L 8.044 19.746 C 8.32 18.517 8.907 17.551 9.638 17.127 L 10.662 17.127 Z" style="stroke: rgb(0, 0, 0); stroke-linejoin: round; stroke-linecap: round; fill: rgb(0, 255, 198); transform-origin: 9.353px 19.804px; stroke-width: 0.641197px;" transform="matrix(-0.465849, -0.884864, 0.884864, -0.465849, 0.000001, 0)"/>
      <path d="M 17.44 17.691 L 17.44 12.338 L 14.822 12.338 L 14.822 15.072 C 15.098 16.301 15.685 17.267 16.416 17.691 L 17.44 17.691 Z" style="stroke: rgb(0, 0, 0); stroke-linejoin: round; stroke-linecap: round; fill: rgb(0, 255, 198); transform-origin: 16.131px 15.014px; stroke-width: 0.641199px;" transform="matrix(-0.689551, -0.724237, 0.724237, -0.689551, 0.000001, 0)"/>
      <path d="M 14.93 14.622 L 14.93 9.269 L 12.312 9.269 L 12.312 12.003 C 12.588 13.232 13.175 14.198 13.906 14.622 L 14.93 14.622 Z" style="stroke: rgb(0, 0, 0); stroke-linejoin: round; stroke-linecap: round; fill: rgb(0, 255, 198); transform-origin: 13.621px 11.945px; stroke-width: 0.641199px;" transform="matrix(-0.782727, -0.622365, 0.622365, -0.782727, -0.000002, -0.000002)"/>
    </g>
    <path d="M 25.423 10.751 L 19.403 16.532 L 22.206 19.502 L 25.281 16.549 C 26.368 14.909 26.826 13.2 26.52 11.912 L 25.423 10.751 Z" style="stroke: rgb(0, 0, 0); stroke-linejoin: round; stroke-linecap: round; fill: rgb(0, 255, 198); transform-origin: 23.094px 14.952px;" transform="matrix(0.964438, -0.264309, 0.264309, 0.964438, 0, 0.000001)"/>
  </g>
  <path d="M 60.628 96.156 L 60.568 119.997 L 60.528 119.997 L 60.498 132.279 L 65.268 132.287 C 68.688 131.321 71.438 129.109 72.728 126.292 L 72.748 120.017 L 72.708 120.017 L 72.758 99.808 L 72.928 99.808 L 72.958 86.798 L 64.898 96.163 L 60.628 96.156 Z" style="stroke: rgb(0, 0, 0); fill: url(&quot;#gradient-25&quot;); transform-box: fill-box; transform-origin: 47.7589% 50.8357%;" transform="matrix(0.590868, -0.806768, 0.806768, 0.590868, -0.000005, -0.000011)"/>
  <rect x="41.727" y="147.675" width="17.207" height="27.796" style="stroke: rgb(0, 0, 0); fill: url(&quot;#gradient-26&quot;);"/>
  <rect x="27.227" y="143.087" width="18.485" height="33.949" style="stroke: rgb(0, 0, 0); fill: url(&quot;#gradient-27&quot;);"/>
  <path d="M 60.417 93.312 L 60.417 171.494 L 55.197 171.494 L 52.917 153.51 L 50.117 171.494 L 44.907 171.494 L 44.907 171.419 L 26.937 171.419 L 26.937 93.18 L 47.657 93.18 L 47.657 93.312 L 60.417 93.312 Z" style="stroke: rgb(0, 0, 0); fill: rgb(27, 66, 228);"/>
  <ellipse style="fill: rgb(21, 41, 124); transform-origin: 31.431px 66.892px;" cx="31.431" cy="66.892" rx="4.248" ry="6.831" transform="matrix(0.860305, -0.509779, 0.516445, 0.856355, 20.456941, 33.10215)"/>
  <ellipse style="fill: rgb(21, 41, 124);" cx="43.037" cy="94.892" rx="17.022" ry="9.841"/>
  <path d="M 27.768 94.599 L 27.618 119.53 L 27.648 119.53 L 27.578 132.371 L 23.368 132.341 C 20.358 131.305 17.968 128.97 16.848 126.015 L 16.888 119.453 L 16.928 119.453 L 17.058 98.32 L 16.908 98.319 L 16.988 84.714 L 24.018 94.572 L 27.768 94.599 Z" style="stroke: rgb(0, 0, 0); fill: url(&quot;#gradient-28&quot;); transform-box: fill-box; transform-origin: 50.977% 51.4663%;" transform="matrix(0.999515, 0.031131, -0.031131, 0.999515, 0, 0)"/>
  <path d="M 74.057 67.345 C 74.057 72.054 73.027 76.511 71.187 80.484 C 70.167 84.256 68.507 87.453 66.347 89.744 C 66.467 89.97 66.567 90.212 66.657 90.464 L 67.147 93.492 L 66.967 93.52 L 67.157 93.594 L 66.867 96.534 C 66.467 97.759 65.807 98.591 65.057 98.788 L 64.077 98.423 L 64.587 93.29 L 64.297 91.537 C 62.917 92.511 61.387 93.162 59.737 93.431 C 58.217 94.368 56.597 95.164 54.917 95.801 L 56.717 99.847 L 55.897 100.492 C 55.117 100.53 54.227 99.941 53.467 98.897 L 52.447 96.607 C 50.057 97.266 47.557 97.616 44.967 97.616 C 28.907 97.616 15.877 84.063 15.877 67.345 C 15.877 50.627 28.907 37.075 44.967 37.075 C 61.037 37.075 74.057 50.627 74.057 67.345 Z" style="stroke: rgb(0, 0, 0); fill: rgb(38, 123, 67);"/>
  <ellipse style="fill: rgb(56, 154, 89);" cx="47.147" cy="66.61" rx="26.776" ry="25.876"/>
  <ellipse style="" cx="70.247" cy="63.699" rx="3.508" ry="12.546"/>
  <ellipse style="" cx="53.227" cy="65.597" rx="9.419" ry="12.546"/>
  <path d="M 17.697 13.202 C 20.567 8.19 26.647 4.25 34.257 2.52 L 44.017 2.52 L 44.017 2.502 L 54.647 2.502 C 62.257 4.233 68.337 8.173 71.207 13.185 L 71.207 16.079 L 71.257 16.079 L 71.257 45.874 L 17.637 45.874 L 17.637 16.079 L 17.697 16.079 L 17.697 13.202 Z" style="stroke: rgb(0, 0, 0); stroke-linejoin: round; stroke-linecap: round; fill: rgb(27, 66, 228);"/>
  <path d="M 69.907 18.941 L 69.907 21.397 L 69.927 21.397 L 69.927 46.675 L 65.947 46.675 L 65.947 11.02 C 67.747 12.767 69.157 15.567 69.907 18.941 Z" style="stroke-linejoin: round; stroke-linecap: round; fill: rgb(21, 41, 124);"/>
  <path d="M 5.507 48.011 C 6.647 45.793 9.247 44.02 12.557 43.183 L 19.927 43.183 L 19.927 43.312 L 74.047 43.312 L 74.047 43.326 L 75.947 43.326 C 79.257 44.162 81.867 45.935 83.007 48.153 L 83.007 53.404 C 81.867 55.622 79.257 57.395 75.947 58.231 L 74.047 58.231 L 74.047 58.33 L 19.927 58.33 L 19.927 58.374 L 12.557 58.372 C 9.247 57.536 6.647 55.763 5.507 53.545 L 5.507 50.445 L 5.507 48.011 Z" style="stroke: rgb(0, 0, 0); stroke-linejoin: round; stroke-linecap: round; fill: rgb(27, 66, 228);"/>
  <path d="M 15.357 39.602 L 26.697 39.809 L 26.697 39.897 L 59.897 39.897 L 59.897 39.797 L 71.237 39.589 L 71.267 42.049 C 70.377 43.828 68.347 45.273 65.747 45.986 L 59.957 46.091 L 59.957 45.827 L 26.647 45.827 L 26.647 45.833 L 26.337 45.827 L 23.317 45.827 L 23.317 45.773 L 20.847 45.725 C 18.247 45.043 16.217 43.658 15.337 41.955 L 15.357 39.602 Z" style="stroke: rgb(0, 0, 0); stroke-linejoin: round; stroke-linecap: round; fill: rgb(255, 156, 0);"/>
  <g style="transform-origin: 22.8288px 19.7957px;" transform="matrix(0.839927, -0.023041, 0.024683, 0.899763, -4.537727, -2.862621)">
    <path d="M 11.143 10.54 L 34.442 27.907 C 35.424 27.503 36.541 27.275 37.726 27.274 C 41.647 27.274 44.826 29.779 44.826 32.869 C 44.825 35.959 41.647 38.464 37.726 38.464 C 33.805 38.464 30.626 35.959 30.627 32.869 C 30.626 32.433 30.69 32.009 30.809 31.601 L 21.619 24.75 C 15.6 19.589 11.297 14.947 9.957 12.16 L 11.143 10.54 Z" style="stroke: rgb(0, 0, 0); stroke-linejoin: round; stroke-linecap: round; fill: url(&quot;#gradient-29&quot;);"/>
    <g transform="matrix(1.335116, -0.431347, 0.481542, 1.490481, 2.60658, -0.620358)" style="transform-origin: 11.862px 17.639px;">
      <path d="M 13.052 20.964 L 13.052 26.317 L 10.434 26.317 L 10.434 23.583 C 10.71 22.354 11.297 21.388 12.028 20.964 L 13.052 20.964 Z" style="stroke: rgb(0, 0, 0); stroke-linejoin: round; stroke-linecap: round; fill: rgb(0, 255, 198); transform-box: fill-box; transform-origin: 50% 50%; stroke-width: 0.641198px;" transform="matrix(-0.570538, -0.821271, 0.821271, -0.570538, -0.000001, -0.000002)"/>
      <path d="M 8.896 12.98 L 8.896 18.333 L 6.278 18.333 L 6.278 15.599 C 6.554 14.37 7.141 13.404 7.872 12.98 L 8.896 12.98 Z" style="stroke: rgb(0, 0, 0); stroke-linejoin: round; stroke-linecap: round; fill: rgb(0, 255, 198); transform-origin: 7.587px 15.657px; stroke-width: 0.641194px;" transform="matrix(-0.142092, -0.989853, 0.989853, -0.142092, -0.000002, 0)"/>
      <path d="M 10.662 17.127 L 10.662 22.48 L 8.044 22.48 L 8.044 19.746 C 8.32 18.517 8.907 17.551 9.638 17.127 L 10.662 17.127 Z" style="stroke: rgb(0, 0, 0); stroke-linejoin: round; stroke-linecap: round; fill: rgb(0, 255, 198); transform-origin: 9.353px 19.804px; stroke-width: 0.641197px;" transform="matrix(-0.465849, -0.884864, 0.884864, -0.465849, 0.000001, 0)"/>
      <path d="M 17.44 17.691 L 17.44 12.338 L 14.822 12.338 L 14.822 15.072 C 15.098 16.301 15.685 17.267 16.416 17.691 L 17.44 17.691 Z" style="stroke: rgb(0, 0, 0); stroke-linejoin: round; stroke-linecap: round; fill: rgb(0, 255, 198); transform-origin: 16.131px 15.014px; stroke-width: 0.641199px;" transform="matrix(-0.689551, -0.724237, 0.724237, -0.689551, 0.000001, 0)"/>
      <path d="M 14.93 14.622 L 14.93 9.269 L 12.312 9.269 L 12.312 12.003 C 12.588 13.232 13.175 14.198 13.906 14.622 L 14.93 14.622 Z" style="stroke: rgb(0, 0, 0); stroke-linejoin: round; stroke-linecap: round; fill: rgb(0, 255, 198); transform-origin: 13.621px 11.945px; stroke-width: 0.641199px;" transform="matrix(-0.782727, -0.622365, 0.622365, -0.782727, -0.000002, -0.000002)"/>
    </g>
    <path d="M 25.423 10.751 L 19.403 16.532 L 22.206 19.502 L 25.281 16.549 C 26.368 14.909 26.826 13.2 26.52 11.912 L 25.423 10.751 Z" style="stroke: rgb(0, 0, 0); stroke-linejoin: round; stroke-linecap: round; fill: rgb(0, 255, 198); transform-origin: 23.094px 14.952px;" transform="matrix(0.964438, -0.264309, 0.264309, 0.964438, 0, 0.000001)"/>
  </g>
  <ellipse style="stroke: rgb(0, 0, 0); fill: rgb(255, 156, 0);" cx="58.637" cy="43.87" rx="6.785" ry="11.655"/>
  <ellipse style="stroke: rgb(0, 0, 0); fill: rgb(255, 156, 0);" cx="69.317" cy="43.09" rx="3.112" ry="9.776"/>
  <g transform="matrix(0.684348, 0, 0, 1.042168, 80.631821, -21.020134)" style="">
    <ellipse style="stroke: rgb(0, 0, 0); fill: rgb(149, 149, 149);" cx="-30.569" cy="62.295" rx="7.479" ry="8.294"/>
    <ellipse style="fill: rgb(96, 96, 96);" cx="-28.592" cy="62.146" rx="4.78" ry="6.392"/>
  </g>
  <ellipse style="stroke: rgb(0, 0, 0); fill: rgb(96, 96, 96);" cx="70.427" cy="42.705" rx="1.795" ry="7.944"/>
  <path style="stroke: rgb(0, 0, 0); stroke-miterlimit: 4.63; stroke-width: 7.48475px; fill: rgb(255, 156, 0);" transform="matrix(0.033947, 0, 0, 0.108123, 50.557465, -4.831067)" d="M 464.356 181 L 485.644 181 L 490.136 213.513 A 56.55 56.55 0 0 1 502.825 218.769 L 528.992 198.955 L 544.045 214.008 L 524.231 240.175 A 56.55 56.55 0 0 1 529.487 252.864 L 562 257.356 L 562 278.644 L 529.487 283.136 A 56.55 56.55 0 0 1 524.231 295.825 L 544.045 321.992 L 528.992 337.045 L 502.825 317.231 A 56.55 56.55 0 0 1 490.136 322.487 L 485.644 355 L 464.356 355 L 459.864 322.487 A 56.55 56.55 0 0 1 447.175 317.231 L 421.008 337.045 L 405.955 321.992 L 425.769 295.825 A 56.55 56.55 0 0 1 420.513 283.136 L 388 278.644 L 388 257.356 L 420.513 252.864 A 56.55 56.55 0 0 1 425.769 240.175 L 405.955 214.008 L 421.008 198.955 L 447.175 218.769 A 56.55 56.55 0 0 1 459.864 213.513 Z M 475 241.9 A 26.1 26.1 0 0 0 475 294.1 A 26.1 26.1 0 0 0 475 241.9" bx:shape="cog 475 268 26.1 56.55 87 0.38 8 1@36eb139e"/>
  <rect x="27.417" y="138.44" width="32.233" height="5.42" style="fill: rgb(21, 41, 124);"/>
  <rect x="26.892" y="135.023" width="32.324" height="4.61" style="stroke: rgb(0, 0, 0); fill: rgb(255, 156, 0);"/>
  <path d="M 56.637 -143.179 L 61.036 -138.813 L 59.356 -131.748 L 53.918 -131.748 L 52.238 -138.813 Z" bx:shape="n-gon 56.637 -136.86 4.625 6.319 5 0 1@aa5129b9" style="stroke: rgb(0, 0, 0); fill: rgb(119, 77, 10);" transform="matrix(1, 0, 0, -1, 0, 0)"/>
  <path d="M -255.63 -149.226 L -254.463 -145.746 L -254.909 -140.116 L -256.351 -140.116 L -256.797 -145.746 Z" bx:shape="n-gon -255.63 -144.19 1.227 5.036 5 0 1@22564450" style="stroke: rgb(0, 0, 0); fill: rgb(0, 234, 255);" transform="matrix(1, 0, 0, -0.999999999999, 312.42749023446, -7.517182826952)"/>
  <g transform="matrix(0.776401, 0.630239, -0.630239, 0.776401, -8.54756, 21.613703)" style="transform-origin: 90.202px 99.277px;">
    <rect x="121.34" y="120.203" width="16.782" height="5.665" style="stroke: rgb(0, 0, 0); fill: rgb(14, 29, 91);" transform="matrix(-0.001597, -0.999999, 0.999996, -0.003565, -47.029358, 229.453293)"/>
    <rect x="119.962" y="124.238" width="19.63" height="25.848" style="stroke: rgb(0, 0, 0); fill: rgb(21, 41, 124);" transform="matrix(-0.001597, -0.999999, 0.999996, -0.003565, -47.564514, 229.719803)"/>
    <path d="M 87.085 130.633 L 101.811 136.949 L 96.186 147.167 L 77.984 147.167 L 72.359 136.949 Z" bx:shape="n-gon 87.085 139.773 15.484 9.14 5 0 1@efafd5d1" style="stroke: rgb(0, 0, 0); fill: rgb(125, 84, 19);" transform="matrix(-0.001597041491, -0.999998724728, 0.999995582237, -0.003564734412, -48.546875392488, 186.857043912119)"/>
    <path d="M 86.579 134.965 L 99.576 142.165 L 94.612 153.815 L 78.546 153.815 L 73.582 142.165 Z" bx:shape="n-gon 86.579 145.385 13.666 10.42 5 0 1@b6835344" style="stroke: rgb(0, 0, 0); fill: rgb(75, 50, 9);" transform="matrix(-0.001597040792, -0.99999872473, 0.999995582239, -0.003564734179, -47.587067672921, 185.714999738368)"/>
    <path d="M 86.427 142.148 L 99.21 147.434 L 94.327 155.987 L 78.527 155.987 L 73.644 147.434 Z" bx:shape="n-gon 86.427 149.798 13.441 7.65 5 0 1@d2cd822c" style="stroke: rgb(0, 0, 0); fill: rgb(255, 156, 0);" transform="matrix(-0.001597040792, -0.99999872473, 0.999995582239, -0.003564734412, -48.417237845754, 185.767550977007)"/>
    <ellipse style="stroke: rgb(0, 0, 0); fill: rgb(0, 255, 255);" cx="86.593" cy="150.219" rx="7.676" ry="4.121" transform="matrix(-0.001597, -0.999999, 0.999996, -0.003565, -47.043939, 185.96209)"/>
    <ellipse style="fill: rgb(95, 255, 255);" cx="86.593" cy="150.219" rx="5.774" ry="3.176" transform="matrix(-0.001597, -0.999999, 0.999996, -0.003565, -46.727746, 184.95176)"/>
    <ellipse style="fill: rgb(165, 255, 255);" cx="86.593" cy="150.219" rx="3.542" ry="1.829" transform="matrix(-0.001597, -0.999999, 0.999996, -0.003565, -45.718469, 183.320626)"/>
  </g>
  <ellipse style="fill: rgba(0, 0, 0, 0.518);" cx="11.557" cy="174.544" rx="10.466" ry="1.777"/>
</svg>