<?xml version="1.0" encoding="utf-8"?>
<svg xmlns="http://www.w3.org/2000/svg" viewBox="0 0 110 180" width="110px" height="180px" xmlns:bx="https://boxy-svg.com">
  <defs>
    <linearGradient gradientUnits="userSpaceOnUse" x1="61.751" y1="4.64" x2="61.751" y2="26.708" id="gradient-6" gradientTransform="matrix(-1.180857, -1.017182, 1.008421, -1.191115, 147.333424, 105.838909)">
      <stop offset="0" style="stop-color: rgb(26.667% 64.706% 38.431%)"/>
      <stop offset="1" style="stop-color: rgb(0% 39.662% 15.739%)"/>
    </linearGradient>
    <linearGradient gradientUnits="userSpaceOnUse" x1="16.555" y1="5.154" x2="16.555" y2="27.222" id="gradient-5" gradientTransform="matrix(1.180857, -1.017182, 1.008421, 1.191115, -15.837139, 22.719149)">
      <stop offset="0" style="stop-color: rgb(26.667% 64.706% 38.431%)"/>
      <stop offset="1" style="stop-color: rgb(0% 39.662% 15.739%)"/>
    </linearGradient>
    <linearGradient gradientUnits="userSpaceOnUse" x1="43.08" y1="89.367" x2="43.08" y2="109.039" id="gradient-0" gradientTransform="matrix(1.634354, 0, 0, 1.566338, -72.147732, -1.729918)">
      <stop offset="0" style="stop-color: rgb(8.6275% 32.549% 16.078%)"/>
      <stop offset="1" style="stop-color: rgb(0% 21.246% 5.8187%)"/>
    </linearGradient>
    <linearGradient gradientUnits="userSpaceOnUse" x1="33.017" y1="87.365" x2="33.017" y2="109.039" id="gradient-3" gradientTransform="matrix(1.668197, 0, 0, 1.40709, -71.354353, 12.182741)">
      <stop offset="0" style="stop-color: rgb(26.667% 64.706% 38.431%)"/>
      <stop offset="1" style="stop-color: rgb(0% 39.662% 15.739%)"/>
    </linearGradient>
    <linearGradient gradientUnits="userSpaceOnUse" x1="28.646" y1="90.587" x2="28.646" y2="141.378" id="gradient-1" gradientTransform="matrix(1, 0, 0, 1, -0.529806, 0.264844)">
      <stop offset="0" style="stop-color: rgb(14.118% 30.98% 19.216%)"/>
      <stop offset="1" style="stop-color: rgb(2.1561% 20.161% 9.3135%)"/>
    </linearGradient>
    <linearGradient gradientUnits="userSpaceOnUse" x1="78.828" y1="91.139" x2="78.828" y2="137.871" id="gradient-2" gradientTransform="matrix(1.000001, 0, 0, 1.000001, -0.000043, -0.000085)">
      <stop offset="0" style="stop-color: rgb(14.118% 30.98% 19.216%)"/>
      <stop offset="1" style="stop-color: rgb(2.1561% 20.161% 9.3135%)"/>
    </linearGradient>
    <linearGradient gradientUnits="userSpaceOnUse" x1="78.828" y1="91.139" x2="78.828" y2="137.871" id="gradient-7" gradientTransform="matrix(1.000001, 0, 0, 1.000001, -2.78895, -4.106063)">
      <stop offset="0" style="stop-color: rgb(14.118% 30.98% 19.216%)"/>
      <stop offset="1" style="stop-color: rgb(2.1561% 20.161% 9.3135%)"/>
    </linearGradient>
    <linearGradient gradientUnits="userSpaceOnUse" x1="16.555" y1="5.154" x2="16.555" y2="27.222" id="gradient-8" gradientTransform="matrix(1.180857, -1.017182, 1.008421, 1.191115, -15.625931, 20.613239)">
      <stop offset="0" style="stop-color: rgb(26.667% 64.706% 38.431%)"/>
      <stop offset="1" style="stop-color: rgb(0% 39.662% 15.739%)"/>
    </linearGradient>
    <linearGradient gradientUnits="userSpaceOnUse" x1="28.646" y1="90.587" x2="28.646" y2="141.378" id="gradient-9" gradientTransform="matrix(1.000001, 0, 0, 1.000001, 1.681385, -3.841163)">
      <stop offset="0" style="stop-color: rgb(14.118% 30.98% 19.216%)"/>
      <stop offset="1" style="stop-color: rgb(2.1561% 20.161% 9.3135%)"/>
    </linearGradient>
    <linearGradient gradientUnits="userSpaceOnUse" x1="33.017" y1="87.365" x2="33.017" y2="109.039" id="gradient-10" gradientTransform="matrix(1.668197, 0, 0, 1.40709, -9.483387, 19.142645)">
      <stop offset="0" style="stop-color: rgb(26.667% 64.706% 38.431%)"/>
      <stop offset="1" style="stop-color: rgb(0% 39.662% 15.739%)"/>
    </linearGradient>
    <linearGradient gradientUnits="userSpaceOnUse" x1="43.08" y1="89.367" x2="43.08" y2="109.039" id="gradient-11" gradientTransform="matrix(1.335044, 0, 0, 1.566338, 4.275585, -2.770015)">
      <stop offset="0" style="stop-color: rgb(8.6275% 32.549% 16.078%)"/>
      <stop offset="1" style="stop-color: rgb(0% 21.246% 5.8187%)"/>
    </linearGradient>
    <linearGradient gradientUnits="userSpaceOnUse" x1="16.555" y1="5.154" x2="16.555" y2="27.222" id="gradient-4" gradientTransform="matrix(1.180857, -1.017182, 1.008421, 1.191115, -15.625931, 20.613239)">
      <stop offset="0" style="stop-color: rgb(26.667% 64.706% 38.431%)"/>
      <stop offset="1" style="stop-color: rgb(0% 39.662% 15.739%)"/>
    </linearGradient>
  </defs>
  <g transform="matrix(1, 0, 0, 1, -117.555138, -4.053626)">
    <path d="M 99.402 9.539 L 77.148 35.825 L 81.037 39.175 L 92.404 25.748 C 97.103 19.361 100.247 13.867 100.923 10.85 L 99.402 9.539 Z" style="stroke: rgb(0, 0, 0); stroke-linejoin: round; stroke-linecap: round; fill: url(&quot;#gradient-6&quot;); transform-origin: 62.098px 10.789px;"/>
    <g transform="matrix(-1.552848, 0, 0, 1.566338, 116.127426, -10.863686)">
      <path d="M 13.052 20.964 L 13.052 26.317 L 10.434 26.317 L 10.434 23.583 C 10.71 22.354 11.297 21.388 12.028 20.964 L 13.052 20.964 Z" style="stroke: rgb(0, 0, 0); stroke-linejoin: round; stroke-linecap: round; fill: rgb(0, 255, 198); transform-box: fill-box; transform-origin: 50% 50%;" transform="matrix(-0.570538, -0.821271, 0.821271, -0.570538, -0.000001, -0.000002)"/>
      <path d="M 8.896 12.98 L 8.896 18.333 L 6.278 18.333 L 6.278 15.599 C 6.554 14.37 7.141 13.404 7.872 12.98 L 8.896 12.98 Z" style="stroke: rgb(0, 0, 0); stroke-linejoin: round; stroke-linecap: round; fill: rgb(0, 255, 198); transform-origin: 7.587px 15.657px;" transform="matrix(-0.142092, -0.989853, 0.989853, -0.142092, -0.000002, 0)"/>
      <path d="M 10.662 17.127 L 10.662 22.48 L 8.044 22.48 L 8.044 19.746 C 8.32 18.517 8.907 17.551 9.638 17.127 L 10.662 17.127 Z" style="stroke: rgb(0, 0, 0); stroke-linejoin: round; stroke-linecap: round; fill: rgb(0, 255, 198); transform-origin: 9.353px 19.804px;" transform="matrix(-0.465849, -0.884864, 0.884864, -0.465849, 0.000001, 0)"/>
      <path d="M 17.44 17.691 L 17.44 12.338 L 14.822 12.338 L 14.822 15.072 C 15.098 16.301 15.685 17.267 16.416 17.691 L 17.44 17.691 Z" style="stroke: rgb(0, 0, 0); stroke-linejoin: round; stroke-linecap: round; fill: rgb(0, 255, 198); transform-origin: 16.131px 15.014px;" transform="matrix(-0.689551, -0.724237, 0.724237, -0.689551, 0.000001, 0)"/>
      <path d="M 14.93 14.622 L 14.93 9.269 L 12.312 9.269 L 12.312 12.003 C 12.588 13.232 13.175 14.198 13.906 14.622 L 14.93 14.622 Z" style="stroke: rgb(0, 0, 0); stroke-linejoin: round; stroke-linecap: round; fill: rgb(0, 255, 198); transform-origin: 13.621px 11.945px;" transform="matrix(-0.782727, -0.622365, 0.622365, -0.782727, -0.000002, -0.000002)"/>
    </g>
    <path d="M 85.287 13.014 L 91.307 18.795 L 88.503 21.765 L 85.429 18.812 C 84.342 17.172 83.884 15.462 84.19 14.175 L 85.287 13.014 Z" style="stroke: rgb(0, 0, 0); stroke-linejoin: round; stroke-linecap: round; fill: rgb(0, 255, 198); transform-origin: 59.958px 6.341px;"/>
    <path d="M 72.993 100.753 L 72.939 125.245 L 72.896 125.245 L 72.869 137.863 L 77.436 137.871 C 80.707 136.878 83.33 134.606 84.57 131.712 L 84.584 125.266 L 84.545 125.266 L 84.593 104.505 L 84.756 104.505 L 84.787 91.139 L 77.077 100.76 L 72.993 100.753 Z" style="stroke: rgb(0, 0, 0); fill: url(&quot;#gradient-2&quot;); transform-box: fill-box; transform-origin: 52.8262% 50.7129%;" transform="matrix(0.975599, -0.219558, 0.219558, 0.975599, 0, 0.000001)"/>
    <path d="M 10.853 10.345 L 33.107 36.63 L 29.218 39.98 L 17.851 26.553 C 13.152 20.166 10.008 14.673 9.332 11.655 L 10.853 10.345 Z" style="stroke: rgb(0, 0, 0); stroke-linejoin: round; stroke-linecap: round; fill: url(&quot;#gradient-5&quot;); transform-origin: 16.902px 11.303px;"/>
    <g transform="matrix(1.552848, 0, 0, 1.566338, -5.870526, -10.058418)">
      <path d="M 13.052 20.964 L 13.052 26.317 L 10.434 26.317 L 10.434 23.583 C 10.71 22.354 11.297 21.388 12.028 20.964 L 13.052 20.964 Z" style="stroke: rgb(0, 0, 0); stroke-linejoin: round; stroke-linecap: round; fill: rgb(0, 255, 198); transform-box: fill-box; transform-origin: 50% 50%;" transform="matrix(-0.570538, -0.821271, 0.821271, -0.570538, -0.000001, -0.000002)"/>
      <path d="M 8.896 12.98 L 8.896 18.333 L 6.278 18.333 L 6.278 15.599 C 6.554 14.37 7.141 13.404 7.872 12.98 L 8.896 12.98 Z" style="stroke: rgb(0, 0, 0); stroke-linejoin: round; stroke-linecap: round; fill: rgb(0, 255, 198); transform-origin: 7.587px 15.657px;" transform="matrix(-0.142092, -0.989853, 0.989853, -0.142092, -0.000002, 0)"/>
      <path d="M 10.662 17.127 L 10.662 22.48 L 8.044 22.48 L 8.044 19.746 C 8.32 18.517 8.907 17.551 9.638 17.127 L 10.662 17.127 Z" style="stroke: rgb(0, 0, 0); stroke-linejoin: round; stroke-linecap: round; fill: rgb(0, 255, 198); transform-origin: 9.353px 19.804px;" transform="matrix(-0.465849, -0.884864, 0.884864, -0.465849, 0.000001, 0)"/>
      <path d="M 17.44 17.691 L 17.44 12.338 L 14.822 12.338 L 14.822 15.072 C 15.098 16.301 15.685 17.267 16.416 17.691 L 17.44 17.691 Z" style="stroke: rgb(0, 0, 0); stroke-linejoin: round; stroke-linecap: round; fill: rgb(0, 255, 198); transform-origin: 16.131px 15.014px;" transform="matrix(-0.689551, -0.724237, 0.724237, -0.689551, 0.000001, 0)"/>
      <path d="M 14.93 14.622 L 14.93 9.269 L 12.312 9.269 L 12.312 12.003 C 12.588 13.232 13.175 14.198 13.906 14.622 L 14.93 14.622 Z" style="stroke: rgb(0, 0, 0); stroke-linejoin: round; stroke-linecap: round; fill: rgb(0, 255, 198); transform-origin: 13.621px 11.945px;" transform="matrix(-0.782727, -0.622365, 0.622365, -0.782727, -0.000002, -0.000002)"/>
    </g>
    <path d="M 24.968 13.819 L 18.948 19.6 L 21.751 22.57 L 24.826 19.617 C 25.913 17.977 26.371 16.268 26.065 14.98 L 24.968 13.819 Z" style="stroke: rgb(0, 0, 0); stroke-linejoin: round; stroke-linecap: round; fill: rgb(0, 255, 198); transform-origin: 19.042px 6.855px;"/>
    <path d="M 33.819 101.387 L 33.654 127.958 L 33.693 127.958 L 33.609 141.643 L 29.217 141.611 C 26.081 140.507 23.58 138.018 22.413 134.869 L 22.457 127.876 L 22.493 127.876 L 22.633 105.353 L 22.474 105.352 L 22.564 90.852 L 29.893 101.359 L 33.819 101.387 Z" style="stroke: rgb(0, 0, 0); fill: url(&quot;#gradient-1&quot;); transform-box: fill-box; transform-origin: 46.7329% 50.9329%;" transform="matrix(0.987106, 0.160069, -0.160069, 0.987106, 0, 0.000001)"/>
    <path d="M 84.663 68.003 C 84.663 81.041 77.405 92.308 66.882 97.621 C 67.019 97.92 67.136 98.235 67.232 98.562 L 67.232 102.357 L 66.881 102.357 L 67.221 102.483 L 65.783 106.024 C 64.67 107.446 63.173 108.336 61.713 108.435 L 59.983 107.803 L 61.72 103.528 L 44.568 103.528 L 44.568 99.611 C 44.128 99.48 43.691 99.338 43.259 99.187 L 43.259 101.966 L 45.77 108.146 L 44.04 108.778 C 42.58 108.679 41.083 107.789 39.97 106.367 L 38.532 102.826 L 38.872 102.7 L 38.521 102.7 L 38.521 98.905 C 38.68 98.365 38.896 97.859 39.158 97.405 C 28.864 92.004 21.8 80.867 21.8 68.003 C 21.8 49.847 35.872 35.13 53.231 35.13 C 70.591 35.13 84.663 49.847 84.663 68.003 Z" style="stroke: rgb(0, 0, 0); fill: rgb(36, 79, 49);"/>
    <g transform="matrix(1, 0, 0, 1, 61.65976, 10.065812)">
      <rect x="-25.518" y="135.113" width="18.485" height="30.497" style="stroke: rgb(0, 0, 0); fill: url(&quot;#gradient-3&quot;);"/>
      <rect x="-10.796" y="138.249" width="18.11" height="30.813" style="stroke: rgb(0, 0, 0); fill: url(&quot;#gradient-0&quot;);"/>
      <path d="M -26.733 92.3 L 8.781 92.3 L 8.781 159.783 L -3.163 159.783 L -8.394 144.26 L -14.789 159.783 L -26.733 159.783 L -26.733 92.3 Z" style="stroke: rgb(0, 0, 0); fill: rgb(27, 66, 228);"/>
      <rect x="-25.841" y="130.014" width="34.433" height="5.42" style="fill: rgb(21, 41, 124);"/>
      <rect x="-26.541" y="126.597" width="35.624" height="4.61" style="stroke: rgb(0, 0, 0); fill: rgb(255, 156, 0);"/>
    </g>
    <path d="M 28.591 14.312 C 31.46 9.3 37.544 5.36 45.155 3.63 L 54.91 3.63 L 54.91 3.612 L 65.539 3.612 C 73.147 5.343 79.232 9.283 82.103 14.295 L 82.103 17.189 L 82.148 17.189 L 82.148 46.984 L 28.535 46.984 L 28.535 17.189 L 28.591 17.189 L 28.591 14.312 Z" style="stroke: rgb(0, 0, 0); stroke-linejoin: round; stroke-linecap: round; fill: rgb(21, 41, 124);"/>
    <ellipse style="fill: rgb(25, 56, 34);" cx="53.037" cy="69.574" rx="30.144" ry="26.022"/>
    <path d="M 12.204 49.121 C 13.469 46.903 16.353 45.13 20.021 44.293 L 28.185 44.293 L 28.185 44.422 L 88.149 44.422 L 88.149 44.436 L 90.254 44.436 C 93.922 45.272 96.806 47.045 98.071 49.263 L 98.071 54.514 C 96.806 56.732 93.922 58.505 90.254 59.341 L 88.149 59.341 L 88.149 59.44 L 28.184 59.44 L 28.184 59.484 L 20.021 59.482 C 16.351 58.646 13.468 56.873 12.202 54.655 L 12.204 51.555 L 12.204 49.121 Z" style="stroke: rgb(0, 0, 0); stroke-linejoin: round; stroke-linecap: round; fill: rgb(21, 41, 124);"/>
    <ellipse style="fill: rgb(9, 16, 49);" cx="55.42" cy="47.138" rx="28.829" ry="6.548"/>
    <path d="M 80.713 13.82 L 80.713 16.426 L 80.772 16.426 L 80.772 43.245 L 64.775 43.245 L 64.775 5.415 C 72.018 7.268 77.703 10.24 80.713 13.82 Z" style="stroke-linejoin: round; stroke-linecap: round; fill: rgb(27, 66, 228);"/>
    <path d="M 28.536 41.203 L 39.36 41.405 L 39.36 41.491 L 71.022 41.491 L 71.022 41.393 L 81.846 41.19 L 81.869 43.592 C 81.026 45.33 79.086 46.742 76.609 47.437 L 71.08 47.54 L 71.077 47.282 L 39.304 47.282 L 39.304 47.288 L 39.01 47.282 L 36.138 47.282 L 36.138 47.229 L 33.776 47.183 C 31.297 46.516 29.358 45.164 28.515 43.501 L 28.536 41.203 Z" style="stroke: rgb(0, 0, 0); stroke-linejoin: round; stroke-linecap: round; fill: rgb(255, 156, 0);"/>
    <path style="stroke: rgb(0, 0, 0); stroke-miterlimit: 4.63; stroke-width: 7.48475px; fill: rgb(255, 156, 0);" transform="matrix(0.10165, 0, 0, 0.104003, 6.675242, 16.671455)" d="M 464.356 181 L 485.644 181 L 490.136 213.513 A 56.55 56.55 0 0 1 502.825 218.769 L 528.992 198.955 L 544.045 214.008 L 524.231 240.175 A 56.55 56.55 0 0 1 529.487 252.864 L 562 257.356 L 562 278.644 L 529.487 283.136 A 56.55 56.55 0 0 1 524.231 295.825 L 544.045 321.992 L 528.992 337.045 L 502.825 317.231 A 56.55 56.55 0 0 1 490.136 322.487 L 485.644 355 L 464.356 355 L 459.864 322.487 A 56.55 56.55 0 0 1 447.175 317.231 L 421.008 337.045 L 405.955 321.992 L 425.769 295.825 A 56.55 56.55 0 0 1 420.513 283.136 L 388 278.644 L 388 257.356 L 420.513 252.864 A 56.55 56.55 0 0 1 425.769 240.175 L 405.955 214.008 L 421.008 198.955 L 447.175 218.769 A 56.55 56.55 0 0 1 459.864 213.513 Z M 475 241.9 A 26.1 26.1 0 0 0 475 294.1 A 26.1 26.1 0 0 0 475 241.9" bx:shape="cog 475 268 26.1 56.55 87 0.38 8 1@36eb139e"/>
    <rect x="71.763" y="120.657" width="11.233" height="5.665" style="stroke: rgb(0, 0, 0); fill: rgb(14, 29, 91);" transform="matrix(0.976687, -0.214666, 0.214666, 0.976687, -21.444481, 18.485434)"/>
    <rect x="70.841" y="124.692" width="13.139" height="25.848" style="stroke: rgb(0, 0, 0); fill: rgb(21, 41, 124);" transform="matrix(0.976687, -0.214666, 0.214666, 0.976687, -21.444481, 18.485434)"/>
    <path d="M 77.631 129.972 L 84.99 137.058 L 82.179 148.523 L 73.083 148.523 L 70.272 137.058 Z" bx:shape="n-gon 77.631 140.227 7.738 10.255 5 0 1@070a14ce" style="stroke: rgb(0, 0, 0); fill: rgb(125, 84, 19);" transform="matrix(0.976687481194, -0.214666168919, 0.214666168919, 0.976687481194, -21.444543523712, 18.48536258781)"/>
    <path d="M 77.125 135.584 L 84.484 142.67 L 81.673 154.135 L 72.577 154.135 L 69.766 142.67 Z" bx:shape="n-gon 77.125 145.839 7.738 10.255 5 0 1@b2fae5cb" style="stroke: rgb(0, 0, 0); fill: rgb(75, 50, 9);" transform="matrix(0.976687481194, -0.214666168919, 0.214666168919, 0.976687481194, -21.44454355998, 18.485358487761)"/>
    <path d="M 76.973 141.321 L 85.271 147.492 L 82.101 157.477 L 71.845 157.477 L 68.675 147.492 Z" bx:shape="n-gon 76.973 150.252 8.725 8.931 5 0 1@963bd1f4" style="stroke: rgb(0, 0, 0); fill: rgb(255, 156, 0);" transform="matrix(0.976687481194, -0.214666168919, 0.214666168919, 0.976687481194, -21.444545508113, 18.485356358717)"/>
    <ellipse style="stroke: rgb(0, 0, 0); fill: rgb(0, 255, 255);" cx="77.139" cy="150.673" rx="4.155" ry="1.41" transform="matrix(0.976687, -0.214666, 0.214666, 0.976687, -20.334573, 23.738084)"/>
    <path style="stroke: rgb(0, 0, 0); fill: none; transform-box: fill-box; transform-origin: 50% 50%;" d="M 62.539 98.302 C 63.112 100.023 62.196 100.749 61.258 101.686" transform="matrix(0.974469, -0.224522, 0.224522, 0.974469, 0.000002, -0.000001)"/>
  </g>
  <path d="M 70.204 96.647 L 70.15 121.139 L 70.107 121.139 L 70.08 133.757 L 74.647 133.765 C 77.918 132.772 80.541 130.5 81.781 127.606 L 81.795 121.16 L 81.756 121.16 L 81.804 100.399 L 81.967 100.399 L 81.998 87.033 L 74.288 96.654 L 70.204 96.647 Z" style="stroke: rgb(0, 0, 0); fill: url(&quot;#gradient-7&quot;); transform-box: fill-box; transform-origin: 52.8262% 50.7129%;" transform="matrix(0.989409, -0.145151, 0.145151, 0.989409, -0.000001, 0)"/>
  <g transform="matrix(0.993166, 0.116713, -0.116713, 0.993166, 4.790648, -1.105535)" style="transform-origin: 17.5183px 19.9307px;">
    <path d="M 11.064 8.239 L 33.318 34.524 L 29.429 37.874 L 18.062 24.447 C 13.363 18.06 10.219 12.567 9.543 9.549 L 11.064 8.239 Z" style="stroke: rgb(0, 0, 0); stroke-linejoin: round; stroke-linecap: round; fill: url(&quot;#gradient-8&quot;); transform-origin: 17.113px 9.197px;"/>
    <g transform="matrix(1.552848, 0, 0, 1.566338, -5.659318, -12.164328)">
      <path d="M 13.052 20.964 L 13.052 26.317 L 10.434 26.317 L 10.434 23.583 C 10.71 22.354 11.297 21.388 12.028 20.964 L 13.052 20.964 Z" style="stroke: rgb(0, 0, 0); stroke-linejoin: round; stroke-linecap: round; fill: rgb(0, 255, 198); transform-box: fill-box; transform-origin: 50% 50%;" transform="matrix(-0.570538, -0.821271, 0.821271, -0.570538, -0.000001, -0.000002)"/>
      <path d="M 8.896 12.98 L 8.896 18.333 L 6.278 18.333 L 6.278 15.599 C 6.554 14.37 7.141 13.404 7.872 12.98 L 8.896 12.98 Z" style="stroke: rgb(0, 0, 0); stroke-linejoin: round; stroke-linecap: round; fill: rgb(0, 255, 198); transform-origin: 7.587px 15.657px;" transform="matrix(-0.142092, -0.989853, 0.989853, -0.142092, -0.000002, 0)"/>
      <path d="M 10.662 17.127 L 10.662 22.48 L 8.044 22.48 L 8.044 19.746 C 8.32 18.517 8.907 17.551 9.638 17.127 L 10.662 17.127 Z" style="stroke: rgb(0, 0, 0); stroke-linejoin: round; stroke-linecap: round; fill: rgb(0, 255, 198); transform-origin: 9.353px 19.804px;" transform="matrix(-0.465849, -0.884864, 0.884864, -0.465849, 0.000001, 0)"/>
      <path d="M 17.44 17.691 L 17.44 12.338 L 14.822 12.338 L 14.822 15.072 C 15.098 16.301 15.685 17.267 16.416 17.691 L 17.44 17.691 Z" style="stroke: rgb(0, 0, 0); stroke-linejoin: round; stroke-linecap: round; fill: rgb(0, 255, 198); transform-origin: 16.131px 15.014px;" transform="matrix(-0.689551, -0.724237, 0.724237, -0.689551, 0.000001, 0)"/>
      <path d="M 14.93 14.622 L 14.93 9.269 L 12.312 9.269 L 12.312 12.003 C 12.588 13.232 13.175 14.198 13.906 14.622 L 14.93 14.622 Z" style="stroke: rgb(0, 0, 0); stroke-linejoin: round; stroke-linecap: round; fill: rgb(0, 255, 198); transform-origin: 13.621px 11.945px;" transform="matrix(-0.782727, -0.622365, 0.622365, -0.782727, -0.000002, -0.000002)"/>
    </g>
    <path d="M 25.179 11.713 L 19.159 17.494 L 21.962 20.464 L 25.037 17.511 C 26.124 15.871 26.582 14.162 26.276 12.874 L 25.179 11.713 Z" style="stroke: rgb(0, 0, 0); stroke-linejoin: round; stroke-linecap: round; fill: rgb(0, 255, 198); transform-origin: 19.253px 4.749px;"/>
  </g>
  <path d="M 36.03 97.281 L 35.865 123.852 L 35.904 123.852 L 35.82 137.537 L 31.428 137.505 C 28.292 136.401 25.791 133.912 24.624 130.763 L 24.668 123.77 L 24.704 123.77 L 24.844 101.247 L 24.685 101.246 L 24.775 86.746 L 32.104 97.253 L 36.03 97.281 Z" style="stroke: rgb(0, 0, 0); fill: url(&quot;#gradient-9&quot;); transform-box: fill-box; transform-origin: 46.7329% 50.9329%;" transform="matrix(0.996715, 0.080986, -0.080986, 0.996715, 0, 0)"/>
  <g transform="matrix(-0.982059, 0.188575, 0.188575, 0.982059, 71.493019, -2.262978)" style="transform-origin: 17.5183px 19.9307px;">
    <path d="M 11.064 8.239 L 33.318 34.524 L 29.429 37.874 L 18.062 24.447 C 13.363 18.06 10.219 12.567 9.543 9.549 L 11.064 8.239 Z" style="stroke: rgb(0, 0, 0); stroke-linejoin: round; stroke-linecap: round; transform-origin: 17.113px 9.197px; fill: url(&quot;#gradient-4&quot;);"/>
    <g transform="matrix(1.552848, 0, 0, 1.566338, -5.659318, -12.164328)">
      <path d="M 13.052 20.964 L 13.052 26.317 L 10.434 26.317 L 10.434 23.583 C 10.71 22.354 11.297 21.388 12.028 20.964 L 13.052 20.964 Z" style="stroke: rgb(0, 0, 0); stroke-linejoin: round; stroke-linecap: round; fill: rgb(0, 255, 198); transform-box: fill-box; transform-origin: 50% 50%;" transform="matrix(-0.570538, -0.821271, 0.821271, -0.570538, -0.000001, -0.000002)"/>
      <path d="M 8.896 12.98 L 8.896 18.333 L 6.278 18.333 L 6.278 15.599 C 6.554 14.37 7.141 13.404 7.872 12.98 L 8.896 12.98 Z" style="stroke: rgb(0, 0, 0); stroke-linejoin: round; stroke-linecap: round; fill: rgb(0, 255, 198); transform-origin: 7.587px 15.657px;" transform="matrix(-0.142092, -0.989853, 0.989853, -0.142092, -0.000002, 0)"/>
      <path d="M 10.662 17.127 L 10.662 22.48 L 8.044 22.48 L 8.044 19.746 C 8.32 18.517 8.907 17.551 9.638 17.127 L 10.662 17.127 Z" style="stroke: rgb(0, 0, 0); stroke-linejoin: round; stroke-linecap: round; fill: rgb(0, 255, 198); transform-origin: 9.353px 19.804px;" transform="matrix(-0.465849, -0.884864, 0.884864, -0.465849, 0.000001, 0)"/>
      <path d="M 17.44 17.691 L 17.44 12.338 L 14.822 12.338 L 14.822 15.072 C 15.098 16.301 15.685 17.267 16.416 17.691 L 17.44 17.691 Z" style="stroke: rgb(0, 0, 0); stroke-linejoin: round; stroke-linecap: round; fill: rgb(0, 255, 198); transform-origin: 16.131px 15.014px;" transform="matrix(-0.689551, -0.724237, 0.724237, -0.689551, 0.000001, 0)"/>
      <path d="M 14.93 14.622 L 14.93 9.269 L 12.312 9.269 L 12.312 12.003 C 12.588 13.232 13.175 14.198 13.906 14.622 L 14.93 14.622 Z" style="stroke: rgb(0, 0, 0); stroke-linejoin: round; stroke-linecap: round; fill: rgb(0, 255, 198); transform-origin: 13.621px 11.945px;" transform="matrix(-0.782727, -0.622365, 0.622365, -0.782727, -0.000002, -0.000002)"/>
    </g>
    <path d="M 25.179 11.713 L 19.159 17.494 L 21.962 20.464 L 25.037 17.511 C 26.124 15.871 26.582 14.162 26.276 12.874 L 25.179 11.713 Z" style="stroke: rgb(0, 0, 0); stroke-linejoin: round; stroke-linecap: round; fill: rgb(0, 255, 198); transform-origin: 19.253px 4.749px;"/>
  </g>
  <path d="M 84.874 65.897 C 84.874 78.935 77.616 90.202 67.093 95.515 C 67.23 95.814 67.347 96.129 67.443 96.456 L 67.443 100.251 L 67.092 100.251 L 67.432 100.377 L 65.994 103.918 C 64.881 105.34 63.384 106.23 61.924 106.329 L 60.194 105.697 L 61.931 101.422 L 44.779 101.422 L 44.779 97.505 C 44.339 97.374 43.902 97.232 43.47 97.081 L 43.47 99.86 L 45.981 106.04 L 44.251 106.672 C 42.791 106.573 41.294 105.683 40.181 104.261 L 38.743 100.72 L 39.083 100.594 L 38.732 100.594 L 38.732 96.799 C 38.891 96.259 39.107 95.753 39.369 95.299 C 29.075 89.898 22.011 78.761 22.011 65.897 C 22.011 47.741 36.083 33.024 53.442 33.024 C 70.802 33.024 84.874 47.741 84.874 65.897 Z" style="stroke: rgb(0, 0, 0); fill: rgb(36, 79, 49);"/>
  <ellipse style="fill: rgba(0, 0, 0, 0.545);" cx="60.279" cy="169.584" rx="15.109" ry="2.395"/>
  <rect x="54.392" y="137.209" width="14.793" height="30.813" style="stroke: rgb(0, 0, 0); fill: url(&quot;#gradient-11&quot;);"/>
  <ellipse style="fill: rgba(0, 0, 0, 0.545);" cx="46.012" cy="177.296" rx="18.057" ry="2.211"/>
  <rect x="36.353" y="142.073" width="18.485" height="30.497" style="stroke: rgb(0, 0, 0); fill: url(&quot;#gradient-10&quot;);"/>
  <path d="M 35.138 96.26 L 70.652 96.26 L 70.652 163.743 L 58.708 163.743 L 53.477 148.22 L 47.082 163.743 L 35.138 163.743 L 35.138 96.26 Z" style="stroke: rgb(0, 0, 0); fill: rgb(27, 66, 228);"/>
  <rect x="36.03" y="134.974" width="34.433" height="5.42" style="fill: rgb(21, 41, 124);"/>
  <rect x="35.33" y="131.557" width="35.624" height="4.61" style="stroke: rgb(0, 0, 0); fill: rgb(255, 156, 0);"/>
  <path d="M 28.802 12.206 C 31.671 7.194 37.755 3.254 45.366 1.524 L 55.121 1.524 L 55.121 1.506 L 65.75 1.506 C 73.358 3.237 79.443 7.177 82.314 12.189 L 82.314 15.083 L 82.359 15.083 L 82.359 44.878 L 28.746 44.878 L 28.746 15.083 L 28.802 15.083 L 28.802 12.206 Z" style="stroke: rgb(0, 0, 0); stroke-linejoin: round; stroke-linecap: round; fill: rgb(21, 41, 124);"/>
  <ellipse style="fill: rgb(25, 56, 34);" cx="53.248" cy="67.468" rx="30.144" ry="26.022"/>
  <path d="M 12.415 47.015 C 13.68 44.797 16.564 43.024 20.232 42.187 L 28.396 42.187 L 28.396 42.316 L 88.36 42.316 L 88.36 42.33 L 90.465 42.33 C 94.133 43.166 97.017 44.939 98.282 47.157 L 98.282 52.408 C 97.017 54.626 94.133 56.399 90.465 57.235 L 88.36 57.235 L 88.36 57.334 L 28.395 57.334 L 28.395 57.378 L 20.232 57.376 C 16.562 56.54 13.679 54.767 12.413 52.549 L 12.415 49.449 L 12.415 47.015 Z" style="stroke: rgb(0, 0, 0); stroke-linejoin: round; stroke-linecap: round; fill: rgb(21, 41, 124);"/>
  <ellipse style="fill: rgb(9, 16, 49);" cx="55.631" cy="45.032" rx="28.829" ry="6.548"/>
  <path d="M 80.924 11.714 L 80.924 14.32 L 80.983 14.32 L 80.983 41.139 L 64.986 41.139 L 64.986 3.309 C 72.229 5.162 77.914 8.134 80.924 11.714 Z" style="stroke-linejoin: round; stroke-linecap: round; fill: rgb(27, 66, 228);"/>
  <path d="M 28.747 39.097 L 39.571 39.299 L 39.571 39.385 L 71.233 39.385 L 71.233 39.287 L 82.057 39.084 L 82.08 41.486 C 81.237 43.224 79.297 44.636 76.82 45.331 L 71.291 45.434 L 71.288 45.176 L 39.515 45.176 L 39.515 45.182 L 39.221 45.176 L 36.349 45.176 L 36.349 45.123 L 33.987 45.077 C 31.508 44.41 29.569 43.058 28.726 41.395 L 28.747 39.097 Z" style="stroke: rgb(0, 0, 0); stroke-linejoin: round; stroke-linecap: round; fill: rgb(255, 156, 0);"/>
  <path style="stroke: rgb(0, 0, 0); stroke-miterlimit: 4.63; stroke-width: 7.48475px; fill: rgb(255, 156, 0);" transform="matrix(0.10165, 0, 0, 0.104003, 6.88645, 14.565546)" d="M 464.356 181 L 485.644 181 L 490.136 213.513 A 56.55 56.55 0 0 1 502.825 218.769 L 528.992 198.955 L 544.045 214.008 L 524.231 240.175 A 56.55 56.55 0 0 1 529.487 252.864 L 562 257.356 L 562 278.644 L 529.487 283.136 A 56.55 56.55 0 0 1 524.231 295.825 L 544.045 321.992 L 528.992 337.045 L 502.825 317.231 A 56.55 56.55 0 0 1 490.136 322.487 L 485.644 355 L 464.356 355 L 459.864 322.487 A 56.55 56.55 0 0 1 447.175 317.231 L 421.008 337.045 L 405.955 321.992 L 425.769 295.825 A 56.55 56.55 0 0 1 420.513 283.136 L 388 278.644 L 388 257.356 L 420.513 252.864 A 56.55 56.55 0 0 1 425.769 240.175 L 405.955 214.008 L 421.008 198.955 L 447.175 218.769 A 56.55 56.55 0 0 1 459.864 213.513 Z M 475 241.9 A 26.1 26.1 0 0 0 475 294.1 A 26.1 26.1 0 0 0 475 241.9" bx:shape="cog 475 268 26.1 56.55 87 0.38 8 1@36eb139e"/>
  <g transform="matrix(0.9997, 0.024479, -0.024479, 0.9997, -3.685113, -0.946373)" style="transform-origin: 85.2891px 137.925px;">
    <rect x="71.763" y="120.657" width="11.233" height="5.665" style="stroke: rgb(0, 0, 0); fill: rgb(14, 29, 91);" transform="matrix(0.976687, -0.214666, 0.214666, 0.976687, -21.233273, 18.379524)"/>
    <rect x="70.841" y="124.692" width="13.139" height="25.848" style="stroke: rgb(0, 0, 0); fill: rgb(21, 41, 124);" transform="matrix(0.976687, -0.214666, 0.214666, 0.976687, -21.233273, 18.379524)"/>
    <path d="M 77.631 129.972 L 84.99 137.058 L 82.179 148.523 L 73.083 148.523 L 70.272 137.058 Z" bx:shape="n-gon 77.631 140.227 7.738 10.255 5 0 1@070a14ce" style="stroke: rgb(0, 0, 0); fill: rgb(125, 84, 19);" transform="matrix(0.976687471822, -0.214666211563, 0.214666211563, 0.976687471822, -21.233343700474, 18.379442950557)"/>
    <path d="M 77.125 135.584 L 84.484 142.67 L 81.673 154.135 L 72.577 154.135 L 69.766 142.67 Z" bx:shape="n-gon 77.125 145.839 7.738 10.255 5 0 1@b2fae5cb" style="stroke: rgb(0, 0, 0); fill: rgb(75, 50, 9);" transform="matrix(0.976687471822, -0.214666211563, 0.214666211563, 0.976687471822, -21.233343729931, 18.379438904153)"/>
    <path d="M 76.973 141.321 L 85.271 147.492 L 82.101 157.477 L 71.845 157.477 L 68.675 147.492 Z" bx:shape="n-gon 76.973 150.252 8.725 8.931 5 0 1@963bd1f4" style="stroke: rgb(0, 0, 0); fill: rgb(255, 156, 0);" transform="matrix(0.976687471822, -0.214666211563, 0.214666211563, 0.976687471822, -21.233347577742, 18.379436816786)"/>
    <ellipse style="stroke: rgb(0, 0, 0); fill: rgb(0, 255, 255);" cx="77.139" cy="150.673" rx="4.155" ry="1.41" transform="matrix(0.976687, -0.214666, 0.214666, 0.976687, -20.123483, 23.632034)"/>
  </g>
  <path style="stroke: rgb(0, 0, 0); fill: none; transform-box: fill-box; transform-origin: 50% 50%;" d="M 62.75 93.196 C 63.323 94.917 62.407 95.643 61.469 96.58" transform="matrix(0.974469, -0.224522, 0.224522, 0.974469, 0.000001, -0.000002)"/>
</svg>