<?xml version="1.0" encoding="utf-8"?>
<svg xmlns="http://www.w3.org/2000/svg" viewBox="0 0 110 180" width="110px" height="180px" xmlns:bx="https://boxy-svg.com">
  <defs>
    <linearGradient gradientUnits="userSpaceOnUse" x1="16.555" y1="5.154" x2="16.555" y2="27.222" id="gradient-5" gradientTransform="matrix(0.92075, -1.257498, 1.251279, 0.932721, -12.065499, 28.621002)">
      <stop offset="0" style="stop-color: rgb(26.667% 64.706% 38.431%)"/>
      <stop offset="1" style="stop-color: rgb(0% 39.662% 15.739%)"/>
    </linearGradient>
    <linearGradient gradientUnits="userSpaceOnUse" x1="43.08" y1="89.367" x2="43.08" y2="109.039" id="gradient-0" gradientTransform="matrix(1.552848, 0, 0, 1.412954, -15.08708, 18.610686)">
      <stop offset="0" style="stop-color: rgb(8.6275% 32.549% 16.078%)"/>
      <stop offset="1" style="stop-color: rgb(0% 21.246% 5.8187%)"/>
    </linearGradient>
    <linearGradient gradientUnits="userSpaceOnUse" x1="33.017" y1="87.365" x2="33.017" y2="109.039" id="gradient-3" gradientTransform="matrix(1.668197, 0, 0, 1.566338, -17.127495, 8.451382)">
      <stop offset="0" style="stop-color: rgb(26.667% 64.706% 38.431%)"/>
      <stop offset="1" style="stop-color: rgb(0% 39.662% 15.739%)"/>
    </linearGradient>
    <linearGradient gradientUnits="userSpaceOnUse" x1="23.073" y1="55.781" x2="23.073" y2="85.193" id="gradient-1" gradientTransform="matrix(1.528655, 0.010863, -0.010265, 1.617692, -10.785157, -5.526641)">
      <stop offset="0" style="stop-color: rgb(26.667% 64.706% 38.431%)"/>
      <stop offset="1" style="stop-color: rgb(0% 39.662% 15.739%)"/>
    </linearGradient>
    <linearGradient gradientUnits="userSpaceOnUse" x1="69.493" y1="79.943" x2="69.493" y2="125.432" id="gradient-2" gradientTransform="matrix(1, 0, 0, 1, 0.250011, -3.449938)">
      <stop offset="0" style="stop-color: rgb(15.686% 40.392% 23.529%)"/>
      <stop offset="1" style="stop-color: rgb(0% 25.703% 10.208%)"/>
    </linearGradient>
    <linearGradient gradientUnits="userSpaceOnUse" x1="16.555" y1="5.154" x2="16.555" y2="27.222" id="gradient-4" gradientTransform="matrix(0.92075, -1.257498, 1.251279, 0.932721, -12.065499, 28.621002)">
      <stop offset="0" style="stop-color: rgb(26.667% 64.706% 38.431%)"/>
      <stop offset="1" style="stop-color: rgb(0% 39.662% 15.739%)"/>
    </linearGradient>
  </defs>
  <ellipse style="fill: rgba(0, 0, 0, 0.518);" cx="27.291" cy="168.213" rx="10.466" ry="1.777"/>
  <g style="transform-origin: 22.829px 19.796px;" transform="matrix(0.836036, 0.083977, -0.089959, 0.895595, 26.364002, -4.128029)">
    <path d="M 11.143 10.54 L 34.442 27.907 C 35.424 27.503 36.541 27.275 37.726 27.274 C 41.647 27.274 44.826 29.779 44.826 32.869 C 44.825 35.959 41.647 38.464 37.726 38.464 C 33.805 38.464 30.626 35.959 30.627 32.869 C 30.626 32.433 30.69 32.009 30.809 31.601 L 21.619 24.75 C 15.6 19.589 11.297 14.947 9.957 12.16 L 11.143 10.54 Z" style="stroke: rgb(0, 0, 0); stroke-linejoin: round; stroke-linecap: round; fill: url(&quot;#gradient-4&quot;);"/>
    <g transform="matrix(1.335116, -0.431347, 0.481542, 1.490481, 2.60658, -0.620358)" style="transform-origin: 11.862px 17.639px;">
      <path d="M 13.052 20.964 L 13.052 26.317 L 10.434 26.317 L 10.434 23.583 C 10.71 22.354 11.297 21.388 12.028 20.964 L 13.052 20.964 Z" style="stroke: rgb(0, 0, 0); stroke-linejoin: round; stroke-linecap: round; fill: rgb(0, 255, 198); transform-box: fill-box; transform-origin: 50% 50%; stroke-width: 0.641198px;" transform="matrix(-0.570538, -0.821271, 0.821271, -0.570538, -0.000001, -0.000002)"/>
      <path d="M 8.896 12.98 L 8.896 18.333 L 6.278 18.333 L 6.278 15.599 C 6.554 14.37 7.141 13.404 7.872 12.98 L 8.896 12.98 Z" style="stroke: rgb(0, 0, 0); stroke-linejoin: round; stroke-linecap: round; fill: rgb(0, 255, 198); transform-origin: 7.587px 15.657px; stroke-width: 0.641194px;" transform="matrix(-0.142092, -0.989853, 0.989853, -0.142092, -0.000002, 0)"/>
      <path d="M 10.662 17.127 L 10.662 22.48 L 8.044 22.48 L 8.044 19.746 C 8.32 18.517 8.907 17.551 9.638 17.127 L 10.662 17.127 Z" style="stroke: rgb(0, 0, 0); stroke-linejoin: round; stroke-linecap: round; fill: rgb(0, 255, 198); transform-origin: 9.353px 19.804px; stroke-width: 0.641197px;" transform="matrix(-0.465849, -0.884864, 0.884864, -0.465849, 0.000001, 0)"/>
      <path d="M 17.44 17.691 L 17.44 12.338 L 14.822 12.338 L 14.822 15.072 C 15.098 16.301 15.685 17.267 16.416 17.691 L 17.44 17.691 Z" style="stroke: rgb(0, 0, 0); stroke-linejoin: round; stroke-linecap: round; fill: rgb(0, 255, 198); transform-origin: 16.131px 15.014px; stroke-width: 0.641199px;" transform="matrix(-0.689551, -0.724237, 0.724237, -0.689551, 0.000001, 0)"/>
      <path d="M 14.93 14.622 L 14.93 9.269 L 12.312 9.269 L 12.312 12.003 C 12.588 13.232 13.175 14.198 13.906 14.622 L 14.93 14.622 Z" style="stroke: rgb(0, 0, 0); stroke-linejoin: round; stroke-linecap: round; fill: rgb(0, 255, 198); transform-origin: 13.621px 11.945px; stroke-width: 0.641199px;" transform="matrix(-0.782727, -0.622365, 0.622365, -0.782727, -0.000002, -0.000002)"/>
    </g>
    <path d="M 25.423 10.751 L 19.403 16.532 L 22.206 19.502 L 25.281 16.549 C 26.368 14.909 26.826 13.2 26.52 11.912 L 25.423 10.751 Z" style="stroke: rgb(0, 0, 0); stroke-linejoin: round; stroke-linecap: round; fill: rgb(0, 255, 198); transform-origin: 23.094px 14.952px;" transform="matrix(0.964438, -0.264309, 0.264309, 0.964438, 0, 0.000001)"/>
  </g>
  <path d="M 63.642 85.851 L 63.585 109.692 L 63.541 109.692 L 63.511 121.974 L 68.288 121.982 C 71.709 121.016 74.453 118.804 75.749 115.987 L 75.764 109.712 L 75.724 109.712 L 75.773 89.503 L 75.944 89.503 L 75.976 76.493 L 67.912 85.858 L 63.642 85.851 Z" style="stroke: rgb(0, 0, 0); fill: url(&quot;#gradient-2&quot;); transform-box: fill-box; transform-origin: 47.7589% 50.8357%;" transform="matrix(0.005052, -0.999987, 0.999987, 0.005052, -0.000002, 0.000005)"/>
  <rect x="43.205" y="144.881" width="17.207" height="27.796" style="stroke: rgb(0, 0, 0); fill: url(&quot;#gradient-0&quot;);"/>
  <rect x="28.709" y="145.293" width="18.485" height="33.949" style="stroke: rgb(0, 0, 0); fill: url(&quot;#gradient-3&quot;);"/>
  <path d="M 61.893 92.518 L 61.893 170.7 L 56.676 170.7 L 54.392 152.716 L 51.599 170.7 L 46.383 170.7 L 46.383 170.625 L 28.419 170.625 L 28.419 92.386 L 49.141 92.386 L 49.141 92.518 L 61.893 92.518 Z" style="stroke: rgb(0, 0, 0); fill: rgb(27, 66, 228);"/>
  <ellipse style="fill: rgb(21, 41, 124); transform-origin: 31.431px 66.892px;" cx="31.431" cy="66.892" rx="4.248" ry="6.831" transform="matrix(0.860305, -0.509779, 0.516445, 0.856355, 21.934487, 33.308056)"/>
  <ellipse style="fill: rgb(21, 41, 124);" cx="44.519" cy="95.098" rx="17.022" ry="9.841"/>
  <path d="M 29.251 94.805 L 29.094 119.736 L 29.131 119.736 L 29.051 132.577 L 24.843 132.547 C 21.839 131.511 19.442 129.176 18.325 126.221 L 18.367 119.659 L 18.402 119.659 L 18.536 98.526 L 18.383 98.525 L 18.47 84.92 L 25.491 94.778 L 29.251 94.805 Z" style="stroke: rgb(0, 0, 0); fill: url(&quot;#gradient-1&quot;); transform-box: fill-box; transform-origin: 50.977% 51.4663%;" transform="matrix(0.996488, 0.083737, -0.083737, 0.996488, 0, 0)"/>
  <path d="M 75.54 67.551 C 75.54 72.26 74.507 76.717 72.664 80.69 C 71.646 84.462 69.989 87.659 67.831 89.95 C 67.942 90.176 68.043 90.418 68.135 90.67 L 68.625 93.698 L 68.442 93.726 L 68.635 93.8 L 68.344 96.74 C 67.947 97.965 67.283 98.797 66.534 98.994 L 65.552 98.629 L 66.062 93.496 L 65.778 91.743 C 64.395 92.717 62.867 93.368 61.215 93.637 C 59.692 94.574 58.078 95.37 56.392 96.007 L 58.194 100.053 L 57.374 100.698 C 56.601 100.736 55.707 100.147 54.944 99.103 L 53.923 96.813 C 51.538 97.472 49.033 97.822 46.449 97.822 C 30.382 97.822 17.358 84.269 17.358 67.551 C 17.358 50.833 30.382 37.281 46.449 37.281 C 62.515 37.281 75.54 50.833 75.54 67.551 Z" style="stroke: rgb(0, 0, 0); fill: rgb(38, 123, 67);"/>
  <ellipse style="fill: rgb(56, 154, 89);" cx="48.626" cy="66.816" rx="26.776" ry="25.876"/>
  <ellipse style="" cx="71.73" cy="63.905" rx="3.508" ry="12.546"/>
  <ellipse style="" cx="54.706" cy="65.803" rx="9.419" ry="12.546"/>
  <path d="M 19.175 13.408 C 22.044 8.396 28.128 4.456 35.739 2.726 L 45.494 2.726 L 45.494 2.708 L 56.123 2.708 C 63.731 4.439 69.816 8.379 72.687 13.391 L 72.687 16.285 L 72.732 16.285 L 72.732 46.08 L 19.119 46.08 L 19.119 16.285 L 19.175 16.285 L 19.175 13.408 Z" style="stroke: rgb(0, 0, 0); stroke-linejoin: round; stroke-linecap: round; fill: rgb(27, 66, 228);"/>
  <path d="M 71.388 19.147 L 71.388 21.603 L 71.403 21.603 L 71.403 46.881 L 67.424 46.881 L 67.424 11.226 C 69.225 12.973 70.64 15.773 71.388 19.147 Z" style="stroke-linejoin: round; stroke-linecap: round; fill: rgb(21, 41, 124);"/>
  <path d="M 6.984 48.217 C 8.126 45.999 10.728 44.226 14.039 43.389 L 21.407 43.389 L 21.407 43.518 L 75.527 43.518 L 75.527 43.532 L 77.427 43.532 C 80.738 44.368 83.341 46.141 84.482 48.359 L 84.482 53.61 C 83.341 55.828 80.738 57.601 77.427 58.437 L 75.527 58.437 L 75.527 58.536 L 21.406 58.536 L 21.406 58.58 L 14.039 58.578 C 10.727 57.742 8.125 55.969 6.982 53.751 L 6.984 50.651 L 6.984 48.217 Z" style="stroke: rgb(0, 0, 0); stroke-linejoin: round; stroke-linecap: round; fill: rgb(27, 66, 228);"/>
  <path d="M 16.832 39.808 L 28.18 40.015 L 28.18 40.103 L 61.372 40.103 L 61.372 40.003 L 72.72 39.795 L 72.744 42.255 C 71.861 44.034 69.827 45.479 67.23 46.192 L 61.434 46.297 L 61.431 46.033 L 28.122 46.033 L 28.122 46.039 L 27.813 46.033 L 24.8 46.033 L 24.8 45.979 L 22.326 45.931 C 19.726 45.249 17.692 43.864 16.812 42.161 L 16.832 39.808 Z" style="stroke: rgb(0, 0, 0); stroke-linejoin: round; stroke-linecap: round; fill: rgb(255, 156, 0);"/>
  <g style="transform-origin: 22.8288px 19.7957px;" transform="matrix(0.836036, 0.083977, -0.089959, 0.895595, -3.060167, -2.656823)">
    <path d="M 11.143 10.54 L 34.442 27.907 C 35.424 27.503 36.541 27.275 37.726 27.274 C 41.647 27.274 44.826 29.779 44.826 32.869 C 44.825 35.959 41.647 38.464 37.726 38.464 C 33.805 38.464 30.626 35.959 30.627 32.869 C 30.626 32.433 30.69 32.009 30.809 31.601 L 21.619 24.75 C 15.6 19.589 11.297 14.947 9.957 12.16 L 11.143 10.54 Z" style="stroke: rgb(0, 0, 0); stroke-linejoin: round; stroke-linecap: round; fill: url(&quot;#gradient-5&quot;);"/>
    <g transform="matrix(1.335116, -0.431347, 0.481542, 1.490481, 2.60658, -0.620358)" style="transform-origin: 11.862px 17.639px;">
      <path d="M 13.052 20.964 L 13.052 26.317 L 10.434 26.317 L 10.434 23.583 C 10.71 22.354 11.297 21.388 12.028 20.964 L 13.052 20.964 Z" style="stroke: rgb(0, 0, 0); stroke-linejoin: round; stroke-linecap: round; fill: rgb(0, 255, 198); transform-box: fill-box; transform-origin: 50% 50%; stroke-width: 0.641198px;" transform="matrix(-0.570538, -0.821271, 0.821271, -0.570538, -0.000001, -0.000002)"/>
      <path d="M 8.896 12.98 L 8.896 18.333 L 6.278 18.333 L 6.278 15.599 C 6.554 14.37 7.141 13.404 7.872 12.98 L 8.896 12.98 Z" style="stroke: rgb(0, 0, 0); stroke-linejoin: round; stroke-linecap: round; fill: rgb(0, 255, 198); transform-origin: 7.587px 15.657px; stroke-width: 0.641194px;" transform="matrix(-0.142092, -0.989853, 0.989853, -0.142092, -0.000002, 0)"/>
      <path d="M 10.662 17.127 L 10.662 22.48 L 8.044 22.48 L 8.044 19.746 C 8.32 18.517 8.907 17.551 9.638 17.127 L 10.662 17.127 Z" style="stroke: rgb(0, 0, 0); stroke-linejoin: round; stroke-linecap: round; fill: rgb(0, 255, 198); transform-origin: 9.353px 19.804px; stroke-width: 0.641197px;" transform="matrix(-0.465849, -0.884864, 0.884864, -0.465849, 0.000001, 0)"/>
      <path d="M 17.44 17.691 L 17.44 12.338 L 14.822 12.338 L 14.822 15.072 C 15.098 16.301 15.685 17.267 16.416 17.691 L 17.44 17.691 Z" style="stroke: rgb(0, 0, 0); stroke-linejoin: round; stroke-linecap: round; fill: rgb(0, 255, 198); transform-origin: 16.131px 15.014px; stroke-width: 0.641199px;" transform="matrix(-0.689551, -0.724237, 0.724237, -0.689551, 0.000001, 0)"/>
      <path d="M 14.93 14.622 L 14.93 9.269 L 12.312 9.269 L 12.312 12.003 C 12.588 13.232 13.175 14.198 13.906 14.622 L 14.93 14.622 Z" style="stroke: rgb(0, 0, 0); stroke-linejoin: round; stroke-linecap: round; fill: rgb(0, 255, 198); transform-origin: 13.621px 11.945px; stroke-width: 0.641199px;" transform="matrix(-0.782727, -0.622365, 0.622365, -0.782727, -0.000002, -0.000002)"/>
    </g>
    <path d="M 25.423 10.751 L 19.403 16.532 L 22.206 19.502 L 25.281 16.549 C 26.368 14.909 26.826 13.2 26.52 11.912 L 25.423 10.751 Z" style="stroke: rgb(0, 0, 0); stroke-linejoin: round; stroke-linecap: round; fill: rgb(0, 255, 198); transform-origin: 23.094px 14.952px;" transform="matrix(0.964438, -0.264309, 0.264309, 0.964438, 0, 0.000001)"/>
  </g>
  <ellipse style="stroke: rgb(0, 0, 0); fill: rgb(255, 156, 0);" cx="60.114" cy="44.076" rx="6.785" ry="11.655"/>
  <ellipse style="stroke: rgb(0, 0, 0); fill: rgb(255, 156, 0);" cx="70.797" cy="43.296" rx="3.112" ry="9.776"/>
  <g transform="matrix(0.684348, 0, 0, 1.042168, 82.109352, -20.814337)" style="">
    <ellipse style="stroke: rgb(0, 0, 0); fill: rgb(149, 149, 149);" cx="-30.569" cy="62.295" rx="7.479" ry="8.294"/>
    <ellipse style="fill: rgb(96, 96, 96);" cx="-28.592" cy="62.146" rx="4.78" ry="6.392"/>
  </g>
  <ellipse style="stroke: rgb(0, 0, 0); fill: rgb(96, 96, 96);" cx="71.908" cy="42.911" rx="1.795" ry="7.944"/>
  <path style="stroke: rgb(0, 0, 0); stroke-miterlimit: 4.63; stroke-width: 7.48475px; fill: rgb(255, 156, 0);" transform="matrix(0.033947, 0, 0, 0.108123, 52.035011, -4.625269)" d="M 464.356 181 L 485.644 181 L 490.136 213.513 A 56.55 56.55 0 0 1 502.825 218.769 L 528.992 198.955 L 544.045 214.008 L 524.231 240.175 A 56.55 56.55 0 0 1 529.487 252.864 L 562 257.356 L 562 278.644 L 529.487 283.136 A 56.55 56.55 0 0 1 524.231 295.825 L 544.045 321.992 L 528.992 337.045 L 502.825 317.231 A 56.55 56.55 0 0 1 490.136 322.487 L 485.644 355 L 464.356 355 L 459.864 322.487 A 56.55 56.55 0 0 1 447.175 317.231 L 421.008 337.045 L 405.955 321.992 L 425.769 295.825 A 56.55 56.55 0 0 1 420.513 283.136 L 388 278.644 L 388 257.356 L 420.513 252.864 A 56.55 56.55 0 0 1 425.769 240.175 L 405.955 214.008 L 421.008 198.955 L 447.175 218.769 A 56.55 56.55 0 0 1 459.864 213.513 Z M 475 241.9 A 26.1 26.1 0 0 0 475 294.1 A 26.1 26.1 0 0 0 475 241.9" bx:shape="cog 475 268 26.1 56.55 87 0.38 8 1@36eb139e"/>
  <rect x="28.896" y="138.646" width="32.233" height="5.42" style="fill: rgb(21, 41, 124);"/>
  <rect x="27.285" y="135.229" width="33.409" height="4.61" style="stroke: rgb(0, 0, 0); fill: rgb(255, 156, 0);"/>
  <path d="M 58.113 -143.379 L 62.512 -139.013 L 60.832 -131.948 L 55.394 -131.948 L 53.714 -139.013 Z" bx:shape="n-gon 58.113 -137.06 4.625 6.319 5 0 1@9bf710d7" style="stroke: rgb(0, 0, 0); fill: rgb(119, 77, 10);" transform="matrix(1, 0, 0, -1, 0, 0)"/>
  <path d="M 58.278 -141.906 L 59.445 -138.426 L 58.999 -132.796 L 57.557 -132.796 L 57.111 -138.426 Z" bx:shape="n-gon 58.278 -136.87 1.227 5.036 5 0 1@5694537b" style="stroke: rgb(0, 0, 0); fill: rgb(0, 234, 255);" transform="matrix(1, 0, 0, -1, 0, 0)"/>
  <rect x="121.34" y="120.203" width="16.782" height="5.665" style="stroke: rgb(0, 0, 0); fill: rgb(14, 29, 91);" transform="matrix(-0.001597, -0.999999, 0.999996, -0.003565, -45.551819, 229.659103)"/>
  <rect x="119.962" y="124.238" width="19.63" height="25.848" style="stroke: rgb(0, 0, 0); fill: rgb(21, 41, 124);" transform="matrix(-0.001597, -0.999999, 0.999996, -0.003565, -46.086979, 229.925613)"/>
  <path d="M 87.085 130.633 L 101.811 136.949 L 96.186 147.167 L 77.984 147.167 L 72.359 136.949 Z" bx:shape="n-gon 87.085 139.773 15.484 9.14 5 0 1@efafd5d1" style="stroke: rgb(0, 0, 0); fill: rgb(125, 84, 19);" transform="matrix(-0.001597038813, -0.999998724733, 0.999995582246, -0.003564732084, -47.069225705024, 187.062778165426)"/>
  <path d="M 86.579 134.965 L 99.576 142.165 L 94.612 153.815 L 78.546 153.815 L 73.582 142.165 Z" bx:shape="n-gon 86.579 145.385 13.666 10.42 5 0 1@b6835344" style="stroke: rgb(0, 0, 0); fill: rgb(75, 50, 9);" transform="matrix(-0.001597038581, -0.999998724733, 0.999995582247, -0.003564731618, -46.10941417073, 185.920733991609)"/>
  <path d="M 86.427 142.148 L 99.21 147.434 L 94.327 155.987 L 78.527 155.987 L 73.644 147.434 Z" bx:shape="n-gon 86.427 149.798 13.441 7.65 5 0 1@d2cd822c" style="stroke: rgb(0, 0, 0); fill: rgb(255, 156, 0);" transform="matrix(-0.00159703858, -0.999998724733, 0.999995582247, -0.003564732084, -46.939588158242, 185.973285230247)"/>
  <ellipse style="stroke: rgb(0, 0, 0); fill: rgb(0, 255, 255);" cx="86.593" cy="150.219" rx="7.676" ry="4.121" transform="matrix(-0.001597, -0.999999, 0.999996, -0.003565, -45.56672, 186.167931)"/>
  <ellipse style="fill: rgb(95, 255, 255);" cx="86.593" cy="150.219" rx="5.774" ry="3.176" transform="matrix(-0.001597, -0.999999, 0.999996, -0.003565, -45.250528, 185.157601)"/>
  <ellipse style="fill: rgb(165, 255, 255);" cx="86.593" cy="150.219" rx="3.542" ry="1.829" transform="matrix(-0.001597, -0.999999, 0.999996, -0.003565, -44.241235, 183.526467)"/>
  <ellipse style="fill: rgba(0, 0, 0, 0.518);" cx="12.037" cy="174.75" rx="10.466" ry="1.777"/>
</svg>