<?xml version="1.0" encoding="utf-8"?>
<svg xmlns="http://www.w3.org/2000/svg" viewBox="0 0 110 180" width="110px" height="180px" xmlns:bx="https://boxy-svg.com">
  <defs>
    <linearGradient gradientUnits="userSpaceOnUse" x1="16.555" y1="5.154" x2="16.555" y2="27.222" id="gradient-5" gradientTransform="matrix(0.92075, -1.257498, 1.251279, 0.932721, -12.065499, 28.621002)">
      <stop offset="0" style="stop-color: rgb(26.667% 64.706% 38.431%)"/>
      <stop offset="1" style="stop-color: rgb(0% 39.662% 15.739%)"/>
    </linearGradient>
    <linearGradient gradientUnits="userSpaceOnUse" x1="43.08" y1="89.367" x2="43.08" y2="109.039" id="gradient-0" gradientTransform="matrix(1.552848, 0, 0, 1.412954, -328.992119, 25.922069)">
      <stop offset="0" style="stop-color: rgb(8.6275% 32.549% 16.078%)"/>
      <stop offset="1" style="stop-color: rgb(0% 21.246% 5.8187%)"/>
    </linearGradient>
    <linearGradient gradientUnits="userSpaceOnUse" x1="33.017" y1="87.365" x2="33.017" y2="109.039" id="gradient-3" gradientTransform="matrix(1.668197, 0, 0, 1.566338, -331.032539, 15.762767)">
      <stop offset="0" style="stop-color: rgb(26.667% 64.706% 38.431%)"/>
      <stop offset="1" style="stop-color: rgb(0% 39.662% 15.739%)"/>
    </linearGradient>
    <linearGradient gradientUnits="userSpaceOnUse" x1="23.073" y1="55.781" x2="23.073" y2="85.193" id="gradient-1" gradientTransform="matrix(1.528655, 0.010863, -0.010265, 1.617692, -324.69016, 1.784502)">
      <stop offset="0" style="stop-color: rgb(26.667% 64.706% 38.431%)"/>
      <stop offset="1" style="stop-color: rgb(0% 39.662% 15.739%)"/>
    </linearGradient>
    <linearGradient gradientUnits="userSpaceOnUse" x1="69.493" y1="79.943" x2="69.493" y2="125.432" id="gradient-2" gradientTransform="matrix(1, 0, 0, 1, -313.653776, 3.859421)">
      <stop offset="0" style="stop-color: rgb(15.686% 40.392% 23.529%)"/>
      <stop offset="1" style="stop-color: rgb(0% 25.703% 10.208%)"/>
    </linearGradient>
    <linearGradient gradientUnits="userSpaceOnUse" x1="16.555" y1="5.154" x2="16.555" y2="27.222" id="gradient-4" gradientTransform="matrix(0.92075, -1.257498, 1.251279, 0.932721, -12.065499, 28.621002)">
      <stop offset="0" style="stop-color: rgb(26.667% 64.706% 38.431%)"/>
      <stop offset="1" style="stop-color: rgb(0% 39.662% 15.739%)"/>
    </linearGradient>
    <linearGradient gradientUnits="userSpaceOnUse" x1="16.555" y1="5.154" x2="16.555" y2="27.222" id="gradient-6" gradientTransform="matrix(0.92075, -1.257498, 1.251279, 0.932721, -12.065499, 28.621002)">
      <stop offset="0" style="stop-color: rgb(26.667% 64.706% 38.431%)"/>
      <stop offset="1" style="stop-color: rgb(0% 39.662% 15.739%)"/>
    </linearGradient>
    <linearGradient gradientUnits="userSpaceOnUse" x1="69.493" y1="79.943" x2="69.493" y2="125.432" id="gradient-7" gradientTransform="matrix(1, 0, 0, 1, 0.498627, -0.852089)">
      <stop offset="0" style="stop-color: rgb(15.686% 40.392% 23.529%)"/>
      <stop offset="1" style="stop-color: rgb(0% 25.703% 10.208%)"/>
    </linearGradient>
    <linearGradient gradientUnits="userSpaceOnUse" x1="43.08" y1="89.367" x2="43.08" y2="109.039" id="gradient-8" gradientTransform="matrix(1.552848, 0, 0, 1.412954, -14.44317, 21.91728)">
      <stop offset="0" style="stop-color: rgb(8.6275% 32.549% 16.078%)"/>
      <stop offset="1" style="stop-color: rgb(0% 21.246% 5.8187%)"/>
    </linearGradient>
    <linearGradient gradientUnits="userSpaceOnUse" x1="33.017" y1="87.365" x2="33.017" y2="109.039" id="gradient-9" gradientTransform="matrix(1.668197, 0, 0, 1.566338, -17.011078, 5.23049)">
      <stop offset="0" style="stop-color: rgb(26.667% 64.706% 38.431%)"/>
      <stop offset="1" style="stop-color: rgb(0% 39.662% 15.739%)"/>
    </linearGradient>
    <linearGradient gradientUnits="userSpaceOnUse" x1="23.073" y1="55.781" x2="23.073" y2="85.193" id="gradient-10" gradientTransform="matrix(1.528655, 0.010862, -0.010264, 1.617692, -10.668737, -4.747674)">
      <stop offset="0" style="stop-color: rgb(26.667% 64.706% 38.431%)"/>
      <stop offset="1" style="stop-color: rgb(0% 39.662% 15.739%)"/>
    </linearGradient>
    <linearGradient gradientUnits="userSpaceOnUse" x1="16.555" y1="5.154" x2="16.555" y2="27.222" id="gradient-11" gradientTransform="matrix(0.92075, -1.257498, 1.251279, 0.932721, -12.065499, 28.621002)">
      <stop offset="0" style="stop-color: rgb(26.667% 64.706% 38.431%)"/>
      <stop offset="1" style="stop-color: rgb(0% 39.662% 15.739%)"/>
    </linearGradient>
    <linearGradient gradientUnits="userSpaceOnUse" x1="16.555" y1="5.154" x2="16.555" y2="27.222" id="gradient-12" gradientTransform="matrix(0.882903, -1.048887, 0.962207, 0.940419, 18.818217, 23.323229)">
      <stop offset="0" style="stop-color: rgb(26.667% 64.706% 38.431%)"/>
      <stop offset="1" style="stop-color: rgb(0% 39.662% 15.739%)"/>
    </linearGradient>
    <linearGradient gradientUnits="userSpaceOnUse" x1="69.493" y1="79.943" x2="69.493" y2="125.432" id="gradient-13" gradientTransform="matrix(1, 0, 0, 1, -0.025293, 1.050595)">
      <stop offset="0" style="stop-color: rgb(15.686% 40.392% 23.529%)"/>
      <stop offset="1" style="stop-color: rgb(0% 25.703% 10.208%)"/>
    </linearGradient>
    <linearGradient gradientUnits="userSpaceOnUse" x1="43.08" y1="89.367" x2="43.08" y2="109.039" id="gradient-14" gradientTransform="matrix(1.139289, 0, 0, 1.412954, 5.139796, 24.820137)">
      <stop offset="0" style="stop-color: rgb(8.6275% 32.549% 16.078%)"/>
      <stop offset="1" style="stop-color: rgb(0% 21.246% 5.8187%)"/>
    </linearGradient>
    <linearGradient gradientUnits="userSpaceOnUse" x1="33.017" y1="87.365" x2="33.017" y2="109.039" id="gradient-15" gradientTransform="matrix(1.668197, 0, 0, 1.566338, -16.72666, 4.97682)">
      <stop offset="0" style="stop-color: rgb(26.667% 64.706% 38.431%)"/>
      <stop offset="1" style="stop-color: rgb(0% 39.662% 15.739%)"/>
    </linearGradient>
    <linearGradient gradientUnits="userSpaceOnUse" x1="23.073" y1="55.781" x2="23.073" y2="85.193" id="gradient-16" gradientTransform="matrix(1.528655, 0.010862, -0.010264, 1.617691, -3.94884, -4.409385)">
      <stop offset="0" style="stop-color: rgb(26.667% 64.706% 38.431%)"/>
      <stop offset="1" style="stop-color: rgb(0% 39.662% 15.739%)"/>
    </linearGradient>
    <linearGradient gradientUnits="userSpaceOnUse" x1="16.555" y1="5.154" x2="16.555" y2="27.222" id="gradient-17" gradientTransform="matrix(0.912469, -1.023272, 0.934986, 0.967489, -10.735683, 23.937469)">
      <stop offset="0" style="stop-color: rgb(26.667% 64.706% 38.431%)"/>
      <stop offset="1" style="stop-color: rgb(0% 39.662% 15.739%)"/>
    </linearGradient>
  </defs>
  <ellipse style="fill: rgba(0, 0, 0, 0.518);" cx="-286.62" cy="175.524" rx="10.466" ry="1.777"/>
  <g style="transform-origin: 22.829px 19.796px;" transform="matrix(0.836036, 0.083977, -0.089959, 0.895595, -287.541016, 3.183356)">
    <path d="M 11.143 10.54 L 34.442 27.907 C 35.424 27.503 36.541 27.275 37.726 27.274 C 41.647 27.274 44.826 29.779 44.826 32.869 C 44.825 35.959 41.647 38.464 37.726 38.464 C 33.805 38.464 30.626 35.959 30.627 32.869 C 30.626 32.433 30.69 32.009 30.809 31.601 L 21.619 24.75 C 15.6 19.589 11.297 14.947 9.957 12.16 L 11.143 10.54 Z" style="stroke: rgb(0, 0, 0); stroke-linejoin: round; stroke-linecap: round; fill: url(&quot;#gradient-4&quot;);"/>
    <g transform="matrix(1.335116, -0.431347, 0.481542, 1.490481, 2.60658, -0.620358)" style="transform-origin: 11.862px 17.639px;">
      <path d="M 13.052 20.964 L 13.052 26.317 L 10.434 26.317 L 10.434 23.583 C 10.71 22.354 11.297 21.388 12.028 20.964 L 13.052 20.964 Z" style="stroke: rgb(0, 0, 0); stroke-linejoin: round; stroke-linecap: round; fill: rgb(0, 255, 198); transform-box: fill-box; transform-origin: 50% 50%; stroke-width: 0.641198px;" transform="matrix(-0.570538, -0.821271, 0.821271, -0.570538, -0.000001, -0.000002)"/>
      <path d="M 8.896 12.98 L 8.896 18.333 L 6.278 18.333 L 6.278 15.599 C 6.554 14.37 7.141 13.404 7.872 12.98 L 8.896 12.98 Z" style="stroke: rgb(0, 0, 0); stroke-linejoin: round; stroke-linecap: round; fill: rgb(0, 255, 198); transform-origin: 7.587px 15.657px; stroke-width: 0.641194px;" transform="matrix(-0.142092, -0.989853, 0.989853, -0.142092, -0.000002, 0)"/>
      <path d="M 10.662 17.127 L 10.662 22.48 L 8.044 22.48 L 8.044 19.746 C 8.32 18.517 8.907 17.551 9.638 17.127 L 10.662 17.127 Z" style="stroke: rgb(0, 0, 0); stroke-linejoin: round; stroke-linecap: round; fill: rgb(0, 255, 198); transform-origin: 9.353px 19.804px; stroke-width: 0.641197px;" transform="matrix(-0.465849, -0.884864, 0.884864, -0.465849, 0.000001, 0)"/>
      <path d="M 17.44 17.691 L 17.44 12.338 L 14.822 12.338 L 14.822 15.072 C 15.098 16.301 15.685 17.267 16.416 17.691 L 17.44 17.691 Z" style="stroke: rgb(0, 0, 0); stroke-linejoin: round; stroke-linecap: round; fill: rgb(0, 255, 198); transform-origin: 16.131px 15.014px; stroke-width: 0.641199px;" transform="matrix(-0.689551, -0.724237, 0.724237, -0.689551, 0.000001, 0)"/>
      <path d="M 14.93 14.622 L 14.93 9.269 L 12.312 9.269 L 12.312 12.003 C 12.588 13.232 13.175 14.198 13.906 14.622 L 14.93 14.622 Z" style="stroke: rgb(0, 0, 0); stroke-linejoin: round; stroke-linecap: round; fill: rgb(0, 255, 198); transform-origin: 13.621px 11.945px; stroke-width: 0.641199px;" transform="matrix(-0.782727, -0.622365, 0.622365, -0.782727, -0.000002, -0.000002)"/>
    </g>
    <path d="M 25.423 10.751 L 19.403 16.532 L 22.206 19.502 L 25.281 16.549 C 26.368 14.909 26.826 13.2 26.52 11.912 L 25.423 10.751 Z" style="stroke: rgb(0, 0, 0); stroke-linejoin: round; stroke-linecap: round; fill: rgb(0, 255, 198); transform-origin: 23.094px 14.952px;" transform="matrix(0.964438, -0.264309, 0.264309, 0.964438, 0, 0.000001)"/>
  </g>
  <path d="M -250.26 93.162 L -250.32 117.003 L -250.36 117.003 L -250.39 129.285 L -245.62 129.293 C -242.2 128.327 -239.45 126.115 -238.16 123.298 L -238.14 117.023 L -238.18 117.023 L -238.13 96.814 L -237.96 96.814 L -237.93 83.804 L -245.99 93.169 L -250.26 93.162 Z" style="stroke: rgb(0, 0, 0); fill: url(&quot;#gradient-2&quot;); transform-box: fill-box; transform-origin: 47.7589% 50.8357%;" transform="matrix(0.005052, -0.999987, 0.999987, 0.005052, -0.000009, 0.000006)"/>
  <rect x="-270.7" y="152.192" width="17.207" height="27.796" style="stroke: rgb(0, 0, 0); fill: url(&quot;#gradient-0&quot;);"/>
  <rect x="-285.2" y="152.604" width="18.485" height="33.949" style="stroke: rgb(0, 0, 0); fill: url(&quot;#gradient-3&quot;);"/>
  <path d="M -252.01 99.829 L -252.01 178.011 L -257.23 178.011 L -259.51 160.027 L -262.31 178.011 L -267.52 178.011 L -267.52 177.936 L -285.49 177.936 L -285.49 99.697 L -264.77 99.697 L -264.77 99.829 L -252.01 99.829 Z" style="stroke: rgb(0, 0, 0); fill: rgb(27, 66, 228);"/>
  <ellipse style="fill: rgb(21, 41, 124); transform-origin: 31.431px 66.892px;" cx="31.431" cy="66.892" rx="4.248" ry="6.831" transform="matrix(0.860305, -0.509779, 0.516445, 0.856355, -291.970561, 40.619389)"/>
  <ellipse style="fill: rgb(21, 41, 124);" cx="-269.39" cy="102.409" rx="17.022" ry="9.841"/>
  <path d="M -284.66 102.116 L -284.81 127.047 L -284.78 127.047 L -284.85 139.888 L -289.06 139.858 C -292.07 138.822 -294.46 136.487 -295.58 133.532 L -295.54 126.97 L -295.5 126.97 L -295.37 105.837 L -295.52 105.836 L -295.44 92.231 L -288.41 102.089 L -284.66 102.116 Z" style="stroke: rgb(0, 0, 0); fill: url(&quot;#gradient-1&quot;); transform-box: fill-box; transform-origin: 50.977% 51.4663%;" transform="matrix(0.996488, 0.083737, -0.083737, 0.996488, 0.000001, 0)"/>
  <path d="M -238.37 74.862 C -238.37 79.571 -239.4 84.028 -241.24 88.001 C -242.26 91.773 -243.92 94.97 -246.08 97.261 C -245.96 97.487 -245.86 97.729 -245.77 97.981 L -245.28 101.009 L -245.46 101.037 L -245.27 101.111 L -245.56 104.051 C -245.96 105.276 -246.62 106.108 -247.37 106.305 L -248.35 105.94 L -247.84 100.807 L -248.13 99.054 C -249.51 100.028 -251.04 100.679 -252.69 100.948 C -254.21 101.885 -255.83 102.681 -257.51 103.318 L -255.71 107.364 L -256.53 108.009 C -257.31 108.047 -258.2 107.458 -258.96 106.414 L -259.98 104.124 C -262.37 104.783 -264.87 105.133 -267.46 105.133 C -283.52 105.133 -296.55 91.58 -296.55 74.862 C -296.55 58.144 -283.52 44.592 -267.46 44.592 C -251.39 44.592 -238.37 58.144 -238.37 74.862 Z" style="stroke: rgb(0, 0, 0); fill: rgb(38, 123, 67);"/>
  <ellipse style="fill: rgb(56, 154, 89);" cx="-265.28" cy="74.127" rx="26.776" ry="25.876"/>
  <ellipse style="" cx="-242.18" cy="71.216" rx="3.508" ry="12.546"/>
  <ellipse style="" cx="-259.2" cy="73.114" rx="9.419" ry="12.546"/>
  <path d="M -294.73 20.719 C -291.86 15.707 -285.78 11.767 -278.17 10.037 L -268.41 10.037 L -268.41 10.019 L -257.78 10.019 C -250.17 11.75 -244.09 15.69 -241.22 20.702 L -241.22 23.596 L -241.17 23.596 L -241.17 53.391 L -294.79 53.391 L -294.79 23.596 L -294.73 23.596 L -294.73 20.719 Z" style="stroke: rgb(0, 0, 0); stroke-linejoin: round; stroke-linecap: round; fill: rgb(27, 66, 228);"/>
  <path d="M -242.52 26.458 L -242.52 28.914 L -242.5 28.914 L -242.5 54.192 L -246.48 54.192 L -246.48 18.537 C -244.68 20.284 -243.27 23.084 -242.52 26.458 Z" style="stroke-linejoin: round; stroke-linecap: round; fill: rgb(21, 41, 124);"/>
  <path d="M -306.92 55.528 C -305.78 53.31 -303.18 51.537 -299.87 50.7 L -292.5 50.7 L -292.5 50.829 L -238.38 50.829 L -238.38 50.843 L -236.48 50.843 C -233.17 51.679 -230.56 53.452 -229.42 55.67 L -229.42 60.921 C -230.56 63.139 -233.17 64.912 -236.48 65.748 L -238.38 65.748 L -238.38 65.847 L -292.5 65.847 L -292.5 65.891 L -299.87 65.889 C -303.18 65.053 -305.78 63.28 -306.92 61.062 L -306.92 57.962 L -306.92 55.528 Z" style="stroke: rgb(0, 0, 0); stroke-linejoin: round; stroke-linecap: round; fill: rgb(27, 66, 228);"/>
  <path d="M -297.07 47.119 L -285.73 47.326 L -285.73 47.414 L -252.53 47.414 L -252.53 47.314 L -241.19 47.106 L -241.16 49.566 C -242.05 51.345 -244.08 52.79 -246.68 53.503 L -252.47 53.608 L -252.47 53.344 L -285.78 53.344 L -285.78 53.35 L -286.09 53.344 L -289.11 53.344 L -289.11 53.29 L -291.58 53.242 C -294.18 52.56 -296.21 51.175 -297.09 49.472 L -297.07 47.119 Z" style="stroke: rgb(0, 0, 0); stroke-linejoin: round; stroke-linecap: round; fill: rgb(255, 156, 0);"/>
  <g style="transform-origin: 22.8288px 19.7957px;" transform="matrix(0.836036, 0.083977, -0.089959, 0.895595, -316.96521, 4.654562)">
    <path d="M 11.143 10.54 L 34.442 27.907 C 35.424 27.503 36.541 27.275 37.726 27.274 C 41.647 27.274 44.826 29.779 44.826 32.869 C 44.825 35.959 41.647 38.464 37.726 38.464 C 33.805 38.464 30.626 35.959 30.627 32.869 C 30.626 32.433 30.69 32.009 30.809 31.601 L 21.619 24.75 C 15.6 19.589 11.297 14.947 9.957 12.16 L 11.143 10.54 Z" style="stroke: rgb(0, 0, 0); stroke-linejoin: round; stroke-linecap: round; fill: url(&quot;#gradient-5&quot;);"/>
    <g transform="matrix(1.335116, -0.431347, 0.481542, 1.490481, 2.60658, -0.620358)" style="transform-origin: 11.862px 17.639px;">
      <path d="M 13.052 20.964 L 13.052 26.317 L 10.434 26.317 L 10.434 23.583 C 10.71 22.354 11.297 21.388 12.028 20.964 L 13.052 20.964 Z" style="stroke: rgb(0, 0, 0); stroke-linejoin: round; stroke-linecap: round; fill: rgb(0, 255, 198); transform-box: fill-box; transform-origin: 50% 50%; stroke-width: 0.641198px;" transform="matrix(-0.570538, -0.821271, 0.821271, -0.570538, -0.000001, -0.000002)"/>
      <path d="M 8.896 12.98 L 8.896 18.333 L 6.278 18.333 L 6.278 15.599 C 6.554 14.37 7.141 13.404 7.872 12.98 L 8.896 12.98 Z" style="stroke: rgb(0, 0, 0); stroke-linejoin: round; stroke-linecap: round; fill: rgb(0, 255, 198); transform-origin: 7.587px 15.657px; stroke-width: 0.641194px;" transform="matrix(-0.142092, -0.989853, 0.989853, -0.142092, -0.000002, 0)"/>
      <path d="M 10.662 17.127 L 10.662 22.48 L 8.044 22.48 L 8.044 19.746 C 8.32 18.517 8.907 17.551 9.638 17.127 L 10.662 17.127 Z" style="stroke: rgb(0, 0, 0); stroke-linejoin: round; stroke-linecap: round; fill: rgb(0, 255, 198); transform-origin: 9.353px 19.804px; stroke-width: 0.641197px;" transform="matrix(-0.465849, -0.884864, 0.884864, -0.465849, 0.000001, 0)"/>
      <path d="M 17.44 17.691 L 17.44 12.338 L 14.822 12.338 L 14.822 15.072 C 15.098 16.301 15.685 17.267 16.416 17.691 L 17.44 17.691 Z" style="stroke: rgb(0, 0, 0); stroke-linejoin: round; stroke-linecap: round; fill: rgb(0, 255, 198); transform-origin: 16.131px 15.014px; stroke-width: 0.641199px;" transform="matrix(-0.689551, -0.724237, 0.724237, -0.689551, 0.000001, 0)"/>
      <path d="M 14.93 14.622 L 14.93 9.269 L 12.312 9.269 L 12.312 12.003 C 12.588 13.232 13.175 14.198 13.906 14.622 L 14.93 14.622 Z" style="stroke: rgb(0, 0, 0); stroke-linejoin: round; stroke-linecap: round; fill: rgb(0, 255, 198); transform-origin: 13.621px 11.945px; stroke-width: 0.641199px;" transform="matrix(-0.782727, -0.622365, 0.622365, -0.782727, -0.000002, -0.000002)"/>
    </g>
    <path d="M 25.423 10.751 L 19.403 16.532 L 22.206 19.502 L 25.281 16.549 C 26.368 14.909 26.826 13.2 26.52 11.912 L 25.423 10.751 Z" style="stroke: rgb(0, 0, 0); stroke-linejoin: round; stroke-linecap: round; fill: rgb(0, 255, 198); transform-origin: 23.094px 14.952px;" transform="matrix(0.964438, -0.264309, 0.264309, 0.964438, 0, 0.000001)"/>
  </g>
  <ellipse style="stroke: rgb(0, 0, 0); fill: rgb(255, 156, 0);" cx="-253.79" cy="51.387" rx="6.785" ry="11.655"/>
  <ellipse style="stroke: rgb(0, 0, 0); fill: rgb(255, 156, 0);" cx="-243.11" cy="50.607" rx="3.112" ry="9.776"/>
  <g transform="matrix(0.684348, 0, 0, 1.042168, -231.79567, -13.502951)" style="">
    <ellipse style="stroke: rgb(0, 0, 0); fill: rgb(149, 149, 149);" cx="-30.569" cy="62.295" rx="7.479" ry="8.294"/>
    <ellipse style="fill: rgb(96, 96, 96);" cx="-28.592" cy="62.146" rx="4.78" ry="6.392"/>
  </g>
  <ellipse style="stroke: rgb(0, 0, 0); fill: rgb(96, 96, 96);" cx="-242" cy="50.222" rx="1.795" ry="7.944"/>
  <path style="stroke: rgb(0, 0, 0); stroke-miterlimit: 4.63; stroke-width: 7.48475px; fill: rgb(255, 156, 0);" transform="matrix(0.033947, 0, 0, 0.108123, -261.870026, 2.686116)" d="M 464.356 181 L 485.644 181 L 490.136 213.513 A 56.55 56.55 0 0 1 502.825 218.769 L 528.992 198.955 L 544.045 214.008 L 524.231 240.175 A 56.55 56.55 0 0 1 529.487 252.864 L 562 257.356 L 562 278.644 L 529.487 283.136 A 56.55 56.55 0 0 1 524.231 295.825 L 544.045 321.992 L 528.992 337.045 L 502.825 317.231 A 56.55 56.55 0 0 1 490.136 322.487 L 485.644 355 L 464.356 355 L 459.864 322.487 A 56.55 56.55 0 0 1 447.175 317.231 L 421.008 337.045 L 405.955 321.992 L 425.769 295.825 A 56.55 56.55 0 0 1 420.513 283.136 L 388 278.644 L 388 257.356 L 420.513 252.864 A 56.55 56.55 0 0 1 425.769 240.175 L 405.955 214.008 L 421.008 198.955 L 447.175 218.769 A 56.55 56.55 0 0 1 459.864 213.513 Z M 475 241.9 A 26.1 26.1 0 0 0 475 294.1 A 26.1 26.1 0 0 0 475 241.9" bx:shape="cog 475 268 26.1 56.55 87 0.38 8 1@36eb139e"/>
  <rect x="-285.01" y="145.957" width="32.233" height="5.42" style="fill: rgb(21, 41, 124);"/>
  <rect x="-286.62" y="142.54" width="33.409" height="4.61" style="stroke: rgb(0, 0, 0); fill: rgb(255, 156, 0);"/>
  <path d="M -255.79 -150.699 L -251.391 -146.333 L -253.071 -139.268 L -258.509 -139.268 L -260.189 -146.333 Z" bx:shape="n-gon -255.79 -144.38 4.625 6.319 5 0 1@53c31678" style="stroke: rgb(0, 0, 0); fill: rgb(119, 77, 10);" transform="matrix(1, 0, 0, -1, 0, 0)"/>
  <path d="M -255.63 -149.226 L -254.463 -145.746 L -254.909 -140.116 L -256.351 -140.116 L -256.797 -145.746 Z" bx:shape="n-gon -255.63 -144.19 1.227 5.036 5 0 1@22564450" style="stroke: rgb(0, 0, 0); fill: rgb(0, 234, 255);" transform="matrix(1, 0, 0, -1, 0, 0)"/>
  <rect x="121.34" y="120.203" width="16.782" height="5.665" style="stroke: rgb(0, 0, 0); fill: rgb(14, 29, 91);" transform="matrix(-0.001597, -0.999999, 0.999996, -0.003565, -359.456848, 236.970474)"/>
  <rect x="119.962" y="124.238" width="19.63" height="25.848" style="stroke: rgb(0, 0, 0); fill: rgb(21, 41, 124);" transform="matrix(-0.001597, -0.999999, 0.999996, -0.003565, -359.992004, 237.236984)"/>
  <path d="M 87.085 130.633 L 101.811 136.949 L 96.186 147.167 L 77.984 147.167 L 72.359 136.949 Z" bx:shape="n-gon 87.085 139.773 15.484 9.14 5 0 1@efafd5d1" style="stroke: rgb(0, 0, 0); fill: rgb(125, 84, 19);" transform="matrix(-0.001597039554, -0.999998724732, 0.999995582243, -0.003564733248, -360.97428935029, 194.374169151168)"/>
  <path d="M 86.579 134.965 L 99.576 142.165 L 94.612 153.815 L 78.546 153.815 L 73.582 142.165 Z" bx:shape="n-gon 86.579 145.385 13.666 10.42 5 0 1@b6835344" style="stroke: rgb(0, 0, 0); fill: rgb(75, 50, 9);" transform="matrix(-0.001597039438, -0.999998724732, 0.999995582244, -0.003564732549, -360.014481630599, 193.232125037655)"/>
  <path d="M 86.427 142.148 L 99.21 147.434 L 94.327 155.987 L 78.527 155.987 L 73.644 147.434 Z" bx:shape="n-gon 86.427 149.798 13.441 7.65 5 0 1@d2cd822c" style="stroke: rgb(0, 0, 0); fill: rgb(255, 156, 0);" transform="matrix(-0.001597039438, -0.999998724732, 0.999995582243, -0.003564733248, -360.844651803316, 193.284676294414)"/>
  <ellipse style="stroke: rgb(0, 0, 0); fill: rgb(0, 255, 255);" cx="86.593" cy="150.219" rx="7.676" ry="4.121" transform="matrix(-0.001597, -0.999999, 0.999996, -0.003565, -359.471616, 193.479276)"/>
  <ellipse style="fill: rgb(95, 255, 255);" cx="86.593" cy="150.219" rx="5.774" ry="3.176" transform="matrix(-0.001597, -0.999999, 0.999996, -0.003565, -359.155423, 192.468946)"/>
  <ellipse style="fill: rgb(165, 255, 255);" cx="86.593" cy="150.219" rx="3.542" ry="1.829" transform="matrix(-0.001597, -0.999999, 0.999996, -0.003565, -358.146146, 190.837812)"/>
  <ellipse style="fill: rgba(0, 0, 0, 0.518);" cx="-301.87" cy="182.061" rx="10.466" ry="1.777"/>
  <g transform="matrix(1, 0, 0, 1, -203.113052, 10.464841)">
    <ellipse style="fill: rgba(0, 0, 0, 0.518);" cx="34.402" cy="168.992" rx="10.466" ry="1.777"/>
    <g style="transform-origin: 22.829px 19.796px;" transform="matrix(0.836036, 0.083977, -0.089959, 0.895595, 26.480444, -3.348921)">
      <path d="M 11.143 10.54 L 34.442 27.907 C 35.424 27.503 36.541 27.275 37.726 27.274 C 41.647 27.274 44.826 29.779 44.826 32.869 C 44.825 35.959 41.647 38.464 37.726 38.464 C 33.805 38.464 30.626 35.959 30.627 32.869 C 30.626 32.433 30.69 32.009 30.809 31.601 L 21.619 24.75 C 15.6 19.589 11.297 14.947 9.957 12.16 L 11.143 10.54 Z" style="stroke: rgb(0, 0, 0); stroke-linejoin: round; stroke-linecap: round; fill: url(&quot;#gradient-6&quot;);"/>
      <g transform="matrix(1.335116, -0.431347, 0.481542, 1.490481, 2.60658, -0.620358)" style="transform-origin: 11.862px 17.639px;">
        <path d="M 13.052 20.964 L 13.052 26.317 L 10.434 26.317 L 10.434 23.583 C 10.71 22.354 11.297 21.388 12.028 20.964 L 13.052 20.964 Z" style="stroke: rgb(0, 0, 0); stroke-linejoin: round; stroke-linecap: round; fill: rgb(0, 255, 198); transform-box: fill-box; transform-origin: 50% 50%; stroke-width: 0.641198px;" transform="matrix(-0.570538, -0.821271, 0.821271, -0.570538, -0.000001, -0.000002)"/>
        <path d="M 8.896 12.98 L 8.896 18.333 L 6.278 18.333 L 6.278 15.599 C 6.554 14.37 7.141 13.404 7.872 12.98 L 8.896 12.98 Z" style="stroke: rgb(0, 0, 0); stroke-linejoin: round; stroke-linecap: round; fill: rgb(0, 255, 198); transform-origin: 7.587px 15.657px; stroke-width: 0.641194px;" transform="matrix(-0.142092, -0.989853, 0.989853, -0.142092, -0.000002, 0)"/>
        <path d="M 10.662 17.127 L 10.662 22.48 L 8.044 22.48 L 8.044 19.746 C 8.32 18.517 8.907 17.551 9.638 17.127 L 10.662 17.127 Z" style="stroke: rgb(0, 0, 0); stroke-linejoin: round; stroke-linecap: round; fill: rgb(0, 255, 198); transform-origin: 9.353px 19.804px; stroke-width: 0.641197px;" transform="matrix(-0.465849, -0.884864, 0.884864, -0.465849, 0.000001, 0)"/>
        <path d="M 17.44 17.691 L 17.44 12.338 L 14.822 12.338 L 14.822 15.072 C 15.098 16.301 15.685 17.267 16.416 17.691 L 17.44 17.691 Z" style="stroke: rgb(0, 0, 0); stroke-linejoin: round; stroke-linecap: round; fill: rgb(0, 255, 198); transform-origin: 16.131px 15.014px; stroke-width: 0.641199px;" transform="matrix(-0.689551, -0.724237, 0.724237, -0.689551, 0.000001, 0)"/>
        <path d="M 14.93 14.622 L 14.93 9.269 L 12.312 9.269 L 12.312 12.003 C 12.588 13.232 13.175 14.198 13.906 14.622 L 14.93 14.622 Z" style="stroke: rgb(0, 0, 0); stroke-linejoin: round; stroke-linecap: round; fill: rgb(0, 255, 198); transform-origin: 13.621px 11.945px; stroke-width: 0.641199px;" transform="matrix(-0.782727, -0.622365, 0.622365, -0.782727, -0.000002, -0.000002)"/>
      </g>
      <path d="M 25.423 10.751 L 19.403 16.532 L 22.206 19.502 L 25.281 16.549 C 26.368 14.909 26.826 13.2 26.52 11.912 L 25.423 10.751 Z" style="stroke: rgb(0, 0, 0); stroke-linejoin: round; stroke-linecap: round; fill: rgb(0, 255, 198); transform-origin: 23.094px 14.952px;" transform="matrix(0.964438, -0.264309, 0.264309, 0.964438, 0, 0.000001)"/>
    </g>
    <path d="M 63.892 88.451 L 63.832 112.292 L 63.792 112.292 L 63.762 124.574 L 68.532 124.582 C 71.952 123.616 74.702 121.404 75.992 118.587 L 76.012 112.312 L 75.972 112.312 L 76.022 92.103 L 76.192 92.103 L 76.222 79.093 L 68.162 88.458 L 63.892 88.451 Z" style="stroke: rgb(0, 0, 0); fill: url(&quot;#gradient-7&quot;); transform-origin: 69.713px 102.218px;" transform="matrix(0.09792, -0.995194, 0.995194, 0.09792, 0.000011, 0.00001)"/>
    <rect x="43.849" y="148.187" width="17.207" height="27.796" style="stroke: rgb(0, 0, 0); fill: url(&quot;#gradient-8&quot;);"/>
    <rect x="28.822" y="142.072" width="18.485" height="33.949" style="stroke: rgb(0, 0, 0); fill: url(&quot;#gradient-9&quot;);"/>
    <path d="M 62.012 93.297 L 62.012 171.479 L 56.792 171.479 L 54.512 153.495 L 51.712 171.479 L 46.502 171.479 L 46.502 171.404 L 28.532 171.404 L 28.532 93.165 L 49.252 93.165 L 49.252 93.297 L 62.012 93.297 Z" style="stroke: rgb(0, 0, 0); fill: rgb(27, 66, 228);"/>
    <ellipse style="fill: rgb(21, 41, 124); transform-origin: 31.431px 66.892px;" cx="31.431" cy="66.892" rx="4.248" ry="6.831" transform="matrix(0.860305, -0.509779, 0.516445, 0.856355, 22.050843, 34.086808)"/>
    <ellipse style="fill: rgb(21, 41, 124);" cx="44.632" cy="95.877" rx="17.022" ry="9.841"/>
    <path d="M 29.362 95.584 L 29.212 120.515 L 29.242 120.515 L 29.172 133.356 L 24.962 133.326 C 21.952 132.29 19.562 129.955 18.442 127 L 18.482 120.438 L 18.522 120.438 L 18.652 99.305 L 18.502 99.304 L 18.582 85.699 L 25.612 95.557 L 29.362 95.584 Z" style="stroke: rgb(0, 0, 0); fill: url(&quot;#gradient-10&quot;); transform-origin: 24.009px 110.226px;" transform="matrix(0.999982, -0.005989, 0.005989, 0.999982, 0, 0)"/>
    <path d="M 75.652 68.33 C 75.652 73.039 74.622 77.496 72.782 81.469 C 71.762 85.241 70.102 88.438 67.942 90.729 C 68.062 90.955 68.162 91.197 68.252 91.449 L 68.742 94.477 L 68.562 94.505 L 68.752 94.579 L 68.462 97.519 C 68.062 98.744 67.402 99.576 66.652 99.773 L 65.672 99.408 L 66.182 94.275 L 65.892 92.522 C 64.512 93.496 62.982 94.147 61.332 94.416 C 59.812 95.353 58.192 96.149 56.512 96.786 L 58.312 100.832 L 57.492 101.477 C 56.712 101.515 55.822 100.926 55.062 99.882 L 54.042 97.592 C 51.652 98.251 49.152 98.601 46.562 98.601 C 30.502 98.601 17.472 85.048 17.472 68.33 C 17.472 51.612 30.502 38.06 46.562 38.06 C 62.632 38.06 75.652 51.612 75.652 68.33 Z" style="stroke: rgb(0, 0, 0); fill: rgb(38, 123, 67);"/>
    <ellipse style="fill: rgb(56, 154, 89);" cx="48.742" cy="67.595" rx="26.776" ry="25.876"/>
    <ellipse style="" cx="71.842" cy="63.684" rx="3.508" ry="12.546"/>
    <ellipse style="" cx="53.822" cy="66.582" rx="9.419" ry="12.546"/>
    <path d="M 19.292 14.187 C 22.162 9.175 28.242 5.235 35.852 3.505 L 45.612 3.505 L 45.612 3.487 L 56.242 3.487 C 63.852 5.218 69.932 9.158 72.802 14.17 L 72.802 17.064 L 72.852 17.064 L 72.852 46.859 L 19.232 46.859 L 19.232 17.064 L 19.292 17.064 L 19.292 14.187 Z" style="stroke: rgb(0, 0, 0); stroke-linejoin: round; stroke-linecap: round; fill: rgb(27, 66, 228);"/>
    <path d="M 71.502 19.926 L 71.502 22.382 L 71.522 22.382 L 71.522 47.66 L 67.542 47.66 L 67.542 12.005 C 69.342 13.752 70.752 16.552 71.502 19.926 Z" style="stroke-linejoin: round; stroke-linecap: round; fill: rgb(21, 41, 124);"/>
    <path d="M 7.102 48.996 C 8.242 46.778 10.842 45.005 14.152 44.168 L 21.522 44.168 L 21.522 44.297 L 75.642 44.297 L 75.642 44.311 L 77.542 44.311 C 80.852 45.147 83.462 46.92 84.602 49.138 L 84.602 54.389 C 83.462 56.607 80.852 58.38 77.542 59.216 L 75.642 59.216 L 75.642 59.315 L 21.522 59.315 L 21.522 59.359 L 14.152 59.357 C 10.842 58.521 8.242 56.748 7.102 54.53 L 7.102 51.43 L 7.102 48.996 Z" style="stroke: rgb(0, 0, 0); stroke-linejoin: round; stroke-linecap: round; fill: rgb(27, 66, 228);"/>
    <path d="M 16.952 40.587 L 28.292 40.794 L 28.292 40.882 L 61.492 40.882 L 61.492 40.782 L 72.832 40.574 L 72.862 43.034 C 71.972 44.813 69.942 46.258 67.342 46.971 L 61.552 47.076 L 61.552 46.812 L 28.242 46.812 L 28.242 46.818 L 27.932 46.812 L 24.912 46.812 L 24.912 46.758 L 22.442 46.71 C 19.842 46.028 17.812 44.643 16.932 42.94 L 16.952 40.587 Z" style="stroke: rgb(0, 0, 0); stroke-linejoin: round; stroke-linecap: round; fill: rgb(255, 156, 0);"/>
    <g style="transform-origin: 22.829px 19.796px;" transform="matrix(0.78389, 0.302531, -0.324083, 0.839735, -2.943754, -1.877707)">
      <path d="M 11.143 10.54 L 34.442 27.907 C 35.424 27.503 36.541 27.275 37.726 27.274 C 41.647 27.274 44.826 29.779 44.826 32.869 C 44.825 35.959 41.647 38.464 37.726 38.464 C 33.805 38.464 30.626 35.959 30.627 32.869 C 30.626 32.433 30.69 32.009 30.809 31.601 L 21.619 24.75 C 15.6 19.589 11.297 14.947 9.957 12.16 L 11.143 10.54 Z" style="stroke: rgb(0, 0, 0); stroke-linejoin: round; stroke-linecap: round; fill: url(&quot;#gradient-11&quot;);"/>
      <g transform="matrix(1.335116, -0.431347, 0.481542, 1.490481, 2.60658, -0.620358)" style="transform-origin: 11.862px 17.639px;">
        <path d="M 13.052 20.964 L 13.052 26.317 L 10.434 26.317 L 10.434 23.583 C 10.71 22.354 11.297 21.388 12.028 20.964 L 13.052 20.964 Z" style="stroke: rgb(0, 0, 0); stroke-linejoin: round; stroke-linecap: round; fill: rgb(0, 255, 198); transform-box: fill-box; transform-origin: 50% 50%; stroke-width: 0.641198px;" transform="matrix(-0.570538, -0.821271, 0.821271, -0.570538, -0.000001, -0.000002)"/>
        <path d="M 8.896 12.98 L 8.896 18.333 L 6.278 18.333 L 6.278 15.599 C 6.554 14.37 7.141 13.404 7.872 12.98 L 8.896 12.98 Z" style="stroke: rgb(0, 0, 0); stroke-linejoin: round; stroke-linecap: round; fill: rgb(0, 255, 198); transform-origin: 7.587px 15.657px; stroke-width: 0.641194px;" transform="matrix(-0.142092, -0.989853, 0.989853, -0.142092, -0.000002, 0)"/>
        <path d="M 10.662 17.127 L 10.662 22.48 L 8.044 22.48 L 8.044 19.746 C 8.32 18.517 8.907 17.551 9.638 17.127 L 10.662 17.127 Z" style="stroke: rgb(0, 0, 0); stroke-linejoin: round; stroke-linecap: round; fill: rgb(0, 255, 198); transform-origin: 9.353px 19.804px; stroke-width: 0.641197px;" transform="matrix(-0.465849, -0.884864, 0.884864, -0.465849, 0.000001, 0)"/>
        <path d="M 17.44 17.691 L 17.44 12.338 L 14.822 12.338 L 14.822 15.072 C 15.098 16.301 15.685 17.267 16.416 17.691 L 17.44 17.691 Z" style="stroke: rgb(0, 0, 0); stroke-linejoin: round; stroke-linecap: round; fill: rgb(0, 255, 198); transform-origin: 16.131px 15.014px; stroke-width: 0.641199px;" transform="matrix(-0.689551, -0.724237, 0.724237, -0.689551, 0.000001, 0)"/>
        <path d="M 14.93 14.622 L 14.93 9.269 L 12.312 9.269 L 12.312 12.003 C 12.588 13.232 13.175 14.198 13.906 14.622 L 14.93 14.622 Z" style="stroke: rgb(0, 0, 0); stroke-linejoin: round; stroke-linecap: round; fill: rgb(0, 255, 198); transform-origin: 13.621px 11.945px; stroke-width: 0.641199px;" transform="matrix(-0.782727, -0.622365, 0.622365, -0.782727, -0.000002, -0.000002)"/>
      </g>
      <path d="M 25.423 10.751 L 19.403 16.532 L 22.206 19.502 L 25.281 16.549 C 26.368 14.909 26.826 13.2 26.52 11.912 L 25.423 10.751 Z" style="stroke: rgb(0, 0, 0); stroke-linejoin: round; stroke-linecap: round; fill: rgb(0, 255, 198); transform-origin: 23.094px 14.952px;" transform="matrix(0.964438, -0.264309, 0.264309, 0.964438, 0, 0.000001)"/>
    </g>
    <ellipse style="stroke: rgb(0, 0, 0); fill: rgb(255, 156, 0);" cx="60.232" cy="44.855" rx="6.785" ry="11.655"/>
    <ellipse style="stroke: rgb(0, 0, 0); fill: rgb(255, 156, 0);" cx="70.912" cy="44.075" rx="3.112" ry="9.776"/>
    <g transform="matrix(0.684348, 0, 0, 1.042168, 82.225784, -20.035227)" style="">
      <ellipse style="stroke: rgb(0, 0, 0); fill: rgb(149, 149, 149);" cx="-30.569" cy="62.295" rx="7.479" ry="8.294"/>
      <ellipse style="fill: rgb(96, 96, 96);" cx="-28.592" cy="62.146" rx="4.78" ry="6.392"/>
    </g>
    <ellipse style="stroke: rgb(0, 0, 0); fill: rgb(96, 96, 96);" cx="72.022" cy="43.69" rx="1.795" ry="7.944"/>
    <path style="stroke: rgb(0, 0, 0); stroke-miterlimit: 4.63; stroke-width: 7.48475px; fill: rgb(255, 156, 0);" transform="matrix(0.033947, 0, 0, 0.108123, 52.151447, -3.846161)" d="M 464.356 181 L 485.644 181 L 490.136 213.513 A 56.55 56.55 0 0 1 502.825 218.769 L 528.992 198.955 L 544.045 214.008 L 524.231 240.175 A 56.55 56.55 0 0 1 529.487 252.864 L 562 257.356 L 562 278.644 L 529.487 283.136 A 56.55 56.55 0 0 1 524.231 295.825 L 544.045 321.992 L 528.992 337.045 L 502.825 317.231 A 56.55 56.55 0 0 1 490.136 322.487 L 485.644 355 L 464.356 355 L 459.864 322.487 A 56.55 56.55 0 0 1 447.175 317.231 L 421.008 337.045 L 405.955 321.992 L 425.769 295.825 A 56.55 56.55 0 0 1 420.513 283.136 L 388 278.644 L 388 257.356 L 420.513 252.864 A 56.55 56.55 0 0 1 425.769 240.175 L 405.955 214.008 L 421.008 198.955 L 447.175 218.769 A 56.55 56.55 0 0 1 459.864 213.513 Z M 475 241.9 A 26.1 26.1 0 0 0 475 294.1 A 26.1 26.1 0 0 0 475 241.9" bx:shape="cog 475 268 26.1 56.55 87 0.38 8 1@36eb139e"/>
    <rect x="29.012" y="139.425" width="32.233" height="5.42" style="fill: rgb(21, 41, 124);"/>
    <rect x="27.402" y="136.008" width="33.409" height="4.61" style="stroke: rgb(0, 0, 0); fill: rgb(255, 156, 0);"/>
    <path d="M 58.232 -144.159 L 62.631 -139.793 L 60.951 -132.728 L 55.513 -132.728 L 53.833 -139.793 Z" bx:shape="n-gon 58.232 -137.84 4.625 6.319 5 0 1@7dd0e3f9" style="stroke: rgb(0, 0, 0); fill: rgb(119, 77, 10);" transform="matrix(1, 0, 0, -1, 0, 0)"/>
    <path d="M 58.392 -142.686 L 59.559 -139.206 L 59.113 -133.576 L 57.671 -133.576 L 57.225 -139.206 Z" bx:shape="n-gon 58.392 -137.65 1.227 5.036 5 0 1@c9dc196a" style="stroke: rgb(0, 0, 0); fill: rgb(0, 234, 255);" transform="matrix(1, 0, 0, -1, 0, 0)"/>
    <g transform="matrix(0.987956, 0.154733, -0.154733, 0.987956, -1.040501, 5.332662)" style="transform-origin: 91.7959px 100.262px;">
      <rect x="121.34" y="120.203" width="16.782" height="5.665" style="stroke: rgb(0, 0, 0); fill: rgb(14, 29, 91);" transform="matrix(-0.001597, -0.999999, 0.999996, -0.003565, -45.43539, 230.438202)"/>
      <rect x="119.962" y="124.238" width="19.63" height="25.848" style="stroke: rgb(0, 0, 0); fill: rgb(21, 41, 124);" transform="matrix(-0.001597, -0.999999, 0.999996, -0.003565, -45.970547, 230.704712)"/>
      <path d="M 87.085 130.633 L 101.811 136.949 L 96.186 147.167 L 77.984 147.167 L 72.359 136.949 Z" bx:shape="n-gon 87.085 139.773 15.484 9.14 5 0 1@efafd5d1" style="stroke: rgb(0, 0, 0); fill: rgb(125, 84, 19);" transform="matrix(-0.001597002375, -0.999998724791, 0.999995581878, -0.003565007288, -46.953037604291, 187.84202926895)"/>
      <path d="M 86.579 134.965 L 99.576 142.165 L 94.612 153.815 L 78.546 153.815 L 73.582 142.165 Z" bx:shape="n-gon 86.579 145.385 13.666 10.42 5 0 1@b6835344" style="stroke: rgb(0, 0, 0); fill: rgb(75, 50, 9);" transform="matrix(-0.001597002375, -0.999998724791, 0.999995581878, -0.003565007288, -45.993229882453, 186.699985095062)"/>
      <path d="M 86.427 142.148 L 99.21 147.434 L 94.327 155.987 L 78.527 155.987 L 73.644 147.434 Z" bx:shape="n-gon 86.427 149.798 13.441 7.65 5 0 1@d2cd822c" style="stroke: rgb(0, 0, 0); fill: rgb(255, 156, 0);" transform="matrix(-0.001597002375, -0.999998724791, 0.999995581878, -0.003565007288, -46.823403868448, 186.752536333687)"/>
      <ellipse style="stroke: rgb(0, 0, 0); fill: rgb(0, 255, 255);" cx="86.593" cy="150.219" rx="7.676" ry="4.121" transform="matrix(-0.001597, -0.999999, 0.999996, -0.003565, -45.44951, 186.946861)"/>
      <ellipse style="fill: rgb(95, 255, 255);" cx="86.593" cy="150.219" rx="5.774" ry="3.176" transform="matrix(-0.001597, -0.999999, 0.999996, -0.003565, -45.133317, 185.936531)"/>
      <ellipse style="fill: rgb(165, 255, 255);" cx="86.593" cy="150.219" rx="3.542" ry="1.829" transform="matrix(-0.001597, -0.999999, 0.999996, -0.003565, -44.124025, 184.305397)"/>
    </g>
    <ellipse style="fill: rgba(0, 0, 0, 0.518);" cx="18.593" cy="176.049" rx="10.466" ry="1.777"/>
  </g>
  <g>
    <ellipse style="fill: rgba(0, 0, 0, 0.518);" cx="30.556" cy="172.477" rx="10.466" ry="1.777"/>
    <path d="M 39.848 9.082 L 57.765 26.592 C 58.622 26.313 59.576 26.202 60.567 26.301 C 63.845 26.63 66.277 29.14 66 31.908 C 65.721 34.676 62.838 36.652 59.56 36.323 C 56.282 35.993 53.849 33.483 54.128 30.715 C 54.167 30.325 54.259 29.951 54.395 29.595 L 47.328 22.688 C 42.76 17.56 39.58 13.042 38.71 10.433 L 39.848 9.082 Z" style="stroke: rgb(0, 0, 0); stroke-linejoin: round; stroke-linecap: round; fill: url(&quot;#gradient-12&quot;); transform-origin: 52.15px 22.948px;"/>
    <g transform="matrix(1.155009, -0.274193, 0.268504, 1.375306, 30.183397, -2.478533)" style="transform-origin: 11.862px 17.639px;">
      <path d="M 13.052 20.964 L 13.052 26.317 L 10.434 26.317 L 10.434 23.583 C 10.71 22.354 11.297 21.388 12.028 20.964 L 13.052 20.964 Z" style="stroke: rgb(0, 0, 0); stroke-linejoin: round; stroke-linecap: round; fill: rgb(0, 255, 198); transform-box: fill-box; transform-origin: 50% 50%; stroke-width: 0.641198px;" transform="matrix(-0.570538, -0.821271, 0.821271, -0.570538, -0.000001, -0.000002)"/>
      <path d="M 8.896 12.98 L 8.896 18.333 L 6.278 18.333 L 6.278 15.599 C 6.554 14.37 7.141 13.404 7.872 12.98 L 8.896 12.98 Z" style="stroke: rgb(0, 0, 0); stroke-linejoin: round; stroke-linecap: round; fill: rgb(0, 255, 198); transform-origin: 7.587px 15.657px; stroke-width: 0.641194px;" transform="matrix(-0.142092, -0.989853, 0.989853, -0.142092, -0.000002, 0)"/>
      <path d="M 10.662 17.127 L 10.662 22.48 L 8.044 22.48 L 8.044 19.746 C 8.32 18.517 8.907 17.551 9.638 17.127 L 10.662 17.127 Z" style="stroke: rgb(0, 0, 0); stroke-linejoin: round; stroke-linecap: round; fill: rgb(0, 255, 198); transform-origin: 9.353px 19.804px; stroke-width: 0.641197px;" transform="matrix(-0.465849, -0.884864, 0.884864, -0.465849, 0.000001, 0)"/>
      <path d="M 17.44 17.691 L 17.44 12.338 L 14.822 12.338 L 14.822 15.072 C 15.098 16.301 15.685 17.267 16.416 17.691 L 17.44 17.691 Z" style="stroke: rgb(0, 0, 0); stroke-linejoin: round; stroke-linecap: round; fill: rgb(0, 255, 198); transform-origin: 16.131px 15.014px; stroke-width: 0.641199px;" transform="matrix(-0.689551, -0.724237, 0.724237, -0.689551, 0.000001, 0)"/>
      <path d="M 14.93 14.622 L 14.93 9.269 L 12.312 9.269 L 12.312 12.003 C 12.588 13.232 13.175 14.198 13.906 14.622 L 14.93 14.622 Z" style="stroke: rgb(0, 0, 0); stroke-linejoin: round; stroke-linecap: round; fill: rgb(0, 255, 198); transform-origin: 13.621px 11.945px; stroke-width: 0.641199px;" transform="matrix(-0.782727, -0.622365, 0.622365, -0.782727, -0.000002, -0.000002)"/>
    </g>
    <path d="M 50.812 9.949 L 46.591 16.008 L 49.316 18.203 L 51.472 15.108 C 52.154 13.486 52.305 11.901 51.878 10.807 L 50.812 9.949 Z" style="stroke: rgb(0, 0, 0); stroke-linejoin: round; stroke-linecap: round; fill: rgb(0, 255, 198); transform-origin: 23.094px 14.952px;"/>
    <path d="M 63.368 90.354 L 63.308 114.195 L 63.268 114.195 L 63.238 126.477 L 68.008 126.485 C 71.428 125.519 74.178 123.307 75.468 120.49 L 75.488 114.215 L 75.448 114.215 L 75.498 94.006 L 75.668 94.006 L 75.698 80.996 L 67.638 90.361 L 63.368 90.354 Z" style="stroke: rgb(0, 0, 0); fill: url(&quot;#gradient-13&quot;); transform-origin: 69.189px 104.121px;" transform="matrix(0.02326, -0.999729, 0.999729, 0.02326, 0.000015, 0.000001)"/>
    <rect x="47.908" y="151.09" width="12.624" height="27.796" style="stroke: rgb(0, 0, 0); fill: url(&quot;#gradient-14&quot;);"/>
    <rect x="29.107" y="141.818" width="18.485" height="33.949" style="stroke: rgb(0, 0, 0); fill: url(&quot;#gradient-15&quot;);"/>
    <path d="M 61.488 95.2 L 61.488 173.382 L 56.268 173.382 L 53.988 155.398 L 51.188 173.382 L 45.978 173.382 L 45.978 173.307 L 28.008 173.307 L 28.008 95.068 L 48.728 95.068 L 48.728 95.2 L 61.488 95.2 Z" style="stroke: rgb(0, 0, 0); fill: rgb(27, 66, 228);"/>
    <ellipse style="fill: rgb(21, 41, 124); transform-origin: 31.431px 66.892px;" cx="31.431" cy="66.892" rx="4.248" ry="6.831" transform="matrix(0.860305, -0.509779, 0.516445, 0.856355, 21.526545, 35.98961)"/>
    <ellipse style="fill: rgb(21, 41, 124);" cx="44.108" cy="97.78" rx="17.022" ry="9.841"/>
    <path d="M 36.082 95.923 L 35.932 120.854 L 35.962 120.854 L 35.892 133.695 L 31.682 133.665 C 28.672 132.629 26.282 130.294 25.162 127.339 L 25.202 120.777 L 25.242 120.777 L 25.372 99.644 L 25.222 99.643 L 25.302 86.038 L 32.332 95.896 L 36.082 95.923 Z" style="stroke: rgb(0, 0, 0); fill: url(&quot;#gradient-16&quot;); transform-origin: 30.729px 110.565px;" transform="matrix(0.879953, -0.475061, 0.475061, 0.879953, 0.000001, -0.000002)"/>
    <path d="M 75.128 70.233 C 75.128 74.942 74.098 79.399 72.258 83.372 C 71.238 87.144 69.578 90.341 67.418 92.632 C 67.538 92.858 67.638 93.1 67.728 93.352 L 68.218 96.38 L 68.038 96.408 L 68.228 96.482 L 67.938 99.422 C 67.538 100.647 66.878 101.479 66.128 101.676 L 65.148 101.311 L 65.658 96.178 L 65.368 94.425 C 63.988 95.399 62.458 96.05 60.808 96.319 C 59.288 97.256 57.668 98.052 55.988 98.689 L 57.788 102.735 L 56.968 103.38 C 56.188 103.418 55.298 102.829 54.538 101.785 L 53.518 99.495 C 51.128 100.154 48.628 100.504 46.038 100.504 C 29.978 100.504 16.948 86.951 16.948 70.233 C 16.948 53.515 29.978 39.963 46.038 39.963 C 62.108 39.963 75.128 53.515 75.128 70.233 Z" style="stroke: rgb(0, 0, 0); fill: rgb(38, 123, 67);"/>
    <ellipse style="fill: rgb(56, 154, 89);" cx="48.218" cy="69.498" rx="26.776" ry="25.876"/>
    <ellipse style="" cx="71.318" cy="65.587" rx="3.508" ry="12.546"/>
    <ellipse style="" cx="53.298" cy="68.485" rx="9.419" ry="12.546"/>
    <path d="M 18.768 16.09 C 21.638 11.078 27.718 7.138 35.328 5.408 L 45.088 5.408 L 45.088 5.39 L 55.718 5.39 C 63.328 7.121 69.408 11.061 72.278 16.073 L 72.278 18.967 L 72.328 18.967 L 72.328 48.762 L 18.708 48.762 L 18.708 18.967 L 18.768 18.967 L 18.768 16.09 Z" style="stroke: rgb(0, 0, 0); stroke-linejoin: round; stroke-linecap: round; fill: rgb(27, 66, 228);"/>
    <path d="M 70.978 21.829 L 70.978 24.285 L 70.998 24.285 L 70.998 49.563 L 67.018 49.563 L 67.018 13.908 C 68.818 15.655 70.228 18.455 70.978 21.829 Z" style="stroke-linejoin: round; stroke-linecap: round; fill: rgb(21, 41, 124);"/>
    <path d="M 6.578 50.899 C 7.718 48.681 10.318 46.908 13.628 46.071 L 20.998 46.071 L 20.998 46.2 L 75.118 46.2 L 75.118 46.214 L 77.018 46.214 C 80.328 47.05 82.938 48.823 84.078 51.041 L 84.078 56.292 C 82.938 58.51 80.328 60.283 77.018 61.119 L 75.118 61.119 L 75.118 61.218 L 20.998 61.218 L 20.998 61.262 L 13.628 61.26 C 10.318 60.424 7.718 58.651 6.578 56.433 L 6.578 53.333 L 6.578 50.899 Z" style="stroke: rgb(0, 0, 0); stroke-linejoin: round; stroke-linecap: round; fill: rgb(27, 66, 228);"/>
    <path d="M 16.428 42.49 L 27.768 42.697 L 27.768 42.785 L 60.968 42.785 L 60.968 42.685 L 72.308 42.477 L 72.338 44.937 C 71.448 46.716 69.418 48.161 66.818 48.874 L 61.028 48.979 L 61.028 48.715 L 27.718 48.715 L 27.718 48.721 L 27.408 48.715 L 24.388 48.715 L 24.388 48.661 L 21.918 48.613 C 19.318 47.931 17.288 46.546 16.408 44.843 L 16.428 42.49 Z" style="stroke: rgb(0, 0, 0); stroke-linejoin: round; stroke-linecap: round; fill: rgb(255, 156, 0);"/>
    <path d="M 10.692 10.303 L 28.101 28.318 C 28.967 28.063 29.923 27.98 30.911 28.107 C 34.178 28.529 36.538 31.108 36.181 33.867 C 35.824 36.625 32.886 38.518 29.619 38.096 C 26.352 37.673 23.992 35.094 24.35 32.336 C 24.398 31.947 24.501 31.575 24.647 31.224 L 17.78 24.117 C 13.361 18.861 10.311 14.254 9.516 11.621 L 10.692 10.303 Z" style="stroke: rgb(0, 0, 0); stroke-linejoin: round; stroke-linecap: round; fill: url(&quot;#gradient-17&quot;); transform-origin: 22.586px 24.514px;"/>
    <g transform="matrix(1.162362, -0.241129, 0.229157, 1.382408, 0.852939, -1.198307)" style="transform-origin: 11.862px 17.639px;">
      <path d="M 13.052 20.964 L 13.052 26.317 L 10.434 26.317 L 10.434 23.583 C 10.71 22.354 11.297 21.388 12.028 20.964 L 13.052 20.964 Z" style="stroke: rgb(0, 0, 0); stroke-linejoin: round; stroke-linecap: round; fill: rgb(0, 255, 198); transform-box: fill-box; transform-origin: 50% 50%; stroke-width: 0.641198px;" transform="matrix(-0.570538, -0.821271, 0.821271, -0.570538, -0.000001, -0.000002)"/>
      <path d="M 8.896 12.98 L 8.896 18.333 L 6.278 18.333 L 6.278 15.599 C 6.554 14.37 7.141 13.404 7.872 12.98 L 8.896 12.98 Z" style="stroke: rgb(0, 0, 0); stroke-linejoin: round; stroke-linecap: round; fill: rgb(0, 255, 198); transform-origin: 7.587px 15.657px; stroke-width: 0.641194px;" transform="matrix(-0.142092, -0.989853, 0.989853, -0.142092, -0.000002, 0)"/>
      <path d="M 10.662 17.127 L 10.662 22.48 L 8.044 22.48 L 8.044 19.746 C 8.32 18.517 8.907 17.551 9.638 17.127 L 10.662 17.127 Z" style="stroke: rgb(0, 0, 0); stroke-linejoin: round; stroke-linecap: round; fill: rgb(0, 255, 198); transform-origin: 9.353px 19.804px; stroke-width: 0.641197px;" transform="matrix(-0.465849, -0.884864, 0.884864, -0.465849, 0.000001, 0)"/>
      <path d="M 17.44 17.691 L 17.44 12.338 L 14.822 12.338 L 14.822 15.072 C 15.098 16.301 15.685 17.267 16.416 17.691 L 17.44 17.691 Z" style="stroke: rgb(0, 0, 0); stroke-linejoin: round; stroke-linecap: round; fill: rgb(0, 255, 198); transform-origin: 16.131px 15.014px; stroke-width: 0.641199px;" transform="matrix(-0.689551, -0.724237, 0.724237, -0.689551, 0.000001, 0)"/>
      <path d="M 14.93 14.622 L 14.93 9.269 L 12.312 9.269 L 12.312 12.003 C 12.588 13.232 13.175 14.198 13.906 14.622 L 14.93 14.622 Z" style="stroke: rgb(0, 0, 0); stroke-linejoin: round; stroke-linecap: round; fill: rgb(0, 255, 198); transform-origin: 13.621px 11.945px; stroke-width: 0.641199px;" transform="matrix(-0.782727, -0.622365, 0.622365, -0.782727, -0.000002, -0.000002)"/>
    </g>
    <path d="M 21.627 11.482 L 17.234 17.418 L 19.896 19.69 L 22.139 16.657 C 22.868 15.055 23.064 13.475 22.668 12.37 L 21.627 11.482 Z" style="stroke: rgb(0, 0, 0); stroke-linejoin: round; stroke-linecap: round; fill: rgb(0, 255, 198); transform-origin: 23.094px 14.952px;"/>
    <ellipse style="stroke: rgb(0, 0, 0); fill: rgb(255, 156, 0);" cx="59.708" cy="46.758" rx="6.785" ry="11.655"/>
    <ellipse style="stroke: rgb(0, 0, 0); fill: rgb(255, 156, 0);" cx="70.388" cy="45.978" rx="3.112" ry="9.776"/>
    <ellipse style="stroke: rgb(0, 0, 0); fill: rgb(149, 149, 149);" cx="60.782" cy="46.789" rx="5.118" ry="8.644"/>
    <ellipse style="fill: rgb(96, 96, 96);" cx="62.135" cy="46.634" rx="3.271" ry="6.662"/>
    <ellipse style="stroke: rgb(0, 0, 0); fill: rgb(96, 96, 96);" cx="71.498" cy="45.593" rx="1.795" ry="7.944"/>
    <path style="stroke: rgb(0, 0, 0); stroke-miterlimit: 4.63; stroke-width: 7.48475px; fill: rgb(255, 156, 0);" transform="matrix(0.033947, 0, 0, 0.108123, 51.627167, -1.943303)" d="M 464.356 181 L 485.644 181 L 490.136 213.513 A 56.55 56.55 0 0 1 502.825 218.769 L 528.992 198.955 L 544.045 214.008 L 524.231 240.175 A 56.55 56.55 0 0 1 529.487 252.864 L 562 257.356 L 562 278.644 L 529.487 283.136 A 56.55 56.55 0 0 1 524.231 295.825 L 544.045 321.992 L 528.992 337.045 L 502.825 317.231 A 56.55 56.55 0 0 1 490.136 322.487 L 485.644 355 L 464.356 355 L 459.864 322.487 A 56.55 56.55 0 0 1 447.175 317.231 L 421.008 337.045 L 405.955 321.992 L 425.769 295.825 A 56.55 56.55 0 0 1 420.513 283.136 L 388 278.644 L 388 257.356 L 420.513 252.864 A 56.55 56.55 0 0 1 425.769 240.175 L 405.955 214.008 L 421.008 198.955 L 447.175 218.769 A 56.55 56.55 0 0 1 459.864 213.513 Z M 475 241.9 A 26.1 26.1 0 0 0 475 294.1 A 26.1 26.1 0 0 0 475 241.9" bx:shape="cog 475 268 26.1 56.55 87 0.38 8 1@36eb139e"/>
    <rect x="28.488" y="141.328" width="32.233" height="5.42" style="fill: rgb(21, 41, 124);"/>
    <rect x="26.878" y="137.911" width="33.409" height="4.61" style="stroke: rgb(0, 0, 0); fill: rgb(255, 156, 0);"/>
    <path d="M 57.708 -146.059 L 62.107 -141.693 L 60.427 -134.628 L 54.989 -134.628 L 53.309 -141.693 Z" bx:shape="n-gon 57.708 -139.74 4.625 6.319 5 0 1@33351b29" style="stroke: rgb(0, 0, 0); fill: rgb(119, 77, 10);" transform="matrix(1, 0, 0, -1, 0, 0)"/>
    <path d="M 57.868 -144.586 L 59.035 -141.106 L 58.589 -135.476 L 57.147 -135.476 L 56.701 -141.106 Z" bx:shape="n-gon 57.868 -139.55 1.227 5.036 5 0 1@98d534b9" style="stroke: rgb(0, 0, 0); fill: rgb(0, 234, 255);" transform="matrix(1, 0, 0, -1, 0, 0)"/>
    <g style="transform-origin: 91.7959px 100.262px;" transform="matrix(0.999046, 0.043675, -0.043675, 0.999046, -0.694058, 4.623436)">
      <rect x="121.34" y="120.203" width="16.782" height="5.665" style="stroke: rgb(0, 0, 0); fill: rgb(14, 29, 91);" transform="matrix(-0.001597, -0.999999, 0.999996, -0.003565, -45.43539, 230.438202)"/>
      <rect x="119.962" y="124.238" width="19.63" height="25.848" style="stroke: rgb(0, 0, 0); fill: rgb(21, 41, 124);" transform="matrix(-0.001597, -0.999999, 0.999996, -0.003565, -45.970547, 230.704712)"/>
      <path d="M 87.085 130.633 L 101.811 136.949 L 96.186 147.167 L 77.984 147.167 L 72.359 136.949 Z" bx:shape="n-gon 87.085 139.773 15.484 9.14 5 0 1@efafd5d1" style="stroke: rgb(0, 0, 0); fill: rgb(125, 84, 19);" transform="matrix(-0.001597002841, -0.99999872479, 0.999995581877, -0.003565007754, -46.953052862849, 187.842044527673)"/>
      <path d="M 86.579 134.965 L 99.576 142.165 L 94.612 153.815 L 78.546 153.815 L 73.582 142.165 Z" bx:shape="n-gon 86.579 145.385 13.666 10.42 5 0 1@b6835344" style="stroke: rgb(0, 0, 0); fill: rgb(75, 50, 9);" transform="matrix(-0.001597002841, -0.99999872479, 0.999995581877, -0.003565007754, -45.993245141002, 186.700000353783)"/>
      <path d="M 86.427 142.148 L 99.21 147.434 L 94.327 155.987 L 78.527 155.987 L 73.644 147.434 Z" bx:shape="n-gon 86.427 149.798 13.441 7.65 5 0 1@d2cd822c" style="stroke: rgb(0, 0, 0); fill: rgb(255, 156, 0);" transform="matrix(-0.001597002841, -0.99999872479, 0.999995581877, -0.003565007754, -46.823419126994, 186.752551592409)"/>
      <ellipse style="stroke: rgb(0, 0, 0); fill: rgb(0, 255, 255);" cx="86.593" cy="150.219" rx="7.676" ry="4.121" transform="matrix(-0.001597, -0.999999, 0.999996, -0.003565, -45.449445, 186.946846)"/>
      <ellipse style="fill: rgb(95, 255, 255);" cx="86.593" cy="150.219" rx="5.774" ry="3.176" transform="matrix(-0.001597, -0.999999, 0.999996, -0.003565, -45.133252, 185.936516)"/>
      <ellipse style="fill: rgb(165, 255, 255);" cx="86.593" cy="150.219" rx="3.542" ry="1.829" transform="matrix(-0.001597, -0.999999, 0.999996, -0.003565, -44.12396, 184.305382)"/>
    </g>
    <ellipse style="fill: rgba(0, 0, 0, 0.518);" cx="36.261" cy="178.19" rx="10.466" ry="0.907"/>
  </g>
</svg>