<?xml version="1.0" encoding="utf-8"?>
<svg xmlns="http://www.w3.org/2000/svg" viewBox="0 0 120 120">
  <defs>
    <linearGradient gradientUnits="userSpaceOnUse" x1="59.901" y1="62.938" x2="59.901" y2="118.163" id="gradient-0" gradientTransform="matrix(0.241375, -0.95442, 1.157959, 0.29285, -60.239811, 118.659383)">
      <stop offset="0" style="stop-color: rgb(100% 94.51% 0%)"/>
      <stop offset="1" style="stop-color: rgb(55.844% 54.338% 0%)"/>
    </linearGradient>
    <linearGradient gradientUnits="userSpaceOnUse" x1="60.618" y1="90.303" x2="60.618" y2="104.538" id="gradient-1">
      <stop offset="0" style="stop-color: rgb(52.549% 8.6275% 8.6275%)"/>
      <stop offset="1" style="stop-color: rgb(39.176% 0% 0%)"/>
    </linearGradient>
    <linearGradient gradientUnits="userSpaceOnUse" x1="60.102" y1="2.328" x2="60.102" y2="112.478" id="gradient-2" gradientTransform="matrix(0.999921, 0.012597, -0.007227, 0.573616, 0.81763, 15.094778)">
      <stop offset="0" style="stop-color: rgb(70.588% 39.216% 0%)"/>
      <stop offset="1" style="stop-color: rgb(46.374% 20.671% 0%)"/>
    </linearGradient>
  </defs>
  <ellipse style="stroke-width: 5px; stroke: rgb(105, 41, 1); fill: url(&quot;#gradient-2&quot;);" cx="60.102" cy="57.403" rx="55.201" ry="55.075"/>
  <g style="" transform="matrix(0.89852, 0, 0, 1.06849, 5.36294, -7.67255)">
    <ellipse style="fill: rgb(255, 0, 0); stroke: rgb(133, 0, 0); stroke-width: 2px;" cx="60.451" cy="108.412" rx="27.312" ry="10.306"/>
    <ellipse style="fill: rgb(255, 40, 40);" cx="60.821" cy="106.511" rx="23.511" ry="8.542"/>
    <ellipse style="fill: rgb(255, 203, 203);" cx="61.448" cy="105.178" rx="17.398" ry="7.758"/>
  </g>
  <path d="M 2.967 63.954 C 14.829 69.323 35.472 72.877 58.953 72.877 C 83.885 72.877 105.618 68.87 117.035 62.938 C 116.073 81.973 104.605 98.417 87.971 107.242 C 80.21 105.607 69.819 104.607 58.4 104.607 C 48.076 104.607 38.593 105.424 31.133 106.789 C 15.246 98.024 4.256 82.238 2.967 63.954 Z" style="fill: url(&quot;#gradient-0&quot;); stroke-width: 5px; stroke: rgb(77, 64, 0);"/>
  <g transform="matrix(1, 0, 0, 1.33437, -0.623018, -47.2968)" style="">
    <path d="M 77.719 94.032 C 77.719 102.595 69.767 109.537 59.957 109.537 C 50.147 109.537 42.195 102.595 42.195 94.032 C 42.195 91.033 43.17 88.234 44.858 85.861 C 47.833 88.531 53.743 90.35 60.549 90.35 C 66.813 90.35 72.319 88.809 75.475 86.482 C 76.904 88.716 77.719 91.291 77.719 94.032 Z" style="stroke-width: 3px; fill: rgb(255, 255, 255); stroke: rgb(77, 64, 0);"/>
    <path d="M 69.796 91.487 C 69.796 98.694 65.687 104.538 60.618 104.538 C 55.549 104.538 51.441 98.694 51.441 91.487 C 51.441 91.088 51.454 90.693 51.478 90.303 C 54.53 90.67 57.317 92.156 60.762 92.156 C 63.72 92.156 67.087 90.723 69.767 90.448 C 69.786 90.791 69.796 91.137 69.796 91.487 Z" style="stroke-width: 3px; stroke: rgb(34, 7, 7); fill: url(&quot;#gradient-1&quot;);"/>
    <ellipse style="fill: rgb(255, 255, 255);" cx="52.934" cy="96.788" rx="5.088" ry="2.209"/>
  </g>
  <ellipse style="fill: rgb(37, 15, 15); stroke-width: 3px; transform-origin: 23.413px 48.177px; stroke: rgb(60, 23, 0);" cx="23.413" cy="48.177" rx="9.213" ry="13.652" transform="matrix(-0.96203, 0.272944, 0.272944, 0.96203, 80.188618, 0.184737)"/>
  <ellipse style="fill: rgb(78, 32, 32); stroke-width: 3px; transform-box: fill-box; transform-origin: 50% 50%;" cx="23.413" cy="48.177" rx="5.594" ry="10.458" transform="matrix(-0.96203, 0.272944, 0.272944, 0.96203, 81.840614, -1.473493)"/>
  <ellipse style="fill: rgb(37, 15, 15); stroke-width: 3px; transform-origin: 23.413px 48.177px; stroke: rgb(105, 41, 1);" cx="23.413" cy="48.177" rx="13.046" ry="14.281" transform="matrix(-0.999601, 0.028253, 0.028253, 0.999601, 37.01382, 0.913019)"/>
  <ellipse style="fill: rgb(78, 32, 32); stroke-width: 3px; transform-origin: 23.413px 48.177px;" cx="23.413" cy="48.177" rx="10.321" ry="10.28" transform="matrix(-0.999601, 0.028253, 0.028253, 0.999601, 36.99702, -2.429866)"/>
  <ellipse style="fill: rgb(37, 15, 15); stroke-width: 3px; transform-origin: 23.413px 48.177px; stroke: rgb(60, 23, 0);" cx="23.413" cy="48.177" rx="9.213" ry="13.652" transform="matrix(0.96203, 0.272944, -0.272944, 0.96203, -7.351594, 0.425607)"/>
  <ellipse style="fill: rgb(78, 32, 32); stroke-width: 3px; transform-box: fill-box; transform-origin: 50% 50%;" cx="23.413" cy="48.177" rx="5.594" ry="10.458" transform="matrix(0.96203, 0.272944, -0.272944, 0.96203, -9.003594, -1.232623)"/>
  <ellipse style="fill: rgb(255, 13, 13); stroke: rgb(60, 23, 0);" cx="30.345" cy="19.082" rx="2.723" ry="2.832"/>
  <ellipse style="fill: rgb(255, 13, 13); stroke: rgb(60, 23, 0);" cx="23.951" cy="26.933" rx="2.723" ry="2.832"/>
</svg>