<?xml version="1.0" encoding="utf-8"?>
<svg xmlns="http://www.w3.org/2000/svg" viewBox="0 0 800 500" xmlns:bx="https://boxy-svg.com">
  <defs>
    <linearGradient gradientUnits="userSpaceOnUse" x1="380.984" y1="361.935" x2="380.984" y2="475.632" id="gradient-16" gradientTransform="matrix(1, 0, 0, 1, -318.976328, -3.127095)">
      <stop offset="0" style="stop-color: rgb(22.745% 22.745% 22.745%)"/>
      <stop offset="1" style="stop-color: rgb(14.488% 14.488% 14.488%)"/>
    </linearGradient>
    <radialGradient gradientUnits="userSpaceOnUse" cx="387.619" cy="274.013" r="65.528" id="gradient-3" gradientTransform="matrix(0.999817, 0.019104, -0.017142, 0.897145, 4.76801, 20.778397)">
      <stop offset="0" style="stop-color: rgb(5.098% 5.098% 5.098%)"/>
      <stop offset="1" style="stop-color: rgb(3.12% 3.12% 3.12%)"/>
    </radialGradient>
    <radialGradient gradientUnits="userSpaceOnUse" cx="387.742" cy="322.378" r="62.594" id="gradient-0">
      <stop offset="0" style="stop-color: rgb(4.7059% 4.7059% 4.7059%)"/>
      <stop offset="1" style="stop-color: rgb(2.85% 2.85% 2.85%)"/>
    </radialGradient>
    <linearGradient gradientUnits="userSpaceOnUse" x1="186.264" y1="91.815" x2="186.264" y2="308.426" id="gradient-8">
      <stop offset="0" style="stop-color: rgb(93.725% 53.333% 98.431%)"/>
      <stop offset="1" style="stop-color: rgb(61.487% 23.015% 66.821%)"/>
    </linearGradient>
    <linearGradient gradientUnits="userSpaceOnUse" x1="187.242" y1="185.709" x2="187.242" y2="402.32" id="gradient-9">
      <stop offset="0" style="stop-color: rgb(93.725% 53.333% 98.431%)"/>
      <stop offset="1" style="stop-color: rgb(61.487% 23.015% 66.821%)"/>
    </linearGradient>
    <linearGradient gradientUnits="userSpaceOnUse" x1="186.264" y1="91.815" x2="186.264" y2="308.426" id="gradient-10">
      <stop offset="0" style="stop-color: rgb(80.784% 47.059% 100%)"/>
      <stop offset="1" style="stop-color: rgb(52.096% 20.209% 71.14%)"/>
    </linearGradient>
    <linearGradient gradientUnits="userSpaceOnUse" x1="187.242" y1="185.709" x2="187.242" y2="402.32" id="gradient-11">
      <stop offset="0" style="stop-color: rgb(80.784% 47.059% 100%)"/>
      <stop offset="1" style="stop-color: rgb(52.096% 20.209% 71.14%)"/>
    </linearGradient>
    <linearGradient gradientUnits="userSpaceOnUse" x1="313.041" y1="4.712" x2="313.041" y2="32.982" id="gradient-1">
      <stop offset="0" style="stop-color: rgb(100% 80.392% 0%)"/>
      <stop offset="1" style="stop-color: rgb(59.322% 45.437% 0%)"/>
    </linearGradient>
    <linearGradient gradientUnits="userSpaceOnUse" x1="313.041" y1="4.712" x2="313.041" y2="32.982" id="gradient-2">
      <stop offset="0" style="stop-color: rgb(100% 80.392% 0%)"/>
      <stop offset="1" style="stop-color: rgb(59.322% 45.437% 0%)"/>
    </linearGradient>
    <linearGradient gradientUnits="userSpaceOnUse" x1="386.785" y1="132.21" x2="386.785" y2="346.41" id="gradient-4">
      <stop offset="0" style="stop-color: rgb(100% 80.392% 0%)"/>
      <stop offset="1" style="stop-color: rgb(59.322% 45.437% 0%)"/>
    </linearGradient>
  </defs>
  <g transform="matrix(0.749763, 0.106551, -0.12821, 0.902171, 311.411, 8.64827)" style="transform-origin: 62.008px 415.657px;">
    <path d="M 8.733 472.505 L 52.825 358.808 C 58.604 391.353 79.121 415.415 103.545 415.415 C 107.581 415.416 111.51 414.758 115.283 413.515 L 8.733 472.505 Z" style="fill: url(&quot;#gradient-16&quot;); stroke-width: 5px; stroke: rgb(0, 0, 0); transform-box: fill-box; transform-origin: 50% 50%;" transform="matrix(0.851775, -0.523908, 0.523908, 0.851775, -0.000007, -0.000005)"/>
    <path d="M 72.409 416.681 C 51.572 420.211 31.377 407.254 27.303 387.74 C 26.401 383.426 26.365 379.152 27.077 375.075 C 27.176 396.926 44.668 414.609 66.23 414.609 C 82.656 414.609 96.721 404.347 102.531 389.796 C 99.256 403.182 87.813 414.071 72.409 416.681 Z" style="fill: rgb(125, 125, 125); stroke-width: 5px; stroke: rgb(106, 106, 106);"/>
    <path d="M 64.272 441.406 C 50.105 444.01 36.374 434.448 33.605 420.046 C 32.992 416.863 32.968 413.708 33.451 410.7 C 33.519 426.825 45.411 439.876 60.071 439.876 C 71.239 439.876 80.802 432.302 84.753 421.564 C 82.526 431.443 74.746 439.479 64.272 441.406 Z" style="fill: rgb(125, 125, 125); stroke-width: 5px; stroke: rgb(26, 26, 26);"/>
    <path d="M 53.249 478.96 C 46.218 481.564 39.401 472.002 38.027 457.6 C 37.722 454.417 37.71 451.262 37.95 448.254 C 37.983 464.379 43.887 477.43 51.164 477.43 C 56.708 477.43 61.456 469.856 63.417 459.118 C 62.311 468.997 58.449 477.033 53.249 478.96 Z" style="fill: rgb(125, 125, 125); stroke-width: 5px; stroke: rgb(7, 7, 7); transform-box: fill-box; transform-origin: 50% 50%;" transform="matrix(0.999471, 0.032511, -0.032511, 0.999471, 0, 0)"/>
    <path d="M 58.169 460.578 C 47.385 463.182 36.933 453.62 34.825 439.218 C 34.358 436.035 34.339 432.88 34.708 429.872 C 34.759 445.997 43.811 459.048 54.971 459.048 C 63.474 459.048 70.754 451.474 73.761 440.736 C 72.066 450.615 66.144 458.651 58.169 460.578 Z" style="fill: rgb(125, 125, 125); stroke-width: 5px; stroke: rgb(22, 22, 22); transform-origin: 54.106px 445.439px;" transform="matrix(0.999471, 0.032511, -0.032511, 0.999471, 0, 0)"/>
  </g>
  <g transform="matrix(-1, 0, 0, 1, 705.156, -50.774)" style="">
    <path d="M 220.317 190.865 C 220.317 220.465 203.039 308.822 187.761 308.425 C 172.483 308.028 152.21 220.465 152.21 190.865 C 152.21 161.266 167.809 91.815 186.616 91.815 C 205.423 91.815 220.317 161.266 220.317 190.865 Z" style="transform-box: fill-box; transform-origin: 50% 50%; fill: url(&quot;#gradient-10&quot;); stroke-width: 5px; stroke: rgb(90, 0, 108);" transform="matrix(0.487056, -0.873371, 0.873371, 0.487056, 0.000002, -0.000015)"/>
    <path d="M 221.295 303.27 C 221.295 273.67 204.017 185.313 188.739 185.71 C 173.461 186.107 153.188 273.67 153.188 303.27 C 153.188 332.869 168.787 402.32 187.594 402.32 C 206.401 402.32 221.295 332.869 221.295 303.27 Z" style="transform-origin: 187.242px 294.014px; fill: url(&quot;#gradient-11&quot;); stroke-width: 5px; stroke: rgb(90, 0, 108);" transform="matrix(0.487056, 0.873371, -0.873371, 0.487056, -0.000014, 0.000012)"/>
  </g>
  <path d="M 450.336 315.793 C 450.336 355.06 416.472 415.331 388.39 414.804 C 360.307 414.278 325.147 355.06 325.147 315.793 C 325.147 276.527 353.82 229.949 388.39 229.949 C 422.96 229.949 450.336 276.527 450.336 315.793 Z" style="fill: url(&quot;#gradient-0&quot;); stroke-width: 5px;"/>
  <g transform="matrix(0.799378, -0.600828, -0.600828, -0.799378, -182.524, 44.9172)" style="transform-origin: 725.466px 262.039px;">
    <rect x="697.137" y="204.797" width="17.937" height="112.882" style="stroke-width: 3px; stroke: rgb(66, 40, 0); fill: rgb(255, 198, 0);"/>
    <rect x="692.401" y="303.793" width="26.616" height="118.613" style="stroke-width: 3px; stroke: rgb(66, 40, 0); fill: rgb(255, 198, 0);"/>
    <path d="M 700.03 280.301 Q 704.324 276.148 708.618 280.301 L 728.659 299.684 Q 732.953 303.837 728.659 307.99 L 708.618 327.373 Q 704.324 331.526 700.03 327.373 L 679.989 307.99 Q 675.695 303.837 679.989 299.684 Z" bx:shape="n-gon 704.324 303.837 28.629 27.689 4 0.15 1@c458c169" style="stroke-width: 3px; stroke: rgb(66, 40, 0); fill: rgb(255, 198, 0);"/>
    <rect x="671.372" y="117.852" width="17.089" height="90.654" style="stroke-width: 3px; stroke: rgb(66, 40, 0); fill: rgb(255, 198, 0);"/>
    <rect x="692.794" y="101.672" width="16.74" height="97.241" style="stroke-width: 3px; stroke: rgb(66, 40, 0); fill: rgb(255, 198, 0);"/>
    <rect x="713.793" y="115.475" width="16.74" height="86.264" style="stroke-width: 3px; stroke: rgb(66, 40, 0); fill: rgb(255, 198, 0);"/>
    <rect x="725.852" y="201.737" width="53.708" height="18.508" style="stroke-width: 3px; stroke: rgb(66, 40, 0); fill: rgb(255, 198, 0);"/>
    <ellipse style="stroke-width: 3px; stroke: rgb(66, 40, 0); fill: rgb(255, 198, 0);" cx="706.031" cy="212.981" rx="34.605" ry="31.125"/>
  </g>
  <path d="M 451.336 315.793 C 451.336 335.588 442.782 360.736 430.751 380.737 C 418.708 400.758 402.769 415.927 388.371 415.804 C 373.996 415.404 357.756 400.241 345.388 380.354 C 333.032 360.486 324.147 335.595 324.147 315.793 C 324.147 296.002 331.414 274.244 342.983 257.576 C 354.565 240.891 370.808 228.949 388.39 228.949 C 405.975 228.949 421.899 240.899 433.156 257.587 C 444.4 274.256 451.336 296.008 451.336 315.793 Z M 431.498 258.705 C 420.424 242.288 405.375 230.949 388.39 230.949 C 371.402 230.949 356.024 242.297 344.626 258.716 C 333.217 275.154 326.147 296.318 326.147 315.793 C 326.147 335.258 334.842 359.61 347.087 379.298 C 359.32 398.969 374.701 413.678 388.409 413.804 C 402.093 414.208 417.127 399.505 429.037 379.706 C 440.958 359.886 449.336 335.265 449.336 315.793 C 449.336 296.312 442.584 275.142 431.498 258.705 Z" style="stroke-width: 5px;"/>
  <g transform="matrix(1, 0, 0, 1, 62.660938, -50.858505)">
    <path d="M 220.317 190.865 C 220.317 220.465 203.039 308.822 187.761 308.425 C 172.483 308.028 152.21 220.465 152.21 190.865 C 152.21 161.266 167.809 91.815 186.616 91.815 C 205.423 91.815 220.317 161.266 220.317 190.865 Z" style="transform-box: fill-box; transform-origin: 50% 50%; fill: url(&quot;#gradient-8&quot;); stroke-width: 5px; stroke: rgb(76, 0, 91);" transform="matrix(0.487056, -0.873371, 0.873371, 0.487056, 0.000002, -0.000015)"/>
    <path d="M 221.295 303.27 C 221.295 273.67 204.017 185.313 188.739 185.71 C 173.461 186.107 153.188 273.67 153.188 303.27 C 153.188 332.869 168.787 402.32 187.594 402.32 C 206.401 402.32 221.295 332.869 221.295 303.27 Z" style="transform-origin: 187.242px 294.014px; fill: url(&quot;#gradient-9&quot;); stroke-width: 5px; stroke: rgb(76, 0, 91);" transform="matrix(0.487056, 0.873371, -0.873371, 0.487056, -0.000014, 0.000012)"/>
  </g>
  <g transform="matrix(-0.799378, -0.600828, 0.600828, -0.799378, -495.905, 37.7729)" style="transform-origin: 725.466px 262.039px;">
    <rect x="697.137" y="204.797" width="17.937" height="112.882" style="stroke-width: 3px; stroke: rgb(66, 40, 0); fill: rgb(255, 198, 0);"/>
    <rect x="692.401" y="303.793" width="26.616" height="118.613" style="stroke-width: 3px; stroke: rgb(66, 40, 0); fill: rgb(255, 198, 0);"/>
    <path d="M 700.03 280.301 Q 704.324 276.148 708.618 280.301 L 728.659 299.684 Q 732.953 303.837 728.659 307.99 L 708.618 327.373 Q 704.324 331.526 700.03 327.373 L 679.989 307.99 Q 675.695 303.837 679.989 299.684 Z" bx:shape="n-gon 704.324 303.837 28.629 27.689 4 0.15 1@c458c169" style="stroke-width: 3px; stroke: rgb(66, 40, 0); fill: rgb(255, 198, 0);"/>
    <rect x="671.372" y="117.852" width="17.089" height="90.654" style="stroke-width: 3px; stroke: rgb(66, 40, 0); fill: rgb(255, 198, 0);"/>
    <rect x="692.794" y="101.672" width="16.74" height="97.241" style="stroke-width: 3px; stroke: rgb(66, 40, 0); fill: rgb(255, 198, 0);"/>
    <rect x="713.793" y="115.475" width="16.74" height="86.264" style="stroke-width: 3px; stroke: rgb(66, 40, 0); fill: rgb(255, 198, 0);"/>
    <rect x="725.852" y="201.737" width="53.708" height="18.508" style="stroke-width: 3px; stroke: rgb(66, 40, 0); fill: rgb(255, 198, 0);"/>
    <ellipse style="stroke-width: 3px; stroke: rgb(66, 40, 0); fill: rgb(255, 198, 0);" cx="706.031" cy="212.981" rx="34.605" ry="31.125"/>
  </g>
  <path d="M 454.27 231.679 C 454.27 277.179 417.761 347.017 387.485 346.406 C 357.208 345.796 319.301 277.179 319.301 231.679 C 319.301 186.181 350.214 132.21 387.485 132.21 C 424.756 132.21 454.27 186.181 454.27 231.679 Z" style="stroke-width: 5px; stroke: rgb(66, 40, 0); fill: url(&quot;#gradient-4&quot;);"/>
  <path d="M 454.27 268.723 C 454.27 289.103 418.819 320.384 389.421 320.111 C 360.021 319.838 323.213 289.103 323.213 268.723 C 323.213 248.343 353.23 224.169 389.421 224.169 C 425.611 224.169 454.27 248.343 454.27 268.723 Z" style="stroke: rgb(0, 0, 0); fill: url(&quot;#gradient-3&quot;); stroke-width: 5px;"/>
  <path d="M 467.943 119.615 C 467.943 150.027 450.579 176.482 424.995 190.061 C 424.996 190.191 424.996 190.322 424.996 190.453 C 424.181 219.369 419.449 222.341 416.932 222.341 C 414.415 222.341 411.282 219.63 409.875 210.418 C 405.548 200.107 407.41 204.219 406.491 197.193 C 399.876 198.868 392.938 199.759 385.786 199.759 C 379.63 199.759 373.632 199.099 367.863 197.847 C 364.424 205.278 365.738 213.331 365.738 215.365 C 365.738 220.318 360.574 224.443 357.572 224.443 C 343.336 207.381 347.539 202.184 347.855 191.781 C 347.866 191.429 347.858 191.078 347.865 190.729 C 321.577 177.364 303.629 150.534 303.629 119.615 C 303.629 75.353 340.412 39.471 385.786 39.471 C 431.16 39.471 467.943 75.353 467.943 119.615 Z" style="fill: rgb(255, 205, 0); stroke-width: 5px; stroke: rgb(66, 40, 0);"/>
  <rect x="445.793" y="112.633" width="27.911" height="26.522" style="stroke: rgb(0, 0, 0);" rx="6.665" ry="6.665"/>
  <text style="font-size: 36px; font-family: Roboto; white-space: pre;" x="467.262" y="215.855" transform="matrix(10.200228, 0, 0, 6.139535, -4298.916992, -938.486084)"><tspan x="467.2619934082031" dy="1em">​</tspan><tspan x="467.2619934082031" dy="1em">​</tspan></text>
  <path d="M 382.683 239.053 Q 387.963 233.633 393.243 239.053 L 417.88 264.346 Q 423.16 269.766 417.88 275.186 L 393.243 300.479 Q 387.963 305.899 382.683 300.479 L 358.046 275.186 Q 352.766 269.766 358.046 264.346 Z" bx:shape="n-gon 387.963 269.766 35.197 36.133 4 0.15 1@39ec1f67" style="fill: rgb(160, 0, 255); stroke-width: 4px; stroke: rgb(255, 22, 255);"/>
  <path d="M 377.771 238.522 Q 378.982 235.365 380.193 238.522 L 385.846 253.257 Q 387.057 256.414 385.846 259.571 L 380.193 274.306 Q 378.982 277.463 377.771 274.306 L 372.118 259.571 Q 370.907 256.414 372.118 253.257 Z" bx:shape="n-gon 378.982 256.414 8.075 21.049 4 0.15 1@8c20f7c7" style="fill: rgb(198, 101, 255); transform-box: fill-box; transform-origin: 50% 50%;" transform="matrix(0.775446, 0.631414, -0.631414, 0.775446, -1.700311, 3.914769)"/>
  <g style="" transform="matrix(0.53532, 0, 0, 0.556064, 175.499, 160.948)">
    <path d="M 390.829 358.336 Q 396.109 352.916 401.389 358.336 L 426.026 383.629 Q 431.306 389.049 426.026 394.469 L 401.389 419.762 Q 396.109 425.182 390.829 419.762 L 366.192 394.469 Q 360.912 389.049 366.192 383.629 Z" bx:shape="n-gon 396.109 389.049 35.197 36.133 4 0.15 1@568d0fcf" style="fill: rgb(160, 0, 255); stroke-width: 4px; stroke: rgb(255, 22, 255);"/>
    <path d="M 377.771 238.522 Q 378.982 235.365 380.193 238.522 L 385.846 253.257 Q 387.057 256.414 385.846 259.571 L 380.193 274.306 Q 378.982 277.463 377.771 274.306 L 372.118 259.571 Q 370.907 256.414 372.118 253.257 Z" bx:shape="n-gon 378.982 256.414 8.075 21.049 4 0.15 1@8c20f7c7" style="fill: rgb(198, 101, 255); transform-origin: 378.982px 256.414px;" transform="matrix(0.775446, 0.631414, -0.631414, 0.775446, 6.445687, 123.198047)"/>
  </g>
  <g>
    <ellipse style="stroke-width: 4px; fill: rgb(9, 9, 9); stroke: rgb(6, 6, 6); transform-box: fill-box; transform-origin: 50% 50%;" cx="339.044" cy="77.916" rx="14.315" ry="21.791" transform="matrix(0.913349, 0.407178, -0.407178, 0.913349, -0.974386, 0.67176)"/>
    <path d="M 305.784 12.248 L 320.037 7.043 L 339.414 60.098 C 341.032 59.535 342.644 59.478 344.124 60.023 C 349.256 61.914 350.875 70.341 347.741 78.845 C 344.606 87.349 337.905 92.709 332.773 90.818 C 328.121 89.103 326.356 82.02 328.4 74.376 C 328.177 73.882 327.97 73.373 327.779 72.849 C 327.361 71.706 327.048 70.565 326.835 69.448 L 326.693 69.5 L 312.758 31.345 L 291.891 65.313 L 277.539 59.653 L 306.111 13.144 L 305.784 12.248 Z" style="stroke-width: 4px; stroke: rgb(66, 40, 0); fill: rgb(255, 205, 0);"/>
    <ellipse style="stroke-width: 4px; stroke: rgb(66, 40, 0); fill: url(&quot;#gradient-1&quot;);" cx="313.041" cy="18.847" rx="13.666" ry="14.135"/>
    <ellipse style="stroke-width: 4px; stroke: rgb(255, 22, 255); fill: rgb(160, 0, 255);" cx="282.903" cy="65.205" rx="15.626" ry="15.626"/>
    <path d="M 377.771 246.247 Q 378.982 244.453 380.193 246.247 L 385.846 254.62 Q 387.057 256.414 385.846 258.208 L 380.193 266.581 Q 378.982 268.375 377.771 266.581 L 372.118 258.208 Q 370.907 256.414 372.118 254.62 Z" bx:shape="n-gon 378.982 256.414 8.075 11.961 4 0.15 1@1caf0bd7" style="fill: rgb(191, 83, 255); transform-origin: 378.983px 256.413px;" transform="matrix(0.775446, 0.631414, -0.631414, 0.775446, -100.744903, -195.18739)"/>
  </g>
  <g transform="matrix(-1, 0, 0, 1, 771.691, -3.0426)" style="">
    <ellipse style="stroke-width: 4px; fill: rgb(9, 9, 9); stroke: rgb(6, 6, 6); transform-box: fill-box; transform-origin: 50% 50%;" cx="339.044" cy="77.916" rx="14.315" ry="21.791" transform="matrix(0.913349, 0.407178, -0.407178, 0.913349, -0.974386, 0.67176)"/>
    <path d="M 305.784 12.248 L 320.037 7.043 L 339.414 60.098 C 341.032 59.535 342.644 59.478 344.124 60.023 C 349.256 61.914 350.875 70.341 347.741 78.845 C 344.606 87.349 337.905 92.709 332.773 90.818 C 328.121 89.103 326.356 82.02 328.4 74.376 C 328.177 73.882 327.97 73.373 327.779 72.849 C 327.361 71.706 327.048 70.565 326.835 69.448 L 326.693 69.5 L 312.758 31.345 L 291.891 65.313 L 277.539 59.653 L 306.111 13.144 L 305.784 12.248 Z" style="stroke-width: 4px; stroke: rgb(66, 40, 0); fill: rgb(255, 205, 0);"/>
    <ellipse style="stroke-width: 4px; stroke: rgb(66, 40, 0); fill: url(&quot;#gradient-2&quot;);" cx="313.041" cy="18.847" rx="13.666" ry="14.135"/>
    <ellipse style="stroke-width: 4px; stroke: rgb(255, 22, 255); fill: rgb(160, 0, 255);" cx="282.903" cy="65.205" rx="15.626" ry="15.626"/>
    <path d="M 377.771 246.247 Q 378.982 244.453 380.193 246.247 L 385.846 254.62 Q 387.057 256.414 385.846 258.208 L 380.193 266.581 Q 378.982 268.375 377.771 266.581 L 372.118 258.208 Q 370.907 256.414 372.118 254.62 Z" bx:shape="n-gon 378.982 256.414 8.075 11.961 4 0.15 1@1caf0bd7" style="fill: rgb(191, 83, 255); transform-origin: 378.983px 256.413px;" transform="matrix(0.775446, 0.631414, -0.631414, 0.775446, -100.744903, -195.18739)"/>
  </g>
  <rect x="361.963" y="120.263" width="54.111" height="21.055" style="stroke: rgb(0, 0, 0);"/>
  <rect x="302.179" y="117.003" width="27.911" height="26.522" style="stroke: rgb(0, 0, 0);" rx="6.665" ry="6.665"/>
  <path d="M 295.1 108.007 L 384.963 122.036 L 367.932 152.571 L 325.129 156.49 L 295.1 108.007 Z" style="stroke: rgb(0, 0, 0); stroke-width: 4px; fill: rgb(21, 255, 0);"/>
  <path d="M 388.328 156.499 L 478.191 142.47 L 461.16 111.935 L 418.357 108.016 L 388.328 156.499 Z" style="stroke: rgb(0, 0, 0); stroke-width: 4px; fill: rgb(21, 255, 0); transform-box: fill-box; transform-origin: 50% 50%;" transform="matrix(-1, 0, 0, -1, -0.000027, 0.000001)"/>
  <path d="M 308.805 116.585 L 359.453 127.068 L 349.854 149.885 L 325.73 152.813 L 308.805 116.585 Z" style="stroke-width: 4px; fill: rgb(167, 255, 159);"/>
  <path d="M 397.038 124.55 L 432.98 132.019 L 426.168 148.276 L 409.048 150.362 L 397.038 124.55 Z" style="stroke-width: 4px; fill: rgb(167, 255, 159);"/>
</svg>