<?xml version="1.0" encoding="utf-8"?>
<svg xmlns="http://www.w3.org/2000/svg" viewBox="0 0 100 80">
  <defs>
    <linearGradient gradientUnits="userSpaceOnUse" x1="49.736" y1="9.643" x2="49.736" y2="74.096" id="gradient-0">
      <stop offset="0" style="stop-color: rgb(0% 5.8824% 0%)"/>
      <stop offset="1" style="stop-color: rgb(0.51309% 3.3936% 0%)"/>
    </linearGradient>
    <linearGradient gradientUnits="userSpaceOnUse" x1="49.736" y1="9.643" x2="49.736" y2="74.096" id="gradient-1">
      <stop offset="0" style="stop-color: rgb(10.588% 10.588% 10.588%)"/>
      <stop offset="1" style="stop-color: rgb(7.4306% 7.4306% 7.4306%)"/>
    </linearGradient>
  </defs>
  <rect x="4.1" y="1.42" width="91.956" height="76.981" rx="4" ry="4" style="stroke-width: 3px; fill: rgb(7, 255, 0); stroke: rgb(0, 15, 0);"/>
  <rect x="3.363" y="1.946" width="91.956" height="39.41" rx="4" ry="4" style="stroke-width: 3px; fill: rgb(7, 255, 0); stroke: rgb(0, 15, 0);"/>
  <rect x="8.618" y="9.643" width="82.235" height="64.453" rx="4" ry="4" style="stroke-width: 3px; stroke: url(&quot;#gradient-0&quot;); fill: url(&quot;#gradient-1&quot;);"/>
  <rect x="2.005" y="35.627" width="96.032" height="10.065" style="stroke-width: 3px; fill: rgb(7, 255, 0); stroke: rgb(0, 15, 0);"/>
  <ellipse style="stroke: rgb(0, 0, 0); stroke-width: 3px; fill: rgb(27, 27, 27);" cx="50.012" cy="41.812" rx="13.071" ry="13.386"/>
  <g transform="matrix(0.72778, 0, 0, 0.808423, -42.355007, -70.121284)" style="">
    <path d="M 124.766 150.503 C 118.45 150.503 113.331 145.557 113.331 139.456 C 113.331 134.282 117.012 129.939 121.98 128.739 C 120.817 130.468 120.14 132.534 120.14 134.752 C 120.14 140.854 125.259 145.799 131.575 145.799 C 132.535 145.799 133.469 145.684 134.36 145.468 C 132.321 148.499 128.785 150.503 124.766 150.503 Z" style="transform-box: fill-box; transform-origin: 50% 50%; fill: rgb(0, 255, 248);" transform="matrix(0.999145, -0.041333, 0.041333, 0.999145, 0, 0)"/>
    <path d="M 132.245 142.463 C 127.938 142.463 124.448 138.809 124.448 134.303 C 124.448 130.481 126.958 127.273 130.345 126.387 C 129.552 127.664 129.091 129.19 129.091 130.828 C 129.091 135.335 132.581 138.988 136.888 138.988 C 137.543 138.988 138.18 138.903 138.787 138.744 C 137.397 140.983 134.986 142.463 132.245 142.463 Z" style="transform-box: fill-box; transform-origin: 50% 50%; fill: rgb(0, 255, 248);" transform="matrix(-0.999793, 0.020351, -0.020351, -0.999793, 0.000012, -0.000003)"/>
    <path d="M 127.302 142.054 C 124.804 142.054 122.78 140.038 122.78 137.551 C 122.78 135.442 124.236 133.671 126.2 133.182 C 125.741 133.887 125.473 134.729 125.473 135.633 C 125.473 138.121 127.497 140.137 129.995 140.137 C 130.375 140.137 130.744 140.09 131.096 140.002 C 130.29 141.237 128.892 142.054 127.302 142.054 Z" style="fill: rgb(0, 255, 248);"/>
    <ellipse style="fill: rgb(0, 255, 248);" cx="129.472" cy="135.709" rx="1.784" ry="1.901"/>
  </g>
  <path style="fill: none; stroke: rgb(7, 255, 0);" d="M 12.88 11.193 L 12.647 25.297 L 17.296 25.668 L 17.296 16.575 L 21.712 16.389 L 21.712 33.648 L 27.523 33.276 L 27.291 26.967 L 24.501 26.41 L 24.037 11.936 L 28.22 12.307 L 27.756 19.915 L 34.961 19.729 L 34.729 22.327 L 28.685 22.513 L 28.918 33.833 L 32.869 34.204 L 32.869 24.925 L 39.145 24.925"/>
  <path style="fill: none; stroke: rgb(7, 255, 0); transform-box: fill-box; transform-origin: 50% 50%;" d="M 61.086 32.648 L 60.853 19.968 L 65.502 19.635 L 65.502 27.809 L 69.918 27.977 L 69.918 12.461 L 75.729 12.795 L 75.497 18.467 L 72.707 18.968 L 72.243 31.98 L 76.426 31.646 L 75.962 24.807 L 83.167 24.974 L 82.935 22.638 L 76.891 22.471 L 77.124 12.295 L 81.075 11.961 L 81.075 20.303 L 87.351 20.303" transform="matrix(-1, 0, 0, -1, -0.000001, -0.000001)"/>
  <rect x="11.95" y="50.707" width="7.67" height="3.951" style="fill: rgb(7, 255, 0);"/>
  <rect x="18.026" y="52.511" width="7.67" height="3.951" style="fill: rgb(7, 255, 0);"/>
  <rect x="14.228" y="55.929" width="7.67" height="3.951" style="fill: rgb(7, 255, 0);"/>
  <rect x="17.361" y="58.397" width="17.543" height="3.951" style="fill: rgb(7, 255, 0);"/>
  <rect x="-74.512" y="48.803" width="3.36" height="12.981" style="fill: rgb(7, 255, 0);" transform="matrix(-1, 0, 0, 1, 0, 0)"/>
  <rect x="-67.746" y="57.637" width="7.67" height="3.951" style="fill: rgb(7, 255, 0);" transform="matrix(-1, 0, 0, 1, 0, 0)"/>
  <rect x="-71.544" y="61.055" width="7.67" height="3.951" style="fill: rgb(7, 255, 0);" transform="matrix(-1, 0, 0, 1, 0, 0)"/>
  <rect x="-64.739" y="64.37" width="13.438" height="2.104" style="fill: rgb(7, 255, 0);" transform="matrix(-1, 0, 0, 1, 0, 0)"/>
  <rect x="-81.463" y="49.576" width="4.364" height="3.439" style="fill: rgb(7, 255, 0);" transform="matrix(-1, 0, 0, 1, 0, 0)"/>
  <rect x="-84.231" y="51.739" width="4.364" height="3.439" style="fill: rgb(7, 255, 0);" transform="matrix(-1, 0, 0, 1, 0, 0)"/>
  <rect x="-84.231" y="55.459" width="4.364" height="3.439" style="fill: rgb(7, 255, 0);" transform="matrix(-1, 0, 0, 1, 0, 0)"/>
  <rect x="-37.955" y="-69.535" width="4.364" height="8.259" style="fill: rgb(7, 255, 0);" transform="matrix(-1, 0, 0, -1, 0, 0)"/>
</svg>