<?xml version="1.0" encoding="utf-8"?>
<svg xmlns="http://www.w3.org/2000/svg" viewBox="0 0 120 150" xmlns:bx="https://boxy-svg.com">
  <defs>
    <linearGradient gradientUnits="userSpaceOnUse" x1="56.573" y1="4.199" x2="56.573" y2="119.767" id="gradient-0" gradientTransform="matrix(1.020088, 0, 0, 1, -2.056607, -1)">
      <stop offset="0" style="stop-color: rgb(66.275% 9.8039% 9.8039%)"/>
      <stop offset="1" style="stop-color: rgb(46.944% 0% 0%)"/>
    </linearGradient>
    <linearGradient gradientUnits="userSpaceOnUse" x1="54.108" y1="95.363" x2="54.108" y2="148.069" id="gradient-2" gradientTransform="matrix(0.972627, 0.301478, -0.307534, 0.953473, 37.94334, -11.649304)">
      <stop offset="0" style="stop-color: rgb(100% 9.0196% 9.0196%)"/>
      <stop offset="1" style="stop-color: rgb(65.395% 0% 4.4475%)"/>
    </linearGradient>
    <linearGradient gradientUnits="userSpaceOnUse" x1="94.247" y1="95.54" x2="94.247" y2="148.246" id="gradient-1" gradientTransform="matrix(0.972627, 0.301478, -0.307534, 0.953473, 39.902756, -23.742123)">
      <stop offset="0" style="stop-color: rgb(100% 9.0196% 9.0196%)"/>
      <stop offset="1" style="stop-color: rgb(65.395% 0% 4.4475%)"/>
    </linearGradient>
    <filter id="warp-filter-0" bx:preset="warp 1 50 0.1" color-interpolation-filters="sRGB" x="-50%" y="-50%" width="200%" height="200%">
      <feComponentTransfer>
        <feFuncR type="table" tableValues="1 0.5"/>
      </feComponentTransfer>
      <feMerge result="a">
        <feMergeNode/>
        <feMergeNode in="SourceGraphic"/>
      </feMerge>
      <feTurbulence type="fractalNoise" baseFrequency="0.01" numOctaves="1" result="warp"/>
      <feDisplacementMap xChannelSelector="R" yChannelSelector="G" scale="50" in="a" in2="warp"/>
    </filter>
  </defs>
  <path d="M 48.931 -4.021 C 52.981 -6.299 59.158 -4.688 62.725 -0.425 L 86.227 27.675 C 86.939 28.527 87.493 29.42 87.891 30.32 C 91.012 32.559 91.798 36.962 89.526 40.988 L 72.152 71.778 C 69.516 76.449 63.757 78.846 59.29 77.129 C 54.823 75.412 53.341 70.233 55.975 65.56 L 72.261 36.698 C 72.017 36.45 71.781 36.192 71.556 35.922 L 48.053 7.823 C 44.488 3.558 44.88 -1.745 48.931 -4.021 Z" style="fill: rgb(66, 17, 17); stroke-width: 2px; stroke: rgb(179, 30, 30); filter: url(&quot;#warp-filter-0&quot;); transform-origin: 66.963px 36.08px;" transform="matrix(0.989913, 0.141678, -0.141678, 0.989913, 0, 0)"/>
  <path d="M 98.397 85.095 C 101.979 87.547 101.446 94.362 97.206 100.316 L 83.751 119.21 C 83.527 119.525 83.296 119.832 83.061 120.129 C 83.065 120.261 83.067 120.393 83.068 120.526 L 83.202 134.576 C 83.269 141.576 79.663 147.643 75.15 148.125 C 70.636 148.607 66.924 143.325 66.857 136.325 L 66.724 122.273 C 66.687 118.369 67.791 114.756 69.559 112.239 C 69.925 111.598 70.33 110.96 70.777 110.331 L 84.232 91.437 C 88.473 85.481 94.814 82.643 98.397 85.095 Z" style="fill: rgb(66, 17, 17); stroke-width: 2px; transform-origin: 82.428px 115.541px; stroke: rgb(179, 30, 30);"/>
  <path d="M 45.863 84.455 C 49.445 86.907 48.911 93.722 44.672 99.676 L 31.217 118.57 C 30.992 118.885 30.762 119.192 30.526 119.489 C 30.53 119.621 30.532 119.753 30.534 119.886 L 30.667 133.936 C 30.734 140.936 27.128 147.003 22.615 147.485 C 18.102 147.967 14.39 142.685 14.322 135.685 L 14.19 121.633 C 14.152 117.729 15.256 114.116 17.024 111.599 C 17.39 110.958 17.795 110.32 18.243 109.691 L 31.698 90.797 C 35.938 84.841 42.279 82.003 45.863 84.455 Z" style="fill: rgb(66, 17, 17); stroke-width: 2px; transform-origin: 30.928px 114.901px; stroke: rgb(179, 30, 30);"/>
  <rect x="2.665" y="13.385" width="15.968" height="39.846" rx="10" ry="10" style="fill: rgb(66, 17, 17); stroke-width: 2px; transform-origin: 10.65px 33.31px; stroke: rgb(179, 30, 30);" transform="matrix(0.979299, -0.202419, 0.210284, 0.977673, 97.697182, 60.157421)"/>
  <path d="M 5.681 29.173 L 46.358 4.68 C 51.158 1.789 57.44 3.261 60.389 7.967 L 72.579 27.423 C 74.458 30.421 74.531 34.007 73.095 36.963 C 72.989 37.541 72.831 38.119 72.616 38.689 L 59.678 72.931 L 95.154 73.173 C 100.787 73.211 105.988 77.724 106.769 83.252 L 110.389 108.827 C 111.171 114.355 107.239 118.805 101.605 118.767 L 43.657 118.373 C 38.024 118.335 32.823 113.822 32.041 108.294 L 28.422 82.719 C 27.754 78.01 30.511 74.083 34.824 73.046 C 34.87 72.031 35.073 71.005 35.452 70 L 39.603 59.015 L 28.55 65.671 C 23.749 68.561 17.467 67.09 14.519 62.384 L 2.328 42.928 C -0.62 38.221 0.88 32.063 5.681 29.173 Z" style="fill: url(&quot;#gradient-0&quot;); stroke-width: 2px; stroke: rgb(50, 2, 2);"/>
  <path d="M 55.496 93.808 C 59.661 95.1 61.593 100.628 59.81 106.156 L 54.152 123.698 C 54.057 123.991 53.954 124.278 53.843 124.558 C 53.894 124.663 53.943 124.767 53.991 124.872 L 59.107 136.043 C 61.657 141.609 60.497 147.109 56.518 148.327 C 52.539 149.546 47.248 146.024 44.698 140.458 L 39.582 129.286 C 38.16 126.183 37.891 123.1 38.623 120.768 C 38.732 120.189 38.877 119.606 39.065 119.022 L 44.723 101.48 C 46.507 95.951 51.329 92.516 55.496 93.808 Z" style="fill: url(&quot;#gradient-2&quot;); stroke-width: 2px; transform-origin: 52.108px 120.716px; stroke: rgb(179, 30, 30);"/>
  <g transform="matrix(1.020088, 0, 0, 1, -2.056607, -7)" style="">
    <path d="M 53.125 116.819 C 52.611 116.819 52.113 116.751 51.639 116.623 C 51.574 115.642 51.539 114.593 51.539 113.503 L 51.539 111.084 C 51.539 108.737 51.701 106.579 51.973 104.873 C 52.345 104.797 52.731 104.757 53.125 104.757 C 53.839 104.757 54.522 104.888 55.155 105.128 C 55.402 106.792 55.549 108.853 55.549 111.084 L 55.549 113.503 C 55.549 114.48 55.521 115.425 55.468 116.318 C 54.751 116.64 53.958 116.819 53.125 116.819 Z" style="stroke: rgb(0, 0, 0); stroke-width: 1.98011px; fill: rgb(255, 92, 0);"/>
    <path d="M 53.037 116.637 C 52.523 116.637 52.025 116.569 51.551 116.441 C 51.486 115.46 51.451 114.411 51.451 113.321 L 51.451 110.902 C 51.451 108.555 51.613 106.397 51.885 104.691 C 52.257 104.615 52.643 104.575 53.037 104.575 C 53.751 104.575 54.434 104.706 55.067 104.946 C 55.314 106.61 55.461 108.671 55.461 110.902 L 55.461 113.321 C 55.461 114.298 55.433 115.243 55.38 116.136 C 54.663 116.458 53.87 116.637 53.037 116.637 Z" style="stroke: rgb(0, 0, 0); transform-box: fill-box; transform-origin: 50% 50%; stroke-width: 1.98011px; fill: rgb(255, 184, 0);" transform="matrix(0, 1, -1, 0, -0.00001, -0.000002)"/>
  </g>
  <path d="M 95.733 93.765 C 100.411 95.216 102.759 100.873 100.976 106.402 L 95.318 123.944 C 95.223 124.236 95.119 124.523 95.005 124.802 C 95.066 124.91 95.123 125.017 95.181 125.125 L 101.273 136.599 C 104.309 142.315 103.217 147.836 98.837 148.93 C 94.456 150.025 88.447 146.279 85.411 140.563 L 79.32 129.089 C 77.626 125.901 77.216 122.774 77.946 120.442 C 78.046 119.86 78.186 119.275 78.374 118.692 L 84.032 101.15 C 85.816 95.621 91.053 92.315 95.733 93.765 Z" style="fill: url(&quot;#gradient-1&quot;); stroke-width: 2px; transform-origin: 92.247px 120.893px; stroke: rgb(179, 30, 30);"/>
  <ellipse style="stroke-width: 2px; fill: rgb(255, 255, 255); stroke: rgb(179, 30, 30);" cx="47.026" cy="26.457" rx="12.32" ry="10.453"/>
  <ellipse style="stroke-width: 2px; fill: rgb(0, 103, 137); stroke: rgb(57, 255, 205);" cx="42.101" cy="25.364" rx="5.571" ry="5.089"/>
  <path d="M 50.409 27.008 L 71.328 27.008 C 73.581 27.008 75.408 27.942 75.408 29.094 C 75.408 30.246 73.581 31.18 71.328 31.18 L 57.845 31.18 C 57.851 31.267 57.854 31.355 57.854 31.444 L 57.854 37.35 C 57.854 39.559 56.027 41.35 53.774 41.35 L 32.855 41.35 C 30.602 41.35 28.775 39.559 28.775 37.35 L 28.775 33.985 L 8.587 27.192 L 10.341 21.977 L 29.996 28.591 C 30.732 27.882 31.741 27.444 32.855 27.444 L 47.911 27.444 C 48.602 27.171 49.468 27.008 50.409 27.008 Z" style="stroke-width: 2px; fill: rgb(9, 9, 9); stroke: rgb(17, 17, 17);"/>
  <ellipse style="stroke-width: 2px;" cx="16.805" cy="35.759" rx="1.862" ry="3.737"/>
  <ellipse style="stroke-width: 2px;" cx="3.64" cy="37.714" rx="1.862" ry="3.737"/>
  <rect x="31.726" y="29.17" width="3.881" height="8.758" style="fill: rgba(255, 255, 255, 0.37);" transform="matrix(-1, 0, -0.545198, 1, 103.84182, 0)"/>
  <rect x="37.205" y="29.17" width="3.881" height="8.758" style="fill: rgba(255, 255, 255, 0.37);" transform="matrix(-1, 0, -0.545198, 1, 103.84182, 0)"/>
  <rect x="63.472" y="14.752" width="23.434" height="7.067" style="fill: rgb(255, 0, 0); stroke: rgb(74, 7, 7);"/>
  <rect x="80.344" y="5.161" width="13.133" height="4.758" style="fill: rgb(255, 0, 0); stroke: rgb(74, 7, 7);"/>
  <path d="M 86.027 25.763 L 99.16 25.763 L 99.16 29.137 L 106.264 29.137 L 106.264 38.69 L 91.71 38.69 L 91.71 30.521 L 86.027 30.521 Z" style="fill: rgb(255, 0, 0); stroke: rgb(74, 7, 7);"/>
  <ellipse style="stroke-width: 2px; fill: rgb(255, 255, 255);" cx="45.394" cy="21.76" rx="3.121" ry="3.146"/>
  <g transform="matrix(0.85678, -0.553632, 0.542729, 0.839908, 39.619026, -7.154656)" style="transform-origin: 53.456px 110.788px;">
    <path d="M 53.125 116.819 C 52.611 116.819 52.113 116.751 51.639 116.623 C 51.574 115.642 51.539 114.593 51.539 113.503 L 51.539 111.084 C 51.539 108.737 51.701 106.579 51.973 104.873 C 52.345 104.797 52.731 104.757 53.125 104.757 C 53.839 104.757 54.522 104.888 55.155 105.128 C 55.402 106.792 55.549 108.853 55.549 111.084 L 55.549 113.503 C 55.549 114.48 55.521 115.425 55.468 116.318 C 54.751 116.64 53.958 116.819 53.125 116.819 Z" style="stroke: rgb(0, 0, 0); stroke-width: 1.98011px; fill: rgb(255, 92, 0);"/>
    <path d="M 53.037 116.637 C 52.523 116.637 52.025 116.569 51.551 116.441 C 51.486 115.46 51.451 114.411 51.451 113.321 L 51.451 110.902 C 51.451 108.555 51.613 106.397 51.885 104.691 C 52.257 104.615 52.643 104.575 53.037 104.575 C 53.751 104.575 54.434 104.706 55.067 104.946 C 55.314 106.61 55.461 108.671 55.461 110.902 L 55.461 113.321 C 55.461 114.298 55.433 115.243 55.38 116.136 C 54.663 116.458 53.87 116.637 53.037 116.637 Z" style="stroke: rgb(0, 0, 0); transform-box: fill-box; transform-origin: 50% 50%; stroke-width: 1.98011px; fill: rgb(255, 184, 0);" transform="matrix(0, 1, -1, 0, -0.00001, -0.000002)"/>
  </g>
  <rect x="6.444" y="81.576" width="23.434" height="7.067" style="fill: rgb(255, 0, 0); stroke: rgb(74, 7, 7);"/>
  <rect x="23.316" y="71.985" width="13.133" height="4.758" style="fill: rgb(255, 0, 0); stroke: rgb(74, 7, 7);"/>
  <path d="M 28.999 92.587 L 42.132 92.587 L 42.132 95.961 L 49.236 95.961 L 49.236 105.514 L 34.682 105.514 L 34.682 97.345 L 28.999 97.345 L 28.999 92.587 Z" style="fill: rgb(255, 0, 0); stroke: rgb(74, 7, 7);"/>
  <rect x="-114.01" y="131.451" width="24.775" height="3.601" style="fill: rgb(255, 0, 0); stroke: rgb(74, 7, 7);" transform="matrix(-1, 0, 0, 1, 0, 0)"/>
  <rect x="-96.172" y="126.564" width="13.885" height="2.425" style="fill: rgb(255, 0, 0); stroke: rgb(74, 7, 7);" transform="matrix(-1, 0, 0, 1, 0, 0)"/>
  <path d="M 68.769 143.649 L 82.654 143.649 L 82.654 141.93 L 90.164 141.93 L 90.164 137.062 L 74.777 137.062 L 74.777 141.225 L 68.769 141.225 L 68.769 143.649 Z" style="fill: rgb(255, 0, 0); stroke: rgb(74, 7, 7); transform-box: fill-box; transform-origin: 50% 50%;" transform="matrix(-1, 0, 0, -1, -0.000001, 0.000016)"/>
</svg>