<?xml version="1.0" encoding="utf-8"?>
<svg xmlns="http://www.w3.org/2000/svg" viewBox="0 0 100 100">
  <path d="M 81.209 64.381 L 85.385 64.381 L 85.385 61.856 L 87.786 61.856 L 87.786 58.943 L 90.186 58.943 L 90.186 61.856 L 92.187 61.856 L 92.187 59.72 L 95.787 59.72 L 95.787 62.244 L 94.587 62.244 L 94.587 63.604 L 99.186 63.604 L 99.186 68.458 L 94.587 68.458 L 94.587 69.817 L 95.386 69.817 L 95.386 76.613 L 91.185 76.613 L 91.185 71.371 L 87.385 71.371 L 87.385 85.156 L 89.385 85.156 L 89.385 83.798 L 95.586 83.798 L 95.586 88.846 L 92.187 88.846 L 92.187 94.089 L 83.985 94.089 L 83.985 98.749 L 80.784 98.749 L 80.784 90.982 L 82.185 90.982 L 82.185 87.875 L 79.384 87.875 L 79.384 93.895 L 76.184 93.895 L 76.184 96.613 L 69.582 96.613 L 69.582 93.895 L 64.181 93.895 L 64.181 96.224 L 58.78 96.224 L 58.78 89.428 L 61.781 89.428 L 61.781 85.933 L 59.18 85.933 L 59.18 81.467 L 67.581 81.467 L 67.581 83.021 L 68.182 83.021 L 68.182 76.87 C 63.257 79.552 57.6 81.079 51.578 81.079 C 44.554 81.079 38.02 79 32.575 75.43 L 32.575 79.913 L 36.377 79.913 L 36.377 88.069 L 26.975 88.069 L 26.975 86.321 L 19.174 86.321 L 19.174 92.341 L 22.974 92.341 L 22.974 99.526 L 11.173 99.526 L 11.173 98.748 L 5.868 98.748 C 3.605 98.748 1.771 96.968 1.771 94.772 L 1.771 94.671 L 0.37 94.671 L 0.37 88.652 L 1.771 88.652 L 1.771 82.439 L 0.97 82.439 L 0.97 69.04 L 8.571 69.04 L 8.571 73.7 L 10.971 73.7 L 10.971 66.609 C 10.971 64.576 12.544 62.899 14.572 62.661 L 14.572 60.108 L 18.173 60.108 L 18.173 62.632 L 20.97 62.632 C 19.375 59.572 18.236 56.242 17.643 52.729 L 13.972 52.729 L 13.972 57.002 L 5.171 57.002 L 5.171 52.536 L 11.371 52.536 L 11.371 48.263 L 5.572 48.263 L 5.572 45.739 L 3.771 45.739 L 3.771 43.021 L 7.572 43.021 L 7.572 45.157 L 13.972 45.157 L 13.972 46.904 L 17.174 46.904 C 17.187 44.507 17.452 42.169 17.944 39.913 L 11.667 39.913 C 9.406 39.913 7.572 38.133 7.572 35.937 L 7.572 28.458 L 5.971 28.458 L 5.971 23.604 L 7.572 23.604 L 7.572 19.913 L 6.267 19.913 C 4.003 19.913 2.17 18.133 2.17 15.937 L 2.17 8.356 C 2.17 6.16 4.003 4.38 6.267 4.38 L 10.875 4.38 C 13.137 4.38 14.972 6.16 14.972 8.356 L 14.972 10.4 L 17.772 10.4 L 17.772 5.351 L 21.173 5.351 L 21.173 10.4 L 22.678 10.4 C 23.207 10.4 23.712 10.496 24.173 10.673 L 24.173 1.468 L 25.174 1.468 L 25.174 11.222 C 26.148 11.949 26.775 13.092 26.775 14.376 L 26.775 21.855 L 28.544 21.855 C 30.442 20.166 32.53 18.682 34.776 17.439 L 34.776 10.982 L 41.776 10.982 L 41.776 14.517 C 43.522 14.006 45.328 13.628 47.178 13.394 L 47.178 9.817 L 57.58 9.817 L 57.58 7.58 C 57.58 6.386 58.122 5.315 58.981 4.587 L 58.981 2.051 L 65.782 2.051 L 65.782 3.604 L 73.384 3.604 L 73.384 0.108 L 82.185 0.108 L 82.185 0.302 L 88.09 0.302 C 90.351 0.302 92.187 2.083 92.187 4.279 L 92.187 7.098 L 94.986 7.098 L 94.986 4.769 L 99.787 4.769 L 99.787 8.651 L 96.587 8.651 L 96.587 11.177 L 97.788 11.177 L 97.788 14.283 L 94.186 14.283 L 94.186 13.119 L 92.187 13.119 L 92.187 13.802 C 92.187 15.901 90.51 17.622 88.385 17.769 L 88.385 23.021 L 85.786 23.021 L 85.786 28.264 L 88.386 28.264 L 88.386 34.866 L 85.786 34.866 L 85.786 39.138 L 90.385 39.138 L 90.385 40.497 L 85.786 40.497 L 85.786 43.416 C 85.834 43.865 85.874 44.315 85.905 44.769 L 89.985 44.769 L 89.985 52.729 L 85.515 52.729 C 84.807 56.924 83.321 60.856 81.209 64.381 Z" style="fill: rgb(216, 216, 216); stroke: rgb(0, 0, 0);"/>
  <ellipse style="fill: rgb(216, 216, 216); stroke: rgb(0, 0, 0);" cx="41.875" cy="40.803" rx="8.496" ry="11.719"/>
  <ellipse style="fill: rgb(216, 216, 216); stroke: rgb(0, 0, 0);" cx="43.047" cy="37.776" rx="4.395" ry="9.082"/>
  <ellipse style="fill: rgb(216, 216, 216); stroke: rgb(0, 0, 0);" cx="-66.634" cy="40.975" rx="8.496" ry="11.719" transform="matrix(-1, 0, 0, 1, 0, 0)"/>
  <ellipse style="fill: rgb(216, 216, 216); stroke: rgb(0, 0, 0);" cx="66.923" cy="38.948" rx="4.395" ry="9.082"/>
  <path d="M 31.62 24.749 L 54.541 31.115 L 76.889 24.908 L 79.361 32.515 L 55.793 39.061 L 54.229 34.249 L 52.716 38.902 L 29.147 32.356 L 31.62 24.749 Z" style="fill: rgb(216, 216, 216); stroke: rgb(0, 0, 0);"/>
  <path d="M 40.754 57.605 L 64.389 57.605 L 64.389 58.731 L 66.065 58.731 L 66.065 57.23 L 68.58 57.23 L 68.58 58.731 L 70.926 58.731 L 70.926 61.733 L 74.615 61.733 L 74.615 67.237 L 67.071 67.237 L 67.071 68.364 L 61.707 68.364 L 61.707 65.361 L 64.222 65.361 L 64.222 63.985 L 59.36 63.985 L 59.36 62.359 L 44.609 62.359 L 44.609 64.11 L 38.072 64.11 L 38.072 64.86 L 42.598 64.86 L 42.598 66.612 L 36.564 66.612 L 36.564 65.737 L 31.703 65.737 L 31.703 64.736 L 29.691 64.736 L 29.691 63.86 L 31.703 63.86 L 31.703 62.609 L 34.887 62.609 L 34.887 59.607 L 40.754 59.607 L 40.754 57.605 Z" style="fill: rgb(216, 216, 216); stroke: rgb(0, 0, 0);"/>
</svg>