<?xml version="1.0" encoding="utf-8"?>
<svg xmlns="http://www.w3.org/2000/svg" viewBox="0 0 120 100">
  <defs>
    <linearGradient gradientUnits="userSpaceOnUse" x1="60.322" y1="82.636" x2="60.322" y2="98.824" id="gradient-1" gradientTransform="matrix(-0.990713, -0.135971, 0.101454, -0.73922, 121.40612, 173.573105)">
      <stop offset="0" style="stop-color: rgb(2.7451% 31.765% 1.1765%)"/>
      <stop offset="1" style="stop-color: rgb(0% 20.238% 0%)"/>
    </linearGradient>
    <linearGradient gradientUnits="userSpaceOnUse" x1="60.04" y1="20.229" x2="60.04" y2="88.2" id="gradient-0" gradientTransform="matrix(1, 0, 0, 0.780704, 0.086704, 20.109619)">
      <stop offset="0" style="stop-color: rgb(20.392% 46.275% 8.2353%)"/>
      <stop offset="1" style="stop-color: rgb(0% 29.166% 0%)"/>
    </linearGradient>
  </defs>
  <path d="M 1.513 99.592 L 119.307 99.592 L 110.377 83.404 L 10.235 83.404 L 1.513 99.214 L 1.513 99.592 Z" style="stroke-width: 2px; fill: url(&quot;#gradient-1&quot;); stroke: rgb(92, 255, 0);"/>
  <path d="M 9.365 6.797 L 95.81 6.797 L 95.81 36.774 L 28.648 36.774 L 9.713 7.448 L 9.365 7.987 L 9.365 6.797 Z" style="stroke-width: 2px; transform-origin: 52.587px 21.785px; stroke: rgb(92, 255, 0); fill: rgb(29, 66, 12);" transform="matrix(-1, 0, 0, -1, 0.000001, -0.000001)"/>
  <path d="M 14.469 11.52 L 96.348 11.52 L 96.348 41.497 L 32.733 41.497 L 14.798 12.171 L 14.469 12.71 L 14.469 11.52 Z" style="stroke-width: 2px; transform-origin: 55.409px 26.508px; fill: rgb(194, 255, 173); stroke: rgb(45, 106, 38);" transform="matrix(-1, 0, 0, -1, 0.000004, -0.000001)"/>
  <path d="M 18.936 14.274 L 101.381 14.274 L 101.381 44.251 L 37.327 44.251 L 19.268 14.925 L 18.936 15.464 L 18.936 14.274 Z" style="stroke-width: 2px; transform-origin: 60.159px 29.262px; fill: rgb(194, 255, 173); stroke: rgb(45, 106, 38);" transform="matrix(-1, 0, 0, -1, -0.000006, 0.000003)"/>
  <path d="M 24.453 17.324 L 102.955 17.324 L 102.955 47.301 L 41.964 47.301 L 24.77 17.975 L 24.453 18.514 L 24.453 17.324 Z" style="stroke-width: 2px; transform-origin: 63.704px 32.312px; fill: rgb(194, 255, 173); stroke: rgb(45, 106, 38);" transform="matrix(-1, 0, 0, -1, 0.000006, -0.000007)"/>
  <path d="M 8.714 35.903 L 111.542 35.903 L 111.542 82.799 L 106.172 88.968 L 13.8 88.968 L 8.714 83.124 L 8.714 35.903 Z" style="stroke-width: 2px; fill: url(&quot;#gradient-0&quot;); stroke: rgb(92, 255, 0);"/>
  <g transform="matrix(0.804559, 0, 0, 0.870546, -41.193172, -58.702076)" style="">
    <path d="M 124.766 150.503 C 118.45 150.503 113.331 145.557 113.331 139.456 C 113.331 134.282 117.012 129.939 121.98 128.739 C 120.817 130.468 120.14 132.534 120.14 134.752 C 120.14 140.854 125.259 145.799 131.575 145.799 C 132.535 145.799 133.469 145.684 134.36 145.468 C 132.321 148.499 128.785 150.503 124.766 150.503 Z" style="transform-box: fill-box; transform-origin: 50% 50%; fill: rgb(92, 255, 0);" transform="matrix(0.999145, -0.041333, 0.041333, 0.999145, 0, 0)"/>
    <path d="M 132.245 142.463 C 127.938 142.463 124.448 138.809 124.448 134.303 C 124.448 130.481 126.958 127.273 130.345 126.387 C 129.552 127.664 129.091 129.19 129.091 130.828 C 129.091 135.335 132.581 138.988 136.888 138.988 C 137.543 138.988 138.18 138.903 138.787 138.744 C 137.397 140.983 134.986 142.463 132.245 142.463 Z" style="transform-box: fill-box; transform-origin: 50% 50%; fill: rgb(92, 255, 0);" transform="matrix(-0.999793, 0.020351, -0.020351, -0.999793, 0.000012, -0.000003)"/>
    <path d="M 127.302 142.054 C 124.804 142.054 122.78 140.038 122.78 137.551 C 122.78 135.442 124.236 133.671 126.2 133.182 C 125.741 133.887 125.473 134.729 125.473 135.633 C 125.473 138.121 127.497 140.137 129.995 140.137 C 130.375 140.137 130.744 140.09 131.096 140.002 C 130.29 141.237 128.892 142.054 127.302 142.054 Z" style="fill: rgb(92, 255, 0);"/>
    <ellipse style="fill: rgb(92, 255, 0);" cx="129.472" cy="135.709" rx="1.784" ry="1.901"/>
  </g>
  <path d="M 57.259 36.32 L 64.202 36.32 L 64.202 45.282 C 71.121 47.141 76.223 53.573 76.223 61.221 C 76.223 68.869 71.121 75.301 64.202 77.16 L 64.202 88.271 L 57.259 88.271 L 57.259 77.451 C 49.69 76.088 43.94 69.341 43.94 61.221 C 43.94 53.102 49.69 46.354 57.259 44.991 L 57.259 36.32 Z" style="fill: none; stroke-width: 2px; stroke: rgb(92, 255, 0);"/>
  <g transform="matrix(1, 0, 0, 1, 56.508186, 2.966586)" style="">
    <rect x="2.128" y="15.679" width="2.632" height="2.644" style="fill: rgb(7, 255, 0);"/>
    <rect x="4.064" y="18.159" width="2.632" height="4.761" style="fill: rgb(7, 255, 0);"/>
    <rect x="2.249" y="20.034" width="2.451" height="6.274" style="fill: rgb(7, 255, 0);"/>
  </g>
  <text style="fill: rgb(7, 255, 0); font-family: Arial, sans-serif; font-size: 28px; white-space: pre;" transform="matrix(-0.443236, 0, 0, 0.257328, 89.962753, 7.318772)"><tspan x="15.439" y="4.397">0</tspan><tspan x="15.439" dy="1em">​</tspan><tspan>10</tspan><tspan x="15.439" dy="1em">​</tspan><tspan>1</tspan><tspan x="15.439" dy="1em">​</tspan><tspan>01</tspan></text>
  <text style="fill: rgb(7, 255, 0); font-family: Arial, sans-serif; font-size: 28px; white-space: pre;" transform="matrix(0.443236, 0, 0, 0.257328, 43.034317, 12.146349)"><tspan x="15.439" y="4.397">0</tspan><tspan x="15.439" dy="1em">​</tspan><tspan>10</tspan><tspan x="15.439" dy="1em">​</tspan><tspan>1</tspan><tspan x="15.439" dy="1em">​</tspan><tspan>01</tspan></text>
  <text style="fill: rgb(7, 255, 0); font-family: Arial, sans-serif; font-size: 28px; white-space: pre;" transform="matrix(0.209934, 0, 0, 0.257328, 20.109522, 5.771948)"><tspan x="15.439" y="4.397">0</tspan><tspan x="15.439" dy="1em">​</tspan><tspan>10</tspan><tspan x="15.439" dy="1em">​</tspan><tspan>1</tspan><tspan x="15.439" dy="1em">​</tspan><tspan>01</tspan></text>
  <text style="fill: rgb(7, 255, 0); font-family: Arial, sans-serif; font-size: 28px; white-space: pre;" transform="matrix(-0.209934, 0, 0, 0.257328, 42.336666, 10.599525)"><tspan x="15.439" y="4.397">0</tspan><tspan x="15.439" dy="1em">​</tspan><tspan>10</tspan><tspan x="15.439" dy="1em">​</tspan><tspan>1</tspan><tspan x="15.439" dy="1em">​</tspan><tspan>01</tspan></text>
  <text style="fill: rgb(7, 255, 0); font-family: Arial, sans-serif; font-size: 28px; white-space: pre;" transform="matrix(0.209934, 0, 0, 0.257328, 90.374832, 6.407421)"><tspan x="15.439" y="4.397">0</tspan><tspan x="15.439" dy="1em">​</tspan><tspan>10</tspan><tspan x="15.439" dy="1em">​</tspan><tspan>1</tspan><tspan x="15.439" dy="1em">​</tspan><tspan>01</tspan></text>
  <text style="fill: rgb(7, 255, 0); font-family: Arial, sans-serif; font-size: 28px; white-space: pre;" transform="matrix(-0.209934, 0, 0, 0.257328, 112.601974, 11.234997)"><tspan x="15.439" y="4.397">0</tspan><tspan x="15.439" dy="1em">​</tspan><tspan>10</tspan><tspan x="15.439" dy="1em">​</tspan><tspan>1</tspan><tspan x="15.439" dy="1em">​</tspan><tspan>01</tspan></text>
  <rect x="17.242" y="2.113" width="7.108" height="10.024" style="fill: rgb(7, 255, 0);"/>
  <rect x="38.353" y="3.761" width="6.038" height="6.641" style="fill: rgb(7, 255, 0);"/>
  <rect x="42.15" y="0.628" width="12.778" height="3.698" style="fill: rgb(7, 255, 0);"/>
  <rect x="66.666" y="9.59" width="1.386" height="11.293" style="fill: rgb(7, 255, 0);"/>
  <rect x="67.52" y="4.938" width="3.759" height="11.293" style="fill: rgb(7, 255, 0);"/>
  <rect x="-90.011" y="19.996" width="1.386" height="11.293" style="fill: rgb(7, 255, 0);" transform="matrix(-1, 0, 0, 1, 0, 0)"/>
  <rect x="-89.161" y="15.344" width="3.759" height="11.293" style="fill: rgb(7, 255, 0);" transform="matrix(-1, 0, 0, 1, 0, 0)"/>
  <rect x="99.71" y="4.658" width="7.653" height="5.026" style="fill: rgb(7, 255, 0);"/>
  <g transform="matrix(1, 0, 0, 1, 15.473192, -1.007413)">
    <rect x="2.128" y="15.679" width="2.632" height="2.644" style="fill: rgb(7, 255, 0);"/>
    <rect x="4.064" y="18.159" width="2.632" height="4.761" style="fill: rgb(7, 255, 0);"/>
    <rect x="2.249" y="20.034" width="2.451" height="6.274" style="fill: rgb(7, 255, 0);"/>
  </g>
  <g transform="matrix(-1, 0, 0, 1, 50.121365, -6.834878)" style="">
    <rect x="2.128" y="15.679" width="2.632" height="2.644" style="fill: rgb(7, 255, 0);"/>
    <rect x="4.064" y="18.159" width="2.632" height="4.761" style="fill: rgb(7, 255, 0);"/>
    <rect x="2.249" y="20.034" width="2.451" height="6.274" style="fill: rgb(7, 255, 0);"/>
  </g>
  <g transform="matrix(-1, 0, 0, 1, 36.303528, 3.720986)" style="">
    <rect x="2.128" y="15.679" width="2.632" height="2.644" style="fill: rgb(7, 255, 0);"/>
    <rect x="4.064" y="18.159" width="2.632" height="4.761" style="fill: rgb(7, 255, 0);"/>
    <rect x="2.249" y="20.034" width="2.451" height="6.274" style="fill: rgb(7, 255, 0);"/>
  </g>
  <g transform="matrix(1, 0, 0, 1, 82.14418, -10.982414)" style="">
    <rect x="2.128" y="15.679" width="2.632" height="2.644" style="fill: rgb(7, 255, 0);"/>
    <rect x="4.064" y="18.159" width="2.632" height="4.761" style="fill: rgb(7, 255, 0);"/>
    <rect x="2.249" y="20.034" width="2.451" height="6.274" style="fill: rgb(7, 255, 0);"/>
  </g>
  <g transform="matrix(1, 0, 0, 1, 95.527191, 6.924587)" style="">
    <rect x="2.128" y="15.679" width="2.632" height="2.644" style="fill: rgb(7, 255, 0);"/>
    <rect x="4.064" y="18.159" width="2.632" height="4.761" style="fill: rgb(7, 255, 0);"/>
    <rect x="2.249" y="20.034" width="2.451" height="6.274" style="fill: rgb(7, 255, 0);"/>
  </g>
</svg>