<?xml version="1.0" encoding="utf-8"?>
<svg xmlns="http://www.w3.org/2000/svg" viewBox="0 0 120 100">
  <defs>
    <linearGradient gradientUnits="userSpaceOnUse" x1="60.04" y1="20.229" x2="60.04" y2="88.2" id="gradient-0">
      <stop offset="0" style="stop-color: rgb(20.392% 46.275% 8.2353%)"/>
      <stop offset="1" style="stop-color: rgb(0% 29.166% 0%)"/>
    </linearGradient>
    <linearGradient gradientUnits="userSpaceOnUse" x1="60.322" y1="82.636" x2="60.322" y2="98.824" id="gradient-1" gradientTransform="matrix(-0.990713, -0.135971, 0.101454, -0.73922, 121.31941, 172.805462)">
      <stop offset="0" style="stop-color: rgb(2.7451% 31.765% 1.1765%)"/>
      <stop offset="1" style="stop-color: rgb(0% 20.238% 0%)"/>
    </linearGradient>
  </defs>
  <path d="M 1.425 98.824 L 119.219 98.824 L 110.289 82.636 L 10.147 82.636 L 1.425 98.446 L 1.425 98.824 Z" style="stroke-width: 2px; stroke: rgb(3, 17, 2); fill: url(&quot;#gradient-1&quot;);"/>
  <path d="M 9.277 6.029 L 95.722 6.029 L 95.722 36.006 L 28.56 36.006 L 9.625 6.68 L 9.277 7.219 L 9.277 6.029 Z" style="transform-origin: 52.499px 21.017px; stroke-width: 2px; stroke: rgb(3, 17, 2); fill: rgb(52, 118, 21);" transform="matrix(-1, 0, 0, -1, -0.000004, 0.000004)"/>
  <path d="M 13.671 10.515 L 108.797 10.515 L 108.797 40.492 L 34.89 40.492 L 14.054 11.166 L 13.671 11.705 L 13.671 10.515 Z" style="stroke: rgb(0, 0, 0); fill: rgb(255, 255, 255); transform-origin: 61.234px 25.503px; stroke-width: 2px;" transform="matrix(-1, 0, 0, -1, 0.000001, 0.000001)"/>
  <path d="M 17.66 13.269 L 109.032 13.269 L 109.032 43.246 L 38.042 43.246 L 18.028 13.92 L 17.66 14.459 L 17.66 13.269 Z" style="stroke: rgb(0, 0, 0); fill: rgb(255, 255, 255); stroke-width: 2px; transform-origin: 63.346px 28.257px;" transform="matrix(-1, 0, 0, -1, -0.000008, -0.000002)"/>
  <path d="M 22.587 16.319 L 110.674 16.319 L 110.674 46.296 L 42.236 46.296 L 22.942 16.97 L 22.587 17.509 L 22.587 16.319 Z" style="stroke: rgb(0, 0, 0); fill: rgb(255, 255, 255); stroke-width: 2px; transform-origin: 66.631px 31.307px;" transform="matrix(-1, 0, 0, -1, 0.000012, 0.000004)"/>
  <path d="M 8.626 20.229 L 111.454 20.229 L 111.454 80.298 L 106.084 88.2 L 13.712 88.2 L 8.626 80.715 Z" style="stroke-width: 2px; stroke: rgb(3, 17, 2); fill: url(&quot;#gradient-0&quot;);"/>
  <g transform="matrix(1.313007, 0, 0, 1.397695, -105.01313, -140.870651)" style="">
    <path d="M 124.766 150.503 C 118.45 150.503 113.331 145.557 113.331 139.456 C 113.331 134.282 117.012 129.939 121.98 128.739 C 120.817 130.468 120.14 132.534 120.14 134.752 C 120.14 140.854 125.259 145.799 131.575 145.799 C 132.535 145.799 133.469 145.684 134.36 145.468 C 132.321 148.499 128.785 150.503 124.766 150.503 Z" style="transform-box: fill-box; transform-origin: 50% 50%; fill: rgb(6, 21, 5);" transform="matrix(0.999145, -0.041333, 0.041333, 0.999145, 0, 0)"/>
    <path d="M 132.245 142.463 C 127.938 142.463 124.448 138.809 124.448 134.303 C 124.448 130.481 126.958 127.273 130.345 126.387 C 129.552 127.664 129.091 129.19 129.091 130.828 C 129.091 135.335 132.581 138.988 136.888 138.988 C 137.543 138.988 138.18 138.903 138.787 138.744 C 137.397 140.983 134.986 142.463 132.245 142.463 Z" style="transform-box: fill-box; transform-origin: 50% 50%; fill: rgb(6, 21, 5);" transform="matrix(-0.999793, 0.020351, -0.020351, -0.999793, 0.000012, -0.000003)"/>
    <path d="M 127.302 142.054 C 124.804 142.054 122.78 140.038 122.78 137.551 C 122.78 135.442 124.236 133.671 126.2 133.182 C 125.741 133.887 125.473 134.729 125.473 135.633 C 125.473 138.121 127.497 140.137 129.995 140.137 C 130.375 140.137 130.744 140.09 131.096 140.002 C 130.29 141.237 128.892 142.054 127.302 142.054 Z" style="fill: rgb(6, 21, 5);"/>
    <ellipse style="fill: rgb(6, 21, 5);" cx="129.472" cy="135.709" rx="1.784" ry="1.901"/>
  </g>
  <path d="M 56.857 19.463 L 66.242 19.463 L 66.242 31.201 C 75.595 33.636 82.492 42.059 82.492 52.076 C 82.492 62.093 75.595 70.516 66.242 72.951 L 66.242 87.503 L 56.857 87.503 L 56.857 73.332 C 46.625 71.547 38.852 62.71 38.852 52.076 C 38.852 41.442 46.625 32.605 56.857 30.82 Z" style="fill: none; stroke-width: 2px; stroke: rgb(3, 17, 2);"/>
</svg>