<?xml version="1.0" encoding="utf-8"?>
<svg xmlns="http://www.w3.org/2000/svg" viewBox="0 0 100 80">
  <defs>
    <linearGradient gradientUnits="userSpaceOnUse" x1="1.611" y1="-38.796" x2="1.611" y2="26.45" id="gradient-0">
      <stop offset="0" style="stop-color: rgb(0% 100% 16.471%)"/>
      <stop offset="1" style="stop-color: rgb(0% 57.736% 6.7986%)"/>
    </linearGradient>
    <linearGradient gradientUnits="userSpaceOnUse" x1="3.824" y1="-40.189" x2="3.824" y2="27.684" id="gradient-1">
      <stop offset="0" style="stop-color: rgb(0% 100% 16.471%)"/>
      <stop offset="1" style="stop-color: rgb(0% 57.736% 6.7986%)"/>
    </linearGradient>
    <linearGradient gradientUnits="userSpaceOnUse" x1="2.587" y1="-42.146" x2="2.587" y2="29.642" id="gradient-2">
      <stop offset="0" style="stop-color: rgb(0% 100% 16.471%)"/>
      <stop offset="1" style="stop-color: rgb(0% 57.736% 6.7986%)"/>
    </linearGradient>
    <linearGradient gradientUnits="userSpaceOnUse" x1="2.587" y1="-8.217" x2="2.587" y2="-4.286" id="gradient-3">
      <stop offset="0" style="stop-color: rgb(0% 100% 16.471%)"/>
      <stop offset="1" style="stop-color: rgb(0% 57.736% 6.7986%)"/>
    </linearGradient>
    <linearGradient gradientUnits="userSpaceOnUse" x1="-8.155" y1="-38.412" x2="-8.155" y2="-29.195" id="gradient-4">
      <stop offset="0" style="stop-color: rgb(0% 100% 16.471%)"/>
      <stop offset="1" style="stop-color: rgb(0% 57.736% 6.7986%)"/>
    </linearGradient>
    <linearGradient gradientUnits="userSpaceOnUse" x1="13.2" y1="-38.096" x2="13.2" y2="-28.879" id="gradient-5">
      <stop offset="0" style="stop-color: rgb(0% 100% 16.471%)"/>
      <stop offset="1" style="stop-color: rgb(0% 57.736% 6.7986%)"/>
    </linearGradient>
    <linearGradient gradientUnits="userSpaceOnUse" x1="-7.765" y1="17.952" x2="-7.765" y2="27.169" id="gradient-6">
      <stop offset="0" style="stop-color: rgb(0% 100% 16.471%)"/>
      <stop offset="1" style="stop-color: rgb(0% 57.736% 6.7986%)"/>
    </linearGradient>
    <linearGradient gradientUnits="userSpaceOnUse" x1="13.591" y1="17.636" x2="13.591" y2="26.853" id="gradient-7">
      <stop offset="0" style="stop-color: rgb(0% 100% 16.471%)"/>
      <stop offset="1" style="stop-color: rgb(0% 57.736% 6.7986%)"/>
    </linearGradient>
    <linearGradient gradientUnits="userSpaceOnUse" x1="-19.616" y1="-30.32" x2="-19.616" y2="-5.397" id="gradient-8">
      <stop offset="0" style="stop-color: rgb(0% 100% 16.471%)"/>
      <stop offset="1" style="stop-color: rgb(0% 57.736% 6.7986%)"/>
    </linearGradient>
    <linearGradient gradientUnits="userSpaceOnUse" x1="25.323" y1="-30.793" x2="25.323" y2="-5.87" id="gradient-9">
      <stop offset="0" style="stop-color: rgb(0% 100% 16.471%)"/>
      <stop offset="1" style="stop-color: rgb(0% 57.736% 6.7986%)"/>
    </linearGradient>
    <linearGradient gradientUnits="userSpaceOnUse" x1="-19.628" y1="-5.675" x2="-19.628" y2="19.248" id="gradient-10">
      <stop offset="0" style="stop-color: rgb(0% 100% 16.471%)"/>
      <stop offset="1" style="stop-color: rgb(0% 57.736% 6.7986%)"/>
    </linearGradient>
    <linearGradient gradientUnits="userSpaceOnUse" x1="25.714" y1="-6.178" x2="25.714" y2="18.745" id="gradient-11">
      <stop offset="0" style="stop-color: rgb(0% 100% 16.471%)"/>
      <stop offset="1" style="stop-color: rgb(0% 57.736% 6.7986%)"/>
    </linearGradient>
    <linearGradient gradientUnits="userSpaceOnUse" x1="-4.9" y1="-29.91" x2="-4.9" y2="-22.54" id="gradient-12">
      <stop offset="0" style="stop-color: rgb(0% 100% 16.471%)"/>
      <stop offset="1" style="stop-color: rgb(0% 57.736% 6.7986%)"/>
    </linearGradient>
    <linearGradient gradientUnits="userSpaceOnUse" x1="-1.905" y1="-20.624" x2="-1.905" y2="-15.091" id="gradient-13">
      <stop offset="0" style="stop-color: rgb(0% 100% 16.471%)"/>
      <stop offset="1" style="stop-color: rgb(0% 57.736% 6.7986%)"/>
    </linearGradient>
    <linearGradient gradientUnits="userSpaceOnUse" x1="-13.312" y1="-24.617" x2="-13.312" y2="-6.047" id="gradient-14">
      <stop offset="0" style="stop-color: rgb(0% 100% 16.471%)"/>
      <stop offset="1" style="stop-color: rgb(0% 57.736% 6.7986%)"/>
    </linearGradient>
    <linearGradient gradientUnits="userSpaceOnUse" x1="-6.671" y1="-16.556" x2="-6.671" y2="-5.897" id="gradient-15">
      <stop offset="0" style="stop-color: rgb(0% 100% 16.471%)"/>
      <stop offset="1" style="stop-color: rgb(0% 57.736% 6.7986%)"/>
    </linearGradient>
    <linearGradient gradientUnits="userSpaceOnUse" x1="-12.987" y1="-6.309" x2="-12.987" y2="11.671" id="gradient-16">
      <stop offset="0" style="stop-color: rgb(0% 100% 16.471%)"/>
      <stop offset="1" style="stop-color: rgb(0% 57.736% 6.7986%)"/>
    </linearGradient>
    <linearGradient gradientUnits="userSpaceOnUse" x1="-6.866" y1="-6.972" x2="-6.866" y2="4.598" id="gradient-17">
      <stop offset="0" style="stop-color: rgb(0% 100% 16.471%)"/>
      <stop offset="1" style="stop-color: rgb(0% 57.736% 6.7986%)"/>
    </linearGradient>
    <linearGradient gradientUnits="userSpaceOnUse" x1="-4.184" y1="10.352" x2="-4.184" y2="18.034" id="gradient-18">
      <stop offset="0" style="stop-color: rgb(0% 100% 16.471%)"/>
      <stop offset="1" style="stop-color: rgb(0% 57.736% 6.7986%)"/>
    </linearGradient>
    <linearGradient gradientUnits="userSpaceOnUse" x1="-1.514" y1="2.695" x2="-1.514" y2="7.85" id="gradient-19">
      <stop offset="0" style="stop-color: rgb(0% 100% 16.471%)"/>
      <stop offset="1" style="stop-color: rgb(0% 57.736% 6.7986%)"/>
    </linearGradient>
    <linearGradient gradientUnits="userSpaceOnUse" x1="9.098" y1="10.212" x2="9.098" y2="17.383" id="gradient-20">
      <stop offset="0" style="stop-color: rgb(0% 100% 16.471%)"/>
      <stop offset="1" style="stop-color: rgb(0% 57.736% 6.7986%)"/>
    </linearGradient>
    <linearGradient gradientUnits="userSpaceOnUse" x1="6.233" y1="2.747" x2="6.233" y2="7.641" id="gradient-21">
      <stop offset="0" style="stop-color: rgb(0% 100% 16.471%)"/>
      <stop offset="1" style="stop-color: rgb(0% 57.736% 6.7986%)"/>
    </linearGradient>
    <linearGradient gradientUnits="userSpaceOnUse" x1="18.149" y1="-7.917" x2="18.149" y2="11.958" id="gradient-22">
      <stop offset="0" style="stop-color: rgb(0% 100% 16.471%)"/>
      <stop offset="1" style="stop-color: rgb(0% 57.736% 6.7986%)"/>
    </linearGradient>
    <linearGradient gradientUnits="userSpaceOnUse" x1="11.182" y1="-7.182" x2="11.182" y2="4.276" id="gradient-23">
      <stop offset="0" style="stop-color: rgb(0% 100% 16.471%)"/>
      <stop offset="1" style="stop-color: rgb(0% 57.736% 6.7986%)"/>
    </linearGradient>
    <linearGradient gradientUnits="userSpaceOnUse" x1="18.592" y1="-22.357" x2="18.592" y2="-7.173" id="gradient-24">
      <stop offset="0" style="stop-color: rgb(0% 100% 16.471%)"/>
      <stop offset="1" style="stop-color: rgb(0% 57.736% 6.7986%)"/>
    </linearGradient>
    <linearGradient gradientUnits="userSpaceOnUse" x1="11.341" y1="-16.197" x2="11.341" y2="-6.56" id="gradient-25">
      <stop offset="0" style="stop-color: rgb(0% 100% 16.471%)"/>
      <stop offset="1" style="stop-color: rgb(0% 57.736% 6.7986%)"/>
    </linearGradient>
    <linearGradient gradientUnits="userSpaceOnUse" x1="9.802" y1="-29.735" x2="9.802" y2="-21.896" id="gradient-26">
      <stop offset="0" style="stop-color: rgb(0% 100% 16.471%)"/>
      <stop offset="1" style="stop-color: rgb(0% 57.736% 6.7986%)"/>
    </linearGradient>
    <linearGradient gradientUnits="userSpaceOnUse" x1="6.286" y1="-20.178" x2="6.286" y2="-14.875" id="gradient-27">
      <stop offset="0" style="stop-color: rgb(0% 100% 16.471%)"/>
      <stop offset="1" style="stop-color: rgb(0% 57.736% 6.7986%)"/>
    </linearGradient>
  </defs>
  <g transform="matrix(1.3838, 0, 0, 1.06323, 47.5927, 46.371)" style="">
    <path d="M -22.645 -34.244 C -23.19 -34.25 -23.803 -34.571 -24.294 -35.17 C -25.124 -36.182 -25.295 -37.607 -24.676 -38.353 C -24.058 -39.098 -22.884 -38.882 -22.054 -37.87 C -21.526 -37.226 -21.264 -36.415 -21.303 -35.718 L 25.954 21.901 C 26.477 21.939 27.05 22.256 27.515 22.824 C 28.345 23.836 28.516 25.26 27.898 26.006 C 27.279 26.752 26.105 26.536 25.275 25.524 C 24.722 24.85 24.462 23.994 24.531 23.277 L -22.645 -34.244 Z" style="transform-origin: 44.085px 31.541px; stroke-width: 0.440125px; fill: url(&quot;#gradient-0&quot;); stroke: rgba(255, 255, 255, 0.35); fill-opacity: 0.61;"/>
    <path d="M 29.057 -35.477 C 29.62 -35.488 30.255 -35.826 30.766 -36.448 C 31.63 -37.502 31.816 -38.975 31.181 -39.74 C 30.547 -40.504 29.333 -40.27 28.469 -39.217 C 27.92 -38.547 27.645 -37.706 27.68 -36.987 L -21.499 22.976 C -22.039 23.02 -22.633 23.353 -23.117 23.943 C -23.981 24.997 -24.167 26.47 -23.533 27.234 C -22.899 27.999 -21.685 27.765 -20.821 26.712 C -20.246 26.011 -19.971 25.124 -20.038 24.384 L 29.057 -35.477 Z" style="transform-origin: 49.581px 31.379px; stroke-width: 0.440125px; fill: url(&quot;#gradient-1&quot;); stroke: rgba(255, 255, 255, 0.35); fill-opacity: 0.61;"/>
    <path d="M 1.559 -38.452 C 1.203 -38.821 0.971 -39.414 0.966 -40.083 C 0.958 -41.215 1.603 -42.138 2.408 -42.146 C 3.211 -42.155 3.869 -41.244 3.876 -40.113 C 3.881 -39.393 3.622 -38.758 3.225 -38.388 L 3.672 26.009 C 3.995 26.381 4.204 26.946 4.208 27.579 C 4.216 28.71 3.571 29.634 2.767 29.642 C 1.964 29.65 1.306 28.74 1.298 27.609 C 1.293 26.856 1.577 26.195 2.004 25.835 L 1.559 -38.452 Z" style="transform-origin: 46.51px 31.38px; stroke-width: 0.440125px; fill: url(&quot;#gradient-2&quot;); stroke: rgba(255, 255, 255, 0.35); fill-opacity: 0.61;"/>
    <path d="M -23.972 -5.005 C -24.277 -4.574 -24.766 -4.292 -25.317 -4.286 C -26.25 -4.277 -27.012 -5.059 -27.019 -6.034 C -27.026 -7.008 -26.275 -7.805 -25.342 -7.815 C -24.748 -7.821 -24.224 -7.506 -23.919 -7.025 L 29.197 -7.566 C 29.503 -7.959 29.969 -8.211 30.492 -8.217 C 31.425 -8.226 32.187 -7.444 32.193 -6.47 C 32.2 -5.496 31.449 -4.698 30.516 -4.689 C 29.895 -4.682 29.35 -5.027 29.053 -5.545 L -23.972 -5.005 Z" style="transform-origin: 46.51px 31.38px; stroke-width: 0.440125px; fill: url(&quot;#gradient-3&quot;); stroke: rgba(255, 255, 255, 0.35); fill-opacity: 0.61;"/>
    <path d="M -17.112 -29.86 C -17.147 -29.53 -17.269 -29.281 -17.458 -29.213 C -17.779 -29.097 -18.17 -29.543 -18.332 -30.207 C -18.495 -30.872 -18.367 -31.503 -18.047 -31.618 C -17.843 -31.691 -17.61 -31.538 -17.426 -31.245 L 0.808 -37.799 C 0.849 -38.102 0.969 -38.329 1.148 -38.394 C 1.468 -38.509 1.859 -38.064 2.022 -37.4 C 2.184 -36.735 2.056 -36.104 1.736 -35.988 C 1.523 -35.912 1.278 -36.084 1.091 -36.402 L -17.112 -29.86 Z" style="transform-origin: 19.835px -25.044px; stroke-width: 0.440125px; fill: url(&quot;#gradient-4&quot;); stroke: rgba(255, 255, 255, 0.35); fill-opacity: 0.61;"/>
    <path d="M 22.156 -29.544 C 22.191 -29.214 22.314 -28.965 22.503 -28.897 C 22.824 -28.782 23.215 -29.227 23.377 -29.891 C 23.54 -30.556 23.412 -31.187 23.091 -31.302 C 22.887 -31.375 22.655 -31.222 22.471 -30.929 L 4.237 -37.483 C 4.195 -37.786 4.076 -38.014 3.897 -38.078 C 3.576 -38.193 3.185 -37.748 3.023 -37.084 C 2.86 -36.419 2.988 -35.788 3.309 -35.673 C 3.522 -35.596 3.767 -35.768 3.954 -36.086 L 22.156 -29.544 Z" style="transform-origin: 72.862px -24.397px; stroke-width: 0.440125px; fill: url(&quot;#gradient-5&quot;); stroke: rgba(255, 255, 255, 0.35); fill-opacity: 0.61;"/>
    <path d="M -16.721 18.617 C -16.756 18.287 -16.878 18.038 -17.068 17.97 C -17.388 17.855 -17.779 18.3 -17.942 18.964 C -18.104 19.629 -17.976 20.26 -17.656 20.375 C -17.452 20.448 -17.22 20.295 -17.035 20.002 L 1.198 26.556 C 1.24 26.859 1.359 27.087 1.538 27.151 C 1.859 27.266 2.25 26.821 2.412 26.157 C 2.575 25.492 2.447 24.861 2.127 24.746 C 1.913 24.669 1.669 24.841 1.481 25.16 L -16.721 18.617 Z" style="transform-origin: 20.805px 90.386px; stroke-width: 0.440125px; fill: url(&quot;#gradient-6&quot;); stroke: rgba(255, 255, 255, 0.35); fill-opacity: 0.61;"/>
    <path d="M 22.547 18.301 C 22.582 17.971 22.704 17.722 22.894 17.654 C 23.214 17.539 23.605 17.984 23.768 18.648 C 23.93 19.313 23.802 19.944 23.482 20.059 C 23.278 20.133 23.046 19.979 22.862 19.686 L 4.628 26.24 C 4.586 26.543 4.467 26.771 4.288 26.835 C 3.967 26.95 3.576 26.505 3.414 25.841 C 3.251 25.177 3.379 24.545 3.699 24.43 C 3.913 24.353 4.157 24.525 4.345 24.844 L 22.547 18.301 Z" style="transform-origin: 73.832px 89.739px; stroke-width: 0.440125px; fill: url(&quot;#gradient-7&quot;); stroke: rgba(255, 255, 255, 0.35); fill-opacity: 0.61;"/>
    <path d="M -21.551 -6.546 C -21.338 -6.337 -21.227 -6.08 -21.279 -5.849 C -21.366 -5.458 -21.884 -5.288 -22.436 -5.469 C -22.987 -5.65 -23.363 -6.114 -23.276 -6.505 C -23.22 -6.754 -22.991 -6.913 -22.688 -6.949 L -17.714 -29.204 C -17.904 -29.407 -18.001 -29.649 -17.952 -29.868 C -17.865 -30.259 -17.347 -30.429 -16.796 -30.247 C -16.244 -30.066 -15.868 -29.602 -15.955 -29.211 C -16.013 -28.951 -16.263 -28.789 -16.585 -28.763 L -21.551 -6.546 Z" style="transform-origin: -8.619px 7.612px; stroke-width: 0.440125px; fill: url(&quot;#gradient-8&quot;); stroke: rgba(255, 255, 255, 0.35); fill-opacity: 0.61;"/>
    <path d="M 27.258 -7.02 C 27.045 -6.811 26.934 -6.554 26.986 -6.322 C 27.073 -5.931 27.591 -5.762 28.143 -5.943 C 28.695 -6.124 29.071 -6.588 28.983 -6.979 C 28.928 -7.228 28.698 -7.387 28.396 -7.423 L 23.421 -29.678 C 23.612 -29.88 23.709 -30.122 23.66 -30.341 C 23.572 -30.732 23.054 -30.902 22.503 -30.721 C 21.951 -30.54 21.575 -30.076 21.662 -29.685 C 21.721 -29.425 21.97 -29.262 22.292 -29.237 L 27.258 -7.02 Z" style="transform-origin: 102.961px 6.642px; stroke-width: 0.440125px; fill: url(&quot;#gradient-9&quot;); stroke: rgba(255, 255, 255, 0.35); fill-opacity: 0.61;"/>
    <path d="M -17.693 18.098 C -17.906 18.307 -18.017 18.564 -17.965 18.796 C -17.877 19.187 -17.36 19.357 -16.808 19.175 C -16.256 18.994 -15.88 18.531 -15.968 18.139 C -16.023 17.89 -16.253 17.731 -16.555 17.695 L -21.53 -4.56 C -21.339 -4.762 -21.242 -5.004 -21.291 -5.223 C -21.378 -5.614 -21.896 -5.784 -22.448 -5.603 C -23 -5.422 -23.376 -4.958 -23.288 -4.567 C -23.23 -4.307 -22.981 -4.144 -22.659 -4.118 L -17.693 18.098 Z" style="transform-origin: -8.649px 58.083px; stroke-width: 0.440125px; fill: url(&quot;#gradient-10&quot;); stroke: rgba(255, 255, 255, 0.35); fill-opacity: 0.61;"/>
    <path d="M 23.779 17.596 C 23.992 17.805 24.103 18.062 24.051 18.293 C 23.964 18.684 23.446 18.854 22.894 18.673 C 22.342 18.492 21.966 18.028 22.054 17.637 C 22.109 17.388 22.339 17.229 22.641 17.193 L 27.616 -5.062 C 27.425 -5.265 27.328 -5.507 27.377 -5.726 C 27.465 -6.117 27.983 -6.286 28.534 -6.105 C 29.086 -5.924 29.462 -5.46 29.375 -5.069 C 29.316 -4.809 29.067 -4.647 28.745 -4.621 L 23.779 17.596 Z" style="transform-origin: 103.932px 57.054px; stroke-width: 0.440125px; fill: url(&quot;#gradient-11&quot;); stroke: rgba(255, 255, 255, 0.35); fill-opacity: 0.61;"/>
    <path d="M -10.855 -23.228 C -10.842 -22.857 -10.901 -22.593 -11.029 -22.547 C -11.244 -22.47 -11.576 -23.044 -11.768 -23.829 C -11.96 -24.616 -11.94 -25.315 -11.725 -25.393 C -11.587 -25.442 -11.403 -25.228 -11.238 -24.862 L 1.054 -29.281 C 1.049 -29.62 1.108 -29.859 1.229 -29.903 C 1.445 -29.98 1.776 -29.407 1.968 -28.621 C 2.16 -27.835 2.141 -27.135 1.925 -27.057 C 1.781 -27.006 1.586 -27.243 1.416 -27.638 L -10.855 -23.228 Z" style="transform-origin: 27.919px -9.524px; stroke-width: 0.440125px; fill: url(&quot;#gradient-12&quot;); stroke: rgba(255, 255, 255, 0.35); fill-opacity: 0.61;"/>
    <path d="M -5.265 -15.753 C -5.218 -15.377 -5.227 -15.12 -5.301 -15.093 C -5.426 -15.048 -5.69 -15.678 -5.892 -16.501 C -6.093 -17.324 -6.154 -18.027 -6.029 -18.072 C -5.949 -18.1 -5.813 -17.855 -5.673 -17.462 L 1.449 -20.021 C 1.41 -20.365 1.421 -20.597 1.491 -20.622 C 1.616 -20.667 1.881 -20.037 2.082 -19.214 C 2.283 -18.392 2.345 -17.689 2.22 -17.644 C 2.137 -17.614 1.991 -17.883 1.845 -18.309 L -5.265 -15.753 Z" style="transform-origin: 35.356px 7.612px; stroke-width: 0.440125px; fill: url(&quot;#gradient-13&quot;); stroke: rgba(255, 255, 255, 0.35); fill-opacity: 0.61;"/>
    <path d="M -14.464 -6.884 C -14.185 -6.69 -14.024 -6.474 -14.062 -6.303 C -14.127 -6.014 -14.734 -5.962 -15.419 -6.187 C -16.104 -6.412 -16.606 -6.829 -16.541 -7.117 C -16.5 -7.301 -16.24 -7.389 -15.879 -7.371 L -12.204 -23.812 C -12.455 -23.997 -12.598 -24.2 -12.562 -24.361 C -12.497 -24.65 -11.889 -24.702 -11.205 -24.477 C -10.52 -24.252 -10.018 -23.836 -10.082 -23.547 C -10.125 -23.354 -10.409 -23.267 -10.795 -23.297 L -14.464 -6.884 Z" style="transform-origin: 7.033px 12.785px; stroke-width: 0.440125px; fill: url(&quot;#gradient-14&quot;); stroke: rgba(255, 255, 255, 0.35); fill-opacity: 0.61;"/>
    <path d="M -7.259 -6.377 C -7.069 -6.256 -6.957 -6.126 -6.979 -6.028 C -7.016 -5.863 -7.419 -5.852 -7.88 -6.004 C -8.342 -6.155 -8.685 -6.412 -8.648 -6.577 C -8.624 -6.682 -8.453 -6.725 -8.212 -6.703 L -6.112 -16.095 C -6.284 -16.211 -6.383 -16.332 -6.362 -16.425 C -6.325 -16.59 -5.921 -16.601 -5.461 -16.45 C -5 -16.298 -4.656 -16.042 -4.693 -15.876 C -4.718 -15.766 -4.905 -15.725 -5.162 -15.754 L -7.259 -6.377 Z" style="transform-origin: 23.523px 21.192px; stroke-width: 0.440125px; fill: url(&quot;#gradient-15&quot;); stroke: rgba(255, 255, 255, 0.35); fill-opacity: 0.61;"/>
    <path d="M -11.905 10.862 C -12.189 11.055 -12.354 11.266 -12.317 11.432 C -12.255 11.711 -11.641 11.752 -10.946 11.524 C -10.251 11.296 -9.74 10.885 -9.802 10.605 C -9.842 10.428 -10.104 10.346 -10.47 10.369 L -14.024 -5.53 C -13.768 -5.714 -13.622 -5.913 -13.657 -6.069 C -13.719 -6.348 -14.333 -6.39 -15.027 -6.162 C -15.721 -5.933 -16.234 -5.522 -16.171 -5.243 C -16.13 -5.057 -15.844 -4.976 -15.453 -5.01 L -11.905 10.862 Z" style="transform-origin: 7.841px 49.676px; stroke-width: 0.440125px; fill: url(&quot;#gradient-16&quot;); stroke: rgba(255, 255, 255, 0.35); fill-opacity: 0.61;"/>
    <path d="M -6.25 4.077 C -6.465 4.211 -6.592 4.354 -6.569 4.46 C -6.529 4.639 -6.074 4.645 -5.553 4.474 C -5.032 4.303 -4.643 4.019 -4.683 3.84 C -4.708 3.726 -4.902 3.682 -5.173 3.709 L -7.449 -6.473 C -7.255 -6.6 -7.142 -6.734 -7.164 -6.834 C -7.204 -7.013 -7.659 -7.019 -8.18 -6.848 C -8.7 -6.677 -9.09 -6.393 -9.05 -6.214 C -9.023 -6.095 -8.813 -6.052 -8.522 -6.088 L -6.25 4.077 Z" style="transform-origin: 23.037px 41.753px; stroke-width: 0.440125px; fill: url(&quot;#gradient-17&quot;); stroke: rgba(255, 255, 255, 0.35); fill-opacity: 0.61;"/>
    <path d="M -10.194 11.094 C -10.174 10.691 -10.229 10.405 -10.359 10.358 C -10.577 10.28 -10.925 10.914 -11.135 11.774 C -11.346 12.635 -11.339 13.395 -11.121 13.474 C -10.982 13.524 -10.79 13.286 -10.615 12.884 L 1.824 17.355 C 1.813 17.724 1.869 17.983 1.991 18.027 C 2.21 18.105 2.557 17.472 2.768 16.612 C 2.978 15.751 2.971 14.99 2.753 14.912 C 2.607 14.859 2.405 15.123 2.223 15.558 L -10.194 11.094 Z" style="transform-origin: 29.697px 73.249px; stroke-width: 0.440125px; fill: url(&quot;#gradient-18&quot;); stroke: rgba(255, 255, 255, 0.35); fill-opacity: 0.61;"/>
    <path d="M -4.759 3.296 C -4.719 2.956 -4.731 2.722 -4.802 2.697 C -4.922 2.653 -5.167 3.221 -5.348 3.963 C -5.53 4.707 -5.58 5.343 -5.459 5.387 C -5.383 5.414 -5.256 5.195 -5.126 4.84 L 1.724 7.302 C 1.692 7.613 1.706 7.824 1.773 7.848 C 1.894 7.892 2.139 7.325 2.321 6.582 C 2.502 5.839 2.552 5.202 2.431 5.158 C 2.351 5.13 2.216 5.371 2.081 5.755 L -4.759 3.296 Z" style="transform-origin: 36.326px 54.981px; stroke-width: 0.440125px; fill: url(&quot;#gradient-19&quot;); stroke: rgba(255, 255, 255, 0.35); fill-opacity: 0.61;"/>
    <path d="M 15.027 10.864 C 15.019 10.515 15.081 10.265 15.208 10.22 C 15.423 10.142 15.742 10.677 15.922 11.413 C 16.103 12.15 16.075 12.809 15.86 12.886 C 15.723 12.935 15.544 12.737 15.385 12.396 L 3.169 16.787 C 3.169 17.106 3.108 17.333 2.987 17.376 C 2.773 17.453 2.453 16.919 2.273 16.182 C 2.093 15.446 2.121 14.787 2.336 14.71 C 2.478 14.659 2.668 14.878 2.832 15.247 L 15.027 10.864 Z" style="transform-origin: 62.676px 72.44px; stroke-width: 0.440125px; fill: url(&quot;#gradient-20&quot;); stroke: rgba(255, 255, 255, 0.35); fill-opacity: 0.61;"/>
    <path d="M 9.389 3.308 C 9.354 2.991 9.367 2.774 9.437 2.749 C 9.554 2.707 9.784 3.231 9.953 3.921 C 10.122 4.61 10.164 5.202 10.047 5.244 C 9.972 5.271 9.852 5.069 9.73 4.74 L 3.082 7.13 C 3.11 7.418 3.095 7.615 3.029 7.639 C 2.912 7.681 2.681 7.156 2.513 6.467 C 2.344 5.778 2.302 5.185 2.419 5.143 C 2.497 5.115 2.625 5.338 2.752 5.693 L 9.389 3.308 Z" style="transform-origin: 55.562px 54.819px; stroke-width: 0.440125px; fill: url(&quot;#gradient-21&quot;); stroke: rgba(255, 255, 255, 0.35); fill-opacity: 0.61;"/>
    <path d="M 16.769 11.056 C 17.007 11.245 17.139 11.463 17.098 11.647 C 17.028 11.958 16.49 12.051 15.897 11.856 C 15.302 11.661 14.877 11.251 14.947 10.94 C 14.991 10.743 15.224 10.633 15.542 10.63 L 19.493 -7.046 C 19.279 -7.227 19.162 -7.432 19.201 -7.606 C 19.271 -7.916 19.808 -8.01 20.403 -7.815 C 20.997 -7.62 21.422 -7.21 21.352 -6.899 C 21.306 -6.693 21.052 -6.582 20.713 -6.589 L 16.769 11.056 Z" style="transform-origin: 85.149px 48.323px; stroke-width: 0.440125px; fill: url(&quot;#gradient-22&quot;); stroke: rgba(255, 255, 255, 0.35); fill-opacity: 0.61;"/>
    <path d="M 10.487 3.76 C 10.666 3.882 10.769 4.016 10.746 4.122 C 10.706 4.3 10.319 4.328 9.882 4.184 C 9.445 4.04 9.123 3.78 9.163 3.602 C 9.188 3.489 9.354 3.436 9.583 3.45 L 11.849 -6.685 C 11.688 -6.802 11.596 -6.928 11.619 -7.028 C 11.659 -7.206 12.045 -7.234 12.482 -7.09 C 12.919 -6.946 13.241 -6.686 13.201 -6.508 C 13.175 -6.389 12.995 -6.337 12.749 -6.358 L 10.487 3.76 Z" style="transform-origin: 67.85px 41.209px; stroke-width: 0.440125px; fill: url(&quot;#gradient-23&quot;); stroke: rgba(255, 255, 255, 0.35); fill-opacity: 0.61;"/>
    <path d="M 19.472 -7.857 C 19.218 -7.689 19.07 -7.508 19.101 -7.369 C 19.154 -7.133 19.697 -7.107 20.315 -7.31 C 20.934 -7.513 21.391 -7.868 21.338 -8.104 C 21.305 -8.254 21.073 -8.319 20.749 -8.294 L 17.752 -21.7 C 17.981 -21.86 18.112 -22.03 18.083 -22.161 C 18.03 -22.397 17.487 -22.423 16.869 -22.22 C 16.251 -22.017 15.793 -21.662 15.845 -21.426 C 15.88 -21.269 16.133 -21.205 16.48 -21.24 L 19.472 -7.857 Z" style="transform-origin: 86.249px 13.946px; stroke-width: 0.440125px; fill: url(&quot;#gradient-24&quot;); stroke: rgba(255, 255, 255, 0.35); fill-opacity: 0.61;"/>
    <path d="M 11.82 -6.995 C 11.627 -6.879 11.512 -6.757 11.532 -6.67 C 11.565 -6.521 11.969 -6.524 12.434 -6.677 C 12.9 -6.83 13.249 -7.074 13.216 -7.223 C 13.194 -7.318 13.024 -7.351 12.782 -7.322 L 10.891 -15.781 C 11.066 -15.891 11.167 -16.005 11.149 -16.088 C 11.116 -16.237 10.712 -16.233 10.247 -16.081 C 9.782 -15.928 9.432 -15.683 9.465 -15.535 C 9.487 -15.436 9.674 -15.405 9.933 -15.44 L 11.82 -6.995 Z" style="transform-origin: 68.243px 20.881px; stroke-width: 0.440125px; fill: url(&quot;#gradient-25&quot;); stroke: rgba(255, 255, 255, 0.35); fill-opacity: 0.61;"/>
    <path d="M 16.215 -22.618 C 16.203 -22.231 16.269 -21.954 16.406 -21.904 C 16.639 -21.821 16.989 -22.417 17.19 -23.236 C 17.39 -24.056 17.364 -24.787 17.132 -24.87 C 16.984 -24.923 16.788 -24.702 16.614 -24.321 L 3.391 -29.074 C 3.393 -29.429 3.328 -29.68 3.198 -29.727 C 2.966 -29.81 2.615 -29.214 2.415 -28.395 C 2.215 -27.575 2.24 -26.844 2.473 -26.76 C 2.627 -26.705 2.835 -26.951 3.014 -27.362 L 16.215 -22.618 Z" style="transform-origin: 64.425px -8.685px; stroke-width: 0.440125px; fill: url(&quot;#gradient-26&quot;); stroke: rgba(255, 255, 255, 0.35); fill-opacity: 0.61;"/>
    <path d="M 9.65 -15.491 C 9.61 -15.143 9.623 -14.904 9.697 -14.877 C 9.821 -14.832 10.073 -15.411 10.258 -16.169 C 10.444 -16.928 10.493 -17.579 10.368 -17.623 C 10.289 -17.652 10.159 -17.429 10.026 -17.066 L 2.928 -19.617 C 2.96 -19.935 2.946 -20.151 2.876 -20.176 C 2.751 -20.221 2.5 -19.642 2.314 -18.884 C 2.129 -18.125 2.079 -17.474 2.204 -17.429 C 2.287 -17.4 2.426 -17.646 2.565 -18.038 L 9.65 -15.491 Z" style="transform-origin: 55.695px 8.29px; stroke-width: 0.440125px; fill: url(&quot;#gradient-27&quot;); stroke: rgba(255, 255, 255, 0.35); fill-opacity: 0.61;"/>
  </g>
  <text style="fill: rgb(0, 249, 7); fill-opacity: 0.61; font-family: Arial, sans-serif; font-size: 28px; white-space: pre;" transform="matrix(0.633842, 0, 0, 0.729282, 0.410463, -0.258196)" x="1.121" y="24.447">0</text>
  <text style="fill: rgb(0, 249, 7); fill-opacity: 0.61; font-family: Arial, sans-serif; font-size: 28px; white-space: pre;" transform="matrix(0.633842, 0, 0, 0.729282, 79.89579, 4.92563)" x="1.121" y="24.447">0</text>
  <text style="fill: rgb(0, 249, 7); fill-opacity: 0.61; font-family: Arial, sans-serif; font-size: 28px; white-space: pre;" transform="matrix(0.267696, 0, 0, 0.36267, 94.302567, -0.22194)" x="1.121" y="24.447">0</text>
  <text style="fill: rgb(0, 249, 7); fill-opacity: 0.61; font-family: Arial, sans-serif; font-size: 28px; white-space: pre;" transform="matrix(0.267696, 0, 0, 0.36267, 92.574623, 68.722946)" x="1.121" y="24.447">0</text>
  <text style="fill: rgb(0, 249, 7); fill-opacity: 0.61; font-family: Arial, sans-serif; font-size: 28px; white-space: pre;" transform="matrix(0.267696, 0, 0, 0.36267, 89.118736, 65.612648)" x="1.121" y="24.447">0</text>
  <text style="fill: rgb(0, 249, 7); fill-opacity: 0.61; font-family: Arial, sans-serif; font-size: 28px; white-space: pre;" transform="matrix(0.267696, 0, 0, 0.36267, 88.773148, 18.267038)" x="1.121" y="24.447">1</text>
  <text style="fill: rgb(0, 249, 7); fill-opacity: 0.61; font-family: Arial, sans-serif; font-size: 28px; white-space: pre;" transform="matrix(0.267696, 0, 0, 0.36267, 12.570908, 9.108946)" x="1.121" y="24.447">1</text>
  <text style="fill: rgb(0, 249, 7); fill-opacity: 0.61; font-family: Arial, sans-serif; font-size: 28px; white-space: pre;" transform="matrix(-0.387113, 0, 0, 0.351494, 28.510838, 0.116495)" x="1.121" y="24.447">1</text>
  <text style="fill: rgb(0, 249, 7); fill-opacity: 0.61; font-family: Arial, sans-serif; font-size: 28px; white-space: pre;" transform="matrix(0.211948, 0, 0, 0.219052, 7.103987, 58.761913)" x="1.121" y="24.447">1</text>
  <text style="fill: rgb(0, 249, 7); fill-opacity: 0.61; font-family: Arial, sans-serif; font-size: 28px; white-space: pre;" transform="matrix(0.211948, 0, 0, 0.219052, 23.173847, 69.993538)" x="1.121" y="24.447">1</text>
  <text style="fill: rgb(0, 249, 7); fill-opacity: 0.61; font-family: Arial, sans-serif; font-size: 28px; white-space: pre;" transform="matrix(0.211948, 0, 0, 0.219052, 21.445906, 44.765587)" x="1.121" y="24.447">1</text>
  <text style="fill: rgb(0, 249, 7); fill-opacity: 0.61; font-family: Arial, sans-serif; font-size: 28px; white-space: pre;" transform="matrix(0.811246, 0, 0, 0.219052, 0.211583, 19.883223)" x="1.121" y="24.447">1</text>
  <rect x="39.656" y="25.786" width="4.854" height="1.645" style="fill: rgb(99, 228, 118);"/>
  <rect x="51.379" y="21.467" width="4.854" height="1.645" style="fill: rgb(99, 228, 118);"/>
  <rect x="35.551" y="15.029" width="4.988" height="3.389" style="fill: rgb(99, 228, 118);"/>
  <rect x="16.772" y="21.467" width="4.988" height="3.389" style="fill: rgb(99, 228, 118);"/>
  <rect x="46.013" y="1.213" width="4.988" height="3.389" style="fill: rgb(99, 228, 118);"/>
  <text style="fill: rgb(0, 249, 7); fill-opacity: 0.61; font-family: Arial, sans-serif; font-size: 28px; white-space: pre;" transform="matrix(0.267696, 0, 0, 0.36267, 23.5009, 53.7712)" x="1.121" y="24.447">1</text>
  <text style="fill: rgb(0, 249, 7); fill-opacity: 0.61; font-family: Arial, sans-serif; font-size: 28px; white-space: pre;" transform="matrix(-0.387113, 0, 0, 0.351494, 39.4408, 44.7788)" x="1.121" y="24.447">1</text>
  <rect x="50.586" y="70.448" width="4.854" height="1.645" style="fill: rgb(99, 228, 118);"/>
  <rect x="62.309" y="66.129" width="4.854" height="1.645" style="fill: rgb(99, 228, 118);"/>
  <rect x="46.481" y="59.691" width="4.988" height="3.389" style="fill: rgb(99, 228, 118);"/>
  <rect x="27.702" y="66.129" width="4.988" height="3.389" style="fill: rgb(99, 228, 118);"/>
  <rect x="56.943" y="45.875" width="4.988" height="3.389" style="fill: rgb(99, 228, 118);"/>
  <text style="fill: rgb(0, 249, 7); fill-opacity: 0.61; font-family: Arial, sans-serif; font-size: 28px; white-space: pre;" transform="matrix(0.267696, 0, 0, 0.36267, 46.1147, 31.7227)" x="1.121" y="24.447">1</text>
  <text style="fill: rgb(0, 249, 7); fill-opacity: 0.61; font-family: Arial, sans-serif; font-size: 28px; white-space: pre;" transform="matrix(-0.387113, 0, 0, 0.351494, 62.0546, 22.7303)" x="1.121" y="24.447">1</text>
  <rect x="73.2" y="48.399" width="4.854" height="1.645" style="fill: rgb(99, 228, 118);"/>
  <rect x="84.923" y="44.08" width="4.854" height="1.645" style="fill: rgb(99, 228, 118);"/>
  <rect x="69.095" y="37.643" width="4.988" height="3.389" style="fill: rgb(99, 228, 118);"/>
  <rect x="50.316" y="44.08" width="4.988" height="3.389" style="fill: rgb(99, 228, 118);"/>
  <rect x="79.557" y="23.827" width="4.988" height="3.389" style="fill: rgb(99, 228, 118);"/>
</svg>