<?xml version="1.0" encoding="utf-8"?>
<svg xmlns="http://www.w3.org/2000/svg" viewBox="0 0 100 80" width="100px" height="80px">
  <path d="M 98.38 42.863 C 98.38 51.046 82.094 57.885 60.331 59.572 C 62.169 60.94 63.195 62.465 63.195 64.074 C 63.195 69.994 49.302 74.794 32.165 74.794 C 15.027 74.794 1.135 69.994 1.135 64.074 C 1.135 60.246 6.941 56.888 15.679 54.993 C 6.847 51.893 1.38 47.604 1.38 42.863 C 1.38 33.417 23.094 25.758 49.88 25.758 C 76.666 25.758 98.38 33.417 98.38 42.863 Z" style="stroke-width: 3px; stroke: rgb(13, 44, 1); fill: rgb(145, 30, 27);"/>
  <path d="M 91.05 43.897 C 91.05 51.318 77.629 57.521 59.694 59.051 C 61.208 60.293 62.053 61.676 62.053 63.136 C 62.053 68.504 50.605 72.858 36.48 72.858 C 22.357 72.858 10.908 68.504 10.908 63.136 C 10.908 59.664 15.694 56.618 22.895 54.898 C 15.617 52.088 11.11 48.196 11.11 43.897 C 11.11 35.329 29.005 28.383 51.08 28.383 C 73.155 28.383 91.05 35.329 91.05 43.897 Z" style="fill: rgb(213, 47, 47);"/>
  <path d="M 84.269 46.825 C 84.269 52.648 73.588 57.515 59.317 58.716 C 60.522 59.689 61.194 60.774 61.194 61.92 C 61.194 66.132 52.085 69.548 40.845 69.548 C 29.607 69.548 20.497 66.132 20.497 61.92 C 20.497 59.195 24.305 56.806 30.035 55.457 C 24.244 53.25 20.658 50.198 20.658 46.825 C 20.658 40.102 34.898 34.653 52.463 34.653 C 70.029 34.653 84.269 40.102 84.269 46.825 Z" style="fill: rgb(248, 73, 73);"/>
  <ellipse style="fill: rgb(73, 127, 25); stroke: rgb(13, 44, 1);" cx="72.576" cy="59.94" rx="6.353" ry="3.108"/>
  <ellipse style="fill: rgb(73, 127, 25); stroke: rgb(13, 44, 1);" cx="82.96" cy="69.448" rx="4.032" ry="2.102"/>
  <ellipse style="fill: rgb(73, 127, 25); stroke: rgb(13, 44, 1);" cx="68.545" cy="63.506" rx="3.055" ry="1.462"/>
</svg>