<?xml version="1.0" encoding="utf-8"?>
<svg xmlns="http://www.w3.org/2000/svg" viewBox="0 0 100 80" width="100px" height="80px">
  <defs>
    <linearGradient gradientUnits="userSpaceOnUse" x1="21.067" y1="2.552" x2="21.067" y2="57.847" id="gradient-0">
      <stop offset="0" style="stop-color: rgb(45.098% 0% 0%)"/>
      <stop offset="1" style="stop-color: rgb(27.958% 7.1038% 0%)"/>
    </linearGradient>
    <linearGradient gradientUnits="userSpaceOnUse" x1="37.924" y1="13.036" x2="37.924" y2="68.331" id="gradient-1">
      <stop offset="0" style="stop-color: rgb(45.098% 0% 0%)"/>
      <stop offset="1" style="stop-color: rgb(27.958% 7.1038% 0%)"/>
    </linearGradient>
    <linearGradient gradientUnits="userSpaceOnUse" x1="58.48" y1="3.169" x2="58.48" y2="58.464" id="gradient-2">
      <stop offset="0" style="stop-color: rgb(45.098% 0% 0%)"/>
      <stop offset="1" style="stop-color: rgb(27.958% 7.1038% 0%)"/>
    </linearGradient>
    <linearGradient gradientUnits="userSpaceOnUse" x1="81.092" y1="10.652" x2="81.092" y2="65.948" id="gradient-3">
      <stop offset="0" style="stop-color: rgb(45.098% 0% 0%)"/>
      <stop offset="1" style="stop-color: rgb(27.958% 7.1038% 0%)"/>
    </linearGradient>
    <radialGradient gradientUnits="userSpaceOnUse" cx="50.052" cy="59.528" r="49.335" id="gradient-4">
      <stop offset="0" style="stop-color: rgb(92.157% 21.569% 21.569%)"/>
      <stop offset="1" style="stop-color: rgb(63.073% 0% 8.1743%)"/>
    </radialGradient>
    <linearGradient gradientUnits="userSpaceOnUse" x1="50.052" y1="45.24" x2="50.052" y2="78.954" id="gradient-5">
      <stop offset="0" style="stop-color: rgb(41.176% 0% 0%)"/>
      <stop offset="1" style="stop-color: rgb(24.978% 7.5414% 0%)"/>
    </linearGradient>
  </defs>
  <ellipse style="stroke: rgb(44, 0, 0); fill: url(&quot;#gradient-5&quot;);" cx="50.052" cy="62.097" rx="49.335" ry="16.857"/>
  <ellipse style="fill: url(&quot;#gradient-4&quot;); stroke: rgb(49, 0, 0);" cx="50.052" cy="59.528" rx="49.335" ry="14.287"/>
  <path d="M 23.593 55.253 C 23.593 56.686 22.415 57.847 20.96 57.847 L 20.634 57.847 C 19.18 57.847 18.001 56.686 18.001 55.253 L 18.001 21.221 L 12.228 21.221 L 21.067 2.552 L 29.906 21.221 L 23.593 21.221 L 23.593 55.253 Z" style="fill: rgb(179, 111, 17); stroke-width: 2px; stroke: url(&quot;#gradient-0&quot;);"/>
  <path d="M 40.45 65.737 C 40.45 67.17 39.272 68.331 37.817 68.331 L 37.491 68.331 C 36.037 68.331 34.858 67.17 34.858 65.737 L 34.858 31.705 L 29.085 31.705 L 37.924 13.036 L 46.763 31.705 L 40.45 31.705 L 40.45 65.737 Z" style="fill: rgb(179, 111, 17); stroke-width: 2px; stroke: url(&quot;#gradient-1&quot;);"/>
  <path d="M 61.006 55.87 C 61.006 57.303 59.828 58.464 58.373 58.464 L 58.047 58.464 C 56.593 58.464 55.414 57.303 55.414 55.87 L 55.414 21.838 L 49.641 21.838 L 58.48 3.169 L 67.319 21.838 L 61.006 21.838 L 61.006 55.87 Z" style="fill: rgb(179, 111, 17); stroke-width: 2px; stroke: url(&quot;#gradient-2&quot;);"/>
  <path d="M 83.618 63.354 C 83.618 64.787 82.44 65.948 80.985 65.948 L 80.659 65.948 C 79.205 65.948 78.026 64.787 78.026 63.354 L 78.026 29.322 L 72.253 29.322 L 81.092 10.652 L 89.931 29.322 L 83.618 29.322 L 83.618 63.354 Z" style="fill: rgb(179, 111, 17); stroke-width: 2px; stroke: url(&quot;#gradient-3&quot;);"/>
</svg>