<?xml version="1.0" encoding="utf-8"?>
<svg xmlns="http://www.w3.org/2000/svg" viewBox="0 0 110 180" width="110px" height="180px" xmlns:bx="https://boxy-svg.com">
  <defs>
    <linearGradient gradientUnits="userSpaceOnUse" x1="69.493" y1="79.943" x2="69.493" y2="125.432" id="gradient-25" gradientTransform="matrix(0.999999, 0, 0, 0.999999, -2.765788, 6.853041)">
      <stop offset="0" style="stop-color: rgb(15.686% 40.392% 23.529%)"/>
      <stop offset="1" style="stop-color: rgb(0% 25.703% 10.208%)"/>
    </linearGradient>
    <linearGradient gradientUnits="userSpaceOnUse" x1="43.08" y1="89.367" x2="43.08" y2="109.039" id="gradient-26" gradientTransform="matrix(1.552848, 0, 0, 1.412954, -16.564636, 21.404886)">
      <stop offset="0" style="stop-color: rgb(8.6275% 32.549% 16.078%)"/>
      <stop offset="1" style="stop-color: rgb(0% 21.246% 5.8187%)"/>
    </linearGradient>
    <linearGradient gradientUnits="userSpaceOnUse" x1="33.017" y1="87.365" x2="33.017" y2="109.039" id="gradient-27" gradientTransform="matrix(1.971093, 0, 0, 1.566338, -26.926801, 8.245584)">
      <stop offset="0" style="stop-color: rgb(26.667% 64.706% 38.431%)"/>
      <stop offset="1" style="stop-color: rgb(0% 39.662% 15.739%)"/>
    </linearGradient>
    <linearGradient gradientUnits="userSpaceOnUse" x1="23.073" y1="55.781" x2="23.073" y2="85.193" id="gradient-28" gradientTransform="matrix(1.527577, 0.058446, -0.06062, 1.616589, -8.666564, -6.756479)">
      <stop offset="0" style="stop-color: rgb(26.667% 64.706% 38.431%)"/>
      <stop offset="1" style="stop-color: rgb(0% 39.662% 15.739%)"/>
    </linearGradient>
    <linearGradient gradientUnits="userSpaceOnUse" x1="16.555" y1="5.154" x2="16.555" y2="27.222" id="gradient-29" gradientTransform="matrix(0.92075, -1.257498, 1.251279, 0.932721, -12.065499, 28.621002)">
      <stop offset="0" style="stop-color: rgb(26.667% 64.706% 38.431%)"/>
      <stop offset="1" style="stop-color: rgb(0% 39.662% 15.739%)"/>
    </linearGradient>
    <linearGradient gradientUnits="userSpaceOnUse" x1="44.447" y1="2.502" x2="44.447" y2="45.874" id="gradient-0">
      <stop offset="0" style="stop-color: rgb(5.8824% 5.098% 17.647%)"/>
      <stop offset="1" style="stop-color: rgb(4.2208% 2.275% 16.005%)"/>
    </linearGradient>
    <linearGradient gradientUnits="userSpaceOnUse" x1="44.447" y1="2.502" x2="44.447" y2="45.874" id="gradient-1">
      <stop offset="0" style="stop-color: rgb(10.588% 25.882% 89.412%)"/>
      <stop offset="1" style="stop-color: rgb(0% 24.045% 48.428%)"/>
    </linearGradient>
    <linearGradient gradientUnits="userSpaceOnUse" x1="47.108" y1="36.53" x2="47.108" y2="51.721" id="gradient-2" gradientTransform="matrix(-0.92867, 0.370909, -0.281548, -0.704933, 105.417772, 70.708052)">
      <stop offset="0" style="stop-color: rgb(10.588% 25.882% 89.412%)"/>
      <stop offset="1" style="stop-color: rgb(0% 24.045% 48.428%)"/>
    </linearGradient>
    <linearGradient gradientUnits="userSpaceOnUse" x1="16.555" y1="5.154" x2="16.555" y2="27.222" id="gradient-3" gradientTransform="matrix(1.385136, -1.025267, 0.829164, 1.142248, -12.47437, 22.58353)">
      <stop offset="0" style="stop-color: rgb(26.667% 64.706% 38.431%)"/>
      <stop offset="1" style="stop-color: rgb(0% 39.662% 15.739%)"/>
    </linearGradient>
    <linearGradient gradientUnits="userSpaceOnUse" x1="143.447" y1="91.624" x2="143.447" y2="99.572" id="gradient-14">
      <stop offset="0" style="stop-color: rgb(0% 14.51% 73.725%)"/>
      <stop offset="1" style="stop-color: rgb(0% 18.802% 38.225%)"/>
    </linearGradient>
    <radialGradient gradientUnits="userSpaceOnUse" cx="87.085" cy="138.9" r="14.726" id="gradient-11" gradientTransform="matrix(1, 0, 0, 1, 0.000015, 0.000015)">
      <stop offset="0" style="stop-color: rgb(100% 58.431% 0%)"/>
      <stop offset="1" style="stop-color: rgb(64.317% 29.827% 0%)"/>
    </radialGradient>
    <radialGradient gradientUnits="userSpaceOnUse" cx="86.579" cy="144.39" r="12.997" id="gradient-13" gradientTransform="matrix(1.159847, 0, 0, 1, -13.839353, 0.000067)">
      <stop offset="0" style="stop-color: rgb(100% 58.431% 0%)"/>
      <stop offset="1" style="stop-color: rgb(64.317% 29.827% 0%)"/>
    </radialGradient>
    <radialGradient gradientUnits="userSpaceOnUse" cx="86.593" cy="150.219" r="7.676" id="gradient-12" gradientTransform="matrix(1.132039, 0, 0, 1.266574, -11.433768, -40.04508)">
      <stop offset="0" style="stop-color: rgb(48.235% 48.235% 48.235%)"/>
      <stop offset="1" style="stop-color: rgb(28.577% 28.577% 28.577%)"/>
    </radialGradient>
  </defs>
  <path d="M 60.628 96.156 L 60.568 119.997 L 60.528 119.997 L 60.498 132.279 L 65.268 132.287 C 68.688 131.321 71.438 129.109 72.728 126.292 L 72.748 120.017 L 72.708 120.017 L 72.758 99.808 L 72.928 99.808 L 72.958 86.798 L 64.898 96.163 L 60.628 96.156 Z" style="fill: url(&quot;#gradient-25&quot;); stroke: rgb(10, 44, 20); transform-box: fill-box; transform-origin: 47.7589% 50.8357%;" transform="matrix(0.880515, -0.474019, 0.474019, 0.880515, 0, -0.000001)"/>
  <g transform="matrix(0.494005, 0.86946, -0.762207, 0.433067, -81.56955, 40.987045)" style="transform-origin: 159.642px 88.92px;">
    <path d="M 137.072 86.404 L 141.787 78.456 L 149.967 80.983 L 149.977 85.205 L 144.327 85.218 L 142.295 82.147 C 140.258 85.226 137.072 86.404 137.072 86.404 Z" style="stroke: rgb(0, 0, 0); fill: rgb(0, 37, 188); stroke-width: 2.13146px;"/>
    <path d="M 136.994 91.624 L 141.709 99.572 L 149.889 97.045 L 149.899 92.823 L 144.249 92.81 L 142.217 95.881 C 140.18 92.802 136.994 91.624 136.994 91.624 Z" style="stroke: rgb(0, 0, 0); fill: url(&quot;#gradient-14&quot;); stroke-width: 2.13146px;"/>
    <rect x="121.34" y="120.203" width="16.782" height="5.665" style="stroke: rgb(0, 0, 0); fill: rgb(13, 21, 55); stroke-width: 2.13146px;" transform="matrix(-0.001597, -0.999999, 0.999996, -0.003565, 28.209553, 219.226349)"/>
    <rect x="119.962" y="124.238" width="19.63" height="25.848" style="stroke: rgb(0, 0, 0); fill: rgb(0, 50, 255); stroke-width: 2.13146px;" transform="matrix(-0.001597, -0.999999, 0.999996, -0.003565, 27.674393, 219.492859)"/>
    <path d="M 87.085 130.633 L 101.811 136.949 L 96.186 147.167 L 77.984 147.167 L 72.359 136.949 Z" bx:shape="n-gon 87.085 139.773 15.484 9.14 5 0 1@efafd5d1" style="stroke: rgb(0, 0, 0); fill: url(&quot;#gradient-11&quot;); stroke-width: 2.13146px;" transform="matrix(-0.001597000047, -0.999998724795, 0.999995581889, -0.003565003563, 26.692048682688, 176.630023654043)"/>
    <path d="M 86.579 134.965 L 101.653 142.165 L 95.895 153.815 L 77.263 153.815 L 71.505 142.165 Z" bx:shape="n-gon 86.579 145.385 15.85 10.42 5 0 1@4cd93789" style="stroke: rgb(0, 0, 0); fill: url(&quot;#gradient-13&quot;); stroke-width: 2.13146px;" transform="matrix(-0.001597000862, -0.999998724793, 0.999995581885, -0.003565005193, 25.402558309378, 176.01350743414)"/>
    <path d="M 86.427 141.299 L 100.895 147.172 L 95.369 156.674 L 77.485 156.674 L 71.959 147.172 Z" bx:shape="n-gon 86.427 149.798 15.213 8.499 5 0 1@52e06b4f" style="fill: rgb(255, 149, 0); stroke: rgb(0, 0, 0); stroke-width: 2.13146px;" transform="matrix(-0.00159700028, -0.999998724794, 0.999995581887, -0.003565004727, 24.10588117976, 176.077426470697)"/>
    <ellipse style="fill: rgb(0, 255, 255); stroke: url(&quot;#gradient-12&quot;); stroke-width: 2.13146px;" cx="86.593" cy="150.219" rx="8.69" ry="6.653" transform="matrix(-0.001597, -0.999999, 0.999996, -0.003565, 25.542422, 176.363579)"/>
    <ellipse style="fill: rgba(255, 255, 255, 0.337); stroke-width: 2.13146px;" cx="86.593" cy="150.219" rx="6.273" ry="4.448" transform="matrix(-0.001597, -0.999999, 0.999996, -0.003565, 27.330264, 176.251)"/>
    <ellipse style="fill: rgba(255, 255, 255, 0.74); stroke-width: 2.13146px;" cx="86.593" cy="150.219" rx="3.629" ry="2.683" transform="matrix(-0.001597, -0.999999, 0.999996, -0.003565, 28.717383, 174.814003)"/>
  </g>
  <rect x="41.727" y="147.675" width="17.207" height="27.796" style="fill: url(&quot;#gradient-26&quot;); stroke: rgb(10, 44, 20);"/>
  <rect x="27.227" y="145.087" width="21.841" height="33.949" style="fill: url(&quot;#gradient-27&quot;); stroke: rgb(10, 44, 20);"/>
  <path d="M 60.417 93.312 L 60.417 171.494 L 52.282 171.772 L 49.308 153.51 L 46.37 171.494 L 39.078 171.355 L 39.078 171.419 L 26.937 171.419 L 26.937 93.18 L 47.657 93.18 L 47.657 93.312 L 60.417 93.312 Z" style="fill: rgb(27, 66, 228); stroke-width: 1.5px; stroke: rgb(14, 29, 91);"/>
  <ellipse style="fill: rgb(21, 41, 124); transform-origin: 31.431px 66.892px;" cx="31.431" cy="66.892" rx="4.248" ry="6.831" transform="matrix(0.992275, -0.124056, 0.131745, 0.991314, 15.896646, 32.522338)"/>
  <ellipse style="fill: rgb(21, 41, 124);" cx="43.037" cy="94.892" rx="17.022" ry="9.841"/>
  <path d="M 27.295 119.687 L 27.325 119.688 L 26.855 132.521 L 22.648 132.359 C 19.672 131.23 17.356 128.822 16.329 125.834 L 16.573 119.276 L 16.613 119.277 L 17.401 98.159 L 17.251 98.153 L 17.754 84.557 L 24.405 94.526 C 24.999 92.139 26.039 90.557 27.223 90.557 C 29.069 90.557 30.565 94.405 30.565 99.15 C 30.566 103.441 29.342 106.998 27.743 107.64 L 27.295 119.687 Z" style="fill: url(&quot;#gradient-28&quot;); stroke-width: 2px; stroke: rgb(10, 44, 20);"/>
  <path d="M 73.45 67.345 C 72.602 82.483 67.647 87.132 65.509 89.423 C 65.26 89.713 64.85 92.021 64.85 92.021 C 64.366 97.237 63.925 99.238 63.183 99.435 L 59.919 100.069 L 61.892 95.317 L 61.159 92.396 C 55.222 95.549 56.172 95.164 54.51 95.801 L 52.986 97.522 L 54.356 102.527 C 53.584 102.565 51.463 101.722 50.711 100.678 L 49.48 97.221 C 47.114 97.88 45.628 97.44 43.065 97.44 C 27.172 97.44 15.877 84.063 15.877 67.345 C 15.877 50.627 28.771 37.075 44.664 37.075 C 60.566 37.075 73.45 50.627 73.45 67.345 Z" style="fill: rgb(38, 123, 67); stroke-width: 2px; stroke: rgb(10, 44, 20);" transform="matrix(0.977628052235, 0.210343003273, -0.210343003273, 0.977628052235, 15.467594908768, -7.855716084902)"/>
  <ellipse style="fill: rgb(56, 154, 89);" cx="46.147" cy="66.61" rx="26.776" ry="25.876"/>
  <ellipse style="" cx="62.453" cy="63.789" rx="7.557" ry="12.546"/>
  <ellipse style="" cx="39.692" cy="65.488" rx="9.419" ry="12.546"/>
  <g style="transform-origin: 22.829px 19.796px;" transform="matrix(-0.591846, -0.016235, -0.023075, 0.841155, 50.416531, -4.873168)">
    <path d="M 17.011 9.81 L 32.45 31.078 C 33.554 30.884 34.717 30.886 35.855 31.119 C 39.618 31.893 41.671 34.925 40.439 37.891 C 39.206 40.856 35.157 42.634 31.393 41.86 C 27.63 41.086 25.577 38.054 26.81 35.088 C 26.983 34.669 27.214 34.275 27.49 33.907 L 21.401 25.517 C 17.681 19.375 15.402 14.07 15.227 11.131 L 17.011 9.81 Z" style="stroke: rgb(0, 0, 0); stroke-linejoin: round; stroke-linecap: round; stroke-width: 1.1492px; fill: url(&quot;#gradient-3&quot;);"/>
    <g transform="matrix(1.453482, -0.1505, -0.132041, 1.525681, 5.758062, -0.95463)" style="transform-origin: 11.862px 17.639px;">
      <path d="M 13.052 20.964 L 13.052 26.317 L 10.434 26.317 L 10.434 23.583 C 10.71 22.354 11.297 21.388 12.028 20.964 L 13.052 20.964 Z" style="stroke: rgb(0, 0, 0); stroke-linejoin: round; stroke-linecap: round; transform-box: fill-box; transform-origin: 50% 50%; fill: rgb(55, 142, 74); stroke-width: 0.775543px;" transform="matrix(-0.570538, -0.821271, 0.821271, -0.570538, -0.000001, -0.000002)"/>
      <path d="M 8.896 12.98 L 8.896 18.333 L 6.278 18.333 L 6.278 15.599 C 6.554 14.37 7.141 13.404 7.872 12.98 L 8.896 12.98 Z" style="stroke: rgb(0, 0, 0); stroke-linejoin: round; stroke-linecap: round; transform-origin: 7.587px 15.657px; fill: rgb(55, 142, 74); stroke-width: 0.773445px;" transform="matrix(-0.142092, -0.989853, 0.989853, -0.142092, -0.000002, 0)"/>
      <path d="M 10.662 17.127 L 10.662 22.48 L 8.044 22.48 L 8.044 19.746 C 8.32 18.517 8.907 17.551 9.638 17.127 L 10.662 17.127 Z" style="stroke: rgb(0, 0, 0); stroke-linejoin: round; stroke-linecap: round; transform-origin: 9.353px 19.804px; fill: rgb(55, 142, 74); stroke-width: 0.775141px;" transform="matrix(-0.465849, -0.884864, 0.884864, -0.465849, 0.000001, 0)"/>
      <path d="M 17.44 17.691 L 17.44 12.338 L 14.822 12.338 L 14.822 15.072 C 15.098 16.301 15.685 17.267 16.416 17.691 L 17.44 17.691 Z" style="stroke: rgb(0, 0, 0); stroke-linejoin: round; stroke-linecap: round; transform-origin: 16.131px 15.014px; fill: rgb(55, 142, 74); stroke-width: 0.775627px;" transform="matrix(-0.689551, -0.724237, 0.724237, -0.689551, 0.000001, 0)"/>
      <path d="M 14.93 14.622 L 14.93 9.269 L 12.312 9.269 L 12.312 12.003 C 12.588 13.232 13.175 14.198 13.906 14.622 L 14.93 14.622 Z" style="stroke: rgb(0, 0, 0); stroke-linejoin: round; stroke-linecap: round; transform-origin: 13.621px 11.945px; fill: rgb(55, 142, 74); stroke-width: 0.775257px;" transform="matrix(-0.782727, -0.622365, 0.622365, -0.782727, -0.000002, -0.000002)"/>
    </g>
    <path d="M 29.674 12.148 L 22.711 18.182 L 25.212 20.909 L 28.769 17.827 C 30.104 16.154 30.8 14.454 30.653 13.214 L 29.674 12.148 Z" style="stroke: rgb(0, 0, 0); stroke-linejoin: round; stroke-linecap: round; fill: rgb(36, 115, 56); stroke-width: 1.14939px; transform-origin: 24.736px 16.173px;"/>
  </g>
  <path d="M 17.697 13.202 C 20.567 8.19 26.647 4.25 34.257 2.52 L 44.017 2.52 L 44.017 2.502 L 54.647 2.502 C 62.257 4.233 68.337 8.173 71.207 13.185 L 71.207 16.079 L 71.257 16.079 L 71.257 45.874 L 17.637 45.874 L 17.637 16.079 L 17.697 16.079 L 17.697 13.202 Z" style="stroke-linejoin: round; stroke-linecap: round; stroke-width: 2px; stroke: url(&quot;#gradient-0&quot;); fill: url(&quot;#gradient-1&quot;);"/>
  <path d="M 69.88 15.837 L 69.88 18.568 L 69.927 18.568 L 69.927 46.675 L 60.532 46.675 L 60.532 7.03 C 64.781 8.972 68.109 12.086 69.88 15.837 Z" style="stroke-linejoin: round; stroke-linecap: round; fill: rgb(21, 41, 124);"/>
  <path d="M 5.507 48.011 C 6.647 45.793 9.247 44.02 12.557 43.183 L 19.927 43.183 L 19.927 43.312 L 74.047 43.312 L 74.047 43.326 L 75.947 43.326 C 79.257 44.162 81.867 45.935 83.007 48.153 L 83.007 53.404 C 81.867 55.622 79.257 57.395 75.947 58.231 L 74.047 58.231 L 74.047 58.33 L 19.927 58.33 L 19.927 58.374 L 12.557 58.372 C 9.247 57.536 6.647 55.763 5.507 53.545 L 5.507 50.445 L 5.507 48.011 Z" style="stroke-linejoin: round; stroke-linecap: round; stroke-width: 2px; stroke: rgb(9, 8, 28); fill: url(&quot;#gradient-2&quot;);"/>
  <path d="M 15.357 39.602 L 26.697 39.809 L 26.697 39.897 L 59.897 39.897 L 59.897 39.797 L 71.237 39.589 L 71.267 42.049 C 70.377 43.828 68.347 45.273 65.747 45.986 L 59.957 46.091 L 59.957 45.827 L 26.647 45.827 L 26.647 45.833 L 26.337 45.827 L 23.317 45.827 L 23.317 45.773 L 20.847 45.725 C 18.247 45.043 16.217 43.658 15.337 41.955 L 15.357 39.602 Z" style="stroke: rgb(0, 0, 0); stroke-linejoin: round; stroke-linecap: round; fill: rgb(255, 156, 0);"/>
  <g style="transform-origin: 22.8288px 19.7957px;" transform="matrix(0.591846, -0.016235, 0.023075, 0.841155, -10.721856, -4.873168)">
    <path d="M 11.143 10.54 L 34.442 27.907 C 35.424 27.503 36.541 27.275 37.726 27.274 C 41.647 27.274 44.826 29.779 44.826 32.869 C 44.825 35.959 41.647 38.464 37.726 38.464 C 33.805 38.464 30.626 35.959 30.627 32.869 C 30.626 32.433 30.69 32.009 30.809 31.601 L 21.619 24.75 C 15.6 19.589 11.297 14.947 9.957 12.16 L 11.143 10.54 Z" style="stroke: rgb(0, 0, 0); stroke-linejoin: round; stroke-linecap: round; fill: url(&quot;#gradient-29&quot;); stroke-width: 1.1492px;"/>
    <g transform="matrix(1.335116, -0.431347, 0.481542, 1.490481, 2.60658, -0.620358)" style="transform-origin: 11.862px 17.639px;">
      <path d="M 13.052 20.964 L 13.052 26.317 L 10.434 26.317 L 10.434 23.583 C 10.71 22.354 11.297 21.388 12.028 20.964 L 13.052 20.964 Z" style="stroke: rgb(0, 0, 0); stroke-linejoin: round; stroke-linecap: round; transform-box: fill-box; transform-origin: 50% 50%; fill: rgb(55, 142, 74); stroke-width: 0.775543px;" transform="matrix(-0.570538, -0.821271, 0.821271, -0.570538, -0.000001, -0.000002)"/>
      <path d="M 8.896 12.98 L 8.896 18.333 L 6.278 18.333 L 6.278 15.599 C 6.554 14.37 7.141 13.404 7.872 12.98 L 8.896 12.98 Z" style="stroke: rgb(0, 0, 0); stroke-linejoin: round; stroke-linecap: round; transform-origin: 7.587px 15.657px; fill: rgb(55, 142, 74); stroke-width: 0.773445px;" transform="matrix(-0.142092, -0.989853, 0.989853, -0.142092, -0.000002, 0)"/>
      <path d="M 10.662 17.127 L 10.662 22.48 L 8.044 22.48 L 8.044 19.746 C 8.32 18.517 8.907 17.551 9.638 17.127 L 10.662 17.127 Z" style="stroke: rgb(0, 0, 0); stroke-linejoin: round; stroke-linecap: round; transform-origin: 9.353px 19.804px; fill: rgb(55, 142, 74); stroke-width: 0.775141px;" transform="matrix(-0.465849, -0.884864, 0.884864, -0.465849, 0.000001, 0)"/>
      <path d="M 17.44 17.691 L 17.44 12.338 L 14.822 12.338 L 14.822 15.072 C 15.098 16.301 15.685 17.267 16.416 17.691 L 17.44 17.691 Z" style="stroke: rgb(0, 0, 0); stroke-linejoin: round; stroke-linecap: round; transform-origin: 16.131px 15.014px; fill: rgb(55, 142, 74); stroke-width: 0.775627px;" transform="matrix(-0.689551, -0.724237, 0.724237, -0.689551, 0.000001, 0)"/>
      <path d="M 14.93 14.622 L 14.93 9.269 L 12.312 9.269 L 12.312 12.003 C 12.588 13.232 13.175 14.198 13.906 14.622 L 14.93 14.622 Z" style="stroke: rgb(0, 0, 0); stroke-linejoin: round; stroke-linecap: round; transform-origin: 13.621px 11.945px; fill: rgb(55, 142, 74); stroke-width: 0.775257px;" transform="matrix(-0.782727, -0.622365, 0.622365, -0.782727, -0.000002, -0.000002)"/>
    </g>
    <path d="M 25.423 10.751 L 19.403 16.532 L 22.206 19.502 L 25.281 16.549 C 26.368 14.909 26.826 13.2 26.52 11.912 L 25.423 10.751 Z" style="stroke: rgb(0, 0, 0); stroke-linejoin: round; stroke-linecap: round; transform-origin: 23.094px 14.952px; fill: rgb(36, 115, 56); stroke-width: 1.14939px;" transform="matrix(0.964438, -0.264309, 0.264309, 0.964438, 0, 0.000001)"/>
  </g>
  <ellipse style="stroke: rgb(0, 0, 0); fill: rgb(255, 156, 0);" cx="45.63" cy="43.87" rx="8.572" ry="11.655"/>
  <g transform="matrix(0.856865, 0, 0, 1.042168, 71.798767, -21.020134)" style="">
    <ellipse style="stroke: rgb(0, 0, 0); fill: rgb(149, 149, 149);" cx="-30.569" cy="62.295" rx="7.479" ry="8.294"/>
    <ellipse style="fill: rgb(96, 96, 96);" cx="-28.592" cy="62.146" rx="4.78" ry="6.392"/>
  </g>
  <path style="stroke: rgb(0, 0, 0); stroke-miterlimit: 4.63; stroke-width: 7.48475px; fill: rgb(255, 156, 0);" transform="matrix(0.061564, 0, 0, 0.108123, 26.102251, -7.617578)" d="M 464.356 181 L 485.644 181 L 490.136 213.513 A 56.55 56.55 0 0 1 502.825 218.769 L 528.992 198.955 L 544.045 214.008 L 524.231 240.175 A 56.55 56.55 0 0 1 529.487 252.864 L 562 257.356 L 562 278.644 L 529.487 283.136 A 56.55 56.55 0 0 1 524.231 295.825 L 544.045 321.992 L 528.992 337.045 L 502.825 317.231 A 56.55 56.55 0 0 1 490.136 322.487 L 485.644 355 L 464.356 355 L 459.864 322.487 A 56.55 56.55 0 0 1 447.175 317.231 L 421.008 337.045 L 405.955 321.992 L 425.769 295.825 A 56.55 56.55 0 0 1 420.513 283.136 L 388 278.644 L 388 257.356 L 420.513 252.864 A 56.55 56.55 0 0 1 425.769 240.175 L 405.955 214.008 L 421.008 198.955 L 447.175 218.769 A 56.55 56.55 0 0 1 459.864 213.513 Z M 475 241.9 A 26.1 26.1 0 0 0 475 294.1 A 26.1 26.1 0 0 0 475 241.9" bx:shape="cog 475 268 26.1 56.55 87 0.38 8 1@36eb139e"/>
  <ellipse style="stroke: rgb(0, 0, 0); fill: rgb(255, 156, 0);" cx="64.289" cy="42.473" rx="8.572" ry="11.655"/>
  <g transform="matrix(0.856865, 0, 0, 1.042168, 91.457886, -22.417137)" style="">
    <ellipse style="stroke: rgb(0, 0, 0); fill: rgb(149, 149, 149);" cx="-30.569" cy="62.295" rx="7.479" ry="8.294"/>
    <ellipse style="fill: rgb(96, 96, 96);" cx="-28.592" cy="62.146" rx="4.78" ry="6.392"/>
  </g>
  <rect x="27.76" y="139.086" width="32.233" height="5.42" style="fill: rgb(21, 41, 124);"/>
  <rect x="26.736" y="135.669" width="33.409" height="6.283" style="fill: rgb(255, 156, 0); stroke: rgb(58, 36, 3);"/>
  <path d="M 48.917 -146.497 L 54.523 -141.669 L 52.382 -133.857 L 45.452 -133.857 L 43.311 -141.669 Z" bx:shape="n-gon 48.917 -139.51 5.895 6.987 5 0 1@68912b02" style="fill: rgb(119, 77, 10); stroke: rgb(58, 36, 3);" transform="matrix(1, 0, 0, -1, 0, 0)"/>
  <path d="M 49.493 -143.596 L 51.496 -140.116 L 50.731 -134.486 L 48.255 -134.486 L 47.49 -140.116 Z" bx:shape="n-gon 49.493 -138.56 2.106 5.036 5 0 1@6ddd718b" style="fill: rgb(0, 234, 255); stroke: rgb(10, 69, 67);" transform="matrix(1, 0, 0, -1, 0, 0)"/>
</svg>