<?xml version="1.0" encoding="utf-8"?>
<svg xmlns="http://www.w3.org/2000/svg" viewBox="0 0 110 180" width="110px" height="180px" xmlns:bx="https://boxy-svg.com">
  <defs>
    <linearGradient gradientUnits="userSpaceOnUse" x1="61.751" y1="4.64" x2="61.751" y2="26.708" id="gradient-6" gradientTransform="matrix(-1.180857, -1.017182, 1.008421, -1.191115, 144.38118, 107.043457)">
      <stop offset="0" style="stop-color: rgb(26.667% 64.706% 38.431%)"/>
      <stop offset="1" style="stop-color: rgb(0% 39.662% 15.739%)"/>
    </linearGradient>
    <linearGradient gradientUnits="userSpaceOnUse" x1="16.555" y1="5.154" x2="16.555" y2="27.222" id="gradient-5" gradientTransform="matrix(1.180857, -1.017182, 1.008421, 1.191115, -14.36536, 24.415255)">
      <stop offset="0" style="stop-color: rgb(26.667% 64.706% 38.431%)"/>
      <stop offset="1" style="stop-color: rgb(0% 39.662% 15.739%)"/>
    </linearGradient>
    <linearGradient gradientUnits="userSpaceOnUse" x1="43.08" y1="89.367" x2="43.08" y2="109.039" id="gradient-0" gradientTransform="matrix(1.290617, -0.000001, 0.000001, 1.412954, 12.396262, 21.398615)">
      <stop offset="0" style="stop-color: rgb(8.6275% 32.549% 16.078%)"/>
      <stop offset="1" style="stop-color: rgb(0% 21.246% 5.8187%)"/>
    </linearGradient>
    <linearGradient gradientUnits="userSpaceOnUse" x1="33.017" y1="87.365" x2="33.017" y2="109.039" id="gradient-3" gradientTransform="matrix(1.880084, 0.000001, -0.000001, 1.566338, -10.662833, 7.691235)">
      <stop offset="0" style="stop-color: rgb(26.667% 64.706% 38.431%)"/>
      <stop offset="1" style="stop-color: rgb(0% 39.662% 15.739%)"/>
    </linearGradient>
    <filter id="gaussian-blur-filter-0" color-interpolation-filters="sRGB" x="-50%" y="-50%" width="200%" height="200%">
      <title>Desfoque gaussiano</title>
      <feGaussianBlur stdDeviation="0.7 0.7" edgeMode="none"/>
    </filter>
    <radialGradient gradientUnits="userSpaceOnUse" cx="54.995" cy="25.183" r="26.807" id="gradient-1" gradientTransform="matrix(1, 0, 0, 1, -0.638671, -0.155265)">
      <stop offset="0" style="stop-color: rgb(10.588% 25.882% 89.412%)"/>
      <stop offset="1" style="stop-color: rgb(0% 24.045% 48.428%)"/>
    </radialGradient>
    <radialGradient gradientUnits="userSpaceOnUse" cx="54.79" cy="51.774" r="42.935" id="gradient-2" gradientTransform="matrix(1, 0, 0, 1, -0.638671, -0.155265)">
      <stop offset="0" style="stop-color: rgb(10.588% 25.882% 89.412%)"/>
      <stop offset="1" style="stop-color: rgb(0% 24.045% 48.428%)"/>
    </radialGradient>
    <linearGradient gradientUnits="userSpaceOnUse" x1="143.447" y1="91.624" x2="143.447" y2="99.572" id="gradient-14">
      <stop offset="0" style="stop-color: rgb(0% 14.51% 73.725%)"/>
      <stop offset="1" style="stop-color: rgb(0% 18.802% 38.225%)"/>
    </linearGradient>
    <radialGradient gradientUnits="userSpaceOnUse" cx="87.085" cy="138.9" r="14.726" id="gradient-11" gradientTransform="matrix(1, 0, 0, 1, 0.000015, 0.000015)">
      <stop offset="0" style="stop-color: rgb(100% 58.431% 0%)"/>
      <stop offset="1" style="stop-color: rgb(64.317% 29.827% 0%)"/>
    </radialGradient>
    <radialGradient gradientUnits="userSpaceOnUse" cx="86.579" cy="144.39" r="12.997" id="gradient-13" gradientTransform="matrix(1.159847, 0, 0, 1, -13.839353, 0.000067)">
      <stop offset="0" style="stop-color: rgb(100% 58.431% 0%)"/>
      <stop offset="1" style="stop-color: rgb(64.317% 29.827% 0%)"/>
    </radialGradient>
    <radialGradient gradientUnits="userSpaceOnUse" cx="86.593" cy="150.219" r="7.676" id="gradient-12" gradientTransform="matrix(1.132039, 0, 0, 1.266574, -11.433768, -40.04508)">
      <stop offset="0" style="stop-color: rgb(48.235% 48.235% 48.235%)"/>
      <stop offset="1" style="stop-color: rgb(28.577% 28.577% 28.577%)"/>
    </radialGradient>
    <linearGradient gradientUnits="userSpaceOnUse" x1="135.744" y1="112.372" x2="135.744" y2="118.655" id="gradient-4" gradientTransform="matrix(1, 0, 0, 1, 0, 0)">
      <stop offset="0" style="stop-color: rgb(100% 61.176% 0%)"/>
      <stop offset="1" style="stop-color: rgb(63.733% 31.968% 0%)"/>
    </linearGradient>
  </defs>
  <path d="M 96.45 10.744 L 74.196 37.03 L 78.085 40.38 L 89.452 26.953 C 94.151 20.566 97.295 15.072 97.971 12.055 L 96.45 10.744 Z" style="stroke: rgb(0, 0, 0); stroke-linejoin: round; stroke-linecap: round; fill: url(&quot;#gradient-6&quot;); transform-origin: 59.146px 11.994px;"/>
  <path d="M 98.238 28.386 L 91.411 23.602 L 89.092 26.97 L 92.578 29.413 C 94.39 30.156 96.142 30.264 97.33 29.703 L 98.238 28.386 Z" style="stroke: rgb(0, 0, 0); stroke-linejoin: round; stroke-linecap: round; stroke-width: 0.641198px; transform-origin: 10.812px 22.319px; fill: rgb(0, 254, 246);"/>
  <path d="M 105.126 15.079 L 96.898 13.888 L 96.32 17.947 L 100.523 18.555 C 102.473 18.401 104.087 17.706 104.9 16.667 L 105.126 15.079 Z" style="stroke: rgb(0, 0, 0); stroke-linejoin: round; stroke-linecap: round; stroke-width: 0.641194px; fill: rgb(49, 102, 50); transform-origin: 100.983px 16.157px;" transform="matrix(0.990302, 0.138934, -0.138934, 0.990302, 0, -0.000001)"/>
  <path d="M 102.293 21.975 L 94.938 18.069 L 93.044 21.697 L 96.801 23.692 C 98.689 24.206 100.441 24.098 101.552 23.394 L 102.293 21.975 Z" style="stroke: rgb(0, 0, 0); stroke-linejoin: round; stroke-linecap: round; stroke-width: 0.641197px; fill: rgb(49, 102, 50); transform-origin: 8.714px 18.649px;"/>
  <path d="M 85.534 10.957 L 91.554 16.738 L 88.751 19.708 L 85.676 16.755 C 84.589 15.115 84.131 13.405 84.437 12.118 L 85.534 10.957 Z" style="stroke: rgb(0, 0, 0); stroke-linejoin: round; stroke-linecap: round; stroke-width: 0.641199px; fill: rgb(49, 102, 50); transform-origin: 15.492px 14.859px;"/>
  <path d="M 90.044 5.968 L 95.218 12.53 L 92.036 15.083 L 89.393 11.731 C 88.541 9.955 88.321 8.198 88.8 6.966 L 90.044 5.968 Z" style="stroke: rgb(0, 0, 0); stroke-linejoin: round; stroke-linecap: round; stroke-width: 0.641199px; fill: rgb(49, 102, 50); transform-origin: 12.982px 11.79px;"/>
  <path d="M 81.679 15.694 L 87.699 21.475 L 84.895 24.445 L 81.821 21.492 C 80.734 19.852 80.276 18.142 80.582 16.855 L 81.679 15.694 Z" style="stroke: rgb(0, 0, 0); stroke-linejoin: round; stroke-linecap: round; transform-origin: 83.55px 20.163px; fill: rgb(5, 237, 221);" transform="matrix(0.998276, -0.058696, 0.058696, 0.998276, 0, 0)"/>
  <path d="M 74.3 101.304 L 80.854 91.939 L 80.828 104.949 L 80.689 104.949 L 80.649 125.158 L 80.682 125.158 L 80.67 131.433 C 79.616 134.25 77.386 136.462 74.605 137.428 L 70.723 137.42 L 70.747 125.138 L 70.783 125.138 L 70.814 109.187 C 70.057 108.178 69.534 106.034 69.534 103.552 C 69.534 100.1 70.545 97.302 71.792 97.302 C 72.753 97.302 73.573 98.962 73.899 101.303 L 74.3 101.304 Z" style="stroke-width: 2px; stroke: rgb(10, 44, 20); fill: rgb(38, 123, 67); transform-origin: 75.194px 114.683px;" transform="matrix(0.999795, 0.020247, -0.020247, 0.999795, 0, 0)"/>
  <path d="M 12.325 12.041 L 34.579 38.326 L 30.69 41.676 L 19.323 28.249 C 14.624 21.862 11.48 16.369 10.804 13.351 L 12.325 12.041 Z" style="stroke: rgb(0, 0, 0); stroke-linejoin: round; stroke-linecap: round; fill: url(&quot;#gradient-5&quot;); transform-origin: 18.374px 12.999px;"/>
  <g transform="matrix(1.398026, -0.118815, 0.132642, 1.560712, 2.240948, 1.463342)" style="transform-origin: 11.862px 17.639px;">
    <path d="M 13.052 20.964 L 13.052 26.317 L 10.434 26.317 L 10.434 23.583 C 10.71 22.354 11.297 21.388 12.028 20.964 L 13.052 20.964 Z" style="stroke-linejoin: round; stroke-linecap: round; transform-box: fill-box; transform-origin: 50% 50%; stroke-width: 0.641198px; stroke: rgb(0, 0, 0); fill: rgb(49, 102, 50);" transform="matrix(-0.570538, -0.821271, 0.821271, -0.570538, -0.000001, -0.000002)"/>
    <path d="M 8.896 12.98 L 8.896 18.333 L 6.278 18.333 L 6.278 15.599 C 6.554 14.37 7.141 13.404 7.872 12.98 L 8.896 12.98 Z" style="stroke-linejoin: round; stroke-linecap: round; transform-origin: 7.587px 15.657px; stroke-width: 0.641194px; stroke: rgb(0, 0, 0); fill: rgb(49, 102, 50);" transform="matrix(-0.142092, -0.989853, 0.989853, -0.142092, -0.000002, 0)"/>
    <path d="M 10.662 17.127 L 10.662 22.48 L 8.044 22.48 L 8.044 19.746 C 8.32 18.517 8.907 17.551 9.638 17.127 L 10.662 17.127 Z" style="stroke-linejoin: round; stroke-linecap: round; transform-origin: 9.353px 19.804px; stroke-width: 0.641197px; stroke: rgb(0, 0, 0); fill: rgb(49, 102, 50);" transform="matrix(-0.465849, -0.884864, 0.884864, -0.465849, 0.000001, 0)"/>
    <path d="M 17.44 17.691 L 17.44 12.338 L 14.822 12.338 L 14.822 15.072 C 15.098 16.301 15.685 17.267 16.416 17.691 L 17.44 17.691 Z" style="stroke-linejoin: round; stroke-linecap: round; transform-origin: 16.131px 15.014px; stroke-width: 0.641199px; stroke: rgb(0, 0, 0); fill: rgb(49, 102, 50);" transform="matrix(-0.689551, -0.724237, 0.724237, -0.689551, 0.000001, 0)"/>
    <path d="M 14.93 14.622 L 14.93 9.269 L 12.312 9.269 L 12.312 12.003 C 12.588 13.232 13.175 14.198 13.906 14.622 L 14.93 14.622 Z" style="stroke-linejoin: round; stroke-linecap: round; transform-origin: 13.621px 11.945px; stroke-width: 0.641199px; stroke: rgb(0, 0, 0); fill: rgb(49, 102, 50);" transform="matrix(-0.782727, -0.622365, 0.622365, -0.782727, -0.000002, -0.000002)"/>
  </g>
  <path d="M 25.301 14.836 L 19.281 20.617 L 22.084 23.587 L 25.159 20.634 C 26.246 18.994 26.704 17.285 26.398 15.997 L 25.301 14.836 Z" style="stroke: rgb(0, 0, 0); stroke-linejoin: round; stroke-linecap: round; transform-origin: 22.972px 19.037px; fill: rgb(14, 195, 160);" transform="matrix(0.999209, -0.039768, 0.039768, 0.999209, 0, 0)"/>
  <rect x="60.845" y="147.67" width="14.301" height="27.796" style="fill: url(&quot;#gradient-0&quot;); stroke-width: 2px; stroke: rgb(12, 46, 22); transform-origin: 67.996px 161.568px;" transform="matrix(0.999984, 0.00562, -0.00562, 0.999984, -5.483254, -0.141181)"/>
  <rect x="40.996" y="144.534" width="20.833" height="33.949" style="fill: url(&quot;#gradient-3&quot;); stroke-width: 2px; stroke: rgb(10, 44, 20); transform-origin: 51.413px 161.509px;" transform="matrix(0.999945, -0.010482, 0.010482, 0.999945, -5.258923, -3.16746)"/>
  <path d="M 36.016 127.522 L 36.054 127.522 L 35.972 139.955 L 31.698 139.926 C 28.646 138.923 26.212 136.662 25.077 133.801 L 25.12 127.448 L 25.155 127.448 L 25.291 106.986 L 25.136 106.985 L 25.224 93.812 L 32.356 103.357 L 34.465 103.371 C 34.701 100.293 35.396 98.062 36.217 98.062 C 37.232 98.062 38.055 101.471 38.055 105.677 C 38.055 109.883 37.232 113.292 36.217 113.292 C 36.181 113.292 36.146 113.288 36.11 113.279 L 36.016 127.522 Z" style="stroke-width: 2px; stroke: rgb(10, 44, 20); fill: rgb(38, 123, 67); transform-box: fill-box; transform-origin: 50% 50%;" transform="matrix(0.992422, -0.122873, 0.122873, 0.992422, 0, 0)"/>
  <path d="M 35.016 90.867 L 70.751 90.867 L 70.751 169.049 L 58.733 169.049 L 53.469 151.065 L 47.034 169.049 L 35.016 169.049 L 35.016 90.867 Z" style="fill: rgb(27, 66, 228); stroke-width: 1.5px; stroke: rgb(14, 29, 91);"/>
  <ellipse style="fill: rgb(21, 41, 124); transform-origin: 31.431px 66.892px;" cx="31.431" cy="66.892" rx="5.787" ry="8.414" transform="matrix(0.847741, 0.530411, -0.523842, 0.851851, 31.506283, 41.512069)"/>
  <ellipse style="fill: rgb(21, 41, 124);" cx="52.949" cy="102.732" rx="17.022" ry="9.841"/>
  <ellipse style="fill: rgb(21, 41, 124); transform-origin: 31.431px 66.892px;" cx="31.431" cy="66.892" rx="5.779" ry="8.426" transform="matrix(0.941432, -0.337203, 0.332067, 0.943272, 11.349482, 42.692176)"/>
  <path d="M 84.412 70.2 C 84.412 83.238 77.277 94.505 66.931 99.818 C 67.066 100.117 67.181 100.432 67.275 100.759 L 67.275 104.554 L 66.93 104.554 L 67.264 104.68 L 65.851 108.221 C 64.756 109.643 63.285 110.533 61.849 110.632 L 60.148 110 L 62.617 103.82 L 62.617 101.622 C 59.737 102.565 56.68 103.073 53.51 103.073 C 50.083 103.073 46.787 102.479 43.706 101.384 L 43.706 104.163 L 46.175 110.343 L 44.474 110.975 C 43.039 110.876 41.567 109.986 40.473 108.564 L 39.059 105.023 L 39.393 104.897 L 39.048 104.897 L 39.048 101.102 C 39.204 100.562 39.417 100.056 39.674 99.602 C 29.554 94.201 22.609 83.064 22.609 70.2 C 22.609 52.044 36.444 37.327 53.51 37.327 C 70.578 37.327 84.412 52.044 84.412 70.2 Z" style="stroke-width: 2px; fill: rgb(38, 123, 67); stroke: rgb(10, 44, 20);"/>
  <ellipse style="fill: rgb(0, 255, 248); filter: url(&quot;#gaussian-blur-filter-0&quot;); transform-origin: 25.843px 33.348px;" cx="25.843" cy="33.348" rx="1.982" ry="5.509" transform="matrix(0.712682, -0.701487, 0.701487, 0.712682, -3.519459, -6.376398)"/>
  <ellipse style="fill: rgb(0, 255, 248); filter: url(&quot;#gaussian-blur-filter-0&quot;); transform-origin: 25.843px 33.348px;" cx="25.843" cy="33.348" rx="1.982" ry="4.791" transform="matrix(-0.712682, -0.701487, -0.701487, 0.712682, 61.620967, -8.37349)"/>
  <path d="M 27.605 14.042 C 30.474 9.03 36.558 5.09 44.169 3.36 L 53.924 3.36 L 53.924 3.342 L 64.553 3.342 C 72.161 5.073 78.246 9.013 81.117 14.025 L 81.117 16.919 L 81.162 16.919 L 81.162 46.714 L 27.549 46.714 L 27.549 16.919 L 27.605 16.919 L 27.605 14.042 Z" style="stroke: rgb(0, 0, 0); stroke-linejoin: round; stroke-linecap: round; fill: url(&quot;#gradient-1&quot;);"/>
  <ellipse style="fill: rgb(56, 154, 89);" cx="59.578" cy="68.991" rx="24.277" ry="27.939"/>
  <ellipse style="" cx="66.789" cy="65.438" rx="10.646" ry="12.546"/>
  <ellipse style="" cx="40.495" cy="66.532" rx="10.646" ry="12.546"/>
  <path d="M 11.218 48.851 C 12.483 46.633 15.367 44.86 19.035 44.023 L 27.199 44.023 L 27.199 44.152 L 87.163 44.152 L 87.163 44.166 L 89.268 44.166 C 92.936 45.002 95.82 46.775 97.085 48.993 L 97.085 54.244 C 95.82 56.462 92.936 58.235 89.268 59.071 L 87.163 59.071 L 87.163 59.17 L 27.198 59.17 L 27.198 59.214 L 19.035 59.212 C 15.365 58.376 12.482 56.603 11.216 54.385 L 11.218 51.285 L 11.218 48.851 Z" style="stroke: rgb(0, 0, 0); stroke-linejoin: round; stroke-linecap: round; fill: url(&quot;#gradient-2&quot;);"/>
  <ellipse style="fill: rgb(44, 83, 244);" cx="42.964" cy="49.018" rx="13.058" ry="9.415"/>
  <ellipse style="fill: rgb(44, 83, 244);" cx="67.806" cy="49.042" rx="14.932" ry="9.108"/>
  <path d="M 79.277 16.789 L 79.277 19.51 L 79.308 19.51 L 79.308 47.515 L 70.957 47.515 L 70.957 8.013 C 74.738 9.948 77.706 13.051 79.277 16.789 Z" style="stroke-linejoin: round; stroke-linecap: round; fill: rgb(44, 83, 244);"/>
  <path d="M 27.55 40.933 L 38.374 41.135 L 38.374 41.221 L 70.036 41.221 L 70.036 41.123 L 80.86 40.92 L 80.883 43.322 C 80.04 45.06 78.1 46.472 75.623 47.167 L 70.094 47.27 L 70.091 47.012 L 38.318 47.012 L 38.318 47.018 L 38.024 47.012 L 35.152 47.012 L 35.152 46.959 L 32.79 46.913 C 30.311 46.246 28.372 44.894 27.529 43.231 L 27.55 40.933 Z" style="stroke: rgb(0, 0, 0); stroke-linejoin: round; stroke-linecap: round; fill: rgb(255, 156, 0);"/>
  <path style="stroke-miterlimit: 4.63; stroke-width: 7.48475px; fill: rgb(21, 41, 124);" transform="matrix(0.100277, 0, 0, 0.140829, 6.925059, -12.633886)" d="M 464.356 181 L 485.644 181 L 490.136 213.513 A 56.55 56.55 0 0 1 502.825 218.769 L 528.992 198.955 L 544.045 214.008 L 524.231 240.175 A 56.55 56.55 0 0 1 529.487 252.864 L 562 257.356 L 562 278.644 L 529.487 283.136 A 56.55 56.55 0 0 1 524.231 295.825 L 544.045 321.992 L 528.992 337.045 L 502.825 317.231 A 56.55 56.55 0 0 1 490.136 322.487 L 485.644 355 L 464.356 355 L 459.864 322.487 A 56.55 56.55 0 0 1 447.175 317.231 L 421.008 337.045 L 405.955 321.992 L 425.769 295.825 A 56.55 56.55 0 0 1 420.513 283.136 L 388 278.644 L 388 257.356 L 420.513 252.864 A 56.55 56.55 0 0 1 425.769 240.175 L 405.955 214.008 L 421.008 198.955 L 447.175 218.769 A 56.55 56.55 0 0 1 459.864 213.513 Z M 475 241.9 A 26.1 26.1 0 0 0 475 294.1 A 26.1 26.1 0 0 0 475 241.9" bx:shape="cog 475 268 26.1 56.55 87 0.38 8 1@36eb139e"/>
  <ellipse style="stroke: rgb(0, 0, 0); fill: rgb(255, 156, 0);" cx="42.942" cy="45.853" rx="11.069" ry="11.655"/>
  <ellipse style="stroke: rgb(0, 0, 0); fill: rgb(149, 149, 149);" cx="42.793" cy="45.884" rx="7.479" ry="8.294"/>
  <path style="stroke: rgb(0, 0, 0); stroke-miterlimit: 4.63; stroke-width: 7.48475px; fill: rgb(255, 156, 0);" transform="matrix(0.100277, 0, 0, 0.108123, 6.925059, -5.962982)" d="M 464.356 181 L 485.644 181 L 490.136 213.513 A 56.55 56.55 0 0 1 502.825 218.769 L 528.992 198.955 L 544.045 214.008 L 524.231 240.175 A 56.55 56.55 0 0 1 529.487 252.864 L 562 257.356 L 562 278.644 L 529.487 283.136 A 56.55 56.55 0 0 1 524.231 295.825 L 544.045 321.992 L 528.992 337.045 L 502.825 317.231 A 56.55 56.55 0 0 1 490.136 322.487 L 485.644 355 L 464.356 355 L 459.864 322.487 A 56.55 56.55 0 0 1 447.175 317.231 L 421.008 337.045 L 405.955 321.992 L 425.769 295.825 A 56.55 56.55 0 0 1 420.513 283.136 L 388 278.644 L 388 257.356 L 420.513 252.864 A 56.55 56.55 0 0 1 425.769 240.175 L 405.955 214.008 L 421.008 198.955 L 447.175 218.769 A 56.55 56.55 0 0 1 459.864 213.513 Z M 475 241.9 A 26.1 26.1 0 0 0 475 294.1 A 26.1 26.1 0 0 0 475 241.9" bx:shape="cog 475 268 26.1 56.55 87 0.38 8 1@36eb139e"/>
  <ellipse style="stroke: rgb(0, 0, 0); fill: rgb(255, 156, 0);" cx="64.991" cy="45.853" rx="11.069" ry="11.655"/>
  <ellipse style="fill: rgb(96, 96, 96);" cx="44.77" cy="45.735" rx="4.78" ry="6.392"/>
  <ellipse style="stroke: rgb(0, 0, 0); fill: rgb(149, 149, 149);" cx="65.053" cy="45.562" rx="7.479" ry="8.294"/>
  <ellipse style="fill: rgb(96, 96, 96);" cx="67.03" cy="45.413" rx="4.78" ry="6.392"/>
  <g transform="matrix(1.073872, 0, 0, 1, -92.998138, 22.729815)" style="">
    <rect x="120.063" y="115.789" width="32.233" height="5.42" style="fill: rgb(21, 41, 124);"/>
    <rect x="119.039" y="112.372" width="33.409" height="6.283" style="stroke: rgb(58, 36, 3); fill: url(&quot;#gradient-4&quot;);"/>
    <path d="M 136.073 -124.686 L 143.857 -118.422 L 140.884 -108.285 L 131.262 -108.285 L 128.289 -118.422 Z" bx:shape="n-gon 136.073 -115.62 8.185 9.066 5 0 1@573883b9" style="fill: rgb(119, 77, 10); stroke: rgb(58, 36, 3);" transform="matrix(1, 0, 0, -1, 0, 0)"/>
    <path d="M 136.203 -121.178 L 141.126 -116.64 L 139.245 -109.296 L 133.161 -109.296 L 131.28 -116.64 Z" bx:shape="n-gon 136.203 -114.61 5.176 6.568 5 0 1@e1480012" style="fill: rgb(0, 234, 255); stroke: rgb(10, 69, 67);" transform="matrix(1, 0, 0, -1, 0, 0)"/>
    <ellipse style="fill: rgb(255, 255, 255);" cx="134.957" cy="114.124" rx="1.287" ry="3.513"/>
  </g>
  <g transform="matrix(-0.082857, 0.934562, -0.694296, -0.061555, -85.373497, 55.423672)" style="transform-origin: 159.642px 88.92px;">
    <path d="M 137.072 86.404 L 141.787 78.456 L 149.967 80.983 L 149.977 85.205 L 144.327 85.218 L 142.295 82.147 C 140.258 85.226 137.072 86.404 137.072 86.404 Z" style="stroke: rgb(0, 0, 0); fill: rgb(0, 37, 188); stroke-width: 2.13146px;"/>
    <path d="M 136.994 91.624 L 141.709 99.572 L 149.889 97.045 L 149.899 92.823 L 144.249 92.81 L 142.217 95.881 C 140.18 92.802 136.994 91.624 136.994 91.624 Z" style="stroke: rgb(0, 0, 0); fill: url(&quot;#gradient-14&quot;); stroke-width: 2.13146px;"/>
    <rect x="121.34" y="120.203" width="16.782" height="5.665" style="stroke: rgb(0, 0, 0); fill: rgb(13, 21, 55); stroke-width: 2.13146px;" transform="matrix(-0.001597, -0.999999, 0.999996, -0.003565, 28.209553, 219.226349)"/>
    <rect x="119.962" y="124.238" width="19.63" height="25.848" style="stroke: rgb(0, 0, 0); fill: rgb(0, 50, 255); stroke-width: 2.13146px;" transform="matrix(-0.001597, -0.999999, 0.999996, -0.003565, 27.674393, 219.492859)"/>
    <path d="M 87.085 130.633 L 101.811 136.949 L 96.186 147.167 L 77.984 147.167 L 72.359 136.949 Z" bx:shape="n-gon 87.085 139.773 15.484 9.14 5 0 1@efafd5d1" style="stroke: rgb(0, 0, 0); fill: url(&quot;#gradient-11&quot;); stroke-width: 2.13146px;" transform="matrix(-0.001597000047, -0.999998724795, 0.999995581889, -0.003565003563, 26.692048682688, 176.630023654043)"/>
    <path d="M 86.579 134.965 L 101.653 142.165 L 95.895 153.815 L 77.263 153.815 L 71.505 142.165 Z" bx:shape="n-gon 86.579 145.385 15.85 10.42 5 0 1@4cd93789" style="stroke: rgb(0, 0, 0); fill: url(&quot;#gradient-13&quot;); stroke-width: 2.13146px;" transform="matrix(-0.001597000862, -0.999998724793, 0.999995581885, -0.003565005193, 25.402558309378, 176.01350743414)"/>
    <path d="M 86.427 141.299 L 100.895 147.172 L 95.369 156.674 L 77.485 156.674 L 71.959 147.172 Z" bx:shape="n-gon 86.427 149.798 15.213 8.499 5 0 1@52e06b4f" style="fill: rgb(255, 149, 0); stroke: rgb(0, 0, 0); stroke-width: 2.13146px;" transform="matrix(-0.00159700028, -0.999998724794, 0.999995581887, -0.003565004727, 24.10588117976, 176.077426470697)"/>
    <ellipse style="fill: rgb(0, 255, 255); stroke: url(&quot;#gradient-12&quot;); stroke-width: 2.13146px;" cx="86.593" cy="150.219" rx="8.69" ry="6.653" transform="matrix(-0.001597, -0.999999, 0.999996, -0.003565, 25.542422, 176.363579)"/>
    <ellipse style="fill: rgba(255, 255, 255, 0.337); stroke-width: 2.13146px;" cx="86.593" cy="150.219" rx="6.273" ry="4.448" transform="matrix(-0.001597, -0.999999, 0.999996, -0.003565, 27.330264, 176.251)"/>
    <ellipse style="fill: rgba(255, 255, 255, 0.74); stroke-width: 2.13146px;" cx="86.593" cy="150.219" rx="3.629" ry="2.683" transform="matrix(-0.001597, -0.999999, 0.999996, -0.003565, 28.717383, 174.814003)"/>
  </g>
</svg>