<?xml version="1.0" encoding="utf-8"?>
<svg xmlns="http://www.w3.org/2000/svg" viewBox="0 0 180 110" width="110px" height="180px" xmlns:bx="https://boxy-svg.com">
  <defs>
    <radialGradient gradientUnits="userSpaceOnUse" cx="54.995" cy="25.183" r="26.807" id="gradient-1" gradientTransform="matrix(1, 0, 0, 1, 100.790067, 51.11523)">
      <stop offset="0" style="stop-color: rgb(10.588% 25.882% 89.412%)"/>
      <stop offset="1" style="stop-color: rgb(0% 24.045% 48.428%)"/>
    </radialGradient>
    <radialGradient gradientUnits="userSpaceOnUse" cx="54.79" cy="51.774" r="42.935" id="gradient-2" gradientTransform="matrix(0.868914, 0, 0, 1, 81.586524, 18.690713)">
      <stop offset="0" style="stop-color: rgb(10.588% 25.882% 89.412%)"/>
      <stop offset="1" style="stop-color: rgb(0% 24.045% 48.428%)"/>
    </radialGradient>
    <linearGradient gradientUnits="userSpaceOnUse" x1="143.447" y1="91.624" x2="143.447" y2="99.572" id="gradient-14" gradientTransform="matrix(0.936588, 0, -0.027522, 0.698241, -79.518448, 26.157293)">
      <stop offset="0" style="stop-color: rgb(0% 14.51% 73.725%)"/>
      <stop offset="1" style="stop-color: rgb(0% 18.802% 38.225%)"/>
    </linearGradient>
    <radialGradient gradientUnits="userSpaceOnUse" cx="87.085" cy="138.9" r="14.726" id="gradient-11" gradientTransform="matrix(0.69702, 0, 0, 0.938228, 26.385001, 8.634072)">
      <stop offset="0" style="stop-color: rgb(100% 58.431% 0%)"/>
      <stop offset="1" style="stop-color: rgb(64.317% 29.827% 0%)"/>
    </radialGradient>
    <radialGradient gradientUnits="userSpaceOnUse" cx="86.579" cy="144.39" r="12.997" id="gradient-13" gradientTransform="matrix(0.808437, 0, 0, 0.938228, 16.585371, 8.980775)">
      <stop offset="0" style="stop-color: rgb(100% 58.431% 0%)"/>
      <stop offset="1" style="stop-color: rgb(64.317% 29.827% 0%)"/>
    </radialGradient>
    <radialGradient gradientUnits="userSpaceOnUse" cx="86.593" cy="150.219" r="7.676" id="gradient-12" gradientTransform="matrix(0.789055, 0, 0, 1.188336, 18.266335, -28.292189)">
      <stop offset="0" style="stop-color: rgb(48.235% 48.235% 48.235%)"/>
      <stop offset="1" style="stop-color: rgb(28.577% 28.577% 28.577%)"/>
    </radialGradient>
    <linearGradient gradientUnits="userSpaceOnUse" x1="135.744" y1="112.372" x2="135.744" y2="118.655" id="gradient-4" gradientTransform="matrix(1, 0, 0, 1, 0, 0)">
      <stop offset="0" style="stop-color: rgb(100% 61.176% 0%)"/>
      <stop offset="1" style="stop-color: rgb(63.733% 31.968% 0%)"/>
    </linearGradient>
  </defs>
  <g transform="matrix(0.970284, 0.241967, 0.241967, -0.970284, -6.945169, -93.881996)" style="transform-origin: 159.075px 135.691px;">
    <path d="M 207.559 103.788 L 185.305 130.074 L 189.194 133.424 L 200.561 119.997 C 205.26 113.61 208.404 108.116 209.08 105.099 L 207.559 103.788 Z" style="stroke: rgb(0, 0, 0); stroke-linejoin: round; stroke-linecap: round; fill: rgb(47, 59, 51); transform-origin: 170.255px 105.038px;" transform="matrix(0, 1, -1, 0, -0.000003, 0.000004)"/>
    <path d="M 247.356 62.771 L 240.529 57.987 L 238.21 61.355 L 241.696 63.798 C 243.508 64.541 245.26 64.649 246.448 64.088 L 247.356 62.771 Z" style="stroke: rgb(0, 0, 0); stroke-linejoin: round; stroke-linecap: round; stroke-width: 0.641198px; fill: rgb(47, 59, 51); transform-origin: 159.93px 56.704px;" transform="matrix(0, 1, -1, 0, 0.000011, -0.000009)"/>
    <path d="M 170.235 145.797 L 162.007 144.606 L 161.429 148.665 L 165.632 149.273 C 167.582 149.119 169.196 148.424 170.009 147.385 L 170.235 145.797 Z" style="stroke: rgb(0, 0, 0); stroke-linejoin: round; stroke-linecap: round; stroke-width: 0.641194px; fill: rgb(47, 59, 51); transform-origin: 166.092px 146.875px;" transform="matrix(-0.138934, 0.990302, -0.990302, -0.138934, 0.000003, 0.000004)"/>
    <path d="M 257.179 57.932 L 249.824 54.026 L 247.93 57.654 L 251.687 59.649 C 253.575 60.163 255.327 60.055 256.438 59.351 L 257.179 57.932 Z" style="stroke: rgb(0, 0, 0); stroke-linejoin: round; stroke-linecap: round; stroke-width: 0.641197px; fill: rgb(47, 59, 51); transform-origin: 163.6px 54.606px;" transform="matrix(0, 1, -1, 0, -0.000004, 0.000007)"/>
    <path d="M 237.432 57.482 L 243.452 63.263 L 240.649 66.233 L 237.574 63.28 C 236.487 61.64 236.029 59.93 236.335 58.643 L 237.432 57.482 Z" style="stroke: rgb(0, 0, 0); stroke-linejoin: round; stroke-linecap: round; stroke-width: 0.641199px; fill: rgb(47, 59, 51); transform-origin: 167.39px 61.384px;" transform="matrix(0, 1, -1, 0, -0.000003, 0.000007)"/>
    <path d="M 247.521 53.052 L 252.695 59.614 L 249.513 62.167 L 246.87 58.815 C 246.018 57.039 245.798 55.282 246.277 54.05 L 247.521 53.052 Z" style="stroke: rgb(0, 0, 0); stroke-linejoin: round; stroke-linecap: round; stroke-width: 0.641199px; fill: rgb(47, 59, 51); transform-origin: 170.459px 58.874px;" transform="matrix(0, 1, -1, 0, 0.000005, -0.000004)"/>
    <path d="M 160.215 124.973 L 166.235 130.754 L 163.431 133.724 L 160.357 130.771 C 159.27 129.131 158.812 127.421 159.118 126.134 L 160.215 124.973 Z" style="stroke: rgb(0, 0, 0); stroke-linejoin: round; stroke-linecap: round; fill: rgb(47, 59, 51); transform-origin: 162.086px 129.442px;" transform="matrix(0.058696, 0.998276, -0.998276, 0.058696, -0.000005, -0.000002)"/>
  </g>
  <g transform="matrix(0.918083, -0.396388, 0.396388, 0.918083, -6.705858, -36.882198)" style="transform-origin: 159.075px 135.691px;">
    <path d="M 207.559 103.788 L 185.305 130.074 L 189.194 133.424 L 200.561 119.997 C 205.26 113.61 208.404 108.116 209.08 105.099 L 207.559 103.788 Z" style="stroke: rgb(0, 0, 0); stroke-linejoin: round; stroke-linecap: round; fill: rgb(47, 59, 51); transform-origin: 170.255px 105.038px;" transform="matrix(0, 1, -1, 0, -0.000003, 0.000004)"/>
    <path d="M 247.356 62.771 L 240.529 57.987 L 238.21 61.355 L 241.696 63.798 C 243.508 64.541 245.26 64.649 246.448 64.088 L 247.356 62.771 Z" style="stroke: rgb(0, 0, 0); stroke-linejoin: round; stroke-linecap: round; stroke-width: 0.641198px; fill: rgb(47, 59, 51); transform-origin: 159.93px 56.704px;" transform="matrix(0, 1, -1, 0, 0.000011, -0.000009)"/>
    <path d="M 170.235 145.797 L 162.007 144.606 L 161.429 148.665 L 165.632 149.273 C 167.582 149.119 169.196 148.424 170.009 147.385 L 170.235 145.797 Z" style="stroke: rgb(0, 0, 0); stroke-linejoin: round; stroke-linecap: round; stroke-width: 0.641194px; fill: rgb(47, 59, 51); transform-origin: 166.092px 146.875px;" transform="matrix(-0.138934, 0.990302, -0.990302, -0.138934, 0.000003, 0.000004)"/>
    <path d="M 257.179 57.932 L 249.824 54.026 L 247.93 57.654 L 251.687 59.649 C 253.575 60.163 255.327 60.055 256.438 59.351 L 257.179 57.932 Z" style="stroke: rgb(0, 0, 0); stroke-linejoin: round; stroke-linecap: round; stroke-width: 0.641197px; fill: rgb(47, 59, 51); transform-origin: 163.6px 54.606px;" transform="matrix(0, 1, -1, 0, -0.000004, 0.000007)"/>
    <path d="M 237.432 57.482 L 243.452 63.263 L 240.649 66.233 L 237.574 63.28 C 236.487 61.64 236.029 59.93 236.335 58.643 L 237.432 57.482 Z" style="stroke: rgb(0, 0, 0); stroke-linejoin: round; stroke-linecap: round; stroke-width: 0.641199px; fill: rgb(47, 59, 51); transform-origin: 167.39px 61.384px;" transform="matrix(0, 1, -1, 0, -0.000003, 0.000007)"/>
    <path d="M 247.521 53.052 L 252.695 59.614 L 249.513 62.167 L 246.87 58.815 C 246.018 57.039 245.798 55.282 246.277 54.05 L 247.521 53.052 Z" style="stroke: rgb(0, 0, 0); stroke-linejoin: round; stroke-linecap: round; stroke-width: 0.641199px; fill: rgb(47, 59, 51); transform-origin: 170.459px 58.874px;" transform="matrix(0, 1, -1, 0, 0.000005, -0.000004)"/>
    <path d="M 160.215 124.973 L 166.235 130.754 L 163.431 133.724 L 160.357 130.771 C 159.27 129.131 158.812 127.421 159.118 126.134 L 160.215 124.973 Z" style="stroke: rgb(0, 0, 0); stroke-linejoin: round; stroke-linecap: round; fill: rgb(47, 59, 51); transform-origin: 162.086px 129.442px;" transform="matrix(0.058696, 0.998276, -0.998276, 0.058696, -0.000005, -0.000002)"/>
  </g>
  <path d="M 65.235 83.757 L 71.789 74.392 L 71.763 87.402 L 71.624 87.402 L 71.584 107.611 L 71.617 107.611 L 71.605 113.886 C 70.551 116.703 68.321 118.915 65.54 119.881 L 61.658 119.873 L 61.682 107.591 L 61.718 107.591 L 61.749 91.64 C 60.992 90.631 60.469 88.487 60.469 86.005 C 60.469 82.553 61.48 79.755 62.727 79.755 C 63.688 79.755 64.508 81.415 64.834 83.756 L 65.235 83.757 Z" style="stroke-width: 2px; transform-origin: 66.129px 97.136px; fill: rgb(94, 131, 106); stroke: rgb(25, 25, 25);" transform="matrix(-0.020247, 0.999795, -0.999795, -0.020247, -0.000006, -0.000012)"/>
  <rect x="60.845" y="147.67" width="14.301" height="27.796" style="stroke-width: 2px; transform-origin: 67.996px 161.568px; fill: rgb(94, 131, 106); stroke: rgb(25, 25, 25);" transform="matrix(-0.00562, 0.999984, -0.999984, -0.00562, -48.610779, -77.112979)"/>
  <rect x="40.996" y="144.534" width="20.833" height="33.949" style="stroke-width: 2px; transform-origin: 51.413px 161.509px; fill: rgb(47, 59, 51); stroke: rgb(25, 25, 25);" transform="matrix(0.010482, 0.999945, -0.999945, 0.010482, -28.94251, -93.412657)"/>
  <rect x="60.845" y="147.67" width="14.301" height="27.796" style="stroke-width: 2px; fill: rgb(94, 131, 106); transform-origin: 67.996px 161.568px;" transform="matrix(-0.00562, 0.999984, -0.999984, -0.00562, -46.389336, -92.014766)"/>
  <path d="M 68.379 64.147 L 68.417 64.147 L 68.335 76.58 L 64.061 76.551 C 61.009 75.548 58.575 73.287 57.44 70.426 L 57.483 64.073 L 57.518 64.073 L 57.654 43.611 L 57.499 43.61 L 57.587 30.437 L 64.719 39.982 L 66.828 39.996 C 67.064 36.918 67.759 34.687 68.58 34.687 C 69.595 34.687 70.418 38.096 70.418 42.302 C 70.418 46.508 69.595 49.917 68.58 49.917 C 68.544 49.917 68.509 49.913 68.473 49.904 L 68.379 64.147 Z" style="stroke-width: 2px; transform-box: fill-box; transform-origin: 50% 50%; fill: rgb(47, 59, 51); stroke: rgb(25, 25, 25);" transform="matrix(0.122873, 0.992422, -0.992422, 0.122873, 0.000018, 0.000007)"/>
  <path d="M 32.987 35.735 L 68.722 35.735 L 68.722 113.917 L 56.704 113.917 L 51.44 95.933 L 45.005 113.917 L 32.987 113.917 L 32.987 35.735 Z" style="fill: rgb(27, 66, 228); stroke-width: 1.5px; stroke: rgb(14, 29, 91); transform-box: fill-box; transform-origin: 50% 50%;" transform="matrix(0, 1, -1, 0, 0.000002, -0.000005)"/>
  <ellipse style="fill: rgb(21, 41, 124); transform-origin: 31.431px 66.892px;" cx="31.431" cy="66.892" rx="5.787" ry="8.414" transform="matrix(-0.530411, 0.847741, -0.851851, -0.523842, 40.976919, 17.987559)"/>
  <ellipse style="fill: rgb(21, 41, 124);" cx="52.949" cy="102.732" rx="17.022" ry="9.841" transform="matrix(0, 1, -1, 0, 180.812012, 21.942242)"/>
  <ellipse style="fill: rgb(21, 41, 124); transform-origin: 31.431px 66.892px;" cx="31.431" cy="66.892" rx="5.779" ry="8.426" transform="matrix(0.337203, 0.941432, -0.943272, 0.332067, 39.796805, -2.169227)"/>
  <rect x="12.51" y="57.106" width="72.241" height="7.959" rx="2" ry="2" style="fill: rgb(21, 41, 124);"/>
  <path d="M 137.563 71.502 C 137.563 84.54 130.428 95.807 120.082 101.12 C 120.217 101.419 120.332 101.734 120.426 102.061 L 120.426 105.856 L 120.081 105.856 L 120.415 105.982 L 119.002 109.523 C 117.907 110.945 116.436 111.835 115 111.934 L 113.299 111.302 L 115.768 105.122 L 115.768 102.924 C 112.888 103.867 109.831 104.375 106.661 104.375 C 103.234 104.375 99.938 103.781 96.857 102.686 L 96.857 105.465 L 99.326 111.645 L 97.625 112.277 C 96.19 112.178 94.718 111.288 93.624 109.866 L 92.21 106.325 L 92.544 106.199 L 92.199 106.199 L 92.199 102.404 C 92.355 101.864 92.568 101.358 92.825 100.904 C 82.705 95.503 75.76 84.366 75.76 71.502 C 75.76 53.346 89.595 38.629 106.661 38.629 C 123.729 38.629 137.563 53.346 137.563 71.502 Z" style="stroke-width: 2px; transform-box: fill-box; transform-origin: 50% 50%; fill: rgb(47, 59, 51); stroke: rgb(25, 25, 25);" transform="matrix(0, 1, -1, 0, 0.00001, -0.000003)"/>
  <path d="M 129.034 65.312 C 131.903 60.3 137.987 56.36 145.598 54.63 L 155.353 54.63 L 155.353 54.612 L 165.982 54.612 C 173.59 56.343 179.675 60.283 182.546 65.295 L 182.546 68.189 L 182.591 68.189 L 182.591 97.984 L 128.978 97.984 L 128.978 68.189 L 129.034 68.189 L 129.034 65.312 Z" style="stroke: rgb(0, 0, 0); stroke-linejoin: round; stroke-linecap: round; fill: url(&quot;#gradient-1&quot;); transform-box: fill-box; transform-origin: 50% 50%;" transform="matrix(0, 1, -1, 0, 0.000002, 0)"/>
  <ellipse style="fill: rgb(94, 131, 106);" cx="59.578" cy="68.991" rx="24.277" ry="27.939" transform="matrix(0, 1, -1, 0, 180.812012, 21.942242)"/>
  <path d="M 91.889 67.697 C 92.988 65.479 95.494 63.706 98.681 62.869 L 105.775 62.869 L 105.775 62.998 L 157.879 62.998 L 157.879 63.012 L 159.708 63.012 C 162.895 63.848 165.401 65.621 166.5 67.839 L 166.5 73.09 C 165.401 75.308 162.895 77.081 159.708 77.917 L 157.879 77.917 L 157.879 78.016 L 105.774 78.016 L 105.774 78.06 L 98.681 78.058 C 95.492 77.222 92.987 75.449 91.887 73.231 L 91.889 70.131 L 91.889 67.697 Z" style="stroke: rgb(0, 0, 0); stroke-linejoin: round; stroke-linecap: round; fill: url(&quot;#gradient-2&quot;); transform-box: fill-box; transform-origin: 50% 50%;" transform="matrix(0, 1, -1, 0, -0.000008, -0.000002)"/>
  <ellipse style="fill: rgb(44, 83, 244);" cx="42.964" cy="49.018" rx="13.058" ry="9.415" transform="matrix(0, 1, -1, 0, 180.812012, 21.942242)"/>
  <ellipse style="fill: rgb(44, 83, 244);" cx="67.806" cy="49.042" rx="14.932" ry="9.108" transform="matrix(0, 1, -1, 0, 180.812012, 21.942242)"/>
  <path d="M 157.193 86.1 L 157.193 88.821 L 157.224 88.821 L 157.224 116.826 L 148.873 116.826 L 148.873 77.324 C 152.654 79.259 155.622 82.362 157.193 86.1 Z" style="stroke-linejoin: round; stroke-linecap: round; fill: rgb(44, 83, 244); transform-box: fill-box; transform-origin: 50% 50%;" transform="matrix(0, 1, -1, 0, 0.000019, -0.000011)"/>
  <path d="M 110.061 72.986 L 120.885 73.188 L 120.885 73.274 L 152.547 73.274 L 152.547 73.176 L 163.371 72.973 L 163.394 75.375 C 162.551 77.113 160.611 78.525 158.134 79.22 L 152.605 79.323 L 152.602 79.065 L 120.829 79.065 L 120.829 79.071 L 120.535 79.065 L 117.663 79.065 L 117.663 79.012 L 115.301 78.966 C 112.822 78.299 110.883 76.947 110.04 75.284 L 110.061 72.986 Z" style="stroke: rgb(0, 0, 0); stroke-linejoin: round; stroke-linecap: round; fill: rgb(255, 156, 0); transform-box: fill-box; transform-origin: 50% 50%;" transform="matrix(0, 1, -1, 0, 0.000012, -0.000003)"/>
  <path style="stroke-miterlimit: 4.63; stroke-width: 7.48475px; fill: rgb(21, 41, 124);" transform="matrix(0, 0.100277, -0.140829, 0, 193.445892, 28.8673)" d="M 464.356 181 L 485.644 181 L 490.136 213.513 A 56.55 56.55 0 0 1 502.825 218.769 L 528.992 198.955 L 544.045 214.008 L 524.231 240.175 A 56.55 56.55 0 0 1 529.487 252.864 L 562 257.356 L 562 278.644 L 529.487 283.136 A 56.55 56.55 0 0 1 524.231 295.825 L 544.045 321.992 L 528.992 337.045 L 502.825 317.231 A 56.55 56.55 0 0 1 490.136 322.487 L 485.644 355 L 464.356 355 L 459.864 322.487 A 56.55 56.55 0 0 1 447.175 317.231 L 421.008 337.045 L 405.955 321.992 L 425.769 295.825 A 56.55 56.55 0 0 1 420.513 283.136 L 388 278.644 L 388 257.356 L 420.513 252.864 A 56.55 56.55 0 0 1 425.769 240.175 L 405.955 214.008 L 421.008 198.955 L 447.175 218.769 A 56.55 56.55 0 0 1 459.864 213.513 Z M 475 241.9 A 26.1 26.1 0 0 0 475 294.1 A 26.1 26.1 0 0 0 475 241.9" bx:shape="cog 475 268 26.1 56.55 87 0.38 8 1@36eb139e"/>
  <ellipse style="stroke: rgb(0, 0, 0); fill: rgb(255, 156, 0);" cx="42.942" cy="45.853" rx="11.069" ry="11.655" transform="matrix(0, 1, -1, 0, 180.812012, 21.942242)"/>
  <ellipse style="stroke: rgb(0, 0, 0); fill: rgb(149, 149, 149);" cx="42.793" cy="45.884" rx="7.479" ry="8.294" transform="matrix(0, 1, -1, 0, 180.812012, 21.942242)"/>
  <path style="stroke: rgb(0, 0, 0); stroke-miterlimit: 4.63; stroke-width: 7.48475px; fill: rgb(255, 156, 0);" transform="matrix(0, 0.100277, -0.108123, 0, 186.774994, 28.8673)" d="M 464.356 181 L 485.644 181 L 490.136 213.513 A 56.55 56.55 0 0 1 502.825 218.769 L 528.992 198.955 L 544.045 214.008 L 524.231 240.175 A 56.55 56.55 0 0 1 529.487 252.864 L 562 257.356 L 562 278.644 L 529.487 283.136 A 56.55 56.55 0 0 1 524.231 295.825 L 544.045 321.992 L 528.992 337.045 L 502.825 317.231 A 56.55 56.55 0 0 1 490.136 322.487 L 485.644 355 L 464.356 355 L 459.864 322.487 A 56.55 56.55 0 0 1 447.175 317.231 L 421.008 337.045 L 405.955 321.992 L 425.769 295.825 A 56.55 56.55 0 0 1 420.513 283.136 L 388 278.644 L 388 257.356 L 420.513 252.864 A 56.55 56.55 0 0 1 425.769 240.175 L 405.955 214.008 L 421.008 198.955 L 447.175 218.769 A 56.55 56.55 0 0 1 459.864 213.513 Z M 475 241.9 A 26.1 26.1 0 0 0 475 294.1 A 26.1 26.1 0 0 0 475 241.9" bx:shape="cog 475 268 26.1 56.55 87 0.38 8 1@36eb139e"/>
  <ellipse style="stroke: rgb(0, 0, 0); fill: rgb(255, 156, 0);" cx="64.991" cy="45.853" rx="11.069" ry="11.655" transform="matrix(0, 1, -1, 0, 180.812012, 21.942242)"/>
  <ellipse style="fill: rgb(96, 96, 96);" cx="44.77" cy="45.735" rx="4.78" ry="6.392" transform="matrix(0, 1, -1, 0, 180.812012, 21.942242)"/>
  <ellipse style="stroke: rgb(0, 0, 0); fill: rgb(149, 149, 149);" cx="65.053" cy="45.562" rx="7.479" ry="8.294" transform="matrix(0, 1, -1, 0, 180.812012, 21.942242)"/>
  <ellipse style="fill: rgb(96, 96, 96);" cx="67.03" cy="45.413" rx="4.78" ry="6.392" transform="matrix(0, 1, -1, 0, 180.812012, 21.942242)"/>
  <g transform="matrix(0, 1.073872, -1, 0, 158.082199, -71.055893)" style="">
    <rect x="120.063" y="115.789" width="32.233" height="5.42" style="fill: rgb(21, 41, 124);"/>
    <rect x="119.039" y="112.372" width="33.409" height="6.283" style="stroke: rgb(58, 36, 3); fill: url(&quot;#gradient-4&quot;);"/>
    <path d="M 136.073 -124.686 L 143.857 -118.422 L 140.884 -108.285 L 131.262 -108.285 L 128.289 -118.422 Z" bx:shape="n-gon 136.073 -115.62 8.185 9.066 5 0 1@573883b9" style="fill: rgb(119, 77, 10); stroke: rgb(58, 36, 3);" transform="matrix(1, 0, 0, -1, 0, 0)"/>
    <path d="M 136.203 -121.178 L 141.126 -116.64 L 139.245 -109.296 L 133.161 -109.296 L 131.28 -116.64 Z" bx:shape="n-gon 136.203 -114.61 5.176 6.568 5 0 1@e1480012" style="fill: rgb(0, 234, 255); stroke: rgb(10, 69, 67);" transform="matrix(1, 0, 0, -1, 0, 0)"/>
    <ellipse style="fill: rgb(255, 255, 255);" cx="134.957" cy="114.124" rx="1.287" ry="3.513"/>
  </g>
  <path d="M 44.979 104.827 L 49.614 99.277 L 57.205 101.042 L 57.099 103.99 L 51.806 103.999 L 49.988 101.855 C 47.995 104.004 44.979 104.827 44.979 104.827 Z" style="stroke: rgb(0, 0, 0); fill: rgb(0, 37, 188); stroke-width: 2.13146px; transform-box: fill-box; transform-origin: 50% 50%;" transform="matrix(-0.997838, -0.088467, 0.048826, -0.997838, 0.000008, -0.000002)"/>
  <path d="M 46.081 90.141 L 50.278 95.691 L 58.009 93.926 L 58.135 90.978 L 52.843 90.969 L 50.856 93.114 C 49.033 90.964 46.081 90.141 46.081 90.141 Z" style="stroke: rgb(0, 0, 0); fill: url(&quot;#gradient-14&quot;); stroke-width: 2.13146px; transform-box: fill-box; transform-origin: 50% 50%;" transform="matrix(-0.997838, -0.088467, 0.048826, -0.997838, 0.000006, -0.000003)"/>
  <rect x="84.576" y="112.778" width="11.697" height="5.315" style="stroke: rgb(0, 0, 0); fill: rgb(13, 21, 55); stroke-width: 2.13146px;" transform="matrix(-0.08617, 0.99628, -0.996323, -0.085674, 167.321198, 16.62961)"/>
  <rect x="83.616" y="116.564" width="13.683" height="24.251" style="stroke: rgb(0, 0, 0); fill: rgb(0, 50, 255); stroke-width: 2.13146px;" transform="matrix(-0.08617, 0.99628, -0.996323, -0.085674, 167.837738, 16.488914)"/>
  <path d="M 87.085 131.198 L 97.35 137.123 L 93.429 146.71 L 80.741 146.71 L 76.82 137.123 Z" bx:shape="n-gon 87.085 139.773 10.793 8.575 5 0 1@0810c02e" style="stroke: rgb(0, 0, 0); fill: url(&quot;#gradient-11&quot;); stroke-width: 2.13146px;" transform="matrix(-0.086170260268, 0.996280425505, -0.996323373838, -0.085673701677, 176.993281948194, 20.78267518647)"/>
  <path d="M 86.579 135.609 L 97.086 142.364 L 93.073 153.294 L 80.085 153.294 L 76.072 142.364 Z" bx:shape="n-gon 86.579 145.385 11.048 9.776 5 0 1@e61df496" style="stroke: rgb(0, 0, 0); fill: url(&quot;#gradient-13&quot;); stroke-width: 2.13146px;" transform="matrix(-0.086170260268, 0.996280425506, -0.996323373838, -0.085673701677, 178.492636441102, 21.500001918168)"/>
  <path d="M 86.427 141.824 L 96.512 147.334 L 92.66 156.249 L 80.194 156.249 L 76.342 147.334 Z" bx:shape="n-gon 86.427 149.798 10.604 7.974 5 0 1@fb6d40e0" style="fill: rgb(255, 149, 0); stroke: rgb(0, 0, 0); stroke-width: 2.13146px;" transform="matrix(-0.086170260268, 0.996280425505, -0.996323373838, -0.085673701677, 179.976024804059, 21.632298925138)"/>
  <ellipse style="stroke: url(&quot;#gradient-12&quot;); stroke-width: 2.13146px; fill: rgb(34, 34, 34);" cx="86.593" cy="150.219" rx="6.057" ry="6.242" transform="matrix(-0.08617, 0.99628, -0.996323, -0.085674, 178.68126, 21.266717)"/>
  <ellipse style="fill: rgba(255, 255, 255, 0.337); stroke-width: 2.13146px;" cx="86.593" cy="150.219" rx="4.372" ry="4.173" transform="matrix(-0.08617, 0.99628, -0.996323, -0.085674, 177.654934, 21.429284)"/>
  <ellipse style="fill: rgba(255, 255, 255, 0.74); stroke-width: 2.13146px;" cx="86.593" cy="150.219" rx="2.529" ry="2.517" transform="matrix(-0.08617, 0.99628, -0.996323, -0.085674, 175.990933, 21.335095)"/>
  <g transform="matrix(0.652179, 0.758065, -0.758065, 0.652179, 27.329018, -52.994034)" style="transform-origin: 87.2605px 117.799px;">
    <rect x="79.009" y="116.955" width="16.503" height="2.079" rx="2" ry="2" style=""/>
    <rect x="82.063" y="118.969" width="16.503" height="2.079" rx="2" ry="2" style="transform-box: fill-box; transform-origin: 50% 50%;" transform="matrix(0, 1, -1, 0, -3.118739, -2.209096)"/>
  </g>
  <g transform="matrix(0.652179, 0.758065, -0.758065, 0.652179, 27.329334, -30.347509)" style="transform-origin: 87.261px 117.799px;">
    <rect x="79.009" y="116.955" width="16.503" height="2.079" rx="2" ry="2" style=""/>
    <rect x="82.063" y="118.969" width="16.503" height="2.079" rx="2" ry="2" style="transform-box: fill-box; transform-origin: 50% 50%;" transform="matrix(0, 1, -1, 0, -3.118739, -2.209096)"/>
  </g>
</svg>