<?xml version="1.0" encoding="utf-8"?>
<svg xmlns="http://www.w3.org/2000/svg" viewBox="0 0 100 80" xmlns:bx="https://boxy-svg.com">
  <defs>
    <filter id="gaussian-blur-filter-0" bx:preset="gaussian-blur 1 5" color-interpolation-filters="sRGB" x="-50%" y="-50%" width="200%" height="200%">
      <feGaussianBlur stdDeviation="5 5" edgeMode="none"/>
    </filter>
    <radialGradient gradientUnits="userSpaceOnUse" cx="50.987" cy="51.266" r="41.337" id="gradient-0">
      <stop offset="0" style="stop-color: rgb(86.667% 45.882% 0%)"/>
      <stop offset="1" style="stop-color: rgb(57.03% 22.497% 0%)"/>
    </radialGradient>
    <radialGradient gradientUnits="userSpaceOnUse" cx="51.009" cy="23.201" r="41.359" id="gradient-1">
      <stop offset="0" style="stop-color: rgb(86.667% 45.882% 0%)"/>
      <stop offset="1" style="stop-color: rgb(57.03% 22.497% 0%)"/>
    </radialGradient>
  </defs>
  <rect x="1.752" y="33.217" width="97.556" height="45.844" style="stroke-width: 2px; fill: rgb(234, 255, 0); stroke: rgb(131, 48, 7);"/>
  <rect x="5.421" y="30.509" width="90.759" height="45.844" style="fill: rgb(121, 44, 6);"/>
  <rect x="9.65" y="28.524" width="82.674" height="45.484" style="fill: url(&quot;#gradient-0&quot;); stroke: rgb(131, 48, 7);"/>
  <path d="M 1.568 43.161 L 1.568 21.415 C 3.796 12.355 8.359 5.133 14.085 1.537 L 87.01 1.537 C 92.737 5.149 97.3 12.396 99.535 21.493 L 99.535 43.325 L 49.579 43.325 L 49.579 43.161 L 1.568 43.161 Z" style="stroke-width: 2px; fill: rgb(255, 212, 0); stroke: rgb(131, 48, 7);"/>
  <rect x="45.45" y="46.223" width="12.414" height="32.844" style="fill: rgb(255, 255, 255); stroke: rgb(129, 47, 7);"/>
  <path d="M 5.606 40.124 L 5.606 22.655 C 7.663 15.375 11.864 9.574 17.137 6.686 L 84.328 6.686 C 89.6 9.586 93.801 15.409 95.859 22.718 L 95.859 40.257 L 49.834 40.257 L 49.834 40.124 L 5.606 40.124 Z" style="fill: rgb(127, 47, 7);"/>
  <path d="M 9.65 36.898 L 9.65 22.53 C 11.538 16.539 15.384 11.769 20.216 9.393 L 81.795 9.393 C 86.634 11.779 90.48 16.569 92.368 22.582 L 92.368 37.009 L 50.189 37.009 L 50.189 36.898 L 9.65 36.898 Z" style="stroke: rgb(131, 48, 7); fill: url(&quot;#gradient-1&quot;);"/>
  <path d="M 12.07 45.329 L 16.548 45.329 L 16.548 47.459 C 15.164 47.703 14.156 48.458 14.156 49.349 C 14.156 50.24 15.164 50.994 16.548 51.238 L 16.548 53.66 C 16.519 53.66 16.498 53.66 16.47 53.66 C 14.618 53.66 13.113 54.544 13.113 55.635 C 13.113 56.724 14.618 57.608 16.47 57.608 C 16.498 57.608 16.519 57.608 16.548 57.608 L 16.548 59.86 C 15.086 60.075 14.007 60.849 14.007 61.774 C 14.007 62.697 15.086 63.473 16.548 63.688 L 16.548 66.086 C 16.533 66.086 16.526 66.086 16.519 66.086 C 14.66 66.086 13.163 66.969 13.163 68.059 C 13.163 69.15 14.66 70.033 16.519 70.033 C 16.526 70.033 16.533 70.033 16.548 70.033 L 16.548 71.494 L 12.07 71.494 L 12.07 45.329 Z" style="fill: rgb(255, 217, 26); stroke: rgb(131, 48, 7);"/>
  <path d="M 12.07 45.329 L 16.548 45.329 L 16.548 47.459 C 15.164 47.703 14.156 48.458 14.156 49.349 C 14.156 50.24 15.164 50.994 16.548 51.238 L 16.548 53.66 C 16.519 53.66 16.498 53.66 16.47 53.66 C 14.618 53.66 13.113 54.544 13.113 55.635 C 13.113 56.724 14.618 57.608 16.47 57.608 C 16.498 57.608 16.519 57.608 16.548 57.608 L 16.548 59.86 C 15.086 60.075 14.007 60.849 14.007 61.774 C 14.007 62.697 15.086 63.473 16.548 63.688 L 16.548 66.086 C 16.533 66.086 16.526 66.086 16.519 66.086 C 14.66 66.086 13.163 66.969 13.163 68.059 C 13.163 69.15 14.66 70.033 16.519 70.033 C 16.526 70.033 16.533 70.033 16.548 70.033 L 16.548 71.494 L 12.07 71.494 L 12.07 45.329 Z" style="fill: rgb(255, 217, 26); stroke: rgb(128, 47, 7);"/>
  <path d="M 85.889 71.741 L 90.367 71.741 L 90.367 69.611 C 88.99 69.366 87.982 68.612 87.982 67.721 C 87.982 66.829 88.99 66.076 90.367 65.832 L 90.367 63.409 C 90.345 63.409 90.317 63.409 90.296 63.409 C 88.444 63.409 86.939 62.525 86.939 61.435 C 86.939 60.345 88.444 59.461 90.296 59.461 C 90.317 59.461 90.345 59.461 90.367 59.461 L 90.367 57.21 C 88.912 56.995 87.833 56.22 87.833 55.296 C 87.833 54.373 88.912 53.597 90.367 53.382 L 90.367 50.984 C 90.36 50.984 90.353 50.984 90.338 50.984 C 88.486 50.984 86.982 50.1 86.982 49.011 C 86.982 47.92 88.486 47.036 90.338 47.036 C 90.353 47.036 90.36 47.036 90.367 47.036 L 90.367 45.576 L 85.889 45.576 L 85.889 71.741 Z" style="transform-origin: 88.131px 58.658px; fill: rgb(255, 217, 26); stroke: rgb(131, 48, 7);" transform="matrix(-1, 0, 0, -1, -0.000008, -0.000006)"/>
  <path d="M 86.194 34.904 L 90.97 34.904 L 90.97 33.785 C 89.494 33.657 88.422 33.261 88.422 32.793 C 88.422 32.324 89.494 31.93 90.97 31.801 L 90.97 30.529 C 90.941 30.529 90.913 30.529 90.885 30.529 C 88.912 30.529 87.308 30.064 87.308 29.492 C 87.308 28.919 88.912 28.456 90.885 28.456 C 90.913 28.456 90.941 28.456 90.97 28.456 L 90.97 27.273 C 89.409 27.161 88.259 26.754 88.259 26.269 C 88.259 25.783 89.409 25.376 90.97 25.264 L 90.97 24.005 C 90.956 24.005 90.949 24.005 90.934 24.005 C 88.962 24.005 87.358 23.54 87.358 22.967 C 87.358 22.395 88.962 21.931 90.934 21.931 C 90.949 21.931 90.956 21.931 90.97 21.931 L 90.97 21.164 L 86.194 21.164 L 86.194 34.904 Z" style="transform-origin: 88.58px 28.034px; fill: rgb(255, 217, 26); stroke: rgb(131, 48, 7);" transform="matrix(-1, 0, 0, -1, -0.000005, -0.000007)"/>
  <path d="M 11.368 21.602 L 16.143 21.602 L 16.143 22.722 C 14.667 22.85 13.596 23.246 13.596 23.714 C 13.596 24.183 14.667 24.578 16.143 24.706 L 16.143 25.978 C 16.115 25.978 16.094 25.978 16.065 25.978 C 14.085 25.978 12.482 26.443 12.482 27.015 C 12.482 27.587 14.085 28.051 16.065 28.051 C 16.094 28.051 16.115 28.051 16.143 28.051 L 16.143 29.234 C 14.589 29.346 13.44 29.753 13.44 30.239 C 13.44 30.724 14.589 31.131 16.143 31.243 L 16.143 32.502 C 16.136 32.502 16.122 32.502 16.115 32.502 C 14.135 32.502 12.531 32.967 12.531 33.54 C 12.531 34.111 14.135 34.576 16.115 34.576 C 16.122 34.576 16.136 34.576 16.143 34.576 L 16.143 35.343 L 11.368 35.343 L 11.368 21.602 Z" style="transform-origin: 13.755px 28.473px; fill: rgb(255, 217, 26); stroke: rgb(131, 48, 7);"/>
  <rect x="48.962" y="40.583" width="5.933" height="36.59" style="fill: rgb(255, 154, 39); stroke: rgb(117, 43, 6);"/>
  <ellipse style="stroke-width: 3px; fill: rgb(255, 255, 255); stroke: rgb(131, 48, 7);" cx="51.504" cy="37.434" rx="16.069" ry="16.614"/>
  <path d="M 46.992 41.871 C 43.789 41.871 41.193 38.751 41.193 34.901 C 41.193 31.054 43.789 27.934 46.992 27.934 C 47.634 27.934 48.242 28.057 48.811 28.283 C 46.896 29.193 45.552 31.337 45.552 33.837 C 45.552 37.161 47.931 39.856 50.871 39.856 C 50.935 39.856 51.007 39.853 51.079 39.85 C 50.03 41.099 48.588 41.871 46.992 41.871 Z" style="fill: rgb(131, 48, 7);"/>
  <path d="M 61.062 39.226 C 62.937 37.929 63.264 35.08 61.791 32.864 C 60.316 30.646 57.592 29.9 55.71 31.199 C 55.341 31.456 55.029 31.774 54.78 32.139 C 56.254 31.885 57.865 32.574 58.826 34.014 C 60.101 35.928 59.731 38.445 58.008 39.636 C 57.969 39.664 57.929 39.691 57.889 39.718 C 58.978 40.013 60.124 39.873 61.062 39.226 Z" style="transform-origin: 110.776px 67.169px; fill: rgb(131, 48, 7);"/>
  <path d="M 49.02 49.269 C 49.941 50.752 52.488 50.798 54.716 49.369 C 56.936 47.941 58.001 45.581 57.079 44.096 C 56.895 43.801 56.655 43.563 56.351 43.382 C 56.383 44.609 55.526 46.028 54.083 46.955 C 52.16 48.189 49.917 48.086 49.075 46.724 C 49.051 46.692 49.035 46.659 49.02 46.626 C 48.595 47.575 48.562 48.531 49.02 49.269 Z" style="transform-origin: 92.808px 105.335px; fill: rgb(131, 48, 7);"/>
  <path d="M 50.598 37.343 C 51.672 36.975 52.056 35.197 51.455 33.373 C 50.847 31.546 49.492 30.365 48.419 30.733 C 48.202 30.806 48.018 30.934 47.858 31.108 C 48.643 31.318 49.436 32.181 49.828 33.366 C 50.342 34.942 49.965 36.494 48.979 36.83 C 48.955 36.838 48.932 36.845 48.907 36.852 C 49.46 37.324 50.061 37.525 50.598 37.343 Z" style="transform-origin: 81.562px 64.275px; fill: rgb(131, 48, 7);"/>
  <path d="M 55.14 41.476 C 54.067 41.108 53.683 39.33 54.291 37.506 C 54.892 35.68 56.246 34.499 57.32 34.864 C 57.536 34.938 57.72 35.065 57.881 35.241 C 57.095 35.451 56.302 36.313 55.917 37.5 C 55.397 39.076 55.774 40.626 56.758 40.963 C 56.783 40.971 56.807 40.978 56.831 40.985 C 56.286 41.457 55.677 41.659 55.14 41.476 Z" style="transform-origin: 101.318px 77.189px; fill: rgb(131, 48, 7);"/>
  <path d="M 45.367 46.152 C 45.078 45.036 46.327 43.737 48.154 43.25 C 49.988 42.762 51.704 43.271 51.991 44.389 C 52.048 44.61 52.048 44.839 51.984 45.068 C 51.383 44.516 50.245 44.316 49.059 44.632 C 47.473 45.052 46.407 46.224 46.672 47.246 C 46.68 47.272 46.688 47.295 46.688 47.32 C 46.007 47.112 45.51 46.708 45.367 46.152 Z" style="transform-origin: 77.731px 98.749px; fill: rgb(131, 48, 7);"/>
  <path d="M 50.101 26.169 C 49.892 27.304 51.23 28.51 53.09 28.864 C 54.949 29.22 56.623 28.588 56.831 27.454 C 56.871 27.229 56.856 27.001 56.783 26.777 C 56.214 27.373 55.093 27.65 53.883 27.421 C 52.281 27.114 51.134 26.023 51.326 24.984 C 51.326 24.958 51.335 24.934 51.343 24.909 C 50.67 25.165 50.205 25.605 50.101 26.169 Z" style="transform-origin: 93.168px 42.95px; fill: rgb(131, 48, 7);"/>
  <ellipse style="filter: url(&quot;#gaussian-blur-filter-0&quot;); fill: rgba(0, 0, 0, 0.486); transform-box: fill-box; transform-origin: 50% 50%;" cx="53.85" cy="65.353" rx="10.045" ry="4.566" transform="matrix(0.620125, -0.784503, 0.773748, 0.633731, 4.232082, -21.408765)"/>
  <g style="transform-origin: 37.2898px 26.227px;" transform="matrix(0.565675, -0.170811, 0.132652, 0.546295, -15.3341, -7.46253)">
    <path d="M 37.948 35.166 C 33.951 35.166 30.711 31.164 30.711 26.226 C 30.711 21.291 33.951 17.288 37.948 17.288 C 38.742 17.288 39.506 17.446 40.222 17.736 C 37.827 18.904 36.147 21.653 36.147 24.861 C 36.147 29.124 39.119 32.582 42.784 32.582 C 42.871 32.582 42.957 32.578 43.044 32.575 C 41.735 34.177 39.936 35.166 37.948 35.166 Z" style="fill: rgb(255, 191, 0);"/>
    <path d="M 42.446 29.358 C 43.787 28.886 44.264 26.606 43.513 24.265 C 42.762 21.923 41.066 20.407 39.725 20.878 C 39.458 20.972 39.227 21.136 39.031 21.36 C 40.011 21.629 40.995 22.736 41.482 24.257 C 42.131 26.279 41.66 28.269 40.43 28.7 C 40.401 28.71 40.371 28.72 40.34 28.729 C 41.024 29.334 41.78 29.592 42.446 29.358 Z" style="transform-origin: 81.093px 63.907px; fill: rgb(255, 191, 0);"/>
  </g>
  <g style="transform-origin: 37.2898px 26.227px;" transform="matrix(-0.512344, -0.317287, -0.246405, 0.49479, -7.38656, 2.40754)">
    <path d="M 37.948 35.166 C 33.951 35.166 30.711 31.164 30.711 26.226 C 30.711 21.291 33.951 17.288 37.948 17.288 C 38.742 17.288 39.506 17.446 40.222 17.736 C 37.827 18.904 36.147 21.653 36.147 24.861 C 36.147 29.124 39.119 32.582 42.784 32.582 C 42.871 32.582 42.957 32.578 43.044 32.575 C 41.735 34.177 39.936 35.166 37.948 35.166 Z" style="fill: rgb(255, 191, 0);"/>
    <path d="M 42.446 29.358 C 43.787 28.886 44.264 26.606 43.513 24.265 C 42.762 21.923 41.066 20.407 39.725 20.878 C 39.458 20.972 39.227 21.136 39.031 21.36 C 40.011 21.629 40.995 22.736 41.482 24.257 C 42.131 26.279 41.66 28.269 40.43 28.7 C 40.401 28.71 40.371 28.72 40.34 28.729 C 41.024 29.334 41.78 29.592 42.446 29.358 Z" style="transform-origin: 81.093px 63.907px; fill: rgb(255, 191, 0);"/>
  </g>
  <g style="transform-origin: 37.29px 26.227px;" transform="matrix(-0.229977, 0.601105, 0.466818, 0.222097, -3.0517, -9.4768)">
    <path d="M 37.948 35.166 C 33.951 35.166 30.711 31.164 30.711 26.226 C 30.711 21.291 33.951 17.288 37.948 17.288 C 38.742 17.288 39.506 17.446 40.222 17.736 C 37.827 18.904 36.147 21.653 36.147 24.861 C 36.147 29.124 39.119 32.582 42.784 32.582 C 42.871 32.582 42.957 32.578 43.044 32.575 C 41.735 34.177 39.936 35.166 37.948 35.166 Z" style="fill: rgb(255, 191, 0);"/>
    <path d="M 42.446 29.358 C 43.787 28.886 44.264 26.606 43.513 24.265 C 42.762 21.923 41.066 20.407 39.725 20.878 C 39.458 20.972 39.227 21.136 39.031 21.36 C 40.011 21.629 40.995 22.736 41.482 24.257 C 42.131 26.279 41.66 28.269 40.43 28.7 C 40.401 28.71 40.371 28.72 40.34 28.729 C 41.024 29.334 41.78 29.592 42.446 29.358 Z" style="transform-origin: 81.093px 63.907px; fill: rgb(255, 191, 0);"/>
  </g>
  <g style="transform-origin: 37.29px 26.227px;" transform="matrix(0.565675, -0.170811, 0.132652, 0.546295, 30.8133, -7.22094)">
    <path d="M 37.948 35.166 C 33.951 35.166 30.711 31.164 30.711 26.226 C 30.711 21.291 33.951 17.288 37.948 17.288 C 38.742 17.288 39.506 17.446 40.222 17.736 C 37.827 18.904 36.147 21.653 36.147 24.861 C 36.147 29.124 39.119 32.582 42.784 32.582 C 42.871 32.582 42.957 32.578 43.044 32.575 C 41.735 34.177 39.936 35.166 37.948 35.166 Z" style="fill: rgb(255, 255, 0);"/>
    <path d="M 42.446 29.358 C 43.787 28.886 44.264 26.606 43.513 24.265 C 42.762 21.923 41.066 20.407 39.725 20.878 C 39.458 20.972 39.227 21.136 39.031 21.36 C 40.011 21.629 40.995 22.736 41.482 24.257 C 42.131 26.279 41.66 28.269 40.43 28.7 C 40.401 28.71 40.371 28.72 40.34 28.729 C 41.024 29.334 41.78 29.592 42.446 29.358 Z" style="transform-origin: 81.093px 63.907px; fill: rgb(255, 255, 0);"/>
  </g>
  <g style="transform-origin: 37.29px 26.227px;" transform="matrix(-0.512344, -0.317287, -0.246405, 0.49479, 38.7607, 2.64912)">
    <path d="M 37.948 35.166 C 33.951 35.166 30.711 31.164 30.711 26.226 C 30.711 21.291 33.951 17.288 37.948 17.288 C 38.742 17.288 39.506 17.446 40.222 17.736 C 37.827 18.904 36.147 21.653 36.147 24.861 C 36.147 29.124 39.119 32.582 42.784 32.582 C 42.871 32.582 42.957 32.578 43.044 32.575 C 41.735 34.177 39.936 35.166 37.948 35.166 Z" style="fill: rgb(255, 255, 0);"/>
    <path d="M 42.446 29.358 C 43.787 28.886 44.264 26.606 43.513 24.265 C 42.762 21.923 41.066 20.407 39.725 20.878 C 39.458 20.972 39.227 21.136 39.031 21.36 C 40.011 21.629 40.995 22.736 41.482 24.257 C 42.131 26.279 41.66 28.269 40.43 28.7 C 40.401 28.71 40.371 28.72 40.34 28.729 C 41.024 29.334 41.78 29.592 42.446 29.358 Z" style="transform-origin: 81.093px 63.907px; fill: rgb(255, 255, 0);"/>
  </g>
  <g style="transform-origin: 37.29px 26.227px;" transform="matrix(-0.229977, 0.601105, 0.466818, 0.222097, 43.0963, -9.23521)">
    <path d="M 37.948 35.166 C 33.951 35.166 30.711 31.164 30.711 26.226 C 30.711 21.291 33.951 17.288 37.948 17.288 C 38.742 17.288 39.506 17.446 40.222 17.736 C 37.827 18.904 36.147 21.653 36.147 24.861 C 36.147 29.124 39.119 32.582 42.784 32.582 C 42.871 32.582 42.957 32.578 43.044 32.575 C 41.735 34.177 39.936 35.166 37.948 35.166 Z" style="fill: rgb(255, 255, 0);"/>
    <path d="M 42.446 29.358 C 43.787 28.886 44.264 26.606 43.513 24.265 C 42.762 21.923 41.066 20.407 39.725 20.878 C 39.458 20.972 39.227 21.136 39.031 21.36 C 40.011 21.629 40.995 22.736 41.482 24.257 C 42.131 26.279 41.66 28.269 40.43 28.7 C 40.401 28.71 40.371 28.72 40.34 28.729 C 41.024 29.334 41.78 29.592 42.446 29.358 Z" style="transform-origin: 81.093px 63.907px; fill: rgb(255, 255, 0);"/>
  </g>
  <g style="transform-origin: 37.29px 26.227px;" transform="matrix(0.565675, 0.170811, 0.132652, -0.546295, -13.6013, 36.5878)">
    <path d="M 37.948 35.166 C 33.951 35.166 30.711 31.164 30.711 26.226 C 30.711 21.291 33.951 17.288 37.948 17.288 C 38.742 17.288 39.506 17.446 40.222 17.736 C 37.827 18.904 36.147 21.653 36.147 24.861 C 36.147 29.124 39.119 32.582 42.784 32.582 C 42.871 32.582 42.957 32.578 43.044 32.575 C 41.735 34.177 39.936 35.166 37.948 35.166 Z" style="fill: rgb(255, 227, 0);"/>
    <path d="M 42.446 29.358 C 43.787 28.886 44.264 26.606 43.513 24.265 C 42.762 21.923 41.066 20.407 39.725 20.878 C 39.458 20.972 39.227 21.136 39.031 21.36 C 40.011 21.629 40.995 22.736 41.482 24.257 C 42.131 26.279 41.66 28.269 40.43 28.7 C 40.401 28.71 40.371 28.72 40.34 28.729 C 41.024 29.334 41.78 29.592 42.446 29.358 Z" style="transform-origin: 81.093px 63.907px; fill: rgb(255, 227, 0);"/>
  </g>
  <g style="transform-origin: 37.29px 26.227px;" transform="matrix(-0.512344, 0.317287, -0.246405, -0.49479, -5.65306, 26.7176)">
    <path d="M 37.948 35.166 C 33.951 35.166 30.711 31.164 30.711 26.226 C 30.711 21.291 33.951 17.288 37.948 17.288 C 38.742 17.288 39.506 17.446 40.222 17.736 C 37.827 18.904 36.147 21.653 36.147 24.861 C 36.147 29.124 39.119 32.582 42.784 32.582 C 42.871 32.582 42.957 32.578 43.044 32.575 C 41.735 34.177 39.936 35.166 37.948 35.166 Z" style="fill: rgb(255, 227, 0);"/>
    <path d="M 42.446 29.358 C 43.787 28.886 44.264 26.606 43.513 24.265 C 42.762 21.923 41.066 20.407 39.725 20.878 C 39.458 20.972 39.227 21.136 39.031 21.36 C 40.011 21.629 40.995 22.736 41.482 24.257 C 42.131 26.279 41.66 28.269 40.43 28.7 C 40.401 28.71 40.371 28.72 40.34 28.729 C 41.024 29.334 41.78 29.592 42.446 29.358 Z" style="transform-origin: 81.093px 63.907px; fill: rgb(255, 227, 0);"/>
  </g>
  <g style="transform-origin: 37.29px 26.227px;" transform="matrix(-0.229977, -0.601105, 0.466818, -0.222097, -1.31815, 38.602)">
    <path d="M 37.948 35.166 C 33.951 35.166 30.711 31.164 30.711 26.226 C 30.711 21.291 33.951 17.288 37.948 17.288 C 38.742 17.288 39.506 17.446 40.222 17.736 C 37.827 18.904 36.147 21.653 36.147 24.861 C 36.147 29.124 39.119 32.582 42.784 32.582 C 42.871 32.582 42.957 32.578 43.044 32.575 C 41.735 34.177 39.936 35.166 37.948 35.166 Z" style="fill: rgb(255, 227, 0);"/>
    <path d="M 42.446 29.358 C 43.787 28.886 44.264 26.606 43.513 24.265 C 42.762 21.923 41.066 20.407 39.725 20.878 C 39.458 20.972 39.227 21.136 39.031 21.36 C 40.011 21.629 40.995 22.736 41.482 24.257 C 42.131 26.279 41.66 28.269 40.43 28.7 C 40.401 28.71 40.371 28.72 40.34 28.729 C 41.024 29.334 41.78 29.592 42.446 29.358 Z" style="transform-origin: 81.093px 63.907px; fill: rgb(255, 227, 0);"/>
  </g>
  <g style="transform-origin: 37.29px 26.227px;" transform="matrix(0.565675, 0.170811, 0.132652, -0.546295, -13.6013, 36.5878)">
    <path d="M 37.948 35.166 C 33.951 35.166 30.711 31.164 30.711 26.226 C 30.711 21.291 33.951 17.288 37.948 17.288 C 38.742 17.288 39.506 17.446 40.222 17.736 C 37.827 18.904 36.147 21.653 36.147 24.861 C 36.147 29.124 39.119 32.582 42.784 32.582 C 42.871 32.582 42.957 32.578 43.044 32.575 C 41.735 34.177 39.936 35.166 37.948 35.166 Z" style="fill: rgb(255, 227, 0);"/>
    <path d="M 42.446 29.358 C 43.787 28.886 44.264 26.606 43.513 24.265 C 42.762 21.923 41.066 20.407 39.725 20.878 C 39.458 20.972 39.227 21.136 39.031 21.36 C 40.011 21.629 40.995 22.736 41.482 24.257 C 42.131 26.279 41.66 28.269 40.43 28.7 C 40.401 28.71 40.371 28.72 40.34 28.729 C 41.024 29.334 41.78 29.592 42.446 29.358 Z" style="transform-origin: 81.093px 63.907px; fill: rgb(255, 227, 0);"/>
  </g>
  <g style="transform-origin: 37.29px 26.227px;" transform="matrix(-0.512344, 0.317287, -0.246405, -0.49479, -5.65306, 26.7176)">
    <path d="M 37.948 35.166 C 33.951 35.166 30.711 31.164 30.711 26.226 C 30.711 21.291 33.951 17.288 37.948 17.288 C 38.742 17.288 39.506 17.446 40.222 17.736 C 37.827 18.904 36.147 21.653 36.147 24.861 C 36.147 29.124 39.119 32.582 42.784 32.582 C 42.871 32.582 42.957 32.578 43.044 32.575 C 41.735 34.177 39.936 35.166 37.948 35.166 Z" style="fill: rgb(255, 227, 0);"/>
    <path d="M 42.446 29.358 C 43.787 28.886 44.264 26.606 43.513 24.265 C 42.762 21.923 41.066 20.407 39.725 20.878 C 39.458 20.972 39.227 21.136 39.031 21.36 C 40.011 21.629 40.995 22.736 41.482 24.257 C 42.131 26.279 41.66 28.269 40.43 28.7 C 40.401 28.71 40.371 28.72 40.34 28.729 C 41.024 29.334 41.78 29.592 42.446 29.358 Z" style="transform-origin: 81.093px 63.907px; fill: rgb(255, 227, 0);"/>
  </g>
  <g style="transform-origin: 37.29px 26.227px;" transform="matrix(-0.229977, -0.601105, 0.466818, -0.222097, -1.31815, 38.602)">
    <path d="M 37.948 35.166 C 33.951 35.166 30.711 31.164 30.711 26.226 C 30.711 21.291 33.951 17.288 37.948 17.288 C 38.742 17.288 39.506 17.446 40.222 17.736 C 37.827 18.904 36.147 21.653 36.147 24.861 C 36.147 29.124 39.119 32.582 42.784 32.582 C 42.871 32.582 42.957 32.578 43.044 32.575 C 41.735 34.177 39.936 35.166 37.948 35.166 Z" style="fill: rgb(255, 227, 0);"/>
    <path d="M 42.446 29.358 C 43.787 28.886 44.264 26.606 43.513 24.265 C 42.762 21.923 41.066 20.407 39.725 20.878 C 39.458 20.972 39.227 21.136 39.031 21.36 C 40.011 21.629 40.995 22.736 41.482 24.257 C 42.131 26.279 41.66 28.269 40.43 28.7 C 40.401 28.71 40.371 28.72 40.34 28.729 C 41.024 29.334 41.78 29.592 42.446 29.358 Z" style="transform-origin: 81.093px 63.907px; fill: rgb(255, 227, 0);"/>
  </g>
  <g style="transform-origin: 37.29px 26.227px;" transform="matrix(-0.565675, 0.170811, -0.132652, -0.546295, 41.9248, 35.6214)">
    <path d="M 37.948 35.166 C 33.951 35.166 30.711 31.164 30.711 26.226 C 30.711 21.291 33.951 17.288 37.948 17.288 C 38.742 17.288 39.506 17.446 40.222 17.736 C 37.827 18.904 36.147 21.653 36.147 24.861 C 36.147 29.124 39.119 32.582 42.784 32.582 C 42.871 32.582 42.957 32.578 43.044 32.575 C 41.735 34.177 39.936 35.166 37.948 35.166 Z" style="fill: rgb(255, 213, 0);"/>
    <path d="M 42.446 29.358 C 43.787 28.886 44.264 26.606 43.513 24.265 C 42.762 21.923 41.066 20.407 39.725 20.878 C 39.458 20.972 39.227 21.136 39.031 21.36 C 40.011 21.629 40.995 22.736 41.482 24.257 C 42.131 26.279 41.66 28.269 40.43 28.7 C 40.401 28.71 40.371 28.72 40.34 28.729 C 41.024 29.334 41.78 29.592 42.446 29.358 Z" style="transform-origin: 81.093px 63.907px; fill: rgb(255, 213, 0);"/>
  </g>
  <g style="transform-origin: 37.29px 26.227px;" transform="matrix(0.512344, 0.317287, 0.246405, -0.49479, 33.9767, 25.7512)">
    <path d="M 37.948 35.166 C 33.951 35.166 30.711 31.164 30.711 26.226 C 30.711 21.291 33.951 17.288 37.948 17.288 C 38.742 17.288 39.506 17.446 40.222 17.736 C 37.827 18.904 36.147 21.653 36.147 24.861 C 36.147 29.124 39.119 32.582 42.784 32.582 C 42.871 32.582 42.957 32.578 43.044 32.575 C 41.735 34.177 39.936 35.166 37.948 35.166 Z" style="fill: rgb(255, 213, 0);"/>
    <path d="M 42.446 29.358 C 43.787 28.886 44.264 26.606 43.513 24.265 C 42.762 21.923 41.066 20.407 39.725 20.878 C 39.458 20.972 39.227 21.136 39.031 21.36 C 40.011 21.629 40.995 22.736 41.482 24.257 C 42.131 26.279 41.66 28.269 40.43 28.7 C 40.401 28.71 40.371 28.72 40.34 28.729 C 41.024 29.334 41.78 29.592 42.446 29.358 Z" style="transform-origin: 81.093px 63.907px; fill: rgb(255, 213, 0);"/>
  </g>
  <g style="transform-origin: 37.29px 26.227px;" transform="matrix(0.229977, -0.601105, -0.466818, -0.222097, 29.6417, 37.6357)">
    <path d="M 37.948 35.166 C 33.951 35.166 30.711 31.164 30.711 26.226 C 30.711 21.291 33.951 17.288 37.948 17.288 C 38.742 17.288 39.506 17.446 40.222 17.736 C 37.827 18.904 36.147 21.653 36.147 24.861 C 36.147 29.124 39.119 32.582 42.784 32.582 C 42.871 32.582 42.957 32.578 43.044 32.575 C 41.735 34.177 39.936 35.166 37.948 35.166 Z" style="fill: rgb(255, 213, 0);"/>
    <path d="M 42.446 29.358 C 43.787 28.886 44.264 26.606 43.513 24.265 C 42.762 21.923 41.066 20.407 39.725 20.878 C 39.458 20.972 39.227 21.136 39.031 21.36 C 40.011 21.629 40.995 22.736 41.482 24.257 C 42.131 26.279 41.66 28.269 40.43 28.7 C 40.401 28.71 40.371 28.72 40.34 28.729 C 41.024 29.334 41.78 29.592 42.446 29.358 Z" style="transform-origin: 81.093px 63.907px; fill: rgb(255, 213, 0);"/>
  </g>
  <g style="transform-origin: 37.29px 26.227px;" transform="matrix(-0.565675, 0.170811, -0.132652, -0.546295, 41.9248, 35.6214)">
    <path d="M 37.948 35.166 C 33.951 35.166 30.711 31.164 30.711 26.226 C 30.711 21.291 33.951 17.288 37.948 17.288 C 38.742 17.288 39.506 17.446 40.222 17.736 C 37.827 18.904 36.147 21.653 36.147 24.861 C 36.147 29.124 39.119 32.582 42.784 32.582 C 42.871 32.582 42.957 32.578 43.044 32.575 C 41.735 34.177 39.936 35.166 37.948 35.166 Z" style="fill: rgb(255, 213, 0);"/>
    <path d="M 42.446 29.358 C 43.787 28.886 44.264 26.606 43.513 24.265 C 42.762 21.923 41.066 20.407 39.725 20.878 C 39.458 20.972 39.227 21.136 39.031 21.36 C 40.011 21.629 40.995 22.736 41.482 24.257 C 42.131 26.279 41.66 28.269 40.43 28.7 C 40.401 28.71 40.371 28.72 40.34 28.729 C 41.024 29.334 41.78 29.592 42.446 29.358 Z" style="transform-origin: 81.093px 63.907px; fill: rgb(255, 213, 0);"/>
  </g>
  <g style="transform-origin: 37.29px 26.227px;" transform="matrix(0.512344, 0.317287, 0.246405, -0.49479, 33.9767, 25.7512)">
    <path d="M 37.948 35.166 C 33.951 35.166 30.711 31.164 30.711 26.226 C 30.711 21.291 33.951 17.288 37.948 17.288 C 38.742 17.288 39.506 17.446 40.222 17.736 C 37.827 18.904 36.147 21.653 36.147 24.861 C 36.147 29.124 39.119 32.582 42.784 32.582 C 42.871 32.582 42.957 32.578 43.044 32.575 C 41.735 34.177 39.936 35.166 37.948 35.166 Z" style="fill: rgb(255, 213, 0);"/>
    <path d="M 42.446 29.358 C 43.787 28.886 44.264 26.606 43.513 24.265 C 42.762 21.923 41.066 20.407 39.725 20.878 C 39.458 20.972 39.227 21.136 39.031 21.36 C 40.011 21.629 40.995 22.736 41.482 24.257 C 42.131 26.279 41.66 28.269 40.43 28.7 C 40.401 28.71 40.371 28.72 40.34 28.729 C 41.024 29.334 41.78 29.592 42.446 29.358 Z" style="transform-origin: 81.093px 63.907px; fill: rgb(255, 213, 0);"/>
  </g>
  <g style="transform-origin: 37.29px 26.227px;" transform="matrix(0.229977, -0.601105, -0.466818, -0.222097, 29.6417, 37.6357)">
    <path d="M 37.948 35.166 C 33.951 35.166 30.711 31.164 30.711 26.226 C 30.711 21.291 33.951 17.288 37.948 17.288 C 38.742 17.288 39.506 17.446 40.222 17.736 C 37.827 18.904 36.147 21.653 36.147 24.861 C 36.147 29.124 39.119 32.582 42.784 32.582 C 42.871 32.582 42.957 32.578 43.044 32.575 C 41.735 34.177 39.936 35.166 37.948 35.166 Z" style="fill: rgb(255, 213, 0);"/>
    <path d="M 42.446 29.358 C 43.787 28.886 44.264 26.606 43.513 24.265 C 42.762 21.923 41.066 20.407 39.725 20.878 C 39.458 20.972 39.227 21.136 39.031 21.36 C 40.011 21.629 40.995 22.736 41.482 24.257 C 42.131 26.279 41.66 28.269 40.43 28.7 C 40.401 28.71 40.371 28.72 40.34 28.729 C 41.024 29.334 41.78 29.592 42.446 29.358 Z" style="transform-origin: 81.093px 63.907px; fill: rgb(255, 213, 0);"/>
  </g>
</svg>