<?xml version="1.0" encoding="utf-8"?>
<svg xmlns="http://www.w3.org/2000/svg" viewBox="0 0 400 400" xmlns:bx="https://boxy-svg.com">
  <defs>
    <bx:export>
      <bx:file format="svg" path="Sem título.svg"/>
    </bx:export>
    <linearGradient gradientUnits="userSpaceOnUse" x1="33.606" y1="-0.934" x2="33.606" y2="96.198" id="gradient-0" gradientTransform="matrix(1, 0, 0, 1, -0.373621, 20.620208)">
      <stop offset="0" style="stop-color: rgb(100% 95.294% 13.333%)"/>
      <stop offset="1" style="stop-color: rgb(55.825% 54.804% 0%)"/>
    </linearGradient>
    <linearGradient gradientUnits="userSpaceOnUse" x1="102.036" y1="-0.934" x2="102.036" y2="96.198" id="gradient-1" gradientTransform="matrix(1, 0, 0, 1, -0.373621, 20.620208)">
      <stop offset="0" style="stop-color: rgb(100% 95.294% 13.333%)"/>
      <stop offset="1" style="stop-color: rgb(55.825% 54.804% 0%)"/>
    </linearGradient>
    <linearGradient gradientUnits="userSpaceOnUse" x1="168.889" y1="-0.934" x2="168.889" y2="96.198" id="gradient-2" gradientTransform="matrix(1, 0, 0, 1, -0.373621, 20.620208)">
      <stop offset="0" style="stop-color: rgb(100% 95.294% 13.333%)"/>
      <stop offset="1" style="stop-color: rgb(55.825% 54.804% 0%)"/>
    </linearGradient>
    <linearGradient gradientUnits="userSpaceOnUse" x1="-0.771" y1="72.852" x2="-0.771" y2="158.202" id="gradient-3" gradientTransform="matrix(1, 0, 0, 1, -0.373621, 20.620208)">
      <stop offset="0" style="stop-color: rgb(100% 95.294% 13.333%)"/>
      <stop offset="1" style="stop-color: rgb(55.825% 54.804% 0%)"/>
    </linearGradient>
    <linearGradient gradientUnits="userSpaceOnUse" x1="67.659" y1="72.852" x2="67.659" y2="158.202" id="gradient-4" gradientTransform="matrix(1, 0, 0, 1, -0.373621, 20.620208)">
      <stop offset="0" style="stop-color: rgb(100% 95.294% 13.333%)"/>
      <stop offset="1" style="stop-color: rgb(55.825% 54.804% 0%)"/>
    </linearGradient>
    <linearGradient gradientUnits="userSpaceOnUse" x1="134.512" y1="72.852" x2="134.512" y2="158.202" id="gradient-5" gradientTransform="matrix(1, 0, 0, 1, -0.373621, 20.620208)">
      <stop offset="0" style="stop-color: rgb(100% 95.294% 13.333%)"/>
      <stop offset="1" style="stop-color: rgb(55.825% 54.804% 0%)"/>
    </linearGradient>
    <linearGradient gradientUnits="userSpaceOnUse" x1="201.213" y1="72.39" x2="201.213" y2="157.74" id="gradient-6" gradientTransform="matrix(1, 0, 0, 1, -0.373621, 20.620208)">
      <stop offset="0" style="stop-color: rgb(100% 95.294% 13.333%)"/>
      <stop offset="1" style="stop-color: rgb(55.825% 54.804% 0%)"/>
    </linearGradient>
    <linearGradient gradientUnits="userSpaceOnUse" x1="267.2" y1="71.39" x2="267.2" y2="156.74" id="gradient-7" gradientTransform="matrix(1, 0, 0, 1, -0.373621, 20.620208)">
      <stop offset="0" style="stop-color: rgb(100% 95.294% 13.333%)"/>
      <stop offset="1" style="stop-color: rgb(55.825% 54.804% 0%)"/>
    </linearGradient>
    <linearGradient gradientUnits="userSpaceOnUse" x1="332.264" y1="72.39" x2="332.264" y2="157.74" id="gradient-8" gradientTransform="matrix(1, 0, 0, 1, -0.373621, 20.620208)">
      <stop offset="0" style="stop-color: rgb(100% 95.294% 13.333%)"/>
      <stop offset="1" style="stop-color: rgb(55.825% 54.804% 0%)"/>
    </linearGradient>
    <linearGradient gradientUnits="userSpaceOnUse" x1="397.849" y1="71.968" x2="397.849" y2="157.318" id="gradient-9" gradientTransform="matrix(1, 0, 0, 1, -0.373621, 20.620208)">
      <stop offset="0" style="stop-color: rgb(100% 95.294% 13.333%)"/>
      <stop offset="1" style="stop-color: rgb(55.825% 54.804% 0%)"/>
    </linearGradient>
    <linearGradient gradientUnits="userSpaceOnUse" x1="69.542" y1="197.77" x2="69.542" y2="290.976" id="gradient-10" gradientTransform="matrix(1, 0, 0, 1, -0.373621, 20.620208)">
      <stop offset="0" style="stop-color: rgb(100% 95.294% 13.333%)"/>
      <stop offset="1" style="stop-color: rgb(55.825% 54.804% 0%)"/>
    </linearGradient>
    <linearGradient gradientUnits="userSpaceOnUse" x1="136.395" y1="197.77" x2="136.395" y2="290.976" id="gradient-11" gradientTransform="matrix(1, 0, 0, 1, -0.373621, 20.620208)">
      <stop offset="0" style="stop-color: rgb(100% 95.294% 13.333%)"/>
      <stop offset="1" style="stop-color: rgb(55.825% 54.804% 0%)"/>
    </linearGradient>
    <linearGradient gradientUnits="userSpaceOnUse" x1="203.096" y1="197.266" x2="203.096" y2="290.472" id="gradient-12" gradientTransform="matrix(1, 0, 0, 1, -0.373621, 20.620208)">
      <stop offset="0" style="stop-color: rgb(100% 95.294% 13.333%)"/>
      <stop offset="1" style="stop-color: rgb(55.825% 54.804% 0%)"/>
    </linearGradient>
    <linearGradient gradientUnits="userSpaceOnUse" x1="269.083" y1="196.174" x2="269.083" y2="289.38" id="gradient-13" gradientTransform="matrix(1, 0, 0, 1, -0.373621, 20.620208)">
      <stop offset="0" style="stop-color: rgb(100% 95.294% 13.333%)"/>
      <stop offset="1" style="stop-color: rgb(55.825% 54.804% 0%)"/>
    </linearGradient>
    <linearGradient gradientUnits="userSpaceOnUse" x1="334.147" y1="197.266" x2="334.147" y2="290.472" id="gradient-14" gradientTransform="matrix(1, 0, 0, 1, -0.373621, 20.620208)">
      <stop offset="0" style="stop-color: rgb(100% 95.294% 13.333%)"/>
      <stop offset="1" style="stop-color: rgb(55.825% 54.804% 0%)"/>
    </linearGradient>
    <linearGradient gradientUnits="userSpaceOnUse" x1="399.732" y1="196.805" x2="399.732" y2="290.011" id="gradient-15" gradientTransform="matrix(1, 0, 0, 1, -0.373621, 20.620208)">
      <stop offset="0" style="stop-color: rgb(100% 95.294% 13.333%)"/>
      <stop offset="1" style="stop-color: rgb(55.825% 54.804% 0%)"/>
    </linearGradient>
    <linearGradient gradientUnits="userSpaceOnUse" x1="102.383" y1="266.04" x2="102.383" y2="359.246" id="gradient-16" gradientTransform="matrix(1, 0, 0, 1, -0.373621, 20.620208)">
      <stop offset="0" style="stop-color: rgb(100% 95.294% 13.333%)"/>
      <stop offset="1" style="stop-color: rgb(55.825% 54.804% 0%)"/>
    </linearGradient>
    <linearGradient gradientUnits="userSpaceOnUse" x1="169.236" y1="266.04" x2="169.236" y2="359.246" id="gradient-17" gradientTransform="matrix(1, 0, 0, 1, -0.373621, 20.620208)">
      <stop offset="0" style="stop-color: rgb(100% 95.294% 13.333%)"/>
      <stop offset="1" style="stop-color: rgb(55.825% 54.804% 0%)"/>
    </linearGradient>
    <linearGradient gradientUnits="userSpaceOnUse" x1="235.937" y1="265.536" x2="235.937" y2="358.742" id="gradient-18" gradientTransform="matrix(1, 0, 0, 1, -0.373621, 20.620208)">
      <stop offset="0" style="stop-color: rgb(100% 95.294% 13.333%)"/>
      <stop offset="1" style="stop-color: rgb(55.825% 54.804% 0%)"/>
    </linearGradient>
    <linearGradient gradientUnits="userSpaceOnUse" x1="301.924" y1="264.444" x2="301.924" y2="357.65" id="gradient-19" gradientTransform="matrix(1, 0, 0, 1, -0.373621, 20.620208)">
      <stop offset="0" style="stop-color: rgb(100% 95.294% 13.333%)"/>
      <stop offset="1" style="stop-color: rgb(55.825% 54.804% 0%)"/>
    </linearGradient>
    <linearGradient gradientUnits="userSpaceOnUse" x1="366.988" y1="265.536" x2="366.988" y2="358.742" id="gradient-20" gradientTransform="matrix(1, 0, 0, 1, -0.373621, 20.620208)">
      <stop offset="0" style="stop-color: rgb(100% 95.294% 13.333%)"/>
      <stop offset="1" style="stop-color: rgb(55.825% 54.804% 0%)"/>
    </linearGradient>
    <linearGradient gradientUnits="userSpaceOnUse" x1="235.59" y1="-1.46" x2="235.59" y2="95.672" id="gradient-21" gradientTransform="matrix(1, 0, 0, 1, -0.373621, 20.620208)">
      <stop offset="0" style="stop-color: rgb(100% 95.294% 13.333%)"/>
      <stop offset="1" style="stop-color: rgb(55.825% 54.804% 0%)"/>
    </linearGradient>
    <linearGradient gradientUnits="userSpaceOnUse" x1="301.577" y1="-2.598" x2="301.577" y2="94.534" id="gradient-22" gradientTransform="matrix(1, 0, 0, 1, -0.373621, 20.620208)">
      <stop offset="0" style="stop-color: rgb(100% 95.294% 13.333%)"/>
      <stop offset="1" style="stop-color: rgb(55.825% 54.804% 0%)"/>
    </linearGradient>
    <linearGradient gradientUnits="userSpaceOnUse" x1="366.641" y1="-1.46" x2="366.641" y2="95.672" id="gradient-23" gradientTransform="matrix(1, 0, 0, 1, -0.373621, 20.620208)">
      <stop offset="0" style="stop-color: rgb(100% 95.294% 13.333%)"/>
      <stop offset="1" style="stop-color: rgb(55.825% 54.804% 0%)"/>
    </linearGradient>
    <linearGradient gradientUnits="userSpaceOnUse" x1="1.112" y1="197.77" x2="1.112" y2="290.976" id="gradient-24" gradientTransform="matrix(1, 0, 0, 1, -0.373621, 20.620208)">
      <stop offset="0" style="stop-color: rgb(100% 95.294% 13.333%)"/>
      <stop offset="1" style="stop-color: rgb(55.825% 54.804% 0%)"/>
    </linearGradient>
    <linearGradient gradientUnits="userSpaceOnUse" x1="33.953" y1="266.04" x2="33.953" y2="359.246" id="gradient-25" gradientTransform="matrix(1, 0, 0, 1, -0.373621, 20.620208)">
      <stop offset="0" style="stop-color: rgb(100% 95.294% 13.333%)"/>
      <stop offset="1" style="stop-color: rgb(55.825% 54.804% 0%)"/>
    </linearGradient>
    <linearGradient gradientUnits="userSpaceOnUse" x1="151.438" y1="139.092" x2="151.438" y2="157.112" id="gradient-26" gradientTransform="matrix(1, 0, 0, 1, -0.373621, 20.620208)">
      <stop offset="0" style="stop-color: rgb(100% 95.294% 13.333%)"/>
      <stop offset="1" style="stop-color: rgb(55.825% 54.804% 0%)"/>
    </linearGradient>
    <linearGradient gradientUnits="userSpaceOnUse" x1="151.438" y1="139.092" x2="151.438" y2="157.112" id="gradient-27" gradientTransform="matrix(0.725476, 0, 0, 0.775517, 80.916379, 55.888708)">
      <stop offset="0" style="stop-color: rgb(100% 95.294% 13.333%)"/>
      <stop offset="1" style="stop-color: rgb(55.825% 54.804% 0%)"/>
    </linearGradient>
    <linearGradient gradientUnits="userSpaceOnUse" x1="151.438" y1="139.092" x2="151.438" y2="157.112" id="gradient-28" gradientTransform="matrix(1, 0, 0, 1, -35.283621, 85.349708)">
      <stop offset="0" style="stop-color: rgb(100% 95.294% 13.333%)"/>
      <stop offset="1" style="stop-color: rgb(55.825% 54.804% 0%)"/>
    </linearGradient>
    <linearGradient gradientUnits="userSpaceOnUse" x1="151.438" y1="139.092" x2="151.438" y2="157.112" id="gradient-29" gradientTransform="matrix(1, 0, 0, 1, 18.921379, 99.040708)">
      <stop offset="0" style="stop-color: rgb(100% 95.294% 13.333%)"/>
      <stop offset="1" style="stop-color: rgb(55.825% 54.804% 0%)"/>
    </linearGradient>
    <linearGradient gradientUnits="userSpaceOnUse" x1="151.438" y1="139.092" x2="151.438" y2="157.112" id="gradient-30" gradientTransform="matrix(0.791412, 0, 0, 0.705399, 42.406379, 131.076708)">
      <stop offset="0" style="stop-color: rgb(100% 95.294% 13.333%)"/>
      <stop offset="1" style="stop-color: rgb(55.825% 54.804% 0%)"/>
    </linearGradient>
    <linearGradient gradientUnits="userSpaceOnUse" x1="151.438" y1="139.092" x2="151.438" y2="157.112" id="gradient-31" gradientTransform="matrix(1, 0, 0, 1, 152.268379, 137.100708)">
      <stop offset="0" style="stop-color: rgb(100% 95.294% 13.333%)"/>
      <stop offset="1" style="stop-color: rgb(55.825% 54.804% 0%)"/>
    </linearGradient>
    <linearGradient gradientUnits="userSpaceOnUse" x1="151.438" y1="139.092" x2="151.438" y2="157.112" id="gradient-32" gradientTransform="matrix(0.589014, 0, 0, 0.674114, 209.919379, 137.650708)">
      <stop offset="0" style="stop-color: rgb(100% 95.294% 13.333%)"/>
      <stop offset="1" style="stop-color: rgb(55.825% 54.804% 0%)"/>
    </linearGradient>
    <linearGradient gradientUnits="userSpaceOnUse" x1="151.438" y1="139.092" x2="151.438" y2="157.112" id="gradient-33" gradientTransform="matrix(0.589014, 0, 0, 0.674114, 215.791379, 144.624708)">
      <stop offset="0" style="stop-color: rgb(100% 95.294% 13.333%)"/>
      <stop offset="1" style="stop-color: rgb(55.825% 54.804% 0%)"/>
    </linearGradient>
    <linearGradient gradientUnits="userSpaceOnUse" x1="151.438" y1="139.092" x2="151.438" y2="157.112" id="gradient-35" gradientTransform="matrix(1, 0, 0, 1, -100.625621, -82.763792)">
      <stop offset="0" style="stop-color: rgb(100% 95.294% 13.333%)"/>
      <stop offset="1" style="stop-color: rgb(55.825% 54.804% 0%)"/>
    </linearGradient>
    <linearGradient gradientUnits="userSpaceOnUse" x1="151.438" y1="139.092" x2="151.438" y2="157.112" id="gradient-36" gradientTransform="matrix(0.725476, 0, 0, 0.775517, -19.334621, -47.495292)">
      <stop offset="0" style="stop-color: rgb(100% 95.294% 13.333%)"/>
      <stop offset="1" style="stop-color: rgb(55.825% 54.804% 0%)"/>
    </linearGradient>
    <linearGradient gradientUnits="userSpaceOnUse" x1="151.438" y1="139.092" x2="151.438" y2="157.112" id="gradient-37" gradientTransform="matrix(1, 0, 0, 1, -135.535621, -18.034992)">
      <stop offset="0" style="stop-color: rgb(100% 95.294% 13.333%)"/>
      <stop offset="1" style="stop-color: rgb(55.825% 54.804% 0%)"/>
    </linearGradient>
    <linearGradient gradientUnits="userSpaceOnUse" x1="151.438" y1="139.092" x2="151.438" y2="157.112" id="gradient-38" gradientTransform="matrix(1, 0, 0, 1, -81.330621, -4.344092)">
      <stop offset="0" style="stop-color: rgb(100% 95.294% 13.333%)"/>
      <stop offset="1" style="stop-color: rgb(55.825% 54.804% 0%)"/>
    </linearGradient>
    <linearGradient gradientUnits="userSpaceOnUse" x1="151.438" y1="139.092" x2="151.438" y2="157.112" id="gradient-39" gradientTransform="matrix(0.791412, 0, 0, 0.705399, -57.845621, 27.691808)">
      <stop offset="0" style="stop-color: rgb(100% 95.294% 13.333%)"/>
      <stop offset="1" style="stop-color: rgb(55.825% 54.804% 0%)"/>
    </linearGradient>
    <linearGradient gradientUnits="userSpaceOnUse" x1="151.438" y1="139.092" x2="151.438" y2="157.112" id="gradient-34" gradientTransform="matrix(0.758498, 0, 0, 0.689212, -51.773621, -473.832708)">
      <stop offset="0" style="stop-color: rgb(100% 95.294% 13.333%)"/>
      <stop offset="1" style="stop-color: rgb(55.825% 54.804% 0%)"/>
    </linearGradient>
    <linearGradient gradientUnits="userSpaceOnUse" x1="151.438" y1="139.092" x2="151.438" y2="157.112" id="gradient-40" gradientTransform="matrix(0.550272, 0, 0, 0.534495, 9.884379, -449.525708)">
      <stop offset="0" style="stop-color: rgb(100% 95.294% 13.333%)"/>
      <stop offset="1" style="stop-color: rgb(55.825% 54.804% 0%)"/>
    </linearGradient>
    <linearGradient gradientUnits="userSpaceOnUse" x1="151.438" y1="139.092" x2="151.438" y2="157.112" id="gradient-41" gradientTransform="matrix(0.758498, 0, 0, 0.689212, -78.252621, -429.220708)">
      <stop offset="0" style="stop-color: rgb(100% 95.294% 13.333%)"/>
      <stop offset="1" style="stop-color: rgb(55.825% 54.804% 0%)"/>
    </linearGradient>
    <linearGradient gradientUnits="userSpaceOnUse" x1="151.438" y1="139.092" x2="151.438" y2="157.112" id="gradient-42" gradientTransform="matrix(0.758498, 0, 0, 0.689212, -37.138621, -419.784708)">
      <stop offset="0" style="stop-color: rgb(100% 95.294% 13.333%)"/>
      <stop offset="1" style="stop-color: rgb(55.825% 54.804% 0%)"/>
    </linearGradient>
    <linearGradient gradientUnits="userSpaceOnUse" x1="151.438" y1="139.092" x2="151.438" y2="157.112" id="gradient-43" gradientTransform="matrix(0.600285, 0, 0, 0.48617, -19.324621, -397.705708)">
      <stop offset="0" style="stop-color: rgb(100% 95.294% 13.333%)"/>
      <stop offset="1" style="stop-color: rgb(55.825% 54.804% 0%)"/>
    </linearGradient>
  </defs>
  <path d="M 33.232 19.687 L 66.446 43.97 L 66.446 92.536 L 33.232 116.819 L 0.018 92.536 L 0.018 43.97 Z" bx:shape="n-gon 33.232 68.253 38.352 48.566 6 0 1@9aee80cf" style="fill: url(&quot;#gradient-0&quot;); stroke-width: 5px; stroke: rgb(152, 80, 0);"/>
  <path d="M 101.662 19.687 L 136.203 43.97 L 136.203 92.536 L 101.662 116.819 L 67.121 92.536 L 67.121 43.97 Z" bx:shape="n-gon 101.662 68.253 39.884 48.566 6 0 1@d5970d69" style="fill: url(&quot;#gradient-1&quot;); stroke-width: 5px; stroke: rgb(152, 80, 0);"/>
  <path d="M 168.515 19.687 L 200.844 43.97 L 200.844 92.536 L 168.515 116.819 L 136.186 92.536 L 136.186 43.97 Z" bx:shape="n-gon 168.515 68.253 37.33 48.566 6 0 1@0f5cf76d" style="fill: url(&quot;#gradient-2&quot;); stroke-width: 5px; stroke: rgb(152, 80, 0);"/>
  <path d="M 235.216 19.161 L 268.872 43.444 L 268.872 92.01 L 235.216 116.293 L 201.56 92.01 L 201.56 43.444 Z" bx:shape="n-gon 235.216 67.727 38.863 48.566 6 0 1@9d426e8c" style="fill: url(&quot;#gradient-21&quot;); stroke-width: 5px; stroke: rgb(152, 80, 0);"/>
  <path d="M 301.203 18.023 L 333.974 42.306 L 333.974 90.872 L 301.203 115.155 L 268.432 90.872 L 268.432 42.306 Z" bx:shape="n-gon 301.203 66.589 37.841 48.566 6 0 1@02d51344" style="fill: url(&quot;#gradient-22&quot;); stroke-width: 5px; stroke: rgb(152, 80, 0);"/>
  <path d="M 366.267 19.161 L 399.038 43.444 L 399.038 92.01 L 366.267 116.293 L 333.496 92.01 L 333.496 43.444 Z" bx:shape="n-gon 366.267 67.727 37.841 48.566 6 0 1@f578d2c8" style="fill: url(&quot;#gradient-23&quot;); stroke-width: 5px; stroke: rgb(152, 80, 0);"/>
  <path d="M -1.145 93.473 L 32.069 114.81 L 32.069 157.486 L -1.145 178.823 L -34.359 157.486 L -34.359 114.81 Z" bx:shape="n-gon -1.145 136.148 38.352 42.675 6 0 1@1f7ee734" style="fill: url(&quot;#gradient-3&quot;); stroke-width: 5px; stroke: rgb(152, 80, 0);"/>
  <path d="M 67.285 93.473 L 101.826 114.81 L 101.826 157.486 L 67.285 178.823 L 32.744 157.486 L 32.744 114.81 Z" bx:shape="n-gon 67.285 136.148 39.884 42.675 6 0 1@38859843" style="fill: url(&quot;#gradient-4&quot;); stroke-width: 5px; stroke: rgb(152, 80, 0);"/>
  <path d="M 134.138 93.473 L 166.467 114.81 L 166.467 157.486 L 134.138 178.823 L 101.809 157.486 L 101.809 114.81 Z" bx:shape="n-gon 134.138 136.148 37.33 42.675 6 0 1@25d2aed1" style="fill: url(&quot;#gradient-5&quot;); stroke-width: 5px; stroke: rgb(152, 80, 0);"/>
  <path d="M 200.839 93.011 L 234.495 114.349 L 234.495 157.024 L 200.839 178.361 L 167.183 157.024 L 167.183 114.349 Z" bx:shape="n-gon 200.839 135.686 38.863 42.675 6 0 1@ab618bde" style="fill: url(&quot;#gradient-6&quot;); stroke-width: 5px; stroke: rgb(152, 80, 0);"/>
  <path d="M 266.826 92.011 L 299.597 113.349 L 299.597 156.024 L 266.826 177.361 L 234.055 156.024 L 234.055 113.349 Z" bx:shape="n-gon 266.826 134.686 37.841 42.675 6 0 1@c022f71c" style="fill: url(&quot;#gradient-7&quot;); stroke-width: 5px; stroke: rgb(152, 80, 0);"/>
  <path d="M 331.89 93.011 L 364.661 114.349 L 364.661 157.024 L 331.89 178.361 L 299.119 157.024 L 299.119 114.349 Z" bx:shape="n-gon 331.89 135.686 37.841 42.675 6 0 1@22dc04f1" style="fill: url(&quot;#gradient-8&quot;); stroke-width: 5px; stroke: rgb(152, 80, 0);"/>
  <path d="M 397.475 92.588 L 430.689 113.926 L 430.689 156.601 L 397.475 177.938 L 364.261 156.601 L 364.261 113.926 Z" bx:shape="n-gon 397.475 135.263 38.352 42.675 6 0 1@51bdff1e" style="fill: url(&quot;#gradient-9&quot;); stroke-width: 5px; stroke: rgb(152, 80, 0);"/>
  <path d="M 33.232 157.694 L 66.446 178.704 L 66.446 220.724 L 33.232 241.734 L 0.018 220.724 L 0.018 178.704 Z" bx:shape="n-gon 33.232 199.714 38.352 42.02 6 0 1@002ddc0b" style="fill: rgb(255, 243, 34); stroke-width: 5px; stroke: rgb(152, 80, 0);"/>
  <path d="M 101.662 157.694 L 136.203 178.704 L 136.203 220.724 L 101.662 241.734 L 67.121 220.724 L 67.121 178.704 Z" bx:shape="n-gon 101.662 199.714 39.884 42.02 6 0 1@60994b99" style="fill: rgb(255, 243, 34); stroke-width: 5px; stroke: rgb(152, 80, 0);"/>
  <path d="M 168.515 157.694 L 200.844 178.704 L 200.844 220.724 L 168.515 241.734 L 136.186 220.724 L 136.186 178.704 Z" bx:shape="n-gon 168.515 199.714 37.33 42.02 6 0 1@d4ee60ab" style="fill: rgb(255, 243, 34); stroke: rgb(152, 80, 0); stroke-width: 3px;"/>
  <path d="M 235.216 157.238 L 268.872 178.248 L 268.872 220.268 L 235.216 241.278 L 201.56 220.268 L 201.56 178.248 Z" bx:shape="n-gon 235.216 199.258 38.863 42.02 6 0 1@4e235070" style="fill: rgb(255, 243, 34); stroke: rgb(152, 80, 0); stroke-width: 3px;"/>
  <path d="M 301.203 156.254 L 333.974 177.264 L 333.974 219.284 L 301.203 240.294 L 268.432 219.284 L 268.432 177.264 Z" bx:shape="n-gon 301.203 198.274 37.841 42.02 6 0 1@9c6ac294" style="fill: rgb(255, 243, 34); stroke: rgb(152, 80, 0); stroke-width: 3px;"/>
  <path d="M 366.267 157.239 L 399.038 178.249 L 399.038 220.269 L 366.267 241.279 L 333.496 220.269 L 333.496 178.249 Z" bx:shape="n-gon 366.267 199.259 37.841 42.02 6 0 1@7dc46f41" style="fill: rgb(255, 243, 34); stroke: rgb(152, 80, 0); stroke-width: 3px;"/>
  <path d="M 0.738 218.39 L 33.952 241.692 L 33.952 288.295 L 0.738 311.596 L -32.476 288.295 L -32.476 241.692 Z" bx:shape="n-gon 0.738 264.993 38.352 46.603 6 0 1@38a4eeb8" style="fill: url(&quot;#gradient-24&quot;); stroke-width: 5px; stroke: rgb(152, 80, 0);"/>
  <path d="M 69.168 218.39 L 103.709 241.692 L 103.709 288.295 L 69.168 311.596 L 34.627 288.295 L 34.627 241.692 Z" bx:shape="n-gon 69.168 264.993 39.884 46.603 6 0 1@4eea317f" style="fill: url(&quot;#gradient-10&quot;); stroke-width: 5px; stroke: rgb(152, 80, 0);"/>
  <path d="M 136.021 218.39 L 168.35 241.692 L 168.35 288.295 L 136.021 311.596 L 103.692 288.295 L 103.692 241.692 Z" bx:shape="n-gon 136.021 264.993 37.33 46.603 6 0 1@a9c4d37e" style="fill: url(&quot;#gradient-11&quot;); stroke-width: 5px; stroke: rgb(152, 80, 0);"/>
  <path d="M 202.722 217.887 L 236.378 241.189 L 236.378 287.792 L 202.722 311.093 L 169.066 287.792 L 169.066 241.189 Z" bx:shape="n-gon 202.722 264.49 38.863 46.603 6 0 1@d56c2a34" style="fill: url(&quot;#gradient-12&quot;); stroke-width: 5px; stroke: rgb(152, 80, 0);"/>
  <path d="M 268.709 216.794 L 301.48 240.096 L 301.48 286.698 L 268.709 310 L 235.938 286.699 L 235.938 240.096 Z" bx:shape="n-gon 268.709 263.397 37.841 46.603 6 0 1@f3875463" style="fill: url(&quot;#gradient-13&quot;); stroke-width: 5px; stroke: rgb(152, 80, 0);"/>
  <path d="M 333.773 217.887 L 366.544 241.189 L 366.544 287.792 L 333.773 311.093 L 301.002 287.792 L 301.002 241.189 Z" bx:shape="n-gon 333.773 264.49 37.841 46.603 6 0 1@0061b950" style="fill: url(&quot;#gradient-14&quot;); stroke-width: 5px; stroke: rgb(152, 80, 0);"/>
  <path d="M 399.358 217.425 L 432.572 240.727 L 432.572 287.33 L 399.358 310.631 L 366.144 287.33 L 366.144 240.727 Z" bx:shape="n-gon 399.358 264.028 38.352 46.603 6 0 1@3d24c9cf" style="fill: url(&quot;#gradient-15&quot;); stroke-width: 5px; stroke: rgb(152, 80, 0);"/>
  <path d="M 33.579 286.66 L 66.793 309.962 L 66.793 356.564 L 33.579 379.866 L 0.365 356.565 L 0.365 309.962 Z" bx:shape="n-gon 33.579 333.263 38.352 46.603 6 0 1@3be936f6" style="fill: url(&quot;#gradient-25&quot;); stroke-width: 5px; stroke: rgb(152, 80, 0);"/>
  <path d="M 102.009 286.66 L 136.55 309.962 L 136.55 356.564 L 102.009 379.866 L 67.468 356.565 L 67.468 309.962 Z" bx:shape="n-gon 102.009 333.263 39.884 46.603 6 0 1@ade4df1e" style="fill: url(&quot;#gradient-16&quot;); stroke-width: 5px; stroke: rgb(152, 80, 0);"/>
  <path d="M 168.862 286.66 L 201.191 309.962 L 201.191 356.564 L 168.862 379.866 L 136.533 356.565 L 136.533 309.962 Z" bx:shape="n-gon 168.862 333.263 37.33 46.603 6 0 1@0ec94015" style="fill: url(&quot;#gradient-17&quot;); stroke-width: 5px; stroke: rgb(152, 80, 0);"/>
  <path d="M 235.563 286.156 L 269.219 309.458 L 269.219 356.061 L 235.563 379.362 L 201.907 356.061 L 201.907 309.458 Z" bx:shape="n-gon 235.563 332.759 38.863 46.603 6 0 1@1b2b442d" style="fill: url(&quot;#gradient-18&quot;); stroke-width: 5px; stroke: rgb(152, 80, 0);"/>
  <path d="M 301.55 285.064 L 334.321 308.366 L 334.321 354.968 L 301.55 378.27 L 268.779 354.969 L 268.779 308.366 Z" bx:shape="n-gon 301.55 331.667 37.841 46.603 6 0 1@bd01b1e4" style="fill: url(&quot;#gradient-19&quot;); stroke-width: 5px; stroke: rgb(152, 80, 0);"/>
  <path d="M 366.614 286.156 L 399.385 309.458 L 399.385 356.061 L 366.614 379.362 L 333.843 356.061 L 333.843 309.458 Z" bx:shape="n-gon 366.614 332.759 37.841 46.603 6 0 1@fbad28ce" style="fill: url(&quot;#gradient-20&quot;); stroke-width: 5px; stroke: rgb(152, 80, 0);"/>
  <path d="M 0.085 358.389 L 33.299 379.727 L 33.299 422.402 L 0.085 443.739 L -33.129 422.402 L -33.129 379.727 Z" bx:shape="n-gon 0.085 401.064 38.352 42.675 6 0 1@94cfdf28" style="fill: rgb(255, 243, 34); stroke-width: 5px; stroke: rgb(152, 80, 0);"/>
  <path d="M 68.515 358.389 L 103.056 379.727 L 103.056 422.402 L 68.515 443.739 L 33.974 422.402 L 33.974 379.727 Z" bx:shape="n-gon 68.515 401.064 39.884 42.675 6 0 1@173b3cbd" style="fill: rgb(255, 243, 34); stroke-width: 5px; stroke: rgb(152, 80, 0);"/>
  <path d="M 135.368 358.389 L 167.697 379.727 L 167.697 422.402 L 135.368 443.739 L 103.039 422.402 L 103.039 379.727 Z" bx:shape="n-gon 135.368 401.064 37.33 42.675 6 0 1@58d8994c" style="fill: rgb(255, 243, 34); stroke-width: 5px; stroke: rgb(152, 80, 0);"/>
  <path d="M 202.069 357.926 L 235.725 379.264 L 235.725 421.939 L 202.069 443.276 L 168.413 421.939 L 168.413 379.264 Z" bx:shape="n-gon 202.069 400.601 38.863 42.675 6 0 1@3958f3ad" style="fill: rgb(255, 243, 34); stroke-width: 5px; stroke: rgb(152, 80, 0);"/>
  <path d="M 268.056 356.927 L 300.827 378.265 L 300.827 420.939 L 268.056 442.277 L 235.285 420.94 L 235.285 378.265 Z" bx:shape="n-gon 268.056 399.602 37.841 42.675 6 0 1@1fc1a4da" style="fill: rgb(255, 243, 34); stroke-width: 5px; stroke: rgb(152, 80, 0);"/>
  <path d="M 333.12 357.927 L 365.891 379.265 L 365.891 421.939 L 333.12 443.277 L 300.349 421.94 L 300.349 379.265 Z" bx:shape="n-gon 333.12 400.602 37.841 42.675 6 0 1@d2077b64" style="fill: rgb(255, 243, 34); stroke-width: 5px; stroke: rgb(152, 80, 0);"/>
  <path d="M 398.705 357.504 L 431.919 378.842 L 431.919 421.516 L 398.705 442.854 L 365.491 421.517 L 365.491 378.842 Z" bx:shape="n-gon 398.705 400.179 38.352 42.675 6 0 1@f66519b9" style="fill: rgb(255, 243, 34); stroke-width: 5px; stroke: rgb(152, 80, 0);"/>
  <path d="M -0.376 -13.051 L 32.838 1.414 L 32.838 30.342 L -0.376 44.807 L -33.59 30.343 L -33.59 1.413 Z" bx:shape="n-gon -0.376 15.878 38.352 28.929 6 0 1@7d5732ce" style="fill: rgb(255, 243, 34); stroke-width: 5px; stroke: rgb(152, 80, 0);"/>
  <path d="M 68.054 -13.051 L 102.595 1.414 L 102.595 30.342 L 68.054 44.807 L 33.513 30.343 L 33.513 1.413 Z" bx:shape="n-gon 68.054 15.878 39.884 28.929 6 0 1@0d821bb3" style="fill: rgb(255, 243, 34); stroke-width: 5px; stroke: rgb(152, 80, 0);"/>
  <path d="M 134.907 -13.051 L 167.236 1.414 L 167.236 30.342 L 134.907 44.807 L 102.578 30.343 L 102.578 1.413 Z" bx:shape="n-gon 134.907 15.878 37.33 28.929 6 0 1@39da1590" style="fill: rgb(255, 243, 34); stroke-width: 5px; stroke: rgb(152, 80, 0);"/>
  <path d="M 201.608 -13.364 L 235.264 1.101 L 235.264 30.029 L 201.608 44.494 L 167.952 30.03 L 167.952 1.1 Z" bx:shape="n-gon 201.608 15.565 38.863 28.929 6 0 1@8a2e16b6" style="fill: rgb(255, 243, 34); stroke-width: 5px; stroke: rgb(152, 80, 0);"/>
  <path d="M 267.595 -14.042 L 300.366 0.423 L 300.366 29.351 L 267.595 43.816 L 234.824 29.352 L 234.824 0.422 Z" bx:shape="n-gon 267.595 14.887 37.841 28.929 6 0 1@b0a4e1a2" style="fill: rgb(255, 243, 34); stroke-width: 5px; stroke: rgb(152, 80, 0);"/>
  <path d="M 332.659 -13.364 L 365.43 1.101 L 365.43 30.029 L 332.659 44.494 L 299.888 30.03 L 299.888 1.1 Z" bx:shape="n-gon 332.659 15.565 37.841 28.929 6 0 1@2944f65e" style="fill: rgb(255, 243, 34); stroke-width: 5px; stroke: rgb(152, 80, 0);"/>
  <path d="M 398.244 -13.65 L 431.458 0.815 L 431.458 29.743 L 398.244 44.208 L 365.03 29.744 L 365.03 0.814 Z" bx:shape="n-gon 398.244 15.279 38.352 28.929 6 0 1@f6d212ac" style="fill: rgb(255, 243, 34); stroke-width: 5px; stroke: rgb(152, 80, 0);"/>
  <ellipse style="fill: url(&quot;#gradient-26&quot;); stroke: rgb(152, 80, 0); stroke-width: 3px;" cx="151.064" cy="168.723" rx="9.377" ry="9.01"/>
  <ellipse style="fill: url(&quot;#gradient-27&quot;); stroke: rgb(152, 80, 0); stroke-width: 3px;" cx="190.781" cy="170.744" rx="6.803" ry="6.987"/>
  <ellipse style="fill: url(&quot;#gradient-28&quot;); stroke: rgb(152, 80, 0); stroke-width: 3px;" cx="116.154" cy="233.451" rx="9.377" ry="9.01"/>
  <ellipse style="fill: url(&quot;#gradient-29&quot;); stroke: rgb(152, 80, 0); stroke-width: 3px;" cx="170.359" cy="247.143" rx="9.377" ry="9.01"/>
  <ellipse style="fill: url(&quot;#gradient-30&quot;); stroke: rgb(152, 80, 0); stroke-width: 3px;" cx="162.257" cy="235.548" rx="7.421" ry="6.356"/>
  <ellipse style="fill: url(&quot;#gradient-31&quot;); stroke-width: 5px; stroke: rgb(152, 80, 0);" cx="303.706" cy="285.203" rx="9.377" ry="9.01"/>
  <ellipse style="fill: url(&quot;#gradient-32&quot;); stroke: rgb(152, 80, 0); stroke-width: 3px;" cx="299.118" cy="237.488" rx="5.523" ry="6.074"/>
  <ellipse style="fill: url(&quot;#gradient-33&quot;); stroke: rgb(152, 80, 0); stroke-width: 3px;" cx="304.99" cy="244.462" rx="5.523" ry="6.074"/>
  <ellipse style="fill: url(&quot;#gradient-35&quot;); stroke: rgb(152, 80, 0); stroke-width: 3px;" cx="50.812" cy="65.338" rx="9.377" ry="9.01"/>
  <ellipse style="fill: url(&quot;#gradient-36&quot;); stroke: rgb(152, 80, 0); stroke-width: 3px;" cx="90.529" cy="67.361" rx="6.803" ry="6.987"/>
  <ellipse style="fill: url(&quot;#gradient-37&quot;); stroke: rgb(152, 80, 0); stroke-width: 3px;" cx="15.902" cy="130.067" rx="9.377" ry="9.01"/>
  <ellipse style="fill: url(&quot;#gradient-38&quot;); stroke: rgb(152, 80, 0); stroke-width: 3px;" cx="70.107" cy="143.759" rx="9.377" ry="9.01"/>
  <ellipse style="fill: url(&quot;#gradient-39&quot;); stroke: rgb(152, 80, 0); stroke-width: 3px;" cx="62.005" cy="132.163" rx="7.421" ry="6.356"/>
  <ellipse style="fill: url(&quot;#gradient-34&quot;); stroke-width: 5px; stroke: rgb(152, 80, 0);" cx="63.091" cy="-371.75" rx="7.112" ry="6.21" transform="matrix(1, 0, 0, -1, 0, 0)"/>
  <ellipse style="fill: url(&quot;#gradient-40&quot;); stroke-width: 5px; stroke: rgb(152, 80, 0);" cx="93.216" cy="-370.36" rx="5.16" ry="4.816" transform="matrix(1, 0, 0, -1, 0, 0)"/>
  <ellipse style="fill: url(&quot;#gradient-41&quot;); stroke-width: 5px; stroke: rgb(152, 80, 0);" cx="36.611" cy="-327.14" rx="7.112" ry="6.21" transform="matrix(1, 0, 0, -1, 0, 0)"/>
  <ellipse style="fill: url(&quot;#gradient-42&quot;); stroke-width: 5px; stroke: rgb(152, 80, 0);" cx="77.726" cy="-317.71" rx="7.112" ry="6.21" transform="matrix(1, 0, 0, -1, 0, 0)"/>
  <ellipse style="fill: url(&quot;#gradient-43&quot;); stroke-width: 5px; stroke: rgb(152, 80, 0);" cx="71.58" cy="-325.7" rx="5.629" ry="4.381" transform="matrix(1, 0, 0, -1, 0, 0)"/>
</svg>