<?xml version="1.0" encoding="utf-8"?>
<svg xmlns="http://www.w3.org/2000/svg" viewBox="0 0 100 80" width="100px" height="80px" xmlns:bx="https://boxy-svg.com">
  <defs>
    <filter id="gaussian-blur-filter-0" bx:preset="gaussian-blur 1 5" color-interpolation-filters="sRGB" x="-50%" y="-50%" width="200%" height="200%">
      <feGaussianBlur stdDeviation="5 5" edgeMode="none"/>
    </filter>
    <linearGradient gradientUnits="userSpaceOnUse" x1="87.543" y1="44.932" x2="87.543" y2="71.698" id="gradient-0">
      <stop offset="0" style="stop-color: rgb(0% 100% 97.255%)"/>
      <stop offset="1" style="stop-color: rgb(0% 57.811% 56.235%)"/>
    </linearGradient>
    <linearGradient gradientUnits="userSpaceOnUse" x1="13.571" y1="44.68" x2="13.571" y2="71.446" id="gradient-1">
      <stop offset="0" style="stop-color: rgb(0% 100% 93.725%)"/>
      <stop offset="1" style="stop-color: rgb(0% 57.835% 53.772%)"/>
    </linearGradient>
    <filter id="filter-1" bx:preset="gaussian-blur 1 5" color-interpolation-filters="sRGB" x="-50%" y="-50%" width="200%" height="200%">
      <feGaussianBlur stdDeviation="5 5" edgeMode="none"/>
    </filter>
  </defs>
  <path d="M 3.131 64.946 L 0.967 43.626 C 3.198 34.859 7.752 27.872 13.469 24.392 L 86.303 24.392 C 92.02 27.887 96.573 34.899 98.805 43.702 L 95.297 64.472 L 48.918 64.827 L 48.918 64.668 L 3.073 64.947" style="stroke: rgb(0, 0, 0); fill: rgb(46, 16, 10);" transform="matrix(-0.99997895956, -0.006442999933, 0.006442999933, -0.99997895956, 99.483529885323, 89.539494276125)"/>
  <rect x="0.989" y="32.29" width="97.749" height="46.897" style="fill: rgb(119, 43, 28); stroke: rgb(0, 255, 248); stroke-width: 2px;"/>
  <path stroke="rgb(255,0,0)" stroke-width="0" d="M 43.933 -8.516 C 44.832 -8.735 45.446 -8.546 46.168 -8.357 C 46.873 -8.172 47.439 -8.064 48.217 -7.412 C 49.27 -6.532 50.997 -4.54 51.896 -2.92 C 52.662 -1.537 53.109 -0.248 53.479 1.492 C 53.898 3.461 54.114 7.264 54.131 8.427 C 54.138 8.934 53.875 9.007 54.038 9.293 C 54.433 9.99 57.237 10.462 58.648 11.343 C 59.969 12.168 61.152 13.282 62.282 14.337 C 63.349 15.337 64.331 16.258 65.262 17.49 C 66.211 18.746 67.195 20.459 67.916 21.824 C 68.531 22.984 68.934 23.788 69.407 25.133 C 69.969 26.735 70.555 28.756 70.99 30.966 C 71.481 33.464 71.922 37.127 72.107 39.477 C 72.251 41.291 72.328 42.296 72.202 44.048 C 72.043 46.219 71.563 48.928 70.99 51.613 C 70.339 54.659 69.478 58.516 68.382 61.385 C 67.334 64.131 65.932 66.578 64.61 68.557 C 63.392 70.378 62.214 71.73 60.79 72.968 C 59.282 74.283 58.032 75.497 55.761 76.12 C 52.457 77.027 45.395 77.331 42.069 76.12 C 39.706 75.26 38.576 73.529 36.854 71.708 C 35.018 69.767 32.937 67.227 31.406 64.694 C 29.98 62.341 28.796 59.532 27.865 57.132 C 27.058 55.044 26.488 53.153 26.003 51.139 C 25.536 49.211 25.161 47.203 24.978 45.309 C 24.806 43.53 24.838 42.017 24.885 40.107 C 24.938 37.921 25.018 35.071 25.35 32.856 C 25.662 30.79 26.168 28.872 26.748 27.183 C 27.297 25.581 28.2 24.877 28.703 22.927 C 29.363 20.373 29.178 15.816 29.915 12.526 C 30.661 9.19 32.143 5.463 33.174 3.069 C 33.969 1.227 34.522 0.305 35.457 -1.109 C 36.552 -2.761 38.029 -4.912 39.461 -6.151 C 40.859 -7.359 42.723 -8.219 43.933 -8.516 Z" style="stroke: rgb(129, 151, 57); stroke-width: 2px; filter: url(&quot;#gaussian-blur-filter-0&quot;); fill: rgba(0, 255, 220, 0.718); transform-box: fill-box; transform-origin: 50% 50%;" transform="matrix(0.047259, -0.998883, 0.998883, 0.047259, -0.000005, 0)"/>
  <rect x="4.671" y="32.428" width="90.938" height="43.989" style="fill: rgb(0, 255, 255); stroke: rgb(255, 255, 255);"/>
  <rect x="8.905" y="32.336" width="82.838" height="41.681" style="fill: rgb(119, 43, 28); stroke: rgb(160, 255, 252);"/>
  <rect x="47.58" y="45.609" width="7.715" height="31.037" style="stroke: rgb(0, 0, 0); fill: rgb(77, 23, 12);"/>
  <ellipse style="stroke: rgb(0, 0, 0); fill: rgb(77, 23, 12);" cx="50.849" cy="40.69" rx="13.071" ry="13.386"/>
  <ellipse style="stroke: rgb(0, 0, 0); fill: rgb(30, 8, 4);" cx="51.015" cy="40.838" rx="10.109" ry="10.167"/>
  <ellipse style="fill: rgb(0, 227, 255); stroke: rgb(255, 255, 255);" cx="51.108" cy="40.213" rx="6.151" ry="6.509"/>
  <path d="M 11.328 44.68 L 15.814 44.68 L 15.814 46.859 C 14.43 47.109 13.422 47.88 13.422 48.792 C 13.422 49.704 14.43 50.475 15.814 50.725 L 15.814 53.203 C 15.789 53.203 15.764 53.203 15.739 53.203 C 13.881 53.203 12.375 54.107 12.375 55.222 C 12.375 56.337 13.881 57.241 15.739 57.241 C 15.764 57.241 15.789 57.241 15.814 57.241 L 15.814 59.544 C 14.353 59.764 13.272 60.557 13.272 61.502 C 13.272 62.447 14.353 63.24 15.814 63.46 L 15.814 65.913 C 15.805 65.913 15.795 65.913 15.786 65.913 C 13.928 65.913 12.422 66.817 12.422 67.932 C 12.422 69.047 13.928 69.951 15.786 69.951 C 15.795 69.951 15.805 69.951 15.814 69.951 L 15.814 71.446 L 11.328 71.446 L 11.328 44.68 Z" style="fill: rgb(77, 23, 12);"/>
  <path d="M 11.328 44.68 L 15.814 44.68 L 15.814 46.859 C 14.43 47.109 13.422 47.88 13.422 48.792 C 13.422 49.704 14.43 50.475 15.814 50.725 L 15.814 53.203 C 15.789 53.203 15.764 53.203 15.739 53.203 C 13.881 53.203 12.375 54.107 12.375 55.222 C 12.375 56.337 13.881 57.241 15.739 57.241 C 15.764 57.241 15.789 57.241 15.814 57.241 L 15.814 59.544 C 14.353 59.764 13.272 60.557 13.272 61.502 C 13.272 62.447 14.353 63.24 15.814 63.46 L 15.814 65.913 C 15.805 65.913 15.795 65.913 15.786 65.913 C 13.928 65.913 12.422 66.817 12.422 67.932 C 12.422 69.047 13.928 69.951 15.786 69.951 C 15.795 69.951 15.805 69.951 15.814 69.951 L 15.814 71.446 L 11.328 71.446 L 11.328 44.68 Z" style="fill: url(&quot;#gradient-1&quot;);"/>
  <path d="M 85.3 71.698 L 89.786 71.698 L 89.786 69.519 C 88.402 69.269 87.394 68.498 87.394 67.586 C 87.394 66.674 88.402 65.903 89.786 65.653 L 89.786 63.175 C 89.761 63.175 89.736 63.175 89.711 63.175 C 87.853 63.175 86.347 62.271 86.347 61.156 C 86.347 60.041 87.853 59.137 89.711 59.137 C 89.736 59.137 89.761 59.137 89.786 59.137 L 89.786 56.834 C 88.325 56.614 87.244 55.821 87.244 54.876 C 87.244 53.931 88.325 53.138 89.786 52.918 L 89.786 50.465 C 89.777 50.465 89.767 50.465 89.758 50.465 C 87.9 50.465 86.394 49.561 86.394 48.446 C 86.394 47.331 87.9 46.427 89.758 46.427 C 89.767 46.427 89.777 46.427 89.786 46.427 L 89.786 44.932 L 85.3 44.932 L 85.3 71.698 Z" style="transform-origin: 87.543px 58.315px; fill: url(&quot;#gradient-0&quot;);" transform="matrix(-1, 0, 0, -1, -0.000002, 0.000007)"/>
  <path stroke="rgb(255,0,0)" stroke-width="0" d="M 45.791 9.187 C 46.549 8.977 47.066 9.159 47.675 9.34 C 48.269 9.518 48.746 9.622 49.402 10.249 C 50.29 11.096 51.746 13.012 52.503 14.57 C 53.149 15.9 53.526 17.14 53.838 18.813 C 54.191 20.707 54.373 24.365 54.387 25.484 C 54.393 25.972 54.172 26.042 54.309 26.317 C 54.642 26.987 57.005 27.441 58.195 28.289 C 59.308 29.082 60.306 30.154 61.257 31.168 C 62.157 32.13 62.984 33.016 63.769 34.201 C 64.569 35.409 65.399 37.057 66.006 38.37 C 66.525 39.485 66.864 40.259 67.263 41.552 C 67.737 43.093 68.231 45.037 68.598 47.163 C 69.011 49.566 69.383 53.089 69.539 55.349 C 69.66 57.094 69.725 58.061 69.619 59.746 C 69.485 61.834 69.081 64.439 68.598 67.022 C 68.049 69.952 67.323 73.662 66.399 76.421 C 65.516 79.062 64.334 81.416 63.22 83.319 C 62.193 85.071 61.2 86.371 60 87.562 C 58.729 88.827 57.676 89.995 55.761 90.594 C 52.976 91.466 47.023 91.759 44.22 90.594 C 42.228 89.767 41.275 88.102 39.824 86.35 C 38.276 84.483 36.522 82.04 35.232 79.604 C 34.03 77.341 33.032 74.639 32.247 72.33 C 31.567 70.322 31.086 68.503 30.677 66.566 C 30.284 64.712 29.967 62.78 29.813 60.959 C 29.668 59.247 29.695 57.792 29.735 55.955 C 29.779 53.852 29.847 51.111 30.127 48.981 C 30.39 46.994 30.816 45.149 31.305 43.524 C 31.768 41.983 32.529 41.306 32.953 39.431 C 33.509 36.974 33.354 32.591 33.975 29.426 C 34.604 26.218 35.853 22.633 36.722 20.33 C 37.392 18.559 37.858 17.672 38.646 16.312 C 39.569 14.723 40.814 12.654 42.021 11.462 C 43.2 10.3 44.771 9.473 45.791 9.187 Z" style="stroke: rgb(129, 151, 57); stroke-width: 2px; filter: url(&quot;#filter-1&quot;); transform-origin: 49.688px 50.227px; fill: rgba(0, 255, 220, 0.204);" transform="matrix(0.047259, -0.998883, 0.998883, 0.047259, -0.000001, 0.000001)"/>
</svg>