<?xml version="1.0" encoding="utf-8"?>
<svg xmlns="http://www.w3.org/2000/svg" viewBox="0 0 400 400" width="400px" height="400px" xmlns:bx="https://boxy-svg.com">
  <defs>
    <radialGradient gradientUnits="userSpaceOnUse" cx="107.909" cy="116.311" r="71.776" id="gradient-36" gradientTransform="matrix(1, 0, 0, 1, 0.000009, -0.000007)">
      <stop offset="0" style="stop-color: rgb(18.824% 34.51% 5.098%)"/>
      <stop offset="1" style="stop-color: rgb(7.0899% 22.122% 0%)"/>
    </radialGradient>
    <linearGradient gradientUnits="userSpaceOnUse" x1="136.905" y1="99.519" x2="136.905" y2="128.382" id="gradient-37" gradientTransform="matrix(0.833977, 0, 0, -1.305595, -6.267665, 265.08416)">
      <stop offset="0" style="stop-color: rgb(8.2353% 22.745% 3.9216%)"/>
      <stop offset="1" style="stop-color: rgb(3.7408% 15.16% 0%)"/>
    </linearGradient>
    <radialGradient gradientUnits="userSpaceOnUse" cx="107.909" cy="116.311" r="71.776" id="gradient-38" gradientTransform="matrix(1, 0, 0, 1, 0.000009, -0.000007)">
      <stop offset="0" style="stop-color: rgb(18.824% 34.51% 5.098%)"/>
      <stop offset="1" style="stop-color: rgb(7.0899% 22.122% 0%)"/>
    </radialGradient>
    <linearGradient gradientUnits="userSpaceOnUse" x1="136.905" y1="99.519" x2="136.905" y2="128.382" id="gradient-39" gradientTransform="matrix(0.833977, 0, 0, -1.305595, -6.267665, 265.08416)">
      <stop offset="0" style="stop-color: rgb(8.2353% 22.745% 3.9216%)"/>
      <stop offset="1" style="stop-color: rgb(3.7408% 15.16% 0%)"/>
    </linearGradient>
    <radialGradient gradientUnits="userSpaceOnUse" cx="107.909" cy="116.311" r="71.776" id="gradient-40" gradientTransform="matrix(1, 0, 0, 1, 0.000009, -0.000007)">
      <stop offset="0" style="stop-color: rgb(18.824% 34.51% 5.098%)"/>
      <stop offset="1" style="stop-color: rgb(7.0899% 22.122% 0%)"/>
    </radialGradient>
    <linearGradient gradientUnits="userSpaceOnUse" x1="136.905" y1="99.519" x2="136.905" y2="128.382" id="gradient-41" gradientTransform="matrix(0.833977, 0, 0, -1.305595, -6.267665, 265.08416)">
      <stop offset="0" style="stop-color: rgb(8.2353% 22.745% 3.9216%)"/>
      <stop offset="1" style="stop-color: rgb(3.7408% 15.16% 0%)"/>
    </linearGradient>
    <filter id="filter-5" bx:preset="gaussian-blur 1 5" color-interpolation-filters="sRGB" x="-50%" y="-50%" width="200%" height="200%">
      <feGaussianBlur stdDeviation="5 5" edgeMode="none"/>
    </filter>
    <filter id="filter-6" bx:preset="gaussian-blur 1 5" color-interpolation-filters="sRGB" x="-50%" y="-50%" width="200%" height="200%">
      <feGaussianBlur stdDeviation="5 5" edgeMode="none"/>
    </filter>
    <filter id="filter-7" bx:preset="gaussian-blur 1 5" color-interpolation-filters="sRGB" x="-50%" y="-50%" width="200%" height="200%">
      <feGaussianBlur stdDeviation="5 5" edgeMode="none"/>
    </filter>
    <filter id="filter-8" bx:preset="gaussian-blur 1 5" color-interpolation-filters="sRGB" x="-50%" y="-50%" width="200%" height="200%">
      <feGaussianBlur stdDeviation="5 5" edgeMode="none"/>
    </filter>
    <radialGradient gradientUnits="userSpaceOnUse" cx="202.437" cy="202.646" r="203.434" id="gradient-1" gradientTransform="matrix(1.090203, -0.006443, 0.00591, 0.999983, -19.458059, 1.307856)">
      <stop offset="0" style="stop-color: rgb(64, 28, 19);"/>
      <stop offset="0.507" style="stop-color: rgb(62, 27, 18);"/>
      <stop offset="1" style="stop-color: rgb(84, 38, 26);"/>
    </radialGradient>
  </defs>
  <rect x="-0.997" y="-0.378" width="406.867" height="406.048" style="fill: url(&quot;#gradient-1&quot;);"/>
  <g transform="matrix(0.946005, 0, 0, 0.963438, 2.303932, 1.582011)" style="">
    <rect x="335.302" y="0.009" width="80" height="80" style="fill: none; stroke-width: 3px; stroke-dasharray: 20; stroke: rgb(48, 24, 18);"/>
    <rect x="251.353" y="1.058" width="80" height="80" style="fill: none; stroke-width: 3px; stroke-dasharray: 20; stroke: rgb(48, 24, 18);"/>
    <rect x="167.343" y="1.034" width="80" height="80" style="fill: none; stroke-width: 3px; stroke-dasharray: 20; stroke: rgb(48, 24, 18);"/>
    <rect x="84.443" y="0.034" width="80" height="80" style="fill: none; stroke-width: 3px; stroke-dasharray: 20; stroke: rgb(48, 24, 18);"/>
    <rect x="0.531" y="1.022" width="80" height="80" style="fill: none; stroke-width: 3px; stroke-dasharray: 20; stroke: rgb(48, 24, 18);"/>
  </g>
  <g transform="matrix(0.955769, 0, 0, 0.963438, 0.370584, 81.579933)" style="">
    <rect x="335.302" y="0.009" width="80" height="80" style="fill: none; stroke-width: 3px; stroke-dasharray: 20; stroke: rgb(48, 24, 18);"/>
    <rect x="251.353" y="1.058" width="80" height="80" style="fill: none; stroke-width: 3px; stroke-dasharray: 20; stroke: rgb(48, 24, 18);"/>
    <rect x="167.343" y="1.034" width="80" height="80" style="fill: none; stroke-width: 3px; stroke-dasharray: 20; stroke: rgb(48, 24, 18);"/>
    <rect x="84.443" y="0.034" width="80" height="80" style="fill: none; stroke-width: 3px; stroke-dasharray: 20; stroke: rgb(48, 24, 18);"/>
    <rect x="0.531" y="1.022" width="80" height="80" style="fill: none; stroke-width: 3px; stroke-dasharray: 20; stroke: rgb(48, 24, 18);"/>
  </g>
  <g transform="matrix(0.955769, 0, 0, 0.963438, 2.310585, 161.553436)" style="">
    <rect x="335.302" y="0.009" width="80" height="80" style="fill: none; stroke-width: 3px; stroke-dasharray: 20; stroke: rgb(48, 24, 18);"/>
    <rect x="251.353" y="1.058" width="80" height="80" style="fill: none; stroke-width: 3px; stroke-dasharray: 20; stroke: rgb(48, 24, 18);"/>
    <rect x="167.343" y="1.034" width="80" height="80" style="fill: none; stroke-width: 3px; stroke-dasharray: 20; stroke: rgb(48, 24, 18);"/>
    <rect x="84.443" y="0.034" width="80" height="80" style="fill: none; stroke-width: 3px; stroke-dasharray: 20; stroke: rgb(48, 24, 18);"/>
    <rect x="0.531" y="1.022" width="80" height="80" style="fill: none; stroke-width: 3px; stroke-dasharray: 20; stroke: rgb(48, 24, 18);"/>
  </g>
  <g transform="matrix(0.959674, 0, 0, 0.963438, 2.296669, 241.588013)" style="">
    <rect x="335.302" y="0.009" width="80" height="80" style="fill: none; stroke-width: 3px; stroke-dasharray: 20; stroke: rgb(48, 24, 18);"/>
    <rect x="251.353" y="1.058" width="80" height="80" style="fill: none; stroke-width: 3px; stroke-dasharray: 20; stroke: rgb(48, 24, 18);"/>
    <rect x="167.343" y="1.034" width="80" height="80" style="fill: none; stroke-width: 3px; stroke-dasharray: 20; stroke: rgb(48, 24, 18);"/>
    <rect x="84.443" y="0.034" width="80" height="80" style="fill: none; stroke-width: 3px; stroke-dasharray: 20; stroke: rgb(48, 24, 18);"/>
    <rect x="0.531" y="1.022" width="80" height="80" style="fill: none; stroke-width: 3px; stroke-dasharray: 20; stroke: rgb(48, 24, 18);"/>
  </g>
  <g transform="matrix(0.967487, 0, 0, 0.984044, 0.364358, 321.610199)" style="">
    <rect x="335.302" y="0.009" width="80" height="80" style="fill: none; stroke-width: 3px; stroke-dasharray: 20; stroke: rgb(48, 24, 18);"/>
    <rect x="251.353" y="1.058" width="80" height="80" style="fill: none; stroke-width: 3px; stroke-dasharray: 20; stroke: rgb(48, 24, 18);"/>
    <rect x="167.343" y="1.034" width="80" height="80" style="fill: none; stroke-width: 3px; stroke-dasharray: 20; stroke: rgb(48, 24, 18);"/>
    <rect x="84.443" y="0.034" width="80" height="80" style="fill: none; stroke-width: 3px; stroke-dasharray: 20; stroke: rgb(48, 24, 18);"/>
    <rect x="0.531" y="1.022" width="80" height="80" style="fill: none; stroke-width: 3px; stroke-dasharray: 20; stroke: rgb(48, 24, 18);"/>
  </g>
  <g transform="matrix(0.005854, 0.608949, 2.533842, -0.025886, 271.610687, 133.860428)" style="transform-origin: 15.427px 8.12px;">
    <ellipse style="fill: rgb(176, 71, 45); stroke: rgb(48, 24, 18);" cx="15.427" cy="8.12" rx="7.066" ry="5.101"/>
    <ellipse style="fill: rgb(221, 93, 60); stroke: rgb(48, 24, 18);" cx="14.876" cy="7.058" rx="5.623" ry="3.387"/>
    <ellipse style="fill: rgb(176, 71, 45); transform-box: fill-box; transform-origin: 50% 50%; stroke: rgb(48, 24, 18);" cx="15.275" cy="8.188" rx="5.623" ry="3.387" transform="matrix(0.981654, -0.190669, -0.321641, 1.081162, -0.195166, 0.133142)"/>
  </g>
  <g transform="matrix(0.005854, 0.608949, 2.533842, -0.025886, 314.97702, 108.609138)" style="transform-origin: 15.427px 8.12px;">
    <ellipse style="fill: rgb(176, 71, 45); stroke: rgb(48, 24, 18);" cx="15.427" cy="8.12" rx="7.066" ry="5.101"/>
    <ellipse style="fill: rgb(221, 93, 60); stroke: rgb(48, 24, 18);" cx="14.876" cy="7.058" rx="5.623" ry="3.387"/>
    <ellipse style="fill: rgb(176, 71, 45); transform-box: fill-box; transform-origin: 50% 50%; stroke: rgb(48, 24, 18);" cx="15.275" cy="8.188" rx="5.623" ry="3.387" transform="matrix(0.981654, -0.190669, -0.321641, 1.081162, -0.195166, 0.133142)"/>
  </g>
  <g transform="matrix(0.005854, 0.608949, 2.533842, -0.025886, 277.793488, 141.448517)" style="transform-origin: 15.427px 8.12px;">
    <ellipse style="fill: rgb(176, 71, 45); stroke: rgb(48, 24, 18);" cx="15.427" cy="8.12" rx="7.066" ry="5.101"/>
    <ellipse style="fill: rgb(221, 93, 60); stroke: rgb(48, 24, 18);" cx="14.876" cy="7.058" rx="5.623" ry="3.387"/>
    <ellipse style="fill: rgb(176, 71, 45); transform-box: fill-box; transform-origin: 50% 50%; stroke: rgb(48, 24, 18);" cx="15.275" cy="8.188" rx="5.623" ry="3.387" transform="matrix(0.981654, -0.190669, -0.321641, 1.081162, -0.195166, 0.133142)"/>
  </g>
  <g transform="matrix(0.005854, 0.608949, 2.533842, -0.025886, 42.378273, 330.932709)" style="transform-origin: 15.427px 8.12px;">
    <ellipse style="fill: rgb(176, 71, 45); stroke: rgb(48, 24, 18);" cx="15.427" cy="8.12" rx="7.066" ry="5.101"/>
    <ellipse style="fill: rgb(221, 93, 60); stroke: rgb(48, 24, 18);" cx="14.876" cy="7.058" rx="5.623" ry="3.387"/>
    <ellipse style="fill: rgb(176, 71, 45); transform-box: fill-box; transform-origin: 50% 50%; stroke: rgb(48, 24, 18);" cx="15.275" cy="8.188" rx="5.623" ry="3.387" transform="matrix(0.981654, -0.190669, -0.321641, 1.081162, -0.195166, 0.133142)"/>
  </g>
  <g transform="matrix(0.005854, 0.608949, 2.533842, -0.025886, 85.744667, 305.681458)" style="transform-origin: 15.427px 8.12px;">
    <ellipse style="fill: rgb(176, 71, 45); stroke: rgb(48, 24, 18);" cx="15.427" cy="8.12" rx="7.066" ry="5.101"/>
    <ellipse style="fill: rgb(221, 93, 60); stroke: rgb(48, 24, 18);" cx="14.876" cy="7.058" rx="5.623" ry="3.387"/>
    <ellipse style="fill: rgb(176, 71, 45); transform-box: fill-box; transform-origin: 50% 50%; stroke: rgb(48, 24, 18);" cx="15.275" cy="8.188" rx="5.623" ry="3.387" transform="matrix(0.981654, -0.190669, -0.321641, 1.081162, -0.195166, 0.133142)"/>
  </g>
  <g transform="matrix(0.005854, 0.608949, 2.533842, -0.025886, 48.561134, 338.520813)" style="transform-origin: 15.427px 8.12px;">
    <ellipse style="fill: rgb(176, 71, 45); stroke: rgb(48, 24, 18);" cx="15.427" cy="8.12" rx="7.066" ry="5.101"/>
    <ellipse style="fill: rgb(221, 93, 60); stroke: rgb(48, 24, 18);" cx="14.876" cy="7.058" rx="5.623" ry="3.387"/>
    <ellipse style="fill: rgb(176, 71, 45); transform-box: fill-box; transform-origin: 50% 50%; stroke: rgb(48, 24, 18);" cx="15.275" cy="8.188" rx="5.623" ry="3.387" transform="matrix(0.981654, -0.190669, -0.321641, 1.081162, -0.195166, 0.133142)"/>
  </g>
  <g transform="matrix(0.005854, 0.608949, 2.533842, -0.025886, 31.848186, 72.066551)" style="transform-origin: 15.427px 8.12px;">
    <ellipse style="fill: rgb(176, 71, 45); stroke: rgb(48, 24, 18);" cx="15.427" cy="8.12" rx="7.066" ry="5.101"/>
    <ellipse style="fill: rgb(221, 93, 60); stroke: rgb(48, 24, 18);" cx="14.876" cy="7.058" rx="5.623" ry="3.387"/>
    <ellipse style="fill: rgb(176, 71, 45); transform-box: fill-box; transform-origin: 50% 50%; stroke: rgb(48, 24, 18);" cx="15.275" cy="8.188" rx="5.623" ry="3.387" transform="matrix(0.981654, -0.190669, -0.321641, 1.081162, -0.195166, 0.133142)"/>
  </g>
  <g transform="matrix(0.005854, 0.608949, 2.533842, -0.025886, 75.214577, 46.815308)" style="transform-origin: 15.427px 8.12px;">
    <ellipse style="fill: rgb(176, 71, 45); stroke: rgb(48, 24, 18);" cx="15.427" cy="8.12" rx="7.066" ry="5.101"/>
    <ellipse style="fill: rgb(221, 93, 60); stroke: rgb(48, 24, 18);" cx="14.876" cy="7.058" rx="5.623" ry="3.387"/>
    <ellipse style="fill: rgb(176, 71, 45); transform-box: fill-box; transform-origin: 50% 50%; stroke: rgb(48, 24, 18);" cx="15.275" cy="8.188" rx="5.623" ry="3.387" transform="matrix(0.981654, -0.190669, -0.321641, 1.081162, -0.195166, 0.133142)"/>
  </g>
  <g transform="matrix(0.005854, 0.608949, 2.533842, -0.025886, 38.030987, 79.654655)" style="transform-origin: 15.427px 8.12px;">
    <ellipse style="fill: rgb(176, 71, 45); stroke: rgb(48, 24, 18);" cx="15.427" cy="8.12" rx="7.066" ry="5.101"/>
    <ellipse style="fill: rgb(221, 93, 60); stroke: rgb(48, 24, 18);" cx="14.876" cy="7.058" rx="5.623" ry="3.387"/>
    <ellipse style="fill: rgb(176, 71, 45); transform-box: fill-box; transform-origin: 50% 50%; stroke: rgb(48, 24, 18);" cx="15.275" cy="8.188" rx="5.623" ry="3.387" transform="matrix(0.981654, -0.190669, -0.321641, 1.081162, -0.195166, 0.133142)"/>
  </g>
  <g>
    <g transform="matrix(1, 0, 0, 1, -9.81963, 56.1747)">
      <path stroke-width="0" d="M 136.92 134.715 C 142.238 134.924 151.347 135.584 157.642 134.715 C 163.808 133.863 171.361 131.165 174.378 129.658 C 176.246 128.725 176.532 128.183 177.034 127.064 C 177.693 125.599 177.813 123.087 177.034 121.36 C 176.304 119.737 172.542 118.367 172.784 116.951 C 173.029 115.513 177.555 114.368 178.629 112.802 C 179.737 111.183 180.07 108.959 179.16 107.355 C 178.291 105.822 176.368 104.461 173.581 103.335 C 170.278 101.999 165.192 100.781 159.767 100.222 C 153.443 99.572 143.12 99.811 137.451 100.222 C 133.326 100.524 131.19 102.002 127.888 101.778 C 124.138 101.525 121.595 98.849 116.199 98.149 C 108.769 97.183 93.979 97.304 85.382 98.149 C 78.187 98.854 72.695 102.105 67.317 102.038 C 62.564 101.979 58.404 99.229 54.565 98.667 C 51.463 98.213 48.679 98.082 46.065 98.407 C 43.455 98.732 40.528 99.466 38.892 100.611 C 37.045 101.904 35.75 104.507 36.235 106.058 C 36.665 107.432 37.951 108.34 40.751 109.56 C 45.122 111.463 59.04 113.457 63.332 115.653 C 66.379 117.213 65.564 119.071 67.583 120.582 C 69.679 122.15 72.681 123.673 75.819 124.86 C 78.966 126.051 81.585 126.903 86.445 127.713 C 93.349 128.863 107.832 129.03 115.136 130.307 C 120.697 131.278 123.97 133.217 127.888 133.937 C 131.126 134.532 133.081 134.565 136.92 134.715 Z" style="stroke-width: 2px; transform-box: fill-box; transform-origin: 50% 50%; fill: url(&quot;#gradient-36&quot;); stroke: url(&quot;#gradient-37&quot;);" transform="matrix(-1, 0, 0, -1, -0.000002, 0.000008)"/>
      <path d="M 79.834 119.624 C 79.834 120.722 79.633 121.774 79.265 122.746 C 77.146 121.611 74.057 120.896 70.62 120.896 C 67.356 120.896 64.409 121.54 62.307 122.576 C 61.978 121.651 61.799 120.66 61.799 119.624 C 61.799 114.71 65.837 110.724 70.816 110.724 C 75.796 110.724 79.834 114.71 79.834 119.624 Z" style="stroke: rgb(24, 63, 2); fill: rgb(77, 198, 0);"/>
      <path d="M 123.145 107.25 C 123.145 108.033 123.004 108.786 122.747 109.478 C 121.269 108.669 119.115 108.158 116.716 108.158 C 114.439 108.158 112.382 108.617 110.915 109.357 C 110.687 108.699 110.562 107.988 110.562 107.25 C 110.562 103.742 113.38 100.895 116.854 100.895 C 120.326 100.895 123.145 103.742 123.145 107.25 Z" style="stroke: rgb(24, 63, 2); fill: rgb(77, 198, 0);"/>
      <ellipse style="fill: rgb(255, 255, 255); transform-origin: 73.945px 115.957px;" cx="73.945" cy="115.957" rx="1.455" ry="2.361" transform="matrix(0.850365, -0.526193, 0.526193, 0.850365, 44.732187, -11.85775)"/>
      <path d="M 135.898 108.117 C 135.898 109.385 135.697 110.603 135.329 111.726 C 133.21 110.414 130.121 109.586 126.684 109.586 C 123.42 109.586 120.473 110.331 118.371 111.529 C 118.042 110.461 117.863 109.313 117.863 108.117 C 117.863 102.431 121.901 97.823 126.88 97.823 C 131.86 97.823 135.898 102.431 135.898 108.117 Z" style="stroke: rgb(24, 63, 2); fill: rgb(77, 198, 0);"/>
      <path d="M 105.393 104.713 C 105.393 105.463 105.191 106.18 104.823 106.844 C 102.704 106.069 99.616 105.581 96.179 105.581 C 92.916 105.581 89.967 106.02 87.865 106.728 C 87.536 106.098 87.358 105.419 87.358 104.713 C 87.358 101.358 91.395 98.636 96.376 98.636 C 101.355 98.636 105.393 101.358 105.393 104.713 Z" style="stroke: rgb(24, 63, 2); fill: rgb(77, 198, 0);"/>
      <ellipse style="fill: rgb(255, 255, 255); transform-box: fill-box; transform-origin: 50% 50%;" cx="73.945" cy="115.957" rx="2.921" ry="3.492" transform="matrix(0.850365, -0.526193, 0.526193, 0.850365, 0.25396, 0.254011)"/>
      <ellipse style="fill: rgb(255, 255, 255); transform-origin: 73.945px 115.957px;" cx="73.945" cy="115.957" rx="1.42" ry="2.782" transform="matrix(0.536324, -0.844012, 0.844012, 0.536324, 26.795002, -13.207158)"/>
      <ellipse style="fill: rgb(255, 255, 255); transform-origin: 73.945px 115.957px;" cx="73.945" cy="115.957" rx="2.921" ry="3.492" transform="matrix(0.850365, -0.526193, 0.526193, 0.850365, 56.383673, -12.826031)"/>
      <path d="M 120.911 132.241 C 120.911 132.958 120.716 133.644 120.358 134.278 C 118.298 133.538 115.294 133.071 111.952 133.071 C 108.779 133.071 105.913 133.491 103.869 134.167 C 103.55 133.564 103.376 132.917 103.376 132.241 C 103.376 129.035 107.302 126.435 112.143 126.435 C 116.985 126.435 120.911 129.035 120.911 132.241 Z" style="stroke: rgb(24, 63, 2); fill: rgba(77, 198, 0, 0.286);"/>
      <path d="M 163.023 124.168 C 163.023 124.679 162.886 125.17 162.636 125.622 C 161.199 125.094 159.105 124.761 156.772 124.761 C 154.558 124.761 152.558 125.06 151.132 125.543 C 150.91 125.114 150.788 124.65 150.788 124.168 C 150.788 121.879 153.528 120.022 156.906 120.022 C 160.282 120.022 163.023 121.879 163.023 124.168 Z" style="stroke: rgb(24, 63, 2); fill: rgba(77, 198, 0, 0.286);"/>
      <ellipse style="stroke: rgb(24, 63, 2); fill: rgba(77, 198, 0, 0.286); transform-origin: 73.945px 115.957px;" cx="73.945" cy="115.957" rx="1.303" ry="1.673" transform="matrix(0.923556, -0.383464, 0.722047, 0.782975, 84.733745, 6.155507)"/>
      <path d="M 175.423 124.734 C 175.423 125.561 175.227 126.356 174.87 127.088 C 172.809 126.232 169.806 125.692 166.464 125.692 C 163.29 125.692 160.425 126.178 158.381 126.96 C 158.061 126.263 157.887 125.514 157.887 124.734 C 157.887 121.024 161.813 118.018 166.654 118.018 C 171.497 118.018 175.423 121.024 175.423 124.734 Z" style="stroke: rgb(24, 63, 2); fill: rgba(77, 198, 0, 0.286);"/>
      <path d="M 145.762 122.513 C 145.762 123.002 145.566 123.47 145.208 123.903 C 143.148 123.398 140.145 123.079 136.804 123.079 C 133.631 123.079 130.764 123.366 128.72 123.828 C 128.4 123.417 128.227 122.974 128.227 122.513 C 128.227 120.324 132.152 118.548 136.995 118.548 C 141.836 118.548 145.762 120.324 145.762 122.513 Z" style="stroke: rgb(24, 63, 2); fill: rgba(77, 198, 0, 0.286);"/>
      <ellipse style="stroke: rgb(24, 63, 2); fill: rgba(77, 198, 0, 0.286); transform-box: fill-box; transform-origin: 50% 50%;" cx="73.945" cy="115.957" rx="2.615" ry="2.474" transform="matrix(0.923556, -0.383464, 0.722047, 0.782975, 41.487059, 14.057467)"/>
      <ellipse style="stroke: rgb(24, 63, 2); fill: rgba(77, 198, 0, 0.286); transform-origin: 73.945px 115.957px;" cx="73.945" cy="115.957" rx="1.077" ry="2.327" transform="matrix(0.68761, -0.72608, 0.981099, 0.418324, 67.293295, 5.275199)"/>
      <ellipse style="stroke: rgb(24, 63, 2); fill: rgba(77, 198, 0, 0.286); transform-origin: 73.945px 115.957px;" cx="73.945" cy="115.957" rx="2.615" ry="2.474" transform="matrix(0.923556, -0.383464, 0.722047, 0.782975, 96.06261, 5.523777)"/>
      <path d="M 62.448 117.453 C 62.448 118.17 62.252 118.856 61.895 119.49 C 59.834 118.75 56.831 118.283 53.489 118.283 C 50.315 118.283 47.45 118.703 45.406 119.379 C 45.086 118.776 44.912 118.129 44.912 117.453 C 44.912 114.247 48.838 111.647 53.679 111.647 C 58.522 111.647 62.448 114.247 62.448 117.453 Z" style="stroke: rgb(24, 63, 2); fill: rgba(77, 198, 0, 0.286);"/>
      <path d="M 104.56 109.38 C 104.56 109.891 104.422 110.383 104.173 110.834 C 102.735 110.306 100.641 109.973 98.309 109.973 C 96.095 109.973 94.095 110.272 92.668 110.755 C 92.446 110.326 92.325 109.862 92.325 109.38 C 92.325 107.092 95.065 105.234 98.443 105.234 C 101.819 105.234 104.56 107.092 104.56 109.38 Z" style="stroke: rgb(24, 63, 2); fill: rgba(77, 198, 0, 0.286);"/>
      <ellipse style="stroke: rgb(24, 63, 2); fill: rgba(77, 198, 0, 0.286); transform-origin: 73.945px 115.957px;" cx="73.945" cy="115.957" rx="1.303" ry="1.673" transform="matrix(0.923556, -0.383464, 0.722047, 0.782975, 26.270357, -8.632297)"/>
      <path d="M 116.959 109.946 C 116.959 110.773 116.764 111.568 116.406 112.301 C 114.346 111.445 111.342 110.904 108.001 110.904 C 104.827 110.904 101.962 111.39 99.918 112.172 C 99.598 111.475 99.424 110.726 99.424 109.946 C 99.424 106.236 103.35 103.23 108.191 103.23 C 113.033 103.23 116.959 106.236 116.959 109.946 Z" style="stroke: rgb(24, 63, 2); fill: rgba(77, 198, 0, 0.286);"/>
      <path d="M 87.299 107.725 C 87.299 108.215 87.103 108.682 86.745 109.116 C 84.685 108.61 81.682 108.291 78.34 108.291 C 75.168 108.291 72.3 108.578 70.256 109.04 C 69.937 108.629 69.763 108.186 69.763 107.725 C 69.763 105.536 73.689 103.76 78.532 103.76 C 83.373 103.76 87.299 105.536 87.299 107.725 Z" style="stroke: rgb(24, 63, 2); fill: rgba(77, 198, 0, 0.286);"/>
      <ellipse style="stroke: rgb(24, 63, 2); fill: rgba(77, 198, 0, 0.286); transform-box: fill-box; transform-origin: 50% 50%;" cx="73.945" cy="115.957" rx="2.615" ry="2.474" transform="matrix(0.923556, -0.383464, 0.722047, 0.782975, -16.976327, -0.730341)"/>
      <ellipse style="stroke: rgb(24, 63, 2); fill: rgba(77, 198, 0, 0.286); transform-origin: 73.945px 115.957px;" cx="73.945" cy="115.957" rx="1.077" ry="2.327" transform="matrix(0.68761, -0.72608, 0.981099, 0.418324, 8.829893, -9.512613)"/>
      <ellipse style="stroke: rgb(24, 63, 2); fill: rgba(77, 198, 0, 0.286); transform-origin: 73.945px 115.957px;" cx="73.945" cy="115.957" rx="2.615" ry="2.474" transform="matrix(0.923556, -0.383464, 0.722047, 0.782975, 37.599226, -9.264019)"/>
    </g>
    <path stroke-width="0" d="M 100.325 205.449 C 114.522 205.695 144.605 205.733 152.276 205.449 C 155.211 205.339 155.347 205.301 156.843 204.997 C 158.543 204.65 160.611 203.98 161.838 203.358 C 162.975 202.782 163.703 202.066 164.122 201.437 C 164.504 200.862 164.626 200.35 164.407 199.742 C 164.154 199.045 163.351 198.111 162.409 197.483 C 161.547 196.907 160.473 196.45 159.126 196.07 C 157.697 195.666 156.231 195.398 153.988 195.166 C 150.93 194.849 143.818 195.285 141.858 194.601 C 140.361 194.079 141.814 192.939 141 192.171 C 140.131 191.351 137.691 190.282 136.577 189.855 C 135.933 189.608 135.244 189.733 135.006 189.46 C 134.619 189.012 136.304 187.773 136.149 186.974 C 135.996 186.192 135.092 185.343 134.15 184.714 C 133.288 184.138 132.348 183.688 130.867 183.302 C 129.122 182.845 127.645 182.576 124.016 182.284 C 117.302 181.745 96.138 181.008 90.049 181.155 C 87.15 181.224 86.481 181.383 84.911 181.719 C 83.281 182.069 81.612 182.657 80.487 183.245 C 79.4 183.812 78.621 184.537 78.203 185.166 C 77.821 185.741 77.829 186.388 77.918 186.861 C 77.99 187.241 78.891 187.59 78.488 187.821 C 77.976 188.116 75.472 187.976 74.064 188.273 C 72.508 188.602 70.766 189.211 69.64 189.799 C 68.554 190.365 67.779 191.072 67.357 191.72 C 66.956 192.335 68.598 193.246 67.072 193.584 C 64.033 194.256 46.084 192.151 40.953 192.228 C 38.244 192.269 37.384 192.457 35.815 192.793 C 34.185 193.142 32.516 193.731 31.391 194.319 C 30.305 194.885 29.525 195.611 29.107 196.239 C 28.725 196.814 28.655 197.353 28.821 197.934 C 29 198.555 29.417 199.259 30.249 199.855 C 31.132 200.488 32.618 201.161 34.103 201.607 C 35.534 202.036 36.121 202.208 38.955 202.511 C 44.908 203.146 62.303 203.932 72.923 204.432 C 82.646 204.889 89.314 205.258 100.325 205.449 Z" style="stroke-width: 2px; fill: rgba(0, 0, 0, 0.4); filter: url(&quot;#filter-6&quot;); transform-origin: 96.626px 193.392px;" transform="matrix(-0.998348, 0.057459, -0.057459, -0.998348, -0.000026, 0.000012)"/>
  </g>
  <g transform="matrix(-1, 0, 0, 1, 358.726257, 256.996735)" style="">
    <path stroke-width="0" d="M 136.92 134.715 C 142.238 134.924 151.347 135.584 157.642 134.715 C 163.808 133.863 171.361 131.165 174.378 129.658 C 176.246 128.725 176.532 128.183 177.034 127.064 C 177.693 125.599 177.813 123.087 177.034 121.36 C 176.304 119.737 172.542 118.367 172.784 116.951 C 173.029 115.513 177.555 114.368 178.629 112.802 C 179.737 111.183 180.07 108.959 179.16 107.355 C 178.291 105.822 176.368 104.461 173.581 103.335 C 170.278 101.999 165.192 100.781 159.767 100.222 C 153.443 99.572 143.12 99.811 137.451 100.222 C 133.326 100.524 131.19 102.002 127.888 101.778 C 124.138 101.525 121.595 98.849 116.199 98.149 C 108.769 97.183 93.979 97.304 85.382 98.149 C 78.187 98.854 72.695 102.105 67.317 102.038 C 62.564 101.979 58.404 99.229 54.565 98.667 C 51.463 98.213 48.679 98.082 46.065 98.407 C 43.455 98.732 40.528 99.466 38.892 100.611 C 37.045 101.904 35.75 104.507 36.235 106.058 C 36.665 107.432 37.951 108.34 40.751 109.56 C 45.122 111.463 59.04 113.457 63.332 115.653 C 66.379 117.213 65.564 119.071 67.583 120.582 C 69.679 122.15 72.681 123.673 75.819 124.86 C 78.966 126.051 81.585 126.903 86.445 127.713 C 93.349 128.863 107.832 129.03 115.136 130.307 C 120.697 131.278 123.97 133.217 127.888 133.937 C 131.126 134.532 133.081 134.565 136.92 134.715 Z" style="stroke-width: 2px; transform-box: fill-box; transform-origin: 50% 50%; fill: url(&quot;#gradient-38&quot;); stroke: url(&quot;#gradient-39&quot;);" transform="matrix(-1, 0, 0, -1, -0.000002, 0.000008)"/>
    <path d="M 79.834 119.624 C 79.834 120.722 79.633 121.774 79.265 122.746 C 77.146 121.611 74.057 120.896 70.62 120.896 C 67.356 120.896 64.409 121.54 62.307 122.576 C 61.978 121.651 61.799 120.66 61.799 119.624 C 61.799 114.71 65.837 110.724 70.816 110.724 C 75.796 110.724 79.834 114.71 79.834 119.624 Z" style="stroke: rgb(24, 63, 2); fill: rgb(77, 198, 0);"/>
    <path d="M 123.145 107.25 C 123.145 108.033 123.004 108.786 122.747 109.478 C 121.269 108.669 119.115 108.158 116.716 108.158 C 114.439 108.158 112.382 108.617 110.915 109.357 C 110.687 108.699 110.562 107.988 110.562 107.25 C 110.562 103.742 113.38 100.895 116.854 100.895 C 120.326 100.895 123.145 103.742 123.145 107.25 Z" style="stroke: rgb(24, 63, 2); fill: rgb(77, 198, 0);"/>
    <ellipse style="fill: rgb(255, 255, 255); transform-origin: 73.945px 115.957px;" cx="73.945" cy="115.957" rx="1.455" ry="2.361" transform="matrix(0.850365, -0.526193, 0.526193, 0.850365, 44.732187, -11.85775)"/>
    <path d="M 135.898 108.117 C 135.898 109.385 135.697 110.603 135.329 111.726 C 133.21 110.414 130.121 109.586 126.684 109.586 C 123.42 109.586 120.473 110.331 118.371 111.529 C 118.042 110.461 117.863 109.313 117.863 108.117 C 117.863 102.431 121.901 97.823 126.88 97.823 C 131.86 97.823 135.898 102.431 135.898 108.117 Z" style="stroke: rgb(24, 63, 2); fill: rgb(77, 198, 0);"/>
    <path d="M 105.393 104.713 C 105.393 105.463 105.191 106.18 104.823 106.844 C 102.704 106.069 99.616 105.581 96.179 105.581 C 92.916 105.581 89.967 106.02 87.865 106.728 C 87.536 106.098 87.358 105.419 87.358 104.713 C 87.358 101.358 91.395 98.636 96.376 98.636 C 101.355 98.636 105.393 101.358 105.393 104.713 Z" style="stroke: rgb(24, 63, 2); fill: rgb(77, 198, 0);"/>
    <ellipse style="fill: rgb(255, 255, 255); transform-box: fill-box; transform-origin: 50% 50%;" cx="73.945" cy="115.957" rx="2.921" ry="3.492" transform="matrix(0.850365, -0.526193, 0.526193, 0.850365, 0.25396, 0.254011)"/>
    <ellipse style="fill: rgb(255, 255, 255); transform-origin: 73.945px 115.957px;" cx="73.945" cy="115.957" rx="1.42" ry="2.782" transform="matrix(0.536324, -0.844012, 0.844012, 0.536324, 26.795002, -13.207158)"/>
    <ellipse style="fill: rgb(255, 255, 255); transform-origin: 73.945px 115.957px;" cx="73.945" cy="115.957" rx="2.921" ry="3.492" transform="matrix(0.850365, -0.526193, 0.526193, 0.850365, 56.383673, -12.826031)"/>
    <path d="M 120.911 132.241 C 120.911 132.958 120.716 133.644 120.358 134.278 C 118.298 133.538 115.294 133.071 111.952 133.071 C 108.779 133.071 105.913 133.491 103.869 134.167 C 103.55 133.564 103.376 132.917 103.376 132.241 C 103.376 129.035 107.302 126.435 112.143 126.435 C 116.985 126.435 120.911 129.035 120.911 132.241 Z" style="stroke: rgb(24, 63, 2); fill: rgba(77, 198, 0, 0.286);"/>
    <path d="M 163.023 124.168 C 163.023 124.679 162.886 125.17 162.636 125.622 C 161.199 125.094 159.105 124.761 156.772 124.761 C 154.558 124.761 152.558 125.06 151.132 125.543 C 150.91 125.114 150.788 124.65 150.788 124.168 C 150.788 121.879 153.528 120.022 156.906 120.022 C 160.282 120.022 163.023 121.879 163.023 124.168 Z" style="stroke: rgb(24, 63, 2); fill: rgba(77, 198, 0, 0.286);"/>
    <ellipse style="stroke: rgb(24, 63, 2); fill: rgba(77, 198, 0, 0.286); transform-origin: 73.945px 115.957px;" cx="73.945" cy="115.957" rx="1.303" ry="1.673" transform="matrix(0.923556, -0.383464, 0.722047, 0.782975, 84.733745, 6.155507)"/>
    <path d="M 175.423 124.734 C 175.423 125.561 175.227 126.356 174.87 127.088 C 172.809 126.232 169.806 125.692 166.464 125.692 C 163.29 125.692 160.425 126.178 158.381 126.96 C 158.061 126.263 157.887 125.514 157.887 124.734 C 157.887 121.024 161.813 118.018 166.654 118.018 C 171.497 118.018 175.423 121.024 175.423 124.734 Z" style="stroke: rgb(24, 63, 2); fill: rgba(77, 198, 0, 0.286);"/>
    <path d="M 145.762 122.513 C 145.762 123.002 145.566 123.47 145.208 123.903 C 143.148 123.398 140.145 123.079 136.804 123.079 C 133.631 123.079 130.764 123.366 128.72 123.828 C 128.4 123.417 128.227 122.974 128.227 122.513 C 128.227 120.324 132.152 118.548 136.995 118.548 C 141.836 118.548 145.762 120.324 145.762 122.513 Z" style="stroke: rgb(24, 63, 2); fill: rgba(77, 198, 0, 0.286);"/>
    <ellipse style="stroke: rgb(24, 63, 2); fill: rgba(77, 198, 0, 0.286); transform-box: fill-box; transform-origin: 50% 50%;" cx="73.945" cy="115.957" rx="2.615" ry="2.474" transform="matrix(0.923556, -0.383464, 0.722047, 0.782975, 41.487059, 14.057467)"/>
    <ellipse style="stroke: rgb(24, 63, 2); fill: rgba(77, 198, 0, 0.286); transform-origin: 73.945px 115.957px;" cx="73.945" cy="115.957" rx="1.077" ry="2.327" transform="matrix(0.68761, -0.72608, 0.981099, 0.418324, 67.293295, 5.275199)"/>
    <ellipse style="stroke: rgb(24, 63, 2); fill: rgba(77, 198, 0, 0.286); transform-origin: 73.945px 115.957px;" cx="73.945" cy="115.957" rx="2.615" ry="2.474" transform="matrix(0.923556, -0.383464, 0.722047, 0.782975, 96.06261, 5.523777)"/>
    <path d="M 62.448 117.453 C 62.448 118.17 62.252 118.856 61.895 119.49 C 59.834 118.75 56.831 118.283 53.489 118.283 C 50.315 118.283 47.45 118.703 45.406 119.379 C 45.086 118.776 44.912 118.129 44.912 117.453 C 44.912 114.247 48.838 111.647 53.679 111.647 C 58.522 111.647 62.448 114.247 62.448 117.453 Z" style="stroke: rgb(24, 63, 2); fill: rgba(77, 198, 0, 0.286);"/>
    <path d="M 104.56 109.38 C 104.56 109.891 104.422 110.383 104.173 110.834 C 102.735 110.306 100.641 109.973 98.309 109.973 C 96.095 109.973 94.095 110.272 92.668 110.755 C 92.446 110.326 92.325 109.862 92.325 109.38 C 92.325 107.092 95.065 105.234 98.443 105.234 C 101.819 105.234 104.56 107.092 104.56 109.38 Z" style="stroke: rgb(24, 63, 2); fill: rgba(77, 198, 0, 0.286);"/>
    <ellipse style="stroke: rgb(24, 63, 2); fill: rgba(77, 198, 0, 0.286); transform-origin: 73.945px 115.957px;" cx="73.945" cy="115.957" rx="1.303" ry="1.673" transform="matrix(0.923556, -0.383464, 0.722047, 0.782975, 26.270357, -8.632297)"/>
    <path d="M 116.959 109.946 C 116.959 110.773 116.764 111.568 116.406 112.301 C 114.346 111.445 111.342 110.904 108.001 110.904 C 104.827 110.904 101.962 111.39 99.918 112.172 C 99.598 111.475 99.424 110.726 99.424 109.946 C 99.424 106.236 103.35 103.23 108.191 103.23 C 113.033 103.23 116.959 106.236 116.959 109.946 Z" style="stroke: rgb(24, 63, 2); fill: rgba(77, 198, 0, 0.286);"/>
    <path d="M 87.299 107.725 C 87.299 108.215 87.103 108.682 86.745 109.116 C 84.685 108.61 81.682 108.291 78.34 108.291 C 75.168 108.291 72.3 108.578 70.256 109.04 C 69.937 108.629 69.763 108.186 69.763 107.725 C 69.763 105.536 73.689 103.76 78.532 103.76 C 83.373 103.76 87.299 105.536 87.299 107.725 Z" style="stroke: rgb(24, 63, 2); fill: rgba(77, 198, 0, 0.286);"/>
    <ellipse style="stroke: rgb(24, 63, 2); fill: rgba(77, 198, 0, 0.286); transform-box: fill-box; transform-origin: 50% 50%;" cx="73.945" cy="115.957" rx="2.615" ry="2.474" transform="matrix(0.923556, -0.383464, 0.722047, 0.782975, -16.976327, -0.730341)"/>
    <ellipse style="stroke: rgb(24, 63, 2); fill: rgba(77, 198, 0, 0.286); transform-origin: 73.945px 115.957px;" cx="73.945" cy="115.957" rx="1.077" ry="2.327" transform="matrix(0.68761, -0.72608, 0.981099, 0.418324, 8.829893, -9.512613)"/>
    <ellipse style="stroke: rgb(24, 63, 2); fill: rgba(77, 198, 0, 0.286); transform-origin: 73.945px 115.957px;" cx="73.945" cy="115.957" rx="2.615" ry="2.474" transform="matrix(0.923556, -0.383464, 0.722047, 0.782975, 37.599226, -9.264019)"/>
  </g>
  <path stroke-width="0" d="M 330.149 362.819 C 339.423 363.065 359.075 363.103 364.086 362.819 C 366.003 362.709 366.092 362.671 367.069 362.367 C 368.18 362.02 369.531 361.35 370.333 360.728 C 371.075 360.152 371.551 359.436 371.824 358.807 C 372.074 358.232 372.154 357.72 372.011 357.112 C 371.846 356.415 371.321 355.481 370.706 354.853 C 370.142 354.277 369.441 353.82 368.561 353.44 C 367.628 353.036 366.669 352.768 365.205 352.536 C 363.207 352.219 358.561 352.655 357.28 351.971 C 356.303 351.449 357.252 350.309 356.72 349.541 C 356.152 348.721 354.558 347.652 353.83 347.225 C 353.41 346.978 352.96 347.103 352.804 346.83 C 352.552 346.382 353.652 345.143 353.551 344.344 C 353.451 343.562 352.861 342.713 352.245 342.084 C 351.682 341.508 351.068 341.058 350.1 340.672 C 348.96 340.215 347.996 339.946 345.625 339.654 C 341.239 339.115 327.414 338.378 323.436 338.525 C 321.542 338.594 321.105 338.753 320.08 339.089 C 319.015 339.439 317.925 340.027 317.19 340.615 C 316.48 341.182 315.971 341.907 315.698 342.536 C 315.448 343.111 315.453 343.758 315.511 344.231 C 315.558 344.611 316.147 344.96 315.884 345.191 C 315.55 345.486 313.913 345.346 312.994 345.643 C 311.978 345.972 310.84 346.581 310.104 347.169 C 309.394 347.735 308.888 348.442 308.612 349.09 C 308.35 349.705 309.423 350.616 308.426 350.954 C 306.441 351.626 294.716 349.521 291.364 349.598 C 289.594 349.639 289.033 349.827 288.007 350.163 C 286.943 350.512 285.852 351.101 285.117 351.689 C 284.408 352.255 283.898 352.981 283.625 353.609 C 283.376 354.184 283.33 354.723 283.439 355.304 C 283.556 355.925 283.828 356.629 284.372 357.225 C 284.949 357.858 285.919 358.531 286.889 358.977 C 287.824 359.406 288.207 359.578 290.059 359.881 C 293.948 360.516 305.311 361.302 312.248 361.802 C 318.6 362.259 322.956 362.628 330.149 362.819 Z" style="stroke-width: 2px; fill: rgba(0, 0, 0, 0.4); filter: url(&quot;#filter-7&quot;); transform-origin: 327.733px 350.762px;" transform="matrix(-0.998348, 0.057459, -0.057459, -0.998348, 0.000005, 0.000015)"/>
  <g transform="matrix(-0.637815, 0, 0, 0.551584, 389.833313, 273.407288)" style="">
    <path stroke-width="0" d="M 136.92 134.715 C 142.238 134.924 151.347 135.584 157.642 134.715 C 163.808 133.863 171.361 131.165 174.378 129.658 C 176.246 128.725 176.532 128.183 177.034 127.064 C 177.693 125.599 177.813 123.087 177.034 121.36 C 176.304 119.737 172.542 118.367 172.784 116.951 C 173.029 115.513 177.555 114.368 178.629 112.802 C 179.737 111.183 180.07 108.959 179.16 107.355 C 178.291 105.822 176.368 104.461 173.581 103.335 C 170.278 101.999 165.192 100.781 159.767 100.222 C 153.443 99.572 143.12 99.811 137.451 100.222 C 133.326 100.524 131.19 102.002 127.888 101.778 C 124.138 101.525 121.595 98.849 116.199 98.149 C 108.769 97.183 93.979 97.304 85.382 98.149 C 78.187 98.854 72.695 102.105 67.317 102.038 C 62.564 101.979 58.404 99.229 54.565 98.667 C 51.463 98.213 48.679 98.082 46.065 98.407 C 43.455 98.732 40.528 99.466 38.892 100.611 C 37.045 101.904 35.75 104.507 36.235 106.058 C 36.665 107.432 37.951 108.34 40.751 109.56 C 45.122 111.463 59.04 113.457 63.332 115.653 C 66.379 117.213 65.564 119.071 67.583 120.582 C 69.679 122.15 72.681 123.673 75.819 124.86 C 78.966 126.051 81.585 126.903 86.445 127.713 C 93.349 128.863 107.832 129.03 115.136 130.307 C 120.697 131.278 123.97 133.217 127.888 133.937 C 131.126 134.532 133.081 134.565 136.92 134.715 Z" style="stroke-width: 2px; transform-box: fill-box; transform-origin: 50% 50%; fill: url(&quot;#gradient-40&quot;); stroke: url(&quot;#gradient-41&quot;);" transform="matrix(-1, 0, 0, -1, -0.000002, 0.000008)"/>
    <path d="M 79.834 119.624 C 79.834 120.722 79.633 121.774 79.265 122.746 C 77.146 121.611 74.057 120.896 70.62 120.896 C 67.356 120.896 64.409 121.54 62.307 122.576 C 61.978 121.651 61.799 120.66 61.799 119.624 C 61.799 114.71 65.837 110.724 70.816 110.724 C 75.796 110.724 79.834 114.71 79.834 119.624 Z" style="stroke: rgb(24, 63, 2); fill: rgb(77, 198, 0);"/>
    <path d="M 123.145 107.25 C 123.145 108.033 123.004 108.786 122.747 109.478 C 121.269 108.669 119.115 108.158 116.716 108.158 C 114.439 108.158 112.382 108.617 110.915 109.357 C 110.687 108.699 110.562 107.988 110.562 107.25 C 110.562 103.742 113.38 100.895 116.854 100.895 C 120.326 100.895 123.145 103.742 123.145 107.25 Z" style="stroke: rgb(24, 63, 2); fill: rgb(77, 198, 0);"/>
    <ellipse style="fill: rgb(255, 255, 255); transform-origin: 73.945px 115.957px;" cx="73.945" cy="115.957" rx="1.455" ry="2.361" transform="matrix(0.850365, -0.526193, 0.526193, 0.850365, 44.732187, -11.85775)"/>
    <path d="M 135.898 108.117 C 135.898 109.385 135.697 110.603 135.329 111.726 C 133.21 110.414 130.121 109.586 126.684 109.586 C 123.42 109.586 120.473 110.331 118.371 111.529 C 118.042 110.461 117.863 109.313 117.863 108.117 C 117.863 102.431 121.901 97.823 126.88 97.823 C 131.86 97.823 135.898 102.431 135.898 108.117 Z" style="stroke: rgb(24, 63, 2); fill: rgb(77, 198, 0);"/>
    <path d="M 105.393 104.713 C 105.393 105.463 105.191 106.18 104.823 106.844 C 102.704 106.069 99.616 105.581 96.179 105.581 C 92.916 105.581 89.967 106.02 87.865 106.728 C 87.536 106.098 87.358 105.419 87.358 104.713 C 87.358 101.358 91.395 98.636 96.376 98.636 C 101.355 98.636 105.393 101.358 105.393 104.713 Z" style="stroke: rgb(24, 63, 2); fill: rgb(77, 198, 0);"/>
    <ellipse style="fill: rgb(255, 255, 255); transform-box: fill-box; transform-origin: 50% 50%;" cx="73.945" cy="115.957" rx="2.921" ry="3.492" transform="matrix(0.850365, -0.526193, 0.526193, 0.850365, 0.25396, 0.254011)"/>
    <ellipse style="fill: rgb(255, 255, 255); transform-origin: 73.945px 115.957px;" cx="73.945" cy="115.957" rx="1.42" ry="2.782" transform="matrix(0.536324, -0.844012, 0.844012, 0.536324, 26.795002, -13.207158)"/>
    <ellipse style="fill: rgb(255, 255, 255); transform-origin: 73.945px 115.957px;" cx="73.945" cy="115.957" rx="2.921" ry="3.492" transform="matrix(0.850365, -0.526193, 0.526193, 0.850365, 56.383673, -12.826031)"/>
    <path d="M 120.911 132.241 C 120.911 132.958 120.716 133.644 120.358 134.278 C 118.298 133.538 115.294 133.071 111.952 133.071 C 108.779 133.071 105.913 133.491 103.869 134.167 C 103.55 133.564 103.376 132.917 103.376 132.241 C 103.376 129.035 107.302 126.435 112.143 126.435 C 116.985 126.435 120.911 129.035 120.911 132.241 Z" style="stroke: rgb(24, 63, 2); fill: rgba(77, 198, 0, 0.286);"/>
    <path d="M 163.023 124.168 C 163.023 124.679 162.886 125.17 162.636 125.622 C 161.199 125.094 159.105 124.761 156.772 124.761 C 154.558 124.761 152.558 125.06 151.132 125.543 C 150.91 125.114 150.788 124.65 150.788 124.168 C 150.788 121.879 153.528 120.022 156.906 120.022 C 160.282 120.022 163.023 121.879 163.023 124.168 Z" style="stroke: rgb(24, 63, 2); fill: rgba(77, 198, 0, 0.286);"/>
    <ellipse style="stroke: rgb(24, 63, 2); fill: rgba(77, 198, 0, 0.286); transform-origin: 73.945px 115.957px;" cx="73.945" cy="115.957" rx="1.303" ry="1.673" transform="matrix(0.923556, -0.383464, 0.722047, 0.782975, 84.733745, 6.155507)"/>
    <path d="M 175.423 124.734 C 175.423 125.561 175.227 126.356 174.87 127.088 C 172.809 126.232 169.806 125.692 166.464 125.692 C 163.29 125.692 160.425 126.178 158.381 126.96 C 158.061 126.263 157.887 125.514 157.887 124.734 C 157.887 121.024 161.813 118.018 166.654 118.018 C 171.497 118.018 175.423 121.024 175.423 124.734 Z" style="stroke: rgb(24, 63, 2); fill: rgba(77, 198, 0, 0.286);"/>
    <path d="M 145.762 122.513 C 145.762 123.002 145.566 123.47 145.208 123.903 C 143.148 123.398 140.145 123.079 136.804 123.079 C 133.631 123.079 130.764 123.366 128.72 123.828 C 128.4 123.417 128.227 122.974 128.227 122.513 C 128.227 120.324 132.152 118.548 136.995 118.548 C 141.836 118.548 145.762 120.324 145.762 122.513 Z" style="stroke: rgb(24, 63, 2); fill: rgba(77, 198, 0, 0.286);"/>
    <ellipse style="stroke: rgb(24, 63, 2); fill: rgba(77, 198, 0, 0.286); transform-box: fill-box; transform-origin: 50% 50%;" cx="73.945" cy="115.957" rx="2.615" ry="2.474" transform="matrix(0.923556, -0.383464, 0.722047, 0.782975, 41.487059, 14.057467)"/>
    <ellipse style="stroke: rgb(24, 63, 2); fill: rgba(77, 198, 0, 0.286); transform-origin: 73.945px 115.957px;" cx="73.945" cy="115.957" rx="1.077" ry="2.327" transform="matrix(0.68761, -0.72608, 0.981099, 0.418324, 67.293295, 5.275199)"/>
    <ellipse style="stroke: rgb(24, 63, 2); fill: rgba(77, 198, 0, 0.286); transform-origin: 73.945px 115.957px;" cx="73.945" cy="115.957" rx="2.615" ry="2.474" transform="matrix(0.923556, -0.383464, 0.722047, 0.782975, 96.06261, 5.523777)"/>
    <path d="M 62.448 117.453 C 62.448 118.17 62.252 118.856 61.895 119.49 C 59.834 118.75 56.831 118.283 53.489 118.283 C 50.315 118.283 47.45 118.703 45.406 119.379 C 45.086 118.776 44.912 118.129 44.912 117.453 C 44.912 114.247 48.838 111.647 53.679 111.647 C 58.522 111.647 62.448 114.247 62.448 117.453 Z" style="stroke: rgb(24, 63, 2); fill: rgba(77, 198, 0, 0.286);"/>
    <path d="M 104.56 109.38 C 104.56 109.891 104.422 110.383 104.173 110.834 C 102.735 110.306 100.641 109.973 98.309 109.973 C 96.095 109.973 94.095 110.272 92.668 110.755 C 92.446 110.326 92.325 109.862 92.325 109.38 C 92.325 107.092 95.065 105.234 98.443 105.234 C 101.819 105.234 104.56 107.092 104.56 109.38 Z" style="stroke: rgb(24, 63, 2); fill: rgba(77, 198, 0, 0.286);"/>
    <ellipse style="stroke: rgb(24, 63, 2); fill: rgba(77, 198, 0, 0.286); transform-origin: 73.945px 115.957px;" cx="73.945" cy="115.957" rx="1.303" ry="1.673" transform="matrix(0.923556, -0.383464, 0.722047, 0.782975, 26.270357, -8.632297)"/>
    <path d="M 116.959 109.946 C 116.959 110.773 116.764 111.568 116.406 112.301 C 114.346 111.445 111.342 110.904 108.001 110.904 C 104.827 110.904 101.962 111.39 99.918 112.172 C 99.598 111.475 99.424 110.726 99.424 109.946 C 99.424 106.236 103.35 103.23 108.191 103.23 C 113.033 103.23 116.959 106.236 116.959 109.946 Z" style="stroke: rgb(24, 63, 2); fill: rgba(77, 198, 0, 0.286);"/>
    <path d="M 87.299 107.725 C 87.299 108.215 87.103 108.682 86.745 109.116 C 84.685 108.61 81.682 108.291 78.34 108.291 C 75.168 108.291 72.3 108.578 70.256 109.04 C 69.937 108.629 69.763 108.186 69.763 107.725 C 69.763 105.536 73.689 103.76 78.532 103.76 C 83.373 103.76 87.299 105.536 87.299 107.725 Z" style="stroke: rgb(24, 63, 2); fill: rgba(77, 198, 0, 0.286);"/>
    <ellipse style="stroke: rgb(24, 63, 2); fill: rgba(77, 198, 0, 0.286); transform-box: fill-box; transform-origin: 50% 50%;" cx="73.945" cy="115.957" rx="2.615" ry="2.474" transform="matrix(0.923556, -0.383464, 0.722047, 0.782975, -16.976327, -0.730341)"/>
    <ellipse style="stroke: rgb(24, 63, 2); fill: rgba(77, 198, 0, 0.286); transform-origin: 73.945px 115.957px;" cx="73.945" cy="115.957" rx="1.077" ry="2.327" transform="matrix(0.68761, -0.72608, 0.981099, 0.418324, 8.829893, -9.512613)"/>
    <ellipse style="stroke: rgb(24, 63, 2); fill: rgba(77, 198, 0, 0.286); transform-origin: 73.945px 115.957px;" cx="73.945" cy="115.957" rx="2.615" ry="2.474" transform="matrix(0.923556, -0.383464, 0.722047, 0.782975, 37.599226, -9.264019)"/>
  </g>
  <path stroke-width="0" d="M 252.39 381.728 C 266.933 381.594 297.748 381.574 305.605 381.728 C 308.612 381.788 308.751 381.808 310.283 381.974 C 312.024 382.162 314.143 382.526 315.4 382.864 C 316.565 383.177 317.31 383.566 317.739 383.908 C 318.131 384.22 318.256 384.498 318.032 384.829 C 317.773 385.207 316.95 385.715 315.985 386.056 C 315.101 386.369 314.002 386.617 312.622 386.824 C 311.159 387.043 309.656 387.189 307.359 387.315 C 304.227 387.487 296.942 387.25 294.933 387.622 C 293.401 387.905 294.889 388.525 294.055 388.942 C 293.164 389.387 290.666 389.968 289.524 390.2 C 288.865 390.334 288.159 390.266 287.915 390.415 C 287.519 390.658 289.244 391.331 289.086 391.765 C 288.929 392.19 288.003 392.652 287.038 392.993 C 286.155 393.306 285.193 393.551 283.675 393.76 C 281.888 394.009 280.375 394.155 276.658 394.313 C 269.78 394.606 248.101 395.007 241.865 394.927 C 238.895 394.889 238.209 394.803 236.602 394.62 C 234.932 394.43 233.223 394.111 232.07 393.791 C 230.957 393.483 230.159 393.089 229.73 392.748 C 229.338 392.435 229.347 392.084 229.438 391.827 C 229.512 391.62 230.435 391.431 230.023 391.305 C 229.498 391.145 226.933 391.221 225.491 391.06 C 223.897 390.881 222.113 390.55 220.959 390.231 C 219.846 389.923 219.053 389.539 218.62 389.187 C 218.209 388.853 219.892 388.358 218.328 388.174 C 215.215 387.809 196.83 388.953 191.575 388.911 C 188.799 388.889 187.919 388.786 186.311 388.604 C 184.641 388.414 182.932 388.094 181.779 387.775 C 180.667 387.467 179.868 387.073 179.439 386.732 C 179.048 386.419 178.977 386.126 179.147 385.811 C 179.33 385.473 179.757 385.091 180.61 384.767 C 181.515 384.423 183.037 384.058 184.557 383.815 C 186.023 383.582 186.624 383.489 189.528 383.324 C 195.626 382.979 213.443 382.552 224.321 382.28 C 234.281 382.032 241.112 381.832 252.39 381.728 Z" style="stroke-width: 2px; fill: rgba(0, 0, 0, 0.4); filter: url(&quot;#filter-5&quot;); transform-box: fill-box; transform-origin: 50% 50%;" transform="matrix(0.998348, 0.057459, -0.057459, 0.998348, 0, 0.000001)"/>
  <path stroke-width="0" d="M 122.373 358.24 C 127.368 358.441 137.952 358.472 140.65 358.24 C 141.683 358.15 141.73 358.119 142.257 357.87 C 142.855 357.585 143.582 357.037 144.014 356.527 C 144.414 356.056 144.67 355.47 144.818 354.955 C 144.952 354.484 144.995 354.064 144.918 353.566 C 144.829 352.996 144.546 352.231 144.215 351.717 C 143.912 351.245 143.534 350.871 143.06 350.56 C 142.558 350.229 142.041 350.01 141.253 349.819 C 140.177 349.56 137.674 349.917 136.985 349.357 C 136.458 348.929 136.969 347.996 136.683 347.367 C 136.377 346.696 135.519 345.82 135.127 345.471 C 134.901 345.269 134.658 345.371 134.574 345.147 C 134.438 344.781 135.031 343.766 134.976 343.112 C 134.923 342.471 134.605 341.776 134.273 341.261 C 133.97 340.789 133.639 340.421 133.118 340.105 C 132.504 339.731 131.984 339.51 130.708 339.271 C 128.345 338.83 120.9 338.226 118.758 338.347 C 117.738 338.403 117.503 338.533 116.95 338.809 C 116.377 339.095 115.789 339.577 115.394 340.058 C 115.011 340.523 114.737 341.116 114.59 341.631 C 114.456 342.102 114.459 342.632 114.49 343.019 C 114.515 343.33 114.832 343.616 114.69 343.805 C 114.511 344.047 113.629 343.932 113.134 344.175 C 112.587 344.445 111.974 344.943 111.577 345.425 C 111.196 345.888 110.923 346.467 110.774 346.998 C 110.633 347.502 111.211 348.247 110.674 348.524 C 109.605 349.074 103.29 347.351 101.485 347.414 C 100.532 347.447 100.229 347.601 99.677 347.876 C 99.104 348.162 98.517 348.644 98.121 349.126 C 97.739 349.589 97.465 350.184 97.317 350.698 C 97.183 351.169 97.159 351.61 97.217 352.086 C 97.28 352.595 97.426 353.171 97.719 353.659 C 98.03 354.177 98.553 354.728 99.075 355.094 C 99.579 355.445 99.785 355.586 100.782 355.834 C 102.877 356.354 108.996 356.998 112.732 357.407 C 116.153 357.781 118.5 358.083 122.373 358.24 Z" style="stroke-width: 2px; fill: rgba(0, 0, 0, 0.4); filter: url(&quot;#filter-8&quot;); transform-origin: 121.072px 348.367px;" transform="matrix(-0.998348, 0.057459, -0.057459, -0.998348, -0.000001, -0.000015)"/>
  <g transform="matrix(1, 0, 0, 0.808713, -145.561325, -10.310219)" style="">
    <path d="M 276.749 137.374 C 276.749 138.652 276.329 139.835 275.617 140.8 C 274.351 140.601 272.912 140.488 271.386 140.488 C 269.35 140.488 267.469 140.688 265.948 141.027 C 265.128 140.024 264.639 138.754 264.639 137.374 C 264.639 134.125 267.35 131.492 270.694 131.492 C 274.038 131.492 276.749 134.125 276.749 137.374 Z" style="fill: rgb(40, 161, 0); stroke: rgba(0, 0, 0, 0.47);"/>
    <path d="M 302.268 140.277 C 302.268 141.44 301.871 142.517 301.197 143.394 C 299.998 143.213 298.636 143.11 297.191 143.11 C 295.263 143.11 293.481 143.293 292.041 143.601 C 291.265 142.688 290.802 141.532 290.802 140.277 C 290.802 137.32 293.369 134.924 296.535 134.924 C 299.702 134.924 302.268 137.32 302.268 140.277 Z" style="fill: rgb(40, 161, 0); stroke: rgba(0, 0, 0, 0.47);"/>
    <ellipse style="fill: rgb(216, 216, 216); stroke: rgba(255, 255, 255, 0.255); transform-origin: 278.885px 138.091px;" cx="278.885" cy="138.091" rx="0.882" ry="2.776" transform="matrix(0.915533, 0.402243, -0.402243, 0.915533, 15.693706, 0.640932)"/>
    <path d="M 293.69 139.399 C 293.69 141.77 292.921 143.964 291.616 145.753 C 289.296 145.384 286.66 145.174 283.864 145.174 C 280.133 145.174 276.686 145.546 273.899 146.174 C 272.397 144.314 271.501 141.958 271.501 139.399 C 271.501 133.374 276.468 128.49 282.596 128.49 C 288.723 128.49 293.69 133.374 293.69 139.399 Z" style="fill: rgb(40, 161, 0); stroke: rgba(0, 0, 0, 0.47);"/>
    <ellipse style="fill: rgb(216, 216, 216); stroke: rgb(255, 255, 255); transform-box: fill-box; transform-origin: 50% 50%;" cx="278.885" cy="138.091" rx="2.528" ry="5.632" transform="matrix(0.915533, 0.402243, -0.402243, 0.915533, -1.867145, -1.918927)"/>
    <ellipse style="fill: rgb(216, 216, 216); stroke: rgba(255, 255, 255, 0.255); transform-origin: 278.885px 138.091px;" cx="278.885" cy="138.091" rx="0.882" ry="2.776" transform="matrix(0.915533, 0.402243, -0.402243, 0.915533, -11.133824, -2.533324)"/>
  </g>
  <g transform="matrix(1, 0, 0, 0.808713, 52.891033, -55.97681)" style="">
    <path d="M 276.749 137.374 C 276.749 138.652 276.329 139.835 275.617 140.8 C 274.351 140.601 272.912 140.488 271.386 140.488 C 269.35 140.488 267.469 140.688 265.948 141.027 C 265.128 140.024 264.639 138.754 264.639 137.374 C 264.639 134.125 267.35 131.492 270.694 131.492 C 274.038 131.492 276.749 134.125 276.749 137.374 Z" style="fill: rgb(40, 161, 0); stroke: rgba(0, 0, 0, 0.47);"/>
    <path d="M 302.268 140.277 C 302.268 141.44 301.871 142.517 301.197 143.394 C 299.998 143.213 298.636 143.11 297.191 143.11 C 295.263 143.11 293.481 143.293 292.041 143.601 C 291.265 142.688 290.802 141.532 290.802 140.277 C 290.802 137.32 293.369 134.924 296.535 134.924 C 299.702 134.924 302.268 137.32 302.268 140.277 Z" style="fill: rgb(40, 161, 0); stroke: rgba(0, 0, 0, 0.47);"/>
    <ellipse style="fill: rgb(216, 216, 216); stroke: rgba(255, 255, 255, 0.255); transform-origin: 278.885px 138.091px;" cx="278.885" cy="138.091" rx="0.882" ry="2.776" transform="matrix(0.915533, 0.402243, -0.402243, 0.915533, 15.693706, 0.640932)"/>
    <path d="M 293.69 139.399 C 293.69 141.77 292.921 143.964 291.616 145.753 C 289.296 145.384 286.66 145.174 283.864 145.174 C 280.133 145.174 276.686 145.546 273.899 146.174 C 272.397 144.314 271.501 141.958 271.501 139.399 C 271.501 133.374 276.468 128.49 282.596 128.49 C 288.723 128.49 293.69 133.374 293.69 139.399 Z" style="fill: rgb(40, 161, 0); stroke: rgba(0, 0, 0, 0.47);"/>
    <ellipse style="fill: rgb(216, 216, 216); stroke: rgb(255, 255, 255); transform-box: fill-box; transform-origin: 50% 50%;" cx="278.885" cy="138.091" rx="2.528" ry="5.632" transform="matrix(0.915533, 0.402243, -0.402243, 0.915533, -1.867145, -1.918927)"/>
    <ellipse style="fill: rgb(216, 216, 216); stroke: rgba(255, 255, 255, 0.255); transform-origin: 278.885px 138.091px;" cx="278.885" cy="138.091" rx="0.882" ry="2.776" transform="matrix(0.915533, 0.402243, -0.402243, 0.915533, -11.133824, -2.533324)"/>
  </g>
  <g transform="matrix(1, 0, 0, 0.808713, -159.655945, 229.862259)" style="">
    <path d="M 276.749 137.374 C 276.749 138.652 276.329 139.835 275.617 140.8 C 274.351 140.601 272.912 140.488 271.386 140.488 C 269.35 140.488 267.469 140.688 265.948 141.027 C 265.128 140.024 264.639 138.754 264.639 137.374 C 264.639 134.125 267.35 131.492 270.694 131.492 C 274.038 131.492 276.749 134.125 276.749 137.374 Z" style="fill: rgb(40, 161, 0); stroke: rgba(0, 0, 0, 0.47);"/>
    <path d="M 302.268 140.277 C 302.268 141.44 301.871 142.517 301.197 143.394 C 299.998 143.213 298.636 143.11 297.191 143.11 C 295.263 143.11 293.481 143.293 292.041 143.601 C 291.265 142.688 290.802 141.532 290.802 140.277 C 290.802 137.32 293.369 134.924 296.535 134.924 C 299.702 134.924 302.268 137.32 302.268 140.277 Z" style="fill: rgb(40, 161, 0); stroke: rgba(0, 0, 0, 0.47);"/>
    <ellipse style="fill: rgb(216, 216, 216); stroke: rgba(255, 255, 255, 0.255); transform-origin: 278.885px 138.091px;" cx="278.885" cy="138.091" rx="0.882" ry="2.776" transform="matrix(0.915533, 0.402243, -0.402243, 0.915533, 15.693706, 0.640932)"/>
    <path d="M 293.69 139.399 C 293.69 141.77 292.921 143.964 291.616 145.753 C 289.296 145.384 286.66 145.174 283.864 145.174 C 280.133 145.174 276.686 145.546 273.899 146.174 C 272.397 144.314 271.501 141.958 271.501 139.399 C 271.501 133.374 276.468 128.49 282.596 128.49 C 288.723 128.49 293.69 133.374 293.69 139.399 Z" style="fill: rgb(40, 161, 0); stroke: rgba(0, 0, 0, 0.47);"/>
    <ellipse style="fill: rgb(216, 216, 216); stroke: rgb(255, 255, 255); transform-box: fill-box; transform-origin: 50% 50%;" cx="278.885" cy="138.091" rx="2.528" ry="5.632" transform="matrix(0.915533, 0.402243, -0.402243, 0.915533, -1.867145, -1.918927)"/>
    <ellipse style="fill: rgb(216, 216, 216); stroke: rgba(255, 255, 255, 0.255); transform-origin: 278.885px 138.091px;" cx="278.885" cy="138.091" rx="0.882" ry="2.776" transform="matrix(0.915533, 0.402243, -0.402243, 0.915533, -11.133824, -2.533324)"/>
  </g>
</svg>