<?xml version="1.0" encoding="utf-8"?>
<svg xmlns="http://www.w3.org/2000/svg" viewBox="0 0 90 115" width="90px" height="110px">
  <rect x="-8.291" y="-56.474" width="6.038" height="13.95" style="stroke: rgb(0, 0, 0); fill: rgb(30, 19, 71);" transform="matrix(-0.421287, 0.906928, 0.892454, 0.452444, 102.040959, 103.148789)"/>
  <rect x="-9.378" y="-70.394" width="3.521" height="12.481" style="stroke: rgb(0, 0, 0); fill: rgb(75, 44, 44);" transform="matrix(-0.421287, 0.906928, 0.892454, 0.452444, 125.97007, 117.716233)"/>
  <ellipse style="stroke: rgb(0, 0, 0); fill: rgb(251, 0, 0);" cx="16.095" cy="45.604" rx="3.485" ry="3.319" transform="matrix(0.428813, -0.903393, -0.888465, -0.460262, 108.557652, 118.77175)"/>
  <g transform="matrix(0.521412, -1.098473, -1.119221, -0.579804, 132.964127, 109.79277)" style="">
    <path d="M -2.243 39.665 L 1.747 49.483 C 1.218 49.421 0.676 49.386 0.128 49.386 C -2.531 49.386 -4.996 50.158 -7.042 51.474 L -2.243 39.665 Z" style="stroke: rgb(0, 0, 0); fill: rgb(167, 58, 58);"/>
    <path d="M -2.037 39.665 L 1.112 47.127 C 0.694 47.079 0.267 47.053 -0.166 47.053 C -2.264 47.053 -4.21 47.639 -5.824 48.64 L -2.037 39.665 Z" style="stroke: rgb(0, 0, 0); fill: rgb(167, 58, 58);"/>
    <path d="M -2.197 39.902 L -0.088 45.188 C -0.368 45.154 -0.654 45.136 -0.944 45.136 C -2.349 45.136 -3.653 45.551 -4.734 46.26 Z" style="stroke: rgb(0, 0, 0); fill: rgb(167, 58, 58);"/>
  </g>
  <rect x="-8.357" y="-56.023" width="6.086" height="13.838" style="stroke: rgb(0, 0, 0); fill: rgb(51, 37, 97);" transform="matrix(0.021239, 0.999774, 0.999733, -0.02318, 106.958304, 69.006526)"/>
  <rect x="-9.453" y="-69.831" width="3.55" height="12.381" style="stroke: rgb(0, 0, 0); fill: rgb(75, 44, 44);" transform="matrix(0.021239, 0.999774, 0.999733, -0.02318, 134.614066, 70.5576)"/>
  <ellipse style="stroke: rgb(0, 0, 0); fill: rgb(251, 0, 0);" cx="16.095" cy="45.604" rx="3.514" ry="3.291" transform="matrix(-0.01306, -0.999915, -0.999899, 0.014254, 119.958702, 79.659792)"/>
  <g transform="matrix(-0.016014, -1.226001, -1.249157, 0.017807, 137.375198, 60.172646)" style="">
    <path d="M -2.243 39.665 L 1.747 49.483 C 1.218 49.421 0.676 49.386 0.128 49.386 C -2.531 49.386 -4.996 50.158 -7.042 51.474 L -2.243 39.665 Z" style="stroke: rgb(0, 0, 0); fill: rgb(167, 58, 58);"/>
    <path d="M -2.037 39.665 L 1.112 47.127 C 0.694 47.079 0.267 47.053 -0.166 47.053 C -2.264 47.053 -4.21 47.639 -5.824 48.64 L -2.037 39.665 Z" style="stroke: rgb(0, 0, 0); fill: rgb(167, 58, 58);"/>
    <path d="M -2.197 39.902 L -0.088 45.188 C -0.368 45.154 -0.654 45.136 -0.944 45.136 C -2.349 45.136 -3.653 45.551 -4.734 46.26 Z" style="stroke: rgb(0, 0, 0); fill: rgb(167, 58, 58);"/>
  </g>
  <rect x="-8.299" y="-56.414" width="6.044" height="13.935" style="stroke: rgb(0, 0, 0); fill: rgb(51, 37, 97);" transform="matrix(0.391882, 0.920016, 0.907284, -0.421771, 107.492874, 34.768399)"/>
  <rect x="-9.388" y="-70.318" width="3.525" height="12.468" style="stroke: rgb(0, 0, 0); fill: rgb(75, 44, 44);" transform="matrix(0.391882, 0.920016, 0.907284, -0.421771, 133.576581, 25.041778)"/>
  <ellipse style="stroke: rgb(0, 0, 0); fill: rgb(251, 0, 0);" cx="16.095" cy="45.604" rx="3.491" ry="3.313" transform="matrix(-0.384239, -0.923234, -0.910945, 0.413766, 123.18511, 39.576188)"/>
  <g transform="matrix(-0.467976, -1.124432, -1.14567, 0.520382, 132.284576, 14.348496)" style="">
    <path d="M -2.243 39.665 L 1.747 49.483 C 1.218 49.421 0.676 49.386 0.128 49.386 C -2.531 49.386 -4.996 50.158 -7.042 51.474 L -2.243 39.665 Z" style="stroke: rgb(0, 0, 0); fill: rgb(167, 58, 58);"/>
    <path d="M -2.037 39.665 L 1.112 47.127 C 0.694 47.079 0.267 47.053 -0.166 47.053 C -2.264 47.053 -4.21 47.639 -5.824 48.64 L -2.037 39.665 Z" style="stroke: rgb(0, 0, 0); fill: rgb(167, 58, 58);"/>
    <path d="M -2.197 39.902 L -0.088 45.188 C -0.368 45.154 -0.654 45.136 -0.944 45.136 C -2.349 45.136 -3.653 45.551 -4.734 46.26 Z" style="stroke: rgb(0, 0, 0); fill: rgb(167, 58, 58);"/>
  </g>
  <rect x="8.291" y="56.474" width="6.038" height="13.95" style="stroke: rgb(0, 0, 0); fill: rgb(30, 19, 71);" transform="matrix(0.421287, 0.906928, -0.892454, 0.452444, 82.883438, 36.847408)"/>
  <rect x="9.378" y="70.394" width="3.521" height="12.481" style="stroke: rgb(0, 0, 0); fill: rgb(75, 44, 44);" transform="matrix(0.421287, 0.906928, -0.892454, 0.452444, 82.883438, 36.847408)"/>
  <ellipse style="stroke: rgb(0, 0, 0); fill: rgb(251, 0, 0);" cx="16.095" cy="45.604" rx="3.485" ry="3.319" transform="matrix(-0.428813, -0.903393, 0.888465, -0.460262, -17.449594, 118.611265)"/>
  <g transform="matrix(-0.521412, -1.098473, 1.119221, -0.579804, -41.856075, 109.632286)" style="">
    <path d="M -2.243 39.665 L 1.747 49.483 C 1.218 49.421 0.676 49.386 0.128 49.386 C -2.531 49.386 -4.996 50.158 -7.042 51.474 L -2.243 39.665 Z" style="stroke: rgb(0, 0, 0); fill: rgb(167, 58, 58);"/>
    <path d="M -2.037 39.665 L 1.112 47.127 C 0.694 47.079 0.267 47.053 -0.166 47.053 C -2.264 47.053 -4.21 47.639 -5.824 48.64 L -2.037 39.665 Z" style="stroke: rgb(0, 0, 0); fill: rgb(167, 58, 58);"/>
    <path d="M -2.197 39.902 L -0.088 45.188 C -0.368 45.154 -0.654 45.136 -0.944 45.136 C -2.349 45.136 -3.653 45.551 -4.734 46.26 Z" style="stroke: rgb(0, 0, 0); fill: rgb(167, 58, 58);"/>
  </g>
  <rect x="8.357" y="56.023" width="6.086" height="13.838" style="stroke: rgb(0, 0, 0); fill: rgb(51, 37, 97);" transform="matrix(-0.021239, 0.999774, -0.999733, -0.02318, 96.521317, 54.732254)"/>
  <rect x="9.453" y="69.831" width="3.55" height="12.381" style="stroke: rgb(0, 0, 0); fill: rgb(75, 44, 44);" transform="matrix(-0.021239, 0.999774, -0.999733, -0.02318, 96.521317, 54.732254)"/>
  <ellipse style="stroke: rgb(0, 0, 0); fill: rgb(251, 0, 0);" cx="16.095" cy="45.604" rx="3.514" ry="3.291" transform="matrix(0.01306, -0.999915, 0.999899, 0.014254, -28.850535, 79.499224)"/>
  <g transform="matrix(0.016014, -1.226001, 1.249157, 0.017807, -46.267021, 60.012074)" style="">
    <path d="M -2.243 39.665 L 1.747 49.483 C 1.218 49.421 0.676 49.386 0.128 49.386 C -2.531 49.386 -4.996 50.158 -7.042 51.474 L -2.243 39.665 Z" style="stroke: rgb(0, 0, 0); fill: rgb(167, 58, 58);"/>
    <path d="M -2.037 39.665 L 1.112 47.127 C 0.694 47.079 0.267 47.053 -0.166 47.053 C -2.264 47.053 -4.21 47.639 -5.824 48.64 L -2.037 39.665 Z" style="stroke: rgb(0, 0, 0); fill: rgb(167, 58, 58);"/>
    <path d="M -2.197 39.902 L -0.088 45.188 C -0.368 45.154 -0.654 45.136 -0.944 45.136 C -2.349 45.136 -3.653 45.551 -4.734 46.26 Z" style="stroke: rgb(0, 0, 0); fill: rgb(167, 58, 58);"/>
  </g>
  <rect x="8.299" y="56.414" width="6.044" height="13.935" style="stroke: rgb(0, 0, 0); fill: rgb(51, 37, 97);" transform="matrix(-0.391882, 0.920016, -0.907284, -0.421771, 92.486565, 66.923935)"/>
  <rect x="9.388" y="70.318" width="3.525" height="12.468" style="stroke: rgb(0, 0, 0); fill: rgb(75, 44, 44);" transform="matrix(-0.391882, 0.920016, -0.907284, -0.421771, 92.486565, 66.923935)"/>
  <ellipse style="stroke: rgb(0, 0, 0); fill: rgb(251, 0, 0);" cx="16.095" cy="45.604" rx="3.491" ry="3.313" transform="matrix(0.384239, -0.923234, 0.910945, 0.413766, -32.077062, 39.415696)"/>
  <g transform="matrix(0.467976, -1.124432, 1.14567, 0.520382, -41.176537, 14.188004)" style="">
    <path d="M -2.243 39.665 L 1.747 49.483 C 1.218 49.421 0.676 49.386 0.128 49.386 C -2.531 49.386 -4.996 50.158 -7.042 51.474 L -2.243 39.665 Z" style="stroke: rgb(0, 0, 0); fill: rgb(167, 58, 58);"/>
    <path d="M -2.037 39.665 L 1.112 47.127 C 0.694 47.079 0.267 47.053 -0.166 47.053 C -2.264 47.053 -4.21 47.639 -5.824 48.64 L -2.037 39.665 Z" style="stroke: rgb(0, 0, 0); fill: rgb(167, 58, 58);"/>
    <path d="M -2.197 39.902 L -0.088 45.188 C -0.368 45.154 -0.654 45.136 -0.944 45.136 C -2.349 45.136 -3.653 45.551 -4.734 46.26 Z" style="stroke: rgb(0, 0, 0); fill: rgb(167, 58, 58);"/>
  </g>
  <rect x="34.469" y="86.038" width="5.826" height="14.456" style="stroke: rgb(0, 0, 0); fill: rgb(30, 19, 71);"/>
  <rect x="35.518" y="100.463" width="3.398" height="12.934" style="fill: rgb(45, 34, 34); stroke-width: 2px; stroke: rgb(32, 22, 22);"/>
  <rect x="49.055" y="83.025" width="5.826" height="14.456" style="stroke: rgb(0, 0, 0); fill: rgb(30, 19, 71);"/>
  <rect x="50.104" y="97.45" width="3.398" height="12.934" style="fill: rgb(49, 36, 36); stroke-width: 2px; stroke: rgb(32, 22, 22);"/>
  <g transform="matrix(1, 0, 0, 1.044688, 38.841339, -4.088414)" style="">
    <rect x="15.525" y="11.568" width="4.127" height="13.352" style="stroke: rgb(0, 0, 0); fill: rgb(56, 42, 42);"/>
    <ellipse style="stroke: rgb(0, 0, 0); fill: rgb(56, 42, 42);" cx="17.104" cy="10.315" rx="4.006" ry="4.006"/>
  </g>
  <g transform="matrix(1, 0, 0, 1.044688, 16.264673, -5.894302)" style="">
    <rect x="15.525" y="11.568" width="4.127" height="13.352" style="stroke: rgb(0, 0, 0); fill: rgb(114, 92, 92);"/>
    <ellipse style="stroke: rgb(0, 0, 0); fill: rgb(114, 92, 92);" cx="17.104" cy="10.315" rx="4.006" ry="4.006"/>
  </g>
  <ellipse style="stroke: rgb(0, 0, 0); fill: rgb(30, 19, 71);" cx="44.661" cy="78.229" rx="15.412" ry="18.339"/>
  <g style="transform-origin: 44.262px 61.857px;" transform="matrix(0.760662, 0, 0, 0.752463, 0.085234, 24.637276)">
    <path d="M 53.165 55.153 L 53.165 55.213 C 51.916 56.361 51.053 58.823 51.053 61.676 C 51.053 64.529 51.916 66.991 53.165 68.139 L 53.165 68.56 L 35.359 68.56 L 35.359 68.328 C 36.695 67.25 37.635 64.698 37.635 61.721 C 37.635 58.779 36.718 56.251 35.405 55.153 L 53.165 55.153 Z" style="stroke: rgb(0, 0, 0); fill: rgb(15, 39, 156);"/>
    <rect x="39.731" y="57.718" width="1.004" height="7.74" style="stroke: rgb(0, 0, 0); stroke-width: 0.2px; fill: rgb(255, 42, 0);"/>
    <ellipse style="stroke: rgb(0, 0, 0); fill: rgb(255, 0, 0);" cx="40.174" cy="58.102" rx="0.975" ry="1.506"/>
    <rect x="48.358" y="57.6" width="1.004" height="7.74" style="stroke: rgb(0, 0, 0); stroke-width: 0.2px; fill: rgb(255, 42, 0);"/>
    <ellipse style="stroke: rgb(0, 0, 0); fill: rgb(255, 0, 0);" cx="48.919" cy="65.37" rx="0.975" ry="1.506"/>
    <ellipse style="stroke: rgb(0, 0, 0); fill: rgb(0, 234, 255);" cx="48.801" cy="59.241" rx="0.975" ry="1.506"/>
    <ellipse style="stroke: rgb(0, 0, 0); fill: rgb(0, 234, 255);" cx="40.226" cy="63.912" rx="0.975" ry="1.506"/>
    <rect x="43.649" y="57.777" width="1.804" height="7.525" style="stroke: rgb(0, 0, 0); stroke-width: 0.2px; fill: rgb(255, 156, 0);"/>
    <ellipse style="stroke: rgb(0, 0, 0); fill: rgb(255, 156, 0);" cx="44.428" cy="58.161" rx="0.975" ry="1.506"/>
    <ellipse style="stroke: rgb(0, 0, 0); fill: rgb(255, 156, 0);" cx="44.546" cy="65.429" rx="0.975" ry="1.506"/>
  </g>
  <ellipse style="fill: rgba(0, 0, 0, 0.557);" cx="44.617" cy="75.059" rx="14.753" ry="12.061"/>
  <ellipse style="stroke: rgb(0, 0, 0); fill: rgb(51, 37, 97);" cx="44.268" cy="60.705" rx="13.959" ry="19.223"/>
  <g style="transform-origin: 44.262px 61.8565px;" transform="matrix(0, 1.044688, -1, 0, 0.340935, 3.971496)">
    <path d="M 53.165 55.153 L 53.165 55.213 C 51.916 56.361 51.053 58.823 51.053 61.676 C 51.053 64.529 51.916 66.991 53.165 68.139 L 53.165 68.56 L 35.359 68.56 L 35.359 68.328 C 36.695 67.25 37.635 64.698 37.635 61.721 C 37.635 58.779 36.718 56.251 35.405 55.153 L 53.165 55.153 Z" style="stroke: rgb(0, 0, 0); fill: rgb(15, 39, 156);"/>
    <rect x="39.731" y="57.718" width="1.004" height="7.74" style="stroke: rgb(0, 0, 0); stroke-width: 0.2px; fill: rgb(255, 42, 0);"/>
    <ellipse style="stroke: rgb(0, 0, 0); fill: rgb(255, 0, 0);" cx="40.174" cy="58.102" rx="0.975" ry="1.506"/>
    <rect x="48.358" y="57.6" width="1.004" height="7.74" style="stroke: rgb(0, 0, 0); stroke-width: 0.2px; fill: rgb(255, 42, 0);"/>
    <ellipse style="stroke: rgb(0, 0, 0); fill: rgb(255, 0, 0);" cx="48.919" cy="65.37" rx="0.975" ry="1.506"/>
    <ellipse style="stroke: rgb(0, 0, 0); fill: rgb(0, 234, 255);" cx="48.801" cy="59.241" rx="0.975" ry="1.506"/>
    <ellipse style="stroke: rgb(0, 0, 0); fill: rgb(0, 234, 255);" cx="40.226" cy="63.912" rx="0.975" ry="1.506"/>
    <rect x="43.649" y="57.777" width="1.804" height="7.525" style="stroke: rgb(0, 0, 0); stroke-width: 0.2px; fill: rgb(255, 156, 0);"/>
    <ellipse style="stroke: rgb(0, 0, 0); fill: rgb(255, 156, 0);" cx="44.428" cy="58.161" rx="0.975" ry="1.506"/>
    <ellipse style="stroke: rgb(0, 0, 0); fill: rgb(255, 156, 0);" cx="44.546" cy="65.429" rx="0.975" ry="1.506"/>
  </g>
  <ellipse style="fill: rgba(0, 0, 0, 0.557);" cx="44.395" cy="52.009" rx="11.767" ry="10.71"/>
  <path d="M 64.321 30.906 C 64.321 38.978 59.972 45.988 53.589 49.52 C 53.279 53.054 51.941 55.712 50.338 55.712 C 49.083 55.712 47.991 54.085 47.427 51.682 C 46.368 51.863 45.28 51.956 44.172 51.956 C 43.471 51.956 42.779 51.918 42.096 51.845 C 41.539 54.305 40.434 55.981 39.161 55.981 C 37.609 55.981 36.306 53.49 35.943 50.125 C 28.917 46.838 24.023 39.47 24.023 30.906 C 24.023 19.281 33.044 9.857 44.172 9.857 C 55.3 9.857 64.321 19.281 64.321 30.906 Z" style="fill: rgb(74, 54, 54); stroke-width: 2px; stroke: rgb(32, 22, 22);"/>
  <ellipse style="fill: rgb(114, 92, 92);" cx="46.116" cy="30.854" rx="17.754" ry="19.37"/>
  <ellipse style="stroke: rgb(0, 0, 0);" cx="38.952" cy="30.277" rx="4.005" ry="7.989"/>
  <ellipse style="fill: rgb(255, 0, 0); stroke: rgb(69, 50, 50);" cx="52.686" cy="27.781" rx="5.835" ry="9.661"/>
  <ellipse style="stroke: rgb(0, 0, 0); fill: rgb(255, 0, 0);" cx="37.671" cy="111.183" rx="4.292" ry="3.395"/>
  <ellipse style="stroke: rgb(0, 0, 0); fill: rgb(255, 0, 0);" cx="51.663" cy="108.65" rx="3.792" ry="2.656"/>
  <ellipse style="fill: rgb(255, 63, 63);" cx="53.52" cy="27.643" rx="4.414" ry="6.945"/>
  <ellipse style="fill: rgb(255, 113, 113);" cx="54.677" cy="28.134" rx="3.096" ry="4.12"/>
</svg>