<?xml version="1.0" encoding="utf-8"?>
<svg xmlns="http://www.w3.org/2000/svg" viewBox="0 0 90 110" width="90px" height="110px">
  <defs>
    <radialGradient gradientUnits="userSpaceOnUse" cx="-46.368" cy="39.48" r="3.85" id="gradient-0" gradientTransform="matrix(1, 0, 0, 1, -0.000102, -0.000042)">
      <stop offset="0" style="stop-color: rgb(20.784% 62.745% 59.216%)"/>
      <stop offset="1" style="stop-color: rgb(0% 38.396% 35.615%)"/>
    </radialGradient>
  </defs>
  <g transform="matrix(0.710445, 0.703753, -1.054217, 1.064241, 18.004932, 4.975605)" style="transform-origin: 10.913px 69.1165px;">
    <rect x="8" y="56.022" width="5.826" height="13.838" style="stroke: rgb(0, 0, 0); fill: rgb(75, 44, 44);"/>
    <rect x="9.049" y="69.83" width="3.398" height="12.381" style="stroke: rgb(0, 0, 0); fill: rgb(75, 44, 44);"/>
  </g>
  <ellipse style="stroke: rgb(0, 0, 0); fill: rgb(251, 0, 0);" cx="16.095" cy="45.604" rx="3.364" ry="3.291" transform="matrix(-0.716433, -0.697656, 0.697656, -0.716433, -5.608562, 131.81962)"/>
  <g transform="matrix(-0.840854, -0.818816, 0.871563, -0.895021, -31.204029, 131.568451)" style="">
    <path d="M -2.243 39.665 L 1.747 49.483 C 1.218 49.421 0.676 49.386 0.128 49.386 C -2.531 49.386 -4.996 50.158 -7.042 51.474 L -2.243 39.665 Z" style="stroke: rgb(0, 0, 0); fill: rgb(167, 58, 58);"/>
    <path d="M -2.037 39.665 L 1.112 47.127 C 0.694 47.079 0.267 47.053 -0.166 47.053 C -2.264 47.053 -4.21 47.639 -5.824 48.64 L -2.037 39.665 Z" style="stroke: rgb(0, 0, 0); fill: rgb(167, 58, 58);"/>
    <path d="M -2.197 39.902 L -0.088 45.188 C -0.368 45.154 -0.654 45.136 -0.944 45.136 C -2.349 45.136 -3.653 45.551 -4.734 46.26 Z" style="stroke: rgb(0, 0, 0); fill: rgb(167, 58, 58);"/>
  </g>
  <g transform="matrix(0.751156, -0.660124, 0.660124, 0.751156, 1.495887, 17.806271)" style="transform-origin: 19.511px 42.718px;">
    <g transform="matrix(-0.406552, 0.913628, -0.913628, -0.406552, 13.990096, -23.154564)" style="transform-origin: 10.913px 69.1165px;">
      <rect x="8" y="56.022" width="5.826" height="13.838" style="stroke: rgb(0, 0, 0); fill: rgb(75, 44, 44);"/>
      <rect x="9.049" y="69.83" width="3.398" height="12.381" style="stroke: rgb(0, 0, 0); fill: rgb(75, 44, 44);"/>
    </g>
    <ellipse style="stroke: rgb(0, 0, 0); fill: rgb(251, 0, 0);" cx="16.095" cy="45.604" rx="3.364" ry="3.291" transform="matrix(0.39873, -0.917069, 0.917069, 0.39873, -32.589599, 38.174411)"/>
    <g transform="matrix(0.467976, -1.076333, 1.14567, 0.498122, -41.176537, 13.610889)" style="">
      <path d="M -2.243 39.665 L 1.747 49.483 C 1.218 49.421 0.676 49.386 0.128 49.386 C -2.531 49.386 -4.996 50.158 -7.042 51.474 L -2.243 39.665 Z" style="stroke: rgb(0, 0, 0); fill: rgb(167, 58, 58);"/>
      <path d="M -2.037 39.665 L 1.112 47.127 C 0.694 47.079 0.267 47.053 -0.166 47.053 C -2.264 47.053 -4.21 47.639 -5.824 48.64 L -2.037 39.665 Z" style="stroke: rgb(0, 0, 0); fill: rgb(167, 58, 58);"/>
      <path d="M -2.197 39.902 L -0.088 45.188 C -0.368 45.154 -0.654 45.136 -0.944 45.136 C -2.349 45.136 -3.653 45.551 -4.734 46.26 Z" style="stroke: rgb(0, 0, 0); fill: rgb(167, 58, 58);"/>
    </g>
  </g>
  <g transform="matrix(0.932266, -0.361776, 0.361776, 0.932266, 5.642499, 12.370763)" style="transform-origin: 18.7424px 34.0797px;">
    <g transform="matrix(-0.730754, 0.682641, -1.141928, -1.222412, 12.335699, -30.286425)" style="transform-origin: 10.913px 69.1165px;">
      <rect x="8" y="56.022" width="5.826" height="13.838" style="stroke: rgb(0, 0, 0); fill: rgb(75, 44, 44);"/>
      <rect x="9.049" y="69.83" width="3.398" height="12.381" style="stroke: rgb(0, 0, 0); fill: rgb(75, 44, 44);"/>
    </g>
    <ellipse style="stroke: rgb(0, 0, 0); fill: rgb(251, 0, 0);" cx="16.095" cy="45.604" rx="3.364" ry="3.291" transform="matrix(0.724893, -0.688861, 0.688861, 0.724893, -32.664988, 2.793198)"/>
    <g transform="matrix(0.850784, -0.808493, 0.860576, 0.90559, -30.98913, -23.173969)" style="">
      <path d="M -2.243 39.665 L 1.747 49.483 C 1.218 49.421 0.676 49.386 0.128 49.386 C -2.531 49.386 -4.996 50.158 -7.042 51.474 L -2.243 39.665 Z" style="stroke: rgb(0, 0, 0); fill: rgb(167, 58, 58);"/>
      <path d="M -2.037 39.665 L 1.112 47.127 C 0.694 47.079 0.267 47.053 -0.166 47.053 C -2.264 47.053 -4.21 47.639 -5.824 48.64 L -2.037 39.665 Z" style="stroke: rgb(0, 0, 0); fill: rgb(167, 58, 58);"/>
      <path d="M -2.197 39.902 L -0.088 45.188 C -0.368 45.154 -0.654 45.136 -0.944 45.136 C -2.349 45.136 -3.653 45.551 -4.734 46.26 Z" style="stroke: rgb(0, 0, 0); fill: rgb(167, 58, 58);"/>
    </g>
  </g>
  <g transform="matrix(-0.714865, 0.699263, 1.234136, 1.261672, 41.167385, 1.346817)" style="transform-origin: 10.913px 69.1165px;">
    <rect x="8" y="56.022" width="5.826" height="13.838" style="stroke: rgb(0, 0, 0); fill: rgb(75, 44, 44);"/>
    <rect x="9.049" y="69.83" width="3.398" height="12.381" style="stroke: rgb(0, 0, 0); fill: rgb(75, 44, 44);"/>
  </g>
  <ellipse style="stroke: rgb(0, 0, 0); fill: rgb(251, 0, 0);" cx="16.095" cy="45.604" rx="3.364" ry="3.291" transform="matrix(0.720813, -0.69313, -0.69313, -0.720813, 88.699654, 130.891204)"/>
  <g transform="matrix(0.845995, -0.813502, -0.865906, -0.900494, 114.716003, 130.386917)" style="">
    <path d="M -2.243 39.665 L 1.747 49.483 C 1.218 49.421 0.676 49.386 0.128 49.386 C -2.531 49.386 -4.996 50.158 -7.042 51.474 L -2.243 39.665 Z" style="stroke: rgb(0, 0, 0); fill: rgb(167, 58, 58);"/>
    <path d="M -2.037 39.665 L 1.112 47.127 C 0.694 47.079 0.267 47.053 -0.166 47.053 C -2.264 47.053 -4.21 47.639 -5.824 48.64 L -2.037 39.665 Z" style="stroke: rgb(0, 0, 0); fill: rgb(167, 58, 58);"/>
    <path d="M -2.197 39.902 L -0.088 45.188 C -0.368 45.154 -0.654 45.136 -0.944 45.136 C -2.349 45.136 -3.653 45.551 -4.734 46.26 Z" style="stroke: rgb(0, 0, 0); fill: rgb(167, 58, 58);"/>
  </g>
  <g transform="matrix(-0.773692, -0.633561, -0.633561, 0.773692, 50.309525, 20.951365)" style="transform-origin: 19.5109px 42.7177px;">
    <g transform="matrix(-0.406552, 0.913628, -0.913628, -0.406552, 13.990096, -23.154564)" style="transform-origin: 10.913px 69.1165px;">
      <rect x="8" y="56.022" width="5.826" height="13.838" style="stroke: rgb(0, 0, 0); fill: rgb(75, 44, 44);"/>
      <rect x="9.049" y="69.83" width="3.398" height="12.381" style="stroke: rgb(0, 0, 0); fill: rgb(75, 44, 44);"/>
    </g>
    <ellipse style="stroke: rgb(0, 0, 0); fill: rgb(251, 0, 0);" cx="16.095" cy="45.604" rx="3.364" ry="3.291" transform="matrix(0.39873, -0.917069, 0.917069, 0.39873, -32.589599, 38.174411)"/>
    <g transform="matrix(0.467976, -1.076333, 1.14567, 0.498122, -41.176537, 13.610889)" style="">
      <path d="M -2.243 39.665 L 1.747 49.483 C 1.218 49.421 0.676 49.386 0.128 49.386 C -2.531 49.386 -4.996 50.158 -7.042 51.474 L -2.243 39.665 Z" style="stroke: rgb(0, 0, 0); fill: rgb(167, 58, 58);"/>
      <path d="M -2.037 39.665 L 1.112 47.127 C 0.694 47.079 0.267 47.053 -0.166 47.053 C -2.264 47.053 -4.21 47.639 -5.824 48.64 L -2.037 39.665 Z" style="stroke: rgb(0, 0, 0); fill: rgb(167, 58, 58);"/>
      <path d="M -2.197 39.902 L -0.088 45.188 C -0.368 45.154 -0.654 45.136 -0.944 45.136 C -2.349 45.136 -3.653 45.551 -4.734 46.26 Z" style="stroke: rgb(0, 0, 0); fill: rgb(167, 58, 58);"/>
    </g>
  </g>
  <g transform="matrix(0.925212, 0.718942, 0.906924, -1.097973, 53.904915, -32.546978)" style="transform-origin: 10.913px 69.1165px;">
    <g style="transform-origin: 10.8417px 73.7213px;" transform="matrix(0.920006, -0.345789, 0.510804, 0.894961, 5.155349, -9.168859)">
      <rect x="8" y="56.022" width="5.826" height="13.838" style="stroke: rgb(0, 0, 0); fill: rgb(75, 44, 44);"/>
      <rect x="9.049" y="69.83" width="3.398" height="12.381" style="stroke: rgb(0, 0, 0); fill: rgb(75, 44, 44);"/>
      <ellipse style="stroke: rgb(0, 0, 0); fill: rgb(251, 0, 0);" cx="16.095" cy="45.604" rx="3.364" ry="2.781" transform="matrix(-0.999974, 0.007223, -0.010111, -0.999953, 27.243412, 125.274087)"/>
      <g transform="matrix(-1.173624, 0.008477, -0.010676, -1.055796, 8.220984, 133.283981)" style="">
        <path d="M -2.243 39.665 L 1.747 49.483 C 1.218 49.421 0.676 49.386 0.128 49.386 C -2.531 49.386 -4.996 50.158 -7.042 51.474 L -2.243 39.665 Z" style="stroke: rgb(0, 0, 0); fill: rgb(167, 58, 58);"/>
        <path d="M -2.037 39.665 L 1.112 47.127 C 0.694 47.079 0.267 47.053 -0.166 47.053 C -2.264 47.053 -4.21 47.639 -5.824 48.64 L -2.037 39.665 Z" style="stroke: rgb(0, 0, 0); fill: rgb(167, 58, 58);"/>
        <path d="M -2.197 39.902 L -0.088 45.188 C -0.368 45.154 -0.654 45.136 -0.944 45.136 C -2.349 45.136 -3.653 45.551 -4.734 46.26 Z" style="stroke: rgb(0, 0, 0); fill: rgb(167, 58, 58);"/>
      </g>
    </g>
  </g>
  <g transform="matrix(-1, 0, 0, 1, 63.508266, 25.011553)" style="">
    <rect x="8" y="56.022" width="5.826" height="13.838" style="stroke: rgb(0, 0, 0); fill: rgb(45, 34, 34);"/>
    <rect x="9.049" y="69.83" width="3.398" height="12.381" style="stroke: rgb(0, 0, 0); fill: rgb(45, 34, 34);"/>
  </g>
  <g transform="matrix(-1, 0, 0, 1, 50.350876, 13.112315)" style="">
    <rect x="8" y="56.022" width="5.826" height="13.838" style="stroke: rgb(0, 0, 0); fill: rgb(49, 36, 36);"/>
    <rect x="9.049" y="69.83" width="3.398" height="12.381" style="stroke: rgb(0, 0, 0); fill: rgb(49, 36, 36);"/>
  </g>
  <g transform="matrix(-1, 0, 0, 1, 51.135429, -2.150951)" style="">
    <rect x="15.525" y="11.568" width="4.127" height="13.352" style="stroke: rgb(0, 0, 0); fill: rgb(98, 68, 68);"/>
    <ellipse style="stroke: rgb(0, 0, 0); fill: rgb(98, 68, 68);" cx="17.104" cy="10.315" rx="4.006" ry="4.006"/>
  </g>
  <g transform="matrix(-1, 0, 0, 1, 73.71209, -2.87959)" style="">
    <rect x="15.525" y="11.568" width="4.127" height="13.352" style="stroke: rgb(0, 0, 0); fill: rgb(114, 92, 92);"/>
    <ellipse style="stroke: rgb(0, 0, 0); fill: rgb(114, 92, 92);" cx="17.104" cy="10.315" rx="4.006" ry="4.006"/>
  </g>
  <ellipse style="stroke: rgb(0, 0, 0); fill: rgb(30, 19, 71);" cx="-45.316" cy="73.645" rx="15.412" ry="17.555" transform="matrix(-1, 0, 0, 1, 0, 0)"/>
  <ellipse style="fill: rgba(0, 0, 0, 0.557);" cx="-45.36" cy="71.231" rx="14.753" ry="14.151" transform="matrix(-1, 0, 0, 1, 0, 0)"/>
  <ellipse style="stroke: rgb(0, 0, 0); fill: rgb(51, 37, 97);" cx="-45.709" cy="56.871" rx="13.959" ry="18.401" transform="matrix(-1, 0, 0, 1, 0, 0)"/>
  <ellipse style="fill: rgba(0, 0, 0, 0.557);" cx="-45.981" cy="51.128" rx="12.643" ry="12.662" transform="matrix(-1, 0, 0, 1, 0, 0)"/>
  <ellipse style="stroke: rgb(0, 0, 0); fill: rgb(255, 0, 0);" cx="-52.969" cy="106.854" rx="4.292" ry="2.045" transform="matrix(-1, 0, 0, 1, 0, 0)"/>
  <ellipse style="stroke: rgb(0, 0, 0); fill: rgb(255, 0, 0);" cx="-39.583" cy="96.733" rx="3.792" ry="2.542" transform="matrix(-1, 0, 0, 1, 0, 0)"/>
  <ellipse style="stroke: rgb(0, 0, 0); fill: rgb(51, 41, 41);" cx="45.568" cy="33.884" rx="19.235" ry="19.359"/>
  <path style="fill: none; stroke: rgba(0, 0, 0, 0.25);" d="M 33.431 12.006 L 33.573 19.942 L 32.156 21.5 L 32.723 24.76 L 36.478 27.806 L 44.059 27.877 L 44.059 32.837"/>
  <path d="M 54.949 25.971 L 54.949 26.07 C 53.644 27.956 52.741 31.999 52.741 36.684 C 52.741 41.37 53.644 45.415 54.949 47.3 L 54.949 47.992 L 36.338 47.992 L 36.338 47.61 C 37.734 45.839 38.717 41.648 38.717 36.758 C 38.717 31.926 37.758 27.775 36.387 25.971 L 54.949 25.971 Z" style="stroke: rgb(0, 0, 0); fill: rgb(15, 39, 156); transform-origin: 45.644px 36.982px;" transform="matrix(0, 1, -1, 0, 0.000004, 0.000002)"/>
  <path style="fill: none; stroke-width: 0.5px; stroke: rgb(0, 0, 0);" d="M 36.28 29.933 L 36.327 33.663 L 55.118 33.519 L 54.879 36.771 L 36.519 36.484 L 36.614 39.257 L 54.783 39.4 L 54.496 41.695 L 36.662 41.648 L 35.801 43.751"/>
  <path style="fill: none; stroke-width: 0.5px; stroke: rgba(0, 0, 0, 0.21); transform-origin: 46.082px 37.894px;" d="M 36.902 44.803 L 36.949 41.073 L 55.74 41.217 L 55.501 37.965 L 37.141 38.252 L 37.236 35.479 L 55.405 35.336 L 55.118 33.041 L 37.284 33.088 L 36.423 30.985" transform="matrix(-1, 0, 0, -1, -0.00001, 0)"/>
  <ellipse style="stroke-width: 0.5px; fill: url(&quot;#gradient-0&quot;); stroke: rgb(29, 29, 29); transform-origin: -46.368px 39.48px;" cx="-46.368" cy="39.48" rx="3.85" ry="3.851" transform="matrix(-0.999979, -0.006528, -0.006528, 0.999979, 92.128695, -2.607976)"/>
</svg>