<?xml version="1.0" encoding="utf-8"?>
<svg xmlns="http://www.w3.org/2000/svg" viewBox="0 0 90 115" width="90px" height="110px">
  <defs>
    <radialGradient gradientUnits="userSpaceOnUse" cx="55.811" cy="4.989" r="4.006" id="gradient-0" gradientTransform="matrix(1, 0, 0, 1.045214, 0, -0.044444)">
      <stop offset="0" style="stop-color: rgb(255, 99, 99);"/>
      <stop offset="1" style="stop-color: rgb(255, 0, 0);"/>
    </radialGradient>
    <linearGradient gradientUnits="userSpaceOnUse" x1="43.694" y1="2.949" x2="43.694" y2="6.483" id="gradient-2" gradientTransform="matrix(-0.122526, 1.311347, -2.773569, -0.174602, 61.224131, -52.184882)">
      <stop offset="0" style="stop-color: rgb(100% 0% 0%)"/>
      <stop offset="1" style="stop-color: rgb(64.913% 0% 0%)"/>
    </linearGradient>
    <linearGradient gradientUnits="userSpaceOnUse" x1="43.694" y1="2.949" x2="43.694" y2="6.483" id="gradient-1" gradientTransform="matrix(0.122526, 1.311347, 2.773569, -0.174602, 52.045176, -51.447116)">
      <stop offset="0" style="stop-color: rgb(100% 0% 0%)"/>
      <stop offset="1" style="stop-color: rgb(64.913% 0% 0%)"/>
    </linearGradient>
    <linearGradient gradientUnits="userSpaceOnUse" x1="36.676" y1="99.634" x2="36.676" y2="106.428" id="gradient-3">
      <stop offset="0" style="stop-color: rgb(100% 0% 0%)"/>
      <stop offset="1" style="stop-color: rgb(64.913% 0% 0%)"/>
    </linearGradient>
    <linearGradient gradientUnits="userSpaceOnUse" x1="51.223" y1="108.634" x2="51.223" y2="113.948" id="gradient-4">
      <stop offset="0" style="stop-color: rgb(100% 0% 0%)"/>
      <stop offset="1" style="stop-color: rgb(64.913% 0% 0%)"/>
    </linearGradient>
  </defs>
  <rect x="-8.181" y="-85.773" width="5.958" height="21.187" style="stroke: rgb(0, 0, 0); fill: rgb(30, 19, 71);" transform="matrix(-0.694714, 0.719286, 0.688556, 0.726531, 107.570991, 140.825843)"/>
  <rect x="-9.254" y="-106.91" width="3.475" height="18.956" style="stroke: rgb(0, 0, 0); fill: rgb(75, 44, 44);" transform="matrix(-0.694714, 0.719286, 0.688556, 0.726531, 135.193739, 173.088014)"/>
  <ellipse style="stroke: rgb(0, 0, 0); fill: rgb(251, 0, 0);" cx="16.095" cy="45.604" rx="3.439" ry="3.365" transform="matrix(0.700835, -0.713324, -0.682333, -0.732378, 97.714504, 146.485085)"/>
  <g transform="matrix(0.840854, -0.855838, -0.871563, -0.935489, 124.174889, 146.792145)" style="">
    <path d="M -2.243 39.665 L 1.747 49.483 C 1.218 49.421 0.676 49.386 0.128 49.386 C -2.531 49.386 -4.996 50.158 -7.042 51.474 L -2.243 39.665 Z" style="stroke: rgb(0, 0, 0); fill: rgb(167, 58, 58);"/>
    <path d="M -2.037 39.665 L 1.112 47.127 C 0.694 47.079 0.267 47.053 -0.166 47.053 C -2.264 47.053 -4.21 47.639 -5.824 48.64 L -2.037 39.665 Z" style="stroke: rgb(0, 0, 0); fill: rgb(167, 58, 58);"/>
    <path d="M -2.197 39.902 L -0.088 45.188 C -0.368 45.154 -0.654 45.136 -0.944 45.136 C -2.349 45.136 -3.653 45.551 -4.734 46.26 Z" style="stroke: rgb(0, 0, 0); fill: rgb(167, 58, 58);"/>
  </g>
  <rect x="-8.33" y="-56.233" width="6.067" height="13.89" style="stroke: rgb(0, 0, 0); fill: rgb(51, 37, 97);" transform="matrix(-0.285919, 0.958254, 0.951064, 0.310015, 103.987156, 86.744413)"/>
  <rect x="-9.423" y="-70.093" width="3.538" height="12.428" style="stroke: rgb(0, 0, 0); fill: rgb(75, 44, 44);" transform="matrix(-0.285919, 0.958254, 0.951064, 0.310015, 129.726214, 97.431513)"/>
  <ellipse style="stroke: rgb(0, 0, 0); fill: rgb(251, 0, 0);" cx="16.095" cy="45.604" rx="3.502" ry="3.304" transform="matrix(0.293805, -0.955865, -0.948296, -0.318432, 112.869469, 101.174635)"/>
  <g transform="matrix(0.35899, -1.167939, -1.189399, -0.399394, 135.51265, 88.503746)" style="">
    <path d="M -2.243 39.665 L 1.747 49.483 C 1.218 49.421 0.676 49.386 0.128 49.386 C -2.531 49.386 -4.996 50.158 -7.042 51.474 L -2.243 39.665 Z" style="stroke: rgb(0, 0, 0); fill: rgb(167, 58, 58);"/>
    <path d="M -2.037 39.665 L 1.112 47.127 C 0.694 47.079 0.267 47.053 -0.166 47.053 C -2.264 47.053 -4.21 47.639 -5.824 48.64 L -2.037 39.665 Z" style="stroke: rgb(0, 0, 0); fill: rgb(167, 58, 58);"/>
    <path d="M -2.197 39.902 L -0.088 45.188 C -0.368 45.154 -0.654 45.136 -0.944 45.136 C -2.349 45.136 -3.653 45.551 -4.734 46.26 Z" style="stroke: rgb(0, 0, 0); fill: rgb(167, 58, 58);"/>
  </g>
  <rect x="-8.171" y="-95.907" width="5.95" height="23.69" style="stroke: rgb(0, 0, 0); fill: rgb(51, 37, 97);" transform="matrix(0.7155, 0.698612, 0.667035, -0.746333, 119.330975, -8.76963)"/>
  <rect x="-9.242" y="-119.55" width="3.47" height="21.196" style="stroke: rgb(0, 0, 0); fill: rgb(75, 44, 44);" transform="matrix(0.7155, 0.698612, 0.667035, -0.746333, 152.399584, -42.557168)"/>
  <ellipse style="stroke: rgb(0, 0, 0); fill: rgb(251, 0, 0);" cx="16.095" cy="45.604" rx="3.437" ry="3.367" transform="matrix(-0.709494, -0.704712, -0.673367, 0.740627, 121.552691, 5.313206)"/>
  <g transform="matrix(-0.850784, -0.845048, -0.860576, 0.946536, 120.831337, -22.359047)" style="">
    <path d="M -2.243 39.665 L 1.747 49.483 C 1.218 49.421 0.676 49.386 0.128 49.386 C -2.531 49.386 -4.996 50.158 -7.042 51.474 L -2.243 39.665 Z" style="stroke: rgb(0, 0, 0); fill: rgb(167, 58, 58);"/>
    <path d="M -2.037 39.665 L 1.112 47.127 C 0.694 47.079 0.267 47.053 -0.166 47.053 C -2.264 47.053 -4.21 47.639 -5.824 48.64 L -2.037 39.665 Z" style="stroke: rgb(0, 0, 0); fill: rgb(167, 58, 58);"/>
    <path d="M -2.197 39.902 L -0.088 45.188 C -0.368 45.154 -0.654 45.136 -0.944 45.136 C -2.349 45.136 -3.653 45.551 -4.734 46.26 Z" style="stroke: rgb(0, 0, 0); fill: rgb(167, 58, 58);"/>
  </g>
  <rect x="8.179" y="101.084" width="5.956" height="24.969" style="stroke: rgb(0, 0, 0); fill: rgb(30, 19, 71);" transform="matrix(0.699231, 0.714896, -0.683972, 0.730848, 104.413681, -12.708879)"/>
  <rect x="9.251" y="125.999" width="3.474" height="22.34" style="stroke: rgb(0, 0, 0); fill: rgb(75, 44, 44);" transform="matrix(0.699231, 0.714896, -0.683972, 0.730848, 104.413681, -12.708879)"/>
  <ellipse style="stroke: rgb(0, 0, 0); fill: rgb(251, 0, 0);" cx="16.095" cy="45.604" rx="3.438" ry="3.366" transform="matrix(-0.705316, -0.708893, 0.677717, -0.736651, -6.955664, 146.377724)"/>
  <g transform="matrix(-0.845995, -0.850284, 0.865906, -0.941209, -33.42543, 146.865234)" style="">
    <path d="M -2.243 39.665 L 1.747 49.483 C 1.218 49.421 0.676 49.386 0.128 49.386 C -2.531 49.386 -4.996 50.158 -7.042 51.474 L -2.243 39.665 Z" style="stroke: rgb(0, 0, 0); fill: rgb(167, 58, 58);"/>
    <path d="M -2.037 39.665 L 1.112 47.127 C 0.694 47.079 0.267 47.053 -0.166 47.053 C -2.264 47.053 -4.21 47.639 -5.824 48.64 L -2.037 39.665 Z" style="stroke: rgb(0, 0, 0); fill: rgb(167, 58, 58);"/>
    <path d="M -2.197 39.902 L -0.088 45.188 C -0.368 45.154 -0.654 45.136 -0.944 45.136 C -2.349 45.136 -3.653 45.551 -4.734 46.26 Z" style="stroke: rgb(0, 0, 0); fill: rgb(167, 58, 58);"/>
  </g>
  <rect x="8.331" y="56.226" width="6.067" height="13.888" style="stroke: rgb(0, 0, 0); fill: rgb(51, 37, 97);" transform="matrix(-0.280836, 0.959756, -0.952807, -0.304583, 94.236244, 67.433891)"/>
  <rect x="9.424" y="70.084" width="3.539" height="12.426" style="stroke: rgb(0, 0, 0); fill: rgb(75, 44, 44);" transform="matrix(-0.280836, 0.959756, -0.952807, -0.304583, 94.236244, 67.433891)"/>
  <ellipse style="stroke: rgb(0, 0, 0); fill: rgb(251, 0, 0);" cx="16.095" cy="45.604" rx="3.504" ry="3.302" transform="matrix(0.272923, -0.962036, 0.955455, 0.296122, -32.730111, 55.841051)"/>
  <g transform="matrix(0.333657, -1.176118, 1.197728, 0.371208, -44.57222, 32.04665)" style="">
    <path d="M -2.243 39.665 L 1.747 49.483 C 1.218 49.421 0.676 49.386 0.128 49.386 C -2.531 49.386 -4.996 50.158 -7.042 51.474 L -2.243 39.665 Z" style="stroke: rgb(0, 0, 0); fill: rgb(167, 58, 58);"/>
    <path d="M -2.037 39.665 L 1.112 47.127 C 0.694 47.079 0.267 47.053 -0.166 47.053 C -2.264 47.053 -4.21 47.639 -5.824 48.64 L -2.037 39.665 Z" style="stroke: rgb(0, 0, 0); fill: rgb(167, 58, 58);"/>
    <path d="M -2.197 39.902 L -0.088 45.188 C -0.368 45.154 -0.654 45.136 -0.944 45.136 C -2.349 45.136 -3.653 45.551 -4.734 46.26 Z" style="stroke: rgb(0, 0, 0); fill: rgb(167, 58, 58);"/>
  </g>
  <rect x="9.535" y="81.937" width="6.944" height="20.239" style="stroke: rgb(0, 0, 0); fill: rgb(51, 37, 97);" transform="matrix(-0.776232, 0.630448, -0.620083, -0.78465, 97.80455, 111.204391)"/>
  <rect x="10.786" y="102.132" width="4.05" height="18.108" style="stroke: rgb(0, 0, 0); fill: rgb(75, 44, 44);" transform="matrix(-0.776232, 0.630448, -0.620083, -0.78465, 97.80455, 111.204391)"/>
  <ellipse style="stroke: rgb(0, 0, 0); fill: rgb(251, 0, 0);" cx="16.095" cy="45.604" rx="4.011" ry="4.067" transform="matrix(0.770614, -0.637302, 0.626532, 0.779521, -25.42136, 2.377205)"/>
  <g transform="matrix(1.078163, -0.891646, 0.967404, 1.203627, -30.680038, -35.576908)" style="">
    <path d="M -2.243 39.665 L 1.747 49.483 C 1.218 49.421 0.676 49.386 0.128 49.386 C -2.531 49.386 -4.996 50.158 -7.042 51.474 L -2.243 39.665 Z" style="stroke: rgb(0, 0, 0); fill: rgb(167, 58, 58);"/>
    <path d="M -2.037 39.665 L 1.112 47.127 C 0.694 47.079 0.267 47.053 -0.166 47.053 C -2.264 47.053 -4.21 47.639 -5.824 48.64 L -2.037 39.665 Z" style="stroke: rgb(0, 0, 0); fill: rgb(167, 58, 58);"/>
    <path d="M -2.197 39.902 L -0.088 45.188 C -0.368 45.154 -0.654 45.136 -0.944 45.136 C -2.349 45.136 -3.653 45.551 -4.734 46.26 Z" style="stroke: rgb(0, 0, 0); fill: rgb(167, 58, 58);"/>
  </g>
  <g transform="matrix(1, 0, 0, 1.045214, 26.333952, 15.462563)">
    <rect x="8" y="56.022" width="5.826" height="13.838" style="stroke: rgb(0, 0, 0); fill: rgb(45, 34, 34);"/>
    <rect x="9.049" y="69.83" width="3.398" height="12.381" style="stroke: rgb(0, 0, 0); fill: rgb(45, 34, 34);"/>
  </g>
  <rect x="48.616" y="85.972" width="5.826" height="14.464" style="stroke: rgb(0, 0, 0); fill: rgb(30, 19, 71);"/>
  <rect x="49.665" y="100.404" width="3.398" height="12.941" style="stroke: rgb(0, 0, 0); fill: rgb(49, 36, 36);"/>
  <rect x="54.232" y="6.48" width="4.127" height="13.956" style="stroke: rgb(0, 0, 0); fill: rgb(56, 42, 42);"/>
  <ellipse style="stroke: rgb(0, 0, 0); fill: url(&quot;#gradient-0&quot;);" cx="55.811" cy="5.17" rx="4.006" ry="4.187"/>
  <g transform="matrix(1, 0, 0, 1.045214, 16.130121, -1.147083)">
    <rect x="15.525" y="11.568" width="4.127" height="13.352" style="stroke: rgb(0, 0, 0); fill: rgb(114, 92, 92);"/>
    <ellipse style="stroke: rgb(0, 0, 0); fill: rgb(114, 92, 92);" cx="17.104" cy="10.315" rx="4.006" ry="4.006"/>
  </g>
  <ellipse style="stroke: rgb(0, 0, 0); fill: rgb(30, 19, 71);" cx="44.526" cy="78.837" rx="15.412" ry="18.349"/>
  <g style="transform-origin: 44.262px 61.857px;" transform="matrix(0.760662, 0, 0, 0.752842, -0.049318, 25.250191)">
    <path d="M 53.165 55.153 L 53.165 55.213 C 51.916 56.361 51.053 58.823 51.053 61.676 C 51.053 64.529 51.916 66.991 53.165 68.139 L 53.165 68.56 L 35.359 68.56 L 35.359 68.328 C 36.695 67.25 37.635 64.698 37.635 61.721 C 37.635 58.779 36.718 56.251 35.405 55.153 L 53.165 55.153 Z" style="stroke: rgb(0, 0, 0); fill: rgb(15, 39, 156);"/>
    <rect x="39.731" y="57.718" width="1.004" height="7.74" style="stroke: rgb(0, 0, 0); stroke-width: 0.2px; fill: rgb(255, 42, 0);"/>
    <ellipse style="stroke: rgb(0, 0, 0); fill: rgb(255, 0, 0);" cx="40.174" cy="58.102" rx="0.975" ry="1.506"/>
    <rect x="48.358" y="57.6" width="1.004" height="7.74" style="stroke: rgb(0, 0, 0); stroke-width: 0.2px; fill: rgb(255, 42, 0);"/>
    <ellipse style="stroke: rgb(0, 0, 0); fill: rgb(255, 0, 0);" cx="48.919" cy="65.37" rx="0.975" ry="1.506"/>
    <ellipse style="stroke: rgb(0, 0, 0); fill: rgb(0, 234, 255);" cx="48.801" cy="59.241" rx="0.975" ry="1.506"/>
    <ellipse style="stroke: rgb(0, 0, 0); fill: rgb(0, 234, 255);" cx="40.226" cy="63.912" rx="0.975" ry="1.506"/>
    <rect x="43.649" y="57.777" width="1.804" height="7.525" style="stroke: rgb(0, 0, 0); stroke-width: 0.2px; fill: rgb(255, 156, 0);"/>
    <ellipse style="stroke: rgb(0, 0, 0); fill: rgb(255, 156, 0);" cx="44.428" cy="58.161" rx="0.975" ry="1.506"/>
    <ellipse style="stroke: rgb(0, 0, 0); fill: rgb(255, 156, 0);" cx="44.546" cy="65.429" rx="0.975" ry="1.506"/>
  </g>
  <ellipse style="fill: rgba(0, 0, 0, 0.557);" cx="44.482" cy="75.666" rx="14.753" ry="12.067"/>
  <ellipse style="stroke: rgb(0, 0, 0); fill: rgb(51, 37, 97);" cx="44.133" cy="61.304" rx="13.959" ry="19.233"/>
  <g style="transform-origin: 44.262px 61.8565px;" transform="matrix(0, 1.045214, -1, 0, 0.206383, 4.574007)">
    <path d="M 53.165 55.153 L 53.165 55.213 C 51.916 56.361 51.053 58.823 51.053 61.676 C 51.053 64.529 51.916 66.991 53.165 68.139 L 53.165 68.56 L 35.359 68.56 L 35.359 68.328 C 36.695 67.25 37.635 64.698 37.635 61.721 C 37.635 58.779 36.718 56.251 35.405 55.153 L 53.165 55.153 Z" style="stroke: rgb(0, 0, 0); fill: rgb(15, 39, 156);"/>
    <rect x="39.731" y="57.718" width="1.004" height="7.74" style="stroke: rgb(0, 0, 0); stroke-width: 0.2px; fill: rgb(255, 42, 0);"/>
    <ellipse style="stroke: rgb(0, 0, 0); fill: rgb(255, 0, 0);" cx="40.174" cy="58.102" rx="0.975" ry="1.506"/>
    <rect x="48.358" y="57.6" width="1.004" height="7.74" style="stroke: rgb(0, 0, 0); stroke-width: 0.2px; fill: rgb(255, 42, 0);"/>
    <ellipse style="stroke: rgb(0, 0, 0); fill: rgb(255, 0, 0);" cx="48.919" cy="65.37" rx="0.975" ry="1.506"/>
    <ellipse style="stroke: rgb(0, 0, 0); fill: rgb(0, 234, 255);" cx="48.801" cy="59.241" rx="0.975" ry="1.506"/>
    <ellipse style="stroke: rgb(0, 0, 0); fill: rgb(0, 234, 255);" cx="40.226" cy="63.912" rx="0.975" ry="1.506"/>
    <rect x="43.649" y="57.777" width="1.804" height="7.525" style="stroke: rgb(0, 0, 0); stroke-width: 0.2px; fill: rgb(255, 156, 0);"/>
    <ellipse style="stroke: rgb(0, 0, 0); fill: rgb(255, 156, 0);" cx="44.428" cy="58.161" rx="0.975" ry="1.506"/>
    <ellipse style="stroke: rgb(0, 0, 0); fill: rgb(255, 156, 0);" cx="44.546" cy="65.429" rx="0.975" ry="1.506"/>
  </g>
  <ellipse style="fill: rgba(0, 0, 0, 0.557);" cx="44.26" cy="52.604" rx="11.767" ry="10.716"/>
  <path d="M 64.276 33.804 C 63.432 41.831 58.375 48.307 51.661 51.09 C 50.983 54.569 49.375 57.06 47.782 56.877 C 46.535 56.734 45.619 54.99 45.31 52.536 C 44.238 52.595 43.147 52.563 42.046 52.437 C 41.349 52.357 40.665 52.24 39.994 52.089 C 39.183 54.473 37.909 56.013 36.644 55.867 C 35.101 55.69 34.066 53.065 34.058 49.677 C 27.418 45.605 23.323 37.718 24.219 29.202 C 25.435 17.64 35.388 9.298 46.449 10.569 C 57.511 11.84 65.492 22.242 64.276 33.804 Z" style="fill: rgb(74, 54, 54); transform-origin: 44.037px 32.098px; stroke-width: 2px; stroke: rgb(32, 22, 22);"/>
  <ellipse style="fill: rgb(114, 92, 92);" cx="45.981" cy="31.438" rx="17.754" ry="19.379"/>
  <ellipse style="stroke: rgb(0, 0, 0);" cx="38.817" cy="28.771" rx="4.005" ry="7.993"/>
  <ellipse style="fill: rgb(255, 0, 0); stroke: rgb(69, 50, 50);" cx="52.551" cy="30.454" rx="5.835" ry="9.666"/>
  <ellipse style="stroke: rgb(0, 0, 0); fill: url(&quot;#gradient-3&quot;);" cx="36.676" cy="103.031" rx="4.292" ry="3.397"/>
  <ellipse style="stroke: rgb(0, 0, 0); fill: url(&quot;#gradient-4&quot;);" cx="51.223" cy="111.291" rx="3.792" ry="2.657"/>
  <ellipse style="fill: rgb(255, 63, 63);" cx="51.531" cy="31.06" rx="4.414" ry="6.949"/>
  <ellipse style="fill: rgb(255, 113, 113);" cx="50.212" cy="30.832" rx="3.096" ry="4.122"/>
  <path d="M 34.739 2.102 C 31.352 2.061 29.479 2.639 29.458 4.518 C 29.437 6.399 31.879 5.186 35.263 5.228 C 36.326 5.24 37.356 5.376 38.27 5.495 C 38.943 6.465 40.624 6.822 43.162 6.853 C 46.545 6.894 50.177 6.337 50.198 4.456 C 50.219 2.578 47.142 3.781 43.754 3.74 C 42.798 3.728 41.919 3.619 41.151 3.51 C 40.004 2.512 37.304 2.133 34.739 2.102 Z" style="fill: url(&quot;#gradient-2&quot;); stroke: rgba(255, 255, 255, 0.28); transform-origin: 39.829px 4.335px;"/>
  <path d="M 78.53 2.84 C 81.917 2.799 83.79 3.377 83.811 5.256 C 83.832 7.136 81.39 5.924 78.006 5.965 C 76.943 5.978 75.913 6.114 74.999 6.233 C 74.326 7.203 72.645 7.56 70.107 7.591 C 66.724 7.632 63.092 7.075 63.071 5.194 C 63.05 3.316 66.127 4.519 69.515 4.478 C 70.471 4.466 71.35 4.357 72.118 4.248 C 73.265 3.25 75.965 2.871 78.53 2.84 Z" style="stroke: rgba(255, 255, 255, 0.28); fill: url(&quot;#gradient-1&quot;); transform-origin: 73.44px 5.041px;"/>
</svg>