<?xml version="1.0" encoding="utf-8"?>
<svg xmlns="http://www.w3.org/2000/svg" viewBox="0 0 200 300" xmlns:bx="https://boxy-svg.com">
  <ellipse style="stroke-width: 7px; stroke: rgb(255, 255, 255); fill: rgba(2, 0, 50, 0.933);" cx="100.601" cy="150.379" rx="96.959" ry="144.939"/>
  <ellipse style="stroke-width: 7px; fill: none; stroke: rgb(69, 137, 206);" cx="100.104" cy="150.879" rx="90.462" ry="138.441"/>
  <ellipse style="stroke-width: 7px; fill: none; stroke: rgb(87, 170, 255);" cx="100.107" cy="150.877" rx="83.465" ry="133.443"/>
  <path d="M 128.431 148.239 Q 128.431 146.532 129.985 145.547 Q 131.644 144.496 133.814 145.131 Q 136.226 145.837 137.755 148.239 Q 139.472 150.937 139.197 154.455 Q 138.889 158.388 136.201 161.697 Q 133.223 165.361 128.431 166.886 Q 123.177 168.559 117.553 167.08 Q 111.444 165.472 106.899 160.671 Q 102 155.495 100.46 148.239 Q 98.812 140.471 101.516 132.7 Q 104.395 124.427 111.338 118.632 Q 118.692 112.494 128.431 110.944 Q 138.703 109.31 148.632 113.249 Q 159.066 117.389 166.112 126.484 Q 173.492 136.009 175.049 148.239 Q 176.676 161.011 171.495 173.102 Q 166.099 185.697 154.848 193.995 Q 143.155 202.619 128.431 204.181 Q 113.159 205.801 98.906 199.378 Q 84.15 192.727 74.601 179.318 Q 64.731 165.458 63.165 148.239 Q 61.549 130.469 69.218 114.052 Q 77.121 97.134 92.69 86.334 Q 108.715 75.219 128.431 73.65 Q 148.7 72.037 167.28 80.951 Q 186.36 90.106 198.41 107.836 Q 210.773 126.027 212.344 148.239 Q 213.954 171.006 203.793 191.749 Q 193.387 212.992 173.495 226.293 Q 153.141 239.903 128.431 241.476 Q 103.166 243.084 80.259 231.676 Q 56.853 220.019 42.303 197.965 Q 27.445 175.446 25.871 148.239 Q 24.264 120.475 36.92 95.405 Q 49.827 69.837 74.043 54.036 Q 98.726 37.931 128.431 36.355 Q 125.83 36.493 128.431 36.355" bx:shape="spiral 128.431 148.239 0 111.884 0 1080 1@a1745cbe" style="fill: none; stroke: rgb(87, 170, 255); stroke-width: 7px;" transform="matrix(0.663815, 0, 0, 1.2062801883888246, 17.2837, -28.852488391113283)"/>
  <path d="M 128.431 148.239 Q 128.431 146.532 129.985 145.547 Q 131.644 144.496 133.814 145.131 Q 136.226 145.837 137.755 148.239 Q 139.472 150.937 139.197 154.455 Q 138.889 158.388 136.201 161.697 Q 133.223 165.361 128.431 166.886 Q 123.177 168.559 117.553 167.08 Q 111.444 165.472 106.899 160.671 Q 102 155.495 100.46 148.239 Q 98.812 140.471 101.516 132.7 Q 104.395 124.427 111.338 118.632 Q 118.692 112.494 128.431 110.944 Q 138.703 109.31 148.632 113.249 Q 159.066 117.389 166.112 126.484 Q 173.492 136.009 175.049 148.239 Q 176.676 161.011 171.495 173.102 Q 166.099 185.697 154.848 193.995 Q 143.155 202.619 128.431 204.181 Q 113.159 205.801 98.906 199.378 Q 84.15 192.727 74.601 179.318 Q 64.731 165.458 63.165 148.239 Q 61.549 130.469 69.218 114.052 Q 77.121 97.134 92.69 86.334 Q 108.715 75.219 128.431 73.65 Q 148.7 72.037 167.28 80.951 Q 186.36 90.106 198.41 107.836 Q 210.773 126.027 212.344 148.239 Q 213.954 171.006 203.793 191.749 Q 193.387 212.992 173.495 226.293 Q 153.141 239.903 128.431 241.476 Q 103.166 243.084 80.259 231.676 Q 56.853 220.019 42.303 197.965 Q 27.445 175.446 25.871 148.239 Q 24.264 120.475 36.92 95.405 Q 49.827 69.837 74.043 54.036 Q 98.726 37.931 128.431 36.355 Q 125.83 36.493 128.431 36.355" bx:shape="spiral 128.431 148.239 0 111.884 0 1080 1@a1745cbe" style="fill: none; stroke-width: 7px; stroke: rgba(96, 175, 255, 0.365);" transform="matrix(-0.6335959999999999, 0, 0, -1.0034399999999999, 181.01798795360367, 298.44967209180874)"/>
  <path d="M 191.28 27.156 C 191.28 32.073 185.633 36.059 178.668 36.059 C 177.018 36.059 175.441 35.835 173.997 35.428 C 172.731 36.087 171.064 36.487 169.238 36.487 C 165.277 36.487 162.066 34.605 162.066 32.283 C 162.066 30.599 163.755 29.147 166.194 28.475 C 166.103 28.045 166.056 27.604 166.056 27.156 C 166.056 22.239 171.703 18.253 178.668 18.253 C 185.633 18.253 191.28 22.239 191.28 27.156 Z" style="stroke-width: 3px; stroke: rgb(69, 137, 206); fill: rgba(16, 12, 91, 0.894);"/>
  <path d="M 37.963 34.07 C 37.963 29.153 32.316 25.167 25.351 25.167 C 18.386 25.167 12.739 29.153 12.739 34.07 C 12.739 38.3 16.918 41.841 22.521 42.748 C 22.518 42.829 22.516 42.91 22.516 42.992 C 22.516 47.315 27.08 50.82 32.71 50.82 C 38.34 50.82 42.904 47.315 42.904 42.992 C 42.904 40.037 40.771 37.464 37.623 36.132 C 37.845 35.47 37.963 34.78 37.963 34.07 Z" style="stroke-width: 3px; stroke: rgb(69, 137, 206); fill: rgba(16, 12, 91, 0.894);"/>
  <ellipse style="stroke-width: 3px; stroke: rgb(69, 137, 206); fill: rgba(16, 12, 91, 0.894);" cx="165.441" cy="259.346" rx="11.502" ry="9.215"/>
  <ellipse style="stroke-width: 3px; stroke: rgb(69, 137, 206); fill: rgba(16, 12, 91, 0.894);" cx="30.524" cy="128.461" rx="5.773" ry="7.677"/>
  <ellipse style="stroke-width: 3px; stroke: rgb(69, 137, 206); fill: rgba(16, 12, 91, 0.894);" cx="149.798" cy="52.811" rx="9.549" ry="9.439"/>
  <ellipse style="stroke-width: 3px; stroke: rgb(69, 137, 206); fill: rgba(16, 12, 91, 0.894);" cx="148.495" cy="247.933" rx="6.119" ry="6.331"/>
  <path d="M 43.83 273.961 C 43.83 278.878 38.183 282.864 31.218 282.864 C 24.253 282.864 18.606 278.878 18.606 273.961 C 18.606 269.731 22.785 266.19 28.388 265.283 C 28.385 265.202 28.383 265.121 28.383 265.039 C 28.383 260.716 32.947 257.211 38.577 257.211 C 44.207 257.211 48.771 260.716 48.771 265.039 C 48.771 267.994 46.638 270.567 43.49 271.899 C 43.712 272.561 43.83 273.251 43.83 273.961 Z" style="stroke-width: 3px; stroke: rgb(69, 137, 206); fill: rgba(16, 12, 91, 0.894);"/>
</svg>