<?xml version="1.0" encoding="utf-8"?>
<svg xmlns="http://www.w3.org/2000/svg" viewBox="0 0 130 200" width="110px" height="200px">
  <defs>
    <linearGradient gradientUnits="userSpaceOnUse" x1="25.349" y1="142.616" x2="25.349" y2="198.99" id="gradient-10" gradientTransform="matrix(-0.985601, -0.169088, 0.134571, -0.784412, 38.217854, 312.057739)">
      <stop offset="0" style="stop-color: rgb(21.961% 9.0196% 3.9216%)"/>
      <stop offset="1" style="stop-color: rgb(17.303% 5.2172% 0%)"/>
    </linearGradient>
    <linearGradient gradientUnits="userSpaceOnUse" x1="50.803" y1="31.837" x2="50.803" y2="143.346" id="gradient-4" gradientTransform="matrix(1, 0, 0, 1, 12.842433, 0.940446)">
      <stop offset="0" style="stop-color: rgb(4.3137% 21.961% 9.8039%)"/>
      <stop offset="1" style="stop-color: rgb(0% 15.063% 2.1713%)"/>
    </linearGradient>
    <linearGradient gradientUnits="userSpaceOnUse" x1="29.336" y1="55.818" x2="29.336" y2="151.79" id="gradient-0" gradientTransform="matrix(1, 0, 0, 1, 12.841433, 0.939631)">
      <stop offset="0" style="stop-color: rgb(1.5686% 17.647% 5.098%)"/>
      <stop offset="1" style="stop-color: rgb(0% 12.763% 0%)"/>
    </linearGradient>
    <linearGradient gradientUnits="userSpaceOnUse" x1="66.492" y1="159.433" x2="66.492" y2="195.983" id="gradient-3" gradientTransform="matrix(1, 0, 0, 1, 12.842433, 0.940446)">
      <stop offset="0" style="stop-color: rgb(1.5686% 17.647% 5.098%)"/>
      <stop offset="1" style="stop-color: rgb(0% 12.763% 0%)"/>
    </linearGradient>
    <linearGradient gradientUnits="userSpaceOnUse" x1="91.334" y1="91.239" x2="91.334" y2="100.635" id="gradient-5" gradientTransform="matrix(1, 0, 0, 1, -0.000026, -0.000032)">
      <stop offset="0" style="stop-color: rgb(55.686% 52.157% 12.941%)"/>
      <stop offset="1" style="stop-color: rgb(32.941% 31% 0%)"/>
    </linearGradient>
    <linearGradient gradientUnits="userSpaceOnUse" x1="91.334" y1="91.239" x2="91.334" y2="100.635" id="gradient-7" gradientTransform="matrix(1, 0, 0, 1, -0.000026, -0.000032)">
      <stop offset="0" style="stop-color: rgb(55.686% 52.157% 12.941%)"/>
      <stop offset="1" style="stop-color: rgb(32.941% 31% 0%)"/>
    </linearGradient>
    <radialGradient gradientUnits="userSpaceOnUse" cx="40.256" cy="42.787" r="9.361" id="gradient-11" gradientTransform="matrix(0.91073, 0, 0, 0.906897, 5.018157, 4.9794)">
      <stop offset="0" style="stop-color: rgb(100% 61.176% 0%)"/>
      <stop offset="1" style="stop-color: rgb(63.733% 31.968% 0%)"/>
    </radialGradient>
    <radialGradient gradientUnits="userSpaceOnUse" cx="51.193" cy="40.369" r="28.354" id="gradient-12" gradientTransform="matrix(1, 0, 0, 1, 12.842433, 0.940446)">
      <stop offset="0" style="stop-color: rgb(100% 61.176% 0%)"/>
      <stop offset="1" style="stop-color: rgb(63.733% 31.968% 0%)"/>
    </radialGradient>
    <linearGradient gradientUnits="userSpaceOnUse" x1="60.234" y1="150.683" x2="60.234" y2="160.239" id="gradient-13" gradientTransform="matrix(1, 0, 0, 1, 12.842433, 0.940446)">
      <stop offset="0" style="stop-color: rgb(100% 61.176% 0%)"/>
      <stop offset="1" style="stop-color: rgb(63.733% 31.968% 0%)"/>
    </linearGradient>
    <linearGradient gradientUnits="userSpaceOnUse" x1="77.923" y1="153.739" x2="77.923" y2="180.045" id="gradient-15" gradientTransform="matrix(1, 0, 0, 1, 12.842433, -334.724457)">
      <stop offset="0" style="stop-color: rgb(100% 61.176% 0%)"/>
      <stop offset="1" style="stop-color: rgb(63.733% 31.968% 0%)"/>
    </linearGradient>
    <linearGradient gradientUnits="userSpaceOnUse" x1="45.989" y1="35.122" x2="45.989" y2="45.566" id="gradient-14">
      <stop offset="0" style="stop-color: rgb(92.941% 55.686% 0%)"/>
      <stop offset="1" style="stop-color: rgb(59.715% 29.02% 0%)"/>
    </linearGradient>
    <radialGradient gradientUnits="userSpaceOnUse" cx="40.256" cy="42.787" r="9.361" id="gradient-16" gradientTransform="matrix(0.91073, 0, 0, 0.906897, 5.018157, 4.9794)">
      <stop offset="0" style="stop-color: rgb(100% 61.176% 0%)"/>
      <stop offset="1" style="stop-color: rgb(63.733% 31.968% 0%)"/>
    </radialGradient>
    <linearGradient gradientUnits="userSpaceOnUse" x1="45.989" y1="35.122" x2="45.989" y2="45.566" id="gradient-17">
      <stop offset="0" style="stop-color: rgb(92.941% 55.686% 0%)"/>
      <stop offset="1" style="stop-color: rgb(59.715% 29.02% 0%)"/>
    </linearGradient>
    <radialGradient gradientUnits="userSpaceOnUse" cx="40.256" cy="42.787" r="9.361" id="gradient-18" gradientTransform="matrix(0.91073, 0, 0, 0.906897, 5.018157, 4.9794)">
      <stop offset="0" style="stop-color: rgb(100% 61.176% 0%)"/>
      <stop offset="1" style="stop-color: rgb(63.733% 31.968% 0%)"/>
    </radialGradient>
    <linearGradient gradientUnits="userSpaceOnUse" x1="45.989" y1="35.122" x2="45.989" y2="45.566" id="gradient-19">
      <stop offset="0" style="stop-color: rgb(92.941% 55.686% 0%)"/>
      <stop offset="1" style="stop-color: rgb(59.715% 29.02% 0%)"/>
    </linearGradient>
    <radialGradient gradientUnits="userSpaceOnUse" cx="60.169" cy="138.307" r="42.071" id="gradient-2" gradientTransform="matrix(1, 0, 0, 1, 12.842433, 0.940446)">
      <stop offset="0" style="stop-color: rgb(10.588% 25.882% 89.412%)"/>
      <stop offset="1" style="stop-color: rgb(0% 24.045% 48.428%)"/>
    </radialGradient>
  </defs>
  <path d="M 27.069 143.556 L 49.313 143.556 L 49.313 149.839 L 43.242 149.839 C 43.865 151.054 44.219 152.441 44.219 153.915 C 44.219 158.698 40.494 162.575 35.899 162.575 C 35.842 162.575 35.785 162.574 35.728 162.573 L 35.728 199.93 L 29.106 199.93 L 29.106 158.917 C 28.144 157.504 27.579 155.778 27.579 153.915 C 27.579 152.441 27.933 151.054 28.556 149.839 L 27.069 149.839 L 27.069 143.556 Z" style="stroke: rgb(0, 0, 0); fill: url(&quot;#gradient-10&quot;);"/>
  <path d="M 37.324 99.391 C 37.285 99.377 37.248 99.371 37.21 99.371 C 36.124 99.371 35.245 104.819 35.245 111.541 C 35.245 118.264 36.124 123.712 37.21 123.712 C 38.005 123.712 38.689 120.782 38.998 116.569 L 48.98 152.73 L 48.98 124.681 L 49.048 109.45 L 48.98 109.45 L 48.98 107.72 L 48.891 107.72 L 49.028 76.746 L 49.065 76.746 L 49.111 66.593 C 47.899 62.021 45.298 58.407 42.037 56.804 L 37.471 56.758 L 37.384 76.628 L 37.424 76.628 L 37.324 99.391 Z" style="stroke: rgb(0, 0, 0); fill: url(&quot;#gradient-0&quot;); transform-origin: 42.178px 104.744px;" transform="matrix(-0.990356, -0.138548, 0.138548, -0.990356, -0.000005, -0.000021)"/>
  <rect x="71.262" y="160.373" width="16.144" height="36.55" style="stroke: rgb(0, 0, 0); fill: url(&quot;#gradient-3&quot;);"/>
  <rect x="36.376" y="144.534" width="18.485" height="33.949" style="stroke: rgb(0, 0, 0); fill: rgb(0, 98, 30); transform-box: fill-box; transform-origin: 50% 50%;" transform="matrix(1, -0.000134, 0.000134, 1, 18.567422, 20.536114)"/>
  <path d="M 94.671 117.609 C 94.632 117.623 94.595 117.629 94.557 117.629 C 93.471 117.629 92.592 112.181 92.592 105.459 C 92.592 98.736 93.471 93.288 94.557 93.288 C 95.352 93.288 96.036 96.218 96.345 100.431 L 106.327 64.27 L 106.327 92.319 L 106.395 107.55 L 106.327 107.55 L 106.327 109.28 L 106.238 109.28 L 106.375 140.254 L 106.412 140.254 L 106.458 150.407 C 105.246 154.979 102.645 158.593 99.384 160.196 L 94.818 160.242 L 94.731 140.372 L 94.771 140.372 L 94.671 117.609 Z" style="stroke: rgb(0, 0, 0); fill: rgb(0, 98, 30); transform-box: fill-box; transform-origin: 50% 50%;" transform="matrix(0.997582, -0.069497, 0.069497, 0.997582, 0, 0.000001)"/>
  <path d="M 52.733 91.603 L 55.715 91.603 C 60.991 91.052 66.846 90.746 73.011 90.746 C 79.176 90.746 85.031 91.052 90.307 91.603 L 93.668 91.603 L 93.668 91.997 C 106.451 93.665 115.082 96.834 115.082 100.468 C 115.082 104.102 106.451 107.271 93.668 108.939 L 93.668 187.748 L 79.901 187.748 L 73.871 165.632 L 66.5 187.748 L 52.733 187.748 L 52.733 108.988 C 39.741 107.333 30.94 104.138 30.94 100.468 C 30.94 96.798 39.741 93.603 52.733 91.948 L 52.733 91.603 Z" style="stroke: rgb(0, 0, 0); fill: url(&quot;#gradient-2&quot;);"/>
  <g transform="matrix(1, 0, 0, 1, -51.872707, 1.495147)">
    <ellipse style="stroke: rgb(0, 0, 0); transform-box: fill-box; transform-origin: 50% 50%; fill: url(&quot;#gradient-7&quot;);" cx="91.334" cy="95.937" rx="8.384" ry="4.698" transform="matrix(0.981831, 0.189759, -0.189759, 0.981831, -0.913291, -0.521858)"/>
    <ellipse style="fill: rgb(255, 255, 255);" cx="88.194" cy="92.511" rx="4.065" ry="1.152"/>
  </g>
  <path d="M 87.641 109.187 C 88.252 112.054 88.583 115.121 88.583 118.308 C 88.583 134.249 80.306 147.172 70.095 147.172 C 59.884 147.172 51.607 134.249 51.607 118.308 C 51.607 102.367 59.884 89.444 70.095 89.444 C 70.721 89.444 71.34 89.493 71.95 89.588 C 74.425 88.933 77.189 88.567 80.106 88.567 C 88.63 88.567 95.853 91.692 98.334 96.012 C 99.863 95.231 101.878 94.757 104.086 94.757 C 108.867 94.757 112.743 96.981 112.743 99.724 C 112.743 102.467 108.867 104.691 104.086 104.691 C 101.684 104.691 99.51 104.13 97.942 103.223 C 96.073 105.902 92.341 108.057 87.641 109.187 Z" style="fill: rgba(0, 0, 0, 0.4);"/>
  <path d="M 94.383 84.99 C 94.383 95.3 89.819 104.48 82.716 110.385 L 81.113 124.086 L 81.822 121.701 L 85.74 122.438 C 87.382 123.171 88.513 124.284 88.805 125.46 L 88.363 126.947 L 80.92 125.546 C 80.707 126.669 80.486 127.755 80.259 128.798 L 83.896 129.198 C 85.571 129.798 86.776 130.838 87.161 131.998 L 86.85 133.538 L 79.32 132.713 C 79.06 133.699 78.795 134.628 78.526 135.494 L 79.189 134.314 L 82.597 136.094 C 83.918 137.274 84.672 138.704 84.641 139.974 L 83.856 141.364 L 77.627 138.116 C 77.056 139.614 76.48 140.805 75.916 141.631 L 73.92 141.415 L 74.263 138.483 L 67.814 140.56 L 67.509 139.09 C 67.898 137.85 69.107 136.55 70.785 135.59 L 74.702 134.33 L 74.732 134.473 L 74.926 132.812 L 67.526 134.128 L 67.426 132.608 C 67.973 131.408 69.326 130.288 71.093 129.558 L 75.085 128.848 L 75.195 130.511 L 75.833 125.052 L 69.414 127.128 L 69.109 125.648 C 69.498 124.408 70.707 123.118 72.385 122.148 L 76.302 120.888 L 76.314 120.944 L 77.116 114.08 C 73.129 116.112 68.66 117.25 63.94 117.25 C 59.682 117.25 55.629 116.324 51.949 114.651 L 52.995 123.603 L 53.007 123.547 L 56.924 124.809 C 58.602 125.773 59.811 127.063 60.2 128.31 L 59.895 129.782 L 53.476 127.714 L 54.114 133.172 L 54.224 131.505 L 58.216 132.214 C 59.983 132.943 61.336 134.067 61.883 135.264 L 61.783 136.787 L 54.383 135.474 L 54.577 137.133 L 54.607 136.988 L 58.524 138.25 C 60.202 139.214 61.411 140.504 61.8 141.751 L 61.495 143.223 L 55.046 141.145 L 55.388 144.07 L 53.393 144.286 C 52.83 143.46 52.253 142.27 51.683 140.773 L 45.453 144.027 L 44.668 142.631 C 44.637 141.359 45.391 139.93 46.712 138.754 L 50.12 136.974 L 50.786 138.158 C 50.517 137.291 50.251 136.36 49.99 135.373 L 42.459 136.195 L 42.148 134.657 C 42.533 133.493 43.738 132.46 45.413 131.853 L 49.051 131.456 C 48.823 130.412 48.602 129.325 48.389 128.201 L 40.946 129.602 L 40.504 128.115 C 40.796 126.939 41.927 125.826 43.569 125.093 L 47.487 124.356 L 48.196 126.74 L 46.396 111.358 C 38.593 105.517 33.497 95.884 33.497 84.99 C 33.497 79.613 34.739 74.543 36.934 70.084 L 30.966 63.034 C 30.692 62.662 30.424 62.293 30.161 61.928 L 27.252 64.608 C 25.683 65.487 24.115 65.729 22.998 65.261 L 22.07 64.018 L 27.811 58.729 L 29.4 60.857 C 25.914 55.895 23.506 51.631 22.652 48.894 L 23.342 52.088 L 19.61 53.016 C 17.842 53.011 16.329 52.442 15.509 51.469 L 15.172 49.904 L 22.478 48.088 L 22.482 48.106 L 23.816 46.957 L 23.61 46.803 L 27.712 39.868 L 28.917 40.767 C 29.452 41.959 29.403 43.726 28.786 45.56 L 26.691 49.102 L 24.529 47.489 L 31.182 55.348 L 36.775 49.532 L 37.917 50.648 C 38.274 51.923 37.885 53.649 36.864 55.331 L 33.909 58.404 L 33.098 57.61 L 39.724 65.437 C 45.287 57.713 54.064 52.73 63.94 52.73 C 72.039 52.73 79.4 56.082 84.854 61.547 L 93.552 51.274 L 90.575 48.77 C 89.382 47.205 88.813 45.53 89.034 44.225 L 90.052 42.994 L 96.19 48.158 L 102.758 40.4 L 100.599 42.011 L 98.504 38.469 C 97.887 36.635 97.837 34.867 98.373 33.676 L 99.578 32.777 L 103.68 39.712 L 103.475 39.865 L 104.807 41.013 L 104.811 40.997 L 112.118 42.813 L 111.78 44.378 C 110.96 45.351 109.448 45.92 107.679 45.925 L 103.947 44.997 L 104.635 41.81 C 103.779 44.55 101.368 48.815 97.881 53.778 L 99.479 51.637 L 105.22 56.926 L 104.292 58.17 C 103.174 58.638 101.606 58.396 100.038 57.517 L 97.128 54.836 C 96.866 55.202 96.597 55.57 96.324 55.942 L 88.215 65.52 C 92.086 70.931 94.383 77.676 94.383 84.99 Z M 18.124 57.751 L 24.415 53.296 L 26.428 56.767 L 23.215 59.042 C 21.558 59.699 19.972 59.725 18.911 59.108 L 18.124 57.751 Z M 33.281 45.567 C 33.665 46.826 33.397 48.565 32.558 50.282 L 30.04 53.46 L 27.265 50.715 L 32.195 44.494 L 33.281 45.567 Z M 95.094 37.403 L 100.025 43.624 L 97.25 46.369 L 94.731 43.191 C 93.892 41.473 93.625 39.735 94.009 38.476 L 95.094 37.403 Z M 108.378 52.017 C 107.318 52.634 105.732 52.608 104.075 51.951 L 100.862 49.676 L 102.874 46.205 L 109.165 50.66 L 108.378 52.017 Z" style="stroke: rgb(0, 0, 0); stroke-width: 2px; fill: url(&quot;#gradient-4&quot;);"/>
  <ellipse style="fill: rgb(0, 98, 30);" cx="66.928" cy="83.839" rx="26.549" ry="29.075"/>
  <ellipse style="" cx="74.814" cy="87.909" rx="7.805" ry="1.437"/>
  <rect x="82.822" y="155.326" width="7.838" height="15.727" rx="5" ry="5" style="stroke: rgb(0, 0, 0); fill: rgb(78, 50, 5);"/>
  <rect x="87.111" y="-180.98" width="7.309" height="26.306" rx="5" ry="5" style="stroke: rgb(0, 0, 0); fill: url(&quot;#gradient-15&quot;);" transform="matrix(1, 0, 0, -1, 0, 0)"/>
  <rect x="50.38" y="151.623" width="45.393" height="9.556" rx="5" ry="5" style="stroke: rgb(0, 0, 0); fill: url(&quot;#gradient-13&quot;);"/>
  <g transform="matrix(1, 0, 0, 1, 12.842433, 0.940446)">
    <ellipse style="stroke: rgb(0, 0, 0); fill: url(&quot;#gradient-5&quot;); transform-box: fill-box; transform-origin: 50% 50%;" cx="91.334" cy="95.937" rx="8.384" ry="4.698" transform="matrix(0.981831, 0.189759, -0.189759, 0.981831, -0.913291, -0.521858)"/>
    <ellipse style="fill: rgb(255, 255, 255);" cx="88.194" cy="92.511" rx="4.065" ry="1.152"/>
  </g>
  <path d="M 92.389 68.109 C 92.389 68.968 92.38 69.822 92.362 70.671 C 85.079 65.607 75.642 62.551 65.331 62.551 C 53.778 62.551 43.321 66.387 35.764 72.586 C 35.709 71.109 35.681 69.616 35.681 68.109 C 35.681 36.034 48.375 10.031 64.035 10.031 C 79.695 10.031 92.389 36.034 92.389 68.109 Z" style="stroke: rgb(0, 0, 0); fill: url(&quot;#gradient-12&quot;);"/>
  <ellipse style="" cx="50.709" cy="86.779" rx="9.002" ry="11.142"/>
  <path d="M 89.65 63.625 C 89.65 64.352 89.642 65.075 89.626 65.794 C 83.149 61.507 74.757 58.92 65.588 58.92 C 55.314 58.92 46.015 62.167 39.295 67.415 C 39.246 66.165 39.221 64.901 39.221 63.625 C 39.221 36.474 50.509 14.463 64.435 14.463 C 78.362 14.463 89.65 36.474 89.65 63.625 Z" style="stroke: rgb(0, 0, 0); fill: rgb(27, 66, 228);"/>
  <g transform="matrix(1, 0, 0, 1, 11.197524, 3.85067)">
    <path d="M 42.002 52.94 C 37.116 52.94 33.155 48.762 33.155 43.609 C 33.155 39.334 35.881 35.731 39.598 34.626 C 38.203 36.167 37.341 38.286 37.341 40.625 C 37.341 45.334 40.833 49.151 45.141 49.151 C 47.074 49.151 48.842 48.383 50.205 47.11 C 48.892 50.528 45.714 52.94 42.002 52.94 Z" style="stroke: rgb(0, 0, 0); fill: url(&quot;#gradient-11&quot;);"/>
    <ellipse style="stroke: rgb(0, 0, 0); fill: url(&quot;#gradient-14&quot;);" cx="45.989" cy="40.344" rx="4.852" ry="5.222"/>
  </g>
  <g transform="matrix(-0.813987, 0, 0, 0.799639, 97.250717, -8.571167)" style="">
    <path d="M 42.002 52.94 C 37.116 52.94 33.155 48.762 33.155 43.609 C 33.155 39.334 35.881 35.731 39.598 34.626 C 38.203 36.167 37.341 38.286 37.341 40.625 C 37.341 45.334 40.833 49.151 45.141 49.151 C 47.074 49.151 48.842 48.383 50.205 47.11 C 48.892 50.528 45.714 52.94 42.002 52.94 Z" style="stroke: rgb(0, 0, 0); fill: url(&quot;#gradient-16&quot;);"/>
    <ellipse style="stroke: rgb(0, 0, 0); fill: url(&quot;#gradient-17&quot;);" cx="45.989" cy="40.344" rx="4.852" ry="5.222"/>
  </g>
  <g transform="matrix(1, 0, 0, -1, 33.34045, 90.40419)" style="">
    <path d="M 42.002 52.94 C 37.116 52.94 33.155 48.762 33.155 43.609 C 33.155 39.334 35.881 35.731 39.598 34.626 C 38.203 36.167 37.341 38.286 37.341 40.625 C 37.341 45.334 40.833 49.151 45.141 49.151 C 47.074 49.151 48.842 48.383 50.205 47.11 C 48.892 50.528 45.714 52.94 42.002 52.94 Z" style="stroke: rgb(0, 0, 0); fill: url(&quot;#gradient-18&quot;);"/>
    <ellipse style="stroke: rgb(0, 0, 0); fill: url(&quot;#gradient-19&quot;);" cx="45.989" cy="40.344" rx="4.852" ry="5.222"/>
  </g>
  <ellipse style="fill: rgba(0, 0, 0, 0.537);" cx="74.814" cy="89.546" rx="7.805" ry="1.437"/>
  <ellipse style="fill: rgba(0, 0, 0, 0.537);" cx="75.2" cy="86.211" rx="7.805" ry="1.437"/>
</svg>