<?xml version="1.0" encoding="utf-8"?>
<svg xmlns="http://www.w3.org/2000/svg" viewBox="0 0 20 20" height="20px" width="20px">
  <ellipse style="stroke: rgb(36, 110, 112); fill: rgb(0, 254, 240); transform-origin: 3.004px 3.617px;" cx="3.004" cy="3.617" rx="4.169" ry="1.671" transform="matrix(0.709182, 0.705025, -0.705025, 0.709182, 1.666908, 0.949672)"/>
  <ellipse style="stroke: rgb(36, 110, 112); fill: rgb(0, 254, 240); transform-origin: 3.004px 3.617px;" cx="3.004" cy="3.617" rx="2.237" ry="0.872" transform="matrix(-0.062861, -0.998022, 0.998022, -0.062861, 7.191625, 13.185927)"/>
  <ellipse style="stroke: rgb(36, 110, 112); fill: rgb(0, 254, 240); transform-origin: 3.004px 3.617px;" cx="3.004" cy="3.617" rx="3.865" ry="1.518" transform="matrix(0.591141, -0.806568, 0.806568, 0.591141, 2.692117, 12.609678)"/>
  <ellipse style="stroke: rgb(36, 110, 112); fill: rgb(0, 254, 240); transform-origin: 3.004px 3.617px;" cx="3.004" cy="3.617" rx="1.716" ry="3.947" transform="matrix(0.622063, 0.782967, -0.782967, 0.622063, 12.886347, 0.466863)"/>
  <ellipse style="stroke: rgb(36, 110, 112); fill: rgb(0, 254, 240); transform-origin: 3.004px 3.617px;" cx="3.004" cy="3.617" rx="2.77" ry="1.195" transform="matrix(0.755985, 0.654589, -0.654589, 0.755985, 12.983585, 12.465532)"/>
  <ellipse style="stroke: rgb(36, 110, 112); fill: rgb(0, 254, 240); transform-origin: 3.004px 3.617px;" cx="3.004" cy="3.617" rx="4.508" ry="1.658" transform="matrix(0.931675, -0.363292, 0.363292, 0.931675, 2.216307, 7.985451)"/>
  <ellipse style="stroke: rgb(36, 110, 112); transform-origin: 3.004px 3.617px; fill: rgb(255, 255, 255);" cx="3.004" cy="3.617" rx="2.547" ry="2.594" transform="matrix(0.713738, 0.700413, -0.700413, 0.713738, 7.236583, 6.554814)"/>
  <ellipse style="stroke: rgb(36, 110, 112); fill: rgb(0, 254, 240); transform-origin: 3.004px 3.617px;" cx="3.004" cy="3.617" rx="2.53" ry="1.582" transform="matrix(0.994887, -0.100994, 0.100994, 0.994887, 13.609372, 6.197002)"/>
  <ellipse style="stroke: rgb(36, 110, 112); fill: rgb(0, 254, 240); transform-origin: 3.004px 3.617px;" cx="3.004" cy="3.617" rx="2.237" ry="0.872" transform="matrix(-0.062861, -0.998022, 0.998022, -0.062861, 6.518727, -0.720614)"/>
</svg>