<?xml version="1.0" encoding="UTF-8" standalone="no"?>
<!-- Created with Inkscape (http://www.inkscape.org/) -->

<svg
   width="100"
   height="100"
   viewBox="0 0 26.458333 26.458334"
   version="1.1"
   id="svg5"
   inkscape:version="1.4.2 (ebf0e940d0, 2025-05-08)"
   sodipodi:docname="base.svg"
   xmlns:inkscape="http://www.inkscape.org/namespaces/inkscape"
   xmlns:sodipodi="http://sodipodi.sourceforge.net/DTD/sodipodi-0.dtd"
   xmlns="http://www.w3.org/2000/svg"
   xmlns:svg="http://www.w3.org/2000/svg">
  <sodipodi:namedview
     id="namedview7"
     pagecolor="#505050"
     bordercolor="#ffffff"
     borderopacity="1"
     inkscape:pageshadow="0"
     inkscape:pageopacity="0"
     inkscape:pagecheckerboard="1"
     inkscape:document-units="mm"
     showgrid="false"
     units="px"
     width="100px"
     inkscape:snap-global="false"
     inkscape:zoom="3.4422559"
     inkscape:cx="44.592849"
     inkscape:cy="53.017557"
     inkscape:window-width="1366"
     inkscape:window-height="697"
     inkscape:window-x="0"
     inkscape:window-y="0"
     inkscape:window-maximized="1"
     inkscape:current-layer="layer1"
     inkscape:showpageshadow="0"
     inkscape:deskcolor="#505050" />
  <defs
     id="defs2">
    <linearGradient
       id="linearGradient13895"
       inkscape:swatch="solid">
      <stop
         style="stop-color:#000000;stop-opacity:1;"
         offset="0"
         id="stop13893" />
    </linearGradient>
    <filter
       style="color-interpolation-filters:sRGB;"
       inkscape:label="Clean Edges"
       id="filter14269"
       x="-0.31154084"
       y="-0.29580634"
       width="1.6230817"
       height="1.5916127">
      <feGaussianBlur
         stdDeviation="0.204612"
         result="blur"
         id="feGaussianBlur14263" />
      <feComposite
         in="SourceGraphic"
         in2="blur"
         operator="in"
         result="composite1"
         id="feComposite14265" />
      <feComposite
         in="composite1"
         in2="composite1"
         operator="in"
         result="composite2"
         id="feComposite14267" />
    </filter>
  </defs>
  <g
     inkscape:label="Camada 1"
     inkscape:groupmode="layer"
     id="layer1">
    <rect
       style="fill:#00112b;stroke:#030016;stroke-width:0.549252;stroke-opacity:1"
       id="rect2199"
       width="2.9690452"
       height="6.6044025"
       x="7.63902"
       y="19.631306"
       ry="1.1621161" />
    <rect
       style="fill:#00112b;stroke:#030016;stroke-width:0.555604;stroke-opacity:1"
       id="rect2303"
       width="3.1049774"
       height="6.4621744"
       x="11.004696"
       y="19.690739"
       ry="1.1370896" />
    <path
       id="rect9714"
       style="fill:#00112b;stroke:#030016;stroke-width:0.736969;stroke-miterlimit:4;stroke-dasharray:none;stroke-opacity:1"
       d="m 6.7888564,12.896338 c -0.4065588,0.0433 -0.7537365,0.216884 -0.8808721,0.472194 l -1.751233,3.516862 c -0.029679,0.0596 -0.045566,0.120198 -0.048686,0.179981 -0.0567,0.07852 -0.093292,0.162471 -0.1036637,0.249883 l -0.4413197,3.716777 c -0.046582,0.392387 0.439446,0.693134 1.0891686,0.674717 l 0.4915904,-0.01332 c 0.6497229,-0.01841 1.210134,-0.349747 1.2567171,-0.742135 l 0.4057356,-3.417933 c 0.02666,-0.03299 0.049316,-0.06739 0.067483,-0.103862 l 1.7520298,-3.51761 C 8.8107284,13.540536 8.4581178,13.141384 7.8358987,13.016924 l -0.470973,-0.09444 c -0.1944461,-0.0389 -0.3912563,-0.04578 -0.5760598,-0.02613 z" />
    <path
       id="path11551"
       style="fill:#00112b;stroke:#030016;stroke-width:0.728343;stroke-miterlimit:4;stroke-dasharray:none;stroke-opacity:1"
       d="m 22.39958,13.993873 c -0.118741,0.407513 -0.358479,0.727999 -0.640029,0.806881 l -3.878288,1.08655 c -0.06572,0.01842 -0.129911,0.02251 -0.190914,0.01373 -0.08986,0.04228 -0.181458,0.06287 -0.271725,0.05594 l -3.838337,-0.294472 c -0.405221,-0.03109 -0.619405,-0.588985 -0.480749,-1.250358 l 0.104285,-0.500531 c 0.138652,-0.661374 0.577097,-1.168506 0.982318,-1.13741 l 3.5297,0.27087 c 0.03827,-0.02066 0.07722,-0.03694 0.117463,-0.0482 l 3.879185,-1.087217 c 0.409523,-0.114732 0.74783,0.326334 0.758665,0.988245 l 0.0084,0.501061 c 0.0034,0.206848 -0.02602,0.409687 -0.08002,0.594914 z" />
    <path
       id="rect9738"
       style="fill:#1a1a1a;fill-opacity:1;stroke:#000000;stroke-width:0.526931;stroke-miterlimit:4;stroke-dasharray:none;stroke-opacity:1"
       d="m 7.5879904,12.784711 -0.4892311,11.379227 1.873076,1.190693 1.9726087,-1.751077 1.508251,1.751077 2.256386,-1.650733 -0.434872,-10.919187 z"
       sodipodi:nodetypes="cccccccc" />
    <path
       id="rect2"
       style="fill:#800000;fill-opacity:1;stroke:#330000;stroke-width:0.428;stroke-dasharray:none;stroke-opacity:1"
       d="m 10.027685,15.571447 h 1.766395 l 0.652207,7.255805 -2.962108,-0.02717 z"
       sodipodi:nodetypes="ccccc" />
    <path
       id="path35"
       style="fill:#ff0000;fill-opacity:1;stroke:none;stroke-width:0.428;stroke-dasharray:none;stroke-opacity:1"
       d="m 10.277491,15.398504 0.709524,-0.01922 0.0373,6.083639 -1.2903301,1.164212 z"
       sodipodi:nodetypes="ccccc" />
    <path
       id="path34"
       style="fill:#0c0c0c;fill-opacity:1;stroke:none;stroke-width:0.397619;stroke-dasharray:none;stroke-opacity:1"
       d="M 7.3043473,24.039987 8.2199257,24.579501 9.5708641,13.40659 7.8950664,13.294972 Z"
       sodipodi:nodetypes="ccccc" />
    <path
       id="ellipse1"
       style="fill:#ff0000;stroke:#4e0600;stroke-width:0.386319"
       d="m 13.830982,13.805088 c -0.224238,1.387829 -1.205319,2.39175 -2.905492,2.39175 -1.7001728,0 -2.6236816,-1.218524 -2.8670601,-2.603125 -0.4227483,-2.405051 1.1668878,-2.487828 2.8670601,-2.487828 1.700173,0 3.328241,0.08278 2.905492,2.699203 z"
       sodipodi:nodetypes="sssss" />
    <ellipse
       style="fill:#00112b;fill-opacity:1;stroke:#030016;stroke-width:0.309234;stroke-miterlimit:4;stroke-dasharray:none;stroke-opacity:1"
       id="path11105"
       cx="10.963923"
       cy="12.959592"
       rx="2.3867757"
       ry="2.1036232" />
    <ellipse
       style="fill:#003380;fill-opacity:1;stroke:none;stroke-width:0.244504;stroke-miterlimit:4;stroke-dasharray:none;stroke-opacity:1"
       id="ellipse2"
       cx="11.38667"
       cy="12.575275"
       rx="1.9189181"
       ry="1.6357657" />
    <ellipse
       style="fill:#00112b;fill-opacity:1;stroke:#030016;stroke-width:0.650363;stroke-miterlimit:4;stroke-dasharray:none;stroke-opacity:1"
       id="path9279"
       cx="10.967604"
       cy="7.4773211"
       rx="5.6305685"
       ry="5.6201978" />
    <ellipse
       style="fill:#003380;fill-opacity:1;stroke:none;stroke-width:0.275613;stroke-miterlimit:4;stroke-dasharray:none;stroke-opacity:1"
       id="ellipse9379"
       cx="11.630982"
       cy="6.8963957"
       rx="4.5802035"
       ry="4.6339922" />
    <path
       id="path9421"
       style="fill:#ffffff;fill-opacity:1;stroke:none;stroke-width:0.374045;stroke-miterlimit:4;stroke-dasharray:none;stroke-opacity:1"
       d="M 8.4191243 6.0528605 A 1.7275637 2.3700898 0 0 0 8.1297363 7.3659587 A 1.7275637 2.3700898 0 0 0 9.8572795 9.7358398 A 1.7275637 2.3700898 0 0 0 11.584823 7.3659587 A 1.7275637 2.3700898 0 0 0 11.295435 6.0528605 L 8.4191243 6.0528605 z " />
    <path
       id="path3"
       style="fill:#ffffff;fill-opacity:1;stroke:none;stroke-width:0.374045;stroke-miterlimit:4;stroke-dasharray:none;stroke-opacity:1"
       d="M 12.55053,5.9759971 A 1.7275637,2.3700898 0 0 0 12.261142,7.2890953 1.7275637,2.3700898 0 0 0 13.988685,9.6589764 1.7275637,2.3700898 0 0 0 15.716228,7.2890953 1.7275637,2.3700898 0 0 0 15.42684,5.9759971 Z" />
    <g
       id="g30"
       transform="matrix(1.0524471,0,0,1.0508084,-9.4142922,0.3969395)">
      <path
         id="path7"
         style="fill:#4d4d4d;stroke:#191414;stroke-width:0.280675"
         d="M 31.577726,3.4832592 30.693951,2.5760888 29.7218,5.490615 30.517198,6.0889615 Z"
         sodipodi:nodetypes="ccccc" />
      <path
         id="rect7"
         style="fill:#4d4d4d;stroke:#191414;stroke-width:0.280675"
         d="M 25.878144,3.4935983 26.761919,2.5864279 27.73407,5.5009541 26.938672,6.0993006 Z"
         sodipodi:nodetypes="ccccc" />
      <path
         id="path29"
         style="fill:#1d1d1d;fill-opacity:1;stroke:none;stroke-width:0.205365"
         d="m 25.977674,3.5551495 0.318189,-1.0252506 0.954662,2.7416038 -0.320079,0.7070178 z"
         sodipodi:nodetypes="ccccc" />
      <path
         id="path30"
         style="fill:#1d1d1d;fill-opacity:1;stroke:none;stroke-width:0.205365"
         d="M 31.435521,3.460036 31.117332,2.4347854 30.16267,5.1763892 30.482749,5.883407 Z"
         sodipodi:nodetypes="ccccc" />
      <path
         id="path3011"
         style="fill:#ffffff;stroke:#191414;stroke-width:0.282633;stroke-miterlimit:4;stroke-dasharray:none;stroke-opacity:1"
         d="m 28.008113,7.8476995 -0.0266,-2.2852059 A 1.4962496,1.6223965 0.50680546 0 1 27.239432,4.5697231 c -0.210448,0.083926 -0.358238,0.3023762 -0.355271,0.5583577 l 0.0254,2.2001587 a 3.4925637,3.8448039 0.8085008 0 0 1.098549,0.51946 z m 1.455399,0.036427 a 3.4925637,3.8448039 0.8085008 0 0 1.13383,-0.4718066 L 30.572584,5.2598307 C 30.569029,4.9550176 30.361231,4.7074771 30.09051,4.663157 a 1.4962496,1.6223965 0.50680546 0 1 -0.654712,0.8615457 z m 2.268535,-1.6565463 a 3.4925637,3.8448039 0.8085008 0 0 0.581078,-1.9616675 3.4925637,3.8448039 0.8085008 0 0 -3.33634,-4.0001362 3.4925637,3.8448039 0.8085008 0 0 -3.641888,3.6853312 3.4925637,3.8448039 0.8085008 0 0 0.372114,1.8958543 l -0.01013,-0.8834182 c -0.01269,-1.0948649 0.796201,-1.9884496 1.813597,-2.0029695 l 0.134137,-0.00207 a 1.4962496,1.6223965 0.50680546 0 1 1.099472,-0.4506201 1.4962496,1.6223965 0.50680546 0 1 0.942463,0.4220117 l 0.170212,-0.0026 c 1.017394,-0.01452 1.847137,0.8551109 1.859818,1.9499759 z" />
      <rect
         style="fill:#ffffff;stroke:#191414;stroke-width:0.435;stroke-miterlimit:4;stroke-dasharray:none;stroke-opacity:1"
         id="rect2963"
         width="1.2138551"
         height="19.24122"
         x="28.158936"
         y="5.2608309"
         ry="0.60618573" />
      <rect
         style="fill:#ffffff;stroke:#191414;stroke-width:0.125918;stroke-miterlimit:4;stroke-dasharray:none;stroke-opacity:1"
         id="rect4"
         width="2.418293"
         height="0.53468895"
         x="27.583754"
         y="22.44096"
         ry="0.25027269" />
      <rect
         style="fill:#ffffff;stroke:#191414;stroke-width:0.158123;stroke-miterlimit:4;stroke-dasharray:none;stroke-opacity:1"
         id="rect3"
         width="2.895308"
         height="0.70425063"
         x="27.359657"
         y="22.87981"
         ry="0.3296397" />
      <g
         id="g6"
         transform="rotate(180,28.970364,8.4546012)">
        <rect
           style="fill:#ffffff;stroke:#191414;stroke-width:0.125918;stroke-miterlimit:4;stroke-dasharray:none;stroke-opacity:1"
           id="rect5"
           width="2.418293"
           height="0.53468895"
           x="27.855507"
           y="7.3858442"
           ry="0.25027269" />
        <rect
           style="fill:#ffffff;stroke:#191414;stroke-width:0.158123;stroke-miterlimit:4;stroke-dasharray:none;stroke-opacity:1"
           id="rect6"
           width="2.895308"
           height="0.70425063"
           x="27.631411"
           y="7.8246946"
           ry="0.3296397" />
      </g>
      <ellipse
         style="fill:#4d4d4d;fill-opacity:1;stroke:#191414;stroke-width:0.291999;stroke-dasharray:none;stroke-opacity:1"
         id="path8"
         cx="28.7565"
         cy="3.8143439"
         rx="0.87432063"
         ry="0.8551048" />
      <g
         id="g16">
        <path
           id="path9"
           style="fill:#861414;fill-opacity:1;stroke:#191414;stroke-width:0.192"
           d="m 29.179479,1.3621619 c 0,0.1894821 -0.12582,0.6505412 -0.328434,0.6505415 -0.202615,2e-7 -0.405299,-0.461059 -0.405299,-0.6505415 0,-0.1894825 0.164252,-0.3430884 0.366867,-0.3430882 0.202615,3e-7 0.366866,0.153606 0.366866,0.3430882 z"
           sodipodi:nodetypes="sssss" />
        <path
           id="ellipse9"
           style="fill:#4d4d4d;stroke:#191414;stroke-width:0.192"
           d="m 28.357427,0.89338797 c 0,0.18948213 0.220065,0.48720663 0.01745,0.48720693 -0.202615,2e-7 -0.751184,-0.2977244 -0.751184,-0.48720693 0,-0.18948251 0.164252,-0.34308838 0.366867,-0.34308815 0.202615,2.9e-7 0.366866,0.153606 0.366867,0.34308815 z"
           sodipodi:nodetypes="sssss" />
        <path
           id="ellipse10"
           style="fill:#4d4d4d;stroke:#191414;stroke-width:0.192"
           d="m 29.960769,0.80506825 c 0,0.18948215 -0.471705,0.48720665 -0.674319,0.48720695 -0.202615,2e-7 -0.05941,-0.29772444 -0.05941,-0.48720695 0,-0.18948251 0.164252,-0.34308838 0.366867,-0.34308815 0.202615,2.9e-7 0.366866,0.153606 0.366866,0.34308815 z"
           sodipodi:nodetypes="sssss" />
        <path
           id="path10"
           style="fill:#df2e2e;fill-opacity:1;stroke:none;stroke-width:0.0965249"
           d="m 29.044968,1.3211899 c 0,0.097872 -0.06157,0.3360203 -0.160706,0.3360204 -0.09914,1e-7 -0.198318,-0.2381481 -0.198318,-0.3360204 0,-0.097872 0.08037,-0.1772134 0.179512,-0.1772133 0.09915,2e-7 0.179512,0.079341 0.179512,0.1772133 z"
           sodipodi:nodetypes="sssss" />
        <path
           id="path11"
           style="fill:#7f7f7f;fill-opacity:1;stroke:none;stroke-width:0.0784491"
           d="m 28.149614,0.69865723 c 0.05242,0.0598357 0.142334,0.23840606 0.08174,0.29149337 -0.0606,0.053093 -0.248779,-0.0393931 -0.301199,-0.099229 -0.05242,-0.0598357 -0.04579,-0.15137913 0.01482,-0.2044742 0.06061,-0.053099 0.152226,-0.0476261 0.204647,0.0122098 z"
           sodipodi:nodetypes="sssss" />
        <path
           id="path12"
           style="fill:#7f7f7f;fill-opacity:1;stroke:none;stroke-width:0.0784491"
           d="m 29.428341,0.62179387 c -0.05242,0.0598357 -0.142334,0.23840606 -0.08174,0.29149337 0.0606,0.053093 0.248779,-0.0393931 0.301199,-0.099229 0.05242,-0.0598357 0.04579,-0.15137913 -0.01482,-0.2044742 -0.06061,-0.053099 -0.152226,-0.0476261 -0.204647,0.0122098 z"
           sodipodi:nodetypes="sssss" />
      </g>
      <path
         id="path16"
         style="fill:#4a4a4a;fill-opacity:1;stroke:none;stroke-width:0.278696;stroke-miterlimit:4;stroke-dasharray:none;stroke-opacity:1"
         d="m 28.856159,2.2389387 a 1.5996585,1.7028715 89.343603 0 0 -1.251584,0.4443096 l -0.152372,0.00204 c -1.063618,0.013151 -1.927255,0.7576779 -2.049622,1.7155851 a 3.4441621,3.7909743 0.80971971 0 0 0.357231,1.3762387 L 25.74962,4.9063245 C 25.7371,3.8267884 26.53503,2.9457056 27.538326,2.931389 l 0.131988,-0.00204 a 1.4755139,1.5996819 0.50771198 0 1 1.084434,-0.4443096 1.4755139,1.5996819 0.50771198 0 1 0.929516,0.4162854 l 0.167659,-0.00306 c 1.003295,-0.014317 1.821555,0.8434274 1.83406,1.9229636 l 0.01529,1.3314001 A 3.4441621,3.7909743 0.80971971 0 0 32.23941,4.6128333 L 32.2389,4.5751277 C 32.224474,3.495597 31.280394,2.6378503 30.122521,2.652167 l -0.193648,0.00254 A 1.5996585,1.7028715 89.343603 0 0 28.856159,2.2389387 Z m -1.585374,2.2791245 c -0.207532,0.082751 -0.353023,0.2978941 -0.350097,0.5502917 l 0.02497,2.1695757 a 3.4441621,3.7909743 0.80971971 0 0 0.579927,0.3347607 V 5.0642787 a 1.4755139,1.5996819 0.50771198 0 1 -0.2548,-0.5462155 z m 2.811479,0.092224 a 1.4755139,1.5996819 0.50771198 0 1 -0.149825,0.332723 v 2.7076386 a 3.4441621,3.7909743 0.80971971 0 0 0.649745,-0.3296654 l -0.02446,-2.122699 C 30.554193,4.897741 30.349231,4.6539896 30.082264,4.6102872 Z" />
      <g
         id="g22"
         transform="rotate(2.5499058,-174.1279,4.8896558)">
        <path
           id="path17"
           style="fill:#861414;fill-opacity:1;stroke:#191414;stroke-width:0.192"
           d="m 29.179479,1.3621619 c 0,0.1894821 -0.12582,0.6505412 -0.328434,0.6505415 -0.202615,2e-7 -0.405299,-0.461059 -0.405299,-0.6505415 0,-0.1894825 0.164252,-0.3430884 0.366867,-0.3430882 0.202615,3e-7 0.366866,0.153606 0.366866,0.3430882 z"
           sodipodi:nodetypes="sssss" />
        <path
           id="path18"
           style="fill:#4d4d4d;stroke:#191414;stroke-width:0.192"
           d="m 28.357427,0.89338797 c 0,0.18948213 0.220065,0.48720663 0.01745,0.48720693 -0.202615,2e-7 -0.751184,-0.2977244 -0.751184,-0.48720693 0,-0.18948251 0.164252,-0.34308838 0.366867,-0.34308815 0.202615,2.9e-7 0.366866,0.153606 0.366867,0.34308815 z"
           sodipodi:nodetypes="sssss" />
        <path
           id="path19"
           style="fill:#4d4d4d;stroke:#191414;stroke-width:0.192"
           d="m 29.960769,0.80506825 c 0,0.18948215 -0.471705,0.48720665 -0.674319,0.48720695 -0.202615,2e-7 -0.05941,-0.29772444 -0.05941,-0.48720695 0,-0.18948251 0.164252,-0.34308838 0.366867,-0.34308815 0.202615,2.9e-7 0.366866,0.153606 0.366866,0.34308815 z"
           sodipodi:nodetypes="sssss" />
        <path
           id="path20"
           style="fill:#df2e2e;fill-opacity:1;stroke:none;stroke-width:0.0965249"
           d="m 29.044968,1.3211899 c 0,0.097872 -0.06157,0.3360203 -0.160706,0.3360204 -0.09914,1e-7 -0.198318,-0.2381481 -0.198318,-0.3360204 0,-0.097872 0.08037,-0.1772134 0.179512,-0.1772133 0.09915,2e-7 0.179512,0.079341 0.179512,0.1772133 z"
           sodipodi:nodetypes="sssss" />
        <path
           id="path21"
           style="fill:#7f7f7f;fill-opacity:1;stroke:none;stroke-width:0.0784491"
           d="m 28.149614,0.69865723 c 0.05242,0.0598357 0.142334,0.23840606 0.08174,0.29149337 -0.0606,0.053093 -0.248779,-0.0393931 -0.301199,-0.099229 -0.05242,-0.0598357 -0.04579,-0.15137913 0.01482,-0.2044742 0.06061,-0.053099 0.152226,-0.0476261 0.204647,0.0122098 z"
           sodipodi:nodetypes="sssss" />
        <path
           id="path22"
           style="fill:#7f7f7f;fill-opacity:1;stroke:none;stroke-width:0.0784491"
           d="m 29.428341,0.62179387 c -0.05242,0.0598357 -0.142334,0.23840606 -0.08174,0.29149337 0.0606,0.053093 0.248779,-0.0393931 0.301199,-0.099229 0.05242,-0.0598357 0.04579,-0.15137913 -0.01482,-0.2044742 -0.06061,-0.053099 -0.152226,-0.0476261 -0.204647,0.0122098 z"
           sodipodi:nodetypes="sssss" />
      </g>
      <g
         id="g28"
         transform="matrix(0.99900985,-0.04448956,-0.04448956,-0.99900985,0.04512576,24.18316)">
        <path
           id="path23"
           style="fill:#861414;fill-opacity:1;stroke:#191414;stroke-width:0.192"
           d="m 29.179479,1.3621619 c 0,0.1894821 -0.12582,0.6505412 -0.328434,0.6505415 -0.202615,2e-7 -0.405299,-0.461059 -0.405299,-0.6505415 0,-0.1894825 0.164252,-0.3430884 0.366867,-0.3430882 0.202615,3e-7 0.366866,0.153606 0.366866,0.3430882 z"
           sodipodi:nodetypes="sssss" />
        <path
           id="path24"
           style="fill:#4d4d4d;stroke:#191414;stroke-width:0.192"
           d="m 28.357427,0.89338797 c 0,0.18948213 0.220065,0.48720663 0.01745,0.48720693 -0.202615,2e-7 -0.751184,-0.2977244 -0.751184,-0.48720693 0,-0.18948251 0.164252,-0.34308838 0.366867,-0.34308815 0.202615,2.9e-7 0.366866,0.153606 0.366867,0.34308815 z"
           sodipodi:nodetypes="sssss" />
        <path
           id="path25"
           style="fill:#4d4d4d;stroke:#191414;stroke-width:0.192"
           d="m 29.960769,0.80506825 c 0,0.18948215 -0.471705,0.48720665 -0.674319,0.48720695 -0.202615,2e-7 -0.05941,-0.29772444 -0.05941,-0.48720695 0,-0.18948251 0.164252,-0.34308838 0.366867,-0.34308815 0.202615,2.9e-7 0.366866,0.153606 0.366866,0.34308815 z"
           sodipodi:nodetypes="sssss" />
        <path
           id="path26"
           style="fill:#df2e2e;fill-opacity:1;stroke:none;stroke-width:0.0965249"
           d="m 29.044968,1.3211899 c 0,0.097872 -0.06157,0.3360203 -0.160706,0.3360204 -0.09914,1e-7 -0.198318,-0.2381481 -0.198318,-0.3360204 0,-0.097872 0.08037,-0.1772134 0.179512,-0.1772133 0.09915,2e-7 0.179512,0.079341 0.179512,0.1772133 z"
           sodipodi:nodetypes="sssss" />
        <path
           id="path27"
           style="fill:#7f7f7f;fill-opacity:1;stroke:none;stroke-width:0.0784491"
           d="m 28.149614,0.69865723 c 0.05242,0.0598357 0.142334,0.23840606 0.08174,0.29149337 -0.0606,0.053093 -0.248779,-0.0393931 -0.301199,-0.099229 -0.05242,-0.0598357 -0.04579,-0.15137913 0.01482,-0.2044742 0.06061,-0.053099 0.152226,-0.0476261 0.204647,0.0122098 z"
           sodipodi:nodetypes="sssss" />
        <path
           id="path28"
           style="fill:#7f7f7f;fill-opacity:1;stroke:none;stroke-width:0.0784491"
           d="m 29.428341,0.62179387 c -0.05242,0.0598357 -0.142334,0.23840606 -0.08174,0.29149337 0.0606,0.053093 0.248779,-0.0393931 0.301199,-0.099229 0.05242,-0.0598357 0.04579,-0.15137913 -0.01482,-0.2044742 -0.06061,-0.053099 -0.152226,-0.0476261 -0.204647,0.0122098 z"
           sodipodi:nodetypes="sssss" />
      </g>
      <ellipse
         style="fill:#3671c1;fill-opacity:1;stroke:#191414;stroke-width:0.11257;stroke-dasharray:none;stroke-opacity:1"
         id="ellipse28"
         cx="28.763294"
         cy="3.7871685"
         rx="0.51320004"
         ry="0.50077802" />
      <ellipse
         style="fill:#1c3b65;fill-opacity:1;stroke:none;stroke-width:0.0733422;stroke-dasharray:none;stroke-opacity:1"
         id="ellipse29"
         cx="28.84482"
         cy="3.6920547"
         rx="0.33656061"
         ry="0.32413858" />
    </g>
    <path
       d="m 22.34644,11.848889 c -0.02779,-9.52e-4 -0.05362,0.0032 -0.07752,0.01292 l -1.456759,0.594279 c -0.382288,0.155903 -1.121078,0.464503 -1.102258,0.89762 l 0.05478,1.254704 c 0.01882,0.433116 0.251076,1.314771 0.654224,1.261421 l 2.095479,-0.276985 c 0.403149,-0.05335 1.050282,-0.823093 1.053682,-1.257288 l 0.0072,-0.910539 c 0.0032,-0.407058 -0.811987,-1.561847 -1.228865,-1.576131 z"
       style="fill:#00112b;stroke:#030016;stroke-width:0.682"
       id="path32" />
    <path
       d="m 21.325418,12.746255 c 0.01119,-0.0068 0.02283,-0.01205 0.03509,-0.01549 l 0.747719,-0.208898 c 0.196208,-0.05483 0.577228,-0.159076 0.678883,-0.0527 l 0.294368,0.308232 c 0.101653,0.106377 0.229011,0.369341 0.05014,0.453287 l -0.929633,0.436405 c -0.178866,0.08395 -0.638739,0.05779 -0.74978,-0.04352 L 21.21927,13.411154 c -0.104104,-0.09498 -0.06129,-0.56171 0.106135,-0.664849 z"
       style="fill:#003380;fill-opacity:1;stroke:none;stroke-width:0.270178"
       id="path33" />
  </g>
</svg>
