<?xml version="1.0" encoding="utf-8"?>
<svg xmlns="http://www.w3.org/2000/svg" viewBox="0 0 100 80">
  <defs>
    <linearGradient gradientUnits="userSpaceOnUse" x1="49.736" y1="9.643" x2="49.736" y2="74.096" id="gradient-1" gradientTransform="matrix(1, 0, 0, 0.522091, 0.048122, 34.750859)">
      <stop offset="0" style="stop-color: rgb(10.588% 10.588% 10.588%)"/>
      <stop offset="1" style="stop-color: rgb(7.4306% 7.4306% 7.4306%)"/>
    </linearGradient>
    <linearGradient gradientUnits="userSpaceOnUse" x1="49.736" y1="9.643" x2="49.736" y2="74.096" id="gradient-0" gradientTransform="matrix(1, 0, 0, 0.522091, 0.048122, 34.750859)">
      <stop offset="0" style="stop-color: rgb(0% 5.8824% 0%)"/>
      <stop offset="1" style="stop-color: rgb(0.51309% 3.3936% 0%)"/>
    </linearGradient>
    <linearGradient gradientUnits="userSpaceOnUse" x1="50.126" y1="37.942" x2="50.126" y2="77.741" id="gradient-2">
      <stop offset="0" style="stop-color: rgb(8.2353% 20% 7.8431%)"/>
      <stop offset="1" style="stop-color: rgb(2.4977% 13.792% 0%)"/>
    </linearGradient>
    <linearGradient gradientUnits="userSpaceOnUse" x1="50.069" y1="34.967" x2="50.069" y2="45.032" id="gradient-3">
      <stop offset="0" style="stop-color: rgb(23.922% 44.706% 23.137%)"/>
      <stop offset="1" style="stop-color: rgb(6.0295% 28.067% 7.78%)"/>
    </linearGradient>
  </defs>
  <g transform="matrix(1, 0, 0, 1, 41.034977, 3.97441)" style="">
    <rect x="2.128" y="15.679" width="2.632" height="2.644" style="fill: rgb(7, 255, 0);"/>
    <rect x="4.064" y="18.159" width="2.632" height="4.761" style="fill: rgb(7, 255, 0);"/>
    <rect x="2.249" y="20.034" width="2.451" height="6.274" style="fill: rgb(7, 255, 0);"/>
  </g>
  <text style="fill: rgb(7, 255, 0); font-family: Arial, sans-serif; font-size: 28px; white-space: pre;" transform="matrix(-0.443236, 0, 0, 0.257328, 74.489571, 8.326186)"><tspan x="15.439" y="4.397">0</tspan><tspan x="15.439" dy="1em">​</tspan><tspan>10</tspan><tspan x="15.439" dy="1em">​</tspan><tspan>1</tspan><tspan x="15.439" dy="1em">​</tspan><tspan>01</tspan></text>
  <text style="fill: rgb(7, 255, 0); font-family: Arial, sans-serif; font-size: 28px; white-space: pre;" transform="matrix(0.443236, 0, 0, 0.257328, 27.561129, 13.153763)"><tspan x="15.439" y="4.397">0</tspan><tspan x="15.439" dy="1em">​</tspan><tspan>10</tspan><tspan x="15.439" dy="1em">​</tspan><tspan>1</tspan><tspan x="15.439" dy="1em">​</tspan><tspan>01</tspan></text>
  <rect x="4.148" y="37.942" width="91.956" height="39.799" rx="4" ry="4" style="stroke-width: 3px; fill: url(&quot;#gradient-2&quot;); stroke: rgb(0, 94, 0);"/>
  <rect x="8.666" y="39.786" width="82.235" height="33.65" rx="4" ry="4" style="stroke-width: 3px; stroke: url(&quot;#gradient-0&quot;); fill: url(&quot;#gradient-1&quot;);"/>
  <rect x="2.053" y="34.967" width="96.032" height="10.065" style="stroke-width: 3px; fill: url(&quot;#gradient-3&quot;); stroke: rgb(0, 92, 0);"/>
  <ellipse style="stroke: rgb(0, 0, 0); stroke-width: 3px; fill: rgb(27, 27, 27);" cx="50.06" cy="41.152" rx="13.071" ry="13.386"/>
  <g transform="matrix(0.72778, 0, 0, 0.808423, -42.306881, -70.781807)" style="">
    <path d="M 124.766 150.503 C 118.45 150.503 113.331 145.557 113.331 139.456 C 113.331 134.282 117.012 129.939 121.98 128.739 C 120.817 130.468 120.14 132.534 120.14 134.752 C 120.14 140.854 125.259 145.799 131.575 145.799 C 132.535 145.799 133.469 145.684 134.36 145.468 C 132.321 148.499 128.785 150.503 124.766 150.503 Z" style="transform-box: fill-box; transform-origin: 50% 50%; fill: rgb(7, 255, 0);" transform="matrix(0.999145, -0.041333, 0.041333, 0.999145, 0, 0)"/>
    <path d="M 132.245 142.463 C 127.938 142.463 124.448 138.809 124.448 134.303 C 124.448 130.481 126.958 127.273 130.345 126.387 C 129.552 127.664 129.091 129.19 129.091 130.828 C 129.091 135.335 132.581 138.988 136.888 138.988 C 137.543 138.988 138.18 138.903 138.787 138.744 C 137.397 140.983 134.986 142.463 132.245 142.463 Z" style="transform-box: fill-box; transform-origin: 50% 50%; fill: rgb(7, 255, 0);" transform="matrix(-0.999793, 0.020351, -0.020351, -0.999793, 0.000012, -0.000003)"/>
    <path d="M 127.302 142.054 C 124.804 142.054 122.78 140.038 122.78 137.551 C 122.78 135.442 124.236 133.671 126.2 133.182 C 125.741 133.887 125.473 134.729 125.473 135.633 C 125.473 138.121 127.497 140.137 129.995 140.137 C 130.375 140.137 130.744 140.09 131.096 140.002 C 130.29 141.237 128.892 142.054 127.302 142.054 Z" style="fill: rgb(7, 255, 0);"/>
    <ellipse style="fill: rgb(7, 255, 0);" cx="129.472" cy="135.709" rx="1.784" ry="1.901"/>
  </g>
  <rect x="11.998" y="50.047" width="7.67" height="3.951" style="fill: rgb(46, 85, 44);"/>
  <rect x="18.074" y="51.851" width="7.67" height="3.951" style="fill: rgb(46, 85, 44);"/>
  <rect x="14.276" y="55.269" width="7.67" height="3.951" style="fill: rgb(46, 85, 44);"/>
  <rect x="17.409" y="57.737" width="17.543" height="3.951" style="fill: rgb(46, 85, 44);"/>
  <rect x="-74.56" y="48.143" width="3.36" height="12.981" style="fill: rgb(46, 85, 44);" transform="matrix(-1, 0, 0, 1, 0, 0)"/>
  <rect x="-67.794" y="56.977" width="7.67" height="3.951" style="fill: rgb(46, 85, 44);" transform="matrix(-1, 0, 0, 1, 0, 0)"/>
  <rect x="-71.592" y="60.395" width="7.67" height="3.951" style="fill: rgb(46, 85, 44);" transform="matrix(-1, 0, 0, 1, 0, 0)"/>
  <rect x="-64.787" y="63.71" width="13.438" height="2.104" style="fill: rgb(46, 85, 44);" transform="matrix(-1, 0, 0, 1, 0, 0)"/>
  <rect x="-81.511" y="48.916" width="4.364" height="3.439" style="fill: rgb(46, 85, 44);" transform="matrix(-1, 0, 0, 1, 0, 0)"/>
  <rect x="-84.279" y="51.079" width="4.364" height="3.439" style="fill: rgb(46, 85, 44);" transform="matrix(-1, 0, 0, 1, 0, 0)"/>
  <rect x="-84.279" y="54.799" width="4.364" height="3.439" style="fill: rgb(46, 85, 44);" transform="matrix(-1, 0, 0, 1, 0, 0)"/>
  <rect x="-38.003" y="-68.875" width="4.364" height="8.259" style="fill: rgb(46, 85, 44);" transform="matrix(-1, 0, 0, -1, 0, 0)"/>
  <text style="fill: rgb(7, 255, 0); font-family: Arial, sans-serif; font-size: 28px; white-space: pre;" transform="matrix(0.209934, 0, 0, 0.257328, 4.636329, 6.779362)"><tspan x="15.439" y="4.397">0</tspan><tspan x="15.439" dy="1em">​</tspan><tspan>10</tspan><tspan x="15.439" dy="1em">​</tspan><tspan>1</tspan><tspan x="15.439" dy="1em">​</tspan><tspan>01</tspan></text>
  <text style="fill: rgb(7, 255, 0); font-family: Arial, sans-serif; font-size: 28px; white-space: pre;" transform="matrix(-0.209934, 0, 0, 0.257328, 26.863474, 11.606939)"><tspan x="15.439" y="4.397">0</tspan><tspan x="15.439" dy="1em">​</tspan><tspan>10</tspan><tspan x="15.439" dy="1em">​</tspan><tspan>1</tspan><tspan x="15.439" dy="1em">​</tspan><tspan>01</tspan></text>
  <text style="fill: rgb(7, 255, 0); font-family: Arial, sans-serif; font-size: 28px; white-space: pre;" transform="matrix(0.209934, 0, 0, 0.257328, 74.901649, 7.414834)"><tspan x="15.439" y="4.397">0</tspan><tspan x="15.439" dy="1em">​</tspan><tspan>10</tspan><tspan x="15.439" dy="1em">​</tspan><tspan>1</tspan><tspan x="15.439" dy="1em">​</tspan><tspan>01</tspan></text>
  <text style="fill: rgb(7, 255, 0); font-family: Arial, sans-serif; font-size: 28px; white-space: pre;" transform="matrix(-0.209934, 0, 0, 0.257328, 97.128792, 12.242411)"><tspan x="15.439" y="4.397">0</tspan><tspan x="15.439" dy="1em">​</tspan><tspan>10</tspan><tspan x="15.439" dy="1em">​</tspan><tspan>1</tspan><tspan x="15.439" dy="1em">​</tspan><tspan>01</tspan></text>
  <rect x="1.769" y="3.121" width="7.108" height="10.024" style="fill: rgb(7, 255, 0);"/>
  <rect x="22.88" y="4.769" width="6.038" height="6.641" style="fill: rgb(7, 255, 0);"/>
  <rect x="26.677" y="1.636" width="12.778" height="3.698" style="fill: rgb(7, 255, 0);"/>
  <rect x="51.193" y="10.598" width="1.386" height="11.293" style="fill: rgb(7, 255, 0);"/>
  <rect x="52.047" y="5.946" width="3.759" height="11.293" style="fill: rgb(7, 255, 0);"/>
  <rect x="-74.541" y="21.004" width="1.386" height="11.293" style="fill: rgb(7, 255, 0);" transform="matrix(-1, 0, 0, 1, 0, 0)"/>
  <rect x="-73.687" y="16.352" width="3.759" height="11.293" style="fill: rgb(7, 255, 0);" transform="matrix(-1, 0, 0, 1, 0, 0)"/>
  <rect x="84.237" y="5.666" width="7.653" height="5.026" style="fill: rgb(7, 255, 0);"/>
  <g>
    <rect x="2.128" y="15.679" width="2.632" height="2.644" style="fill: rgb(7, 255, 0);"/>
    <rect x="4.064" y="18.159" width="2.632" height="4.761" style="fill: rgb(7, 255, 0);"/>
    <rect x="2.249" y="20.034" width="2.451" height="6.274" style="fill: rgb(7, 255, 0);"/>
  </g>
  <g transform="matrix(-1, 0, 0, 1, 34.64817, -5.827464)" style="">
    <rect x="2.128" y="15.679" width="2.632" height="2.644" style="fill: rgb(7, 255, 0);"/>
    <rect x="4.064" y="18.159" width="2.632" height="4.761" style="fill: rgb(7, 255, 0);"/>
    <rect x="2.249" y="20.034" width="2.451" height="6.274" style="fill: rgb(7, 255, 0);"/>
  </g>
  <g transform="matrix(-1, 0, 0, 1, 20.830336, 4.7284)" style="">
    <rect x="2.128" y="15.679" width="2.632" height="2.644" style="fill: rgb(7, 255, 0);"/>
    <rect x="4.064" y="18.159" width="2.632" height="4.761" style="fill: rgb(7, 255, 0);"/>
    <rect x="2.249" y="20.034" width="2.451" height="6.274" style="fill: rgb(7, 255, 0);"/>
  </g>
  <g transform="matrix(1, 0, 0, 1, 66.67067, -9.97482)" style="">
    <rect x="2.128" y="15.679" width="2.632" height="2.644" style="fill: rgb(7, 255, 0);"/>
    <rect x="4.064" y="18.159" width="2.632" height="4.761" style="fill: rgb(7, 255, 0);"/>
    <rect x="2.249" y="20.034" width="2.451" height="6.274" style="fill: rgb(7, 255, 0);"/>
  </g>
  <g transform="matrix(1, 0, 0, 1, 80.054329, 7.932269)" style="">
    <rect x="2.128" y="15.679" width="2.632" height="2.644" style="fill: rgb(7, 255, 0);"/>
    <rect x="4.064" y="18.159" width="2.632" height="4.761" style="fill: rgb(7, 255, 0);"/>
    <rect x="2.249" y="20.034" width="2.451" height="6.274" style="fill: rgb(7, 255, 0);"/>
  </g>
</svg>