<?xml version="1.0" encoding="utf-8"?>
<svg xmlns="http://www.w3.org/2000/svg" viewBox="0 0 120 150" xmlns:bx="https://boxy-svg.com">
  <defs>
    <linearGradient gradientUnits="userSpaceOnUse" x1="56.573" y1="4.199" x2="56.573" y2="119.767" id="gradient-0" gradientTransform="matrix(1.020088, 0, 0, 1, -2.056607, -1)">
      <stop offset="0" style="stop-color: rgb(66.275% 9.8039% 9.8039%)"/>
      <stop offset="1" style="stop-color: rgb(46.944% 0% 0%)"/>
    </linearGradient>
    <linearGradient gradientUnits="userSpaceOnUse" x1="54.108" y1="95.363" x2="54.108" y2="148.069" id="gradient-2" gradientTransform="matrix(1.010929, 0.32716, -0.319645, 1.034695, 24.662106, -21.640668)">
      <stop offset="0" style="stop-color: rgb(100% 9.0196% 9.0196%)"/>
      <stop offset="1" style="stop-color: rgb(65.395% 0% 4.4475%)"/>
    </linearGradient>
    <linearGradient gradientUnits="userSpaceOnUse" x1="94.247" y1="95.54" x2="94.247" y2="148.246" id="gradient-1" gradientTransform="matrix(0.987958, 0.315907, -0.312382, 0.999108, 32.238974, -31.444258)">
      <stop offset="0" style="stop-color: rgb(100% 9.0196% 9.0196%)"/>
      <stop offset="1" style="stop-color: rgb(65.395% 0% 4.4475%)"/>
    </linearGradient>
    <filter id="warp-filter-0" bx:preset="warp 1 50 0.1" color-interpolation-filters="sRGB" x="-50%" y="-50%" width="200%" height="200%">
      <feComponentTransfer>
        <feFuncR type="table" tableValues="1 0.5"/>
      </feComponentTransfer>
      <feMerge result="a">
        <feMergeNode/>
        <feMergeNode in="SourceGraphic"/>
      </feMerge>
      <feTurbulence type="fractalNoise" baseFrequency="0.01" numOctaves="1" result="warp"/>
      <feDisplacementMap xChannelSelector="R" yChannelSelector="G" scale="50" in="a" in2="warp"/>
    </filter>
  </defs>
  <path d="M 48.931 -4.021 C 52.981 -6.299 59.158 -4.688 62.725 -0.425 L 86.227 27.675 C 86.939 28.527 87.493 29.42 87.891 30.32 C 91.012 32.559 91.798 36.962 89.526 40.988 L 72.152 71.778 C 69.516 76.449 63.757 78.846 59.29 77.129 C 54.823 75.412 53.341 70.233 55.975 65.56 L 72.261 36.698 C 72.017 36.45 71.781 36.192 71.556 35.922 L 48.053 7.823 C 44.488 3.558 44.88 -1.745 48.931 -4.021 Z" style="fill: rgb(66, 17, 17); stroke-width: 2px; stroke: rgb(179, 30, 30); filter: url(&quot;#warp-filter-0&quot;); transform-origin: 66.963px 36.08px;" transform="matrix(0.989913, 0.141678, -0.141678, 0.989913, 0, 0)"/>
  <path d="M 110.341 86.777 C 113.923 89.229 113.39 96.044 109.15 101.998 L 95.695 120.892 C 95.471 121.207 95.24 121.514 95.005 121.811 C 95.009 121.943 95.011 122.075 95.012 122.208 L 95.146 136.258 C 95.213 143.258 91.607 149.325 87.094 149.807 C 82.58 150.289 78.868 145.007 78.801 138.007 L 78.668 123.955 C 78.631 120.051 79.735 116.438 81.503 113.921 C 81.869 113.28 82.274 112.642 82.721 112.013 L 96.176 93.119 C 100.417 87.163 106.758 84.325 110.341 86.777 Z" style="fill: rgb(66, 17, 17); stroke-width: 2px; stroke: rgb(179, 30, 30); transform-origin: 94.372px 117.223px;" transform="matrix(0.656246, -0.754547, 0.754547, 0.656246, -0.000002, -0.000004)"/>
  <path d="M 55.1 84.068 C 58.682 86.52 58.148 93.335 53.909 99.289 L 40.454 118.183 C 40.229 118.498 39.999 118.805 39.763 119.102 C 39.767 119.234 39.769 119.366 39.771 119.499 L 39.904 133.549 C 39.971 140.549 36.365 146.616 31.852 147.098 C 27.339 147.58 23.627 142.298 23.559 135.298 L 23.427 121.246 C 23.389 117.342 24.493 113.729 26.261 111.212 C 26.627 110.571 27.032 109.933 27.48 109.304 L 40.935 90.41 C 45.175 84.454 51.516 81.616 55.1 84.068 Z" style="fill: rgb(66, 17, 17); stroke-width: 2px; stroke: rgb(179, 30, 30); transform-origin: 40.165px 114.514px;" transform="matrix(0.758575, -0.651585, 0.651585, 0.758575, -0.000001, -0.000001)"/>
  <rect x="2.665" y="13.385" width="15.968" height="39.846" rx="10" ry="10" style="fill: rgb(66, 17, 17); stroke-width: 2px; transform-origin: 10.65px 33.31px; stroke: rgb(179, 30, 30);" transform="matrix(0.979299, -0.202419, 0.210284, 0.977673, 97.697182, 60.157421)"/>
  <path d="M 5.681 29.173 L 46.358 4.68 C 51.158 1.789 57.44 3.261 60.389 7.967 L 72.579 27.423 C 74.458 30.421 74.531 34.007 73.095 36.963 C 72.989 37.541 72.831 38.119 72.616 38.689 L 59.678 72.931 L 95.154 73.173 C 100.787 73.211 105.988 77.724 106.769 83.252 L 110.389 108.827 C 111.171 114.355 107.239 118.805 101.605 118.767 L 43.657 118.373 C 38.024 118.335 32.823 113.822 32.041 108.294 L 28.422 82.719 C 27.754 78.01 30.511 74.083 34.824 73.046 C 34.87 72.031 35.073 71.005 35.452 70 L 39.603 59.015 L 28.55 65.671 C 23.749 68.561 17.467 67.09 14.519 62.384 L 2.328 42.928 C -0.62 38.221 0.88 32.063 5.681 29.173 Z" style="fill: url(&quot;#gradient-0&quot;); stroke-width: 2px; stroke: rgb(50, 2, 2);"/>
  <path d="M 42.906 92.8 C 47.235 94.202 49.243 100.201 47.39 106.2 L 41.509 125.236 C 41.41 125.554 41.303 125.865 41.188 126.169 C 41.241 126.283 41.292 126.396 41.342 126.51 L 46.659 138.632 C 49.31 144.673 48.104 150.641 43.968 151.963 C 39.833 153.286 34.333 149.464 31.683 143.424 L 26.365 131.3 C 24.887 127.933 24.608 124.587 25.369 122.056 C 25.482 121.428 25.633 120.795 25.828 120.162 L 31.709 101.125 C 33.563 95.125 38.575 91.398 42.906 92.8 Z" style="fill: url(&quot;#gradient-2&quot;); stroke-width: 2px; stroke: rgb(179, 30, 30); transform-origin: 39.385px 122px;" transform="matrix(0.824961, 0.565189, -0.565189, 0.824961, 0, -0.000001)"/>
  <g transform="matrix(0.235066, -0.992635, 0.973087, 0.230437, -0.982784, -6.999999)" style="transform-origin: 53.456px 110.788px;">
    <path d="M 53.125 116.819 C 52.611 116.819 52.113 116.751 51.639 116.623 C 51.574 115.642 51.539 114.593 51.539 113.503 L 51.539 111.084 C 51.539 108.737 51.701 106.579 51.973 104.873 C 52.345 104.797 52.731 104.757 53.125 104.757 C 53.839 104.757 54.522 104.888 55.155 105.128 C 55.402 106.792 55.549 108.853 55.549 111.084 L 55.549 113.503 C 55.549 114.48 55.521 115.425 55.468 116.318 C 54.751 116.64 53.958 116.819 53.125 116.819 Z" style="stroke: rgb(0, 0, 0); stroke-width: 1.98011px; fill: rgb(255, 92, 0);"/>
    <path d="M 53.037 116.637 C 52.523 116.637 52.025 116.569 51.551 116.441 C 51.486 115.46 51.451 114.411 51.451 113.321 L 51.451 110.902 C 51.451 108.555 51.613 106.397 51.885 104.691 C 52.257 104.615 52.643 104.575 53.037 104.575 C 53.751 104.575 54.434 104.706 55.067 104.946 C 55.314 106.61 55.461 108.671 55.461 110.902 L 55.461 113.321 C 55.461 114.298 55.433 115.243 55.38 116.136 C 54.663 116.458 53.87 116.637 53.037 116.637 Z" style="stroke: rgb(0, 0, 0); transform-box: fill-box; transform-origin: 50% 50%; stroke-width: 1.98011px; fill: rgb(255, 184, 0);" transform="matrix(0, 1, -1, 0, -0.00001, -0.000002)"/>
  </g>
  <path d="M 88.949 91.687 C 93.701 93.208 96.086 99.135 94.275 104.929 L 88.528 123.311 C 88.431 123.617 88.326 123.917 88.21 124.21 C 88.272 124.323 88.33 124.435 88.389 124.548 L 94.577 136.571 C 97.661 142.561 96.551 148.346 92.102 149.492 C 87.652 150.64 81.549 146.715 78.465 140.725 L 72.278 128.702 C 70.557 125.361 70.141 122.085 70.882 119.641 C 70.984 119.031 71.126 118.418 71.317 117.807 L 77.064 99.426 C 78.876 93.632 84.196 90.168 88.949 91.687 Z" style="fill: url(&quot;#gradient-1&quot;); stroke-width: 2px; stroke: rgb(179, 30, 30); transform-origin: 85.409px 120.114px;" transform="matrix(0.857893, 0.513829, -0.513829, 0.857893, 0.000001, 0)"/>
  <ellipse style="stroke-width: 2px; fill: rgb(255, 255, 255); stroke: rgb(179, 30, 30);" cx="47.026" cy="26.457" rx="12.32" ry="10.453"/>
  <ellipse style="stroke-width: 2px; fill: rgb(0, 103, 137); stroke: rgb(57, 255, 205);" cx="42.101" cy="25.364" rx="5.571" ry="5.089"/>
  <path d="M 50.409 27.008 L 71.328 27.008 C 73.581 27.008 75.408 27.942 75.408 29.094 C 75.408 30.246 73.581 31.18 71.328 31.18 L 57.845 31.18 C 57.851 31.267 57.854 31.355 57.854 31.444 L 57.854 37.35 C 57.854 39.559 56.027 41.35 53.774 41.35 L 32.855 41.35 C 30.602 41.35 28.775 39.559 28.775 37.35 L 28.775 33.985 L 8.587 27.192 L 10.341 21.977 L 29.996 28.591 C 30.732 27.882 31.741 27.444 32.855 27.444 L 47.911 27.444 C 48.602 27.171 49.468 27.008 50.409 27.008 Z" style="stroke-width: 2px; fill: rgb(9, 9, 9); stroke: rgb(17, 17, 17);"/>
  <ellipse style="stroke-width: 2px;" cx="16.805" cy="35.759" rx="1.862" ry="3.737"/>
  <ellipse style="stroke-width: 2px;" cx="3.64" cy="37.714" rx="1.862" ry="3.737"/>
  <rect x="31.726" y="29.17" width="3.881" height="8.758" style="fill: rgba(255, 255, 255, 0.37);" transform="matrix(-1, 0, -0.545198, 1, 103.84182, 0)"/>
  <rect x="37.205" y="29.17" width="3.881" height="8.758" style="fill: rgba(255, 255, 255, 0.37);" transform="matrix(-1, 0, -0.545198, 1, 103.84182, 0)"/>
  <ellipse style="stroke-width: 2px; fill: rgb(255, 255, 255);" cx="45.394" cy="21.76" rx="3.121" ry="3.146"/>
  <g transform="matrix(0.716319, 0.72627, -0.711968, 0.702212, 42.619026, -7.154658)" style="transform-origin: 53.456px 110.788px;">
    <path d="M 53.125 116.819 C 52.611 116.819 52.113 116.751 51.639 116.623 C 51.574 115.642 51.539 114.593 51.539 113.503 L 51.539 111.084 C 51.539 108.737 51.701 106.579 51.973 104.873 C 52.345 104.797 52.731 104.757 53.125 104.757 C 53.839 104.757 54.522 104.888 55.155 105.128 C 55.402 106.792 55.549 108.853 55.549 111.084 L 55.549 113.503 C 55.549 114.48 55.521 115.425 55.468 116.318 C 54.751 116.64 53.958 116.819 53.125 116.819 Z" style="stroke: rgb(0, 0, 0); stroke-width: 1.98011px; fill: rgb(255, 92, 0);"/>
    <path d="M 53.037 116.637 C 52.523 116.637 52.025 116.569 51.551 116.441 C 51.486 115.46 51.451 114.411 51.451 113.321 L 51.451 110.902 C 51.451 108.555 51.613 106.397 51.885 104.691 C 52.257 104.615 52.643 104.575 53.037 104.575 C 53.751 104.575 54.434 104.706 55.067 104.946 C 55.314 106.61 55.461 108.671 55.461 110.902 L 55.461 113.321 C 55.461 114.298 55.433 115.243 55.38 116.136 C 54.663 116.458 53.87 116.637 53.037 116.637 Z" style="stroke: rgb(0, 0, 0); transform-box: fill-box; transform-origin: 50% 50%; stroke-width: 1.98011px; fill: rgb(255, 184, 0);" transform="matrix(0, 1, -1, 0, -0.00001, -0.000002)"/>
  </g>
</svg>