<?xml version="1.0" encoding="utf-8"?>
<svg xmlns="http://www.w3.org/2000/svg" viewBox="0 0 85 85" width="85px" height="85px" xmlns:bx="https://boxy-svg.com">
  <defs>
    <radialGradient gradientUnits="userSpaceOnUse" cx="29.889" cy="45.931" r="29.248" id="gradient-3" gradientTransform="matrix(0.867176, 0, 0, 1, 8.010848, -2.458412)">
      <stop offset="0" style="stop-color: rgb(10.98% 49.412% 43.137%)"/>
      <stop offset="1" style="stop-color: rgb(0% 30.886% 25.532%)"/>
    </radialGradient>
    <radialGradient gradientUnits="userSpaceOnUse" cx="13.823" cy="66.784" r="5.427" id="gradient-1" gradientTransform="matrix(1, 0, 0, 0.762246, -2.817124, 13.446138)">
      <stop offset="0" style="stop-color: rgb(12.549% 45.098% 38.824%)"/>
      <stop offset="1" style="stop-color: rgb(0% 28.375% 22.947%)"/>
    </radialGradient>
    <radialGradient gradientUnits="userSpaceOnUse" cx="13.823" cy="66.784" r="5.427" id="gradient-2" gradientTransform="matrix(1.031155, 0, 0, 0.932501, 16.091143, 3.80646)">
      <stop offset="0" style="stop-color: rgb(12.549% 45.098% 38.824%)"/>
      <stop offset="1" style="stop-color: rgb(0% 28.375% 22.947%)"/>
    </radialGradient>
    <radialGradient gradientUnits="userSpaceOnUse" cx="23.504" cy="55.099" r="5.427" id="gradient-4" gradientTransform="matrix(1, 0, 0, 1, 1.273358, 9.608003)">
      <stop offset="0" style="stop-color: rgb(20.784% 69.02% 59.608%)"/>
      <stop offset="1" style="stop-color: rgb(0% 41.867% 34.086%)"/>
    </radialGradient>
    <radialGradient gradientUnits="userSpaceOnUse" cx="23.504" cy="55.099" r="5.427" id="gradient-5" gradientTransform="matrix(0.920895, 0, 0, 1.152511, 18.269386, -11.131908)">
      <stop offset="0" style="stop-color: rgb(20.784% 69.02% 59.608%)"/>
      <stop offset="1" style="stop-color: rgb(0% 41.867% 34.086%)"/>
    </radialGradient>
    <radialGradient gradientUnits="userSpaceOnUse" cx="126.467" cy="33.903" r="49.093" id="gradient-6" gradientTransform="matrix(0.540961, 0, 0, 0.5556, -42.453854, 6.814932)">
      <stop offset="0" style="stop-color: rgb(86.667% 8.2353% 10.98%)"/>
      <stop offset="1" style="stop-color: rgb(57.879% 0% 3.1121%)"/>
    </radialGradient>
    <radialGradient gradientUnits="userSpaceOnUse" cx="50.064" cy="26.034" r="26.558" id="gradient-0" gradientTransform="matrix(1, 0, 0, 1, -8.737876, 1.205612)">
      <stop offset="0" style="stop-color: rgb(27.059% 1.5686% 2.3529%)"/>
      <stop offset="1" style="stop-color: rgb(19.848% 2.1825% 0%)"/>
    </radialGradient>
  </defs>
  <path d="M 41.969 45.941 C 41.969 48.093 41.777 50.103 41.445 51.809 C 42.331 53.331 43.166 55.348 43.811 57.668 C 45.417 63.435 45.243 68.882 43.423 69.833 C 41.603 70.782 38.827 66.878 37.221 61.111 C 36.554 58.713 36.194 56.372 36.131 54.386 C 35.386 52.337 34.916 49.314 34.916 45.941 C 34.916 39.77 36.493 34.765 38.443 34.765 C 40.389 34.765 41.969 39.77 41.969 45.941 Z" style="stroke: rgb(0, 0, 0); fill: url(&quot;#gradient-5&quot;); transform-origin: 39.913px 52.37px;" transform="matrix(0.958345, -0.285613, 0.285613, 0.958345, 0, 0)"/>
  <path d="M 15.37 19.471 C 15.37 16.521 22.027 14.13 30.239 14.13 C 37.24 14.13 43.111 15.868 44.69 18.21 C 57.627 18.517 67.883 22.857 67.883 28.165 C 67.883 33.674 56.839 38.14 43.216 38.14 C 42.862 38.14 42.51 38.138 42.159 38.131 C 39.459 39.47 34.915 40.348 29.766 40.348 C 21.483 40.348 14.768 38.076 14.768 35.272 C 14.768 33.744 16.761 32.376 19.913 31.445 C 19.03 30.418 18.55 29.314 18.55 28.165 C 18.55 26.56 19.488 25.043 21.155 23.699 C 17.636 22.723 15.37 21.192 15.37 19.471 Z" style="stroke: rgb(0, 0, 0); fill: url(&quot;#gradient-0&quot;); transform-origin: 41.326px 27.239px;" transform="matrix(0.361966, 0.932191, -0.932191, 0.361966, -0.000002, 0.000001)"/>
  <path d="M 27.009 59.129 C 27.009 60.996 26.801 62.74 26.44 64.22 C 27.402 65.541 28.309 67.291 29.01 69.304 C 30.753 74.308 30.565 79.034 28.588 79.859 C 26.612 80.683 23.597 77.295 21.854 72.291 C 21.129 70.211 20.738 68.179 20.671 66.456 C 19.861 64.678 19.35 62.055 19.35 59.129 C 19.35 53.774 21.064 49.432 23.18 49.432 C 25.295 49.432 27.009 53.774 27.009 59.129 Z" style="stroke: rgb(0, 0, 0); fill: url(&quot;#gradient-4&quot;); transform-origin: 24.777px 64.707px;" transform="matrix(0.992925, 0.118745, -0.118745, 0.992925, 0, 0)"/>
  <path d="M 59.293 39.938 C 59.293 48.502 50.664 55.445 40.02 55.445 C 39.041 55.445 38.077 55.386 37.137 55.273 C 35.118 57.316 32.728 59.071 30.059 60.364 C 20.525 64.975 11.096 61.924 8.987 53.55 C 6.879 45.175 12.892 34.648 22.426 30.037 C 24.039 29.255 25.653 28.693 27.229 28.341 C 30.633 25.909 35.113 24.432 40.02 24.432 C 50.664 24.432 59.293 31.375 59.293 39.938 Z" style="stroke: rgb(0, 0, 0); fill: url(&quot;#gradient-3&quot;);"/>
  <path d="M 0.004 17.883 C 0.004 14.933 6.661 12.542 14.873 12.542 C 21.874 12.542 27.745 14.28 29.324 16.622 C 42.261 16.929 52.517 21.269 52.517 26.577 C 52.517 32.086 41.473 36.552 27.85 36.552 C 27.496 36.552 27.144 36.55 26.793 36.543 C 24.093 37.882 19.549 38.76 14.4 38.76 C 6.117 38.76 -0.598 36.488 -0.598 33.684 C -0.598 32.156 1.395 30.788 4.547 29.857 C 3.664 28.83 3.184 27.726 3.184 26.577 C 3.184 24.972 4.122 23.455 5.789 22.111 C 2.27 21.135 0.004 19.604 0.004 17.883 Z" style="stroke: rgb(0, 0, 0); fill: url(&quot;#gradient-6&quot;); transform-box: fill-box; transform-origin: 50% 50%;" transform="matrix(0.717625, 0.69643, -0.69643, 0.717625, -0.000001, 0)"/>
  <ellipse style="stroke: rgb(0, 0, 0); fill: rgb(51, 133, 121);" cx="58.637" cy="38.222" rx="25.817" ry="26.858"/>
  <ellipse style="fill: rgb(110, 208, 194);" cx="61.225" cy="35.278" rx="21.787" ry="22.577"/>
  <g transform="matrix(1, 0, 0, -1, -3, 54.014)" style="">
    <ellipse style="stroke: rgb(0, 0, 0);" cx="54.224" cy="27.507" rx="5.492" ry="9.857"/>
    <ellipse style="stroke: rgb(0, 0, 0);" cx="70.478" cy="27.507" rx="5.352" ry="9.857"/>
    <ellipse style="stroke: rgb(0, 0, 0); fill: rgb(255, 0, 0);" cx="54.232" cy="24.161" rx="4.91" ry="6.15"/>
    <ellipse style="stroke: rgb(0, 0, 0); fill: rgb(0, 255, 156);" cx="70.376" cy="30.438" rx="4.798" ry="6.862"/>
    <ellipse style="" cx="54.407" cy="29.37" rx="1.988" ry="2.842"/>
    <ellipse style="" cx="70.52" cy="24.214" rx="1.988" ry="2.842"/>
  </g>
  <path style="fill: rgb(216, 216, 216); stroke: rgb(0, 0, 0); stroke-width: 2.79688px; transform-box: fill-box; transform-origin: 50% 50%;" transform="matrix(0, 0.370799, -0.274331, 0, -869.832893, -157.104981)" d="M 878.329 129.127 A 83 83 0 1 1 878.329 290.873 A 88.98 88.98 0 0 0 878.329 129.127 Z" bx:shape="crescent 897 210 83 206 0.7 1@14211c0e"/>
  <path style="stroke: rgb(0, 0, 0); fill: rgb(59, 6, 6); transform-origin: 929.164px 210px;" transform="matrix(0, 0.307303, -0.274331, 0, -869.832277, -160.168306)" d="M 878.329 129.127 A 83 83 0 1 1 878.329 290.873 A 80.916 80.916 0 0 0 878.329 129.127 Z" bx:shape="crescent 897 210 83 206 0.859 1@b96f7735"/>
  <path style="fill: rgb(216, 216, 216); stroke: rgb(0, 0, 0); stroke-width: 0.5px;" d="M 59.221 53.178 L 59.159 58.172"/>
  <path style="fill: rgb(216, 216, 216); stroke: rgb(0, 0, 0); stroke-width: 0.5px;" d="M 59.244 65.486 L 59.12 71.254"/>
  <path style="fill: rgb(216, 216, 216); stroke: rgb(0, 0, 0); stroke-width: 0.5px; transform-box: fill-box; transform-origin: 50% 50%;" d="M 67.609 56.446 L 65.759 52.285" transform="matrix(-1, 0, 0, -1, -0.00002, 0.000002)"/>
  <path style="fill: rgb(216, 216, 216); stroke: rgb(0, 0, 0); stroke-width: 0.5px; transform-origin: 51.327px 53.889px;" d="M 52.251 51.808 L 50.401 55.97"/>
  <path style="fill: rgb(216, 216, 216); stroke: rgb(0, 0, 0); stroke-width: 0.5px; transform-origin: 64.405px 37.118px;" d="M 51.078 63.877 L 51.693 69.638"/>
  <path style="fill: rgb(216, 216, 216); stroke: rgb(0, 0, 0); stroke-width: 0.5px; transform-origin: 76.7px 37.211px;" d="M 68.047 63.663 L 67.053 70.087"/>
  <path style="fill: rgb(216, 216, 216); stroke: rgb(0, 0, 0); stroke-width: 0.5px; transform-origin: 46.616px 51.031px;" d="M 47.54 49.109 L 45.69 52.953"/>
  <path style="fill: rgb(216, 216, 216); stroke: rgb(0, 0, 0); stroke-width: 0.5px; transform-origin: 42.234px 46.48px;" d="M 43.048 44.665 L 41.417 48.296"/>
  <path style="fill: rgb(216, 216, 216); stroke: rgb(0, 0, 0); stroke-width: 0.5px; transform-origin: 38.947px 40.579px;" d="M 39.432 39.055 L 38.459 42.105"/>
  <path style="fill: rgb(216, 216, 216); stroke: rgb(0, 0, 0); stroke-width: 0.5px; transform-origin: 73.573px 49.958px;" d="M 74.468 51.664 L 72.677 48.252" transform="matrix(-1, 0, 0, -1, 0.000011, 0)"/>
  <path style="fill: rgb(216, 216, 216); stroke: rgb(0, 0, 0); stroke-width: 0.5px; transform-origin: 83.979px 20.241px;" d="M 76.15 44.029 L 78.093 46.607"/>
  <path style="fill: rgb(216, 216, 216); stroke: rgb(0, 0, 0); stroke-width: 0.5px; transform-origin: 86.257px 15.97px;" d="M 79.37 39.189 L 80.862 40.597"/>
  <path style="fill: rgb(216, 216, 216); stroke: rgb(0, 0, 0); stroke-width: 0.5px; transform-origin: 60.693px 34.729px;" d="M 46.197 60.842 L 46.813 66.603"/>
  <path style="fill: rgb(216, 216, 216); stroke: rgb(0, 0, 0); stroke-width: 0.5px; transform-origin: 57.323px 30.889px;" d="M 41.766 55.964 L 42.382 61.726"/>
  <path style="fill: rgb(216, 216, 216); stroke: rgb(0, 0, 0); stroke-width: 0.5px; transform-origin: 81.559px 33.567px;" d="M 74.633 59.068 L 73.245 65.424"/>
  <path style="fill: rgb(216, 216, 216); stroke: rgb(0, 0, 0); stroke-width: 0.5px; transform-origin: 84.807px 28.76px;" d="M 78.799 53.23 L 77.62 59.049"/>
  <path d="M 13.238 60.1 C 13.238 61.523 13.03 62.852 12.669 63.98 C 13.631 64.987 14.538 66.321 15.239 67.856 C 16.982 71.67 16.794 75.272 14.817 75.901 C 12.841 76.529 9.826 73.947 8.083 70.133 C 7.358 68.547 6.967 66.998 6.9 65.685 C 6.09 64.33 5.579 62.33 5.579 60.1 C 5.579 56.018 7.293 52.708 9.409 52.708 C 11.524 52.708 13.238 56.018 13.238 60.1 Z" style="stroke: rgb(0, 0, 0); fill: url(&quot;#gradient-1&quot;); transform-box: fill-box; transform-origin: 50% 50%;" transform="matrix(0.999348, 0.036105, -0.036105, 0.999348, 0, 0)"/>
  <path d="M 32.646 60.881 C 32.646 62.622 32.432 64.248 32.06 65.628 C 33.052 66.86 33.987 68.492 34.71 70.369 C 36.507 75.035 36.313 79.442 34.275 80.212 C 32.237 80.98 29.128 77.821 27.331 73.154 C 26.583 71.215 26.18 69.32 26.111 67.713 C 25.276 66.056 24.749 63.609 24.749 60.881 C 24.749 55.888 26.515 51.838 28.698 51.838 C 30.879 51.838 32.646 55.888 32.646 60.881 Z" style="stroke: rgb(0, 0, 0); fill: url(&quot;#gradient-2&quot;); transform-origin: 30.345px 66.083px;" transform="matrix(0.991748, -0.128205, 0.128205, 0.991748, 0, 0)"/>
</svg>