<?xml version="1.0" encoding="utf-8"?>
<svg xmlns="http://www.w3.org/2000/svg" viewBox="0 0 85 85" width="85px" height="85px" xmlns:bx="https://boxy-svg.com">
  <defs>
    <radialGradient gradientUnits="userSpaceOnUse" cx="29.889" cy="45.931" r="29.248" id="gradient-3" gradientTransform="matrix(0.940509, 0, 0, 1, 3.67417, -2.458412)">
      <stop offset="0" style="stop-color: rgb(10.98% 49.412% 43.137%)"/>
      <stop offset="1" style="stop-color: rgb(0% 30.886% 25.532%)"/>
    </radialGradient>
    <radialGradient gradientUnits="userSpaceOnUse" cx="13.823" cy="66.784" r="5.427" id="gradient-1" gradientTransform="matrix(1, 0, 0, 1, -2.94826, 1.19739)">
      <stop offset="0" style="stop-color: rgb(12.549% 45.098% 38.824%)"/>
      <stop offset="1" style="stop-color: rgb(0% 28.375% 22.947%)"/>
    </radialGradient>
    <radialGradient gradientUnits="userSpaceOnUse" cx="13.823" cy="66.784" r="5.427" id="gradient-2" gradientTransform="matrix(1.031155, 0, 0, 1.071089, 16.362481, -3.349479)">
      <stop offset="0" style="stop-color: rgb(12.549% 45.098% 38.824%)"/>
      <stop offset="1" style="stop-color: rgb(0% 28.375% 22.947%)"/>
    </radialGradient>
    <radialGradient gradientUnits="userSpaceOnUse" cx="23.504" cy="55.099" r="5.427" id="gradient-4" gradientTransform="matrix(1, 0, 0, 1, -0.950932, 1.664109)">
      <stop offset="0" style="stop-color: rgb(20.784% 69.02% 59.608%)"/>
      <stop offset="1" style="stop-color: rgb(0% 41.867% 34.086%)"/>
    </radialGradient>
    <radialGradient gradientUnits="userSpaceOnUse" cx="23.504" cy="55.099" r="5.427" id="gradient-5" gradientTransform="matrix(0.920895, 0, 0, 1.152511, 21.287975, -3.823598)">
      <stop offset="0" style="stop-color: rgb(20.784% 69.02% 59.608%)"/>
      <stop offset="1" style="stop-color: rgb(0% 41.867% 34.086%)"/>
    </radialGradient>
    <radialGradient gradientUnits="userSpaceOnUse" cx="126.467" cy="33.903" r="49.093" id="gradient-6" gradientTransform="matrix(0.540961, 0, 0, 0.5556, -39.68733, 11.721645)">
      <stop offset="0" style="stop-color: rgb(86.667% 8.2353% 10.98%)"/>
      <stop offset="1" style="stop-color: rgb(57.879% 0% 3.1121%)"/>
    </radialGradient>
    <radialGradient gradientUnits="userSpaceOnUse" cx="50.064" cy="26.034" r="26.558" id="gradient-0" gradientTransform="matrix(0.999999, 0, 0, 0.999999, -9.849836, 5.476802)">
      <stop offset="0" style="stop-color: rgb(27.059% 1.5686% 2.3529%)"/>
      <stop offset="1" style="stop-color: rgb(19.848% 2.1825% 0%)"/>
    </radialGradient>
  </defs>
  <path d="M 44.988 53.249 C 44.988 55.401 44.796 57.411 44.464 59.117 C 45.35 60.639 46.185 62.656 46.83 64.976 C 48.436 70.743 48.262 76.19 46.442 77.141 C 44.622 78.09 41.846 74.186 40.24 68.419 C 39.573 66.021 39.213 63.68 39.15 61.694 C 38.405 59.645 37.935 56.622 37.935 53.249 C 37.935 47.078 39.512 42.073 41.462 42.073 C 43.408 42.073 44.988 47.078 44.988 53.249 Z" style="stroke: rgb(0, 0, 0); fill: url(&quot;#gradient-5&quot;); transform-origin: 42.932px 59.678px;" transform="matrix(0.958345, -0.285613, 0.285613, 0.958345, 0.000001, 0)"/>
  <path d="M 14.258 23.742 C 14.258 20.792 20.915 18.401 29.127 18.401 C 36.128 18.401 41.999 20.139 43.578 22.481 C 56.515 22.788 66.771 27.128 66.771 32.436 C 66.771 37.945 55.727 42.411 42.104 42.411 C 41.75 42.411 41.398 42.409 41.047 42.402 C 38.347 43.741 33.803 44.619 28.654 44.619 C 20.371 44.619 13.656 42.347 13.656 39.543 C 13.656 38.015 15.649 36.647 18.801 35.716 C 17.918 34.689 17.438 33.585 17.438 32.436 C 17.438 30.831 18.376 29.314 20.043 27.97 C 16.524 26.994 14.258 25.463 14.258 23.742 Z" style="stroke: rgb(0, 0, 0); fill: url(&quot;#gradient-0&quot;); transform-origin: 40.214px 31.51px;" transform="matrix(0.896178, 0.443695, -0.443695, 0.896178, -0.000001, 0.000001)"/>
  <path d="M 24.785 51.185 C 24.785 53.052 24.577 54.796 24.216 56.276 C 25.178 57.597 26.085 59.347 26.786 61.36 C 28.529 66.364 28.341 71.09 26.364 71.915 C 24.388 72.739 21.373 69.351 19.63 64.347 C 18.905 62.267 18.514 60.235 18.447 58.512 C 17.637 56.734 17.126 54.111 17.126 51.185 C 17.126 45.83 18.84 41.488 20.956 41.488 C 23.071 41.488 24.785 45.83 24.785 51.185 Z" style="stroke: rgb(0, 0, 0); fill: url(&quot;#gradient-4&quot;); transform-origin: 22.553px 56.763px;" transform="matrix(0.992925, 0.118745, -0.118745, 0.992925, 0, 0)"/>
  <path d="M 59.293 39.938 C 59.293 48.502 49.934 55.445 38.39 55.445 C 37.328 55.445 36.283 55.386 35.263 55.273 C 33.074 57.316 30.482 59.071 27.587 60.364 C 17.247 64.975 7.02 61.924 4.733 53.55 C 2.447 45.175 8.968 34.648 19.308 30.037 C 21.058 29.255 22.808 28.693 24.518 28.341 C 28.209 25.909 33.068 24.432 38.39 24.432 C 49.934 24.432 59.293 31.375 59.293 39.938 Z" style="stroke: rgb(0, 0, 0); fill: url(&quot;#gradient-3&quot;);"/>
  <path d="M 2.771 22.789 C 2.771 19.839 9.428 17.448 17.64 17.448 C 24.641 17.448 30.512 19.186 32.091 21.528 C 45.028 21.835 55.284 26.175 55.284 31.483 C 55.284 36.992 44.24 41.458 30.617 41.458 C 30.263 41.458 29.911 41.456 29.56 41.449 C 26.86 42.788 22.316 43.666 17.167 43.666 C 8.884 43.666 2.169 41.394 2.169 38.59 C 2.169 37.062 4.162 35.694 7.314 34.763 C 6.431 33.736 5.951 32.632 5.951 31.483 C 5.951 29.878 6.889 28.361 8.556 27.017 C 5.037 26.041 2.771 24.51 2.771 22.789 Z" style="stroke: rgb(0, 0, 0); fill: url(&quot;#gradient-6&quot;); transform-box: fill-box; transform-origin: 50% 50%;" transform="matrix(0.989472, 0.144723, -0.144723, 0.989472, 0, 0)"/>
  <ellipse style="stroke: rgb(0, 0, 0); fill: rgb(51, 133, 121);" cx="58.637" cy="38.222" rx="25.817" ry="26.858"/>
  <ellipse style="fill: rgb(110, 208, 194);" cx="61.225" cy="35.278" rx="21.787" ry="22.577"/>
  <g transform="matrix(1, 0, 0, 1, -3, -1)">
    <ellipse style="stroke: rgb(0, 0, 0);" cx="54.224" cy="27.507" rx="5.492" ry="9.857"/>
    <ellipse style="stroke: rgb(0, 0, 0);" cx="70.478" cy="27.507" rx="5.352" ry="9.857"/>
    <ellipse style="stroke: rgb(0, 0, 0); fill: rgb(255, 0, 0);" cx="54.232" cy="24.161" rx="4.91" ry="6.15"/>
    <ellipse style="stroke: rgb(0, 0, 0); fill: rgb(0, 255, 156);" cx="70.376" cy="30.438" rx="4.798" ry="6.862"/>
    <ellipse style="" cx="54.407" cy="29.37" rx="1.988" ry="2.842"/>
    <ellipse style="" cx="70.52" cy="24.214" rx="1.988" ry="2.842"/>
  </g>
  <g transform="matrix(1.069467, 0, 0, 1.438074, -5.542229, -22.039333)" style="">
    <g transform="matrix(1.229424, 0, 0, 0.883292, -80.354874, 25.979099)" style="">
      <path style="fill: rgb(216, 216, 216); stroke: rgb(0, 0, 0); stroke-width: 2.79688px; transform-box: fill-box; transform-origin: 50% 50%;" transform="matrix(0, 0.291913, -0.208644, 0, -814.706117, -183.803832)" d="M 878.329 129.127 A 83 83 0 1 1 878.329 290.873 A 88.98 88.98 0 0 0 878.329 129.127 Z" bx:shape="crescent 897 210 83 206 0.7 1@14211c0e"/>
      <path style="stroke: rgb(0, 0, 0); fill: rgb(59, 6, 6); transform-origin: 929.164px 210px;" transform="matrix(0, 0.241925, -0.208644, 0, -814.705688, -186.215804)" d="M 878.329 129.127 A 83 83 0 1 1 878.329 290.873 A 80.916 80.916 0 0 0 878.329 129.127 Z" bx:shape="crescent 897 210 83 206 0.859 1@b96f7735"/>
      <path style="fill: rgb(216, 216, 216); stroke: rgb(0, 0, 0); stroke-width: 0.5px;" d="M 114.374 26.419 L 114.327 30.351"/>
      <path style="fill: rgb(216, 216, 216); stroke: rgb(0, 0, 0); stroke-width: 0.5px;" d="M 114.391 36.109 L 114.297 40.65"/>
      <path style="fill: rgb(216, 216, 216); stroke: rgb(0, 0, 0); stroke-width: 0.5px; transform-box: fill-box; transform-origin: 50% 50%;" d="M 120.753 28.992 L 119.346 25.716" transform="matrix(-1, 0, 0, -1, -0.000002, 0.000004)"/>
      <path style="fill: rgb(216, 216, 216); stroke: rgb(0, 0, 0); stroke-width: 0.5px; transform-origin: 108.37px 26.979px;" d="M 109.073 25.341 L 107.666 28.617"/>
      <path style="fill: rgb(216, 216, 216); stroke: rgb(0, 0, 0); stroke-width: 0.5px; transform-origin: 108.414px 37.109px;" d="M 109.117 39.277 L 107.71 34.94" transform="matrix(-0.977858, -0.209271, 0.209271, -0.977858, -0.000002, -0.000007)"/>
      <path style="fill: rgb(216, 216, 216); stroke: rgb(0, 0, 0); stroke-width: 0.5px; transform-origin: 120.709px 37.202px;" d="M 121.412 34.744 L 120.005 39.66" transform="matrix(0.991501, -0.130096, 0.130096, 0.991501, 0, 0)"/>
      <path style="fill: rgb(216, 216, 216); stroke: rgb(0, 0, 0); stroke-width: 0.5px; transform-origin: 104.787px 24.729px;" d="M 105.49 23.216 L 104.083 26.242"/>
      <path style="fill: rgb(216, 216, 216); stroke: rgb(0, 0, 0); stroke-width: 0.5px; transform-origin: 101.454px 21.146px;" d="M 102.073 19.717 L 100.833 22.576"/>
      <path style="fill: rgb(216, 216, 216); stroke: rgb(0, 0, 0); stroke-width: 0.5px; transform-origin: 98.954px 16.501px;" d="M 99.323 15.301 L 98.583 17.702"/>
      <path style="fill: rgb(216, 216, 216); stroke: rgb(0, 0, 0); stroke-width: 0.5px; transform-origin: 125.289px 23.884px;" d="M 125.97 25.227 L 124.608 22.541" transform="matrix(-1, 0, 0, -1, 0.000007, -0.000004)"/>
      <path style="fill: rgb(216, 216, 216); stroke: rgb(0, 0, 0); stroke-width: 0.5px; transform-origin: 127.988px 20.232px;" d="M 128.502 21.378 L 127.474 19.087" transform="matrix(-0.978559, 0.205966, -0.205966, -0.978559, 0.000001, -0.000001)"/>
      <path style="fill: rgb(216, 216, 216); stroke: rgb(0, 0, 0); stroke-width: 0.5px; transform-origin: 130.266px 15.961px;" d="M 130.707 16.621 L 129.825 15.302" transform="matrix(-0.978559, 0.205966, -0.205966, -0.978559, -0.000008, -0.000001)"/>
      <path style="fill: rgb(216, 216, 216); stroke: rgb(0, 0, 0); stroke-width: 0.5px; transform-origin: 104.702px 34.72px;" d="M 105.405 36.888 L 103.998 32.551" transform="matrix(-0.977858, -0.209271, 0.209271, -0.977858, 0.000002, -0.000005)"/>
      <path style="fill: rgb(216, 216, 216); stroke: rgb(0, 0, 0); stroke-width: 0.5px; transform-origin: 101.332px 30.88px;" d="M 102.035 33.048 L 100.628 28.711" transform="matrix(-0.977858, -0.209271, 0.209271, -0.977858, -0.000012, 0.000002)"/>
      <path style="fill: rgb(216, 216, 216); stroke: rgb(0, 0, 0); stroke-width: 0.5px; transform-origin: 125.568px 33.558px;" d="M 126.271 31.1 L 124.864 36.016" transform="matrix(0.997495, -0.070733, 0.070733, 0.997495, 0, 0)"/>
      <path style="fill: rgb(216, 216, 216); stroke: rgb(0, 0, 0); stroke-width: 0.5px; transform-origin: 128.816px 28.751px;" d="M 129.425 26.498 L 128.206 31.004" transform="matrix(0.997495, -0.070733, 0.070733, 0.997495, 0, 0.000001)"/>
      <path d="M 121.758 34.876 C 121.758 34.945 121.757 35.013 121.754 35.082 C 119.943 33.786 117.336 32.973 114.439 32.973 C 111.718 32.973 109.254 33.69 107.464 34.85 C 107.48 31.29 110.674 28.408 114.611 28.408 C 118.558 28.408 121.758 31.304 121.758 34.876 Z" style="fill: rgb(195, 53, 53); transform-origin: 114.611px 31.745px;" transform="matrix(-0.999741, 0.022753, -0.022753, -0.999741, 0.000012, 0.000003)"/>
    </g>
  </g>
  <path d="M 13.107 62.403 C 13.107 64.27 12.899 66.014 12.538 67.494 C 13.5 68.815 14.407 70.565 15.108 72.578 C 16.851 77.582 16.663 82.308 14.686 83.133 C 12.71 83.957 9.695 80.569 7.952 75.565 C 7.227 73.485 6.836 71.453 6.769 69.73 C 5.959 67.952 5.448 65.329 5.448 62.403 C 5.448 57.048 7.162 52.706 9.278 52.706 C 11.393 52.706 13.107 57.048 13.107 62.403 Z" style="stroke: rgb(0, 0, 0); fill: url(&quot;#gradient-1&quot;); transform-box: fill-box; transform-origin: 50% 50%;" transform="matrix(0.999348, 0.036105, -0.036105, 0.999348, 0, 0)"/>
  <path d="M 32.917 62.207 C 32.917 64.207 32.703 66.075 32.331 67.66 C 33.323 69.075 34.258 70.95 34.981 73.106 C 36.778 78.465 36.584 83.527 34.546 84.411 C 32.508 85.294 29.399 81.665 27.602 76.305 C 26.854 74.077 26.451 71.901 26.382 70.055 C 25.547 68.151 25.02 65.341 25.02 62.207 C 25.02 56.472 26.786 51.821 28.969 51.821 C 31.15 51.821 32.917 56.472 32.917 62.207 Z" style="stroke: rgb(0, 0, 0); fill: url(&quot;#gradient-2&quot;); transform-origin: 30.616px 68.182px;" transform="matrix(0.991748, -0.128205, 0.128205, 0.991748, 0, 0)"/>
</svg>