<?xml version="1.0" encoding="UTF-8" standalone="no"?>
<!-- Created with Inkscape (http://www.inkscape.org/) -->

<svg
   width="100"
   height="100"
   viewBox="0 0 26.458333 26.458333"
   version="1.1"
   id="svg3527"
   inkscape:version="1.4.2 (ebf0e940d0, 2025-05-08)"
   sodipodi:docname="enemy_1.svg"
   xmlns:inkscape="http://www.inkscape.org/namespaces/inkscape"
   xmlns:sodipodi="http://sodipodi.sourceforge.net/DTD/sodipodi-0.dtd"
   xmlns="http://www.w3.org/2000/svg"
   xmlns:svg="http://www.w3.org/2000/svg">
  <sodipodi:namedview
     id="namedview3529"
     pagecolor="#505050"
     bordercolor="#ffffff"
     borderopacity="1"
     inkscape:pageshadow="0"
     inkscape:pageopacity="0"
     inkscape:pagecheckerboard="1"
     inkscape:document-units="mm"
     showgrid="false"
     width="100mm"
     inkscape:zoom="3.4422558"
     inkscape:cx="109.95697"
     inkscape:cy="41.106765"
     inkscape:window-width="1366"
     inkscape:window-height="697"
     inkscape:window-x="0"
     inkscape:window-y="0"
     inkscape:window-maximized="1"
     inkscape:current-layer="layer1"
     inkscape:snap-global="false"
     inkscape:showpageshadow="0"
     inkscape:deskcolor="#505050"
     inkscape:lockguides="true" />
  <defs
     id="defs3524" />
  <g
     inkscape:label="Camada 1"
     inkscape:groupmode="layer"
     id="layer1"
     transform="translate(0.05435063)">
    <rect
       style="fill:#21003b;fill-opacity:1;stroke:#0f0016;stroke-width:0.545248;stroke-opacity:1"
       id="rect2199"
       width="2.9730489"
       height="6.4997048"
       x="8.4619312"
       y="19.674442"
       ry="1.1436934" />
    <path
       id="rect9714"
       style="fill:#21003b;fill-opacity:1;stroke:#0f0016;stroke-width:0.736969;stroke-miterlimit:4;stroke-dasharray:none;stroke-opacity:1"
       d="m 7.6137703,12.412313 c -0.406558,0.0433 -0.753736,0.216884 -0.880872,0.472194 l -1.751233,3.516862 c -0.02968,0.0596 -0.04557,0.120198 -0.04869,0.179981 -0.0567,0.07852 -0.09329,0.162471 -0.103663,0.249883 l -0.44132,3.716777 c -0.04658,0.392387 0.439446,0.693134 1.089169,0.674717 l 0.49159,-0.01332 c 0.649723,-0.01841 1.210134,-0.349747 1.256717,-0.742135 l 0.405736,-3.417933 c 0.02666,-0.03299 0.04932,-0.06739 0.06748,-0.103862 l 1.7520285,-3.51761 C 9.6356348,13.056511 9.2830253,12.657359 8.6608063,12.532899 l -0.470973,-0.09444 c -0.194446,-0.0389 -0.391257,-0.04578 -0.57606,-0.02613 z" />
    <path
       id="path11551"
       style="fill:#21003b;fill-opacity:1;stroke:#0f0016;stroke-width:0.728343;stroke-miterlimit:4;stroke-dasharray:none;stroke-opacity:1"
       d="m 23.224494,13.509848 c -0.118741,0.407513 -0.358479,0.727999 -0.640029,0.806881 l -3.878288,1.08655 c -0.06572,0.01842 -0.129911,0.02251 -0.190914,0.01373 -0.08986,0.04228 -0.181458,0.06287 -0.271725,0.05594 l -3.838337,-0.294472 c -0.405221,-0.03109 -0.619405,-0.588985 -0.480749,-1.250358 l 0.104285,-0.500531 c 0.138652,-0.661374 0.577097,-1.168506 0.982318,-1.13741 l 3.5297,0.27087 c 0.03827,-0.02066 0.07722,-0.03694 0.117463,-0.0482 l 3.879185,-1.087217 c 0.409523,-0.114732 0.74783,0.326334 0.758665,0.988245 l 0.0084,0.501061 c 0.0034,0.206848 -0.02602,0.409687 -0.08002,0.594914 z" />
    <rect
       style="fill:#21003b;fill-opacity:1;stroke:#0f0016;stroke-width:0.549252;stroke-opacity:1"
       id="rect1"
       width="2.9690452"
       height="6.6044025"
       x="12.322825"
       y="19.473381"
       ry="1.1621161" />
    <path
       id="rect9738"
       style="fill:#1a1a1a;fill-opacity:1;stroke:#000000;stroke-width:0.526931;stroke-miterlimit:4;stroke-dasharray:none;stroke-opacity:1"
       d="m 8.4129043,12.300686 -0.489231,11.379227 2.1448287,-1.255084 1.700856,0.6947 1.997406,-1.292557 1.767231,1.392901 -0.434872,-10.919187 z"
       sodipodi:nodetypes="cccccccc" />
    <ellipse
       style="fill:#21003b;fill-opacity:1;stroke:#0f0016;stroke-width:0.309234;stroke-miterlimit:4;stroke-dasharray:none;stroke-opacity:1"
       id="path11105"
       cx="11.788835"
       cy="12.475569"
       rx="2.3867757"
       ry="2.1036232" />
    <ellipse
       style="fill:#5100a7;fill-opacity:1;stroke:none;stroke-width:0.244504;stroke-miterlimit:4;stroke-dasharray:none;stroke-opacity:1"
       id="ellipse2"
       cx="12.211584"
       cy="12.091249"
       rx="1.9189181"
       ry="1.6357657" />
    <ellipse
       style="fill:#21003b;fill-opacity:1;stroke:#0f0016;stroke-width:0.687415;stroke-miterlimit:4;stroke-dasharray:none;stroke-opacity:1"
       id="path9279"
       cx="12.091444"
       cy="6.3954391"
       rx="5.8566198"
       ry="6.0364766" />
    <ellipse
       style="fill:#5100a7;fill-opacity:1;stroke:none;stroke-width:0.275613;stroke-miterlimit:4;stroke-dasharray:none;stroke-opacity:1"
       id="ellipse9379"
       cx="12.727649"
       cy="5.8145142"
       rx="4.5802035"
       ry="4.6339922" />
    <path
       id="path9421"
       style="fill:#ffffff;fill-opacity:1;stroke:none;stroke-width:0.374045;stroke-miterlimit:4;stroke-dasharray:none;stroke-opacity:1"
       d="M 9.2982308,4.5903415 A 1.7275637,2.3700898 0 0 0 9.0088428,5.9034397 1.7275637,2.3700898 0 0 0 9.459978,7.5002414 h 2.552816 A 1.7275637,2.3700898 0 0 0 12.463929,5.9034397 1.7275637,2.3700898 0 0 0 12.174541,4.5903415 Z" />
    <path
       id="path1"
       style="fill:#ffffff;fill-opacity:1;stroke:none;stroke-width:0.374045;stroke-miterlimit:4;stroke-dasharray:none;stroke-opacity:1"
       d="m 13.360187,4.4816403 a 1.7275637,2.3700898 0 0 0 -0.289388,1.3130982 1.7275637,2.3700898 0 0 0 0.451135,1.5968017 H 16.07475 A 1.7275637,2.3700898 0 0 0 16.525885,5.7947385 1.7275637,2.3700898 0 0 0 16.236497,4.4816403 Z" />
  </g>
</svg>
