<?xml version="1.0" encoding="UTF-8" standalone="no"?>
<!-- Created with Inkscape (http://www.inkscape.org/) -->

<svg
   width="100mm"
   height="100mm"
   viewBox="0 0 100 100"
   version="1.1"
   id="svg3527"
   inkscape:version="1.1.2 (0a00cf5339, 2022-02-04)"
   sodipodi:docname="ore_1.svg"
   xmlns:inkscape="http://www.inkscape.org/namespaces/inkscape"
   xmlns:sodipodi="http://sodipodi.sourceforge.net/DTD/sodipodi-0.dtd"
   xmlns="http://www.w3.org/2000/svg"
   xmlns:svg="http://www.w3.org/2000/svg">
  <sodipodi:namedview
     id="namedview3529"
     pagecolor="#505050"
     bordercolor="#ffffff"
     borderopacity="1"
     inkscape:pageshadow="0"
     inkscape:pageopacity="0"
     inkscape:pagecheckerboard="1"
     inkscape:document-units="mm"
     showgrid="false"
     width="100mm"
     inkscape:zoom="0.86056398"
     inkscape:cx="-27.307673"
     inkscape:cy="150.48271"
     inkscape:window-width="1366"
     inkscape:window-height="697"
     inkscape:window-x="0"
     inkscape:window-y="0"
     inkscape:window-maximized="1"
     inkscape:current-layer="layer1"
     inkscape:snap-global="false" />
  <defs
     id="defs3524" />
  <g
     inkscape:label="Camada 1"
     inkscape:groupmode="layer"
     id="layer1">
    <rect
       style="fill:#2e842e;fill-opacity:1;stroke:none;stroke-width:0.331217"
       id="rect3553-3"
       width="108.28619"
       height="105.53841"
       x="-6.3581982"
       y="-3.4373965"
       ry="1.1075262" />
    <g
       id="g7938"
       transform="matrix(0.478182,0,0,0.47557397,53.885199,67.070539)">
      <path
         id="path7924"
         style="fill:#225e22;fill-opacity:1;stroke-width:2.11989"
         d="m 44.676477,45.046567 c -0.456845,3.62319 -11.30265,-6.792628 -15.966986,-6.770873 -5.500456,0.02566 -13.980657,0.08134 -16.438645,-3.457792 -2.034278,-2.929057 13.986433,0.619104 19.439232,1.306644 5.452799,0.687539 13.423245,5.298834 12.966399,8.922021 z"
         sodipodi:nodetypes="sssss" />
      <path
         id="path7926"
         style="fill:#225e22;stroke-width:2.53931"
         d="m 35.828801,39.263078 c 0,4.54262 -6.734827,4.824874 -12.069651,5.577551 C 17.468016,45.728232 3.880352,40.311236 0.55668554,36.325935 -2.1940463,33.027621 17.419642,28.390359 23.75915,28.390359 c 6.339508,0 12.069651,6.330105 12.069651,10.872719 z"
         sodipodi:nodetypes="sssss" />
      <path
         id="path7928"
         style="fill:#174017;fill-opacity:1;stroke-width:1.46868"
         d="m 35.063526,38.932089 c 0,1.752843 -12.06361,-2.556067 -16.688582,-2.265635 C 12.920907,37.00895 4.5142897,37.544665 1.6328699,36.006873 -0.75184987,34.734166 15.586879,35.461877 21.082853,35.461877 c 5.495973,0 13.980673,1.717371 13.980673,3.470212 z"
         sodipodi:nodetypes="sssss" />
      <rect
         style="fill:#174017;fill-opacity:1;stroke-width:2.979"
         id="rect7930"
         width="1.5164093"
         height="8.1990547"
         x="11.352146"
         y="32.581093"
         rx="0.25083929"
         ry="1.2203165" />
      <rect
         style="fill:#174017;fill-opacity:1;stroke-width:2.979"
         id="rect7932"
         width="2.0263655"
         height="11.971917"
         x="18.841402"
         y="30.474119"
         rx="0.25083929"
         ry="1.2203165" />
      <rect
         style="fill:#174017;fill-opacity:1;stroke-width:2.979"
         id="rect7934"
         width="2.0127888"
         height="8.4114799"
         x="27.443251"
         y="32.629051"
         rx="0.25083929"
         ry="1.2203165" />
      <rect
         style="fill:#174017;fill-opacity:1;stroke-width:2.979"
         id="rect7936"
         width="1.0963677"
         height="4.4322958"
         x="4.2030797"
         y="33.825947"
         rx="0.25083929"
         ry="1.2203165" />
    </g>
    <g
       id="g7954"
       transform="matrix(-0.3326402,0,0,0.3440962,88.580439,69.023026)">
      <path
         id="path7940"
         style="fill:#225e22;fill-opacity:1;stroke-width:2.11989"
         d="m 44.676477,45.046567 c -0.456845,3.62319 -11.30265,-6.792628 -15.966986,-6.770873 -5.500456,0.02566 -13.980657,0.08134 -16.438645,-3.457792 -2.034278,-2.929057 13.986433,0.619104 19.439232,1.306644 5.452799,0.687539 13.423245,5.298834 12.966399,8.922021 z"
         sodipodi:nodetypes="sssss" />
      <path
         id="path7942"
         style="fill:#225e22;stroke-width:2.53931"
         d="m 35.828801,39.263078 c 0,4.54262 -6.734827,4.824874 -12.069651,5.577551 C 17.468016,45.728232 3.880352,40.311236 0.55668554,36.325935 -2.1940463,33.027621 17.419642,28.390359 23.75915,28.390359 c 6.339508,0 12.069651,6.330105 12.069651,10.872719 z"
         sodipodi:nodetypes="sssss" />
      <path
         id="path7944"
         style="fill:#174017;fill-opacity:1;stroke-width:1.46868"
         d="m 35.063526,38.932089 c 0,1.752843 -12.06361,-2.556067 -16.688582,-2.265635 C 12.920907,37.00895 4.5142897,37.544665 1.6328699,36.006873 -0.75184987,34.734166 15.586879,35.461877 21.082853,35.461877 c 5.495973,0 13.980673,1.717371 13.980673,3.470212 z"
         sodipodi:nodetypes="sssss" />
      <rect
         style="fill:#174017;fill-opacity:1;stroke-width:2.979"
         id="rect7946"
         width="1.5164093"
         height="8.1990547"
         x="11.352146"
         y="32.581093"
         rx="0.25083929"
         ry="1.2203165" />
      <rect
         style="fill:#174017;fill-opacity:1;stroke-width:2.979"
         id="rect7948"
         width="2.0263655"
         height="11.971917"
         x="18.841402"
         y="30.474119"
         rx="0.25083929"
         ry="1.2203165" />
      <rect
         style="fill:#174017;fill-opacity:1;stroke-width:2.979"
         id="rect7950"
         width="2.0127888"
         height="8.4114799"
         x="27.443251"
         y="32.629051"
         rx="0.25083929"
         ry="1.2203165" />
      <rect
         style="fill:#174017;fill-opacity:1;stroke-width:2.979"
         id="rect7952"
         width="1.0963677"
         height="4.4322958"
         x="4.2030797"
         y="33.825947"
         rx="0.25083929"
         ry="1.2203165" />
    </g>
    <g
       id="g7970"
       transform="matrix(0.3326402,0,0,0.3440962,84.727659,75.098421)">
      <path
         id="path7956"
         style="fill:#225e22;fill-opacity:1;stroke-width:2.11989"
         d="m 44.676477,45.046567 c -0.456845,3.62319 -11.30265,-6.792628 -15.966986,-6.770873 -5.500456,0.02566 -13.980657,0.08134 -16.438645,-3.457792 -2.034278,-2.929057 13.986433,0.619104 19.439232,1.306644 5.452799,0.687539 13.423245,5.298834 12.966399,8.922021 z"
         sodipodi:nodetypes="sssss" />
      <path
         id="path7958"
         style="fill:#225e22;stroke-width:2.53931"
         d="m 35.828801,39.263078 c 0,4.54262 -6.734827,4.824874 -12.069651,5.577551 C 17.468016,45.728232 3.880352,40.311236 0.55668554,36.325935 -2.1940463,33.027621 17.419642,28.390359 23.75915,28.390359 c 6.339508,0 12.069651,6.330105 12.069651,10.872719 z"
         sodipodi:nodetypes="sssss" />
      <path
         id="path7960"
         style="fill:#174017;fill-opacity:1;stroke-width:1.46868"
         d="m 35.063526,38.932089 c 0,1.752843 -12.06361,-2.556067 -16.688582,-2.265635 C 12.920907,37.00895 4.5142897,37.544665 1.6328699,36.006873 -0.75184987,34.734166 15.586879,35.461877 21.082853,35.461877 c 5.495973,0 13.980673,1.717371 13.980673,3.470212 z"
         sodipodi:nodetypes="sssss" />
      <rect
         style="fill:#174017;fill-opacity:1;stroke-width:2.979"
         id="rect7962"
         width="1.5164093"
         height="8.1990547"
         x="11.352146"
         y="32.581093"
         rx="0.25083929"
         ry="1.2203165" />
      <rect
         style="fill:#174017;fill-opacity:1;stroke-width:2.979"
         id="rect7964"
         width="2.0263655"
         height="11.971917"
         x="18.841402"
         y="30.474119"
         rx="0.25083929"
         ry="1.2203165" />
      <rect
         style="fill:#174017;fill-opacity:1;stroke-width:2.979"
         id="rect7966"
         width="2.0127888"
         height="8.4114799"
         x="27.443251"
         y="32.629051"
         rx="0.25083929"
         ry="1.2203165" />
      <rect
         style="fill:#174017;fill-opacity:1;stroke-width:2.979"
         id="rect7968"
         width="1.0963677"
         height="4.4322958"
         x="4.2030797"
         y="33.825947"
         rx="0.25083929"
         ry="1.2203165" />
    </g>
    <g
       id="g7986"
       transform="matrix(-0.3326402,0,0,0.3440962,93.846169,80.629449)">
      <path
         id="path7972"
         style="fill:#225e22;fill-opacity:1;stroke-width:2.11989"
         d="m 44.676477,45.046567 c -0.456845,3.62319 -11.30265,-6.792628 -15.966986,-6.770873 -5.500456,0.02566 -13.980657,0.08134 -16.438645,-3.457792 -2.034278,-2.929057 13.986433,0.619104 19.439232,1.306644 5.452799,0.687539 13.423245,5.298834 12.966399,8.922021 z"
         sodipodi:nodetypes="sssss" />
      <path
         id="path7974"
         style="fill:#225e22;stroke-width:2.53931"
         d="m 35.828801,39.263078 c 0,4.54262 -6.734827,4.824874 -12.069651,5.577551 C 17.468016,45.728232 3.880352,40.311236 0.55668554,36.325935 -2.1940463,33.027621 17.419642,28.390359 23.75915,28.390359 c 6.339508,0 12.069651,6.330105 12.069651,10.872719 z"
         sodipodi:nodetypes="sssss" />
      <path
         id="path7976"
         style="fill:#174017;fill-opacity:1;stroke-width:1.46868"
         d="m 35.063526,38.932089 c 0,1.752843 -12.06361,-2.556067 -16.688582,-2.265635 C 12.920907,37.00895 4.5142897,37.544665 1.6328699,36.006873 -0.75184987,34.734166 15.586879,35.461877 21.082853,35.461877 c 5.495973,0 13.980673,1.717371 13.980673,3.470212 z"
         sodipodi:nodetypes="sssss" />
      <rect
         style="fill:#174017;fill-opacity:1;stroke-width:2.979"
         id="rect7978"
         width="1.5164093"
         height="8.1990547"
         x="11.352146"
         y="32.581093"
         rx="0.25083929"
         ry="1.2203165" />
      <rect
         style="fill:#174017;fill-opacity:1;stroke-width:2.979"
         id="rect7980"
         width="2.0263655"
         height="11.971917"
         x="18.841402"
         y="30.474119"
         rx="0.25083929"
         ry="1.2203165" />
      <rect
         style="fill:#174017;fill-opacity:1;stroke-width:2.979"
         id="rect7982"
         width="2.0127888"
         height="8.4114799"
         x="27.443251"
         y="32.629051"
         rx="0.25083929"
         ry="1.2203165" />
      <rect
         style="fill:#174017;fill-opacity:1;stroke-width:2.979"
         id="rect7984"
         width="1.0963677"
         height="4.4322958"
         x="4.2030797"
         y="33.825947"
         rx="0.25083929"
         ry="1.2203165" />
    </g>
    <g
       id="g9717"
       transform="matrix(1.3296568,0,0,1.8345779,-4.4243294,-55.515701)">
      <g
         id="g9677">
        <path
           id="path9673"
           style="fill:#1d4f1d;fill-opacity:1;stroke-width:2.979"
           d="m 54.272117,38.591254 0.906441,-3.730439 c 0,0 3.08396,8.604517 3.114668,9.279874 l 0.525917,11.566547 c 0.03066,0.675359 0.798426,1.53583 0.659487,1.533102 l -4.024731,-0.07904 c -0.138938,-0.0027 0.47638,-0.576205 0.46679,-1.252193 l -0.139935,-9.863223 c -0.0096,-0.675987 -1.541448,-7.319594 -1.508636,-7.454631 z"
           sodipodi:nodetypes="scsssssss" />
        <path
           id="path9675"
           style="fill:#4ec14e;fill-opacity:1;stroke-width:1.49068"
           d="m 55.375445,40.241774 0.08455,-3.256284 c 0,0 1.289962,7.491569 1.33056,8.08036 l 0.695317,10.083961 c 0.04064,0.588791 0.301404,1.336254 0.261405,1.334394 l -1.158647,-0.05393 c -0.04,-0.0018 0.109579,-0.504219 0.07501,-1.09364 l -0.504394,-8.600116 c -0.03454,-0.589418 -0.786848,-6.376874 -0.783789,-6.494748 z"
           sodipodi:nodetypes="scsssssss" />
      </g>
      <g
         id="g9683"
         transform="translate(3.6299791,-1.8829444)">
        <path
           id="path9679"
           style="fill:#1d4f1d;fill-opacity:1;stroke-width:2.979"
           d="m 54.272117,38.591254 0.906441,-3.730439 c 0,0 3.08396,8.604517 3.114668,9.279874 l 0.525917,11.566547 c 0.03066,0.675359 0.798426,1.53583 0.659487,1.533102 l -4.024731,-0.07904 c -0.138938,-0.0027 0.47638,-0.576205 0.46679,-1.252193 l -0.139935,-9.863223 c -0.0096,-0.675987 -1.541448,-7.319594 -1.508636,-7.454631 z"
           sodipodi:nodetypes="scsssssss" />
        <path
           id="path9681"
           style="fill:#4ec14e;fill-opacity:1;stroke-width:1.49068"
           d="m 55.375445,40.241774 0.08455,-3.256284 c 0,0 1.289962,7.491569 1.33056,8.08036 l 0.695317,10.083961 c 0.04064,0.588791 0.301404,1.336254 0.261405,1.334394 l -1.158647,-0.05393 c -0.04,-0.0018 0.109579,-0.504219 0.07501,-1.09364 l -0.504394,-8.600116 c -0.03454,-0.589418 -0.786848,-6.376874 -0.783789,-6.494748 z"
           sodipodi:nodetypes="scsssssss" />
      </g>
      <g
         id="g9689"
         transform="translate(8.9104463,-6.0991533)">
        <path
           id="path9685"
           style="fill:#1d4f1d;fill-opacity:1;stroke-width:2.979"
           d="m 54.272117,38.591254 0.906441,-3.730439 c 0,0 3.08396,8.604517 3.114668,9.279874 l 0.525917,11.566547 c 0.03066,0.675359 0.798426,1.53583 0.659487,1.533102 l -4.024731,-0.07904 c -0.138938,-0.0027 0.47638,-0.576205 0.46679,-1.252193 l -0.139935,-9.863223 c -0.0096,-0.675987 -1.541448,-7.319594 -1.508636,-7.454631 z"
           sodipodi:nodetypes="scsssssss" />
        <path
           id="path9687"
           style="fill:#4ec14e;fill-opacity:1;stroke-width:1.49068"
           d="m 55.375445,40.241774 0.08455,-3.256284 c 0,0 1.289962,7.491569 1.33056,8.08036 l 0.695317,10.083961 c 0.04064,0.588791 0.301404,1.336254 0.261405,1.334394 l -1.158647,-0.05393 c -0.04,-0.0018 0.109579,-0.504219 0.07501,-1.09364 l -0.504394,-8.600116 c -0.03454,-0.589418 -0.786848,-6.376874 -0.783789,-6.494748 z"
           sodipodi:nodetypes="scsssssss" />
      </g>
      <g
         id="g9709"
         transform="matrix(-1,0,0,1,145.01647,-0.76451097)">
        <g
           id="g9695"
           transform="translate(13.313999,-1.8410934)">
          <path
             id="path9691"
             style="fill:#1d4f1d;fill-opacity:1;stroke-width:2.979"
             d="m 54.272117,38.591254 0.906441,-3.730439 c 0,0 3.08396,8.604517 3.114668,9.279874 l 0.525917,11.566547 c 0.03066,0.675359 0.798426,1.53583 0.659487,1.533102 l -4.024731,-0.07904 c -0.138938,-0.0027 0.47638,-0.576205 0.46679,-1.252193 l -0.139935,-9.863223 c -0.0096,-0.675987 -1.541448,-7.319594 -1.508636,-7.454631 z"
             sodipodi:nodetypes="scsssssss" />
          <path
             id="path9693"
             style="fill:#4ec14e;fill-opacity:1;stroke-width:1.49068"
             d="m 55.375445,40.241774 0.08455,-3.256284 c 0,0 1.289962,7.491569 1.33056,8.08036 l 0.695317,10.083961 c 0.04064,0.588791 0.301404,1.336254 0.261405,1.334394 l -1.158647,-0.05393 c -0.04,-0.0018 0.109579,-0.504219 0.07501,-1.09364 l -0.504394,-8.600116 c -0.03454,-0.589418 -0.786848,-6.376874 -0.783789,-6.494748 z"
             sodipodi:nodetypes="scsssssss" />
        </g>
        <g
           id="g9701"
           transform="translate(16.943978,-3.7240378)">
          <path
             id="path9697"
             style="fill:#1d4f1d;fill-opacity:1;stroke-width:2.979"
             d="m 54.272117,38.591254 0.906441,-3.730439 c 0,0 3.08396,8.604517 3.114668,9.279874 l 0.525917,11.566547 c 0.03066,0.675359 0.798426,1.53583 0.659487,1.533102 l -4.024731,-0.07904 c -0.138938,-0.0027 0.47638,-0.576205 0.46679,-1.252193 l -0.139935,-9.863223 c -0.0096,-0.675987 -1.541448,-7.319594 -1.508636,-7.454631 z"
             sodipodi:nodetypes="scsssssss" />
          <path
             id="path9699"
             style="fill:#4ec14e;fill-opacity:1;stroke-width:1.49068"
             d="m 55.375445,40.241774 0.08455,-3.256284 c 0,0 1.289962,7.491569 1.33056,8.08036 l 0.695317,10.083961 c 0.04064,0.588791 0.301404,1.336254 0.261405,1.334394 l -1.158647,-0.05393 c -0.04,-0.0018 0.109579,-0.504219 0.07501,-1.09364 l -0.504394,-8.600116 c -0.03454,-0.589418 -0.786848,-6.376874 -0.783789,-6.494748 z"
             sodipodi:nodetypes="scsssssss" />
        </g>
        <g
           id="g9707"
           transform="translate(20.578363,-0.12241827)">
          <path
             id="path9703"
             style="fill:#1d4f1d;fill-opacity:1;stroke-width:2.979"
             d="m 54.272117,38.591254 0.906441,-3.730439 c 0,0 3.08396,8.604517 3.114668,9.279874 l 0.525917,11.566547 c 0.03066,0.675359 0.798426,1.53583 0.659487,1.533102 l -4.024731,-0.07904 c -0.138938,-0.0027 0.47638,-0.576205 0.46679,-1.252193 l -0.139935,-9.863223 c -0.0096,-0.675987 -1.541448,-7.319594 -1.508636,-7.454631 z"
             sodipodi:nodetypes="scsssssss" />
          <path
             id="path9705"
             style="fill:#4ec14e;fill-opacity:1;stroke-width:1.49068"
             d="m 55.375445,40.241774 0.08455,-3.256284 c 0,0 1.289962,7.491569 1.33056,8.08036 l 0.695317,10.083961 c 0.04064,0.588791 0.301404,1.336254 0.261405,1.334394 l -1.158647,-0.05393 c -0.04,-0.0018 0.109579,-0.504219 0.07501,-1.09364 l -0.504394,-8.600116 c -0.03454,-0.589418 -0.786848,-6.376874 -0.783789,-6.494748 z"
             sodipodi:nodetypes="scsssssss" />
        </g>
      </g>
      <g
         id="g9715"
         transform="translate(7.2643636,1.7186751)">
        <path
           id="path9711"
           style="fill:#1d4f1d;fill-opacity:1;stroke-width:2.979"
           d="m 54.272117,38.591254 0.906441,-3.730439 c 0,0 3.08396,8.604517 3.114668,9.279874 l 0.525917,11.566547 c 0.03066,0.675359 0.798426,1.53583 0.659487,1.533102 l -4.024731,-0.07904 c -0.138938,-0.0027 0.47638,-0.576205 0.46679,-1.252193 l -0.139935,-9.863223 c -0.0096,-0.675987 -1.541448,-7.319594 -1.508636,-7.454631 z"
           sodipodi:nodetypes="scsssssss" />
        <path
           id="path9713"
           style="fill:#4ec14e;fill-opacity:1;stroke-width:1.49068"
           d="m 55.375445,40.241774 0.08455,-3.256284 c 0,0 1.289962,7.491569 1.33056,8.08036 l 0.695317,10.083961 c 0.04064,0.588791 0.301404,1.336254 0.261405,1.334394 l -1.158647,-0.05393 c -0.04,-0.0018 0.109579,-0.504219 0.07501,-1.09364 l -0.504394,-8.600116 c -0.03454,-0.589418 -0.786848,-6.376874 -0.783789,-6.494748 z"
           sodipodi:nodetypes="scsssssss" />
      </g>
    </g>
    <g
       id="g9431"
       transform="translate(-0.22753946,-7.3208418)">
      <path
         id="rect42278"
         style="fill:#502d16;stroke:#0c0807;stroke-width:2;stroke-miterlimit:4;stroke-dasharray:none;stroke-opacity:1"
         d="m 11.994537,51.981518 h 73.295876 c 0.142713,0 10.071173,-0.04611 9.959926,0.363377 l -9.702321,35.712208 c -0.111249,0.409483 -0.114892,0.775779 -0.257605,0.775779 H 11.994537 c -0.142713,0 -0.172097,-0.357871 -0.257605,-0.775779 L 4.3989968,52.193696 c -0.085508,-0.417909 7.4528272,-0.212178 7.5955402,-0.212178 z"
         sodipodi:nodetypes="sssssssss" />
      <path
         id="path6473"
         style="fill:#483e37;stroke:#281a18;stroke-width:1.74273;stroke-miterlimit:4;stroke-dasharray:none;stroke-opacity:1"
         d="m 16.426223,54.072137 h 65.038928 c 0.126635,0 8.936633,-0.03946 8.837917,0.310929 l -8.609332,30.55775 c -0.09871,0.350381 -0.10195,0.663808 -0.228585,0.663808 H 16.426223 c -0.126636,0 -0.15271,-0.306217 -0.228585,-0.663808 L 9.6863365,54.25369 C 9.6104618,53.8961 16.299587,54.072137 16.426223,54.072137 Z"
         sodipodi:nodetypes="sssssssss" />
      <path
         id="path6475"
         style="fill:#502d16;stroke:#281a18;stroke-width:1.5767;stroke-miterlimit:4;stroke-dasharray:none;stroke-opacity:1"
         d="m 20.057738,52.313457 h 58.397036 c 0.113703,0 8.024008,-0.03597 7.935373,0.283455 l -7.730131,27.85763 c -0.08863,0.319421 -0.09154,0.605154 -0.205242,0.605154 H 20.057738 c -0.113704,0 -0.137115,-0.27916 -0.205242,-0.605154 L 14.006141,52.478968 c -0.06812,-0.325993 5.937893,-0.165511 6.051597,-0.165511 z"
         sodipodi:nodetypes="sssssssss" />
      <path
         id="path6414"
         style="fill:#502d16;stroke:#0c0807;stroke-width:2;stroke-miterlimit:4;stroke-dasharray:none;stroke-opacity:1"
         d="m 89.360821,57.177275 -77.248202,0.06272 C 11.96221,57.24011 1.4984176,57.299041 1.6153257,56.851046 L 11.811381,17.780569 c 0.116911,-0.447988 0.120448,-0.848648 0.270856,-0.848771 l 77.248204,-0.06272 c 0.150407,-1.22e-4 0.181671,0.391293 0.272135,0.848331 l 7.763184,39.221283 c 0.09047,0.457039 -7.85453,0.238458 -8.004939,0.238581 z"
         sodipodi:nodetypes="sssssssss" />
      <path
         id="path9173"
         style="fill:#483e37;stroke:#281a18;stroke-width:1.74273;stroke-miterlimit:4;stroke-dasharray:none;stroke-opacity:1"
         d="M 82.691597,52.493759 17.653518,52.826 c -0.126633,6.43e-4 -8.9363152,0.08511 -8.8393902,-0.265778 l 8.4531202,-30.60133 c 0.09692,-0.350881 0.09856,-0.664321 0.225191,-0.664967 l 65.03808,-0.332241 c 0.126634,-6.43e-4 0.154272,0.305432 0.231973,0.662631 l 6.667976,30.653464 c 0.07769,0.357198 -6.612236,0.215333 -6.738871,0.21598 z"
         sodipodi:nodetypes="sssssssss" />
      <path
         id="path9175"
         style="fill:#502d16;stroke:#0c0807;stroke-width:1.93486;stroke-miterlimit:4;stroke-dasharray:none;stroke-opacity:1"
         d="m 76.520289,52.357618 -51.821819,0.04147 c -0.100901,7.5e-5 -7.120517,0.03903 -7.042088,-0.257126 l 6.840004,-25.828514 c 0.07843,-0.296153 0.0808,-0.56102 0.181703,-0.561103 l 51.821818,-0.04147 c 0.100896,-8e-5 0.121873,0.258675 0.182558,0.560811 l 5.207914,25.928209 c 0.06071,0.302136 -5.269195,0.157638 -5.37009,0.157721 z"
         sodipodi:nodetypes="sssssssss" />
      <path
         id="rect42567"
         style="fill:#28170b;stroke:#0c0807;stroke-width:2;stroke-miterlimit:4;stroke-dasharray:none"
         d="m 39.073851,51.528433 h 24.475178 c 0.166644,0 0.576024,0.389613 0.300802,0.707827 l -4.830922,5.585563 c -0.275222,0.318214 4.696764,6.454659 4.53012,6.454659 H 39.073851 c -0.166644,0 3.895996,-5.787933 3.657887,-6.142661 l -3.95869,-5.897561 c -0.238109,-0.354729 0.134159,-0.707827 0.300803,-0.707827 z"
         sodipodi:nodetypes="sssssssss" />
      <ellipse
         style="fill:#0c0807;fill-opacity:1;stroke:none;stroke-width:3.4809;stroke-opacity:1"
         id="path5174"
         cx="51.04467"
         cy="55.543831"
         rx="3.2258117"
         ry="3.1429646" />
      <path
         sodipodi:type="star"
         style="fill:#0c0807;fill-opacity:1;stroke:none;stroke-width:11.2592;stroke-opacity:1"
         id="path6252"
         inkscape:flatsided="true"
         sodipodi:sides="3"
         sodipodi:cx="177.62337"
         sodipodi:cy="200.85498"
         sodipodi:r1="17.519781"
         sodipodi:r2="8.7598906"
         sodipodi:arg1="0.53294908"
         sodipodi:arg2="1.5801466"
         inkscape:rounded="0"
         inkscape:randomized="0"
         d="m 192.71337,209.75635 -30.34382,-0.28373 15.41763,-26.13665 z"
         transform="matrix(0.26458333,0,0,0.26458333,3.9732469,7.812458)"
         inkscape:transform-center-x="0.021671674"
         inkscape:transform-center-y="-1.1400429" />
      <ellipse
         style="fill:#483e37;fill-opacity:1;stroke:#281a18;stroke-width:1.6127;stroke-miterlimit:4;stroke-dasharray:none;stroke-opacity:1"
         id="path8904"
         cx="79.883759"
         cy="82.050194"
         rx="0.70671153"
         ry="0.81580108" />
      <ellipse
         style="fill:#483e37;fill-opacity:1;stroke:#281a18;stroke-width:1.6127;stroke-miterlimit:4;stroke-dasharray:none;stroke-opacity:1"
         id="ellipse9005"
         cx="19.445822"
         cy="82.047188"
         rx="0.70671153"
         ry="0.81580108" />
      <ellipse
         style="fill:#483e37;fill-opacity:1;stroke:#281a18;stroke-width:1.6127;stroke-miterlimit:4;stroke-dasharray:none;stroke-opacity:1"
         id="ellipse9007"
         cx="14.169615"
         cy="61.241398"
         rx="0.70671153"
         ry="0.81580108" />
      <ellipse
         style="fill:#483e37;fill-opacity:1;stroke:#281a18;stroke-width:1.6127;stroke-miterlimit:4;stroke-dasharray:none;stroke-opacity:1"
         id="ellipse9009"
         cx="85.196457"
         cy="60.964851"
         rx="0.70671153"
         ry="0.81580108" />
      <g
         id="g9404"
         transform="matrix(-1,0,0,1,36.497457,0.58389689)">
        <ellipse
           style="fill:#483e37;fill-opacity:1;stroke:#281a18;stroke-width:1.6127;stroke-miterlimit:4;stroke-dasharray:none;stroke-opacity:1"
           id="ellipse9398"
           cx="22.194138"
           cy="47.031895"
           rx="0.70671153"
           ry="0.81580108" />
        <ellipse
           style="fill:#483e37;fill-opacity:1;stroke:#281a18;stroke-width:1.6127;stroke-miterlimit:4;stroke-dasharray:none;stroke-opacity:1"
           id="ellipse9400"
           cx="16.917931"
           cy="26.226107"
           rx="0.70671153"
           ry="0.81580108" />
      </g>
      <g
         id="g9410"
         transform="translate(62.149988,-0.89056216)">
        <ellipse
           style="fill:#483e37;fill-opacity:1;stroke:#281a18;stroke-width:1.6127;stroke-miterlimit:4;stroke-dasharray:none;stroke-opacity:1"
           id="ellipse9406"
           cx="22.194138"
           cy="47.031895"
           rx="0.70671153"
           ry="0.81580108" />
        <ellipse
           style="fill:#483e37;fill-opacity:1;stroke:#281a18;stroke-width:1.6127;stroke-miterlimit:4;stroke-dasharray:none;stroke-opacity:1"
           id="ellipse9408"
           cx="16.917931"
           cy="26.226107"
           rx="0.70671153"
           ry="0.81580108" />
      </g>
    </g>
    <g
       id="g10198"
       transform="matrix(1.3296568,0,0,1.8345779,-74.280059,-11.053883)">
      <g
         id="g10158">
        <path
           id="path10154"
           style="fill:#1d4f1d;fill-opacity:1;stroke-width:2.979"
           d="m 54.272117,38.591254 0.906441,-3.730439 c 0,0 3.08396,8.604517 3.114668,9.279874 l 0.525917,11.566547 c 0.03066,0.675359 0.798426,1.53583 0.659487,1.533102 l -4.024731,-0.07904 c -0.138938,-0.0027 0.47638,-0.576205 0.46679,-1.252193 l -0.139935,-9.863223 c -0.0096,-0.675987 -1.541448,-7.319594 -1.508636,-7.454631 z"
           sodipodi:nodetypes="scsssssss" />
        <path
           id="path10156"
           style="fill:#4ec14e;fill-opacity:1;stroke-width:1.49068"
           d="m 55.375445,40.241774 0.08455,-3.256284 c 0,0 1.289962,7.491569 1.33056,8.08036 l 0.695317,10.083961 c 0.04064,0.588791 0.301404,1.336254 0.261405,1.334394 l -1.158647,-0.05393 c -0.04,-0.0018 0.109579,-0.504219 0.07501,-1.09364 l -0.504394,-8.600116 c -0.03454,-0.589418 -0.786848,-6.376874 -0.783789,-6.494748 z"
           sodipodi:nodetypes="scsssssss" />
      </g>
      <g
         id="g10164"
         transform="translate(3.6299791,-1.8829444)">
        <path
           id="path10160"
           style="fill:#1d4f1d;fill-opacity:1;stroke-width:2.979"
           d="m 54.272117,38.591254 0.906441,-3.730439 c 0,0 3.08396,8.604517 3.114668,9.279874 l 0.525917,11.566547 c 0.03066,0.675359 0.798426,1.53583 0.659487,1.533102 l -4.024731,-0.07904 c -0.138938,-0.0027 0.47638,-0.576205 0.46679,-1.252193 l -0.139935,-9.863223 c -0.0096,-0.675987 -1.541448,-7.319594 -1.508636,-7.454631 z"
           sodipodi:nodetypes="scsssssss" />
        <path
           id="path10162"
           style="fill:#4ec14e;fill-opacity:1;stroke-width:1.49068"
           d="m 55.375445,40.241774 0.08455,-3.256284 c 0,0 1.289962,7.491569 1.33056,8.08036 l 0.695317,10.083961 c 0.04064,0.588791 0.301404,1.336254 0.261405,1.334394 l -1.158647,-0.05393 c -0.04,-0.0018 0.109579,-0.504219 0.07501,-1.09364 l -0.504394,-8.600116 c -0.03454,-0.589418 -0.786848,-6.376874 -0.783789,-6.494748 z"
           sodipodi:nodetypes="scsssssss" />
      </g>
      <g
         id="g10170"
         transform="translate(8.9104463,-6.0991533)">
        <path
           id="path10166"
           style="fill:#1d4f1d;fill-opacity:1;stroke-width:2.979"
           d="m 54.272117,38.591254 0.906441,-3.730439 c 0,0 3.08396,8.604517 3.114668,9.279874 l 0.525917,11.566547 c 0.03066,0.675359 0.798426,1.53583 0.659487,1.533102 l -4.024731,-0.07904 c -0.138938,-0.0027 0.47638,-0.576205 0.46679,-1.252193 l -0.139935,-9.863223 c -0.0096,-0.675987 -1.541448,-7.319594 -1.508636,-7.454631 z"
           sodipodi:nodetypes="scsssssss" />
        <path
           id="path10168"
           style="fill:#4ec14e;fill-opacity:1;stroke-width:1.49068"
           d="m 55.375445,40.241774 0.08455,-3.256284 c 0,0 1.289962,7.491569 1.33056,8.08036 l 0.695317,10.083961 c 0.04064,0.588791 0.301404,1.336254 0.261405,1.334394 l -1.158647,-0.05393 c -0.04,-0.0018 0.109579,-0.504219 0.07501,-1.09364 l -0.504394,-8.600116 c -0.03454,-0.589418 -0.786848,-6.376874 -0.783789,-6.494748 z"
           sodipodi:nodetypes="scsssssss" />
      </g>
      <g
         id="g10190"
         transform="matrix(-1,0,0,1,145.01647,-0.76451097)">
        <g
           id="g10176"
           transform="translate(13.313999,-1.8410934)">
          <path
             id="path10172"
             style="fill:#1d4f1d;fill-opacity:1;stroke-width:2.979"
             d="m 54.272117,38.591254 0.906441,-3.730439 c 0,0 3.08396,8.604517 3.114668,9.279874 l 0.525917,11.566547 c 0.03066,0.675359 0.798426,1.53583 0.659487,1.533102 l -4.024731,-0.07904 c -0.138938,-0.0027 0.47638,-0.576205 0.46679,-1.252193 l -0.139935,-9.863223 c -0.0096,-0.675987 -1.541448,-7.319594 -1.508636,-7.454631 z"
             sodipodi:nodetypes="scsssssss" />
          <path
             id="path10174"
             style="fill:#4ec14e;fill-opacity:1;stroke-width:1.49068"
             d="m 55.375445,40.241774 0.08455,-3.256284 c 0,0 1.289962,7.491569 1.33056,8.08036 l 0.695317,10.083961 c 0.04064,0.588791 0.301404,1.336254 0.261405,1.334394 l -1.158647,-0.05393 c -0.04,-0.0018 0.109579,-0.504219 0.07501,-1.09364 l -0.504394,-8.600116 c -0.03454,-0.589418 -0.786848,-6.376874 -0.783789,-6.494748 z"
             sodipodi:nodetypes="scsssssss" />
        </g>
        <g
           id="g10182"
           transform="translate(16.943978,-3.7240378)">
          <path
             id="path10178"
             style="fill:#1d4f1d;fill-opacity:1;stroke-width:2.979"
             d="m 54.272117,38.591254 0.906441,-3.730439 c 0,0 3.08396,8.604517 3.114668,9.279874 l 0.525917,11.566547 c 0.03066,0.675359 0.798426,1.53583 0.659487,1.533102 l -4.024731,-0.07904 c -0.138938,-0.0027 0.47638,-0.576205 0.46679,-1.252193 l -0.139935,-9.863223 c -0.0096,-0.675987 -1.541448,-7.319594 -1.508636,-7.454631 z"
             sodipodi:nodetypes="scsssssss" />
          <path
             id="path10180"
             style="fill:#4ec14e;fill-opacity:1;stroke-width:1.49068"
             d="m 55.375445,40.241774 0.08455,-3.256284 c 0,0 1.289962,7.491569 1.33056,8.08036 l 0.695317,10.083961 c 0.04064,0.588791 0.301404,1.336254 0.261405,1.334394 l -1.158647,-0.05393 c -0.04,-0.0018 0.109579,-0.504219 0.07501,-1.09364 l -0.504394,-8.600116 c -0.03454,-0.589418 -0.786848,-6.376874 -0.783789,-6.494748 z"
             sodipodi:nodetypes="scsssssss" />
        </g>
        <g
           id="g10188"
           transform="translate(20.578363,-0.12241827)">
          <path
             id="path10184"
             style="fill:#1d4f1d;fill-opacity:1;stroke-width:2.979"
             d="m 54.272117,38.591254 0.906441,-3.730439 c 0,0 3.08396,8.604517 3.114668,9.279874 l 0.525917,11.566547 c 0.03066,0.675359 0.798426,1.53583 0.659487,1.533102 l -4.024731,-0.07904 c -0.138938,-0.0027 0.47638,-0.576205 0.46679,-1.252193 l -0.139935,-9.863223 c -0.0096,-0.675987 -1.541448,-7.319594 -1.508636,-7.454631 z"
             sodipodi:nodetypes="scsssssss" />
          <path
             id="path10186"
             style="fill:#4ec14e;fill-opacity:1;stroke-width:1.49068"
             d="m 55.375445,40.241774 0.08455,-3.256284 c 0,0 1.289962,7.491569 1.33056,8.08036 l 0.695317,10.083961 c 0.04064,0.588791 0.301404,1.336254 0.261405,1.334394 l -1.158647,-0.05393 c -0.04,-0.0018 0.109579,-0.504219 0.07501,-1.09364 l -0.504394,-8.600116 c -0.03454,-0.589418 -0.786848,-6.376874 -0.783789,-6.494748 z"
             sodipodi:nodetypes="scsssssss" />
        </g>
      </g>
      <g
         id="g10196"
         transform="translate(7.2643636,1.7186751)">
        <path
           id="path10192"
           style="fill:#1d4f1d;fill-opacity:1;stroke-width:2.979"
           d="m 54.272117,38.591254 0.906441,-3.730439 c 0,0 3.08396,8.604517 3.114668,9.279874 l 0.525917,11.566547 c 0.03066,0.675359 0.798426,1.53583 0.659487,1.533102 l -4.024731,-0.07904 c -0.138938,-0.0027 0.47638,-0.576205 0.46679,-1.252193 l -0.139935,-9.863223 c -0.0096,-0.675987 -1.541448,-7.319594 -1.508636,-7.454631 z"
           sodipodi:nodetypes="scsssssss" />
        <path
           id="path10194"
           style="fill:#4ec14e;fill-opacity:1;stroke-width:1.49068"
           d="m 55.375445,40.241774 0.08455,-3.256284 c 0,0 1.289962,7.491569 1.33056,8.08036 l 0.695317,10.083961 c 0.04064,0.588791 0.301404,1.336254 0.261405,1.334394 l -1.158647,-0.05393 c -0.04,-0.0018 0.109579,-0.504219 0.07501,-1.09364 l -0.504394,-8.600116 c -0.03454,-0.589418 -0.786848,-6.376874 -0.783789,-6.494748 z"
           sodipodi:nodetypes="scsssssss" />
      </g>
    </g>
    <rect
       style="fill:#281a18;fill-opacity:1;stroke:#281a18;stroke-width:0.9;stroke-miterlimit:4;stroke-dasharray:none;stroke-opacity:1"
       id="rect9947"
       width="19.071381"
       height="0.52177382"
       x="29.936134"
       y="64.803757"
       rx="0.25083929"
       ry="0.52177382" />
    <rect
       style="fill:#281a18;fill-opacity:1;stroke:#281a18;stroke-width:0.9;stroke-miterlimit:4;stroke-dasharray:none;stroke-opacity:1"
       id="rect15221"
       width="19.071381"
       height="0.52177382"
       x="36.068096"
       y="68.121216"
       rx="0.25083929"
       ry="0.52177382" />
    <rect
       style="fill:#281a18;fill-opacity:1;stroke:#281a18;stroke-width:0.9;stroke-miterlimit:4;stroke-dasharray:none;stroke-opacity:1"
       id="rect15223"
       width="19.071381"
       height="0.52177382"
       x="31.408415"
       y="70.561646"
       rx="0.25083929"
       ry="0.52177382" />
    <rect
       style="fill:#281a18;fill-opacity:1;stroke:#281a18;stroke-width:0.9;stroke-miterlimit:4;stroke-dasharray:none;stroke-opacity:1"
       id="rect15225"
       width="19.071381"
       height="0.52177382"
       x="60.124954"
       y="61.036179"
       rx="0.25083929"
       ry="0.52177382" />
    <rect
       style="fill:#281a18;fill-opacity:1;stroke:#281a18;stroke-width:0.9;stroke-miterlimit:4;stroke-dasharray:none;stroke-opacity:1"
       id="rect15227"
       width="19.071381"
       height="0.52177382"
       x="56.904106"
       y="63.800026"
       rx="0.25083929"
       ry="0.52177382" />
    <rect
       style="fill:#281a18;fill-opacity:1;stroke:#281a18;stroke-width:0.730044;stroke-miterlimit:4;stroke-dasharray:none;stroke-opacity:1"
       id="rect15229"
       width="12.046432"
       height="0.54352468"
       x="63.707031"
       y="68.67334"
       rx="0.15844256"
       ry="0.54352468" />
    <rect
       style="fill:#281a18;fill-opacity:1;stroke:#281a18;stroke-width:0.9;stroke-miterlimit:4;stroke-dasharray:none;stroke-opacity:1"
       id="rect15243"
       width="19.071381"
       height="0.52177382"
       x="25.673229"
       y="31.73123"
       rx="0.25083929"
       ry="0.52177382" />
    <rect
       style="fill:#281a18;fill-opacity:1;stroke:#281a18;stroke-width:0.9;stroke-miterlimit:4;stroke-dasharray:none;stroke-opacity:1"
       id="rect15245"
       width="19.071381"
       height="0.52177382"
       x="21.663582"
       y="36.923416"
       rx="0.25083929"
       ry="0.52177382" />
    <rect
       style="fill:#281a18;fill-opacity:1;stroke:#281a18;stroke-width:0.9;stroke-miterlimit:4;stroke-dasharray:none;stroke-opacity:1"
       id="rect15247"
       width="19.071381"
       height="0.52177382"
       x="26.782942"
       y="39.999702"
       rx="0.25083929"
       ry="0.52177382" />
    <rect
       style="fill:#281a18;fill-opacity:1;stroke:#281a18;stroke-width:0.9;stroke-miterlimit:4;stroke-dasharray:none;stroke-opacity:1"
       id="rect15249"
       width="19.071381"
       height="0.52177382"
       x="53.767879"
       y="29.392408"
       rx="0.25083929"
       ry="0.52177382" />
    <rect
       style="fill:#281a18;fill-opacity:1;stroke:#281a18;stroke-width:0.9;stroke-miterlimit:4;stroke-dasharray:none;stroke-opacity:1"
       id="rect15251"
       width="19.071381"
       height="0.52177382"
       x="57.107925"
       y="32.777267"
       rx="0.25083929"
       ry="0.52177382" />
    <rect
       style="fill:#281a18;fill-opacity:1;stroke:#281a18;stroke-width:0.730044;stroke-miterlimit:4;stroke-dasharray:none;stroke-opacity:1"
       id="rect15253"
       width="12.046432"
       height="0.54352468"
       x="57.349957"
       y="37.029568"
       rx="0.15844256"
       ry="0.54352468" />
  </g>
</svg>
