<?xml version="1.0" encoding="UTF-8" standalone="no"?>
<!-- Created with Inkscape (http://www.inkscape.org/) -->

<svg
   width="100mm"
   height="100mm"
   viewBox="0 0 100 100"
   version="1.1"
   id="svg3527"
   inkscape:version="1.1.2 (0a00cf5339, 2022-02-04)"
   sodipodi:docname="terra_2.svg"
   xmlns:inkscape="http://www.inkscape.org/namespaces/inkscape"
   xmlns:sodipodi="http://sodipodi.sourceforge.net/DTD/sodipodi-0.dtd"
   xmlns="http://www.w3.org/2000/svg"
   xmlns:svg="http://www.w3.org/2000/svg">
  <sodipodi:namedview
     id="namedview3529"
     pagecolor="#505050"
     bordercolor="#ffffff"
     borderopacity="1"
     inkscape:pageshadow="0"
     inkscape:pageopacity="0"
     inkscape:pagecheckerboard="1"
     inkscape:document-units="mm"
     showgrid="false"
     width="100mm"
     inkscape:zoom="1.2170212"
     inkscape:cx="30.812938"
     inkscape:cy="186.93182"
     inkscape:window-width="1366"
     inkscape:window-height="697"
     inkscape:window-x="0"
     inkscape:window-y="0"
     inkscape:window-maximized="1"
     inkscape:current-layer="layer1"
     inkscape:snap-global="false" />
  <defs
     id="defs3524" />
  <g
     inkscape:label="Camada 1"
     inkscape:groupmode="layer"
     id="layer1">
    <rect
       style="fill:#2e842e;stroke:none;stroke-width:0.331217;fill-opacity:1"
       id="rect3553"
       width="108.28619"
       height="105.53841"
       x="-4.2390537"
       y="-2.610112"
       ry="1.1075262" />
    <g
       id="g12493"
       transform="translate(37.203343,-36.619633)">
      <path
         id="path12491"
         style="fill:#000000;fill-opacity:0.202743;stroke-width:2.979"
         d="m 42.286516,87.776845 c 0,3.614968 -10.566425,8.584336 -18.042028,8.803344 C 14.843617,96.8556 6.2742712,95.0215 6.2742715,91.406532 c 1.1e-6,-3.614968 11.2420795,-4.215276 20.6469835,-4.215276 9.404903,0 15.36526,-3.029379 15.365261,0.585589 z"
         sodipodi:nodetypes="sssss" />
    </g>
    <g
       id="g7874"
       transform="matrix(0.3326402,0,0,0.3440962,5.0257933,8.9856667)">
      <path
         id="path5349"
         style="fill:#225e22;fill-opacity:1;stroke-width:2.11989"
         d="m 44.676477,45.046567 c -0.456845,3.62319 -11.30265,-6.792628 -15.966986,-6.770873 -5.500456,0.02566 -13.980657,0.08134 -16.438645,-3.457792 -2.034278,-2.929057 13.986433,0.619104 19.439232,1.306644 5.452799,0.687539 13.423245,5.298834 12.966399,8.922021 z"
         sodipodi:nodetypes="sssss" />
      <path
         id="path3478"
         style="fill:#225e22;stroke-width:2.53931"
         d="m 35.828801,39.263078 c 0,4.54262 -6.734827,4.824874 -12.069651,5.577551 C 17.468016,45.728232 3.880352,40.311236 0.55668554,36.325935 -2.1940463,33.027621 17.419642,28.390359 23.75915,28.390359 c 6.339508,0 12.069651,6.330105 12.069651,10.872719 z"
         sodipodi:nodetypes="sssss" />
      <path
         id="path4350"
         style="fill:#174017;fill-opacity:1;stroke-width:1.46868"
         d="m 35.063526,38.932089 c 0,1.752843 -12.06361,-2.556067 -16.688582,-2.265635 C 12.920907,37.00895 4.5142897,37.544665 1.6328699,36.006873 -0.75184987,34.734166 15.586879,35.461877 21.082853,35.461877 c 5.495973,0 13.980673,1.717371 13.980673,3.470212 z"
         sodipodi:nodetypes="sssss" />
      <rect
         style="fill:#174017;fill-opacity:1;stroke-width:2.979"
         id="rect5261"
         width="1.5164093"
         height="8.1990547"
         x="11.352146"
         y="32.581093"
         rx="0.25083929"
         ry="1.2203165" />
      <rect
         style="fill:#174017;fill-opacity:1;stroke-width:2.979"
         id="rect5263"
         width="2.0263655"
         height="11.971917"
         x="18.841402"
         y="30.474119"
         rx="0.25083929"
         ry="1.2203165" />
      <rect
         style="fill:#174017;fill-opacity:1;stroke-width:2.979"
         id="rect5265"
         width="2.0127888"
         height="8.4114799"
         x="27.443251"
         y="32.629051"
         rx="0.25083929"
         ry="1.2203165" />
      <rect
         style="fill:#174017;fill-opacity:1;stroke-width:2.979"
         id="rect5267"
         width="1.0963677"
         height="4.4322958"
         x="4.2030797"
         y="33.825947"
         rx="0.25083929"
         ry="1.2203165" />
    </g>
    <g
       id="g7890"
       transform="matrix(-0.3326402,0,0,0.3440962,33.215999,4.9148833)">
      <path
         id="path7876"
         style="fill:#225e22;fill-opacity:1;stroke-width:2.11989"
         d="m 44.676477,45.046567 c -0.456845,3.62319 -11.30265,-6.792628 -15.966986,-6.770873 -5.500456,0.02566 -13.980657,0.08134 -16.438645,-3.457792 -2.034278,-2.929057 13.986433,0.619104 19.439232,1.306644 5.452799,0.687539 13.423245,5.298834 12.966399,8.922021 z"
         sodipodi:nodetypes="sssss" />
      <path
         id="path7878"
         style="fill:#225e22;stroke-width:2.53931"
         d="m 35.828801,39.263078 c 0,4.54262 -6.734827,4.824874 -12.069651,5.577551 C 17.468016,45.728232 3.880352,40.311236 0.55668554,36.325935 -2.1940463,33.027621 17.419642,28.390359 23.75915,28.390359 c 6.339508,0 12.069651,6.330105 12.069651,10.872719 z"
         sodipodi:nodetypes="sssss" />
      <path
         id="path7880"
         style="fill:#174017;fill-opacity:1;stroke-width:1.46868"
         d="m 35.063526,38.932089 c 0,1.752843 -12.06361,-2.556067 -16.688582,-2.265635 C 12.920907,37.00895 4.5142897,37.544665 1.6328699,36.006873 -0.75184987,34.734166 15.586879,35.461877 21.082853,35.461877 c 5.495973,0 13.980673,1.717371 13.980673,3.470212 z"
         sodipodi:nodetypes="sssss" />
      <rect
         style="fill:#174017;fill-opacity:1;stroke-width:2.979"
         id="rect7882"
         width="1.5164093"
         height="8.1990547"
         x="11.352146"
         y="32.581093"
         rx="0.25083929"
         ry="1.2203165" />
      <rect
         style="fill:#174017;fill-opacity:1;stroke-width:2.979"
         id="rect7884"
         width="2.0263655"
         height="11.971917"
         x="18.841402"
         y="30.474119"
         rx="0.25083929"
         ry="1.2203165" />
      <rect
         style="fill:#174017;fill-opacity:1;stroke-width:2.979"
         id="rect7886"
         width="2.0127888"
         height="8.4114799"
         x="27.443251"
         y="32.629051"
         rx="0.25083929"
         ry="1.2203165" />
      <rect
         style="fill:#174017;fill-opacity:1;stroke-width:2.979"
         id="rect7888"
         width="1.0963677"
         height="4.4322958"
         x="4.2030797"
         y="33.825947"
         rx="0.25083929"
         ry="1.2203165" />
    </g>
    <g
       id="g7906"
       transform="matrix(0.46997784,0,0,0.4182534,29.322851,7.5929823)">
      <path
         id="path7892"
         style="fill:#225e22;fill-opacity:1;stroke-width:2.11989"
         d="m 44.676477,45.046567 c -0.456845,3.62319 -11.30265,-6.792628 -15.966986,-6.770873 -5.500456,0.02566 -13.980657,0.08134 -16.438645,-3.457792 -2.034278,-2.929057 13.986433,0.619104 19.439232,1.306644 5.452799,0.687539 13.423245,5.298834 12.966399,8.922021 z"
         sodipodi:nodetypes="sssss" />
      <path
         id="path7894"
         style="fill:#225e22;stroke-width:2.53931"
         d="m 35.828801,39.263078 c 0,4.54262 -6.734827,4.824874 -12.069651,5.577551 C 17.468016,45.728232 3.880352,40.311236 0.55668554,36.325935 -2.1940463,33.027621 17.419642,28.390359 23.75915,28.390359 c 6.339508,0 12.069651,6.330105 12.069651,10.872719 z"
         sodipodi:nodetypes="sssss" />
      <path
         id="path7896"
         style="fill:#174017;fill-opacity:1;stroke-width:1.46868"
         d="m 35.063526,38.932089 c 0,1.752843 -12.06361,-2.556067 -16.688582,-2.265635 C 12.920907,37.00895 4.5142897,37.544665 1.6328699,36.006873 -0.75184987,34.734166 15.586879,35.461877 21.082853,35.461877 c 5.495973,0 13.980673,1.717371 13.980673,3.470212 z"
         sodipodi:nodetypes="sssss" />
      <rect
         style="fill:#174017;fill-opacity:1;stroke-width:2.979"
         id="rect7898"
         width="1.5164093"
         height="8.1990547"
         x="11.352146"
         y="32.581093"
         rx="0.25083929"
         ry="1.2203165" />
      <rect
         style="fill:#174017;fill-opacity:1;stroke-width:2.979"
         id="rect7900"
         width="2.0263655"
         height="11.971917"
         x="18.841402"
         y="30.474119"
         rx="0.25083929"
         ry="1.2203165" />
      <rect
         style="fill:#174017;fill-opacity:1;stroke-width:2.979"
         id="rect7902"
         width="2.0127888"
         height="8.4114799"
         x="27.443251"
         y="32.629051"
         rx="0.25083929"
         ry="1.2203165" />
      <rect
         style="fill:#174017;fill-opacity:1;stroke-width:2.979"
         id="rect7904"
         width="1.0963677"
         height="4.4322958"
         x="4.2030797"
         y="33.825947"
         rx="0.25083929"
         ry="1.2203165" />
    </g>
    <g
       id="g7922"
       transform="matrix(-0.3326402,0,0,0.3440962,38.48173,16.521306)">
      <path
         id="path7908"
         style="fill:#225e22;fill-opacity:1;stroke-width:2.11989"
         d="m 44.676477,45.046567 c -0.456845,3.62319 -11.30265,-6.792628 -15.966986,-6.770873 -5.500456,0.02566 -13.980657,0.08134 -16.438645,-3.457792 -2.034278,-2.929057 13.986433,0.619104 19.439232,1.306644 5.452799,0.687539 13.423245,5.298834 12.966399,8.922021 z"
         sodipodi:nodetypes="sssss" />
      <path
         id="path7910"
         style="fill:#225e22;stroke-width:2.53931"
         d="m 35.828801,39.263078 c 0,4.54262 -6.734827,4.824874 -12.069651,5.577551 C 17.468016,45.728232 3.880352,40.311236 0.55668554,36.325935 -2.1940463,33.027621 17.419642,28.390359 23.75915,28.390359 c 6.339508,0 12.069651,6.330105 12.069651,10.872719 z"
         sodipodi:nodetypes="sssss" />
      <path
         id="path7912"
         style="fill:#174017;fill-opacity:1;stroke-width:1.46868"
         d="m 35.063526,38.932089 c 0,1.752843 -12.06361,-2.556067 -16.688582,-2.265635 C 12.920907,37.00895 4.5142897,37.544665 1.6328699,36.006873 -0.75184987,34.734166 15.586879,35.461877 21.082853,35.461877 c 5.495973,0 13.980673,1.717371 13.980673,3.470212 z"
         sodipodi:nodetypes="sssss" />
      <rect
         style="fill:#174017;fill-opacity:1;stroke-width:2.979"
         id="rect7914"
         width="1.5164093"
         height="8.1990547"
         x="11.352146"
         y="32.581093"
         rx="0.25083929"
         ry="1.2203165" />
      <rect
         style="fill:#174017;fill-opacity:1;stroke-width:2.979"
         id="rect7916"
         width="2.0263655"
         height="11.971917"
         x="18.841402"
         y="30.474119"
         rx="0.25083929"
         ry="1.2203165" />
      <rect
         style="fill:#174017;fill-opacity:1;stroke-width:2.979"
         id="rect7918"
         width="2.0127888"
         height="8.4114799"
         x="27.443251"
         y="32.629051"
         rx="0.25083929"
         ry="1.2203165" />
      <rect
         style="fill:#174017;fill-opacity:1;stroke-width:2.979"
         id="rect7920"
         width="1.0963677"
         height="4.4322958"
         x="4.2030797"
         y="33.825947"
         rx="0.25083929"
         ry="1.2203165" />
    </g>
    <g
       id="g7938"
       transform="matrix(0.478182,0,0,0.47557397,51.70737,51.96377)">
      <path
         id="path7924"
         style="fill:#225e22;fill-opacity:1;stroke-width:2.11989"
         d="m 44.676477,45.046567 c -0.456845,3.62319 -11.30265,-6.792628 -15.966986,-6.770873 -5.500456,0.02566 -13.980657,0.08134 -16.438645,-3.457792 -2.034278,-2.929057 13.986433,0.619104 19.439232,1.306644 5.452799,0.687539 13.423245,5.298834 12.966399,8.922021 z"
         sodipodi:nodetypes="sssss" />
      <path
         id="path7926"
         style="fill:#225e22;stroke-width:2.53931"
         d="m 35.828801,39.263078 c 0,4.54262 -6.734827,4.824874 -12.069651,5.577551 C 17.468016,45.728232 3.880352,40.311236 0.55668554,36.325935 -2.1940463,33.027621 17.419642,28.390359 23.75915,28.390359 c 6.339508,0 12.069651,6.330105 12.069651,10.872719 z"
         sodipodi:nodetypes="sssss" />
      <path
         id="path7928"
         style="fill:#174017;fill-opacity:1;stroke-width:1.46868"
         d="m 35.063526,38.932089 c 0,1.752843 -12.06361,-2.556067 -16.688582,-2.265635 C 12.920907,37.00895 4.5142897,37.544665 1.6328699,36.006873 -0.75184987,34.734166 15.586879,35.461877 21.082853,35.461877 c 5.495973,0 13.980673,1.717371 13.980673,3.470212 z"
         sodipodi:nodetypes="sssss" />
      <rect
         style="fill:#174017;fill-opacity:1;stroke-width:2.979"
         id="rect7930"
         width="1.5164093"
         height="8.1990547"
         x="11.352146"
         y="32.581093"
         rx="0.25083929"
         ry="1.2203165" />
      <rect
         style="fill:#174017;fill-opacity:1;stroke-width:2.979"
         id="rect7932"
         width="2.0263655"
         height="11.971917"
         x="18.841402"
         y="30.474119"
         rx="0.25083929"
         ry="1.2203165" />
      <rect
         style="fill:#174017;fill-opacity:1;stroke-width:2.979"
         id="rect7934"
         width="2.0127888"
         height="8.4114799"
         x="27.443251"
         y="32.629051"
         rx="0.25083929"
         ry="1.2203165" />
      <rect
         style="fill:#174017;fill-opacity:1;stroke-width:2.979"
         id="rect7936"
         width="1.0963677"
         height="4.4322958"
         x="4.2030797"
         y="33.825947"
         rx="0.25083929"
         ry="1.2203165" />
    </g>
    <g
       id="g7954"
       transform="matrix(-0.3326402,0,0,0.3440962,86.402607,53.916257)">
      <path
         id="path7940"
         style="fill:#225e22;fill-opacity:1;stroke-width:2.11989"
         d="m 44.676477,45.046567 c -0.456845,3.62319 -11.30265,-6.792628 -15.966986,-6.770873 -5.500456,0.02566 -13.980657,0.08134 -16.438645,-3.457792 -2.034278,-2.929057 13.986433,0.619104 19.439232,1.306644 5.452799,0.687539 13.423245,5.298834 12.966399,8.922021 z"
         sodipodi:nodetypes="sssss" />
      <path
         id="path7942"
         style="fill:#225e22;stroke-width:2.53931"
         d="m 35.828801,39.263078 c 0,4.54262 -6.734827,4.824874 -12.069651,5.577551 C 17.468016,45.728232 3.880352,40.311236 0.55668554,36.325935 -2.1940463,33.027621 17.419642,28.390359 23.75915,28.390359 c 6.339508,0 12.069651,6.330105 12.069651,10.872719 z"
         sodipodi:nodetypes="sssss" />
      <path
         id="path7944"
         style="fill:#174017;fill-opacity:1;stroke-width:1.46868"
         d="m 35.063526,38.932089 c 0,1.752843 -12.06361,-2.556067 -16.688582,-2.265635 C 12.920907,37.00895 4.5142897,37.544665 1.6328699,36.006873 -0.75184987,34.734166 15.586879,35.461877 21.082853,35.461877 c 5.495973,0 13.980673,1.717371 13.980673,3.470212 z"
         sodipodi:nodetypes="sssss" />
      <rect
         style="fill:#174017;fill-opacity:1;stroke-width:2.979"
         id="rect7946"
         width="1.5164093"
         height="8.1990547"
         x="11.352146"
         y="32.581093"
         rx="0.25083929"
         ry="1.2203165" />
      <rect
         style="fill:#174017;fill-opacity:1;stroke-width:2.979"
         id="rect7948"
         width="2.0263655"
         height="11.971917"
         x="18.841402"
         y="30.474119"
         rx="0.25083929"
         ry="1.2203165" />
      <rect
         style="fill:#174017;fill-opacity:1;stroke-width:2.979"
         id="rect7950"
         width="2.0127888"
         height="8.4114799"
         x="27.443251"
         y="32.629051"
         rx="0.25083929"
         ry="1.2203165" />
      <rect
         style="fill:#174017;fill-opacity:1;stroke-width:2.979"
         id="rect7952"
         width="1.0963677"
         height="4.4322958"
         x="4.2030797"
         y="33.825947"
         rx="0.25083929"
         ry="1.2203165" />
    </g>
    <g
       id="g7970"
       transform="matrix(0.3326402,0,0,0.3440962,82.549833,59.991652)">
      <path
         id="path7956"
         style="fill:#225e22;fill-opacity:1;stroke-width:2.11989"
         d="m 44.676477,45.046567 c -0.456845,3.62319 -11.30265,-6.792628 -15.966986,-6.770873 -5.500456,0.02566 -13.980657,0.08134 -16.438645,-3.457792 -2.034278,-2.929057 13.986433,0.619104 19.439232,1.306644 5.452799,0.687539 13.423245,5.298834 12.966399,8.922021 z"
         sodipodi:nodetypes="sssss" />
      <path
         id="path7958"
         style="fill:#225e22;stroke-width:2.53931"
         d="m 35.828801,39.263078 c 0,4.54262 -6.734827,4.824874 -12.069651,5.577551 C 17.468016,45.728232 3.880352,40.311236 0.55668554,36.325935 -2.1940463,33.027621 17.419642,28.390359 23.75915,28.390359 c 6.339508,0 12.069651,6.330105 12.069651,10.872719 z"
         sodipodi:nodetypes="sssss" />
      <path
         id="path7960"
         style="fill:#174017;fill-opacity:1;stroke-width:1.46868"
         d="m 35.063526,38.932089 c 0,1.752843 -12.06361,-2.556067 -16.688582,-2.265635 C 12.920907,37.00895 4.5142897,37.544665 1.6328699,36.006873 -0.75184987,34.734166 15.586879,35.461877 21.082853,35.461877 c 5.495973,0 13.980673,1.717371 13.980673,3.470212 z"
         sodipodi:nodetypes="sssss" />
      <rect
         style="fill:#174017;fill-opacity:1;stroke-width:2.979"
         id="rect7962"
         width="1.5164093"
         height="8.1990547"
         x="11.352146"
         y="32.581093"
         rx="0.25083929"
         ry="1.2203165" />
      <rect
         style="fill:#174017;fill-opacity:1;stroke-width:2.979"
         id="rect7964"
         width="2.0263655"
         height="11.971917"
         x="18.841402"
         y="30.474119"
         rx="0.25083929"
         ry="1.2203165" />
      <rect
         style="fill:#174017;fill-opacity:1;stroke-width:2.979"
         id="rect7966"
         width="2.0127888"
         height="8.4114799"
         x="27.443251"
         y="32.629051"
         rx="0.25083929"
         ry="1.2203165" />
      <rect
         style="fill:#174017;fill-opacity:1;stroke-width:2.979"
         id="rect7968"
         width="1.0963677"
         height="4.4322958"
         x="4.2030797"
         y="33.825947"
         rx="0.25083929"
         ry="1.2203165" />
    </g>
    <g
       id="g7986"
       transform="matrix(-0.3326402,0,0,0.3440962,91.668338,65.52268)">
      <path
         id="path7972"
         style="fill:#225e22;fill-opacity:1;stroke-width:2.11989"
         d="m 44.676477,45.046567 c -0.456845,3.62319 -11.30265,-6.792628 -15.966986,-6.770873 -5.500456,0.02566 -13.980657,0.08134 -16.438645,-3.457792 -2.034278,-2.929057 13.986433,0.619104 19.439232,1.306644 5.452799,0.687539 13.423245,5.298834 12.966399,8.922021 z"
         sodipodi:nodetypes="sssss" />
      <path
         id="path7974"
         style="fill:#225e22;stroke-width:2.53931"
         d="m 35.828801,39.263078 c 0,4.54262 -6.734827,4.824874 -12.069651,5.577551 C 17.468016,45.728232 3.880352,40.311236 0.55668554,36.325935 -2.1940463,33.027621 17.419642,28.390359 23.75915,28.390359 c 6.339508,0 12.069651,6.330105 12.069651,10.872719 z"
         sodipodi:nodetypes="sssss" />
      <path
         id="path7976"
         style="fill:#174017;fill-opacity:1;stroke-width:1.46868"
         d="m 35.063526,38.932089 c 0,1.752843 -12.06361,-2.556067 -16.688582,-2.265635 C 12.920907,37.00895 4.5142897,37.544665 1.6328699,36.006873 -0.75184987,34.734166 15.586879,35.461877 21.082853,35.461877 c 5.495973,0 13.980673,1.717371 13.980673,3.470212 z"
         sodipodi:nodetypes="sssss" />
      <rect
         style="fill:#174017;fill-opacity:1;stroke-width:2.979"
         id="rect7978"
         width="1.5164093"
         height="8.1990547"
         x="11.352146"
         y="32.581093"
         rx="0.25083929"
         ry="1.2203165" />
      <rect
         style="fill:#174017;fill-opacity:1;stroke-width:2.979"
         id="rect7980"
         width="2.0263655"
         height="11.971917"
         x="18.841402"
         y="30.474119"
         rx="0.25083929"
         ry="1.2203165" />
      <rect
         style="fill:#174017;fill-opacity:1;stroke-width:2.979"
         id="rect7982"
         width="2.0127888"
         height="8.4114799"
         x="27.443251"
         y="32.629051"
         rx="0.25083929"
         ry="1.2203165" />
      <rect
         style="fill:#174017;fill-opacity:1;stroke-width:2.979"
         id="rect7984"
         width="1.0963677"
         height="4.4322958"
         x="4.2030797"
         y="33.825947"
         rx="0.25083929"
         ry="1.2203165" />
    </g>
    <g
       id="g8140"
       transform="matrix(0.3326402,0,0,0.3440962,56.791986,-4.0681741)">
      <path
         id="path8126"
         style="fill:#225e22;fill-opacity:1;stroke-width:2.11989"
         d="m 44.676477,45.046567 c -0.456845,3.62319 -11.30265,-6.792628 -15.966986,-6.770873 -5.500456,0.02566 -13.980657,0.08134 -16.438645,-3.457792 -2.034278,-2.929057 13.986433,0.619104 19.439232,1.306644 5.452799,0.687539 13.423245,5.298834 12.966399,8.922021 z"
         sodipodi:nodetypes="sssss" />
      <path
         id="path8128"
         style="fill:#225e22;stroke-width:2.53931"
         d="m 35.828801,39.263078 c 0,4.54262 -6.734827,4.824874 -12.069651,5.577551 C 17.468016,45.728232 3.880352,40.311236 0.55668554,36.325935 -2.1940463,33.027621 17.419642,28.390359 23.75915,28.390359 c 6.339508,0 12.069651,6.330105 12.069651,10.872719 z"
         sodipodi:nodetypes="sssss" />
      <path
         id="path8130"
         style="fill:#174017;fill-opacity:1;stroke-width:1.46868"
         d="m 35.063526,38.932089 c 0,1.752843 -12.06361,-2.556067 -16.688582,-2.265635 C 12.920907,37.00895 4.5142897,37.544665 1.6328699,36.006873 -0.75184987,34.734166 15.586879,35.461877 21.082853,35.461877 c 5.495973,0 13.980673,1.717371 13.980673,3.470212 z"
         sodipodi:nodetypes="sssss" />
      <rect
         style="fill:#174017;fill-opacity:1;stroke-width:2.979"
         id="rect8132"
         width="1.5164093"
         height="8.1990547"
         x="11.352146"
         y="32.581093"
         rx="0.25083929"
         ry="1.2203165" />
      <rect
         style="fill:#174017;fill-opacity:1;stroke-width:2.979"
         id="rect8134"
         width="2.0263655"
         height="11.971917"
         x="18.841402"
         y="30.474119"
         rx="0.25083929"
         ry="1.2203165" />
      <rect
         style="fill:#174017;fill-opacity:1;stroke-width:2.979"
         id="rect8136"
         width="2.0127888"
         height="8.4114799"
         x="27.443251"
         y="32.629051"
         rx="0.25083929"
         ry="1.2203165" />
      <rect
         style="fill:#174017;fill-opacity:1;stroke-width:2.979"
         id="rect8138"
         width="1.0963677"
         height="4.4322958"
         x="4.2030797"
         y="33.825947"
         rx="0.25083929"
         ry="1.2203165" />
    </g>
    <g
       id="g8156"
       transform="matrix(-0.3326402,0,0,0.3440962,84.982192,-8.1389575)">
      <path
         id="path8142"
         style="fill:#225e22;fill-opacity:1;stroke-width:2.11989"
         d="m 44.676477,45.046567 c -0.456845,3.62319 -11.30265,-6.792628 -15.966986,-6.770873 -5.500456,0.02566 -13.980657,0.08134 -16.438645,-3.457792 -2.034278,-2.929057 13.986433,0.619104 19.439232,1.306644 5.452799,0.687539 13.423245,5.298834 12.966399,8.922021 z"
         sodipodi:nodetypes="sssss" />
      <path
         id="path8144"
         style="fill:#225e22;stroke-width:2.53931"
         d="m 35.828801,39.263078 c 0,4.54262 -6.734827,4.824874 -12.069651,5.577551 C 17.468016,45.728232 3.880352,40.311236 0.55668554,36.325935 -2.1940463,33.027621 17.419642,28.390359 23.75915,28.390359 c 6.339508,0 12.069651,6.330105 12.069651,10.872719 z"
         sodipodi:nodetypes="sssss" />
      <path
         id="path8146"
         style="fill:#174017;fill-opacity:1;stroke-width:1.46868"
         d="m 35.063526,38.932089 c 0,1.752843 -12.06361,-2.556067 -16.688582,-2.265635 C 12.920907,37.00895 4.5142897,37.544665 1.6328699,36.006873 -0.75184987,34.734166 15.586879,35.461877 21.082853,35.461877 c 5.495973,0 13.980673,1.717371 13.980673,3.470212 z"
         sodipodi:nodetypes="sssss" />
      <rect
         style="fill:#174017;fill-opacity:1;stroke-width:2.979"
         id="rect8148"
         width="1.5164093"
         height="8.1990547"
         x="11.352146"
         y="32.581093"
         rx="0.25083929"
         ry="1.2203165" />
      <rect
         style="fill:#174017;fill-opacity:1;stroke-width:2.979"
         id="rect8150"
         width="2.0263655"
         height="11.971917"
         x="18.841402"
         y="30.474119"
         rx="0.25083929"
         ry="1.2203165" />
      <rect
         style="fill:#174017;fill-opacity:1;stroke-width:2.979"
         id="rect8152"
         width="2.0127888"
         height="8.4114799"
         x="27.443251"
         y="32.629051"
         rx="0.25083929"
         ry="1.2203165" />
      <rect
         style="fill:#174017;fill-opacity:1;stroke-width:2.979"
         id="rect8154"
         width="1.0963677"
         height="4.4322958"
         x="4.2030797"
         y="33.825947"
         rx="0.25083929"
         ry="1.2203165" />
    </g>
    <g
       id="g8172"
       transform="matrix(0.46997784,0,0,0.4182534,81.089044,-5.4608585)">
      <path
         id="path8158"
         style="fill:#225e22;fill-opacity:1;stroke-width:2.11989"
         d="m 44.676477,45.046567 c -0.456845,3.62319 -11.30265,-6.792628 -15.966986,-6.770873 -5.500456,0.02566 -13.980657,0.08134 -16.438645,-3.457792 -2.034278,-2.929057 13.986433,0.619104 19.439232,1.306644 5.452799,0.687539 13.423245,5.298834 12.966399,8.922021 z"
         sodipodi:nodetypes="sssss" />
      <path
         id="path8160"
         style="fill:#225e22;stroke-width:2.53931"
         d="m 35.828801,39.263078 c 0,4.54262 -6.734827,4.824874 -12.069651,5.577551 C 17.468016,45.728232 3.880352,40.311236 0.55668554,36.325935 -2.1940463,33.027621 17.419642,28.390359 23.75915,28.390359 c 6.339508,0 12.069651,6.330105 12.069651,10.872719 z"
         sodipodi:nodetypes="sssss" />
      <path
         id="path8162"
         style="fill:#174017;fill-opacity:1;stroke-width:1.46868"
         d="m 35.063526,38.932089 c 0,1.752843 -12.06361,-2.556067 -16.688582,-2.265635 C 12.920907,37.00895 4.5142897,37.544665 1.6328699,36.006873 -0.75184987,34.734166 15.586879,35.461877 21.082853,35.461877 c 5.495973,0 13.980673,1.717371 13.980673,3.470212 z"
         sodipodi:nodetypes="sssss" />
      <rect
         style="fill:#174017;fill-opacity:1;stroke-width:2.979"
         id="rect8164"
         width="1.5164093"
         height="8.1990547"
         x="11.352146"
         y="32.581093"
         rx="0.25083929"
         ry="1.2203165" />
      <rect
         style="fill:#174017;fill-opacity:1;stroke-width:2.979"
         id="rect8166"
         width="2.0263655"
         height="11.971917"
         x="18.841402"
         y="30.474119"
         rx="0.25083929"
         ry="1.2203165" />
      <rect
         style="fill:#174017;fill-opacity:1;stroke-width:2.979"
         id="rect8168"
         width="2.0127888"
         height="8.4114799"
         x="27.443251"
         y="32.629051"
         rx="0.25083929"
         ry="1.2203165" />
      <rect
         style="fill:#174017;fill-opacity:1;stroke-width:2.979"
         id="rect8170"
         width="1.0963677"
         height="4.4322958"
         x="4.2030797"
         y="33.825947"
         rx="0.25083929"
         ry="1.2203165" />
    </g>
    <g
       id="g8188"
       transform="matrix(-0.3326402,0,0,0.3440962,90.247923,3.4674652)">
      <path
         id="path8174"
         style="fill:#225e22;fill-opacity:1;stroke-width:2.11989"
         d="m 44.676477,45.046567 c -0.456845,3.62319 -11.30265,-6.792628 -15.966986,-6.770873 -5.500456,0.02566 -13.980657,0.08134 -16.438645,-3.457792 -2.034278,-2.929057 13.986433,0.619104 19.439232,1.306644 5.452799,0.687539 13.423245,5.298834 12.966399,8.922021 z"
         sodipodi:nodetypes="sssss" />
      <path
         id="path8176"
         style="fill:#225e22;stroke-width:2.53931"
         d="m 35.828801,39.263078 c 0,4.54262 -6.734827,4.824874 -12.069651,5.577551 C 17.468016,45.728232 3.880352,40.311236 0.55668554,36.325935 -2.1940463,33.027621 17.419642,28.390359 23.75915,28.390359 c 6.339508,0 12.069651,6.330105 12.069651,10.872719 z"
         sodipodi:nodetypes="sssss" />
      <path
         id="path8178"
         style="fill:#174017;fill-opacity:1;stroke-width:1.46868"
         d="m 35.063526,38.932089 c 0,1.752843 -12.06361,-2.556067 -16.688582,-2.265635 C 12.920907,37.00895 4.5142897,37.544665 1.6328699,36.006873 -0.75184987,34.734166 15.586879,35.461877 21.082853,35.461877 c 5.495973,0 13.980673,1.717371 13.980673,3.470212 z"
         sodipodi:nodetypes="sssss" />
      <rect
         style="fill:#174017;fill-opacity:1;stroke-width:2.979"
         id="rect8180"
         width="1.5164093"
         height="8.1990547"
         x="11.352146"
         y="32.581093"
         rx="0.25083929"
         ry="1.2203165" />
      <rect
         style="fill:#174017;fill-opacity:1;stroke-width:2.979"
         id="rect8182"
         width="2.0263655"
         height="11.971917"
         x="18.841402"
         y="30.474119"
         rx="0.25083929"
         ry="1.2203165" />
      <rect
         style="fill:#174017;fill-opacity:1;stroke-width:2.979"
         id="rect8184"
         width="2.0127888"
         height="8.4114799"
         x="27.443251"
         y="32.629051"
         rx="0.25083929"
         ry="1.2203165" />
      <rect
         style="fill:#174017;fill-opacity:1;stroke-width:2.979"
         id="rect8186"
         width="1.0963677"
         height="4.4322958"
         x="4.2030797"
         y="33.825947"
         rx="0.25083929"
         ry="1.2203165" />
    </g>
    <g
       id="g10152"
       transform="matrix(1.1957679,0,0,1.5933124,-10.624638,-34.090404)">
      <g
         id="g9958">
        <path
           id="rect8313"
           style="fill:#1d4f1d;fill-opacity:1;stroke-width:2.979"
           d="m 54.272117,38.591254 0.906441,-3.730439 c 0,0 3.08396,8.604517 3.114668,9.279874 l 0.525917,11.566547 c 0.03066,0.675359 0.798426,1.53583 0.659487,1.533102 l -4.024731,-0.07904 c -0.138938,-0.0027 0.47638,-0.576205 0.46679,-1.252193 l -0.139935,-9.863223 c -0.0096,-0.675987 -1.541448,-7.319594 -1.508636,-7.454631 z"
           sodipodi:nodetypes="scsssssss" />
        <path
           id="path8911"
           style="fill:#4ec14e;fill-opacity:1;stroke-width:1.49068"
           d="m 55.375445,40.241774 0.08455,-3.256284 c 0,0 1.289962,7.491569 1.33056,8.08036 l 0.695317,10.083961 c 0.04064,0.588791 0.301404,1.336254 0.261405,1.334394 l -1.158647,-0.05393 c -0.04,-0.0018 0.109579,-0.504219 0.07501,-1.09364 l -0.504394,-8.600116 c -0.03454,-0.589418 -0.786848,-6.376874 -0.783789,-6.494748 z"
           sodipodi:nodetypes="scsssssss" />
      </g>
      <g
         id="g9964"
         transform="translate(3.6299791,-1.8829444)">
        <path
           id="path9960"
           style="fill:#1d4f1d;fill-opacity:1;stroke-width:2.979"
           d="m 54.272117,38.591254 0.906441,-3.730439 c 0,0 3.08396,8.604517 3.114668,9.279874 l 0.525917,11.566547 c 0.03066,0.675359 0.798426,1.53583 0.659487,1.533102 l -4.024731,-0.07904 c -0.138938,-0.0027 0.47638,-0.576205 0.46679,-1.252193 l -0.139935,-9.863223 c -0.0096,-0.675987 -1.541448,-7.319594 -1.508636,-7.454631 z"
           sodipodi:nodetypes="scsssssss" />
        <path
           id="path9962"
           style="fill:#4ec14e;fill-opacity:1;stroke-width:1.49068"
           d="m 55.375445,40.241774 0.08455,-3.256284 c 0,0 1.289962,7.491569 1.33056,8.08036 l 0.695317,10.083961 c 0.04064,0.588791 0.301404,1.336254 0.261405,1.334394 l -1.158647,-0.05393 c -0.04,-0.0018 0.109579,-0.504219 0.07501,-1.09364 l -0.504394,-8.600116 c -0.03454,-0.589418 -0.786848,-6.376874 -0.783789,-6.494748 z"
           sodipodi:nodetypes="scsssssss" />
      </g>
      <g
         id="g10005"
         transform="translate(8.9104463,-6.0991533)">
        <path
           id="path10001"
           style="fill:#1d4f1d;fill-opacity:1;stroke-width:2.979"
           d="m 54.272117,38.591254 0.906441,-3.730439 c 0,0 3.08396,8.604517 3.114668,9.279874 l 0.525917,11.566547 c 0.03066,0.675359 0.798426,1.53583 0.659487,1.533102 l -4.024731,-0.07904 c -0.138938,-0.0027 0.47638,-0.576205 0.46679,-1.252193 l -0.139935,-9.863223 c -0.0096,-0.675987 -1.541448,-7.319594 -1.508636,-7.454631 z"
           sodipodi:nodetypes="scsssssss" />
        <path
           id="path10003"
           style="fill:#4ec14e;fill-opacity:1;stroke-width:1.49068"
           d="m 55.375445,40.241774 0.08455,-3.256284 c 0,0 1.289962,7.491569 1.33056,8.08036 l 0.695317,10.083961 c 0.04064,0.588791 0.301404,1.336254 0.261405,1.334394 l -1.158647,-0.05393 c -0.04,-0.0018 0.109579,-0.504219 0.07501,-1.09364 l -0.504394,-8.600116 c -0.03454,-0.589418 -0.786848,-6.376874 -0.783789,-6.494748 z"
           sodipodi:nodetypes="scsssssss" />
      </g>
      <g
         id="g9999"
         transform="matrix(-1,0,0,1,145.01647,-0.76451097)">
        <g
           id="g9976"
           transform="translate(13.313999,-1.8410934)">
          <path
             id="path9972"
             style="fill:#1d4f1d;fill-opacity:1;stroke-width:2.979"
             d="m 54.272117,38.591254 0.906441,-3.730439 c 0,0 3.08396,8.604517 3.114668,9.279874 l 0.525917,11.566547 c 0.03066,0.675359 0.798426,1.53583 0.659487,1.533102 l -4.024731,-0.07904 c -0.138938,-0.0027 0.47638,-0.576205 0.46679,-1.252193 l -0.139935,-9.863223 c -0.0096,-0.675987 -1.541448,-7.319594 -1.508636,-7.454631 z"
             sodipodi:nodetypes="scsssssss" />
          <path
             id="path9974"
             style="fill:#4ec14e;fill-opacity:1;stroke-width:1.49068"
             d="m 55.375445,40.241774 0.08455,-3.256284 c 0,0 1.289962,7.491569 1.33056,8.08036 l 0.695317,10.083961 c 0.04064,0.588791 0.301404,1.336254 0.261405,1.334394 l -1.158647,-0.05393 c -0.04,-0.0018 0.109579,-0.504219 0.07501,-1.09364 l -0.504394,-8.600116 c -0.03454,-0.589418 -0.786848,-6.376874 -0.783789,-6.494748 z"
             sodipodi:nodetypes="scsssssss" />
        </g>
        <g
           id="g9982"
           transform="translate(16.943978,-3.7240378)">
          <path
             id="path9978"
             style="fill:#1d4f1d;fill-opacity:1;stroke-width:2.979"
             d="m 54.272117,38.591254 0.906441,-3.730439 c 0,0 3.08396,8.604517 3.114668,9.279874 l 0.525917,11.566547 c 0.03066,0.675359 0.798426,1.53583 0.659487,1.533102 l -4.024731,-0.07904 c -0.138938,-0.0027 0.47638,-0.576205 0.46679,-1.252193 l -0.139935,-9.863223 c -0.0096,-0.675987 -1.541448,-7.319594 -1.508636,-7.454631 z"
             sodipodi:nodetypes="scsssssss" />
          <path
             id="path9980"
             style="fill:#4ec14e;fill-opacity:1;stroke-width:1.49068"
             d="m 55.375445,40.241774 0.08455,-3.256284 c 0,0 1.289962,7.491569 1.33056,8.08036 l 0.695317,10.083961 c 0.04064,0.588791 0.301404,1.336254 0.261405,1.334394 l -1.158647,-0.05393 c -0.04,-0.0018 0.109579,-0.504219 0.07501,-1.09364 l -0.504394,-8.600116 c -0.03454,-0.589418 -0.786848,-6.376874 -0.783789,-6.494748 z"
             sodipodi:nodetypes="scsssssss" />
        </g>
        <g
           id="g9988"
           transform="translate(20.578363,-0.12241827)">
          <path
             id="path9984"
             style="fill:#1d4f1d;fill-opacity:1;stroke-width:2.979"
             d="m 54.272117,38.591254 0.906441,-3.730439 c 0,0 3.08396,8.604517 3.114668,9.279874 l 0.525917,11.566547 c 0.03066,0.675359 0.798426,1.53583 0.659487,1.533102 l -4.024731,-0.07904 c -0.138938,-0.0027 0.47638,-0.576205 0.46679,-1.252193 l -0.139935,-9.863223 c -0.0096,-0.675987 -1.541448,-7.319594 -1.508636,-7.454631 z"
             sodipodi:nodetypes="scsssssss" />
          <path
             id="path9986"
             style="fill:#4ec14e;fill-opacity:1;stroke-width:1.49068"
             d="m 55.375445,40.241774 0.08455,-3.256284 c 0,0 1.289962,7.491569 1.33056,8.08036 l 0.695317,10.083961 c 0.04064,0.588791 0.301404,1.336254 0.261405,1.334394 l -1.158647,-0.05393 c -0.04,-0.0018 0.109579,-0.504219 0.07501,-1.09364 l -0.504394,-8.600116 c -0.03454,-0.589418 -0.786848,-6.376874 -0.783789,-6.494748 z"
             sodipodi:nodetypes="scsssssss" />
        </g>
      </g>
      <g
         id="g9970"
         transform="translate(7.2643636,1.7186751)">
        <path
           id="path9966"
           style="fill:#1d4f1d;fill-opacity:1;stroke-width:2.979"
           d="m 54.272117,38.591254 0.906441,-3.730439 c 0,0 3.08396,8.604517 3.114668,9.279874 l 0.525917,11.566547 c 0.03066,0.675359 0.798426,1.53583 0.659487,1.533102 l -4.024731,-0.07904 c -0.138938,-0.0027 0.47638,-0.576205 0.46679,-1.252193 l -0.139935,-9.863223 c -0.0096,-0.675987 -1.541448,-7.319594 -1.508636,-7.454631 z"
           sodipodi:nodetypes="scsssssss" />
        <path
           id="path9968"
           style="fill:#4ec14e;fill-opacity:1;stroke-width:1.49068"
           d="m 55.375445,40.241774 0.08455,-3.256284 c 0,0 1.289962,7.491569 1.33056,8.08036 l 0.695317,10.083961 c 0.04064,0.588791 0.301404,1.336254 0.261405,1.334394 l -1.158647,-0.05393 c -0.04,-0.0018 0.109579,-0.504219 0.07501,-1.09364 l -0.504394,-8.600116 c -0.03454,-0.589418 -0.786848,-6.376874 -0.783789,-6.494748 z"
           sodipodi:nodetypes="scsssssss" />
      </g>
    </g>
    <g
       id="g10726">
      <path
         id="path10369"
         style="fill:#000000;fill-opacity:0.20274338;stroke-width:2.979"
         d="m 42.286516,87.776845 c 0,3.614968 -10.566425,8.584336 -18.042028,8.803344 C 14.843617,96.8556 6.2742712,95.0215 6.2742715,91.406532 c 1.1e-6,-3.614968 11.2420795,-4.215276 20.6469835,-4.215276 9.404903,0 15.36526,-3.029379 15.365261,0.585589 z"
         sodipodi:nodetypes="sssss" />
    </g>
    <g
       id="g10198"
       transform="matrix(1.1957679,0,0,1.5933124,-62.03497,3.7743023)">
      <g
         id="g10158">
        <path
           id="path10154"
           style="fill:#1d4f1d;fill-opacity:1;stroke-width:2.979"
           d="m 54.272117,38.591254 0.906441,-3.730439 c 0,0 3.08396,8.604517 3.114668,9.279874 l 0.525917,11.566547 c 0.03066,0.675359 0.798426,1.53583 0.659487,1.533102 l -4.024731,-0.07904 c -0.138938,-0.0027 0.47638,-0.576205 0.46679,-1.252193 l -0.139935,-9.863223 c -0.0096,-0.675987 -1.541448,-7.319594 -1.508636,-7.454631 z"
           sodipodi:nodetypes="scsssssss" />
        <path
           id="path10156"
           style="fill:#4ec14e;fill-opacity:1;stroke-width:1.49068"
           d="m 55.375445,40.241774 0.08455,-3.256284 c 0,0 1.289962,7.491569 1.33056,8.08036 l 0.695317,10.083961 c 0.04064,0.588791 0.301404,1.336254 0.261405,1.334394 l -1.158647,-0.05393 c -0.04,-0.0018 0.109579,-0.504219 0.07501,-1.09364 l -0.504394,-8.600116 c -0.03454,-0.589418 -0.786848,-6.376874 -0.783789,-6.494748 z"
           sodipodi:nodetypes="scsssssss" />
      </g>
      <g
         id="g10164"
         transform="translate(3.6299791,-1.8829444)">
        <path
           id="path10160"
           style="fill:#1d4f1d;fill-opacity:1;stroke-width:2.979"
           d="m 54.272117,38.591254 0.906441,-3.730439 c 0,0 3.08396,8.604517 3.114668,9.279874 l 0.525917,11.566547 c 0.03066,0.675359 0.798426,1.53583 0.659487,1.533102 l -4.024731,-0.07904 c -0.138938,-0.0027 0.47638,-0.576205 0.46679,-1.252193 l -0.139935,-9.863223 c -0.0096,-0.675987 -1.541448,-7.319594 -1.508636,-7.454631 z"
           sodipodi:nodetypes="scsssssss" />
        <path
           id="path10162"
           style="fill:#4ec14e;fill-opacity:1;stroke-width:1.49068"
           d="m 55.375445,40.241774 0.08455,-3.256284 c 0,0 1.289962,7.491569 1.33056,8.08036 l 0.695317,10.083961 c 0.04064,0.588791 0.301404,1.336254 0.261405,1.334394 l -1.158647,-0.05393 c -0.04,-0.0018 0.109579,-0.504219 0.07501,-1.09364 l -0.504394,-8.600116 c -0.03454,-0.589418 -0.786848,-6.376874 -0.783789,-6.494748 z"
           sodipodi:nodetypes="scsssssss" />
      </g>
      <g
         id="g10170"
         transform="translate(8.9104463,-6.0991533)">
        <path
           id="path10166"
           style="fill:#1d4f1d;fill-opacity:1;stroke-width:2.979"
           d="m 54.272117,38.591254 0.906441,-3.730439 c 0,0 3.08396,8.604517 3.114668,9.279874 l 0.525917,11.566547 c 0.03066,0.675359 0.798426,1.53583 0.659487,1.533102 l -4.024731,-0.07904 c -0.138938,-0.0027 0.47638,-0.576205 0.46679,-1.252193 l -0.139935,-9.863223 c -0.0096,-0.675987 -1.541448,-7.319594 -1.508636,-7.454631 z"
           sodipodi:nodetypes="scsssssss" />
        <path
           id="path10168"
           style="fill:#4ec14e;fill-opacity:1;stroke-width:1.49068"
           d="m 55.375445,40.241774 0.08455,-3.256284 c 0,0 1.289962,7.491569 1.33056,8.08036 l 0.695317,10.083961 c 0.04064,0.588791 0.301404,1.336254 0.261405,1.334394 l -1.158647,-0.05393 c -0.04,-0.0018 0.109579,-0.504219 0.07501,-1.09364 l -0.504394,-8.600116 c -0.03454,-0.589418 -0.786848,-6.376874 -0.783789,-6.494748 z"
           sodipodi:nodetypes="scsssssss" />
      </g>
      <g
         id="g10190"
         transform="matrix(-1,0,0,1,145.01647,-0.76451097)">
        <g
           id="g10176"
           transform="translate(13.313999,-1.8410934)">
          <path
             id="path10172"
             style="fill:#1d4f1d;fill-opacity:1;stroke-width:2.979"
             d="m 54.272117,38.591254 0.906441,-3.730439 c 0,0 3.08396,8.604517 3.114668,9.279874 l 0.525917,11.566547 c 0.03066,0.675359 0.798426,1.53583 0.659487,1.533102 l -4.024731,-0.07904 c -0.138938,-0.0027 0.47638,-0.576205 0.46679,-1.252193 l -0.139935,-9.863223 c -0.0096,-0.675987 -1.541448,-7.319594 -1.508636,-7.454631 z"
             sodipodi:nodetypes="scsssssss" />
          <path
             id="path10174"
             style="fill:#4ec14e;fill-opacity:1;stroke-width:1.49068"
             d="m 55.375445,40.241774 0.08455,-3.256284 c 0,0 1.289962,7.491569 1.33056,8.08036 l 0.695317,10.083961 c 0.04064,0.588791 0.301404,1.336254 0.261405,1.334394 l -1.158647,-0.05393 c -0.04,-0.0018 0.109579,-0.504219 0.07501,-1.09364 l -0.504394,-8.600116 c -0.03454,-0.589418 -0.786848,-6.376874 -0.783789,-6.494748 z"
             sodipodi:nodetypes="scsssssss" />
        </g>
        <g
           id="g10182"
           transform="translate(16.943978,-3.7240378)">
          <path
             id="path10178"
             style="fill:#1d4f1d;fill-opacity:1;stroke-width:2.979"
             d="m 54.272117,38.591254 0.906441,-3.730439 c 0,0 3.08396,8.604517 3.114668,9.279874 l 0.525917,11.566547 c 0.03066,0.675359 0.798426,1.53583 0.659487,1.533102 l -4.024731,-0.07904 c -0.138938,-0.0027 0.47638,-0.576205 0.46679,-1.252193 l -0.139935,-9.863223 c -0.0096,-0.675987 -1.541448,-7.319594 -1.508636,-7.454631 z"
             sodipodi:nodetypes="scsssssss" />
          <path
             id="path10180"
             style="fill:#4ec14e;fill-opacity:1;stroke-width:1.49068"
             d="m 55.375445,40.241774 0.08455,-3.256284 c 0,0 1.289962,7.491569 1.33056,8.08036 l 0.695317,10.083961 c 0.04064,0.588791 0.301404,1.336254 0.261405,1.334394 l -1.158647,-0.05393 c -0.04,-0.0018 0.109579,-0.504219 0.07501,-1.09364 l -0.504394,-8.600116 c -0.03454,-0.589418 -0.786848,-6.376874 -0.783789,-6.494748 z"
             sodipodi:nodetypes="scsssssss" />
        </g>
        <g
           id="g10188"
           transform="translate(20.578363,-0.12241827)">
          <path
             id="path10184"
             style="fill:#1d4f1d;fill-opacity:1;stroke-width:2.979"
             d="m 54.272117,38.591254 0.906441,-3.730439 c 0,0 3.08396,8.604517 3.114668,9.279874 l 0.525917,11.566547 c 0.03066,0.675359 0.798426,1.53583 0.659487,1.533102 l -4.024731,-0.07904 c -0.138938,-0.0027 0.47638,-0.576205 0.46679,-1.252193 l -0.139935,-9.863223 c -0.0096,-0.675987 -1.541448,-7.319594 -1.508636,-7.454631 z"
             sodipodi:nodetypes="scsssssss" />
          <path
             id="path10186"
             style="fill:#4ec14e;fill-opacity:1;stroke-width:1.49068"
             d="m 55.375445,40.241774 0.08455,-3.256284 c 0,0 1.289962,7.491569 1.33056,8.08036 l 0.695317,10.083961 c 0.04064,0.588791 0.301404,1.336254 0.261405,1.334394 l -1.158647,-0.05393 c -0.04,-0.0018 0.109579,-0.504219 0.07501,-1.09364 l -0.504394,-8.600116 c -0.03454,-0.589418 -0.786848,-6.376874 -0.783789,-6.494748 z"
             sodipodi:nodetypes="scsssssss" />
        </g>
      </g>
      <g
         id="g10196"
         transform="translate(7.2643636,1.7186751)">
        <path
           id="path10192"
           style="fill:#1d4f1d;fill-opacity:1;stroke-width:2.979"
           d="m 54.272117,38.591254 0.906441,-3.730439 c 0,0 3.08396,8.604517 3.114668,9.279874 l 0.525917,11.566547 c 0.03066,0.675359 0.798426,1.53583 0.659487,1.533102 l -4.024731,-0.07904 c -0.138938,-0.0027 0.47638,-0.576205 0.46679,-1.252193 l -0.139935,-9.863223 c -0.0096,-0.675987 -1.541448,-7.319594 -1.508636,-7.454631 z"
           sodipodi:nodetypes="scsssssss" />
        <path
           id="path10194"
           style="fill:#4ec14e;fill-opacity:1;stroke-width:1.49068"
           d="m 55.375445,40.241774 0.08455,-3.256284 c 0,0 1.289962,7.491569 1.33056,8.08036 l 0.695317,10.083961 c 0.04064,0.588791 0.301404,1.336254 0.261405,1.334394 l -1.158647,-0.05393 c -0.04,-0.0018 0.109579,-0.504219 0.07501,-1.09364 l -0.504394,-8.600116 c -0.03454,-0.589418 -0.786848,-6.376874 -0.783789,-6.494748 z"
           sodipodi:nodetypes="scsssssss" />
      </g>
    </g>
  </g>
</svg>
