<?xml version="1.0" encoding="utf-8"?>
<svg xmlns="http://www.w3.org/2000/svg" viewBox="0 0 20 80" width="15px" height="80px">
  <defs>
    <linearGradient gradientUnits="userSpaceOnUse" x1="7.408" y1="55.218" x2="7.408" y2="78.54" id="gradient-1" gradientTransform="matrix(1.285652, 0, 0, 1, 0.208802, 0.567818)">
      <stop offset="0" style="stop-color: rgb(100% 100% 100%)"/>
      <stop offset="1" style="stop-color: rgb(56.687% 56.687% 56.687%)"/>
    </linearGradient>
    <linearGradient gradientUnits="userSpaceOnUse" x1="2.136" y1="1.145" x2="2.136" y2="10.637" id="gradient-2" gradientTransform="matrix(1.459697, 0, 0, 0.872043, 0.035109, 0.825897)">
      <stop offset="0" style="stop-color: rgb(100% 100% 100%)"/>
      <stop offset="1" style="stop-color: rgb(56.687% 56.687% 56.687%)"/>
    </linearGradient>
    <linearGradient gradientUnits="userSpaceOnUse" x1="12.07" y1="0.538" x2="12.07" y2="8.854" id="gradient-3" gradientTransform="matrix(1.459697, 0, 0, 0.872043, 0.035109, 0.825897)">
      <stop offset="0" style="stop-color: rgb(100% 100% 100%)"/>
      <stop offset="1" style="stop-color: rgb(56.687% 56.687% 56.687%)"/>
    </linearGradient>
    <linearGradient gradientUnits="userSpaceOnUse" x1="8.828" y1="14.225" x2="8.828" y2="24.205" id="gradient-4" gradientTransform="matrix(1.459697, 0, 0, 0.872043, 0.035109, 3.664988)">
      <stop offset="0" style="stop-color: rgb(100% 100% 100%)"/>
      <stop offset="1" style="stop-color: rgb(56.687% 56.687% 56.687%)"/>
    </linearGradient>
    <linearGradient gradientUnits="userSpaceOnUse" x1="7.488" y1="7.69" x2="7.488" y2="65.079" id="gradient-0" gradientTransform="matrix(1.213474, 0, 0, 1, 0.749268, 0.567818)">
      <stop offset="0" style="stop-color: rgb(100% 100% 100%)"/>
      <stop offset="1" style="stop-color: rgb(56.687% 56.687% 56.687%)"/>
    </linearGradient>
  </defs>
  <path d="M 18.018 65.647 L 1.654 65.647 L 1.654 16.521 C 2.738 19.137 4.221 20.864 5.398 20.675 C 6.947 20.425 7.385 16.956 6.377 12.926 C 5.92 11.097 5.246 9.47 4.5 8.258 L 14.189 8.258 C 13.55 9.406 12.983 10.856 12.582 12.457 C 11.575 16.492 12.012 19.961 13.562 20.21 C 15.026 20.447 16.961 17.712 18.018 13.997 L 18.018 65.647 Z" style="stroke-width: 2px; stroke: url(&quot;#gradient-0&quot;); fill: rgb(254, 0, 0);"/>
  <path d="M 17.141 61.821 L 2.696 61.821 L 2.696 36.759 C 3.654 38.094 4.962 38.975 6.001 38.878 C 7.368 38.75 7.755 36.981 6.866 34.925 C 6.463 33.993 5.868 33.161 5.209 32.545 L 13.761 32.545 C 13.198 33.128 12.697 33.87 12.342 34.686 C 11.452 36.743 11.839 38.514 13.206 38.642 C 14.499 38.761 16.207 37.365 17.141 35.473 L 17.141 61.821 Z" style="fill: rgb(235, 62, 62);"/>
  <path d="M 17.844 61.821 L 1.696 61.821 L 1.696 45.73 C 2.767 46.588 4.229 47.152 5.391 47.091 C 6.919 47.008 7.352 45.872 6.358 44.552 C 5.907 43.954 5.242 43.42 4.505 43.025 L 14.066 43.025 C 13.436 43.4 12.876 43.875 12.48 44.399 C 11.485 45.721 11.917 46.857 13.446 46.939 C 14.891 47.016 16.8 46.12 17.844 44.905 L 17.844 61.821 Z" style="fill: rgb(255, 146, 146);"/>
  <path d="M 17.844 67.811 L 1.696 67.811 L 1.696 51.72 C 2.767 52.578 4.229 53.142 5.391 53.081 C 6.919 52.998 7.352 51.862 6.358 50.542 C 5.907 49.944 5.242 49.41 4.505 49.015 L 14.066 49.015 C 13.436 49.39 12.876 49.865 12.48 50.389 C 11.485 51.71 11.917 52.846 13.446 52.929 C 14.891 53.006 16.8 52.11 17.844 50.894 L 17.844 67.811 Z" style="fill: rgb(255, 203, 203);"/>
  <ellipse style="fill: rgb(255, 0, 0); stroke-width: 2px; stroke: url(&quot;#gradient-1&quot;);" cx="9.733" cy="67.447" rx="8.519" ry="11.661"/>
  <ellipse style="fill: rgb(255, 109, 109);" cx="9.732" cy="69.796" rx="7.428" ry="8.318"/>
  <ellipse style="fill: rgb(255, 255, 255);" cx="9.833" cy="73.261" rx="4.391" ry="5.324"/>
  <ellipse style="fill: rgb(110, 29, 29); stroke: url(&quot;#gradient-4&quot;);" cx="12.922" cy="20.421" rx="1.578" ry="4.351"/>
  <ellipse style="fill: rgb(161, 45, 45); stroke: url(&quot;#gradient-3&quot;);" cx="17.654" cy="4.921" rx="1.502" ry="3.626"/>
  <ellipse style="fill: rgb(161, 45, 45); stroke: url(&quot;#gradient-2&quot;);" cx="3.154" cy="5.963" rx="2.028" ry="4.139"/>
</svg>