<?xml version="1.0" encoding="utf-8"?>
<svg xmlns="http://www.w3.org/2000/svg" viewBox="0 0 85 85" width="85px" height="85px" xmlns:bx="https://boxy-svg.com">
  <defs>
    <radialGradient gradientUnits="userSpaceOnUse" cx="23.464" cy="20.179" r="13.185" id="gradient-0" gradientTransform="matrix(1.048152, -1.02006, 1.198187, 0.939018, -25.217644, 31.943775)">
      <stop offset="0" style="stop-color: rgb(100% 13.725% 13.725%)"/>
      <stop offset="1" style="stop-color: rgb(65.896% 0% 6.7938%)"/>
    </radialGradient>
    <radialGradient gradientUnits="userSpaceOnUse" cx="29.889" cy="45.931" r="29.248" id="gradient-3" gradientTransform="matrix(1, 0, 0, 1, 0.156041, -2.458412)">
      <stop offset="0" style="stop-color: rgb(10.98% 49.412% 43.137%)"/>
      <stop offset="1" style="stop-color: rgb(0% 30.886% 25.532%)"/>
    </radialGradient>
    <radialGradient gradientUnits="userSpaceOnUse" cx="13.823" cy="66.784" r="5.427" id="gradient-1" gradientTransform="matrix(1, 0, 0, 1, -1.730217, 1.153367)">
      <stop offset="0" style="stop-color: rgb(12.549% 45.098% 38.824%)"/>
      <stop offset="1" style="stop-color: rgb(0% 28.375% 22.947%)"/>
    </radialGradient>
    <radialGradient gradientUnits="userSpaceOnUse" cx="13.823" cy="66.784" r="5.427" id="gradient-2" gradientTransform="matrix(0.733704, 0, 0, 1, 20.125953, -3.995892)">
      <stop offset="0" style="stop-color: rgb(12.549% 45.098% 38.824%)"/>
      <stop offset="1" style="stop-color: rgb(0% 28.375% 22.947%)"/>
    </radialGradient>
    <radialGradient gradientUnits="userSpaceOnUse" cx="23.504" cy="55.099" r="5.427" id="gradient-4" gradientTransform="matrix(1, 0, 0, 1, -0.950939, 1.664129)">
      <stop offset="0" style="stop-color: rgb(20.784% 69.02% 59.608%)"/>
      <stop offset="1" style="stop-color: rgb(0% 41.867% 34.086%)"/>
    </radialGradient>
    <radialGradient gradientUnits="userSpaceOnUse" cx="23.504" cy="55.099" r="5.427" id="gradient-5" gradientTransform="matrix(0.54696, 0, 0, 1.000001, 31.728712, 5.840494)">
      <stop offset="0" style="stop-color: rgb(20.784% 69.02% 59.608%)"/>
      <stop offset="1" style="stop-color: rgb(0% 41.867% 34.086%)"/>
    </radialGradient>
  </defs>
  <path d="M 24.785 51.185 C 24.785 53.052 24.577 54.796 24.216 56.276 C 25.178 57.597 26.085 59.347 26.786 61.36 C 28.529 66.364 28.341 71.09 26.364 71.915 C 24.388 72.739 21.373 69.351 19.63 64.347 C 18.905 62.267 18.514 60.235 18.447 58.512 C 17.637 56.734 17.126 54.111 17.126 51.185 C 17.126 45.83 18.84 41.488 20.956 41.488 C 23.071 41.488 24.785 45.83 24.785 51.185 Z" style="stroke: rgb(0, 0, 0); fill: url(&quot;#gradient-4&quot;); transform-origin: 22.553px 56.763px;" transform="matrix(0.998495, -0.054851, 0.054851, 0.998495, 0, 0)"/>
  <path d="M 60.489 30.103 L 59.098 30.705 C 57.594 28.479 55.477 26.639 52.852 25.467 C 45.163 22.032 36.011 25.614 32.413 33.472 C 31.017 36.521 30.662 39.767 31.2 42.799 L 29.993 43.32 L 31.474 15.073 C 30.336 15.935 28.762 16.169 27.358 15.542 C 25.332 14.636 24.434 12.284 25.348 10.288 C 25.775 9.355 26.523 8.663 27.404 8.285 C 26.354 6.969 26.068 5.126 26.821 3.481 C 27.892 1.141 30.66 0.095 33.005 1.142 C 34.839 1.962 35.868 3.819 35.718 5.707 C 36.672 5.368 37.754 5.377 38.752 5.823 C 40.778 6.728 41.68 9.082 40.765 11.08 C 40.423 11.828 39.874 12.419 39.214 12.819 L 60.489 30.103 Z" style="stroke: rgb(0, 0, 0); fill: rgb(66, 18, 18); transform-origin: 32.271px 21.134px;"/>
  <path d="M 59.293 39.938 C 59.293 48.502 49.342 55.445 37.068 55.445 C 35.939 55.445 34.828 55.386 33.743 55.273 C 31.416 57.316 28.66 59.071 25.581 60.364 C 14.587 64.975 3.713 61.924 1.282 53.55 C -1.149 45.175 5.785 34.648 16.779 30.037 C 18.639 29.255 20.5 28.693 22.318 28.341 C 26.243 25.909 31.409 24.432 37.068 24.432 C 49.342 24.432 59.293 31.375 59.293 39.938 Z" style="stroke: rgb(0, 0, 0); fill: url(&quot;#gradient-3&quot;);"/>
  <path d="M 45.805 55.361 C 45.805 57.228 45.691 58.972 45.494 60.452 C 46.02 61.773 46.516 63.523 46.899 65.536 C 47.853 70.54 47.75 75.266 46.669 76.091 C 45.588 76.915 43.939 73.527 42.985 68.523 C 42.589 66.443 42.375 64.411 42.338 62.688 C 41.895 60.91 41.616 58.287 41.616 55.361 C 41.616 50.006 42.553 45.664 43.711 45.664 C 44.867 45.664 45.805 50.006 45.805 55.361 Z" style="stroke: rgb(0, 0, 0); fill: url(&quot;#gradient-5&quot;); transform-origin: 44.584px 60.939px;" transform="matrix(0.958345, -0.285613, 0.285613, 0.958345, 0, 0.000002)"/>
  <path d="M 52.64 25.472 L 51.378 26.698 C 48.526 25.141 45.179 24.245 41.604 24.245 C 31.13 24.245 22.636 31.933 22.636 41.417 C 22.636 45.097 23.916 48.509 26.093 51.306 L 24.998 52.368 L 12.049 23.399 C 11.208 24.773 9.548 25.713 7.637 25.713 C 4.876 25.713 2.643 23.757 2.643 21.348 C 2.643 20.221 3.13 19.193 3.931 18.42 C 2.063 17.571 0.784 15.852 0.784 13.868 C 0.784 11.043 3.372 8.755 6.566 8.755 C 9.065 8.755 11.19 10.157 11.998 12.114 C 12.9 11.349 14.131 10.873 15.49 10.873 C 18.249 10.873 20.488 12.828 20.488 15.24 C 20.488 16.142 20.173 16.98 19.634 17.676 L 52.64 25.472 Z" style="stroke: rgb(0, 0, 0); fill: url(&quot;#gradient-0&quot;);"/>
  <ellipse style="stroke: rgb(0, 0, 0); fill: rgb(51, 133, 121);" cx="58.637" cy="38.222" rx="25.817" ry="26.858"/>
  <ellipse style="fill: rgb(110, 208, 194);" cx="61.225" cy="35.278" rx="21.787" ry="22.577"/>
  <ellipse style="stroke: rgb(0, 0, 0);" cx="53.876" cy="30.987" rx="5.492" ry="9.857"/>
  <ellipse style="stroke: rgb(0, 0, 0);" cx="70.13" cy="30.987" rx="5.352" ry="9.857"/>
  <ellipse style="stroke: rgb(0, 0, 0); fill: rgb(255, 0, 0);" cx="53.884" cy="27.641" rx="4.91" ry="6.15"/>
  <ellipse style="stroke: rgb(0, 0, 0); fill: rgb(0, 255, 156);" cx="70.028" cy="33.918" rx="4.798" ry="6.862"/>
  <g transform="matrix(1.229424, 0, 0, 0.883292, -80.354874, 25.979099)" style="">
    <path style="fill: rgb(216, 216, 216); stroke: rgb(0, 0, 0); stroke-width: 2.79688px; transform-box: fill-box; transform-origin: 50% 50%;" transform="matrix(0, 0.291913, -0.208644, 0, -814.706117, -183.803832)" d="M 878.329 129.127 A 83 83 0 1 1 878.329 290.873 A 88.98 88.98 0 0 0 878.329 129.127 Z" bx:shape="crescent 897 210 83 206 0.7 1@14211c0e"/>
    <path style="stroke: rgb(0, 0, 0); fill: rgb(59, 6, 6); transform-origin: 929.164px 210px;" transform="matrix(0, 0.241925, -0.208644, 0, -814.705688, -186.215804)" d="M 878.329 129.127 A 83 83 0 1 1 878.329 290.873 A 80.916 80.916 0 0 0 878.329 129.127 Z" bx:shape="crescent 897 210 83 206 0.859 1@b96f7735"/>
    <path style="fill: rgb(216, 216, 216); stroke: rgb(0, 0, 0); stroke-width: 0.5px;" d="M 114.374 26.419 L 114.327 30.351"/>
    <path style="fill: rgb(216, 216, 216); stroke: rgb(0, 0, 0); stroke-width: 0.5px;" d="M 114.391 36.109 L 114.297 40.65"/>
    <path style="fill: rgb(216, 216, 216); stroke: rgb(0, 0, 0); stroke-width: 0.5px; transform-box: fill-box; transform-origin: 50% 50%;" d="M 120.753 28.992 L 119.346 25.716" transform="matrix(-1, 0, 0, -1, -0.000002, 0.000004)"/>
    <path style="fill: rgb(216, 216, 216); stroke: rgb(0, 0, 0); stroke-width: 0.5px; transform-origin: 108.37px 26.979px;" d="M 109.073 25.341 L 107.666 28.617"/>
    <path style="fill: rgb(216, 216, 216); stroke: rgb(0, 0, 0); stroke-width: 0.5px; transform-origin: 108.414px 37.109px;" d="M 109.117 39.277 L 107.71 34.94" transform="matrix(-0.977858, -0.209271, 0.209271, -0.977858, -0.000002, -0.000007)"/>
    <path style="fill: rgb(216, 216, 216); stroke: rgb(0, 0, 0); stroke-width: 0.5px; transform-origin: 120.709px 37.202px;" d="M 121.412 34.744 L 120.005 39.66" transform="matrix(0.991501, -0.130096, 0.130096, 0.991501, 0, 0)"/>
    <path style="fill: rgb(216, 216, 216); stroke: rgb(0, 0, 0); stroke-width: 0.5px; transform-origin: 104.787px 24.729px;" d="M 105.49 23.216 L 104.083 26.242"/>
    <path style="fill: rgb(216, 216, 216); stroke: rgb(0, 0, 0); stroke-width: 0.5px; transform-origin: 101.454px 21.146px;" d="M 102.073 19.717 L 100.833 22.576"/>
    <path style="fill: rgb(216, 216, 216); stroke: rgb(0, 0, 0); stroke-width: 0.5px; transform-origin: 98.954px 16.501px;" d="M 99.323 15.301 L 98.583 17.702"/>
    <path style="fill: rgb(216, 216, 216); stroke: rgb(0, 0, 0); stroke-width: 0.5px; transform-origin: 125.289px 23.884px;" d="M 125.97 25.227 L 124.608 22.541" transform="matrix(-1, 0, 0, -1, 0.000007, -0.000004)"/>
    <path style="fill: rgb(216, 216, 216); stroke: rgb(0, 0, 0); stroke-width: 0.5px; transform-origin: 127.988px 20.232px;" d="M 128.502 21.378 L 127.474 19.087" transform="matrix(-0.978559, 0.205966, -0.205966, -0.978559, 0.000001, -0.000001)"/>
    <path style="fill: rgb(216, 216, 216); stroke: rgb(0, 0, 0); stroke-width: 0.5px; transform-origin: 130.266px 15.961px;" d="M 130.707 16.621 L 129.825 15.302" transform="matrix(-0.978559, 0.205966, -0.205966, -0.978559, -0.000008, -0.000001)"/>
    <path style="fill: rgb(216, 216, 216); stroke: rgb(0, 0, 0); stroke-width: 0.5px; transform-origin: 104.702px 34.72px;" d="M 105.405 36.888 L 103.998 32.551" transform="matrix(-0.977858, -0.209271, 0.209271, -0.977858, 0.000002, -0.000005)"/>
    <path style="fill: rgb(216, 216, 216); stroke: rgb(0, 0, 0); stroke-width: 0.5px; transform-origin: 101.332px 30.88px;" d="M 102.035 33.048 L 100.628 28.711" transform="matrix(-0.977858, -0.209271, 0.209271, -0.977858, -0.000012, 0.000002)"/>
    <path style="fill: rgb(216, 216, 216); stroke: rgb(0, 0, 0); stroke-width: 0.5px; transform-origin: 125.568px 33.558px;" d="M 126.271 31.1 L 124.864 36.016" transform="matrix(0.997495, -0.070733, 0.070733, 0.997495, 0, 0)"/>
    <path style="fill: rgb(216, 216, 216); stroke: rgb(0, 0, 0); stroke-width: 0.5px; transform-origin: 128.816px 28.751px;" d="M 129.425 26.498 L 128.206 31.004" transform="matrix(0.997495, -0.070733, 0.070733, 0.997495, 0, 0.000001)"/>
    <path d="M 121.758 34.876 C 121.758 34.945 121.757 35.013 121.754 35.082 C 119.943 33.786 117.336 32.973 114.439 32.973 C 111.718 32.973 109.254 33.69 107.464 34.85 C 107.48 31.29 110.674 28.408 114.611 28.408 C 118.558 28.408 121.758 31.304 121.758 34.876 Z" style="fill: rgb(195, 53, 53); transform-origin: 114.611px 31.745px;" transform="matrix(-0.999741, 0.022753, -0.022753, -0.999741, 0.000012, 0.000003)"/>
  </g>
  <ellipse style="" cx="54.059" cy="32.85" rx="1.988" ry="2.842"/>
  <path d="M 14.325 62.359 C 14.325 64.226 14.117 65.97 13.756 67.45 C 14.718 68.771 15.625 70.521 16.326 72.534 C 18.069 77.538 17.881 82.264 15.904 83.089 C 13.928 83.913 10.913 80.525 9.17 75.521 C 8.445 73.441 8.054 71.409 7.987 69.686 C 7.177 67.908 6.666 65.285 6.666 62.359 C 6.666 57.004 8.38 52.662 10.496 52.662 C 12.611 52.662 14.325 57.004 14.325 62.359 Z" style="stroke: rgb(0, 0, 0); fill: url(&quot;#gradient-1&quot;); transform-box: fill-box; transform-origin: 50% 50%;" transform="matrix(0.975899, -0.218222, 0.218222, 0.975899, 0, 0)"/>
  <path d="M 31.905 57.21 C 31.905 59.077 31.753 60.821 31.488 62.301 C 32.194 63.622 32.859 65.372 33.374 67.385 C 34.652 72.389 34.514 77.115 33.064 77.94 C 31.614 78.764 29.402 75.376 28.123 70.372 C 27.591 68.292 27.304 66.26 27.255 64.537 C 26.661 62.759 26.286 60.136 26.286 57.21 C 26.286 51.855 27.543 47.513 29.096 47.513 C 30.648 47.513 31.905 51.855 31.905 57.21 Z" style="stroke: rgb(0, 0, 0); fill: url(&quot;#gradient-2&quot;); transform-origin: 30.268px 62.788px;" transform="matrix(0.991748, -0.128205, 0.128205, 0.991748, 0, 0)"/>
  <ellipse style="" cx="70.172" cy="27.694" rx="1.988" ry="2.842"/>
</svg>