<?xml version="1.0" encoding="utf-8"?>
<svg xmlns="http://www.w3.org/2000/svg" viewBox="0 0 140 100" xmlns:bx="https://boxy-svg.com">
  <defs>
    <radialGradient gradientUnits="userSpaceOnUse" cx="50.005" cy="50.603" r="37.074" id="gradient-5" gradientTransform="matrix(0.44966, 0, 0, 0.441636, 48.232887, 23.304893)">
      <stop offset="0" style="stop-color: rgb(2.7451% 18.431% 59.216%)"/>
      <stop offset="1" style="stop-color: rgb(0% 15.622% 37.624%)"/>
    </radialGradient>
    <filter id="gaussian-blur-filter-0" bx:preset="gaussian-blur 1 5" color-interpolation-filters="sRGB" x="-50%" y="-50%" width="200%" height="200%">
      <feGaussianBlur stdDeviation="5 5" edgeMode="none"/>
    </filter>
    <filter id="filter-1" bx:preset="gaussian-blur 1 5" color-interpolation-filters="sRGB" x="-50%" y="-50%" width="200%" height="200%">
      <feGaussianBlur stdDeviation="5 5" edgeMode="none"/>
    </filter>
  </defs>
  <rect x="0.796" y="41.182" width="137.48" height="57.935" style="stroke: rgb(0, 0, 0); stroke-width: 2px; fill: rgb(91, 22, 8);"/>
  <rect x="5.974" y="37.76" width="127.901" height="57.935" style="stroke: rgb(0, 0, 0); fill: rgb(24, 249, 255);"/>
  <rect x="11.929" y="35.251" width="116.508" height="57.48" style="stroke: rgb(0, 0, 0); fill: rgb(91, 22, 8);"/>
  <path d="M 0.535 53.748 L 0.535 26.267 C 3.682 14.818 10.109 5.692 18.176 1.147 L 120.954 1.147 C 129.022 5.712 135.448 14.87 138.597 26.366 L 138.597 53.956 L 68.2 53.956 L 68.2 53.748 L 0.535 53.748 Z" style="stroke: rgb(0, 0, 0); stroke-width: 2px; fill: rgb(91, 22, 8);"/>
  <rect x="62.378" y="57.618" width="17.495" height="41.506" style="stroke: rgb(0, 0, 0); fill: rgb(67, 22, 0);"/>
  <path d="M 6.232 49.911 L 6.232 27.834 C 9.131 18.634 15.052 11.304 22.483 7.654 L 117.167 7.654 C 124.597 11.319 130.517 18.677 133.418 27.914 L 133.418 50.079 L 68.565 50.079 L 68.565 49.911 L 6.232 49.911 Z" style="stroke: rgb(0, 0, 0); fill: rgb(24, 249, 255);"/>
  <path d="M 11.928 45.834 L 11.928 27.676 C 14.585 20.106 20.012 14.078 26.821 11.075 L 113.603 11.075 C 120.415 14.09 125.839 20.144 128.499 27.742 L 128.499 45.974 L 69.059 45.974 L 69.059 45.834 L 11.928 45.834 Z" style="stroke: rgb(0, 0, 0); fill: rgb(91, 22, 8);"/>
  <path d="M 15.336 56.488 L 21.646 56.488 L 21.646 59.18 C 19.699 59.489 18.282 60.442 18.282 61.568 C 18.282 62.695 19.699 63.647 21.646 63.956 L 21.646 67.017 C 21.61 67.017 21.576 67.017 21.541 67.017 C 18.927 67.017 16.809 68.134 16.809 69.512 C 16.809 70.889 18.927 72.006 21.541 72.006 C 21.576 72.006 21.61 72.006 21.646 72.006 L 21.646 74.851 C 19.591 75.123 18.071 76.102 18.071 77.27 C 18.071 78.437 19.591 79.417 21.646 79.689 L 21.646 82.719 C 21.634 82.719 21.62 82.719 21.607 82.719 C 18.994 82.719 16.876 83.836 16.876 85.213 C 16.876 86.591 18.994 87.708 21.607 87.708 C 21.62 87.708 21.634 87.708 21.646 87.708 L 21.646 89.554 L 15.336 89.554 L 15.336 56.488 Z" style="fill: rgb(77, 23, 12); stroke: rgb(40, 61, 72);"/>
  <path d="M 15.336 56.488 L 21.646 56.488 L 21.646 59.18 C 19.699 59.489 18.282 60.442 18.282 61.568 C 18.282 62.695 19.699 63.647 21.646 63.956 L 21.646 67.017 C 21.61 67.017 21.576 67.017 21.541 67.017 C 18.927 67.017 16.809 68.134 16.809 69.512 C 16.809 70.889 18.927 72.006 21.541 72.006 C 21.576 72.006 21.61 72.006 21.646 72.006 L 21.646 74.851 C 19.591 75.123 18.071 76.102 18.071 77.27 C 18.071 78.437 19.591 79.417 21.646 79.689 L 21.646 82.719 C 21.634 82.719 21.62 82.719 21.607 82.719 C 18.994 82.719 16.876 83.836 16.876 85.213 C 16.876 86.591 18.994 87.708 21.607 87.708 C 21.62 87.708 21.634 87.708 21.646 87.708 L 21.646 89.554 L 15.336 89.554 L 15.336 56.488 Z" style="fill: rgb(24, 249, 255); stroke: rgb(40, 61, 72);"/>
  <path d="M 119.375 89.866 L 125.684 89.866 L 125.684 87.174 C 123.738 86.865 122.32 85.912 122.32 84.786 C 122.32 83.659 123.738 82.707 125.684 82.398 L 125.684 79.337 C 125.649 79.337 125.615 79.337 125.579 79.337 C 122.966 79.337 120.847 78.22 120.847 76.842 C 120.847 75.465 122.966 74.348 125.579 74.348 C 125.615 74.348 125.649 74.348 125.684 74.348 L 125.684 71.503 C 123.63 71.231 122.11 70.252 122.11 69.084 C 122.11 67.917 123.63 66.937 125.684 66.665 L 125.684 63.635 C 125.672 63.635 125.658 63.635 125.645 63.635 C 123.032 63.635 120.913 62.518 120.913 61.141 C 120.913 59.763 123.032 58.646 125.645 58.646 C 125.658 58.646 125.672 58.646 125.684 58.646 L 125.684 56.8 L 119.375 56.8 L 119.375 89.866 Z" style="fill: rgb(24, 249, 255); stroke: rgb(40, 61, 72); transform-origin: 122.529px 73.333px;" transform="matrix(-1, 0, 0, -1, -0.000016, -0.000007)"/>
  <path d="M 119.795 43.314 L 126.526 43.314 L 126.526 41.9 C 124.45 41.738 122.937 41.238 122.937 40.646 C 122.937 40.054 124.45 39.555 126.526 39.392 L 126.526 37.785 C 126.488 37.785 126.452 37.785 126.413 37.785 C 123.626 37.785 121.367 37.198 121.367 36.475 C 121.367 35.751 123.626 35.166 126.413 35.166 C 126.452 35.166 126.488 35.166 126.526 35.166 L 126.526 33.671 C 124.335 33.529 122.713 33.014 122.713 32.401 C 122.713 31.788 124.335 31.273 126.526 31.131 L 126.526 29.54 C 126.512 29.54 126.497 29.54 126.483 29.54 C 123.695 29.54 121.437 28.953 121.437 28.229 C 121.437 27.506 123.695 26.92 126.483 26.92 C 126.497 26.92 126.512 26.92 126.526 26.92 L 126.526 25.95 L 119.795 25.95 L 119.795 43.314 Z" style="fill: rgb(24, 249, 255); stroke: rgb(40, 61, 72); transform-origin: 123.162px 34.632px;" transform="matrix(-1, 0, 0, -1, -0.000009, 0.000009)"/>
  <path d="M 14.351 26.504 L 21.08 26.504 L 21.08 27.919 C 19.005 28.081 17.493 28.581 17.493 29.173 C 17.493 29.765 19.005 30.264 21.08 30.427 L 21.08 32.034 C 21.043 32.034 21.006 32.034 20.969 32.034 C 18.181 32.034 15.922 32.621 15.922 33.344 C 15.922 34.067 18.181 34.653 20.969 34.653 C 21.006 34.653 21.043 34.653 21.08 34.653 L 21.08 36.148 C 18.889 36.29 17.267 36.805 17.267 37.418 C 17.267 38.031 18.889 38.546 21.08 38.688 L 21.08 40.279 C 21.066 40.279 21.052 40.279 21.038 40.279 C 18.251 40.279 15.992 40.866 15.992 41.59 C 15.992 42.312 18.251 42.899 21.038 42.899 C 21.052 42.899 21.066 42.899 21.08 42.899 L 21.08 43.869 L 14.351 43.869 L 14.351 26.504 Z" style="fill: rgb(24, 249, 255); stroke: rgb(40, 61, 72); transform-origin: 17.716px 35.187px;"/>
  <rect x="68.742" y="50.491" width="4.258" height="39.215" style="stroke: rgb(0, 0, 0); fill: rgb(100, 33, 0);"/>
  <ellipse style="stroke-width: 3px; stroke: rgb(0, 227, 234); fill: rgb(255, 255, 255);" cx="70.556" cy="45.511" rx="20.057" ry="21.313"/>
  <ellipse style="stroke-width: 3px; stroke: rgba(255, 255, 255, 0.216); fill: url(&quot;#gradient-5&quot;);" cx="70.717" cy="45.653" rx="16.671" ry="18.35"/>
  <path d="M 64.931 51.203 C 60.934 51.203 57.694 47.201 57.694 42.263 C 57.694 37.328 60.934 33.325 64.931 33.325 C 65.725 33.325 66.489 33.483 67.205 33.773 C 64.81 34.941 63.13 37.69 63.13 40.898 C 63.13 45.161 66.102 48.619 69.767 48.619 C 69.854 48.619 69.94 48.615 70.027 48.612 C 68.718 50.214 66.919 51.203 64.931 51.203 Z" style="fill: rgb(0, 248, 255);"/>
  <path d="M 82.487 47.812 C 84.835 46.147 85.244 42.493 83.402 39.649 C 81.561 36.804 78.164 35.848 75.815 37.513 C 75.349 37.843 74.959 38.252 74.648 38.719 C 76.49 38.394 78.503 39.277 79.701 41.125 C 81.292 43.581 80.835 46.809 78.682 48.337 C 78.632 48.373 78.579 48.408 78.528 48.442 C 79.892 48.82 81.32 48.64 82.487 47.812 Z" style="fill: rgb(0, 248, 255); transform-origin: 144.539px 83.657px;"/>
  <path d="M 67.461 60.694 C 68.608 62.597 71.79 62.655 74.569 60.823 C 77.345 58.991 78.668 55.963 77.52 54.058 C 77.292 53.68 76.985 53.375 76.615 53.142 C 76.645 54.716 75.582 56.536 73.776 57.726 C 71.377 59.309 68.579 59.176 67.527 57.43 C 67.502 57.388 67.478 57.347 67.457 57.304 C 66.93 58.522 66.89 59.747 67.461 60.694 Z" style="fill: rgb(0, 248, 255); transform-origin: 122.112px 132.617px;"/>
  <path d="M 69.429 45.395 C 70.77 44.923 71.247 42.643 70.496 40.302 C 69.745 37.96 68.049 36.444 66.708 36.915 C 66.441 37.009 66.21 37.173 66.014 37.397 C 66.994 37.666 67.978 38.773 68.465 40.294 C 69.114 42.316 68.643 44.306 67.413 44.737 C 67.384 44.747 67.354 44.757 67.323 44.766 C 68.007 45.371 68.763 45.629 69.429 45.395 Z" style="fill: rgb(0, 248, 255); transform-origin: 108.076px 79.944px;"/>
  <path d="M 75.103 50.697 C 73.762 50.225 73.284 47.944 74.035 45.605 C 74.787 43.262 76.483 41.747 77.824 42.216 C 78.089 42.31 78.323 42.474 78.518 42.698 C 77.537 42.968 76.555 44.075 76.067 45.596 C 75.418 47.618 75.889 49.607 77.119 50.04 C 77.149 50.05 77.177 50.059 77.207 50.067 C 76.525 50.673 75.77 50.932 75.103 50.697 Z" style="fill: rgb(0, 248, 255); transform-origin: 132.733px 96.511px;"/>
  <path d="M 62.899 56.696 C 62.541 55.264 64.103 53.598 66.385 52.972 C 68.67 52.347 70.812 53.001 71.17 54.434 C 71.241 54.718 71.236 55.011 71.164 55.305 C 70.412 54.596 68.988 54.34 67.506 54.745 C 65.533 55.285 64.201 56.788 64.529 58.1 C 64.536 58.133 64.545 58.162 64.554 58.194 C 63.696 57.928 63.077 57.409 62.899 56.696 Z" style="fill: rgb(0, 248, 255); transform-origin: 103.295px 124.167px;"/>
  <path d="M 68.806 31.061 C 68.545 32.517 70.216 34.064 72.535 34.518 C 74.856 34.974 76.948 34.164 77.208 32.71 C 77.262 32.421 77.237 32.128 77.145 31.84 C 76.442 32.605 75.039 32.962 73.531 32.667 C 71.528 32.274 70.097 30.874 70.337 29.54 C 70.344 29.508 70.348 29.477 70.356 29.445 C 69.518 29.773 68.936 30.338 68.806 31.061 Z" style="fill: rgb(0, 248, 255); transform-origin: 122.562px 52.589px;"/>
  <ellipse style="filter: url(&quot;#gaussian-blur-filter-0&quot;); fill: rgba(0, 0, 0, 0.486); transform-box: fill-box; transform-origin: 50% 50%;" cx="53.85" cy="65.353" rx="12.753" ry="5.758" transform="matrix(0.609635, -0.792682, 0.765764, 0.644636, 24.921162, -11.489395)"/>
  <ellipse style="filter: url(&quot;#filter-1&quot;); fill: rgba(255, 255, 255, 0.18); transform-origin: 53.85px 65.353px;" cx="53.85" cy="65.353" rx="12.753" ry="5.758" transform="matrix(0.609635, -0.792682, 0.765764, 0.644636, 8.834818, -28.817841)"/>
  <g style="transform-origin: 37.2898px 26.227px;" transform="matrix(0.797174, -0.215859, 0.186939, 0.69037, -8.018441, -3.309211)">
    <path d="M 37.948 35.166 C 33.951 35.166 30.711 31.164 30.711 26.226 C 30.711 21.291 33.951 17.288 37.948 17.288 C 38.742 17.288 39.506 17.446 40.222 17.736 C 37.827 18.904 36.147 21.653 36.147 24.861 C 36.147 29.124 39.119 32.582 42.784 32.582 C 42.871 32.582 42.957 32.578 43.044 32.575 C 41.735 34.177 39.936 35.166 37.948 35.166 Z" style="fill: rgb(133, 61, 27);"/>
    <path d="M 42.446 29.358 C 43.787 28.886 44.264 26.606 43.513 24.265 C 42.762 21.923 41.066 20.407 39.725 20.878 C 39.458 20.972 39.227 21.136 39.031 21.36 C 40.011 21.629 40.995 22.736 41.482 24.257 C 42.131 26.279 41.66 28.269 40.43 28.7 C 40.401 28.71 40.371 28.72 40.34 28.729 C 41.024 29.334 41.78 29.592 42.446 29.358 Z" style="transform-origin: 81.093px 63.907px; fill: rgb(133, 61, 27);"/>
  </g>
  <g style="transform-origin: 37.2898px 26.227px;" transform="matrix(-0.722017, -0.400965, -0.347244, 0.625282, 3.181886, 9.163928)">
    <path d="M 37.948 35.166 C 33.951 35.166 30.711 31.164 30.711 26.226 C 30.711 21.291 33.951 17.288 37.948 17.288 C 38.742 17.288 39.506 17.446 40.222 17.736 C 37.827 18.904 36.147 21.653 36.147 24.861 C 36.147 29.124 39.119 32.582 42.784 32.582 C 42.871 32.582 42.957 32.578 43.044 32.575 C 41.735 34.177 39.936 35.166 37.948 35.166 Z" style="fill: rgb(133, 61, 27);"/>
    <path d="M 42.446 29.358 C 43.787 28.886 44.264 26.606 43.513 24.265 C 42.762 21.923 41.066 20.407 39.725 20.878 C 39.458 20.972 39.227 21.136 39.031 21.36 C 40.011 21.629 40.995 22.736 41.482 24.257 C 42.131 26.279 41.66 28.269 40.43 28.7 C 40.401 28.71 40.371 28.72 40.34 28.729 C 41.024 29.334 41.78 29.592 42.446 29.358 Z" style="transform-origin: 81.093px 63.907px; fill: rgb(133, 61, 27);"/>
  </g>
  <g style="transform-origin: 37.29px 26.227px;" transform="matrix(-0.324093, 0.759635, 0.65786, 0.280671, 9.291232, -5.854728)">
    <path d="M 37.948 35.166 C 33.951 35.166 30.711 31.164 30.711 26.226 C 30.711 21.291 33.951 17.288 37.948 17.288 C 38.742 17.288 39.506 17.446 40.222 17.736 C 37.827 18.904 36.147 21.653 36.147 24.861 C 36.147 29.124 39.119 32.582 42.784 32.582 C 42.871 32.582 42.957 32.578 43.044 32.575 C 41.735 34.177 39.936 35.166 37.948 35.166 Z" style="fill: rgb(133, 61, 27);"/>
    <path d="M 42.446 29.358 C 43.787 28.886 44.264 26.606 43.513 24.265 C 42.762 21.923 41.066 20.407 39.725 20.878 C 39.458 20.972 39.227 21.136 39.031 21.36 C 40.011 21.629 40.995 22.736 41.482 24.257 C 42.131 26.279 41.66 28.269 40.43 28.7 C 40.401 28.71 40.371 28.72 40.34 28.729 C 41.024 29.334 41.78 29.592 42.446 29.358 Z" style="transform-origin: 81.093px 63.907px; fill: rgb(133, 61, 27);"/>
  </g>
  <g style="transform-origin: 37.29px 26.227px;" transform="matrix(0.797174, -0.215859, 0.186939, 0.69037, 57.014812, -3.003886)">
    <path d="M 37.948 35.166 C 33.951 35.166 30.711 31.164 30.711 26.226 C 30.711 21.291 33.951 17.288 37.948 17.288 C 38.742 17.288 39.506 17.446 40.222 17.736 C 37.827 18.904 36.147 21.653 36.147 24.861 C 36.147 29.124 39.119 32.582 42.784 32.582 C 42.871 32.582 42.957 32.578 43.044 32.575 C 41.735 34.177 39.936 35.166 37.948 35.166 Z" style="fill: rgb(133, 61, 27);"/>
    <path d="M 42.446 29.358 C 43.787 28.886 44.264 26.606 43.513 24.265 C 42.762 21.923 41.066 20.407 39.725 20.878 C 39.458 20.972 39.227 21.136 39.031 21.36 C 40.011 21.629 40.995 22.736 41.482 24.257 C 42.131 26.279 41.66 28.269 40.43 28.7 C 40.401 28.71 40.371 28.72 40.34 28.729 C 41.024 29.334 41.78 29.592 42.446 29.358 Z" style="transform-origin: 81.093px 63.907px; fill: rgb(133, 61, 27);"/>
  </g>
  <g style="transform-origin: 37.29px 26.227px;" transform="matrix(-0.722017, -0.400965, -0.347244, 0.625282, 68.215187, 9.469264)">
    <path d="M 37.948 35.166 C 33.951 35.166 30.711 31.164 30.711 26.226 C 30.711 21.291 33.951 17.288 37.948 17.288 C 38.742 17.288 39.506 17.446 40.222 17.736 C 37.827 18.904 36.147 21.653 36.147 24.861 C 36.147 29.124 39.119 32.582 42.784 32.582 C 42.871 32.582 42.957 32.578 43.044 32.575 C 41.735 34.177 39.936 35.166 37.948 35.166 Z" style="fill: rgb(133, 61, 27);"/>
    <path d="M 42.446 29.358 C 43.787 28.886 44.264 26.606 43.513 24.265 C 42.762 21.923 41.066 20.407 39.725 20.878 C 39.458 20.972 39.227 21.136 39.031 21.36 C 40.011 21.629 40.995 22.736 41.482 24.257 C 42.131 26.279 41.66 28.269 40.43 28.7 C 40.401 28.71 40.371 28.72 40.34 28.729 C 41.024 29.334 41.78 29.592 42.446 29.358 Z" style="transform-origin: 81.093px 63.907px; fill: rgb(133, 61, 27);"/>
  </g>
  <g style="transform-origin: 37.29px 26.227px;" transform="matrix(-0.324093, 0.759635, 0.65786, 0.280671, 74.324471, -5.549403)">
    <path d="M 37.948 35.166 C 33.951 35.166 30.711 31.164 30.711 26.226 C 30.711 21.291 33.951 17.288 37.948 17.288 C 38.742 17.288 39.506 17.446 40.222 17.736 C 37.827 18.904 36.147 21.653 36.147 24.861 C 36.147 29.124 39.119 32.582 42.784 32.582 C 42.871 32.582 42.957 32.578 43.044 32.575 C 41.735 34.177 39.936 35.166 37.948 35.166 Z" style="fill: rgb(133, 61, 27);"/>
    <path d="M 42.446 29.358 C 43.787 28.886 44.264 26.606 43.513 24.265 C 42.762 21.923 41.066 20.407 39.725 20.878 C 39.458 20.972 39.227 21.136 39.031 21.36 C 40.011 21.629 40.995 22.736 41.482 24.257 C 42.131 26.279 41.66 28.269 40.43 28.7 C 40.401 28.71 40.371 28.72 40.34 28.729 C 41.024 29.334 41.78 29.592 42.446 29.358 Z" style="transform-origin: 81.093px 63.907px; fill: rgb(133, 61, 27);"/>
  </g>
  <g style="transform-origin: 37.29px 26.227px;" transform="matrix(0.797174, 0.215859, 0.186939, -0.69037, -5.575868, 52.358562)">
    <path d="M 37.948 35.166 C 33.951 35.166 30.711 31.164 30.711 26.226 C 30.711 21.291 33.951 17.288 37.948 17.288 C 38.742 17.288 39.506 17.446 40.222 17.736 C 37.827 18.904 36.147 21.653 36.147 24.861 C 36.147 29.124 39.119 32.582 42.784 32.582 C 42.871 32.582 42.957 32.578 43.044 32.575 C 41.735 34.177 39.936 35.166 37.948 35.166 Z" style="fill: rgb(44, 9, 2);"/>
    <path d="M 42.446 29.358 C 43.787 28.886 44.264 26.606 43.513 24.265 C 42.762 21.923 41.066 20.407 39.725 20.878 C 39.458 20.972 39.227 21.136 39.031 21.36 C 40.011 21.629 40.995 22.736 41.482 24.257 C 42.131 26.279 41.66 28.269 40.43 28.7 C 40.401 28.71 40.371 28.72 40.34 28.729 C 41.024 29.334 41.78 29.592 42.446 29.358 Z" style="transform-origin: 81.093px 63.907px; fill: rgb(44, 9, 2);"/>
  </g>
  <g style="transform-origin: 37.29px 26.227px;" transform="matrix(-0.722017, 0.400965, -0.347244, -0.625282, 5.624511, 39.88541)">
    <path d="M 37.948 35.166 C 33.951 35.166 30.711 31.164 30.711 26.226 C 30.711 21.291 33.951 17.288 37.948 17.288 C 38.742 17.288 39.506 17.446 40.222 17.736 C 37.827 18.904 36.147 21.653 36.147 24.861 C 36.147 29.124 39.119 32.582 42.784 32.582 C 42.871 32.582 42.957 32.578 43.044 32.575 C 41.735 34.177 39.936 35.166 37.948 35.166 Z" style="fill: rgb(44, 9, 2);"/>
    <path d="M 42.446 29.358 C 43.787 28.886 44.264 26.606 43.513 24.265 C 42.762 21.923 41.066 20.407 39.725 20.878 C 39.458 20.972 39.227 21.136 39.031 21.36 C 40.011 21.629 40.995 22.736 41.482 24.257 C 42.131 26.279 41.66 28.269 40.43 28.7 C 40.401 28.71 40.371 28.72 40.34 28.729 C 41.024 29.334 41.78 29.592 42.446 29.358 Z" style="transform-origin: 81.093px 63.907px; fill: rgb(44, 9, 2);"/>
  </g>
  <g style="transform-origin: 37.29px 26.227px;" transform="matrix(-0.324093, -0.759635, 0.65786, -0.280671, 11.733787, 54.904076)">
    <path d="M 37.948 35.166 C 33.951 35.166 30.711 31.164 30.711 26.226 C 30.711 21.291 33.951 17.288 37.948 17.288 C 38.742 17.288 39.506 17.446 40.222 17.736 C 37.827 18.904 36.147 21.653 36.147 24.861 C 36.147 29.124 39.119 32.582 42.784 32.582 C 42.871 32.582 42.957 32.578 43.044 32.575 C 41.735 34.177 39.936 35.166 37.948 35.166 Z" style="fill: rgb(44, 9, 2);"/>
    <path d="M 42.446 29.358 C 43.787 28.886 44.264 26.606 43.513 24.265 C 42.762 21.923 41.066 20.407 39.725 20.878 C 39.458 20.972 39.227 21.136 39.031 21.36 C 40.011 21.629 40.995 22.736 41.482 24.257 C 42.131 26.279 41.66 28.269 40.43 28.7 C 40.401 28.71 40.371 28.72 40.34 28.729 C 41.024 29.334 41.78 29.592 42.446 29.358 Z" style="transform-origin: 81.093px 63.907px; fill: rgb(44, 9, 2);"/>
  </g>
  <g style="transform-origin: 37.29px 26.227px;" transform="matrix(0.797174, 0.215859, 0.186939, -0.69037, -5.575864, 52.358558)">
    <path d="M 37.948 35.166 C 33.951 35.166 30.711 31.164 30.711 26.226 C 30.711 21.291 33.951 17.288 37.948 17.288 C 38.742 17.288 39.506 17.446 40.222 17.736 C 37.827 18.904 36.147 21.653 36.147 24.861 C 36.147 29.124 39.119 32.582 42.784 32.582 C 42.871 32.582 42.957 32.578 43.044 32.575 C 41.735 34.177 39.936 35.166 37.948 35.166 Z" style="fill: rgb(44, 9, 2);"/>
    <path d="M 42.446 29.358 C 43.787 28.886 44.264 26.606 43.513 24.265 C 42.762 21.923 41.066 20.407 39.725 20.878 C 39.458 20.972 39.227 21.136 39.031 21.36 C 40.011 21.629 40.995 22.736 41.482 24.257 C 42.131 26.279 41.66 28.269 40.43 28.7 C 40.401 28.71 40.371 28.72 40.34 28.729 C 41.024 29.334 41.78 29.592 42.446 29.358 Z" style="transform-origin: 81.093px 63.907px; fill: rgb(44, 9, 2);"/>
  </g>
  <g style="transform-origin: 37.29px 26.227px;" transform="matrix(-0.722017, 0.400965, -0.347244, -0.625282, 5.624513, 39.885401)">
    <path d="M 37.948 35.166 C 33.951 35.166 30.711 31.164 30.711 26.226 C 30.711 21.291 33.951 17.288 37.948 17.288 C 38.742 17.288 39.506 17.446 40.222 17.736 C 37.827 18.904 36.147 21.653 36.147 24.861 C 36.147 29.124 39.119 32.582 42.784 32.582 C 42.871 32.582 42.957 32.578 43.044 32.575 C 41.735 34.177 39.936 35.166 37.948 35.166 Z" style="fill: rgb(44, 9, 2);"/>
    <path d="M 42.446 29.358 C 43.787 28.886 44.264 26.606 43.513 24.265 C 42.762 21.923 41.066 20.407 39.725 20.878 C 39.458 20.972 39.227 21.136 39.031 21.36 C 40.011 21.629 40.995 22.736 41.482 24.257 C 42.131 26.279 41.66 28.269 40.43 28.7 C 40.401 28.71 40.371 28.72 40.34 28.729 C 41.024 29.334 41.78 29.592 42.446 29.358 Z" style="transform-origin: 81.093px 63.907px; fill: rgb(44, 9, 2);"/>
  </g>
  <g style="transform-origin: 37.29px 26.227px;" transform="matrix(-0.324093, -0.759635, 0.65786, -0.280671, 11.73378, 54.904076)">
    <path d="M 37.948 35.166 C 33.951 35.166 30.711 31.164 30.711 26.226 C 30.711 21.291 33.951 17.288 37.948 17.288 C 38.742 17.288 39.506 17.446 40.222 17.736 C 37.827 18.904 36.147 21.653 36.147 24.861 C 36.147 29.124 39.119 32.582 42.784 32.582 C 42.871 32.582 42.957 32.578 43.044 32.575 C 41.735 34.177 39.936 35.166 37.948 35.166 Z" style="fill: rgb(44, 9, 2);"/>
    <path d="M 42.446 29.358 C 43.787 28.886 44.264 26.606 43.513 24.265 C 42.762 21.923 41.066 20.407 39.725 20.878 C 39.458 20.972 39.227 21.136 39.031 21.36 C 40.011 21.629 40.995 22.736 41.482 24.257 C 42.131 26.279 41.66 28.269 40.43 28.7 C 40.401 28.71 40.371 28.72 40.34 28.729 C 41.024 29.334 41.78 29.592 42.446 29.358 Z" style="transform-origin: 81.093px 63.907px; fill: rgb(44, 9, 2);"/>
  </g>
  <g style="transform-origin: 37.29px 26.227px;" transform="matrix(-0.797174, 0.215859, -0.186939, -0.69037, 72.673729, 51.137276)">
    <path d="M 37.948 35.166 C 33.951 35.166 30.711 31.164 30.711 26.226 C 30.711 21.291 33.951 17.288 37.948 17.288 C 38.742 17.288 39.506 17.446 40.222 17.736 C 37.827 18.904 36.147 21.653 36.147 24.861 C 36.147 29.124 39.119 32.582 42.784 32.582 C 42.871 32.582 42.957 32.578 43.044 32.575 C 41.735 34.177 39.936 35.166 37.948 35.166 Z" style="fill: rgb(44, 9, 2);"/>
    <path d="M 42.446 29.358 C 43.787 28.886 44.264 26.606 43.513 24.265 C 42.762 21.923 41.066 20.407 39.725 20.878 C 39.458 20.972 39.227 21.136 39.031 21.36 C 40.011 21.629 40.995 22.736 41.482 24.257 C 42.131 26.279 41.66 28.269 40.43 28.7 C 40.401 28.71 40.371 28.72 40.34 28.729 C 41.024 29.334 41.78 29.592 42.446 29.358 Z" style="transform-origin: 81.093px 63.907px; fill: rgb(44, 9, 2);"/>
  </g>
  <g style="transform-origin: 37.29px 26.227px;" transform="matrix(0.722017, 0.400965, 0.347244, -0.625282, 61.473347, 38.66412)">
    <path d="M 37.948 35.166 C 33.951 35.166 30.711 31.164 30.711 26.226 C 30.711 21.291 33.951 17.288 37.948 17.288 C 38.742 17.288 39.506 17.446 40.222 17.736 C 37.827 18.904 36.147 21.653 36.147 24.861 C 36.147 29.124 39.119 32.582 42.784 32.582 C 42.871 32.582 42.957 32.578 43.044 32.575 C 41.735 34.177 39.936 35.166 37.948 35.166 Z" style="fill: rgb(44, 9, 2);"/>
    <path d="M 42.446 29.358 C 43.787 28.886 44.264 26.606 43.513 24.265 C 42.762 21.923 41.066 20.407 39.725 20.878 C 39.458 20.972 39.227 21.136 39.031 21.36 C 40.011 21.629 40.995 22.736 41.482 24.257 C 42.131 26.279 41.66 28.269 40.43 28.7 C 40.401 28.71 40.371 28.72 40.34 28.729 C 41.024 29.334 41.78 29.592 42.446 29.358 Z" style="transform-origin: 81.093px 63.907px; fill: rgb(44, 9, 2);"/>
  </g>
  <g style="transform-origin: 37.29px 26.227px;" transform="matrix(0.324093, -0.759635, -0.65786, -0.280671, 55.36409, 53.682793)">
    <path d="M 37.948 35.166 C 33.951 35.166 30.711 31.164 30.711 26.226 C 30.711 21.291 33.951 17.288 37.948 17.288 C 38.742 17.288 39.506 17.446 40.222 17.736 C 37.827 18.904 36.147 21.653 36.147 24.861 C 36.147 29.124 39.119 32.582 42.784 32.582 C 42.871 32.582 42.957 32.578 43.044 32.575 C 41.735 34.177 39.936 35.166 37.948 35.166 Z" style="fill: rgb(44, 9, 2);"/>
    <path d="M 42.446 29.358 C 43.787 28.886 44.264 26.606 43.513 24.265 C 42.762 21.923 41.066 20.407 39.725 20.878 C 39.458 20.972 39.227 21.136 39.031 21.36 C 40.011 21.629 40.995 22.736 41.482 24.257 C 42.131 26.279 41.66 28.269 40.43 28.7 C 40.401 28.71 40.371 28.72 40.34 28.729 C 41.024 29.334 41.78 29.592 42.446 29.358 Z" style="transform-origin: 81.093px 63.907px; fill: rgb(44, 9, 2);"/>
  </g>
  <g style="transform-origin: 37.29px 26.227px;" transform="matrix(-0.797174, 0.215859, -0.186939, -0.69037, 72.673729, 51.137276)">
    <path d="M 37.948 35.166 C 33.951 35.166 30.711 31.164 30.711 26.226 C 30.711 21.291 33.951 17.288 37.948 17.288 C 38.742 17.288 39.506 17.446 40.222 17.736 C 37.827 18.904 36.147 21.653 36.147 24.861 C 36.147 29.124 39.119 32.582 42.784 32.582 C 42.871 32.582 42.957 32.578 43.044 32.575 C 41.735 34.177 39.936 35.166 37.948 35.166 Z" style="fill: rgb(44, 9, 2);"/>
    <path d="M 42.446 29.358 C 43.787 28.886 44.264 26.606 43.513 24.265 C 42.762 21.923 41.066 20.407 39.725 20.878 C 39.458 20.972 39.227 21.136 39.031 21.36 C 40.011 21.629 40.995 22.736 41.482 24.257 C 42.131 26.279 41.66 28.269 40.43 28.7 C 40.401 28.71 40.371 28.72 40.34 28.729 C 41.024 29.334 41.78 29.592 42.446 29.358 Z" style="transform-origin: 81.093px 63.907px; fill: rgb(44, 9, 2);"/>
  </g>
  <g style="transform-origin: 37.29px 26.227px;" transform="matrix(0.722017, 0.400965, 0.347244, -0.625282, 61.473347, 38.66412)">
    <path d="M 37.948 35.166 C 33.951 35.166 30.711 31.164 30.711 26.226 C 30.711 21.291 33.951 17.288 37.948 17.288 C 38.742 17.288 39.506 17.446 40.222 17.736 C 37.827 18.904 36.147 21.653 36.147 24.861 C 36.147 29.124 39.119 32.582 42.784 32.582 C 42.871 32.582 42.957 32.578 43.044 32.575 C 41.735 34.177 39.936 35.166 37.948 35.166 Z" style="fill: rgb(44, 9, 2);"/>
    <path d="M 42.446 29.358 C 43.787 28.886 44.264 26.606 43.513 24.265 C 42.762 21.923 41.066 20.407 39.725 20.878 C 39.458 20.972 39.227 21.136 39.031 21.36 C 40.011 21.629 40.995 22.736 41.482 24.257 C 42.131 26.279 41.66 28.269 40.43 28.7 C 40.401 28.71 40.371 28.72 40.34 28.729 C 41.024 29.334 41.78 29.592 42.446 29.358 Z" style="transform-origin: 81.093px 63.907px; fill: rgb(44, 9, 2);"/>
  </g>
  <g style="transform-origin: 37.29px 26.227px;" transform="matrix(0.324093, -0.759635, -0.65786, -0.280671, 55.364098, 53.682793)">
    <path d="M 37.948 35.166 C 33.951 35.166 30.711 31.164 30.711 26.226 C 30.711 21.291 33.951 17.288 37.948 17.288 C 38.742 17.288 39.506 17.446 40.222 17.736 C 37.827 18.904 36.147 21.653 36.147 24.861 C 36.147 29.124 39.119 32.582 42.784 32.582 C 42.871 32.582 42.957 32.578 43.044 32.575 C 41.735 34.177 39.936 35.166 37.948 35.166 Z" style="fill: rgb(44, 9, 2);"/>
    <path d="M 42.446 29.358 C 43.787 28.886 44.264 26.606 43.513 24.265 C 42.762 21.923 41.066 20.407 39.725 20.878 C 39.458 20.972 39.227 21.136 39.031 21.36 C 40.011 21.629 40.995 22.736 41.482 24.257 C 42.131 26.279 41.66 28.269 40.43 28.7 C 40.401 28.71 40.371 28.72 40.34 28.729 C 41.024 29.334 41.78 29.592 42.446 29.358 Z" style="transform-origin: 81.093px 63.907px; fill: rgb(44, 9, 2);"/>
  </g>
</svg>