<?xml version="1.0" encoding="utf-8"?>
<svg xmlns="http://www.w3.org/2000/svg" viewBox="0 0 140 160" xmlns:bx="https://boxy-svg.com">
  <defs>
    <filter id="motion-blur-filter-0" bx:preset="motion-blur 1 5 horizontal" color-interpolation-filters="sRGB" x="-50%" y="-50%" width="200%" height="200%">
      <feGaussianBlur stdDeviation="5 0" edgeMode="none"/>
    </filter>
    <filter id="gaussian-blur-filter-0" bx:preset="gaussian-blur 1 5" color-interpolation-filters="sRGB" x="-50%" y="-50%" width="200%" height="200%">
      <feGaussianBlur stdDeviation="5 5" edgeMode="none"/>
    </filter>
    <linearGradient gradientUnits="userSpaceOnUse" x1="50.004" y1="2.023" x2="50.004" y2="98.543" id="gradient-0" gradientTransform="matrix(1, 0, 0, 1, -140.409719, 55.484793)">
      <stop offset="0" style="stop-color: rgb(0% 66.275% 31.373%)"/>
      <stop offset="1" style="stop-color: rgb(0% 39.865% 12.746%)"/>
    </linearGradient>
    <radialGradient gradientUnits="userSpaceOnUse" cx="50.005" cy="50.603" r="37.074" id="gradient-1" gradientTransform="matrix(1.065229, 0, 0, 1, -143.289648, 55.484793)">
      <stop offset="0" style="stop-color: rgb(2.7451% 18.431% 59.216%)"/>
      <stop offset="1" style="stop-color: rgb(0% 15.622% 37.624%)"/>
    </radialGradient>
    <filter id="filter-2" bx:preset="gaussian-blur 1 5" color-interpolation-filters="sRGB" x="-50%" y="-50%" width="200%" height="200%">
      <feGaussianBlur stdDeviation="5 5" edgeMode="none"/>
    </filter>
    <filter id="filter-1" bx:preset="gaussian-blur 1 5" color-interpolation-filters="sRGB" x="-50%" y="-50%" width="200%" height="200%">
      <feGaussianBlur stdDeviation="5 5" edgeMode="none"/>
    </filter>
  </defs>
  <rect x="14.463" y="67.376" width="114.533" height="74.134" rx="2" ry="2" style="fill: rgba(0, 248, 255, 0.63); filter: url(&quot;#motion-blur-filter-0&quot;) url(&quot;#gaussian-blur-filter-0&quot;);"/>
  <rect x="1.029" y="100.969" width="137.48" height="57.935" style="stroke-width: 2px; fill: rgb(91, 22, 8); stroke: rgb(255, 255, 255);"/>
  <rect x="6.207" y="100.135" width="127.901" height="55.348" style="fill: rgb(44, 9, 2); stroke: rgb(255, 255, 255);"/>
  <rect x="12.162" y="99.997" width="116.508" height="52.521" style="fill: rgb(91, 22, 8); stroke: rgb(255, 255, 255);"/>
  <rect x="62.611" y="100.372" width="17.495" height="58.539" style="stroke: rgb(0, 0, 0); fill: rgb(67, 22, 0);"/>
  <path d="M 15.569 116.275 L 21.879 116.275 L 21.879 118.967 C 19.932 119.276 18.515 120.229 18.515 121.355 C 18.515 122.482 19.932 123.434 21.879 123.743 L 21.879 126.804 C 21.843 126.804 21.809 126.804 21.774 126.804 C 19.16 126.804 17.042 127.921 17.042 129.299 C 17.042 130.676 19.16 131.793 21.774 131.793 C 21.809 131.793 21.843 131.793 21.879 131.793 L 21.879 134.638 C 19.824 134.91 18.304 135.889 18.304 137.057 C 18.304 138.224 19.824 139.204 21.879 139.476 L 21.879 142.506 C 21.867 142.506 21.853 142.506 21.84 142.506 C 19.227 142.506 17.109 143.623 17.109 145 C 17.109 146.378 19.227 147.495 21.84 147.495 C 21.853 147.495 21.867 147.495 21.879 147.495 L 21.879 149.341 L 15.569 149.341 L 15.569 116.275 Z" style="fill: rgb(77, 23, 12); stroke: rgb(40, 61, 72);"/>
  <path d="M 15.569 116.275 L 21.879 116.275 L 21.879 118.967 C 19.932 119.276 18.515 120.229 18.515 121.355 C 18.515 122.482 19.932 123.434 21.879 123.743 L 21.879 126.804 C 21.843 126.804 21.809 126.804 21.774 126.804 C 19.16 126.804 17.042 127.921 17.042 129.299 C 17.042 130.676 19.16 131.793 21.774 131.793 C 21.809 131.793 21.843 131.793 21.879 131.793 L 21.879 134.638 C 19.824 134.91 18.304 135.889 18.304 137.057 C 18.304 138.224 19.824 139.204 21.879 139.476 L 21.879 142.506 C 21.867 142.506 21.853 142.506 21.84 142.506 C 19.227 142.506 17.109 143.623 17.109 145 C 17.109 146.378 19.227 147.495 21.84 147.495 C 21.853 147.495 21.867 147.495 21.879 147.495 L 21.879 149.341 L 15.569 149.341 L 15.569 116.275 Z" style="fill: rgb(44, 9, 2); stroke: rgb(0, 0, 0);"/>
  <path d="M 119.608 149.653 L 125.917 149.653 L 125.917 146.961 C 123.971 146.652 122.553 145.699 122.553 144.573 C 122.553 143.446 123.971 142.494 125.917 142.185 L 125.917 139.124 C 125.882 139.124 125.848 139.124 125.812 139.124 C 123.199 139.124 121.08 138.007 121.08 136.629 C 121.08 135.252 123.199 134.135 125.812 134.135 C 125.848 134.135 125.882 134.135 125.917 134.135 L 125.917 131.29 C 123.863 131.018 122.343 130.039 122.343 128.871 C 122.343 127.704 123.863 126.724 125.917 126.452 L 125.917 123.422 C 125.905 123.422 125.891 123.422 125.878 123.422 C 123.265 123.422 121.146 122.305 121.146 120.928 C 121.146 119.55 123.265 118.433 125.878 118.433 C 125.891 118.433 125.905 118.433 125.917 118.433 L 125.917 116.587 L 119.608 116.587 L 119.608 149.653 Z" style="stroke: rgb(0, 0, 0); fill: rgb(44, 9, 2); transform-origin: 122.762px 133.12px;" transform="matrix(-1, 0, 0, -1, 0.000005, 0.000015)"/>
  <g style="transform-origin: 37.29px 26.227px;" transform="matrix(0.797174, 0.215859, 0.186939, -0.69037, -5.342369, 112.145615)">
    <path d="M 37.948 35.166 C 33.951 35.166 30.711 31.164 30.711 26.226 C 30.711 21.291 33.951 17.288 37.948 17.288 C 38.742 17.288 39.506 17.446 40.222 17.736 C 37.827 18.904 36.147 21.653 36.147 24.861 C 36.147 29.124 39.119 32.582 42.784 32.582 C 42.871 32.582 42.957 32.578 43.044 32.575 C 41.735 34.177 39.936 35.166 37.948 35.166 Z" style="fill: rgb(44, 9, 2);"/>
    <path d="M 42.446 29.358 C 43.787 28.886 44.264 26.606 43.513 24.265 C 42.762 21.923 41.066 20.407 39.725 20.878 C 39.458 20.972 39.227 21.136 39.031 21.36 C 40.011 21.629 40.995 22.736 41.482 24.257 C 42.131 26.279 41.66 28.269 40.43 28.7 C 40.401 28.71 40.371 28.72 40.34 28.729 C 41.024 29.334 41.78 29.592 42.446 29.358 Z" style="transform-origin: 81.093px 63.907px; fill: rgb(44, 9, 2);"/>
  </g>
  <g style="transform-origin: 37.29px 26.227px;" transform="matrix(-0.722017, 0.400965, -0.347244, -0.625282, 5.85801, 99.672462)">
    <path d="M 37.948 35.166 C 33.951 35.166 30.711 31.164 30.711 26.226 C 30.711 21.291 33.951 17.288 37.948 17.288 C 38.742 17.288 39.506 17.446 40.222 17.736 C 37.827 18.904 36.147 21.653 36.147 24.861 C 36.147 29.124 39.119 32.582 42.784 32.582 C 42.871 32.582 42.957 32.578 43.044 32.575 C 41.735 34.177 39.936 35.166 37.948 35.166 Z" style="fill: rgb(44, 9, 2);"/>
    <path d="M 42.446 29.358 C 43.787 28.886 44.264 26.606 43.513 24.265 C 42.762 21.923 41.066 20.407 39.725 20.878 C 39.458 20.972 39.227 21.136 39.031 21.36 C 40.011 21.629 40.995 22.736 41.482 24.257 C 42.131 26.279 41.66 28.269 40.43 28.7 C 40.401 28.71 40.371 28.72 40.34 28.729 C 41.024 29.334 41.78 29.592 42.446 29.358 Z" style="transform-origin: 81.093px 63.907px; fill: rgb(44, 9, 2);"/>
  </g>
  <g style="transform-origin: 37.29px 26.227px;" transform="matrix(-0.324093, -0.759635, 0.65786, -0.280671, 11.967286, 114.691124)">
    <path d="M 37.948 35.166 C 33.951 35.166 30.711 31.164 30.711 26.226 C 30.711 21.291 33.951 17.288 37.948 17.288 C 38.742 17.288 39.506 17.446 40.222 17.736 C 37.827 18.904 36.147 21.653 36.147 24.861 C 36.147 29.124 39.119 32.582 42.784 32.582 C 42.871 32.582 42.957 32.578 43.044 32.575 C 41.735 34.177 39.936 35.166 37.948 35.166 Z" style="fill: rgb(44, 9, 2);"/>
    <path d="M 42.446 29.358 C 43.787 28.886 44.264 26.606 43.513 24.265 C 42.762 21.923 41.066 20.407 39.725 20.878 C 39.458 20.972 39.227 21.136 39.031 21.36 C 40.011 21.629 40.995 22.736 41.482 24.257 C 42.131 26.279 41.66 28.269 40.43 28.7 C 40.401 28.71 40.371 28.72 40.34 28.729 C 41.024 29.334 41.78 29.592 42.446 29.358 Z" style="transform-origin: 81.093px 63.907px; fill: rgb(44, 9, 2);"/>
  </g>
  <g style="transform-origin: 37.29px 26.227px;" transform="matrix(0.797174, 0.215859, 0.186939, -0.69037, -5.342365, 112.145607)">
    <path d="M 37.948 35.166 C 33.951 35.166 30.711 31.164 30.711 26.226 C 30.711 21.291 33.951 17.288 37.948 17.288 C 38.742 17.288 39.506 17.446 40.222 17.736 C 37.827 18.904 36.147 21.653 36.147 24.861 C 36.147 29.124 39.119 32.582 42.784 32.582 C 42.871 32.582 42.957 32.578 43.044 32.575 C 41.735 34.177 39.936 35.166 37.948 35.166 Z" style="fill: rgb(44, 9, 2);"/>
    <path d="M 42.446 29.358 C 43.787 28.886 44.264 26.606 43.513 24.265 C 42.762 21.923 41.066 20.407 39.725 20.878 C 39.458 20.972 39.227 21.136 39.031 21.36 C 40.011 21.629 40.995 22.736 41.482 24.257 C 42.131 26.279 41.66 28.269 40.43 28.7 C 40.401 28.71 40.371 28.72 40.34 28.729 C 41.024 29.334 41.78 29.592 42.446 29.358 Z" style="transform-origin: 81.093px 63.907px; fill: rgb(44, 9, 2);"/>
  </g>
  <g style="transform-origin: 37.29px 26.227px;" transform="matrix(-0.722017, 0.400965, -0.347244, -0.625282, 5.858012, 99.672455)">
    <path d="M 37.948 35.166 C 33.951 35.166 30.711 31.164 30.711 26.226 C 30.711 21.291 33.951 17.288 37.948 17.288 C 38.742 17.288 39.506 17.446 40.222 17.736 C 37.827 18.904 36.147 21.653 36.147 24.861 C 36.147 29.124 39.119 32.582 42.784 32.582 C 42.871 32.582 42.957 32.578 43.044 32.575 C 41.735 34.177 39.936 35.166 37.948 35.166 Z" style="fill: rgb(44, 9, 2);"/>
    <path d="M 42.446 29.358 C 43.787 28.886 44.264 26.606 43.513 24.265 C 42.762 21.923 41.066 20.407 39.725 20.878 C 39.458 20.972 39.227 21.136 39.031 21.36 C 40.011 21.629 40.995 22.736 41.482 24.257 C 42.131 26.279 41.66 28.269 40.43 28.7 C 40.401 28.71 40.371 28.72 40.34 28.729 C 41.024 29.334 41.78 29.592 42.446 29.358 Z" style="transform-origin: 81.093px 63.907px; fill: rgb(44, 9, 2);"/>
  </g>
  <g style="transform-origin: 37.29px 26.227px;" transform="matrix(-0.324093, -0.759635, 0.65786, -0.280671, 11.967279, 114.691124)">
    <path d="M 37.948 35.166 C 33.951 35.166 30.711 31.164 30.711 26.226 C 30.711 21.291 33.951 17.288 37.948 17.288 C 38.742 17.288 39.506 17.446 40.222 17.736 C 37.827 18.904 36.147 21.653 36.147 24.861 C 36.147 29.124 39.119 32.582 42.784 32.582 C 42.871 32.582 42.957 32.578 43.044 32.575 C 41.735 34.177 39.936 35.166 37.948 35.166 Z" style="fill: rgb(44, 9, 2);"/>
    <path d="M 42.446 29.358 C 43.787 28.886 44.264 26.606 43.513 24.265 C 42.762 21.923 41.066 20.407 39.725 20.878 C 39.458 20.972 39.227 21.136 39.031 21.36 C 40.011 21.629 40.995 22.736 41.482 24.257 C 42.131 26.279 41.66 28.269 40.43 28.7 C 40.401 28.71 40.371 28.72 40.34 28.729 C 41.024 29.334 41.78 29.592 42.446 29.358 Z" style="transform-origin: 81.093px 63.907px; fill: rgb(44, 9, 2);"/>
  </g>
  <g style="transform-origin: 37.29px 26.227px;" transform="matrix(-0.797174, 0.215859, -0.186939, -0.69037, 72.907227, 110.924324)">
    <path d="M 37.948 35.166 C 33.951 35.166 30.711 31.164 30.711 26.226 C 30.711 21.291 33.951 17.288 37.948 17.288 C 38.742 17.288 39.506 17.446 40.222 17.736 C 37.827 18.904 36.147 21.653 36.147 24.861 C 36.147 29.124 39.119 32.582 42.784 32.582 C 42.871 32.582 42.957 32.578 43.044 32.575 C 41.735 34.177 39.936 35.166 37.948 35.166 Z" style="fill: rgb(44, 9, 2);"/>
    <path d="M 42.446 29.358 C 43.787 28.886 44.264 26.606 43.513 24.265 C 42.762 21.923 41.066 20.407 39.725 20.878 C 39.458 20.972 39.227 21.136 39.031 21.36 C 40.011 21.629 40.995 22.736 41.482 24.257 C 42.131 26.279 41.66 28.269 40.43 28.7 C 40.401 28.71 40.371 28.72 40.34 28.729 C 41.024 29.334 41.78 29.592 42.446 29.358 Z" style="transform-origin: 81.093px 63.907px; fill: rgb(44, 9, 2);"/>
  </g>
  <g style="transform-origin: 37.29px 26.227px;" transform="matrix(0.722017, 0.400965, 0.347244, -0.625282, 61.706848, 98.451172)">
    <path d="M 37.948 35.166 C 33.951 35.166 30.711 31.164 30.711 26.226 C 30.711 21.291 33.951 17.288 37.948 17.288 C 38.742 17.288 39.506 17.446 40.222 17.736 C 37.827 18.904 36.147 21.653 36.147 24.861 C 36.147 29.124 39.119 32.582 42.784 32.582 C 42.871 32.582 42.957 32.578 43.044 32.575 C 41.735 34.177 39.936 35.166 37.948 35.166 Z" style="fill: rgb(44, 9, 2);"/>
    <path d="M 42.446 29.358 C 43.787 28.886 44.264 26.606 43.513 24.265 C 42.762 21.923 41.066 20.407 39.725 20.878 C 39.458 20.972 39.227 21.136 39.031 21.36 C 40.011 21.629 40.995 22.736 41.482 24.257 C 42.131 26.279 41.66 28.269 40.43 28.7 C 40.401 28.71 40.371 28.72 40.34 28.729 C 41.024 29.334 41.78 29.592 42.446 29.358 Z" style="transform-origin: 81.093px 63.907px; fill: rgb(44, 9, 2);"/>
  </g>
  <g style="transform-origin: 37.29px 26.227px;" transform="matrix(0.324093, -0.759635, -0.65786, -0.280671, 55.597591, 113.469841)">
    <path d="M 37.948 35.166 C 33.951 35.166 30.711 31.164 30.711 26.226 C 30.711 21.291 33.951 17.288 37.948 17.288 C 38.742 17.288 39.506 17.446 40.222 17.736 C 37.827 18.904 36.147 21.653 36.147 24.861 C 36.147 29.124 39.119 32.582 42.784 32.582 C 42.871 32.582 42.957 32.578 43.044 32.575 C 41.735 34.177 39.936 35.166 37.948 35.166 Z" style="fill: rgb(44, 9, 2);"/>
    <path d="M 42.446 29.358 C 43.787 28.886 44.264 26.606 43.513 24.265 C 42.762 21.923 41.066 20.407 39.725 20.878 C 39.458 20.972 39.227 21.136 39.031 21.36 C 40.011 21.629 40.995 22.736 41.482 24.257 C 42.131 26.279 41.66 28.269 40.43 28.7 C 40.401 28.71 40.371 28.72 40.34 28.729 C 41.024 29.334 41.78 29.592 42.446 29.358 Z" style="transform-origin: 81.093px 63.907px; fill: rgb(44, 9, 2);"/>
  </g>
  <g style="transform-origin: 37.29px 26.227px;" transform="matrix(-0.797174, 0.215859, -0.186939, -0.69037, 72.907227, 110.924324)">
    <path d="M 37.948 35.166 C 33.951 35.166 30.711 31.164 30.711 26.226 C 30.711 21.291 33.951 17.288 37.948 17.288 C 38.742 17.288 39.506 17.446 40.222 17.736 C 37.827 18.904 36.147 21.653 36.147 24.861 C 36.147 29.124 39.119 32.582 42.784 32.582 C 42.871 32.582 42.957 32.578 43.044 32.575 C 41.735 34.177 39.936 35.166 37.948 35.166 Z" style="fill: rgb(44, 9, 2);"/>
    <path d="M 42.446 29.358 C 43.787 28.886 44.264 26.606 43.513 24.265 C 42.762 21.923 41.066 20.407 39.725 20.878 C 39.458 20.972 39.227 21.136 39.031 21.36 C 40.011 21.629 40.995 22.736 41.482 24.257 C 42.131 26.279 41.66 28.269 40.43 28.7 C 40.401 28.71 40.371 28.72 40.34 28.729 C 41.024 29.334 41.78 29.592 42.446 29.358 Z" style="transform-origin: 81.093px 63.907px; fill: rgb(44, 9, 2);"/>
  </g>
  <g style="transform-origin: 37.29px 26.227px;" transform="matrix(0.722017, 0.400965, 0.347244, -0.625282, 61.706848, 98.451172)">
    <path d="M 37.948 35.166 C 33.951 35.166 30.711 31.164 30.711 26.226 C 30.711 21.291 33.951 17.288 37.948 17.288 C 38.742 17.288 39.506 17.446 40.222 17.736 C 37.827 18.904 36.147 21.653 36.147 24.861 C 36.147 29.124 39.119 32.582 42.784 32.582 C 42.871 32.582 42.957 32.578 43.044 32.575 C 41.735 34.177 39.936 35.166 37.948 35.166 Z" style="fill: rgb(44, 9, 2);"/>
    <path d="M 42.446 29.358 C 43.787 28.886 44.264 26.606 43.513 24.265 C 42.762 21.923 41.066 20.407 39.725 20.878 C 39.458 20.972 39.227 21.136 39.031 21.36 C 40.011 21.629 40.995 22.736 41.482 24.257 C 42.131 26.279 41.66 28.269 40.43 28.7 C 40.401 28.71 40.371 28.72 40.34 28.729 C 41.024 29.334 41.78 29.592 42.446 29.358 Z" style="transform-origin: 81.093px 63.907px; fill: rgb(44, 9, 2);"/>
  </g>
  <g style="transform-origin: 37.29px 26.227px;" transform="matrix(0.324093, -0.759635, -0.65786, -0.280671, 55.597599, 113.469841)">
    <path d="M 37.948 35.166 C 33.951 35.166 30.711 31.164 30.711 26.226 C 30.711 21.291 33.951 17.288 37.948 17.288 C 38.742 17.288 39.506 17.446 40.222 17.736 C 37.827 18.904 36.147 21.653 36.147 24.861 C 36.147 29.124 39.119 32.582 42.784 32.582 C 42.871 32.582 42.957 32.578 43.044 32.575 C 41.735 34.177 39.936 35.166 37.948 35.166 Z" style="fill: rgb(44, 9, 2);"/>
    <path d="M 42.446 29.358 C 43.787 28.886 44.264 26.606 43.513 24.265 C 42.762 21.923 41.066 20.407 39.725 20.878 C 39.458 20.972 39.227 21.136 39.031 21.36 C 40.011 21.629 40.995 22.736 41.482 24.257 C 42.131 26.279 41.66 28.269 40.43 28.7 C 40.401 28.71 40.371 28.72 40.34 28.729 C 41.024 29.334 41.78 29.592 42.446 29.358 Z" style="transform-origin: 81.093px 63.907px; fill: rgb(44, 9, 2);"/>
  </g>
  <path d="M 55.391 100.007 L 86.601 100.007 L 86.601 111.242 L 84.065 114.642 L 73.233 114.642 L 73.233 149.493 L 68.975 149.493 L 68.975 114.642 L 57.674 114.642 L 55.391 111.581 L 55.391 100.007 Z" style="stroke: rgb(0, 0, 0); fill: rgb(100, 33, 0);"/>
  <path d="M 65.299 100.603 L 76.713 100.603 L 76.713 109.591 L 75.786 112.311 L 71.824 112.311 L 71.824 140.191 L 70.267 140.191 L 70.267 112.311 L 66.134 112.311 L 65.299 109.862 L 65.299 100.603 Z" style="fill: rgb(155, 67, 24);"/>
  <g transform="matrix(0.700081, 0, 0, 0.721481, 137.613037, -37.424362)" style="">
    <ellipse style="stroke-width: 3px; fill: url(&quot;#gradient-0&quot;); stroke: rgb(255, 255, 255);" cx="-90.406" cy="105.768" rx="47.514" ry="48.26"/>
    <ellipse style="stroke-width: 3px; fill: url(&quot;#gradient-1&quot;); stroke: rgba(255, 255, 255, 0.216);" cx="-90.024" cy="106.088" rx="39.492" ry="41.549"/>
    <path d="M -103.73 118.658 C -113.2 118.658 -120.88 109.595 -120.88 98.416 C -120.88 87.238 -113.2 78.175 -103.73 78.175 C -101.85 78.175 -100.04 78.532 -98.348 79.193 C -104.02 81.834 -108 88.06 -108 95.322 C -108 104.977 -100.96 112.803 -92.277 112.803 C -92.071 112.803 -91.865 112.798 -91.66 112.79 C -94.758 116.417 -99.02 118.658 -103.73 118.658 Z" style="fill: rgb(0, 248, 255);"/>
    <path d="M -66.755 84.223 C -73.474 84.223 -78.92 90.53 -78.92 98.31 C -78.92 106.088 -73.474 112.395 -66.755 112.395 C -65.421 112.395 -64.137 112.147 -62.935 111.687 C -66.957 109.849 -69.783 105.516 -69.783 100.463 C -69.783 93.744 -64.788 88.298 -58.627 88.298 C -58.48 88.298 -58.334 88.301 -58.189 88.307 C -60.387 85.783 -63.414 84.223 -66.755 84.223 Z" style="fill: rgb(0, 248, 255); transform-box: fill-box; transform-origin: 50% 50%;" transform="matrix(-0.827787, 0.561042, -0.561042, -0.827787, -0.000011, -0.000006)"/>
    <path d="M -83.733 119.702 C -88.83 119.702 -92.961 126.009 -92.961 133.789 C -92.961 141.567 -88.83 147.874 -83.733 147.874 C -82.721 147.874 -81.747 147.626 -80.835 147.166 C -83.886 145.328 -86.03 140.995 -86.03 135.942 C -86.03 129.223 -82.241 123.777 -77.567 123.777 C -77.455 123.777 -77.345 123.78 -77.235 123.786 C -78.902 121.262 -81.198 119.702 -83.733 119.702 Z" style="fill: rgb(0, 248, 255); transform-origin: -85.097px 133.788px;" transform="matrix(-0.533305, -0.845923, 0.845923, -0.533305, -0.000009, 0.000007)"/>
    <path d="M -94.552 85.492 C -97.904 85.492 -100.62 90.027 -100.62 95.618 C -100.62 101.211 -97.904 105.745 -94.552 105.745 C -93.887 105.745 -93.246 105.567 -92.647 105.235 C -94.653 103.915 -96.063 100.8 -96.063 97.167 C -96.063 92.337 -93.571 88.422 -90.498 88.422 C -90.425 88.422 -90.352 88.424 -90.279 88.428 C -91.376 86.614 -92.885 85.492 -94.552 85.492 Z" style="fill: rgb(0, 248, 255); transform-box: fill-box; transform-origin: 50% 50%;" transform="matrix(-0.947997, 0.318279, -0.318279, -0.947997, 0.000004, -0.000004)"/>
    <path d="M -76.366 117.751 C -79.718 117.751 -82.434 113.216 -82.434 107.625 C -82.434 102.032 -79.718 97.498 -76.366 97.498 C -75.701 97.498 -75.06 97.676 -74.461 98.008 C -76.467 99.328 -77.877 102.443 -77.877 106.076 C -77.877 110.906 -75.385 114.821 -72.312 114.821 C -72.239 114.821 -72.166 114.819 -72.093 114.815 C -73.19 116.629 -74.699 117.751 -76.366 117.751 Z" style="fill: rgb(0, 248, 255); transform-origin: -77.263px 107.624px;" transform="matrix(0.947997, 0.318279, -0.318279, 0.947997, -0.000002, 0)"/>
    <path d="M -98.08 137.792 C -101.43 137.792 -104.15 133.257 -104.15 127.666 C -104.15 122.073 -101.43 117.539 -98.08 117.539 C -97.415 117.539 -96.774 117.717 -96.175 118.049 C -98.181 119.369 -99.59 122.484 -99.59 126.117 C -99.59 130.947 -97.099 134.862 -94.026 134.862 C -93.953 134.862 -93.88 134.86 -93.807 134.856 C -94.904 136.67 -96.413 137.792 -98.08 137.792 Z" style="fill: rgb(0, 248, 255); transform-origin: -98.977px 127.665px;" transform="matrix(0.252999, 0.967467, -0.967467, 0.252999, 0, 0)"/>
    <path d="M -83.868 65.67 C -87.22 65.67 -89.936 70.205 -89.936 75.796 C -89.936 81.389 -87.22 85.923 -83.868 85.923 C -83.203 85.923 -82.562 85.745 -81.963 85.413 C -83.969 84.093 -85.379 80.978 -85.379 77.345 C -85.379 72.515 -82.887 68.6 -79.814 68.6 C -79.741 68.6 -79.668 68.602 -79.595 68.606 C -80.692 66.792 -82.201 65.67 -83.868 65.67 Z" style="fill: rgb(0, 248, 255); transform-origin: -84.765px 75.797px;" transform="matrix(0.184275, -0.982875, 0.982875, 0.184275, -0.000007, -0.000001)"/>
    <ellipse style="fill: rgba(0, 0, 0, 0.486); filter: url(&quot;#filter-2&quot;); transform-box: fill-box; transform-origin: 50% 50%;" cx="53.85" cy="65.353" rx="29.38" ry="13.407" transform="matrix(0.626891, -0.779107, 0.779107, 0.626891, -124.795226, 59.325418)"/>
    <ellipse style="filter: url(&quot;#filter-1&quot;); fill: rgba(255, 255, 255, 0.18); transform-origin: 53.85px 65.353px;" cx="53.85" cy="65.353" rx="29.38" ry="13.407" transform="matrix(0.626891, -0.779107, 0.779107, 0.626891, -162.902787, 20.088859)"/>
  </g>
</svg>