<?xml version="1.0" encoding="utf-8"?>
<svg xmlns="http://www.w3.org/2000/svg" viewBox="0 0 100 100" xmlns:bx="https://boxy-svg.com">
  <defs>
    <linearGradient gradientUnits="userSpaceOnUse" x1="50.004" y1="2.023" x2="50.004" y2="98.543" id="gradient-0">
      <stop offset="0" style="stop-color: rgb(0% 66.275% 31.373%)"/>
      <stop offset="1" style="stop-color: rgb(0% 39.865% 12.746%)"/>
    </linearGradient>
    <radialGradient gradientUnits="userSpaceOnUse" cx="50.005" cy="50.603" r="37.074" id="gradient-1" gradientTransform="matrix(1.065229, 0, 0, 1, -2.879937, 0)">
      <stop offset="0" style="stop-color: rgb(2.7451% 18.431% 59.216%)"/>
      <stop offset="1" style="stop-color: rgb(0% 15.622% 37.624%)"/>
    </radialGradient>
    <filter id="gaussian-blur-filter-0" bx:preset="gaussian-blur 1 5" color-interpolation-filters="sRGB" x="-50%" y="-50%" width="200%" height="200%">
      <feGaussianBlur stdDeviation="5 5" edgeMode="none"/>
    </filter>
    <filter id="filter-1" bx:preset="gaussian-blur 1 5" color-interpolation-filters="sRGB" x="-50%" y="-50%" width="200%" height="200%">
      <feGaussianBlur stdDeviation="5 5" edgeMode="none"/>
    </filter>
  </defs>
  <ellipse style="stroke-width: 3px; fill: url(&quot;#gradient-0&quot;); stroke: rgb(255, 255, 255);" cx="50.004" cy="50.283" rx="47.514" ry="48.26"/>
  <ellipse style="stroke-width: 3px; fill: url(&quot;#gradient-1&quot;); stroke: rgba(255, 255, 255, 0.216);" cx="50.386" cy="50.603" rx="39.492" ry="41.549"/>
  <path d="M 36.679 63.173 C 27.21 63.173 19.535 54.11 19.535 42.931 C 19.535 31.753 27.21 22.69 36.679 22.69 C 38.559 22.69 40.369 23.047 42.062 23.708 C 36.393 26.349 32.412 32.575 32.412 39.837 C 32.412 49.492 39.45 57.318 48.133 57.318 C 48.339 57.318 48.545 57.313 48.75 57.305 C 45.652 60.932 41.387 63.173 36.679 63.173 Z" style="fill: rgb(0, 248, 255);"/>
  <path d="M 73.655 28.738 C 66.936 28.738 61.49 35.045 61.49 42.825 C 61.49 50.603 66.936 56.91 73.655 56.91 C 74.989 56.91 76.273 56.662 77.475 56.202 C 73.453 54.364 70.627 50.031 70.627 44.978 C 70.627 38.259 75.622 32.813 81.783 32.813 C 81.93 32.813 82.076 32.816 82.221 32.822 C 80.023 30.298 76.996 28.738 73.655 28.738 Z" style="transform-box: fill-box; transform-origin: 50% 50%; fill: rgb(0, 248, 255);" transform="matrix(-0.827787, 0.561042, -0.561042, -0.827787, 0.000006, -0.000003)"/>
  <path d="M 56.677 64.217 C 51.58 64.217 47.449 70.524 47.449 78.304 C 47.449 86.082 51.58 92.389 56.677 92.389 C 57.689 92.389 58.663 92.141 59.575 91.681 C 56.524 89.843 54.38 85.51 54.38 80.457 C 54.38 73.738 58.169 68.292 62.843 68.292 C 62.955 68.292 63.065 68.295 63.175 68.301 C 61.508 65.777 59.212 64.217 56.677 64.217 Z" style="transform-origin: 55.313px 78.303px; fill: rgb(0, 248, 255);" transform="matrix(-0.533305, -0.845923, 0.845923, -0.533305, 0.000008, -0.000003)"/>
  <path d="M 45.858 30.007 C 42.506 30.007 39.79 34.542 39.79 40.133 C 39.79 45.726 42.506 50.26 45.858 50.26 C 46.523 50.26 47.164 50.082 47.763 49.75 C 45.757 48.43 44.347 45.315 44.347 41.682 C 44.347 36.852 46.839 32.937 49.912 32.937 C 49.985 32.937 50.058 32.939 50.131 32.943 C 49.034 31.129 47.525 30.007 45.858 30.007 Z" style="transform-box: fill-box; transform-origin: 50% 50%; fill: rgb(0, 248, 255);" transform="matrix(-0.947997, 0.318279, -0.318279, -0.947997, -0.000003, 0.000002)"/>
  <path d="M 64.044 62.266 C 60.692 62.266 57.976 57.731 57.976 52.14 C 57.976 46.547 60.692 42.013 64.044 42.013 C 64.709 42.013 65.35 42.191 65.949 42.523 C 63.943 43.843 62.533 46.958 62.533 50.591 C 62.533 55.421 65.025 59.336 68.098 59.336 C 68.171 59.336 68.244 59.334 68.317 59.33 C 67.22 61.144 65.711 62.266 64.044 62.266 Z" style="transform-origin: 63.147px 52.139px; fill: rgb(0, 248, 255);" transform="matrix(0.947997, 0.318279, -0.318279, 0.947997, -0.000001, -0.000001)"/>
  <path d="M 42.33 82.307 C 38.978 82.307 36.262 77.772 36.262 72.181 C 36.262 66.588 38.978 62.054 42.33 62.054 C 42.995 62.054 43.636 62.232 44.235 62.564 C 42.229 63.884 40.819 66.999 40.819 70.632 C 40.819 75.462 43.311 79.377 46.384 79.377 C 46.457 79.377 46.53 79.375 46.603 79.371 C 45.506 81.185 43.997 82.307 42.33 82.307 Z" style="transform-origin: 41.433px 72.18px; fill: rgb(0, 248, 255);" transform="matrix(0.252999, 0.967467, -0.967467, 0.252999, 0, 0.000002)"/>
  <path d="M 56.542 10.185 C 53.19 10.185 50.474 14.72 50.474 20.311 C 50.474 25.904 53.19 30.438 56.542 30.438 C 57.207 30.438 57.848 30.26 58.447 29.928 C 56.441 28.608 55.031 25.493 55.031 21.86 C 55.031 17.03 57.523 13.115 60.596 13.115 C 60.669 13.115 60.742 13.117 60.815 13.121 C 59.718 11.307 58.209 10.185 56.542 10.185 Z" style="transform-origin: 55.645px 20.312px; fill: rgb(0, 248, 255);" transform="matrix(0.184275, -0.982875, 0.982875, 0.184275, 0, 0)"/>
  <ellipse style="filter: url(&quot;#gaussian-blur-filter-0&quot;); fill: rgba(0, 0, 0, 0.486); transform-box: fill-box; transform-origin: 50% 50%;" cx="53.85" cy="65.353" rx="29.38" ry="13.407" transform="matrix(0.626891, -0.779107, 0.779107, 0.626891, 15.614474, 3.840615)"/>
  <ellipse style="filter: url(&quot;#filter-1&quot;); fill: rgba(255, 255, 255, 0.18); transform-origin: 53.85px 65.353px;" cx="53.85" cy="65.353" rx="29.38" ry="13.407" transform="matrix(0.626891, -0.779107, 0.779107, 0.626891, -22.493096, -35.395928)"/>
</svg>