<?xml version="1.0" encoding="utf-8"?>
<svg xmlns="http://www.w3.org/2000/svg" viewBox="0 0 110 180" width="110px" height="180px" xmlns:bx="https://boxy-svg.com">
  <defs>
    <linearGradient gradientUnits="userSpaceOnUse" x1="23.33" y1="12.196" x2="23.33" y2="41.831" id="gradient-4">
      <stop offset="0" style="stop-color: rgb(19.216% 19.216% 19.216%)"/>
      <stop offset="1" style="stop-color: rgb(12.506% 12.506% 12.506%)"/>
    </linearGradient>
    <linearGradient gradientUnits="userSpaceOnUse" x1="23.33" y1="12.196" x2="23.33" y2="41.831" id="gradient-5">
      <stop offset="0" style="stop-color: rgb(19.216% 19.216% 19.216%)"/>
      <stop offset="1" style="stop-color: rgb(12.506% 12.506% 12.506%)"/>
    </linearGradient>
    <radialGradient gradientUnits="userSpaceOnUse" cx="56.844" cy="57.117" r="31.787" id="gradient-6">
      <stop offset="0" style="stop-color: rgb(66.667% 16.863% 16.863%)"/>
      <stop offset="1" style="stop-color: rgb(48.354% 0% 3.6679%)"/>
    </radialGradient>
    <linearGradient gradientUnits="userSpaceOnUse" x1="54.471" y1="90.952" x2="54.471" y2="169.134" id="gradient-0">
      <stop offset="0" style="stop-color: rgb(81.961% 16.471% 16.471%)"/>
      <stop offset="1" style="stop-color: rgb(56.52% 0% 4.9432%)"/>
    </linearGradient>
    <linearGradient gradientUnits="userSpaceOnUse" x1="91.154" y1="40.261" x2="91.154" y2="178.52" id="gradient-2" gradientTransform="matrix(1, 0, 0, 1, -2, 1)">
      <stop offset="0" style="stop-color: rgb(100% 52.941% 0%)"/>
      <stop offset="1" style="stop-color: rgb(65.441% 25.265% 0%)"/>
    </linearGradient>
  </defs>
  <g style="" transform="matrix(1.025854, 0, 0, 1.060095, -2.736267, -9.788422)">
    <path d="M 35.242 91.228 L 70.881 91.471 L 81.306 174.143 L 30.636 174.143 L 35.242 91.228 Z" style="stroke: rgb(44, 10, 10); fill: rgb(120, 27, 27);"/>
    <path d="M 79.859 94.573 L 86.413 85.208 L 86.387 98.218 L 86.248 98.218 L 86.208 118.427 L 86.241 118.427 L 86.229 124.702 C 85.175 127.519 82.945 129.731 80.164 130.697 L 76.282 130.689 L 76.306 118.407 L 76.342 118.407 L 76.373 102.456 C 75.616 101.447 75.093 99.303 75.093 96.821 C 75.093 93.369 76.104 90.571 77.351 90.571 C 78.312 90.571 79.132 92.231 79.458 94.572 L 79.859 94.573 Z" style="stroke: rgb(0, 0, 0); fill: rgb(72, 92, 78); transform-origin: 80.753px 107.953px;" transform="matrix(0.875498, -0.483221, 0.483221, 0.875498, 0.000003, -0.000001)"/>
    <g transform="matrix(1, 0, 0, 1, 6.982005, 9.275314)">
      <path d="M 12.964 12.196 L 35.218 38.481 L 31.329 41.831 L 19.962 28.404 C 15.263 22.017 12.119 16.524 11.443 13.506 L 12.964 12.196 Z" style="stroke: rgb(0, 0, 0); stroke-linejoin: round; stroke-linecap: round; fill: url(&quot;#gradient-4&quot;); transform-origin: 19.013px 13.154px;"/>
      <g transform="matrix(1.398026, -0.118815, 0.132642, 1.560712, 2.879618, 1.618607)" style="transform-origin: 11.8618px 17.6388px;">
        <path d="M 13.052 20.964 L 13.052 26.317 L 10.434 26.317 L 10.434 23.583 C 10.71 22.354 11.297 21.388 12.028 20.964 L 13.052 20.964 Z" style="stroke-linejoin: round; stroke-linecap: round; transform-box: fill-box; transform-origin: 50% 50%; stroke-width: 0.641198px; stroke: rgb(0, 0, 0); fill: rgb(132, 37, 37);" transform="matrix(-0.570538, -0.821271, 0.821271, -0.570538, -0.000001, -0.000002)"/>
        <path d="M 8.896 12.98 L 8.896 18.333 L 6.278 18.333 L 6.278 15.599 C 6.554 14.37 7.141 13.404 7.872 12.98 L 8.896 12.98 Z" style="stroke-linejoin: round; stroke-linecap: round; transform-origin: 7.587px 15.657px; stroke-width: 0.641194px; stroke: rgb(0, 0, 0); fill: rgb(132, 37, 37);" transform="matrix(-0.142092, -0.989853, 0.989853, -0.142092, -0.000002, 0)"/>
        <path d="M 10.662 17.127 L 10.662 22.48 L 8.044 22.48 L 8.044 19.746 C 8.32 18.517 8.907 17.551 9.638 17.127 L 10.662 17.127 Z" style="stroke-linejoin: round; stroke-linecap: round; transform-origin: 9.353px 19.804px; stroke-width: 0.641197px; stroke: rgb(0, 0, 0); fill: rgb(132, 37, 37);" transform="matrix(-0.465849, -0.884864, 0.884864, -0.465849, 0.000001, 0)"/>
        <path d="M 17.44 17.691 L 17.44 12.338 L 14.822 12.338 L 14.822 15.072 C 15.098 16.301 15.685 17.267 16.416 17.691 L 17.44 17.691 Z" style="stroke-linejoin: round; stroke-linecap: round; transform-origin: 16.131px 15.014px; stroke-width: 0.641199px; stroke: rgb(0, 0, 0); fill: rgb(132, 37, 37);" transform="matrix(-0.689551, -0.724237, 0.724237, -0.689551, 0.000001, 0)"/>
        <path d="M 14.93 14.622 L 14.93 9.269 L 12.312 9.269 L 12.312 12.003 C 12.588 13.232 13.175 14.198 13.906 14.622 L 14.93 14.622 Z" style="stroke-linejoin: round; stroke-linecap: round; transform-origin: 13.621px 11.945px; stroke-width: 0.641199px; stroke: rgb(0, 0, 0); fill: rgb(132, 37, 37);" transform="matrix(-0.782727, -0.622365, 0.622365, -0.782727, -0.000002, -0.000002)"/>
      </g>
      <path d="M 25.94 14.991 L 19.92 20.772 L 22.723 23.742 L 25.798 20.789 C 26.885 19.149 27.343 17.44 27.037 16.152 L 25.94 14.991 Z" style="stroke: rgb(0, 0, 0); stroke-linejoin: round; stroke-linecap: round; fill: rgb(91, 22, 22); transform-box: fill-box; transform-origin: 51.1931% 48.0057%;" transform="matrix(0.999209, -0.039768, 0.039768, 0.999209, 0, 0)"/>
    </g>
    <rect x="57.871" y="147.6" width="13.379" height="27.796" style="stroke: rgb(0, 0, 0); fill: rgb(37, 47, 41);"/>
    <rect x="36.376" y="144.534" width="18.485" height="33.949" style="stroke: rgb(0, 0, 0); fill: rgb(82, 111, 91); transform-origin: 45.619px 161.508px;" transform="matrix(0.998752, 0.049936, -0.049936, 0.998752, 0.948767, -0.069662)"/>
    <path d="M 36.177 123.666 L 36.215 123.666 L 36.133 136.099 L 31.859 136.07 C 28.807 135.067 26.373 132.806 25.238 129.945 L 25.281 123.592 L 25.316 123.592 L 25.452 103.13 L 25.297 103.129 L 25.385 89.956 L 32.517 99.501 L 34.626 99.515 C 34.862 96.437 35.557 94.206 36.378 94.206 C 37.393 94.206 38.216 97.615 38.216 101.821 C 38.216 106.027 37.393 109.436 36.378 109.436 C 36.342 109.436 36.307 109.432 36.271 109.423 L 36.177 123.666 Z" style="stroke: rgb(0, 0, 0); fill: rgb(59, 78, 65);"/>
    <path d="M 36.604 90.952 L 72.339 90.952 L 72.339 169.134 L 60.321 169.134 L 55.057 151.15 L 48.622 169.134 L 36.604 169.134 L 36.604 90.952 Z" style="stroke: rgb(0, 0, 0); fill: url(&quot;#gradient-0&quot;);"/>
    <ellipse style="fill: rgb(61, 17, 17); transform-origin: 31.431px 66.892px;" cx="31.431" cy="66.892" rx="5.787" ry="8.414" transform="matrix(0.847741, 0.530411, -0.523842, 0.851851, 33.093674, 41.597753)"/>
    <ellipse style="fill: rgb(61, 17, 17);" cx="54.537" cy="102.817" rx="17.022" ry="9.841"/>
    <ellipse style="fill: rgb(61, 17, 17); transform-origin: 31.431px 66.892px;" cx="31.431" cy="66.892" rx="5.779" ry="8.426" transform="matrix(0.941432, -0.337203, 0.332067, 0.943272, 12.936922, 42.777805)"/>
    <path d="M 86 70.285 C 86 83.323 78.865 94.59 68.519 99.903 C 68.654 100.202 68.769 100.517 68.863 100.844 L 68.863 104.639 L 68.518 104.639 L 68.852 104.765 L 67.439 108.306 C 66.344 109.728 64.873 110.618 63.437 110.717 L 61.736 110.085 L 64.205 103.905 L 64.205 101.707 C 61.325 102.65 58.268 103.158 55.098 103.158 C 51.671 103.158 48.375 102.564 45.294 101.469 L 45.294 104.248 L 47.763 110.428 L 46.062 111.06 C 44.627 110.961 43.155 110.071 42.061 108.649 L 40.647 105.108 L 40.981 104.982 L 40.636 104.982 L 40.636 101.187 C 40.792 100.647 41.005 100.141 41.262 99.687 C 31.142 94.286 24.197 83.149 24.197 70.285 C 24.197 52.129 38.032 37.412 55.098 37.412 C 72.166 37.412 86 52.129 86 70.285 Z" style="stroke: rgb(0, 0, 0); stroke-width: 2px; fill: rgb(82, 111, 91);"/>
    <ellipse style="fill: rgb(163, 217, 179);" cx="61.166" cy="69.076" rx="24.277" ry="27.939"/>
    <path d="M 80.588 65.566 C 80.588 72.495 75.822 78.112 69.942 78.112 C 64.062 78.112 59.296 72.495 59.296 65.566 C 59.296 64.704 59.37 63.862 59.51 63.049 L 80.374 63.049 C 80.514 63.862 80.588 64.704 80.588 65.566 Z" style="transform-box: fill-box; transform-origin: 50% 50%;" transform="matrix(0.94138, -0.337348, 0.337348, 0.94138, 0.000001, 0)"/>
    <path d="M 52.729 66.617 C 52.729 73.546 47.963 79.163 42.083 79.163 C 36.203 79.163 31.437 73.546 31.437 66.617 C 31.437 65.303 31.608 64.036 31.926 62.846 L 52.24 62.846 C 52.558 64.036 52.729 65.303 52.729 66.617 Z" style="transform-box: fill-box; transform-origin: 50% 50%;" transform="matrix(0.934903, 0.354904, -0.354904, 0.934903, 0.000001, 0)"/>
    <rect x="37.094" y="138.343" width="35.031" height="5.42" style="fill: rgba(0, 0, 0, 0.365);"/>
    <rect x="36.394" y="134.926" width="35.624" height="4.61" style="stroke: rgb(0, 0, 0); fill: rgb(255, 156, 0);"/>
    <path d="M 88.631 64.012 C 88.631 72.854 85.983 80.973 81.563 87.35 C 83.132 83.46 83.999 79.179 83.999 74.684 C 83.999 56.813 70.279 42.325 53.353 42.325 C 40.605 42.325 29.676 50.542 25.057 62.233 C 25.852 42.554 39.772 26.885 56.826 26.885 C 74.391 26.885 88.631 43.507 88.631 64.012 Z" style="stroke: rgb(0, 0, 0); fill: url(&quot;#gradient-6&quot;);"/>
    <ellipse style="fill: rgba(0, 0, 0, 0.306); transform-box: fill-box; transform-origin: 50% 50%;" cx="81.977" cy="69.615" rx="5.563" ry="19.447" transform="matrix(0.982896, 0.184163, -0.184163, 0.982896, 0.122749, 1.962687)"/>
    <path d="M 89.154 41.261 L 96.333 72.202 L 92.181 72.202 L 90.228 77.232 L 90.228 179.52 L 87.652 179.52 L 87.652 77.504 L 85.593 72.202 L 81.976 72.202 L 89.154 41.261 Z" style="stroke: rgb(0, 0, 0); fill: url(&quot;#gradient-2&quot;);"/>
    <g transform="matrix(-1, 0, 0, 1, 109.494408, 3.895557)" style="">
      <path d="M 12.964 12.196 L 35.218 38.481 L 31.329 41.831 L 19.962 28.404 C 15.263 22.017 12.119 16.524 11.443 13.506 L 12.964 12.196 Z" style="stroke: rgb(0, 0, 0); stroke-linejoin: round; stroke-linecap: round; transform-origin: 19.013px 13.154px; fill: url(&quot;#gradient-5&quot;);"/>
      <g transform="matrix(1.398026, -0.118815, 0.132642, 1.560712, 2.879618, 1.618607)" style="transform-origin: 11.8618px 17.6388px;">
        <path d="M 13.052 20.964 L 13.052 26.317 L 10.434 26.317 L 10.434 23.583 C 10.71 22.354 11.297 21.388 12.028 20.964 L 13.052 20.964 Z" style="stroke-linejoin: round; stroke-linecap: round; transform-box: fill-box; transform-origin: 50% 50%; stroke-width: 0.641198px; stroke: rgb(0, 0, 0); fill: rgb(132, 37, 37);" transform="matrix(-0.570538, -0.821271, 0.821271, -0.570538, -0.000001, -0.000002)"/>
        <path d="M 8.896 12.98 L 8.896 18.333 L 6.278 18.333 L 6.278 15.599 C 6.554 14.37 7.141 13.404 7.872 12.98 L 8.896 12.98 Z" style="stroke-linejoin: round; stroke-linecap: round; transform-origin: 7.587px 15.657px; stroke-width: 0.641194px; stroke: rgb(0, 0, 0); fill: rgb(132, 37, 37);" transform="matrix(-0.142092, -0.989853, 0.989853, -0.142092, -0.000002, 0)"/>
        <path d="M 10.662 17.127 L 10.662 22.48 L 8.044 22.48 L 8.044 19.746 C 8.32 18.517 8.907 17.551 9.638 17.127 L 10.662 17.127 Z" style="stroke-linejoin: round; stroke-linecap: round; transform-origin: 9.353px 19.804px; stroke-width: 0.641197px; stroke: rgb(0, 0, 0); fill: rgb(132, 37, 37);" transform="matrix(-0.465849, -0.884864, 0.884864, -0.465849, 0.000001, 0)"/>
        <path d="M 17.44 17.691 L 17.44 12.338 L 14.822 12.338 L 14.822 15.072 C 15.098 16.301 15.685 17.267 16.416 17.691 L 17.44 17.691 Z" style="stroke-linejoin: round; stroke-linecap: round; transform-origin: 16.131px 15.014px; stroke-width: 0.641199px; stroke: rgb(0, 0, 0); fill: rgb(132, 37, 37);" transform="matrix(-0.689551, -0.724237, 0.724237, -0.689551, 0.000001, 0)"/>
        <path d="M 14.93 14.622 L 14.93 9.269 L 12.312 9.269 L 12.312 12.003 C 12.588 13.232 13.175 14.198 13.906 14.622 L 14.93 14.622 Z" style="stroke-linejoin: round; stroke-linecap: round; transform-origin: 13.621px 11.945px; stroke-width: 0.641199px; stroke: rgb(0, 0, 0); fill: rgb(132, 37, 37);" transform="matrix(-0.782727, -0.622365, 0.622365, -0.782727, -0.000002, -0.000002)"/>
      </g>
      <path d="M 25.94 14.991 L 19.92 20.772 L 22.723 23.742 L 25.798 20.789 C 26.885 19.149 27.343 17.44 27.037 16.152 L 25.94 14.991 Z" style="stroke: rgb(0, 0, 0); stroke-linejoin: round; stroke-linecap: round; fill: rgb(91, 22, 22); transform-box: fill-box; transform-origin: 51.1931% 48.0057%;" transform="matrix(0.999209, -0.039768, 0.039768, 0.999209, 0, 0)"/>
    </g>
    <ellipse style="stroke: rgb(0, 0, 0); fill: rgb(255, 255, 255);" cx="55.696" cy="49" rx="3.765" ry="5.235"/>
    <ellipse style="stroke: rgb(0, 0, 0); fill: rgb(255, 255, 255); transform-origin: 59.116px 29.519px;" cx="59.116" cy="29.519" rx="8.454" ry="12.941" transform="matrix(0.978332, 0.207042, -0.207042, 0.978332, -2.060918, 5.826419)"/>
    <ellipse style="stroke: rgb(0, 0, 0); fill: rgb(135, 80, 17); transform-box: fill-box; transform-origin: 50% 50%;" cx="59.116" cy="29.519" rx="6.29" ry="11.611" transform="matrix(0.978332, 0.207042, -0.207042, 0.978332, -3.534194, 4.997699)"/>
    <ellipse style="fill: rgb(255, 216, 82); transform-origin: 59.116px 29.519px;" cx="59.116" cy="29.519" rx="4.967" ry="9.022" transform="matrix(0.978332, 0.207042, -0.207042, 0.978332, -3.534194, 4.770116)"/>
    <ellipse style="fill: rgb(135, 80, 17); transform-origin: 59.116px 29.519px;" cx="59.116" cy="29.519" rx="3.742" ry="7.623" transform="matrix(0.978332, 0.207042, -0.207042, 0.978332, -1.804913, 5.633522)"/>
    <ellipse style="fill: rgb(255, 216, 82); transform-origin: 59.116px 29.519px;" cx="59.116" cy="29.519" rx="2.447" ry="4.401" transform="matrix(0.978332, 0.207042, -0.207042, 0.978332, -0.991122, 5.761487)"/>
    <ellipse style="stroke: rgb(0, 0, 0); fill: rgb(255, 0, 0);" cx="89.154" cy="66.606" rx="3.415" ry="4.688"/>
    <ellipse style="fill: rgb(255, 93, 93);" cx="89.931" cy="65.518" rx="1.894" ry="2.421"/>
    <path d="M 59.344 134.943 C 59.344 139.551 57.405 143.287 55.012 143.287 C 52.621 143.287 50.682 139.551 50.682 134.943 C 50.682 134.439 50.705 133.947 50.749 133.468 C 50.964 133.575 51.191 133.632 51.424 133.632 C 52.807 133.632 53.927 131.623 53.927 129.144 C 53.927 128.381 53.82 127.661 53.632 127.032 C 54.066 126.751 54.53 126.599 55.012 126.599 C 55.575 126.599 56.112 126.804 56.604 127.179 C 56.414 127.811 56.307 128.534 56.307 129.301 C 56.307 131.779 57.427 133.79 58.808 133.79 C 58.975 133.79 59.138 133.76 59.296 133.704 C 59.327 134.108 59.344 134.521 59.344 134.943 Z" style="stroke: rgb(0, 0, 0); fill: rgb(255, 156, 0);"/>
    <path d="M 627 395 Q 627 394.949 627.047 394.919 Q 627.097 394.887 627.162 394.907 Q 627.234 394.928 627.28 395 Q 627.332 395.081 627.324 395.187 Q 627.314 395.305 627.234 395.405 Q 627.144 395.515 627 395.561 Q 626.842 395.611 626.673 395.566 Q 626.489 395.518 626.353 395.374 Q 626.205 395.218 626.159 395 Q 626.109 394.766 626.191 394.533 Q 626.277 394.284 626.486 394.11 Q 626.707 393.925 627 393.879 Q 627.309 393.83 627.607 393.948 Q 627.921 394.072 628.133 394.346 Q 628.355 394.632 628.402 395 Q 628.451 395.384 628.295 395.748 Q 628.133 396.126 627.794 396.376 Q 627.443 396.635 627 396.682 Q 626.541 396.731 626.112 396.538 Q 625.669 396.338 625.381 395.934 Q 625.085 395.518 625.038 395 Q 624.989 394.466 625.22 393.972 Q 625.457 393.463 625.925 393.139 Q 626.407 392.805 627 392.757 Q 627.609 392.709 628.168 392.977 Q 628.742 393.252 629.104 393.785 Q 629.476 394.332 629.523 395 Q 629.571 395.685 629.266 396.308 Q 628.953 396.947 628.355 397.347 Q 627.743 397.756 627 397.803 Q 626.24 397.852 625.552 397.509 Q 624.848 397.158 624.41 396.495 Q 623.964 395.818 623.916 395 Q 623.868 394.165 624.249 393.411 Q 624.637 392.643 625.365 392.168 Q 626.107 391.683 627 391.636 Q 626.996 391.636 627 391.636" bx:shape="spiral 627 395 0 3.364 0 1080 1@76d26dad" style="fill: none; stroke-width: 0.41654px; stroke: rgb(0, 0, 0);" transform="matrix(0.888653755188, 0, 0, 1.512078046799, -501.858764648409, -459.759338379022)"/>
    <path d="M 57.983 56.823 C 57.983 59.097 56.96 60.941 55.697 60.941 C 54.435 60.941 53.412 59.097 53.412 56.823 C 53.412 54.549 54.462 50.334 55.724 50.334 C 56.986 50.334 57.983 54.549 57.983 56.823 Z" style="stroke: rgb(0, 0, 0); fill: rgb(255, 255, 255);"/>
    <path d="M 57.343 56.371 C 57.343 57.733 56.627 58.838 55.743 58.838 C 54.859 58.838 54.144 57.733 54.144 56.371 C 54.144 55.008 54.878 52.483 55.762 52.483 C 56.645 52.483 57.343 55.008 57.343 56.371 Z" style="stroke: rgb(0, 0, 0); fill: rgb(0, 255, 220);"/>
  </g>
</svg>