<?xml version="1.0" encoding="utf-8"?>
<svg xmlns="http://www.w3.org/2000/svg" viewBox="0 0 130 200" width="110px" height="200px" xmlns:bx="https://boxy-svg.com">
  <defs>
    <linearGradient gradientUnits="userSpaceOnUse" x1="50.803" y1="31.837" x2="50.803" y2="143.346" id="gradient-4" gradientTransform="matrix(1, 0, 0, 1, 15.052399, -27.780254)">
      <stop offset="0" style="stop-color: rgb(4.3137% 21.961% 9.8039%)"/>
      <stop offset="1" style="stop-color: rgb(0% 15.063% 2.1713%)"/>
    </linearGradient>
    <linearGradient gradientUnits="userSpaceOnUse" x1="66.492" y1="159.433" x2="66.492" y2="195.983" id="gradient-3" gradientTransform="matrix(1.082059, 0, 0, 1.057441, 7.595433, -7.459494)">
      <stop offset="0" style="stop-color: rgb(1.5686% 17.647% 5.098%)"/>
      <stop offset="1" style="stop-color: rgb(0% 12.763% 0%)"/>
    </linearGradient>
    <linearGradient gradientUnits="userSpaceOnUse" x1="60.234" y1="150.683" x2="60.234" y2="160.239" id="gradient-13" gradientTransform="matrix(1, 0, 0, 1, 5.774694, 1.118403)">
      <stop offset="0" style="stop-color: rgb(100% 61.176% 0%)"/>
      <stop offset="1" style="stop-color: rgb(63.733% 31.968% 0%)"/>
    </linearGradient>
    <linearGradient gradientUnits="userSpaceOnUse" x1="77.923" y1="153.739" x2="77.923" y2="180.045" id="gradient-15" gradientTransform="matrix(1, 0, 0, 1, 5.774694, -334.902405)">
      <stop offset="0" style="stop-color: rgb(100% 61.176% 0%)"/>
      <stop offset="1" style="stop-color: rgb(63.733% 31.968% 0%)"/>
    </linearGradient>
    <radialGradient gradientUnits="userSpaceOnUse" cx="60.169" cy="138.307" r="42.071" id="gradient-2" gradientTransform="matrix(1, 0, 0, 1, 5.774694, 1.118403)">
      <stop offset="0" style="stop-color: rgb(10.588% 25.882% 89.412%)"/>
      <stop offset="1" style="stop-color: rgb(0% 24.045% 48.428%)"/>
    </radialGradient>
    <radialGradient gradientUnits="userSpaceOnUse" cx="74.592" cy="122.523" r="50.468" id="gradient-0" gradientTransform="matrix(1, 0, 0, 1, -7.067739, 0.177956)">
      <stop offset="0" style="stop-color: rgb(3.9216% 36.078% 10.98%)"/>
      <stop offset="1" style="stop-color: rgb(0% 23.403% 0%)"/>
    </radialGradient>
    <filter id="gaussian-blur-filter-0" bx:preset="gaussian-blur 1 1.3" color-interpolation-filters="sRGB" x="-50%" y="-50%" width="200%" height="200%">
      <feGaussianBlur stdDeviation="1.3 1.3" edgeMode="none"/>
    </filter>
    <filter id="filter-1" bx:preset="gaussian-blur 1 1.3" color-interpolation-filters="sRGB" x="-50%" y="-50%" width="200%" height="200%">
      <feGaussianBlur stdDeviation="1.3 1.3" edgeMode="none"/>
    </filter>
    <filter id="gaussian-blur-filter-1" bx:preset="gaussian-blur 1 5" color-interpolation-filters="sRGB" x="-50%" y="-50%" width="200%" height="200%">
      <feGaussianBlur stdDeviation="5 5" edgeMode="none"/>
    </filter>
    <filter id="motion-blur-filter-0" bx:preset="motion-blur 1 2 horizontal" color-interpolation-filters="sRGB" x="-50%" y="-50%" width="200%" height="200%">
      <feGaussianBlur stdDeviation="2 0" edgeMode="none"/>
    </filter>
  </defs>
  <path stroke-width="0" d="M 75.438 20.302 C 77.609 19.98 82.988 20.138 86.223 21.545 C 89.475 22.96 92.57 25.74 94.89 28.801 C 97.3 31.977 99.13 36.524 100.282 40.408 C 101.366 44.056 100.235 49.471 101.823 51.392 C 103.109 52.947 105.767 51.715 107.793 52.637 C 110.121 53.694 112.931 55.255 114.919 57.817 C 117.247 60.817 119.085 63.717 120.311 70.253 C 122.485 81.826 122.23 114.623 121.468 127.46 C 120.999 135.329 120.551 139.687 118.771 144.041 C 117.275 147.703 114.786 150.548 112.415 152.539 C 110.305 154.313 107.913 155.301 105.483 155.856 C 103.036 156.414 99.946 156.301 97.779 155.856 C 95.954 155.481 93.904 153.346 93.157 153.783 C 92.527 154.153 92.837 156.049 92.964 157.307 C 93.108 158.72 93.878 159.63 94.12 161.867 C 94.528 165.636 94.706 175.204 94.12 179.277 C 93.733 181.966 93.3 183.109 92.193 185.081 C 90.869 187.445 88.452 190.483 86.223 192.335 C 84.124 194.081 82.102 195.387 79.291 196.066 C 75.906 196.884 71.525 196.451 66.965 196.066 C 61.668 195.619 53.358 194.793 49.246 193.165 C 46.39 192.033 45.04 191.178 43.276 188.812 C 40.957 185.698 38.539 180.259 37.499 174.717 C 36.277 168.211 39.983 154.668 37.499 151.71 C 35.734 149.611 31.342 153.273 28.447 152.539 C 25.426 151.774 22.228 149.684 19.78 146.944 C 17.049 143.887 14.995 139.128 13.232 134.507 C 11.333 129.532 9.772 123.655 8.996 117.926 C 8.201 112.058 8.284 106.554 8.61 99.686 C 8.997 91.537 10.185 78.162 11.692 71.912 C 12.652 67.924 13.536 66.213 15.158 63.621 C 16.879 60.87 19.499 57.886 21.899 55.952 C 24.083 54.193 26.447 52.833 28.832 52.221 C 31.138 51.63 34.398 53.874 35.958 52.221 C 38.013 50.045 36.176 41.502 37.883 37.091 C 39.528 32.843 42.811 28.808 45.78 26.105 C 48.459 23.665 51.036 22.036 54.639 21.131 C 58.965 20.045 67.474 20.945 70.431 21.131 C 71.896 21.224 72.285 21.691 73.128 21.545 C 73.953 21.403 74.216 20.483 75.438 20.302 Z M 61.765 47.662 C 60.231 48.548 60.818 51.245 60.61 53.465 C 60.361 56.102 60.046 59.822 60.61 62.585 C 61.139 65.178 63.133 66.817 63.691 69.632 C 64.355 72.981 64.477 78.264 63.691 81.653 C 63.005 84.61 61.609 87.241 59.839 89.115 C 58.116 90.939 55.778 92.197 53.29 92.846 C 50.572 93.555 46.996 93.535 44.046 92.846 C 41.089 92.156 37.329 87.62 35.573 88.701 C 33.646 89.886 33.648 99.003 33.646 101.136 C 33.646 102.096 33.985 102.75 34.032 102.795 C 34.058 102.82 33.877 102.584 34.032 102.381 C 34.54 101.71 38.288 98.913 40.58 98.235 C 42.79 97.581 45.294 97.638 47.513 98.235 C 49.792 98.848 51.944 99.917 54.061 101.966 C 56.734 104.552 60.17 109.545 61.765 113.573 C 63.242 117.306 63.402 119.564 63.691 125.18 C 64.175 134.617 59.206 163.341 62.15 168.292 C 63.611 170.747 68.209 168.39 69.083 168.707 C 69.399 168.821 69.423 169.235 69.469 169.121 C 69.581 168.842 68.58 166.91 68.313 163.732 C 67.705 156.506 66.095 131.023 68.313 120.62 C 69.889 113.227 73.283 108.274 76.402 104.453 C 78.945 101.337 82.274 99.153 84.875 98.235 C 86.943 97.506 88.773 97.722 90.653 98.235 C 92.629 98.774 95.658 100.981 96.431 101.551 C 96.717 101.763 96.733 102.109 96.816 101.966 C 97.058 101.551 96.905 94.252 96.431 93.675 C 96.234 93.435 96.143 93.994 95.66 94.09 C 94.549 94.311 90.876 94.599 88.728 94.09 C 86.65 93.598 84.66 92.778 82.949 91.188 C 80.999 89.373 78.924 87.089 77.943 83.312 C 76.541 77.92 78.474 65.935 77.943 60.098 C 77.566 55.97 78.151 52.665 76.017 50.564 C 73.44 48.027 64.023 46.356 61.765 47.662 Z" style="stroke-width: 2px; fill: rgb(0, 236, 251); filter: url(&quot;#gaussian-blur-filter-1&quot;); transform-box: fill-box; transform-origin: 50% 50%;" transform="matrix(0.999994, -0.003569, 0.003569, 0.999994, 0, 0)"/>
  <path d="M 81.111 136.949 L 112.17 70.49 L 112.57 70.49 L 81.416 3.826 L 81.416 3.416 L 81.32 3.621 L 81.223 3.416 L 81.223 3.826 L 50.164 70.286 L 49.764 70.286 L 80.919 136.949 L 80.919 137.359 L 81.015 137.154 L 81.111 137.359 L 81.111 136.949 Z" style="fill: rgba(28, 138, 32, 0.71); transform-origin: 81.167px 70.388px;" transform="matrix(-0.714294, -0.699845, 0.699845, -0.714294, -0.000012, -0.000005)"/>
  <path d="M 53.252 6.405 L 84.311 72.865 L 84.711 72.865 L 53.557 139.529 L 53.557 139.939 L 53.461 139.734 L 53.364 139.939 L 53.364 139.529 L 22.305 73.069 L 21.905 73.069 L 53.06 6.405 L 53.06 5.995 L 53.156 6.2 L 53.252 5.995 L 53.252 6.405 Z" style="fill: rgba(41, 188, 47, 0.494); transform-box: fill-box; transform-origin: 50% 50%;" transform="matrix(0.69783, -0.716263, 0.716263, 0.69783, 0.000005, 0.000001)"/>
  <rect x="70.808" y="161.131" width="17.469" height="38.649" style="fill: url(&quot;#gradient-3&quot;); stroke: rgb(31, 160, 56);"/>
  <path d="M 36.554 132.625 L 36.62 132.626 L 36.202 150.998 L 28.639 150.843 C 23.259 149.279 19 145.874 17.056 141.617 L 17.273 132.229 L 17.334 132.23 L 17.987 103.593 L 17.84 103.59 L 17.864 101.991 L 17.751 101.989 L 18.074 87.907 L 18.46 61.97 L 30.594 87.458 C 32.205 86.695 33.949 85.983 35.811 85.33 C 36.856 79.534 50.222 74.95 66.556 74.95 C 82.823 74.95 96.146 79.497 97.288 85.259 C 99.691 86.093 101.9 87.023 103.883 88.035 L 116.588 61.346 L 116.974 87.284 L 117.296 101.365 L 117.184 101.366 L 117.208 102.967 L 117.061 102.969 L 117.715 131.606 L 117.775 131.605 L 117.992 140.993 C 116.048 145.25 111.789 148.655 106.408 150.218 L 98.846 150.374 L 98.428 132.002 L 98.494 132.001 L 98.141 116.524 C 94.685 117.781 90.803 118.834 86.6 119.641 L 86.6 184.056 L 72.833 184.056 L 66.803 161.94 L 59.432 184.056 L 45.665 184.056 L 45.665 119.435 C 42.543 118.797 39.61 118.022 36.907 117.129 Z" style="fill: url(&quot;#gradient-0&quot;); stroke-width: 4px; stroke: rgb(12, 195, 68);"/>
  <rect x="36.376" y="144.534" width="18.485" height="33.949" style="fill: rgb(0, 98, 30); stroke: rgb(26, 135, 41); transform-box: fill-box; transform-origin: 50% 50%;" transform="matrix(1, -0.000134, 0.000134, 1, 7.720633, 21.084213)"/>
  <path d="M 86.6 187.926 L 72.833 187.926 L 66.803 165.81 L 59.432 187.926 L 45.665 187.926 L 45.665 154.441 L 86.6 154.441 L 86.6 187.926 Z" style="fill: url(&quot;#gradient-2&quot;); stroke: rgb(255, 255, 255);"/>
  <path d="M 96.593 56.269 C 96.593 66.579 92.029 75.759 84.926 81.664 L 83.323 95.365 L 84.032 92.98 L 87.95 93.717 C 89.592 94.45 90.723 95.563 91.015 96.739 L 90.573 98.226 L 83.13 96.825 C 82.917 97.948 82.696 99.034 82.469 100.077 L 86.106 100.477 C 87.781 101.077 88.986 102.117 89.371 103.277 L 89.06 104.817 L 81.53 103.992 C 81.27 104.978 81.005 105.907 80.736 106.773 L 81.399 105.593 L 84.807 107.373 C 86.128 108.553 86.882 109.983 86.851 111.253 L 86.066 112.643 L 79.837 109.395 C 79.266 110.893 78.69 112.084 78.126 112.91 L 76.13 112.694 L 76.473 109.762 L 70.024 111.839 L 69.719 110.369 C 70.108 109.129 71.317 107.829 72.995 106.869 L 76.912 105.609 L 76.942 105.752 L 77.136 104.091 L 69.736 105.407 L 69.636 103.887 C 70.183 102.687 71.536 101.567 73.303 100.837 L 77.295 100.127 L 77.405 101.79 L 78.043 96.331 L 71.624 98.407 L 71.319 96.927 C 71.708 95.687 72.917 94.397 74.595 93.427 L 78.512 92.167 L 78.524 92.223 L 79.326 85.359 C 75.339 87.391 70.87 88.529 66.15 88.529 C 61.892 88.529 57.839 87.603 54.159 85.93 L 55.205 94.882 L 55.217 94.826 L 59.134 96.088 C 60.812 97.052 62.021 98.342 62.41 99.589 L 62.105 101.061 L 55.686 98.993 L 56.324 104.451 L 56.434 102.784 L 60.426 103.493 C 62.193 104.222 63.546 105.346 64.093 106.543 L 63.993 108.066 L 56.593 106.753 L 56.787 108.412 L 56.817 108.267 L 60.734 109.529 C 62.412 110.493 63.621 111.783 64.01 113.03 L 63.705 114.502 L 57.256 112.424 L 57.598 115.349 L 55.603 115.565 C 55.04 114.739 54.463 113.549 53.893 112.052 L 47.663 115.306 L 46.878 113.91 C 46.847 112.638 47.601 111.209 48.922 110.033 L 52.33 108.253 L 52.996 109.437 C 52.727 108.57 52.461 107.639 52.2 106.652 L 44.669 107.474 L 44.358 105.936 C 44.743 104.772 45.948 103.739 47.623 103.132 L 51.261 102.735 C 51.033 101.691 50.812 100.604 50.599 99.48 L 43.156 100.881 L 42.714 99.394 C 43.006 98.218 44.137 97.105 45.779 96.372 L 49.697 95.635 L 50.406 98.019 L 48.606 82.637 C 40.803 76.796 35.707 67.163 35.707 56.269 C 35.707 50.892 36.949 45.822 39.144 41.363 L 33.176 34.313 C 32.902 33.941 32.634 33.572 32.371 33.207 L 29.462 35.887 C 27.893 36.766 26.325 37.008 25.208 36.54 L 24.28 35.297 L 30.021 30.008 L 31.61 32.136 C 28.124 27.174 25.716 22.91 24.862 20.173 L 25.552 23.367 L 21.82 24.295 C 20.052 24.29 18.539 23.721 17.719 22.748 L 17.382 21.183 L 24.688 19.367 L 24.692 19.385 L 26.026 18.236 L 25.82 18.082 L 29.922 11.147 L 31.127 12.046 C 31.662 13.238 31.613 15.005 30.996 16.839 L 28.901 20.381 L 26.739 18.768 L 33.392 26.627 L 38.985 20.811 L 40.127 21.927 C 40.484 23.202 40.095 24.928 39.074 26.61 L 36.119 29.683 L 35.308 28.889 L 41.934 36.716 C 47.497 28.992 56.274 24.009 66.15 24.009 C 74.249 24.009 81.61 27.361 87.064 32.826 L 95.762 22.553 L 92.785 20.049 C 91.592 18.484 91.023 16.809 91.244 15.504 L 92.262 14.273 L 98.4 19.437 L 104.968 11.679 L 102.809 13.29 L 100.714 9.748 C 100.097 7.914 100.047 6.146 100.583 4.955 L 101.788 4.056 L 105.89 10.991 L 105.685 11.144 L 107.017 12.292 L 107.021 12.276 L 114.328 14.092 L 113.99 15.657 C 113.17 16.63 111.658 17.199 109.889 17.204 L 106.157 16.276 L 106.845 13.089 C 105.989 15.829 103.578 20.094 100.091 25.057 L 101.689 22.916 L 107.43 28.205 L 106.502 29.449 C 105.384 29.917 103.816 29.675 102.248 28.796 L 99.338 26.115 C 99.076 26.481 98.807 26.849 98.534 27.221 L 90.425 36.799 C 94.296 42.21 96.593 48.955 96.593 56.269 Z M 20.334 29.03 L 26.625 24.575 L 28.638 28.046 L 25.425 30.321 C 23.768 30.978 22.182 31.004 21.121 30.387 L 20.334 29.03 Z M 35.491 16.846 C 35.875 18.105 35.607 19.844 34.768 21.561 L 32.25 24.739 L 29.475 21.994 L 34.405 15.773 L 35.491 16.846 Z M 97.304 8.682 L 102.235 14.903 L 99.46 17.648 L 96.941 14.47 C 96.102 12.752 95.835 11.014 96.219 9.755 L 97.304 8.682 Z M 110.588 23.296 C 109.528 23.913 107.942 23.887 106.285 23.23 L 103.072 20.955 L 105.084 17.484 L 111.375 21.939 L 110.588 23.296 Z" style="stroke-width: 2px; fill: url(&quot;#gradient-4&quot;); stroke: rgb(0, 245, 75);"/>
  <ellipse style="fill: rgb(0, 98, 30);" cx="69.138" cy="55.118" rx="26.549" ry="29.075"/>
  <rect x="75.754" y="155.504" width="7.838" height="15.727" rx="5" ry="5" style="stroke: rgb(0, 0, 0); fill: rgb(78, 50, 5);"/>
  <rect x="80.043" y="-181.16" width="7.309" height="26.306" rx="5" ry="5" style="stroke: rgb(0, 0, 0); fill: url(&quot;#gradient-15&quot;);" transform="matrix(1, 0, 0, -1, 0, 0)"/>
  <rect x="43.312" y="151.801" width="45.393" height="9.556" rx="5" ry="5" style="stroke: rgb(0, 0, 0); fill: url(&quot;#gradient-13&quot;);"/>
  <g transform="matrix(1, 0, 0, 1, 12.842433, 0.940446)"/>
  <ellipse style="fill: rgb(255, 255, 255);" cx="53.919" cy="57.058" rx="9.002" ry="11.142"/>
  <path style="fill: none; stroke: rgb(0, 255, 241);" d="M 27.33 106.603 C 39.516 118.859 52.021 120.146 64.317 113.804"/>
  <path style="fill: none; transform-box: fill-box; transform-origin: 50% 50%; stroke: rgb(0, 241, 255);" d="M 72.087 117.107 C 84.273 104.851 96.778 103.564 109.074 109.906" transform="matrix(-1, 0, 0, -1, 0.000005, -0.000006)"/>
  <path d="M 21.415 23.151 C 17.515 23.151 14.352 21.851 14.352 20.246 C 14.352 18.642 17.515 17.342 21.415 17.342 C 21.432 17.342 21.448 17.342 21.466 17.342 C 21.635 17.014 21.86 16.726 22.143 16.493 C 22.896 15.873 23.926 15.74 25.018 16.023 C 25.181 15.094 25.452 14.094 25.83 13.075 C 27.216 9.341 29.528 6.776 30.992 7.346 C 32.456 7.917 32.519 11.405 31.132 15.139 C 31.069 15.309 31.004 15.478 30.937 15.644 C 32.127 13.869 33.455 12.89 34.417 13.264 C 35.881 13.835 35.944 17.324 34.557 21.058 C 34.133 22.202 33.621 23.237 33.073 24.104 L 33.913 25.173 C 34.234 24.36 34.654 23.511 35.165 22.662 C 37.214 19.263 39.956 17.19 41.289 18.033 C 42.621 18.875 42.041 22.313 39.992 25.712 C 39.107 27.182 38.092 28.403 37.117 29.249 L 42.255 35.784 C 44.296 38.38 44.607 41.592 42.949 42.96 C 41.291 44.325 38.294 43.328 36.252 40.732 L 32.12 35.477 C 31.47 35.938 30.734 36.38 29.936 36.777 C 26.428 38.525 23.028 38.773 22.343 37.33 C 21.658 35.889 23.946 33.302 27.453 31.554 C 27.845 31.358 28.235 31.182 28.62 31.025 L 26.977 28.934 C 26.303 29.022 25.586 29.069 24.841 29.069 C 20.94 29.069 17.778 27.769 17.778 26.165 C 17.778 24.877 19.816 23.786 22.638 23.404 C 22.57 23.311 22.502 23.216 22.439 23.121 C 22.104 23.14 21.763 23.151 21.415 23.151 Z M 29.074 19.018 L 29.192 19.167 C 29.213 19.109 29.235 19.051 29.256 18.993 C 29.319 18.822 29.385 18.653 29.453 18.486 C 29.328 18.672 29.202 18.85 29.074 19.018 Z" style="filter: url(&quot;#gaussian-blur-filter-0&quot;); fill: rgba(0, 227, 255, 0.698);"/>
  <path d="M 93.402 22.99 C 89.547 22.99 86.421 24.265 86.421 25.839 C 86.421 27.413 89.547 28.688 93.402 28.688 C 93.418 28.688 93.435 28.688 93.452 28.688 C 93.619 29.01 93.841 29.292 94.121 29.52 C 94.865 30.129 95.884 30.259 96.962 29.982 C 97.123 30.893 97.391 31.875 97.765 32.874 C 99.135 36.536 101.42 39.053 102.867 38.494 C 104.314 37.934 104.376 34.512 103.006 30.849 C 102.943 30.682 102.879 30.516 102.812 30.354 C 103.989 32.095 105.301 33.055 106.251 32.688 C 107.698 32.128 107.761 28.706 106.39 25.043 C 105.971 23.921 105.465 22.906 104.923 22.054 L 105.754 21.007 C 106.071 21.803 106.486 22.637 106.991 23.47 C 109.016 26.804 111.726 28.837 113.044 28.011 C 114.36 27.184 113.787 23.812 111.762 20.477 C 110.887 19.036 109.884 17.838 108.921 17.008 L 113.998 10.598 C 116.016 8.051 116.323 4.9 114.684 3.558 C 113.046 2.219 110.083 3.197 108.065 5.744 L 103.982 10.899 C 103.339 10.446 102.612 10.013 101.823 9.623 C 98.356 7.909 94.996 7.666 94.319 9.081 C 93.642 10.495 95.903 13.033 99.369 14.747 C 99.756 14.939 100.142 15.112 100.523 15.266 L 98.899 17.317 C 98.232 17.23 97.524 17.184 96.788 17.184 C 92.933 17.184 89.807 18.459 89.807 20.033 C 89.807 21.297 91.821 22.367 94.61 22.741 C 94.543 22.832 94.476 22.926 94.413 23.02 C 94.082 23.001 93.746 22.99 93.402 22.99 Z M 100.971 27.044 L 101.088 26.898 C 101.109 26.954 101.13 27.011 101.151 27.068 C 101.214 27.236 101.279 27.402 101.345 27.565 C 101.222 27.383 101.097 27.209 100.971 27.044 Z" style="fill: rgba(0, 227, 255, 0.698); filter: url(&quot;#filter-1&quot;); transform-box: fill-box; transform-origin: 50% 50%;" transform="matrix(-1, 0, 0, -1, -0.000011, -0.000002)"/>
  <path d="M 86.207 54.582 C 86.207 62.344 82.177 68.636 77.205 68.636 C 72.233 68.636 68.203 62.344 68.203 54.582 C 68.203 46.82 72.233 25.831 77.205 25.831 C 82.177 25.831 86.207 46.82 86.207 54.582 Z" style="fill: rgb(0, 241, 255); filter: url(&quot;#motion-blur-filter-0&quot;);"/>
  <ellipse style="fill: rgba(255, 255, 255, 0.863);" cx="77.386" cy="57.2" rx="4.451" ry="5.88"/>
  <ellipse style="fill: rgb(0, 255, 241);" cx="53.984" cy="57.057" rx="8.156" ry="10.491"/>
  <ellipse style="fill: rgba(255, 255, 255, 0.42);" cx="54.225" cy="57.677" rx="6.095" ry="8.047"/>
  <ellipse style="fill: rgba(255, 255, 255, 0.42);" cx="54.299" cy="57.2" rx="4.675" ry="5.88"/>
</svg>