<?xml version="1.0" encoding="utf-8"?>
<svg xmlns="http://www.w3.org/2000/svg" viewBox="0 0 20 20" height="20px" width="20px">
  <path d="M 19.547 10.301 C 19.547 14.027 15.699 17.047 10.952 17.047 C 9.9 17.047 8.89 16.898 7.958 16.626 C 9.669 16.065 10.898 15.26 10.781 14.74 C 10.653 14.168 8.946 14.156 6.968 14.714 C 6.33 14.894 5.742 15.112 5.242 15.343 C 4.767 15.011 4.34 14.639 3.968 14.233 C 4.378 13.814 4.562 13.303 4.391 12.93 C 4.19 12.489 3.557 12.388 2.895 12.655 C 2.548 11.922 2.358 11.129 2.358 10.301 C 2.358 9.952 2.392 9.608 2.457 9.273 C 3.142 9.334 3.716 9.058 3.811 8.582 C 3.89 8.185 3.617 7.756 3.151 7.466 C 3.505 6.868 3.967 6.317 4.517 5.83 C 5.11 6.133 5.888 6.422 6.755 6.64 C 8.745 7.139 10.451 7.077 10.566 6.501 C 10.681 5.926 9.161 5.054 7.171 4.555 C 7.008 4.514 6.845 4.477 6.687 4.443 C 7.944 3.878 9.4 3.555 10.952 3.555 C 15.699 3.555 19.547 6.575 19.547 10.301 Z" style="fill: rgb(0, 254, 240); stroke: rgb(36, 110, 112);"/>
  <ellipse style="stroke: rgb(36, 110, 112); fill: rgb(0, 254, 240); transform-box: fill-box; transform-origin: 50% 50%;" cx="3.004" cy="3.617" rx="1.581" ry="0.868" transform="matrix(0.957536, 0.288314, -0.288314, 0.957536, -0.000001, 0.000002)"/>
  <ellipse style="stroke: rgb(36, 110, 112); fill: rgb(0, 254, 240); transform-origin: 3.004px 3.617px;" cx="3.004" cy="3.617" rx="1.968" ry="0.83" transform="matrix(0.945968, -0.324261, 0.324261, 0.945968, 2.560413, 13.848503)"/>
  <ellipse style="stroke: rgb(36, 110, 112); fill: rgb(0, 254, 240); transform-origin: 3.004px 3.617px;" cx="3.004" cy="3.617" rx="0.75" ry="0.658" transform="matrix(0.945968, -0.324261, 0.324261, 0.945968, -1.040807, 13.883482)"/>
  <ellipse style="stroke: rgb(36, 110, 112); fill: rgb(0, 254, 240); transform-origin: 3.004px 3.617px;" cx="3.004" cy="3.617" rx="1.581" ry="0.58" transform="matrix(0.87186, 0.489755, -0.489755, 0.87186, 4.75855, 3.063978)"/>
  <ellipse style="stroke: rgb(36, 110, 112); fill: rgb(0, 254, 240); transform-origin: 3.004px 3.617px;" cx="3.004" cy="3.617" rx="0.64" ry="0.756" transform="matrix(0.957536, 0.288314, -0.288314, 0.957536, -1.734726, 3.317411)"/>
  <ellipse style="stroke: rgb(36, 110, 112); fill: rgb(0, 254, 240); transform-origin: 3.004px 3.617px;" cx="3.004" cy="3.617" rx="1.551" ry="0.756" transform="matrix(0.913983, -0.405753, 0.405753, 0.913983, -0.857583, 9.449008)"/>
  <ellipse style="transform-origin: 3.004px 3.617px; fill: rgba(12, 120, 114, 0.64);" cx="3.004" cy="3.617" rx="2.91" ry="0.471" transform="matrix(0.978833, 0.204659, -0.065157, 1.008001, 6.167254, 5.209887)"/>
  <ellipse style="fill: rgba(12, 120, 114, 0.64); transform-origin: 3.004px 3.617px;" cx="3.004" cy="3.617" rx="2.91" ry="0.471" transform="matrix(0.968905, -0.247433, 0.38552, 0.933641, 6.211783, 8.772204)"/>
  <ellipse style="fill: rgba(12, 120, 114, 0.64); transform-origin: 3.004px 3.617px;" cx="3.004" cy="3.617" rx="4.43" ry="0.593" transform="matrix(0.999972, 0.00748, 0.135035, 1.001038, 5.477055, 7.124633)"/>
  <path d="M 19.058 10.302 C 19.058 12.847 17.143 14.91 14.782 14.91 C 14.258 14.91 13.758 14.808 13.294 14.623 C 14.145 14.239 14.756 13.689 14.698 13.334 C 14.633 12.943 13.784 12.935 12.801 13.316 C 12.483 13.44 12.191 13.589 11.942 13.746 C 11.706 13.519 11.494 13.265 11.308 12.988 C 11.512 12.701 11.604 12.353 11.518 12.097 C 11.418 11.796 11.103 11.728 10.775 11.909 C 10.601 11.409 10.508 10.867 10.508 10.302 C 10.508 10.063 10.524 9.828 10.557 9.6 C 10.898 9.641 11.183 9.453 11.231 9.128 C 11.269 8.856 11.134 8.562 10.902 8.365 C 11.077 7.956 11.308 7.58 11.581 7.248 C 11.876 7.455 12.263 7.652 12.695 7.801 C 13.685 8.141 14.533 8.099 14.59 7.706 C 14.647 7.313 13.891 6.717 12.902 6.376 C 12.821 6.348 12.739 6.322 12.661 6.299 C 13.286 5.914 14.009 5.693 14.782 5.693 C 17.143 5.693 19.058 7.757 19.058 10.302 Z" style="fill: rgb(252, 255, 255);"/>
  <path d="M 18.949 10.279 C 18.949 12.492 17.932 14.286 16.677 14.286 C 16.399 14.286 16.134 14.198 15.886 14.036 C 16.338 13.703 16.664 13.224 16.633 12.916 C 16.598 12.576 16.147 12.569 15.624 12.9 C 15.456 13.008 15.301 13.138 15.169 13.275 C 15.042 13.077 14.93 12.855 14.832 12.616 C 14.94 12.366 14.989 12.063 14.943 11.84 C 14.889 11.579 14.723 11.519 14.548 11.676 C 14.456 11.242 14.407 10.771 14.407 10.279 C 14.407 10.072 14.415 9.867 14.432 9.669 C 14.614 9.705 14.766 9.541 14.79 9.258 C 14.811 9.023 14.739 8.767 14.616 8.594 C 14.709 8.24 14.832 7.912 14.976 7.624 C 15.134 7.804 15.34 7.975 15.568 8.105 C 16.095 8.4 16.545 8.364 16.575 8.022 C 16.606 7.68 16.203 7.161 15.679 6.866 C 15.636 6.841 15.591 6.817 15.55 6.798 C 15.882 6.463 16.266 6.272 16.677 6.272 C 17.932 6.272 18.949 8.067 18.949 10.279 Z" style="fill: rgba(142, 156, 156, 0.482);"/>
</svg>