<?xml version="1.0" encoding="utf-8"?>
<svg xmlns="http://www.w3.org/2000/svg" viewBox="0 0 500 300">
  <defs>
    <linearGradient gradientUnits="userSpaceOnUse" x1="247.292" y1="-9.606" x2="247.292" y2="301.726" id="gradient-0">
      <stop offset="0" style="stop-color: rgb(87.059% 0% 0%)"/>
      <stop offset="1" style="stop-color: rgb(57.773% 0% 0%)"/>
    </linearGradient>
    <linearGradient gradientUnits="userSpaceOnUse" x1="234.034" y1="132.229" x2="234.034" y2="283.479" id="gradient-1">
      <stop offset="0" style="stop-color: rgb(22.353% 0% 0%)"/>
      <stop offset="1" style="stop-color: rgb(11.639% 5.9967% 0%)"/>
    </linearGradient>
  </defs>
  <rect x="-7.434" y="-9.606" width="509.452" height="311.332" style="fill: url(&quot;#gradient-0&quot;);"/>
  <path d="M 367.173 204.64 L 234.427 204.64 L 234.427 9.302 C 250.799 14.131 274.916 17.184 301.81 17.184 C 327.618 17.184 350.87 14.373 367.173 9.878 L 367.173 204.64 Z" style="stroke-width: 8px; stroke-opacity: 0.97; fill: rgb(57, 0, 0); stroke: rgb(30, 0, 0);"/>
  <rect x="81.979" y="132.229" width="304.109" height="151.25" style="stroke-width: 8px; stroke-opacity: 0.97; stroke: rgb(30, 0, 0); fill: url(&quot;#gradient-1&quot;);" rx="44.249" ry="44.249"/>
  <g transform="matrix(0.651184, -0.001766, 0.001745, 0.643354, 267.255, 171.026)" style="transform-origin: -96.0552px 46.7766px;">
    <g transform="matrix(1.02585, 0, 0, 1.06009, -148.636, -39.0677)">
      <path d="M 12.964 12.196 L 35.218 38.481 L 31.329 41.831 L 19.962 28.404 C 15.263 22.017 12.119 16.524 11.443 13.506 L 12.964 12.196 Z" style="stroke-linejoin: round; stroke-linecap: round; transform-origin: 19.013px 13.154px; fill: rgb(57, 0, 0); stroke: rgb(255, 28, 28);"/>
      <g transform="matrix(1.398026, -0.118815, 0.132642, 1.560712, 2.879618, 1.618607)" style="transform-origin: 11.8618px 17.6388px;">
        <path d="M 13.052 20.964 L 13.052 26.317 L 10.434 26.317 L 10.434 23.583 C 10.71 22.354 11.297 21.388 12.028 20.964 L 13.052 20.964 Z" style="stroke-linejoin: round; stroke-linecap: round; transform-box: fill-box; transform-origin: 50% 50%; stroke-width: 0.641198px; fill: rgb(57, 0, 0); stroke: rgb(255, 28, 28);" transform="matrix(-0.570538, -0.821271, 0.821271, -0.570538, -0.000001, -0.000002)"/>
        <path d="M 8.896 12.98 L 8.896 18.333 L 6.278 18.333 L 6.278 15.599 C 6.554 14.37 7.141 13.404 7.872 12.98 L 8.896 12.98 Z" style="stroke-linejoin: round; stroke-linecap: round; transform-origin: 7.587px 15.657px; stroke-width: 0.641194px; fill: rgb(57, 0, 0); stroke: rgb(255, 28, 28);" transform="matrix(-0.142092, -0.989853, 0.989853, -0.142092, -0.000002, 0)"/>
        <path d="M 10.662 17.127 L 10.662 22.48 L 8.044 22.48 L 8.044 19.746 C 8.32 18.517 8.907 17.551 9.638 17.127 L 10.662 17.127 Z" style="stroke-linejoin: round; stroke-linecap: round; transform-origin: 9.353px 19.804px; stroke-width: 0.641197px; fill: rgb(57, 0, 0); stroke: rgb(255, 28, 28);" transform="matrix(-0.465849, -0.884864, 0.884864, -0.465849, 0.000001, 0)"/>
        <path d="M 17.44 17.691 L 17.44 12.338 L 14.822 12.338 L 14.822 15.072 C 15.098 16.301 15.685 17.267 16.416 17.691 L 17.44 17.691 Z" style="stroke-linejoin: round; stroke-linecap: round; transform-origin: 16.131px 15.014px; stroke-width: 0.641199px; fill: rgb(57, 0, 0); stroke: rgb(255, 28, 28);" transform="matrix(-0.689551, -0.724237, 0.724237, -0.689551, 0.000001, 0)"/>
        <path d="M 14.93 14.622 L 14.93 9.269 L 12.312 9.269 L 12.312 12.003 C 12.588 13.232 13.175 14.198 13.906 14.622 L 14.93 14.622 Z" style="stroke-linejoin: round; stroke-linecap: round; transform-origin: 13.621px 11.945px; stroke-width: 0.641199px; fill: rgb(57, 0, 0); stroke: rgb(255, 28, 28);" transform="matrix(-0.782727, -0.622365, 0.622365, -0.782727, -0.000002, -0.000002)"/>
      </g>
      <path d="M 25.94 14.991 L 19.92 20.772 L 22.723 23.742 L 25.798 20.789 C 26.885 19.149 27.343 17.44 27.037 16.152 L 25.94 14.991 Z" style="stroke-linejoin: round; stroke-linecap: round; transform-box: fill-box; transform-origin: 51.1931% 48.0057%; fill: rgb(57, 0, 0); stroke: rgb(255, 28, 28);" transform="matrix(0.999209, -0.039768, 0.039768, 0.999209, 0, 0)"/>
    </g>
    <rect x="-93.857" y="101.123" width="13.725" height="29.466" style="fill: rgb(208, 0, 0); stroke: rgb(255, 28, 28);"/>
    <rect x="37.319" y="153.206" width="18.964" height="35.986" style="fill: rgb(208, 0, 0); transform-origin: 46.8px 171.199px; stroke: rgb(255, 28, 28);" transform="matrix(0.998668, 0.051598, -0.048327, 0.998837, -151.845872, -56.620418)"/>
    <path d="M -116.03 76.573 L -115.98 76.573 L -116.08 89.29 L -121.01 89.26 C -124.54 88.235 -127.35 85.922 -128.66 82.995 L -128.61 76.498 L -128.57 76.498 L -128.41 55.567 L -128.59 55.566 L -128.49 42.091 L -120.25 51.855 L -117.82 51.869 C -117.55 48.721 -116.74 46.439 -115.8 46.439 C -114.62 46.439 -113.67 49.926 -113.67 54.227 C -113.67 58.53 -114.62 62.017 -115.8 62.017 C -115.84 62.017 -115.88 62.013 -115.92 62.004 L -116.03 76.573 Z" style="fill: rgb(208, 0, 0); transform-origin: -115.121px 67.56px; stroke: rgb(255, 28, 28);" transform="matrix(0.999451, -0.033138, 0.033138, 0.999451, 0, 0)"/>
    <path d="M -82.54 59.2 L -82.5 59.2 L -82.59 46.483 L -87.52 46.513 C -91.05 47.538 -93.86 49.851 -95.17 52.778 L -95.12 59.275 L -95.08 59.275 L -94.92 80.206 L -95.1 80.207 L -95 93.682 L -86.76 83.918 L -84.33 83.904 C -84.06 87.052 -83.25 89.334 -82.31 89.334 C -81.13 89.334 -80.18 85.847 -80.18 81.546 C -80.18 77.243 -81.13 73.756 -82.31 73.756 C -82.35 73.756 -82.39 73.76 -82.43 73.769 L -82.54 59.2 Z" style="fill: rgb(86, 0, 0); transform-origin: -81.632px 68.213px; stroke: rgb(255, 28, 28);" transform="matrix(-0.999991, 0.004263, -0.004263, -0.999991, -0.000007, -0.000005)"/>
    <path d="M -115.67 41.071 L -79.007 41.071 L -79.007 123.951 L -91.337 123.951 L -96.737 104.887 L -103.34 123.951 L -115.67 123.951 L -115.67 41.071 Z" style="fill: rgb(208, 0, 0); stroke: rgb(255, 28, 28);"/>
    <path d="M -64.998 19.162 C -64.998 32.984 -72.317 44.928 -82.927 50.56 C -82.787 50.877 -82.667 51.211 -82.577 51.558 L -82.577 55.581 L -82.927 55.581 L -82.587 55.714 L -84.037 59.468 C -85.157 60.975 -86.667 61.919 -88.137 62.024 L -89.887 61.354 L -87.357 54.803 L -87.357 52.472 C -90.307 53.472 -93.447 54.011 -96.697 54.011 C -100.21 54.011 -103.6 53.381 -106.76 52.22 L -106.76 55.166 L -104.22 61.718 L -105.97 62.387 C -107.44 62.283 -108.95 61.339 -110.07 59.832 L -111.52 56.078 L -111.18 55.944 L -111.54 55.944 L -111.54 51.921 C -111.38 51.349 -111.16 50.812 -110.89 50.331 C -121.27 44.606 -128.4 32.799 -128.4 19.162 C -128.4 -0.085 -114.21 -15.686 -96.697 -15.686 C -79.187 -15.686 -64.998 -0.085 -64.998 19.162 Z" style="stroke-width: 2px; fill: rgb(57, 0, 0); stroke: rgb(255, 28, 28);"/>
    <ellipse style="fill: rgb(208, 0, 0); stroke: rgb(255, 28, 28);" cx="-90.477" cy="17.881" rx="24.905" ry="29.618"/>
    <path d="M -104.15 15.442 C -104.11 21.613 -101 26.555 -97.202 26.485 C -93.406 26.415 -90.361 21.356 -90.4 15.186 C -90.405 14.418 -90.46 13.671 -90.553 12.947 C -89.57 14.585 -103.047 14.834 -104.03 13.196 C -104.11 13.923 -104.16 14.675 -104.15 15.442 Z" style="fill: rgb(57, 0, 0); transform-origin: -96.967px 18.871px; stroke: rgb(255, 28, 28);"/>
    <g transform="matrix(-1.02585, 0, 0, 1.06009, -43.4744, -44.7707)" style="">
      <path d="M 12.964 12.196 L 35.218 38.481 L 31.329 41.831 L 19.962 28.404 C 15.263 22.017 12.119 16.524 11.443 13.506 L 12.964 12.196 Z" style="stroke-linejoin: round; stroke-linecap: round; transform-origin: 19.013px 13.154px; fill: rgb(57, 0, 0); stroke: rgb(255, 28, 28);"/>
      <g transform="matrix(1.398026, -0.118815, 0.132642, 1.560712, 2.879618, 1.618607)" style="transform-origin: 11.8618px 17.6388px;">
        <path d="M 13.052 20.964 L 13.052 26.317 L 10.434 26.317 L 10.434 23.583 C 10.71 22.354 11.297 21.388 12.028 20.964 L 13.052 20.964 Z" style="stroke-linejoin: round; stroke-linecap: round; transform-box: fill-box; transform-origin: 50% 50%; stroke-width: 0.641198px; fill: rgb(57, 0, 0); stroke: rgb(255, 28, 28);" transform="matrix(-0.570538, -0.821271, 0.821271, -0.570538, -0.000001, -0.000002)"/>
        <path d="M 8.896 12.98 L 8.896 18.333 L 6.278 18.333 L 6.278 15.599 C 6.554 14.37 7.141 13.404 7.872 12.98 L 8.896 12.98 Z" style="stroke-linejoin: round; stroke-linecap: round; transform-origin: 7.587px 15.657px; stroke-width: 0.641194px; fill: rgb(57, 0, 0); stroke: rgb(255, 28, 28);" transform="matrix(-0.142092, -0.989853, 0.989853, -0.142092, -0.000002, 0)"/>
        <path d="M 10.662 17.127 L 10.662 22.48 L 8.044 22.48 L 8.044 19.746 C 8.32 18.517 8.907 17.551 9.638 17.127 L 10.662 17.127 Z" style="stroke-linejoin: round; stroke-linecap: round; transform-origin: 9.353px 19.804px; stroke-width: 0.641197px; fill: rgb(57, 0, 0); stroke: rgb(255, 28, 28);" transform="matrix(-0.465849, -0.884864, 0.884864, -0.465849, 0.000001, 0)"/>
        <path d="M 17.44 17.691 L 17.44 12.338 L 14.822 12.338 L 14.822 15.072 C 15.098 16.301 15.685 17.267 16.416 17.691 L 17.44 17.691 Z" style="stroke-linejoin: round; stroke-linecap: round; transform-origin: 16.131px 15.014px; stroke-width: 0.641199px; fill: rgb(57, 0, 0); stroke: rgb(255, 28, 28);" transform="matrix(-0.689551, -0.724237, 0.724237, -0.689551, 0.000001, 0)"/>
        <path d="M 14.93 14.622 L 14.93 9.269 L 12.312 9.269 L 12.312 12.003 C 12.588 13.232 13.175 14.198 13.906 14.622 L 14.93 14.622 Z" style="stroke-linejoin: round; stroke-linecap: round; transform-origin: 13.621px 11.945px; stroke-width: 0.641199px; fill: rgb(57, 0, 0); stroke: rgb(255, 28, 28);" transform="matrix(-0.782727, -0.622365, 0.622365, -0.782727, -0.000002, -0.000002)"/>
      </g>
      <path d="M 25.94 14.991 L 19.92 20.772 L 22.723 23.742 L 25.798 20.789 C 26.885 19.149 27.343 17.44 27.037 16.152 L 25.94 14.991 Z" style="stroke-linejoin: round; stroke-linecap: round; transform-box: fill-box; transform-origin: 51.1931% 48.0057%; fill: rgb(57, 0, 0); stroke: rgb(255, 28, 28);" transform="matrix(0.999209, -0.039768, 0.039768, 0.999209, 0, 0)"/>
    </g>
    <path d="M -84.244 15.377 C -84.203 21.996 -81.038 27.297 -77.172 27.222 C -73.308 27.147 -70.209 21.721 -70.248 15.103 C -70.253 14.279 -70.309 13.478 -70.404 12.701 C -69.403 14.458 -83.121 14.725 -84.122 12.968 C -84.203 13.748 -84.254 14.554 -84.244 15.377 Z" style="fill: rgb(57, 0, 0); transform-origin: -76.933px 19.055px; stroke: rgb(255, 28, 28);"/>
  </g>
  <g transform="matrix(-0.651184, -0.001766, -0.001745, 0.643354, 342.313, 168.26)" style="transform-origin: -96.055px 46.777px;">
    <g transform="matrix(1.02585, 0, 0, 1.06009, -148.636, -39.0677)">
      <path d="M 12.964 12.196 L 35.218 38.481 L 31.329 41.831 L 19.962 28.404 C 15.263 22.017 12.119 16.524 11.443 13.506 L 12.964 12.196 Z" style="stroke-linejoin: round; stroke-linecap: round; transform-origin: 19.013px 13.154px; fill: rgb(57, 0, 0); stroke: rgb(255, 28, 28);"/>
      <g transform="matrix(1.398026, -0.118815, 0.132642, 1.560712, 2.879618, 1.618607)" style="transform-origin: 11.8618px 17.6388px;">
        <path d="M 13.052 20.964 L 13.052 26.317 L 10.434 26.317 L 10.434 23.583 C 10.71 22.354 11.297 21.388 12.028 20.964 L 13.052 20.964 Z" style="stroke-linejoin: round; stroke-linecap: round; transform-box: fill-box; transform-origin: 50% 50%; stroke-width: 0.641198px; fill: rgb(57, 0, 0); stroke: rgb(255, 28, 28);" transform="matrix(-0.570538, -0.821271, 0.821271, -0.570538, -0.000001, -0.000002)"/>
        <path d="M 8.896 12.98 L 8.896 18.333 L 6.278 18.333 L 6.278 15.599 C 6.554 14.37 7.141 13.404 7.872 12.98 L 8.896 12.98 Z" style="stroke-linejoin: round; stroke-linecap: round; transform-origin: 7.587px 15.657px; stroke-width: 0.641194px; fill: rgb(57, 0, 0); stroke: rgb(255, 28, 28);" transform="matrix(-0.142092, -0.989853, 0.989853, -0.142092, -0.000002, 0)"/>
        <path d="M 10.662 17.127 L 10.662 22.48 L 8.044 22.48 L 8.044 19.746 C 8.32 18.517 8.907 17.551 9.638 17.127 L 10.662 17.127 Z" style="stroke-linejoin: round; stroke-linecap: round; transform-origin: 9.353px 19.804px; stroke-width: 0.641197px; fill: rgb(57, 0, 0); stroke: rgb(255, 28, 28);" transform="matrix(-0.465849, -0.884864, 0.884864, -0.465849, 0.000001, 0)"/>
        <path d="M 17.44 17.691 L 17.44 12.338 L 14.822 12.338 L 14.822 15.072 C 15.098 16.301 15.685 17.267 16.416 17.691 L 17.44 17.691 Z" style="stroke-linejoin: round; stroke-linecap: round; transform-origin: 16.131px 15.014px; stroke-width: 0.641199px; fill: rgb(57, 0, 0); stroke: rgb(255, 28, 28);" transform="matrix(-0.689551, -0.724237, 0.724237, -0.689551, 0.000001, 0)"/>
        <path d="M 14.93 14.622 L 14.93 9.269 L 12.312 9.269 L 12.312 12.003 C 12.588 13.232 13.175 14.198 13.906 14.622 L 14.93 14.622 Z" style="stroke-linejoin: round; stroke-linecap: round; transform-origin: 13.621px 11.945px; stroke-width: 0.641199px; fill: rgb(57, 0, 0); stroke: rgb(255, 28, 28);" transform="matrix(-0.782727, -0.622365, 0.622365, -0.782727, -0.000002, -0.000002)"/>
      </g>
      <path d="M 25.94 14.991 L 19.92 20.772 L 22.723 23.742 L 25.798 20.789 C 26.885 19.149 27.343 17.44 27.037 16.152 L 25.94 14.991 Z" style="stroke-linejoin: round; stroke-linecap: round; transform-box: fill-box; transform-origin: 51.1931% 48.0057%; fill: rgb(57, 0, 0); stroke: rgb(255, 28, 28);" transform="matrix(0.999209, -0.039768, 0.039768, 0.999209, 0, 0)"/>
    </g>
    <rect x="-93.857" y="101.123" width="13.725" height="29.466" style="fill: rgb(208, 0, 0); stroke: rgb(255, 28, 28);"/>
    <rect x="37.319" y="153.206" width="18.964" height="35.986" style="fill: rgb(208, 0, 0); transform-origin: 46.8px 171.199px; stroke: rgb(255, 28, 28);" transform="matrix(0.998668, 0.051598, -0.048327, 0.998837, -151.845872, -56.620418)"/>
    <path d="M -116.03 76.573 L -115.98 76.573 L -116.08 89.29 L -121.01 89.26 C -124.54 88.235 -127.35 85.922 -128.66 82.995 L -128.61 76.498 L -128.57 76.498 L -128.41 55.567 L -128.59 55.566 L -128.49 42.091 L -120.25 51.855 L -117.82 51.869 C -117.55 48.721 -116.74 46.439 -115.8 46.439 C -114.62 46.439 -113.67 49.926 -113.67 54.227 C -113.67 58.53 -114.62 62.017 -115.8 62.017 C -115.84 62.017 -115.88 62.013 -115.92 62.004 L -116.03 76.573 Z" style="fill: rgb(208, 0, 0); transform-origin: -115.121px 67.56px; stroke: rgb(255, 28, 28);" transform="matrix(0.999451, -0.033138, 0.033138, 0.999451, 0, 0)"/>
    <path d="M -82.54 59.2 L -82.5 59.2 L -82.59 46.483 L -87.52 46.513 C -91.05 47.538 -93.86 49.851 -95.17 52.778 L -95.12 59.275 L -95.08 59.275 L -94.92 80.206 L -95.1 80.207 L -95 93.682 L -86.76 83.918 L -84.33 83.904 C -84.06 87.052 -83.25 89.334 -82.31 89.334 C -81.13 89.334 -80.18 85.847 -80.18 81.546 C -80.18 77.243 -81.13 73.756 -82.31 73.756 C -82.35 73.756 -82.39 73.76 -82.43 73.769 L -82.54 59.2 Z" style="fill: rgb(86, 0, 0); transform-origin: -81.632px 68.213px; stroke: rgb(255, 28, 28);" transform="matrix(-0.999991, 0.004263, -0.004263, -0.999991, -0.000007, -0.000005)"/>
    <path d="M -115.67 41.071 L -79.007 41.071 L -79.007 123.951 L -91.337 123.951 L -96.737 104.887 L -103.34 123.951 L -115.67 123.951 L -115.67 41.071 Z" style="fill: rgb(208, 0, 0); stroke: rgb(255, 28, 28);"/>
    <path d="M -64.998 19.162 C -64.998 32.984 -72.317 44.928 -82.927 50.56 C -82.787 50.877 -82.667 51.211 -82.577 51.558 L -82.577 55.581 L -82.927 55.581 L -82.587 55.714 L -84.037 59.468 C -85.157 60.975 -86.667 61.919 -88.137 62.024 L -89.887 61.354 L -87.357 54.803 L -87.357 52.472 C -90.307 53.472 -93.447 54.011 -96.697 54.011 C -100.21 54.011 -103.6 53.381 -106.76 52.22 L -106.76 55.166 L -104.22 61.718 L -105.97 62.387 C -107.44 62.283 -108.95 61.339 -110.07 59.832 L -111.52 56.078 L -111.18 55.944 L -111.54 55.944 L -111.54 51.921 C -111.38 51.349 -111.16 50.812 -110.89 50.331 C -121.27 44.606 -128.4 32.799 -128.4 19.162 C -128.4 -0.085 -114.21 -15.686 -96.697 -15.686 C -79.187 -15.686 -64.998 -0.085 -64.998 19.162 Z" style="stroke-width: 2px; fill: rgb(57, 0, 0); stroke: rgb(255, 28, 28);"/>
    <ellipse style="fill: rgb(208, 0, 0); stroke: rgb(255, 28, 28);" cx="-90.477" cy="17.881" rx="24.905" ry="29.618"/>
    <path d="M -104.15 15.442 C -104.11 21.613 -101 26.555 -97.202 26.485 C -93.406 26.415 -90.361 21.356 -90.4 15.186 C -90.405 14.418 -90.46 13.671 -90.553 12.947 C -89.57 14.585 -103.047 14.834 -104.03 13.196 C -104.11 13.923 -104.16 14.675 -104.15 15.442 Z" style="fill: rgb(57, 0, 0); transform-origin: -96.967px 18.871px; stroke: rgb(255, 28, 28);"/>
    <g transform="matrix(-1.02585, 0, 0, 1.06009, -43.4744, -44.7707)" style="">
      <path d="M 12.964 12.196 L 35.218 38.481 L 31.329 41.831 L 19.962 28.404 C 15.263 22.017 12.119 16.524 11.443 13.506 L 12.964 12.196 Z" style="stroke-linejoin: round; stroke-linecap: round; transform-origin: 19.013px 13.154px; fill: rgb(57, 0, 0); stroke: rgb(255, 28, 28);"/>
      <g transform="matrix(1.398026, -0.118815, 0.132642, 1.560712, 2.879618, 1.618607)" style="transform-origin: 11.8618px 17.6388px;">
        <path d="M 13.052 20.964 L 13.052 26.317 L 10.434 26.317 L 10.434 23.583 C 10.71 22.354 11.297 21.388 12.028 20.964 L 13.052 20.964 Z" style="stroke-linejoin: round; stroke-linecap: round; transform-box: fill-box; transform-origin: 50% 50%; stroke-width: 0.641198px; fill: rgb(57, 0, 0); stroke: rgb(255, 28, 28);" transform="matrix(-0.570538, -0.821271, 0.821271, -0.570538, -0.000001, -0.000002)"/>
        <path d="M 8.896 12.98 L 8.896 18.333 L 6.278 18.333 L 6.278 15.599 C 6.554 14.37 7.141 13.404 7.872 12.98 L 8.896 12.98 Z" style="stroke-linejoin: round; stroke-linecap: round; transform-origin: 7.587px 15.657px; stroke-width: 0.641194px; fill: rgb(57, 0, 0); stroke: rgb(255, 28, 28);" transform="matrix(-0.142092, -0.989853, 0.989853, -0.142092, -0.000002, 0)"/>
        <path d="M 10.662 17.127 L 10.662 22.48 L 8.044 22.48 L 8.044 19.746 C 8.32 18.517 8.907 17.551 9.638 17.127 L 10.662 17.127 Z" style="stroke-linejoin: round; stroke-linecap: round; transform-origin: 9.353px 19.804px; stroke-width: 0.641197px; fill: rgb(57, 0, 0); stroke: rgb(255, 28, 28);" transform="matrix(-0.465849, -0.884864, 0.884864, -0.465849, 0.000001, 0)"/>
        <path d="M 17.44 17.691 L 17.44 12.338 L 14.822 12.338 L 14.822 15.072 C 15.098 16.301 15.685 17.267 16.416 17.691 L 17.44 17.691 Z" style="stroke-linejoin: round; stroke-linecap: round; transform-origin: 16.131px 15.014px; stroke-width: 0.641199px; fill: rgb(57, 0, 0); stroke: rgb(255, 28, 28);" transform="matrix(-0.689551, -0.724237, 0.724237, -0.689551, 0.000001, 0)"/>
        <path d="M 14.93 14.622 L 14.93 9.269 L 12.312 9.269 L 12.312 12.003 C 12.588 13.232 13.175 14.198 13.906 14.622 L 14.93 14.622 Z" style="stroke-linejoin: round; stroke-linecap: round; transform-origin: 13.621px 11.945px; stroke-width: 0.641199px; fill: rgb(57, 0, 0); stroke: rgb(255, 28, 28);" transform="matrix(-0.782727, -0.622365, 0.622365, -0.782727, -0.000002, -0.000002)"/>
      </g>
      <path d="M 25.94 14.991 L 19.92 20.772 L 22.723 23.742 L 25.798 20.789 C 26.885 19.149 27.343 17.44 27.037 16.152 L 25.94 14.991 Z" style="stroke-linejoin: round; stroke-linecap: round; transform-box: fill-box; transform-origin: 51.1931% 48.0057%; fill: rgb(57, 0, 0); stroke: rgb(255, 28, 28);" transform="matrix(0.999209, -0.039768, 0.039768, 0.999209, 0, 0)"/>
    </g>
    <path d="M -84.244 15.377 C -84.203 21.996 -81.038 27.297 -77.172 27.222 C -73.308 27.147 -70.209 21.721 -70.248 15.103 C -70.253 14.279 -70.309 13.478 -70.404 12.701 C -69.403 14.458 -83.121 14.725 -84.122 12.968 C -84.203 13.748 -84.254 14.554 -84.244 15.377 Z" style="fill: rgb(57, 0, 0); transform-origin: -76.933px 19.055px; stroke: rgb(255, 28, 28);"/>
  </g>
  <g transform="matrix(0.927159, 0, 0, 0.881555, 19.5136, 27.0359)" style="">
    <g transform="matrix(0.668017, -0.001812, 0.00185, 0.682013, 289.309, 157.135)">
      <path d="M 12.964 12.196 L 35.218 38.481 L 31.329 41.831 L 19.962 28.404 C 15.263 22.017 12.119 16.524 11.443 13.506 L 12.964 12.196 Z" style="stroke-linejoin: round; stroke-linecap: round; transform-origin: 19.013px 13.154px; fill: rgb(57, 0, 0); stroke: rgb(255, 28, 28);"/>
      <g transform="matrix(1.398026, -0.118815, 0.132642, 1.560712, 2.879618, 1.618607)" style="transform-origin: 11.8618px 17.6388px;">
        <path d="M 13.052 20.964 L 13.052 26.317 L 10.434 26.317 L 10.434 23.583 C 10.71 22.354 11.297 21.388 12.028 20.964 L 13.052 20.964 Z" style="stroke-linejoin: round; stroke-linecap: round; transform-box: fill-box; transform-origin: 50% 50%; stroke-width: 0.641198px; fill: rgb(57, 0, 0); stroke: rgb(255, 28, 28);" transform="matrix(-0.570538, -0.821271, 0.821271, -0.570538, -0.000001, -0.000002)"/>
        <path d="M 8.896 12.98 L 8.896 18.333 L 6.278 18.333 L 6.278 15.599 C 6.554 14.37 7.141 13.404 7.872 12.98 L 8.896 12.98 Z" style="stroke-linejoin: round; stroke-linecap: round; transform-origin: 7.587px 15.657px; stroke-width: 0.641194px; fill: rgb(57, 0, 0); stroke: rgb(255, 28, 28);" transform="matrix(-0.142092, -0.989853, 0.989853, -0.142092, -0.000002, 0)"/>
        <path d="M 10.662 17.127 L 10.662 22.48 L 8.044 22.48 L 8.044 19.746 C 8.32 18.517 8.907 17.551 9.638 17.127 L 10.662 17.127 Z" style="stroke-linejoin: round; stroke-linecap: round; transform-origin: 9.353px 19.804px; stroke-width: 0.641197px; fill: rgb(57, 0, 0); stroke: rgb(255, 28, 28);" transform="matrix(-0.465849, -0.884864, 0.884864, -0.465849, 0.000001, 0)"/>
        <path d="M 17.44 17.691 L 17.44 12.338 L 14.822 12.338 L 14.822 15.072 C 15.098 16.301 15.685 17.267 16.416 17.691 L 17.44 17.691 Z" style="stroke-linejoin: round; stroke-linecap: round; transform-origin: 16.131px 15.014px; stroke-width: 0.641199px; fill: rgb(57, 0, 0); stroke: rgb(255, 28, 28);" transform="matrix(-0.689551, -0.724237, 0.724237, -0.689551, 0.000001, 0)"/>
        <path d="M 14.93 14.622 L 14.93 9.269 L 12.312 9.269 L 12.312 12.003 C 12.588 13.232 13.175 14.198 13.906 14.622 L 14.93 14.622 Z" style="stroke-linejoin: round; stroke-linecap: round; transform-origin: 13.621px 11.945px; stroke-width: 0.641199px; fill: rgb(57, 0, 0); stroke: rgb(255, 28, 28);" transform="matrix(-0.782727, -0.622365, 0.622365, -0.782727, -0.000002, -0.000002)"/>
      </g>
      <path d="M 25.94 14.991 L 19.92 20.772 L 22.723 23.742 L 25.798 20.789 C 26.885 19.149 27.343 17.44 27.037 16.152 L 25.94 14.991 Z" style="stroke-linejoin: round; stroke-linecap: round; transform-box: fill-box; transform-origin: 51.1931% 48.0057%; fill: rgb(57, 0, 0); stroke: rgb(255, 28, 28);" transform="matrix(0.999209, -0.039768, 0.039768, 0.999209, 0, 0)"/>
    </g>
    <rect x="-61.118" y="65.058" width="8.938" height="18.957" style="fill: rgb(208, 0, 0); stroke: rgb(255, 28, 28); transform-box: fill-box; transform-origin: 50% 50%;" transform="matrix(-0.002712, -0.999996, 0.999996, -0.002712, 381.368835, 187.160132)"/>
    <rect x="24.301" y="98.569" width="12.349" height="23.153" style="fill: rgb(208, 0, 0); stroke: rgb(255, 28, 28); transform-origin: 30.473px 110.145px;" transform="matrix(0.113481, 0.99354, -0.993305, 0.115536, 283.432521, 151.602841)"/>
    <path d="M 310.938 231.491 L 310.971 231.49 L 311.202 239.669 L 307.993 239.763 C 305.672 239.186 303.79 237.764 302.869 235.912 L 302.75 231.734 L 302.776 231.733 L 302.392 218.272 L 302.275 218.275 L 302.025 209.609 L 307.615 215.697 L 309.197 215.65 C 309.299 213.619 309.773 212.133 310.385 212.112 C 311.153 212.085 311.853 214.305 311.953 217.07 C 312.053 219.836 311.516 222.1 310.748 222.128 C 310.722 222.128 310.696 222.127 310.67 222.122 L 310.938 231.491 Z" style="fill: rgb(208, 0, 0); stroke: rgb(255, 28, 28); transform-origin: -115.121px 67.56px;"/>
    <path d="M 333.76 231.831 L 333.734 231.831 L 333.85 240.012 L 337.06 239.971 C 339.354 239.295 341.174 237.795 342.013 235.906 L 341.951 231.726 L 341.925 231.726 L 341.727 218.261 L 341.844 218.26 L 341.718 209.591 L 336.396 215.91 L 334.814 215.93 C 334.624 213.906 334.086 212.441 333.474 212.446 C 332.706 212.451 332.103 214.699 332.122 217.466 C 332.142 220.234 332.776 222.473 333.544 222.468 C 333.57 222.467 333.597 222.465 333.623 222.459 L 333.76 231.831 Z" style="fill: rgb(86, 0, 0); stroke: rgb(255, 28, 28); transform-origin: -81.632px 68.213px;"/>
    <path d="M 310.915 208.635 L 334.789 208.57 L 334.942 264.805 L 326.913 264.827 L 323.362 251.901 L 319.097 264.848 L 311.068 264.87 L 310.915 208.635 Z" style="fill: rgb(208, 0, 0); stroke: rgb(255, 28, 28); transform-origin: 322.925px 235.263px;"/>
    <path d="M 343.875 194.45 C 343.899 203.342 339.154 211.04 332.254 214.682 C 332.346 214.885 332.425 215.1 332.484 215.323 L 332.491 217.911 L 332.263 217.912 L 332.485 217.997 L 331.547 220.415 C 330.821 221.387 329.839 221.996 328.882 222.067 L 327.741 221.639 L 329.378 217.419 L 329.374 215.919 C 327.454 216.569 325.41 216.92 323.294 216.926 C 321.006 216.932 318.797 216.533 316.738 215.792 L 316.743 217.687 L 318.408 221.898 L 317.269 222.331 C 316.312 222.267 315.328 221.663 314.595 220.695 L 313.645 218.282 L 313.866 218.195 L 313.632 218.196 L 313.625 215.608 C 313.728 215.24 313.87 214.893 314.045 214.584 C 307.276 210.919 302.612 203.335 302.589 194.562 C 302.555 182.179 311.768 172.117 323.173 172.086 C 334.574 172.055 343.841 182.067 343.875 194.45 Z" style="stroke-width: 2px; fill: rgb(57, 0, 0); stroke: rgb(255, 28, 28); transform-origin: 323.239px 197.201px;"/>
    <ellipse style="fill: rgb(208, 0, 0); stroke: rgb(255, 28, 28);" cx="-90.477" cy="17.881" rx="16.218" ry="19.055" transform="matrix(0.999996, -0.002712, 0.002712, 0.999996, 417.709029, 175.543994)"/>
    <path d="M 318.374 185.126 C 318.411 189.096 320.444 192.269 322.918 192.217 C 325.389 192.166 327.363 188.906 327.327 184.936 C 327.322 184.442 327.285 183.962 327.224 183.497 C 327.867 184.548 319.091 184.733 318.448 183.68 C 318.398 184.148 318.366 184.632 318.374 185.126 Z" style="fill: rgb(57, 0, 0); stroke: rgb(255, 28, 28); transform-origin: 323.057px 188.319px;"/>
    <g transform="matrix(-0.668017, 0.001812, 0.00185, 0.682013, 357.779, 153.281)" style="">
      <path d="M 12.964 12.196 L 35.218 38.481 L 31.329 41.831 L 19.962 28.404 C 15.263 22.017 12.119 16.524 11.443 13.506 L 12.964 12.196 Z" style="stroke-linejoin: round; stroke-linecap: round; transform-origin: 19.013px 13.154px; fill: rgb(57, 0, 0); stroke: rgb(255, 28, 28);"/>
      <g transform="matrix(1.398026, -0.118815, 0.132642, 1.560712, 2.879618, 1.618607)" style="transform-origin: 11.8618px 17.6388px;">
        <path d="M 13.052 20.964 L 13.052 26.317 L 10.434 26.317 L 10.434 23.583 C 10.71 22.354 11.297 21.388 12.028 20.964 L 13.052 20.964 Z" style="stroke-linejoin: round; stroke-linecap: round; transform-box: fill-box; transform-origin: 50% 50%; stroke-width: 0.641198px; fill: rgb(57, 0, 0); stroke: rgb(255, 28, 28);" transform="matrix(-0.570538, -0.821271, 0.821271, -0.570538, -0.000001, -0.000002)"/>
        <path d="M 8.896 12.98 L 8.896 18.333 L 6.278 18.333 L 6.278 15.599 C 6.554 14.37 7.141 13.404 7.872 12.98 L 8.896 12.98 Z" style="stroke-linejoin: round; stroke-linecap: round; transform-origin: 7.587px 15.657px; stroke-width: 0.641194px; fill: rgb(57, 0, 0); stroke: rgb(255, 28, 28);" transform="matrix(-0.142092, -0.989853, 0.989853, -0.142092, -0.000002, 0)"/>
        <path d="M 10.662 17.127 L 10.662 22.48 L 8.044 22.48 L 8.044 19.746 C 8.32 18.517 8.907 17.551 9.638 17.127 L 10.662 17.127 Z" style="stroke-linejoin: round; stroke-linecap: round; transform-origin: 9.353px 19.804px; stroke-width: 0.641197px; fill: rgb(57, 0, 0); stroke: rgb(255, 28, 28);" transform="matrix(-0.465849, -0.884864, 0.884864, -0.465849, 0.000001, 0)"/>
        <path d="M 17.44 17.691 L 17.44 12.338 L 14.822 12.338 L 14.822 15.072 C 15.098 16.301 15.685 17.267 16.416 17.691 L 17.44 17.691 Z" style="stroke-linejoin: round; stroke-linecap: round; transform-origin: 16.131px 15.014px; stroke-width: 0.641199px; fill: rgb(57, 0, 0); stroke: rgb(255, 28, 28);" transform="matrix(-0.689551, -0.724237, 0.724237, -0.689551, 0.000001, 0)"/>
        <path d="M 14.93 14.622 L 14.93 9.269 L 12.312 9.269 L 12.312 12.003 C 12.588 13.232 13.175 14.198 13.906 14.622 L 14.93 14.622 Z" style="stroke-linejoin: round; stroke-linecap: round; transform-origin: 13.621px 11.945px; stroke-width: 0.641199px; fill: rgb(57, 0, 0); stroke: rgb(255, 28, 28);" transform="matrix(-0.782727, -0.622365, 0.622365, -0.782727, -0.000002, -0.000002)"/>
      </g>
      <path d="M 25.94 14.991 L 19.92 20.772 L 22.723 23.742 L 25.798 20.789 C 26.885 19.149 27.343 17.44 27.037 16.152 L 25.94 14.991 Z" style="stroke-linejoin: round; stroke-linecap: round; transform-box: fill-box; transform-origin: 51.1931% 48.0057%; fill: rgb(57, 0, 0); stroke: rgb(255, 28, 28);" transform="matrix(0.999209, -0.039768, 0.039768, 0.999209, 0, 0)"/>
    </g>
    <path d="M 331.336 185.049 C 331.374 189.307 333.444 192.712 335.962 192.656 C 338.478 192.602 340.487 189.105 340.449 184.848 C 340.445 184.317 340.406 183.802 340.343 183.302 C 340.998 184.432 332.066 184.627 331.411 183.499 C 331.36 184.001 331.328 184.519 331.336 185.049 Z" style="fill: rgb(57, 0, 0); stroke: rgb(255, 28, 28); transform-origin: 336.103px 188.402px;"/>
  </g>
</svg>