<?xml version="1.0" encoding="utf-8"?>
<svg xmlns="http://www.w3.org/2000/svg" viewBox="0 0 400 400" width="400px" height="400px" xmlns:bx="https://boxy-svg.com">
  <defs>
    <bx:export>
      <bx:file format="svg" path="Sem título.svg"/>
    </bx:export>
    <linearGradient gradientUnits="userSpaceOnUse" x1="33.606" y1="-0.934" x2="33.606" y2="96.198" id="gradient-0">
      <stop offset="0" style="stop-color: rgb(100% 95.294% 13.333%)"/>
      <stop offset="1" style="stop-color: rgb(55.825% 54.804% 0%)"/>
    </linearGradient>
    <linearGradient gradientUnits="userSpaceOnUse" x1="102.036" y1="-0.934" x2="102.036" y2="96.198" id="gradient-1">
      <stop offset="0" style="stop-color: rgb(100% 95.294% 13.333%)"/>
      <stop offset="1" style="stop-color: rgb(55.825% 54.804% 0%)"/>
    </linearGradient>
    <linearGradient gradientUnits="userSpaceOnUse" x1="168.889" y1="-0.934" x2="168.889" y2="96.198" id="gradient-2">
      <stop offset="0" style="stop-color: rgb(100% 95.294% 13.333%)"/>
      <stop offset="1" style="stop-color: rgb(55.825% 54.804% 0%)"/>
    </linearGradient>
    <linearGradient gradientUnits="userSpaceOnUse" x1="-0.771" y1="72.852" x2="-0.771" y2="158.202" id="gradient-3">
      <stop offset="0" style="stop-color: rgb(100% 95.294% 13.333%)"/>
      <stop offset="1" style="stop-color: rgb(55.825% 54.804% 0%)"/>
    </linearGradient>
    <linearGradient gradientUnits="userSpaceOnUse" x1="67.659" y1="72.852" x2="67.659" y2="158.202" id="gradient-4">
      <stop offset="0" style="stop-color: rgb(100% 95.294% 13.333%)"/>
      <stop offset="1" style="stop-color: rgb(55.825% 54.804% 0%)"/>
    </linearGradient>
    <linearGradient gradientUnits="userSpaceOnUse" x1="134.512" y1="72.852" x2="134.512" y2="158.202" id="gradient-5">
      <stop offset="0" style="stop-color: rgb(100% 95.294% 13.333%)"/>
      <stop offset="1" style="stop-color: rgb(55.825% 54.804% 0%)"/>
    </linearGradient>
    <linearGradient gradientUnits="userSpaceOnUse" x1="201.213" y1="72.39" x2="201.213" y2="157.74" id="gradient-6">
      <stop offset="0" style="stop-color: rgb(100% 95.294% 13.333%)"/>
      <stop offset="1" style="stop-color: rgb(55.825% 54.804% 0%)"/>
    </linearGradient>
    <linearGradient gradientUnits="userSpaceOnUse" x1="267.2" y1="71.39" x2="267.2" y2="156.74" id="gradient-7">
      <stop offset="0" style="stop-color: rgb(100% 95.294% 13.333%)"/>
      <stop offset="1" style="stop-color: rgb(55.825% 54.804% 0%)"/>
    </linearGradient>
    <linearGradient gradientUnits="userSpaceOnUse" x1="332.264" y1="72.39" x2="332.264" y2="157.74" id="gradient-8">
      <stop offset="0" style="stop-color: rgb(100% 95.294% 13.333%)"/>
      <stop offset="1" style="stop-color: rgb(55.825% 54.804% 0%)"/>
    </linearGradient>
    <linearGradient gradientUnits="userSpaceOnUse" x1="397.849" y1="71.968" x2="397.849" y2="157.318" id="gradient-9">
      <stop offset="0" style="stop-color: rgb(100% 95.294% 13.333%)"/>
      <stop offset="1" style="stop-color: rgb(55.825% 54.804% 0%)"/>
    </linearGradient>
    <linearGradient gradientUnits="userSpaceOnUse" x1="69.542" y1="197.77" x2="69.542" y2="290.976" id="gradient-10">
      <stop offset="0" style="stop-color: rgb(100% 95.294% 13.333%)"/>
      <stop offset="1" style="stop-color: rgb(55.825% 54.804% 0%)"/>
    </linearGradient>
    <linearGradient gradientUnits="userSpaceOnUse" x1="136.395" y1="197.77" x2="136.395" y2="290.976" id="gradient-11">
      <stop offset="0" style="stop-color: rgb(100% 95.294% 13.333%)"/>
      <stop offset="1" style="stop-color: rgb(55.825% 54.804% 0%)"/>
    </linearGradient>
    <linearGradient gradientUnits="userSpaceOnUse" x1="203.096" y1="197.266" x2="203.096" y2="290.472" id="gradient-12">
      <stop offset="0" style="stop-color: rgb(100% 95.294% 13.333%)"/>
      <stop offset="1" style="stop-color: rgb(55.825% 54.804% 0%)"/>
    </linearGradient>
    <linearGradient gradientUnits="userSpaceOnUse" x1="269.083" y1="196.174" x2="269.083" y2="289.38" id="gradient-13">
      <stop offset="0" style="stop-color: rgb(100% 95.294% 13.333%)"/>
      <stop offset="1" style="stop-color: rgb(55.825% 54.804% 0%)"/>
    </linearGradient>
    <linearGradient gradientUnits="userSpaceOnUse" x1="334.147" y1="197.266" x2="334.147" y2="290.472" id="gradient-14">
      <stop offset="0" style="stop-color: rgb(100% 95.294% 13.333%)"/>
      <stop offset="1" style="stop-color: rgb(55.825% 54.804% 0%)"/>
    </linearGradient>
    <linearGradient gradientUnits="userSpaceOnUse" x1="399.732" y1="196.805" x2="399.732" y2="290.011" id="gradient-15">
      <stop offset="0" style="stop-color: rgb(100% 95.294% 13.333%)"/>
      <stop offset="1" style="stop-color: rgb(55.825% 54.804% 0%)"/>
    </linearGradient>
    <linearGradient gradientUnits="userSpaceOnUse" x1="102.383" y1="266.04" x2="102.383" y2="359.246" id="gradient-16">
      <stop offset="0" style="stop-color: rgb(100% 95.294% 13.333%)"/>
      <stop offset="1" style="stop-color: rgb(55.825% 54.804% 0%)"/>
    </linearGradient>
    <linearGradient gradientUnits="userSpaceOnUse" x1="169.236" y1="266.04" x2="169.236" y2="359.246" id="gradient-17">
      <stop offset="0" style="stop-color: rgb(100% 95.294% 13.333%)"/>
      <stop offset="1" style="stop-color: rgb(55.825% 54.804% 0%)"/>
    </linearGradient>
    <linearGradient gradientUnits="userSpaceOnUse" x1="235.937" y1="265.536" x2="235.937" y2="358.742" id="gradient-18">
      <stop offset="0" style="stop-color: rgb(100% 95.294% 13.333%)"/>
      <stop offset="1" style="stop-color: rgb(55.825% 54.804% 0%)"/>
    </linearGradient>
    <linearGradient gradientUnits="userSpaceOnUse" x1="301.924" y1="264.444" x2="301.924" y2="357.65" id="gradient-19">
      <stop offset="0" style="stop-color: rgb(100% 95.294% 13.333%)"/>
      <stop offset="1" style="stop-color: rgb(55.825% 54.804% 0%)"/>
    </linearGradient>
    <linearGradient gradientUnits="userSpaceOnUse" x1="366.988" y1="265.536" x2="366.988" y2="358.742" id="gradient-20">
      <stop offset="0" style="stop-color: rgb(100% 95.294% 13.333%)"/>
      <stop offset="1" style="stop-color: rgb(55.825% 54.804% 0%)"/>
    </linearGradient>
    <linearGradient gradientUnits="userSpaceOnUse" x1="235.59" y1="-1.46" x2="235.59" y2="95.672" id="gradient-21">
      <stop offset="0" style="stop-color: rgb(100% 95.294% 13.333%)"/>
      <stop offset="1" style="stop-color: rgb(55.825% 54.804% 0%)"/>
    </linearGradient>
    <linearGradient gradientUnits="userSpaceOnUse" x1="301.577" y1="-2.598" x2="301.577" y2="94.534" id="gradient-22">
      <stop offset="0" style="stop-color: rgb(100% 95.294% 13.333%)"/>
      <stop offset="1" style="stop-color: rgb(55.825% 54.804% 0%)"/>
    </linearGradient>
    <linearGradient gradientUnits="userSpaceOnUse" x1="366.641" y1="-1.46" x2="366.641" y2="95.672" id="gradient-23">
      <stop offset="0" style="stop-color: rgb(100% 95.294% 13.333%)"/>
      <stop offset="1" style="stop-color: rgb(55.825% 54.804% 0%)"/>
    </linearGradient>
    <linearGradient gradientUnits="userSpaceOnUse" x1="1.112" y1="197.77" x2="1.112" y2="290.976" id="gradient-24">
      <stop offset="0" style="stop-color: rgb(100% 95.294% 13.333%)"/>
      <stop offset="1" style="stop-color: rgb(55.825% 54.804% 0%)"/>
    </linearGradient>
    <linearGradient gradientUnits="userSpaceOnUse" x1="33.953" y1="266.04" x2="33.953" y2="359.246" id="gradient-25">
      <stop offset="0" style="stop-color: rgb(100% 95.294% 13.333%)"/>
      <stop offset="1" style="stop-color: rgb(55.825% 54.804% 0%)"/>
    </linearGradient>
    <linearGradient gradientUnits="userSpaceOnUse" x1="151.438" y1="139.092" x2="151.438" y2="157.112" id="gradient-26">
      <stop offset="0" style="stop-color: rgb(100% 95.294% 13.333%)"/>
      <stop offset="1" style="stop-color: rgb(55.825% 54.804% 0%)"/>
    </linearGradient>
    <linearGradient gradientUnits="userSpaceOnUse" x1="151.438" y1="139.092" x2="151.438" y2="157.112" id="gradient-27" gradientTransform="matrix(0.725476, 0, 0, 0.775517, 81.289874, 35.268934)">
      <stop offset="0" style="stop-color: rgb(100% 95.294% 13.333%)"/>
      <stop offset="1" style="stop-color: rgb(55.825% 54.804% 0%)"/>
    </linearGradient>
    <linearGradient gradientUnits="userSpaceOnUse" x1="151.438" y1="139.092" x2="151.438" y2="157.112" id="gradient-28" gradientTransform="matrix(1, 0, 0, 1, -34.910107, 64.729156)">
      <stop offset="0" style="stop-color: rgb(100% 95.294% 13.333%)"/>
      <stop offset="1" style="stop-color: rgb(55.825% 54.804% 0%)"/>
    </linearGradient>
    <linearGradient gradientUnits="userSpaceOnUse" x1="151.438" y1="139.092" x2="151.438" y2="157.112" id="gradient-29" gradientTransform="matrix(1, 0, 0, 1, 19.294681, 78.420099)">
      <stop offset="0" style="stop-color: rgb(100% 95.294% 13.333%)"/>
      <stop offset="1" style="stop-color: rgb(55.825% 54.804% 0%)"/>
    </linearGradient>
    <linearGradient gradientUnits="userSpaceOnUse" x1="151.438" y1="139.092" x2="151.438" y2="157.112" id="gradient-30" gradientTransform="matrix(0.791412, 0, 0, 0.705399, 42.779723, 110.456)">
      <stop offset="0" style="stop-color: rgb(100% 95.294% 13.333%)"/>
      <stop offset="1" style="stop-color: rgb(55.825% 54.804% 0%)"/>
    </linearGradient>
    <linearGradient gradientUnits="userSpaceOnUse" x1="151.438" y1="139.092" x2="151.438" y2="157.112" id="gradient-31" gradientTransform="matrix(1, 0, 0, 1, 152.642055, 116.480383)">
      <stop offset="0" style="stop-color: rgb(100% 95.294% 13.333%)"/>
      <stop offset="1" style="stop-color: rgb(55.825% 54.804% 0%)"/>
    </linearGradient>
    <linearGradient gradientUnits="userSpaceOnUse" x1="151.438" y1="139.092" x2="151.438" y2="157.112" id="gradient-32" gradientTransform="matrix(0.589014, 0, 0, 0.674114, 210.293012, 117.030472)">
      <stop offset="0" style="stop-color: rgb(100% 95.294% 13.333%)"/>
      <stop offset="1" style="stop-color: rgb(55.825% 54.804% 0%)"/>
    </linearGradient>
    <linearGradient gradientUnits="userSpaceOnUse" x1="151.438" y1="139.092" x2="151.438" y2="157.112" id="gradient-33" gradientTransform="matrix(0.589014, 0, 0, 0.674114, 216.165474, 124.003563)">
      <stop offset="0" style="stop-color: rgb(100% 95.294% 13.333%)"/>
      <stop offset="1" style="stop-color: rgb(55.825% 54.804% 0%)"/>
    </linearGradient>
    <linearGradient gradientUnits="userSpaceOnUse" x1="151.438" y1="139.092" x2="151.438" y2="157.112" id="gradient-35" gradientTransform="matrix(1, 0, 0, 1, -100.251556, -103.384415)">
      <stop offset="0" style="stop-color: rgb(100% 95.294% 13.333%)"/>
      <stop offset="1" style="stop-color: rgb(55.825% 54.804% 0%)"/>
    </linearGradient>
    <linearGradient gradientUnits="userSpaceOnUse" x1="151.438" y1="139.092" x2="151.438" y2="157.112" id="gradient-36" gradientTransform="matrix(0.725476, 0, 0, 0.775517, -18.961656, -68.115515)">
      <stop offset="0" style="stop-color: rgb(100% 95.294% 13.333%)"/>
      <stop offset="1" style="stop-color: rgb(55.825% 54.804% 0%)"/>
    </linearGradient>
    <linearGradient gradientUnits="userSpaceOnUse" x1="151.438" y1="139.092" x2="151.438" y2="157.112" id="gradient-37" gradientTransform="matrix(1, 0, 0, 1, -135.161656, -38.655215)">
      <stop offset="0" style="stop-color: rgb(100% 95.294% 13.333%)"/>
      <stop offset="1" style="stop-color: rgb(55.825% 54.804% 0%)"/>
    </linearGradient>
    <linearGradient gradientUnits="userSpaceOnUse" x1="151.438" y1="139.092" x2="151.438" y2="157.112" id="gradient-38" gradientTransform="matrix(1, 0, 0, 1, -80.956856, -24.964315)">
      <stop offset="0" style="stop-color: rgb(100% 95.294% 13.333%)"/>
      <stop offset="1" style="stop-color: rgb(55.825% 54.804% 0%)"/>
    </linearGradient>
    <linearGradient gradientUnits="userSpaceOnUse" x1="151.438" y1="139.092" x2="151.438" y2="157.112" id="gradient-39" gradientTransform="matrix(0.791412, 0, 0, 0.705399, -57.471856, 7.071585)">
      <stop offset="0" style="stop-color: rgb(100% 95.294% 13.333%)"/>
      <stop offset="1" style="stop-color: rgb(55.825% 54.804% 0%)"/>
    </linearGradient>
    <linearGradient gradientUnits="userSpaceOnUse" x1="151.438" y1="139.092" x2="151.438" y2="157.112" id="gradient-34" gradientTransform="matrix(0.758498, 0, 0, 0.689212, -51.4005, -453.211989)">
      <stop offset="0" style="stop-color: rgb(100% 95.294% 13.333%)"/>
      <stop offset="1" style="stop-color: rgb(55.825% 54.804% 0%)"/>
    </linearGradient>
    <linearGradient gradientUnits="userSpaceOnUse" x1="151.438" y1="139.092" x2="151.438" y2="157.112" id="gradient-40" gradientTransform="matrix(0.550272, 0, 0, 0.534495, 10.2581, -428.904994)">
      <stop offset="0" style="stop-color: rgb(100% 95.294% 13.333%)"/>
      <stop offset="1" style="stop-color: rgb(55.825% 54.804% 0%)"/>
    </linearGradient>
    <linearGradient gradientUnits="userSpaceOnUse" x1="151.438" y1="139.092" x2="151.438" y2="157.112" id="gradient-41" gradientTransform="matrix(0.758498, 0, 0, 0.689212, -77.8794, -408.60034)">
      <stop offset="0" style="stop-color: rgb(100% 95.294% 13.333%)"/>
      <stop offset="1" style="stop-color: rgb(55.825% 54.804% 0%)"/>
    </linearGradient>
    <linearGradient gradientUnits="userSpaceOnUse" x1="151.438" y1="139.092" x2="151.438" y2="157.112" id="gradient-42" gradientTransform="matrix(0.758498, 0, 0, 0.689212, -36.7652, -399.164402)">
      <stop offset="0" style="stop-color: rgb(100% 95.294% 13.333%)"/>
      <stop offset="1" style="stop-color: rgb(55.825% 54.804% 0%)"/>
    </linearGradient>
    <linearGradient gradientUnits="userSpaceOnUse" x1="151.438" y1="139.092" x2="151.438" y2="157.112" id="gradient-43" gradientTransform="matrix(0.600285, 0, 0, 0.48617, -18.9518, -377.084565)">
      <stop offset="0" style="stop-color: rgb(100% 95.294% 13.333%)"/>
      <stop offset="1" style="stop-color: rgb(55.825% 54.804% 0%)"/>
    </linearGradient>
  </defs>
  <path d="M 33.606 -0.934 L 66.82 23.349 L 66.82 71.915 L 33.606 96.198 L 0.392 71.915 L 0.392 23.349 Z" bx:shape="n-gon 33.606 47.632 38.352 48.566 6 0 1@01da8385" style="stroke-width: 4px; stroke: rgb(193, 102, 0); fill: url(&quot;#gradient-0&quot;);"/>
  <path d="M 102.036 -0.934 L 136.577 23.349 L 136.577 71.915 L 102.036 96.198 L 67.495 71.915 L 67.495 23.349 Z" bx:shape="n-gon 102.036 47.632 39.884 48.566 6 0 1@6de8f066" style="stroke-width: 4px; stroke: rgb(193, 102, 0); fill: url(&quot;#gradient-1&quot;);"/>
  <path d="M 168.889 -0.934 L 201.218 23.349 L 201.218 71.915 L 168.889 96.198 L 136.56 71.915 L 136.56 23.349 Z" bx:shape="n-gon 168.889 47.632 37.33 48.566 6 0 1@72d2cd56" style="stroke-width: 4px; stroke: rgb(193, 102, 0); fill: url(&quot;#gradient-2&quot;);"/>
  <path d="M 235.59 -1.46 L 269.246 22.823 L 269.246 71.389 L 235.59 95.672 L 201.934 71.389 L 201.934 22.823 Z" bx:shape="n-gon 235.59 47.106 38.863 48.566 6 0 1@0e05431d" style="stroke-width: 4px; stroke: rgb(193, 102, 0); fill: url(&quot;#gradient-21&quot;);"/>
  <path d="M 301.577 -2.598 L 334.348 21.685 L 334.348 70.251 L 301.577 94.534 L 268.806 70.251 L 268.806 21.685 Z" bx:shape="n-gon 301.577 45.968 37.841 48.566 6 0 1@091a8ba0" style="stroke-width: 4px; stroke: rgb(193, 102, 0); fill: url(&quot;#gradient-22&quot;);"/>
  <path d="M 366.641 -1.46 L 399.412 22.823 L 399.412 71.389 L 366.641 95.672 L 333.87 71.389 L 333.87 22.823 Z" bx:shape="n-gon 366.641 47.106 37.841 48.566 6 0 1@9363cd12" style="stroke-width: 4px; stroke: rgb(193, 102, 0); fill: url(&quot;#gradient-23&quot;);"/>
  <path d="M -0.771 72.852 L 32.443 94.19 L 32.443 136.865 L -0.771 158.202 L -33.985 136.865 L -33.985 94.19 Z" bx:shape="n-gon -0.771 115.527 38.352 42.675 6 0 1@a1a4ac6d" style="stroke-width: 4px; stroke: rgb(193, 102, 0); fill: url(&quot;#gradient-3&quot;);"/>
  <path d="M 67.659 72.852 L 102.2 94.19 L 102.2 136.865 L 67.659 158.202 L 33.118 136.865 L 33.118 94.19 Z" bx:shape="n-gon 67.659 115.527 39.884 42.675 6 0 1@ad48259d" style="stroke-width: 4px; stroke: rgb(193, 102, 0); fill: url(&quot;#gradient-4&quot;);"/>
  <path d="M 134.512 72.852 L 166.841 94.19 L 166.841 136.865 L 134.512 158.202 L 102.183 136.865 L 102.183 94.19 Z" bx:shape="n-gon 134.512 115.527 37.33 42.675 6 0 1@79f116ce" style="stroke-width: 4px; stroke: rgb(193, 102, 0); fill: url(&quot;#gradient-5&quot;);"/>
  <path d="M 201.213 72.39 L 234.869 93.727 L 234.869 136.402 L 201.213 157.74 L 167.557 136.403 L 167.557 93.727 Z" bx:shape="n-gon 201.213 115.065 38.863 42.675 6 0 1@c1d17106" style="stroke-width: 4px; stroke: rgb(193, 102, 0); fill: url(&quot;#gradient-6&quot;);"/>
  <path d="M 267.2 71.39 L 299.971 92.727 L 299.971 135.402 L 267.2 156.74 L 234.429 135.403 L 234.429 92.727 Z" bx:shape="n-gon 267.2 114.065 37.841 42.675 6 0 1@56c00868" style="stroke-width: 4px; stroke: rgb(193, 102, 0); fill: url(&quot;#gradient-7&quot;);"/>
  <path d="M 332.264 72.39 L 365.035 93.727 L 365.035 136.402 L 332.264 157.74 L 299.493 136.403 L 299.493 93.727 Z" bx:shape="n-gon 332.264 115.065 37.841 42.675 6 0 1@38c78228" style="stroke-width: 4px; stroke: rgb(193, 102, 0); fill: url(&quot;#gradient-8&quot;);"/>
  <path d="M 397.849 71.968 L 431.063 93.306 L 431.063 135.981 L 397.849 157.318 L 364.635 135.981 L 364.635 93.306 Z" bx:shape="n-gon 397.849 114.643 38.352 42.675 6 0 1@0552f65d" style="stroke-width: 4px; stroke: rgb(193, 102, 0); fill: url(&quot;#gradient-9&quot;);"/>
  <path d="M 33.606 137.074 L 66.82 158.084 L 66.82 200.104 L 33.606 221.114 L 0.392 200.104 L 0.392 158.084 Z" bx:shape="n-gon 33.606 179.094 38.352 42.02 6 0 1@66ab61d9" style="stroke-width: 4px; fill: rgb(255, 243, 34); stroke: rgb(193, 102, 0);"/>
  <path d="M 102.036 137.074 L 136.577 158.084 L 136.577 200.104 L 102.036 221.114 L 67.495 200.104 L 67.495 158.084 Z" bx:shape="n-gon 102.036 179.094 39.884 42.02 6 0 1@3546c29a" style="stroke-width: 4px; fill: rgb(255, 243, 34); stroke: rgb(193, 102, 0);"/>
  <path d="M 168.889 137.074 L 201.218 158.084 L 201.218 200.104 L 168.889 221.114 L 136.56 200.104 L 136.56 158.084 Z" bx:shape="n-gon 168.889 179.094 37.33 42.02 6 0 1@07e5a4be" style="stroke-width: 4px; fill: rgb(255, 243, 34); stroke: rgb(193, 102, 0);"/>
  <path d="M 235.59 136.618 L 269.246 157.628 L 269.246 199.648 L 235.59 220.658 L 201.934 199.648 L 201.934 157.628 Z" bx:shape="n-gon 235.59 178.638 38.863 42.02 6 0 1@cbae1846" style="stroke-width: 4px; fill: rgb(255, 243, 34); stroke: rgb(193, 102, 0);"/>
  <path d="M 301.577 135.634 L 334.348 156.644 L 334.348 198.664 L 301.577 219.674 L 268.806 198.664 L 268.806 156.644 Z" bx:shape="n-gon 301.577 177.654 37.841 42.02 6 0 1@98c13c0e" style="stroke-width: 4px; fill: rgb(255, 243, 34); stroke: rgb(193, 102, 0);"/>
  <path d="M 366.641 136.618 L 399.412 157.628 L 399.412 199.648 L 366.641 220.658 L 333.87 199.648 L 333.87 157.628 Z" bx:shape="n-gon 366.641 178.638 37.841 42.02 6 0 1@228f0e73" style="stroke-width: 4px; fill: rgb(255, 243, 34); stroke: rgb(193, 102, 0);"/>
  <path d="M 1.112 197.77 L 34.326 221.072 L 34.326 267.674 L 1.112 290.976 L -32.102 267.675 L -32.102 221.072 Z" bx:shape="n-gon 1.112 244.373 38.352 46.603 6 0 1@e79d6baa" style="stroke-width: 4px; stroke: rgb(193, 102, 0); fill: url(&quot;#gradient-24&quot;);"/>
  <path d="M 69.542 197.77 L 104.083 221.072 L 104.083 267.674 L 69.542 290.976 L 35.001 267.675 L 35.001 221.072 Z" bx:shape="n-gon 69.542 244.373 39.884 46.603 6 0 1@3dc12e9c" style="stroke-width: 4px; stroke: rgb(193, 102, 0); fill: url(&quot;#gradient-10&quot;);"/>
  <path d="M 136.395 197.77 L 168.724 221.072 L 168.724 267.674 L 136.395 290.976 L 104.066 267.675 L 104.066 221.072 Z" bx:shape="n-gon 136.395 244.373 37.33 46.603 6 0 1@5cc73d95" style="stroke-width: 4px; stroke: rgb(193, 102, 0); fill: url(&quot;#gradient-11&quot;);"/>
  <path d="M 203.096 197.266 L 236.752 220.568 L 236.752 267.171 L 203.096 290.472 L 169.44 267.171 L 169.44 220.568 Z" bx:shape="n-gon 203.096 243.869 38.863 46.603 6 0 1@db3d4509" style="stroke-width: 4px; stroke: rgb(193, 102, 0); fill: url(&quot;#gradient-12&quot;);"/>
  <path d="M 269.083 196.174 L 301.854 219.475 L 301.854 266.078 L 269.083 289.38 L 236.312 266.079 L 236.312 219.475 Z" bx:shape="n-gon 269.083 242.777 37.841 46.603 6 0 1@d03afebb" style="stroke-width: 4px; stroke: rgb(193, 102, 0); fill: url(&quot;#gradient-13&quot;);"/>
  <path d="M 334.147 197.266 L 366.918 220.568 L 366.918 267.171 L 334.147 290.472 L 301.376 267.171 L 301.376 220.568 Z" bx:shape="n-gon 334.147 243.869 37.841 46.603 6 0 1@b7c14926" style="stroke-width: 4px; stroke: rgb(193, 102, 0); fill: url(&quot;#gradient-14&quot;);"/>
  <path d="M 399.732 196.805 L 432.946 220.106 L 432.946 266.71 L 399.732 290.011 L 366.518 266.71 L 366.518 220.106 Z" bx:shape="n-gon 399.732 243.408 38.352 46.603 6 0 1@2674e173" style="stroke-width: 4px; stroke: rgb(193, 102, 0); fill: url(&quot;#gradient-15&quot;);"/>
  <path d="M 33.953 266.04 L 67.167 289.342 L 67.167 335.944 L 33.953 359.246 L 0.739 335.945 L 0.739 289.342 Z" bx:shape="n-gon 33.953 312.643 38.352 46.603 6 0 1@7f17d55f" style="stroke-width: 4px; stroke: rgb(193, 102, 0); fill: url(&quot;#gradient-25&quot;);"/>
  <path d="M 102.383 266.04 L 136.924 289.342 L 136.924 335.944 L 102.383 359.246 L 67.842 335.945 L 67.842 289.342 Z" bx:shape="n-gon 102.383 312.643 39.884 46.603 6 0 1@1dca2abc" style="stroke-width: 4px; stroke: rgb(193, 102, 0); fill: url(&quot;#gradient-16&quot;);"/>
  <path d="M 169.236 266.04 L 201.565 289.342 L 201.565 335.944 L 169.236 359.246 L 136.907 335.945 L 136.907 289.342 Z" bx:shape="n-gon 169.236 312.643 37.33 46.603 6 0 1@8c57609c" style="stroke-width: 4px; stroke: rgb(193, 102, 0); fill: url(&quot;#gradient-17&quot;);"/>
  <path d="M 235.937 265.536 L 269.593 288.838 L 269.593 335.441 L 235.937 358.742 L 202.281 335.441 L 202.281 288.838 Z" bx:shape="n-gon 235.937 312.139 38.863 46.603 6 0 1@f7604348" style="stroke-width: 4px; stroke: rgb(193, 102, 0); fill: url(&quot;#gradient-18&quot;);"/>
  <path d="M 301.924 264.444 L 334.695 287.746 L 334.695 334.349 L 301.924 357.65 L 269.153 334.349 L 269.153 287.746 Z" bx:shape="n-gon 301.924 311.047 37.841 46.603 6 0 1@dfb15e78" style="stroke-width: 4px; stroke: rgb(193, 102, 0); fill: url(&quot;#gradient-19&quot;);"/>
  <path d="M 366.988 265.536 L 399.759 288.838 L 399.759 335.441 L 366.988 358.742 L 334.217 335.441 L 334.217 288.838 Z" bx:shape="n-gon 366.988 312.139 37.841 46.603 6 0 1@310464be" style="stroke-width: 4px; stroke: rgb(193, 102, 0); fill: url(&quot;#gradient-20&quot;);"/>
  <path d="M 0.459 337.768 L 33.673 359.106 L 33.673 401.78 L 0.459 423.118 L -32.755 401.781 L -32.755 359.106 Z" bx:shape="n-gon 0.459 380.443 38.352 42.675 6 0 1@72283f5e" style="stroke-width: 4px; fill: rgb(255, 243, 34); stroke: rgb(193, 102, 0);"/>
  <path d="M 68.889 337.768 L 103.43 359.106 L 103.43 401.78 L 68.889 423.118 L 34.348 401.781 L 34.348 359.106 Z" bx:shape="n-gon 68.889 380.443 39.884 42.675 6 0 1@c804bca6" style="stroke-width: 4px; fill: rgb(255, 243, 34); stroke: rgb(193, 102, 0);"/>
  <path d="M 135.742 337.768 L 168.071 359.106 L 168.071 401.78 L 135.742 423.118 L 103.413 401.781 L 103.413 359.106 Z" bx:shape="n-gon 135.742 380.443 37.33 42.675 6 0 1@b59333ef" style="stroke-width: 4px; fill: rgb(255, 243, 34); stroke: rgb(193, 102, 0);"/>
  <path d="M 202.443 337.306 L 236.099 358.644 L 236.099 401.319 L 202.443 422.656 L 168.787 401.319 L 168.787 358.644 Z" bx:shape="n-gon 202.443 379.981 38.863 42.675 6 0 1@0e6fb9d4" style="stroke-width: 4px; fill: rgb(255, 243, 34); stroke: rgb(193, 102, 0);"/>
  <path d="M 268.43 336.306 L 301.201 357.644 L 301.201 400.319 L 268.43 421.656 L 235.659 400.319 L 235.659 357.644 Z" bx:shape="n-gon 268.43 378.981 37.841 42.675 6 0 1@fef86bf0" style="stroke-width: 4px; fill: rgb(255, 243, 34); stroke: rgb(193, 102, 0);"/>
  <path d="M 333.494 337.306 L 366.265 358.644 L 366.265 401.319 L 333.494 422.656 L 300.723 401.319 L 300.723 358.644 Z" bx:shape="n-gon 333.494 379.981 37.841 42.675 6 0 1@e550be30" style="stroke-width: 4px; fill: rgb(255, 243, 34); stroke: rgb(193, 102, 0);"/>
  <path d="M 399.079 336.884 L 432.293 358.222 L 432.293 400.897 L 399.079 422.234 L 365.865 400.897 L 365.865 358.222 Z" bx:shape="n-gon 399.079 379.559 38.352 42.675 6 0 1@5a827604" style="stroke-width: 4px; fill: rgb(255, 243, 34); stroke: rgb(193, 102, 0);"/>
  <path d="M -0.002 -33.672 L 33.212 -19.207 L 33.212 9.721 L -0.002 24.186 L -33.216 9.722 L -33.216 -19.208 Z" bx:shape="n-gon -0.002 -4.743 38.352 28.929 6 0 1@40fd955b" style="stroke-width: 4px; fill: rgb(255, 243, 34); stroke: rgb(193, 102, 0);"/>
  <path d="M 68.428 -33.672 L 102.969 -19.207 L 102.969 9.721 L 68.428 24.186 L 33.887 9.722 L 33.887 -19.208 Z" bx:shape="n-gon 68.428 -4.743 39.884 28.929 6 0 1@4f44d19f" style="stroke-width: 4px; fill: rgb(255, 243, 34); stroke: rgb(193, 102, 0);"/>
  <path d="M 135.281 -33.672 L 167.61 -19.207 L 167.61 9.721 L 135.281 24.186 L 102.952 9.722 L 102.952 -19.208 Z" bx:shape="n-gon 135.281 -4.743 37.33 28.929 6 0 1@db339c09" style="stroke-width: 4px; fill: rgb(255, 243, 34); stroke: rgb(193, 102, 0);"/>
  <path d="M 201.982 -33.985 L 235.638 -19.52 L 235.638 9.408 L 201.982 23.873 L 168.326 9.409 L 168.326 -19.521 Z" bx:shape="n-gon 201.982 -5.056 38.863 28.929 6 0 1@b6217b54" style="stroke-width: 4px; fill: rgb(255, 243, 34); stroke: rgb(193, 102, 0);"/>
  <path d="M 267.969 -34.663 L 300.74 -20.198 L 300.74 8.73 L 267.969 23.195 L 235.198 8.731 L 235.198 -20.199 Z" bx:shape="n-gon 267.969 -5.734 37.841 28.929 6 0 1@70215a8a" style="stroke-width: 4px; fill: rgb(255, 243, 34); stroke: rgb(193, 102, 0);"/>
  <path d="M 333.033 -33.985 L 365.804 -19.52 L 365.804 9.408 L 333.033 23.873 L 300.262 9.409 L 300.262 -19.521 Z" bx:shape="n-gon 333.033 -5.056 37.841 28.929 6 0 1@1d5f7724" style="stroke-width: 4px; fill: rgb(255, 243, 34); stroke: rgb(193, 102, 0);"/>
  <path d="M 398.618 -34.271 L 431.832 -19.806 L 431.832 9.122 L 398.618 23.587 L 365.404 9.123 L 365.404 -19.807 Z" bx:shape="n-gon 398.618 -5.342 38.352 28.929 6 0 1@b8992ce1" style="stroke-width: 4px; fill: rgb(255, 243, 34); stroke: rgb(193, 102, 0);"/>
  <ellipse style="fill: url(&quot;#gradient-26&quot;); stroke: rgb(193, 102, 0); stroke-width: 2px;" cx="151.438" cy="148.102" rx="9.377" ry="9.01"/>
  <ellipse style="stroke: rgb(193, 102, 0); stroke-width: 2px; fill: url(&quot;#gradient-27&quot;);" cx="191.155" cy="150.124" rx="6.803" ry="6.987"/>
  <ellipse style="stroke: rgb(193, 102, 0); stroke-width: 2px; fill: url(&quot;#gradient-28&quot;);" cx="116.528" cy="212.831" rx="9.377" ry="9.01"/>
  <ellipse style="stroke: rgb(193, 102, 0); stroke-width: 2px; fill: url(&quot;#gradient-29&quot;);" cx="170.733" cy="226.522" rx="9.377" ry="9.01"/>
  <ellipse style="stroke: rgb(193, 102, 0); stroke-width: 2px; fill: url(&quot;#gradient-30&quot;);" cx="162.631" cy="214.927" rx="7.421" ry="6.356"/>
  <ellipse style="stroke: rgb(193, 102, 0); stroke-width: 2px; fill: url(&quot;#gradient-31&quot;);" cx="304.08" cy="264.582" rx="9.377" ry="9.01"/>
  <ellipse style="stroke: rgb(193, 102, 0); stroke-width: 2px; fill: url(&quot;#gradient-32&quot;);" cx="299.492" cy="216.868" rx="5.523" ry="6.074"/>
  <ellipse style="stroke: rgb(193, 102, 0); stroke-width: 2px; fill: url(&quot;#gradient-33&quot;);" cx="305.364" cy="223.842" rx="5.523" ry="6.074"/>
  <ellipse style="stroke: rgb(193, 102, 0); stroke-width: 2px; fill: url(&quot;#gradient-35&quot;);" cx="51.186" cy="44.718" rx="9.377" ry="9.01"/>
  <ellipse style="stroke: rgb(193, 102, 0); stroke-width: 2px; fill: url(&quot;#gradient-36&quot;);" cx="90.903" cy="46.74" rx="6.803" ry="6.987"/>
  <ellipse style="stroke: rgb(193, 102, 0); stroke-width: 2px; fill: url(&quot;#gradient-37&quot;);" cx="16.276" cy="109.447" rx="9.377" ry="9.01"/>
  <ellipse style="stroke: rgb(193, 102, 0); stroke-width: 2px; fill: url(&quot;#gradient-38&quot;);" cx="70.481" cy="123.138" rx="9.377" ry="9.01"/>
  <ellipse style="stroke: rgb(193, 102, 0); stroke-width: 2px; fill: url(&quot;#gradient-39&quot;);" cx="62.379" cy="111.543" rx="7.421" ry="6.356"/>
  <ellipse style="stroke: rgb(193, 102, 0); stroke-width: 2px; fill: url(&quot;#gradient-34&quot;);" cx="63.465" cy="-351.13" rx="7.112" ry="6.21" transform="matrix(1, 0, 0, -1, 0, 0)"/>
  <ellipse style="stroke: rgb(193, 102, 0); stroke-width: 2px; fill: url(&quot;#gradient-40&quot;);" cx="93.59" cy="-349.74" rx="5.16" ry="4.816" transform="matrix(1, 0, 0, -1, 0, 0)"/>
  <ellipse style="stroke: rgb(193, 102, 0); stroke-width: 2px; fill: url(&quot;#gradient-41&quot;);" cx="36.985" cy="-306.52" rx="7.112" ry="6.21" transform="matrix(1, 0, 0, -1, 0, 0)"/>
  <ellipse style="stroke: rgb(193, 102, 0); stroke-width: 2px; fill: url(&quot;#gradient-42&quot;);" cx="78.1" cy="-297.09" rx="7.112" ry="6.21" transform="matrix(1, 0, 0, -1, 0, 0)"/>
  <ellipse style="stroke: rgb(193, 102, 0); stroke-width: 2px; fill: url(&quot;#gradient-43&quot;);" cx="71.954" cy="-305.08" rx="5.629" ry="4.381" transform="matrix(1, 0, 0, -1, 0, 0)"/>
</svg>