<?xml version="1.0" encoding="utf-8"?>
<svg xmlns="http://www.w3.org/2000/svg" viewBox="0 0 100 80" width="100px" height="80px" xmlns:bx="https://boxy-svg.com">
  <defs>
    <radialGradient gradientUnits="userSpaceOnUse" cx="50.433" cy="16.648" r="15.421" id="gradient-0">
      <stop offset="0" style="stop-color: rgb(100% 25.098% 0%)"/>
      <stop offset="1" style="stop-color: rgb(68.092% 0% 0%)"/>
    </radialGradient>
    <linearGradient gradientUnits="userSpaceOnUse" x1="18.911" y1="6.142" x2="18.911" y2="24.798" id="gradient-1" gradientTransform="matrix(-0.029787, 0.999556, -0.597407, -0.017803, 27.477826, -1.506059)">
      <stop offset="0" style="stop-color: rgb(85.49% 13.725% 0%)"/>
      <stop offset="1" style="stop-color: rgb(58.021% 0% 0%)"/>
    </linearGradient>
    <linearGradient gradientUnits="userSpaceOnUse" x1="18.911" y1="6.142" x2="18.911" y2="24.798" id="gradient-2" gradientTransform="matrix(-0.029787, 0.999556, -0.597407, -0.017803, 14.5319, -13.790001)">
      <stop offset="0" style="stop-color: rgb(85.49% 13.725% 0%)"/>
      <stop offset="1" style="stop-color: rgb(58.021% 0% 0%)"/>
    </linearGradient>
    <linearGradient gradientUnits="userSpaceOnUse" x1="18.911" y1="6.142" x2="18.911" y2="24.798" id="gradient-3" gradientTransform="matrix(-0.029787, 0.999556, -0.597407, -0.017803, 59.1666, -61.7513)">
      <stop offset="0" style="stop-color: rgb(85.49% 13.725% 0%)"/>
      <stop offset="1" style="stop-color: rgb(58.021% 0% 0%)"/>
    </linearGradient>
    <linearGradient gradientUnits="userSpaceOnUse" x1="49.985" y1="49.523" x2="49.985" y2="65.545" id="gradient-4" gradientTransform="matrix(1, 0, 0, 1.196718, 0, -12.893866)">
      <stop offset="0" style="stop-color: rgb(41.569% 8.2353% 0%)"/>
      <stop offset="1" style="stop-color: rgb(25.886% 8.7501% 0%)"/>
    </linearGradient>
    <linearGradient gradientUnits="userSpaceOnUse" x1="49.985" y1="49.523" x2="49.985" y2="65.545" id="gradient-5" gradientTransform="matrix(0.99994, 0.013141, -0.004404, 0.47993, 0.291682, 33.431078)">
      <stop offset="0" style="stop-color: rgb(84.706% 21.176% 0%)"/>
      <stop offset="1" style="stop-color: rgb(36, 10, 0);"/>
    </linearGradient>
    <linearGradient gradientUnits="userSpaceOnUse" x1="49.864" y1="47.733" x2="49.864" y2="78.511" id="gradient-6">
      <stop offset="0" style="stop-color: rgb(100% 77.647% 10.196%)"/>
      <stop offset="1" style="stop-color: rgb(60.262% 43.52% 0%)"/>
    </linearGradient>
  </defs>
  <path d="M 46.018 48.047 Q 49.864 47.419 53.71 48.047 L 94.089 54.642 Q 97.934 55.271 97.934 56.527 L 97.934 69.717 Q 97.934 70.974 94.089 71.602 L 53.71 78.197 Q 49.864 78.825 46.018 78.197 L 5.639 71.602 Q 1.794 70.974 1.794 69.717 L 1.794 56.527 Q 1.794 55.271 5.639 54.642 Z" bx:shape="n-gon 49.864 63.122 55.507 15.703 6 0.08 1@4d87ffbb" style="stroke-width: 3px; stroke: rgb(105, 55, 0); fill: url(&quot;#gradient-6&quot;);"/>
  <rect x="17.628" y="9.435" width="66.237" height="12.747" style="fill: rgb(183, 154, 9); stroke: rgb(105, 55, 0); stroke-width: 3px;"/>
  <ellipse style="stroke-width: 2px; fill: rgb(255, 227, 0); stroke: rgb(105, 55, 0);" cx="50.306" cy="59.168" rx="29.619" ry="12.286"/>
  <ellipse style="stroke-width: 2px; stroke: url(&quot;#gradient-4&quot;); fill: url(&quot;#gradient-5&quot;);" cx="49.985" cy="55.958" rx="24.599" ry="9.587"/>
  <path d="M 41.038 12.895 L 59.273 12.895 L 59.273 57.437 C 56.892 56.754 53.726 56.338 50.25 56.338 C 46.682 56.338 43.439 56.777 41.038 57.492 L 41.038 12.895 Z" style="stroke-width: 2px; fill: rgb(43, 43, 43); stroke: rgb(13, 13, 13);"/>
  <ellipse style="stroke-width: 2px; fill: url(&quot;#gradient-0&quot;); stroke: rgb(78, 0, 0);" cx="50.433" cy="16.648" rx="15.421" ry="15.534"/>
  <path d="M 18.911 6.142 L 31.348 24.798 L 6.473 24.798 L 18.911 6.142 Z" bx:shape="triangle 6.473 6.142 24.875 18.656 0.5 0 1@64fb071f" style="transform-origin: 18.911px 15.47px; stroke-width: 2px; fill: url(&quot;#gradient-1&quot;); stroke: rgb(83, 0, 0);" transform="matrix(0, -1, -1, 0, 70.289003, -0.308697)"/>
  <path d="M 56.149 39.754 L 44.928 39.754 L 44.928 24.239 C 46.698 24.638 48.746 24.867 50.931 24.867 C 52.799 24.867 54.569 24.7 56.149 24.401 L 56.149 39.754 Z" style="stroke-width: 3px; fill: rgb(101, 86, 10); stroke: rgb(43, 31, 18);"/>
  <path d="M 5.965 -6.142 L 18.402 12.514 L -6.473 12.514 L 5.965 -6.142 Z" bx:shape="triangle -6.473 -6.142 24.875 18.656 0.5 0 1@31a2340c" style="stroke-width: 2px; fill: url(&quot;#gradient-2&quot;); transform-origin: 5.965px 3.186px; stroke: rgb(87, 0, 0);" transform="matrix(0, -1, 1, 0, 4.965601, 12.4201)"/>
  <path d="M 50.6 -54.103 L 63.037 -35.447 L 38.162 -35.447 L 50.6 -54.103 Z" bx:shape="triangle 38.162 -54.103 24.875 18.656 0.5 0 1@cf862dc8" style="stroke-width: 2px; fill: url(&quot;#gradient-3&quot;); transform-origin: 50.6px -44.775px; stroke: rgb(80, 0, 0);" transform="matrix(1, 0, 0, -1, 0, 89.550003)"/>
  <path d="M 47.259 12.99 C 47.259 19.808 49.167 16.232 44.635 16.232 C 40.105 16.232 39.223 25.75 39.368 16.541 C 39.512 7.33 43.041 4.194 47.571 4.194 C 52.101 4.194 47.259 6.172 47.259 12.99 Z" style="fill: rgb(255, 255, 255); transform-box: fill-box; transform-origin: 50% 50%;" transform="matrix(0.984935, 0.172926, -0.172926, 0.984935, 0, -0.000001)"/>
</svg>