<?xml version="1.0" encoding="utf-8"?>
<svg xmlns="http://www.w3.org/2000/svg" viewBox="100 80 100 80" width="100px" height="80px" xmlns:bx="https://boxy-svg.com">
  <defs>
    <linearGradient gradientUnits="userSpaceOnUse" x1="149.611" y1="137.466" x2="149.611" y2="150.887" id="gradient-4">
      <stop offset="0" style="stop-color: rgb(97.647% 59.608% 0%)"/>
      <stop offset="1" style="stop-color: rgb(62.348% 31.18% 0%)"/>
    </linearGradient>
    <linearGradient gradientUnits="userSpaceOnUse" x1="150.516" y1="86.118" x2="150.516" y2="128.004" id="gradient-0">
      <stop offset="0" style="stop-color: rgb(31.765% 27.451% 0%)"/>
      <stop offset="1" style="stop-color: rgb(19.973% 17.267% 0%)"/>
    </linearGradient>
    <filter id="motion-blur-filter-0" bx:preset="motion-blur 1 5 horizontal" color-interpolation-filters="sRGB" x="-50%" y="-50%" width="200%" height="200%">
      <feGaussianBlur stdDeviation="5 0" edgeMode="none"/>
    </filter>
  </defs>
  <rect x="97.384" y="125.282" width="60.304" height="15.605" rx="3" ry="3" style="stroke-opacity: 0.39; fill: rgba(0, 0, 0, 0.325);" transform="matrix(1, 0, -0.693623, 1, 129.796, 18.5262)"/>
  <path d="M 148.269 81.874 Q 150.23 81.109 152.191 81.874 L 187.497 95.647 Q 189.458 96.413 189.943 98.132 L 198.663 129.08 Q 199.147 130.8 197.79 132.178 L 173.357 156.997 Q 172 158.376 169.823 158.376 L 130.637 158.376 Q 128.46 158.376 127.103 156.997 L 102.67 132.178 Q 101.313 130.8 101.797 129.08 L 110.517 98.132 Q 111.002 96.413 112.963 95.647 Z" bx:shape="n-gon 150.23 121.755 50.175 40.646 7 0.05 1@99df6123" style="stroke-width: 3px; fill: rgb(249, 152, 0); stroke: rgb(81, 70, 0);"/>
  <path style="fill: rgb(216, 216, 216); stroke-width: 3px; stroke: rgb(81, 70, 0);" d="M 102.482 129.251 L 197.537 129.251"/>
  <g transform="matrix(1, 0, 0, 1, 24.9033, -28.8533)">
    <path d="M 124.766 150.503 C 118.45 150.503 113.331 145.557 113.331 139.456 C 113.331 134.282 117.012 129.939 121.98 128.739 C 120.817 130.468 120.14 132.534 120.14 134.752 C 120.14 140.854 125.259 145.799 131.575 145.799 C 132.535 145.799 133.469 145.684 134.36 145.468 C 132.321 148.499 128.785 150.503 124.766 150.503 Z" style="fill: rgb(77, 23, 12); transform-box: fill-box; transform-origin: 50% 50%;" transform="matrix(0.999145, -0.041333, 0.041333, 0.999145, 0, 0)"/>
    <path d="M 132.245 142.463 C 127.938 142.463 124.448 138.809 124.448 134.303 C 124.448 130.481 126.958 127.273 130.345 126.387 C 129.552 127.664 129.091 129.19 129.091 130.828 C 129.091 135.335 132.581 138.988 136.888 138.988 C 137.543 138.988 138.18 138.903 138.787 138.744 C 137.397 140.983 134.986 142.463 132.245 142.463 Z" style="fill: rgb(77, 23, 12); transform-box: fill-box; transform-origin: 50% 50%;" transform="matrix(-0.999793, 0.020351, -0.020351, -0.999793, 0.000012, -0.000003)"/>
    <path d="M 127.302 142.054 C 124.804 142.054 122.78 140.038 122.78 137.551 C 122.78 135.442 124.236 133.671 126.2 133.182 C 125.741 133.887 125.473 134.729 125.473 135.633 C 125.473 138.121 127.497 140.137 129.995 140.137 C 130.375 140.137 130.744 140.09 131.096 140.002 C 130.29 141.237 128.892 142.054 127.302 142.054 Z" style="fill: rgb(77, 23, 12);"/>
    <ellipse style="fill: rgb(77, 23, 12);" cx="129.472" cy="135.709" rx="1.784" ry="1.901"/>
  </g>
  <g transform="matrix(1, 0, 0, 1, 24.9043, -28.8543)">
    <path d="M 124.766 150.503 C 118.45 150.503 113.331 145.557 113.331 139.456 C 113.331 134.282 117.012 129.939 121.98 128.739 C 120.817 130.468 120.14 132.534 120.14 134.752 C 120.14 140.854 125.259 145.799 131.575 145.799 C 132.535 145.799 133.469 145.684 134.36 145.468 C 132.321 148.499 128.785 150.503 124.766 150.503 Z" style="fill: rgb(77, 23, 12); transform-box: fill-box; transform-origin: 50% 50%;" transform="matrix(0.999145, -0.041333, 0.041333, 0.999145, 0, 0)"/>
    <path d="M 132.245 142.463 C 127.938 142.463 124.448 138.809 124.448 134.303 C 124.448 130.481 126.958 127.273 130.345 126.387 C 129.552 127.664 129.091 129.19 129.091 130.828 C 129.091 135.335 132.581 138.988 136.888 138.988 C 137.543 138.988 138.18 138.903 138.787 138.744 C 137.397 140.983 134.986 142.463 132.245 142.463 Z" style="fill: rgb(77, 23, 12); transform-box: fill-box; transform-origin: 50% 50%;" transform="matrix(-0.999793, 0.020351, -0.020351, -0.999793, 0.000012, -0.000003)"/>
    <path d="M 127.302 142.054 C 124.804 142.054 122.78 140.038 122.78 137.551 C 122.78 135.442 124.236 133.671 126.2 133.182 C 125.741 133.887 125.473 134.729 125.473 135.633 C 125.473 138.121 127.497 140.137 129.995 140.137 C 130.375 140.137 130.744 140.09 131.096 140.002 C 130.29 141.237 128.892 142.054 127.302 142.054 Z" style="fill: rgb(77, 23, 12);"/>
    <ellipse style="fill: rgb(77, 23, 12);" cx="129.472" cy="135.709" rx="1.784" ry="1.901"/>
  </g>
  <path d="M 148.72 86.462 C 149.916 86.003 151.115 86.003 152.312 86.462 L 184.664 98.862 C 185.86 99.32 186.608 100.066 186.904 101.098 L 194.619 128.004 L 106.413 128.004 L 114.128 101.098 C 114.423 100.066 115.171 99.32 116.37 98.862 L 148.72 86.462 Z" style="stroke: rgb(81, 70, 0); fill: url(&quot;#gradient-0&quot;);"/>
  <rect x="73.619" y="326.851" width="37.914" height="88.2" rx="3" ry="3" style="fill: rgb(255, 205, 0); filter: url(&quot;#motion-blur-filter-0&quot;); fill-opacity: 0.42; transform-box: fill-box; transform-origin: 50% 50%;" transform="matrix(0, -1, 1, 0, 58.101008, -263.217023)"/>
  <path d="M 185.793 135.473 L 167.525 152.675 C 166.848 153.312 165.967 153.631 164.883 153.631 L 135.584 153.631 C 134.5 153.631 133.619 153.312 132.943 152.675 L 114.675 135.473 C 114.341 135.158 114.118 134.823 114.009 134.471 L 186.459 134.471 C 186.349 134.823 186.126 135.158 185.793 135.473 Z" style="stroke: rgb(81, 70, 0); fill: rgb(83, 72, 0);"/>
  <path d="M 176.965 138.168 L 162.912 150.218 C 162.391 150.664 161.713 150.887 160.879 150.887 L 138.341 150.887 C 137.507 150.887 136.829 150.664 136.309 150.218 L 122.256 138.168 C 121.999 137.947 121.828 137.713 121.744 137.466 L 177.477 137.466 C 177.392 137.713 177.221 137.947 176.965 138.168 Z" style="stroke: rgb(81, 70, 0); fill: url(&quot;#gradient-4&quot;);"/>
  <path d="M 162.128 128.075 C 162.128 134.205 157.198 139.175 151.117 139.175 C 145.036 139.175 140.106 134.205 140.106 128.075 C 140.106 127.765 140.119 127.457 140.143 127.153 L 162.091 127.153 C 162.115 127.457 162.128 127.765 162.128 128.075 Z" style="fill: rgb(255, 198, 0); stroke: rgb(83, 72, 0);"/>
  <path d="M 153.137 134.576 C 153.137 134.873 153.08 135.095 152.967 135.243 L 151.177 137.574 C 151.064 137.722 150.95 137.722 150.837 137.574 L 149.047 135.243 C 148.934 135.095 148.877 134.873 148.877 134.576 L 148.877 130.964 L 146.4 129.518 C 146.237 129.423 146.155 129.279 146.155 129.088 L 146.155 127.292 L 155.987 127.292 L 155.987 129.088 C 155.987 129.279 155.905 129.423 155.742 129.518 L 153.137 131.039 Z" style="fill: rgb(97, 81, 24);"/>
  <path d="M 122.251 86.68 Q 122.555 86.494 122.859 86.68 L 126.046 88.635 Q 126.349 88.822 126.349 89.194 L 126.349 93.104 Q 126.349 93.477 126.046 93.663 L 122.859 95.618 Q 122.555 95.804 122.251 95.618 L 119.064 93.663 Q 118.761 93.477 118.761 93.104 L 118.761 89.194 Q 118.761 88.822 119.064 88.635 Z" bx:shape="n-gon 122.555 91.149 4.381 4.655 6 0.08 1@2fbe8f70" style="stroke: rgba(255, 255, 255, 0.384); fill: rgb(255, 205, 0);"/>
  <path d="M 108.872 105.504 Q 109.176 105.318 109.48 105.504 L 112.667 107.459 Q 112.97 107.646 112.97 108.018 L 112.97 111.928 Q 112.97 112.301 112.667 112.487 L 109.48 114.442 Q 109.176 114.628 108.872 114.442 L 105.685 112.487 Q 105.382 112.301 105.382 111.928 L 105.382 108.018 Q 105.382 107.646 105.685 107.459 Z" bx:shape="n-gon 109.176 109.973 4.381 4.655 6 0.08 1@8ae5c2b8" style="stroke: rgba(255, 255, 255, 0.384); fill: rgb(255, 205, 0);"/>
  <path d="M -178.964 83.744 Q -178.66 83.558 -178.356 83.744 L -175.169 85.699 Q -174.866 85.886 -174.866 86.258 L -174.866 90.168 Q -174.866 90.541 -175.169 90.727 L -178.356 92.682 Q -178.66 92.868 -178.964 92.682 L -182.151 90.727 Q -182.454 90.541 -182.454 90.168 L -182.454 86.258 Q -182.454 85.886 -182.151 85.699 Z" bx:shape="n-gon -178.66 88.213 4.381 4.655 6 0.08 1@1959e014" style="stroke: rgba(255, 255, 255, 0.384); fill: rgb(255, 205, 0);" transform="matrix(-1, 0, 0, 1, 0, 0)"/>
  <path d="M -189.764 104.934 Q -189.46 104.748 -189.156 104.934 L -185.969 106.889 Q -185.666 107.076 -185.666 107.448 L -185.666 111.358 Q -185.666 111.731 -185.969 111.917 L -189.156 113.872 Q -189.46 114.058 -189.764 113.872 L -192.951 111.917 Q -193.254 111.731 -193.254 111.358 L -193.254 107.448 Q -193.254 107.076 -192.951 106.889 Z" bx:shape="n-gon -189.46 109.403 4.381 4.655 6 0.08 1@e8c77286" style="stroke: rgba(255, 255, 255, 0.384); fill: rgb(255, 205, 0);" transform="matrix(-1, 0, 0, 1, 0, 0)"/>
  <path d="M 139.995 113.592 Q 140.299 113.406 140.603 113.592 L 143.79 115.547 Q 144.093 115.734 144.093 116.106 L 144.093 120.016 Q 144.093 120.389 143.79 120.575 L 140.603 122.53 Q 140.299 122.716 139.995 122.53 L 136.808 120.575 Q 136.505 120.389 136.505 120.016 L 136.505 116.106 Q 136.505 115.734 136.808 115.547 Z" bx:shape="n-gon 140.299 118.061 4.381 4.655 6 0.08 1@461bf8d9" style="stroke: rgba(255, 255, 255, 0.384); fill: rgb(255, 205, 0);"/>
</svg>